M48
;DRILL file {KiCad 4.0.2-4+6225~38~ubuntu15.10.1-stable} date Mon 06 Jun 2016 09:21:03 PM EDT
;FORMAT={-:-/ absolute / inch / decimal}
FMAT,2
INCH,TZ
T1C0.016
T2C0.030
T3C0.031
T4C0.040
T5C0.047
%
G90
G05
M72
T1
X4.8Y-5.25
X5.Y-5.075
X5.Y-5.4
X5.175Y-4.925
X5.325Y-5.15
X5.4Y-5.2
X5.8Y-4.975
T2
X5.6Y-5.325
X5.65Y-4.375
X5.65Y-4.475
X5.65Y-4.775
X5.65Y-4.875
X5.7Y-5.325
X5.8Y-5.325
X5.9Y-5.325
X6.Y-5.325
X6.1Y-5.325
T3
X5.175Y-3.9781
X5.175Y-4.175
X5.55Y-4.125
X5.55Y-4.225
X5.55Y-4.325
X5.55Y-4.425
X5.55Y-4.525
X5.55Y-4.625
X5.55Y-4.725
X5.55Y-4.825
X5.55Y-4.925
X5.55Y-5.025
X5.55Y-5.125
X5.55Y-5.225
X6.15Y-4.125
X6.15Y-4.225
X6.15Y-4.325
X6.15Y-4.425
X6.15Y-4.525
X6.15Y-4.625
X6.15Y-4.725
X6.15Y-4.825
X6.15Y-4.925
X6.15Y-5.025
X6.15Y-5.125
X6.15Y-5.225
T4
X4.725Y-4.525
X4.725Y-4.625
X4.725Y-4.725
X4.725Y-4.825
X4.725Y-4.925
X4.725Y-5.025
X4.725Y-5.125
X4.725Y-5.225
X4.725Y-5.325
X4.9Y-4.525
X4.9Y-4.625
X4.9Y-4.725
X4.9Y-4.825
X4.9Y-4.925
X4.9Y-5.025
X4.9Y-5.125
X4.9Y-5.225
X4.9Y-5.325
T5
X5.75Y-3.775
X5.85Y-3.775
X5.95Y-3.775
X6.05Y-3.775
T0
M30
