G04 #@! TF.FileFunction,Legend,Bot*
%FSLAX46Y46*%
G04 Gerber Fmt 4.6, Leading zero omitted, Abs format (unit mm)*
G04 Created by KiCad (PCBNEW 4.0.2-4+6225~38~ubuntu15.10.1-stable) date Mon 06 Jun 2016 09:20:46 PM EDT*
%MOMM*%
G01*
G04 APERTURE LIST*
%ADD10C,0.100000*%
%ADD11C,0.300000*%
%ADD12C,0.173000*%
G04 APERTURE END LIST*
D10*
D11*
X147273571Y-110725001D02*
X148345000Y-110725001D01*
X148559286Y-110653573D01*
X148702143Y-110510716D01*
X148773571Y-110296430D01*
X148773571Y-110153573D01*
X148702143Y-112010715D02*
X148773571Y-111867858D01*
X148773571Y-111582144D01*
X148702143Y-111439287D01*
X148559286Y-111367858D01*
X147987857Y-111367858D01*
X147845000Y-111439287D01*
X147773571Y-111582144D01*
X147773571Y-111867858D01*
X147845000Y-112010715D01*
X147987857Y-112082144D01*
X148130714Y-112082144D01*
X148273571Y-111367858D01*
X148773571Y-112725001D02*
X147773571Y-112725001D01*
X148059286Y-112725001D02*
X147916429Y-112796429D01*
X147845000Y-112867858D01*
X147773571Y-113010715D01*
X147773571Y-113153572D01*
X148702143Y-114225000D02*
X148773571Y-114082143D01*
X148773571Y-113796429D01*
X148702143Y-113653572D01*
X148559286Y-113582143D01*
X147987857Y-113582143D01*
X147845000Y-113653572D01*
X147773571Y-113796429D01*
X147773571Y-114082143D01*
X147845000Y-114225000D01*
X147987857Y-114296429D01*
X148130714Y-114296429D01*
X148273571Y-113582143D01*
X148773571Y-114939286D02*
X147773571Y-114939286D01*
X147916429Y-114939286D02*
X147845000Y-115010714D01*
X147773571Y-115153572D01*
X147773571Y-115367857D01*
X147845000Y-115510714D01*
X147987857Y-115582143D01*
X148773571Y-115582143D01*
X147987857Y-115582143D02*
X147845000Y-115653572D01*
X147773571Y-115796429D01*
X147773571Y-116010714D01*
X147845000Y-116153572D01*
X147987857Y-116225000D01*
X148773571Y-116225000D01*
X147773571Y-116796429D02*
X148773571Y-117153572D01*
X147773571Y-117510714D02*
X148773571Y-117153572D01*
X149130714Y-117010714D01*
X149202143Y-116939286D01*
X149273571Y-116796429D01*
X147987857Y-119725000D02*
X147987857Y-119225000D01*
X148773571Y-119225000D02*
X147273571Y-119225000D01*
X147273571Y-119939286D01*
X148773571Y-120725000D02*
X148702143Y-120582142D01*
X148559286Y-120510714D01*
X147273571Y-120510714D01*
X148702143Y-121867856D02*
X148773571Y-121724999D01*
X148773571Y-121439285D01*
X148702143Y-121296428D01*
X148559286Y-121224999D01*
X147987857Y-121224999D01*
X147845000Y-121296428D01*
X147773571Y-121439285D01*
X147773571Y-121724999D01*
X147845000Y-121867856D01*
X147987857Y-121939285D01*
X148130714Y-121939285D01*
X148273571Y-121224999D01*
X148773571Y-122582142D02*
X147773571Y-122582142D01*
X147273571Y-122582142D02*
X147345000Y-122510713D01*
X147416429Y-122582142D01*
X147345000Y-122653570D01*
X147273571Y-122582142D01*
X147416429Y-122582142D01*
X147773571Y-123082142D02*
X147773571Y-123653571D01*
X147273571Y-123296428D02*
X148559286Y-123296428D01*
X148702143Y-123367856D01*
X148773571Y-123510714D01*
X148773571Y-123653571D01*
X147773571Y-124010714D02*
X147773571Y-124796428D01*
X148773571Y-124010714D01*
X148773571Y-124796428D01*
X149816429Y-107082144D02*
X149745000Y-107153573D01*
X149673571Y-107296430D01*
X149673571Y-107653573D01*
X149745000Y-107796430D01*
X149816429Y-107867859D01*
X149959286Y-107939287D01*
X150102143Y-107939287D01*
X150316429Y-107867859D01*
X151173571Y-107010716D01*
X151173571Y-107939287D01*
X149673571Y-108867858D02*
X149673571Y-109010715D01*
X149745000Y-109153572D01*
X149816429Y-109225001D01*
X149959286Y-109296430D01*
X150245000Y-109367858D01*
X150602143Y-109367858D01*
X150887857Y-109296430D01*
X151030714Y-109225001D01*
X151102143Y-109153572D01*
X151173571Y-109010715D01*
X151173571Y-108867858D01*
X151102143Y-108725001D01*
X151030714Y-108653572D01*
X150887857Y-108582144D01*
X150602143Y-108510715D01*
X150245000Y-108510715D01*
X149959286Y-108582144D01*
X149816429Y-108653572D01*
X149745000Y-108725001D01*
X149673571Y-108867858D01*
X151173571Y-110796429D02*
X151173571Y-109939286D01*
X151173571Y-110367858D02*
X149673571Y-110367858D01*
X149887857Y-110225001D01*
X150030714Y-110082143D01*
X150102143Y-109939286D01*
X149673571Y-112082143D02*
X149673571Y-111796429D01*
X149745000Y-111653572D01*
X149816429Y-111582143D01*
X150030714Y-111439286D01*
X150316429Y-111367857D01*
X150887857Y-111367857D01*
X151030714Y-111439286D01*
X151102143Y-111510714D01*
X151173571Y-111653572D01*
X151173571Y-111939286D01*
X151102143Y-112082143D01*
X151030714Y-112153572D01*
X150887857Y-112225000D01*
X150530714Y-112225000D01*
X150387857Y-112153572D01*
X150316429Y-112082143D01*
X150245000Y-111939286D01*
X150245000Y-111653572D01*
X150316429Y-111510714D01*
X150387857Y-111439286D01*
X150530714Y-111367857D01*
X151102143Y-114582142D02*
X151173571Y-114439285D01*
X151173571Y-114153571D01*
X151102143Y-114010714D01*
X150959286Y-113939285D01*
X150387857Y-113939285D01*
X150245000Y-114010714D01*
X150173571Y-114153571D01*
X150173571Y-114439285D01*
X150245000Y-114582142D01*
X150387857Y-114653571D01*
X150530714Y-114653571D01*
X150673571Y-113939285D01*
X151173571Y-115296428D02*
X149673571Y-115296428D01*
X149673571Y-115867856D01*
X149745000Y-116010714D01*
X149816429Y-116082142D01*
X149959286Y-116153571D01*
X150173571Y-116153571D01*
X150316429Y-116082142D01*
X150387857Y-116010714D01*
X150459286Y-115867856D01*
X150459286Y-115296428D01*
X151173571Y-116796428D02*
X150173571Y-116796428D01*
X149673571Y-116796428D02*
X149745000Y-116724999D01*
X149816429Y-116796428D01*
X149745000Y-116867856D01*
X149673571Y-116796428D01*
X149816429Y-116796428D01*
X150173571Y-117510714D02*
X151173571Y-117510714D01*
X150316429Y-117510714D02*
X150245000Y-117582142D01*
X150173571Y-117725000D01*
X150173571Y-117939285D01*
X150245000Y-118082142D01*
X150387857Y-118153571D01*
X151173571Y-118153571D01*
X151173571Y-118867857D02*
X149673571Y-118867857D01*
X150245000Y-118867857D02*
X150173571Y-119010714D01*
X150173571Y-119296428D01*
X150245000Y-119439285D01*
X150316429Y-119510714D01*
X150459286Y-119582143D01*
X150887857Y-119582143D01*
X151030714Y-119510714D01*
X151102143Y-119439285D01*
X151173571Y-119296428D01*
X151173571Y-119010714D01*
X151102143Y-118867857D01*
X151173571Y-120867857D02*
X150387857Y-120867857D01*
X150245000Y-120796428D01*
X150173571Y-120653571D01*
X150173571Y-120367857D01*
X150245000Y-120225000D01*
X151102143Y-120867857D02*
X151173571Y-120725000D01*
X151173571Y-120367857D01*
X151102143Y-120225000D01*
X150959286Y-120153571D01*
X150816429Y-120153571D01*
X150673571Y-120225000D01*
X150602143Y-120367857D01*
X150602143Y-120725000D01*
X150530714Y-120867857D01*
X151173571Y-121796429D02*
X151102143Y-121653571D01*
X150959286Y-121582143D01*
X149673571Y-121582143D01*
X151173571Y-122582143D02*
X151102143Y-122439285D01*
X150959286Y-122367857D01*
X149673571Y-122367857D01*
X151030714Y-123153571D02*
X151102143Y-123224999D01*
X151173571Y-123153571D01*
X151102143Y-123082142D01*
X151030714Y-123153571D01*
X151173571Y-123153571D01*
X151102143Y-124510714D02*
X151173571Y-124367857D01*
X151173571Y-124082143D01*
X151102143Y-123939285D01*
X151030714Y-123867857D01*
X150887857Y-123796428D01*
X150459286Y-123796428D01*
X150316429Y-123867857D01*
X150245000Y-123939285D01*
X150173571Y-124082143D01*
X150173571Y-124367857D01*
X150245000Y-124510714D01*
X151173571Y-125367857D02*
X151102143Y-125224999D01*
X151030714Y-125153571D01*
X150887857Y-125082142D01*
X150459286Y-125082142D01*
X150316429Y-125153571D01*
X150245000Y-125224999D01*
X150173571Y-125367857D01*
X150173571Y-125582142D01*
X150245000Y-125724999D01*
X150316429Y-125796428D01*
X150459286Y-125867857D01*
X150887857Y-125867857D01*
X151030714Y-125796428D01*
X151102143Y-125724999D01*
X151173571Y-125582142D01*
X151173571Y-125367857D01*
X151173571Y-126510714D02*
X150173571Y-126510714D01*
X150316429Y-126510714D02*
X150245000Y-126582142D01*
X150173571Y-126725000D01*
X150173571Y-126939285D01*
X150245000Y-127082142D01*
X150387857Y-127153571D01*
X151173571Y-127153571D01*
X150387857Y-127153571D02*
X150245000Y-127225000D01*
X150173571Y-127367857D01*
X150173571Y-127582142D01*
X150245000Y-127725000D01*
X150387857Y-127796428D01*
X151173571Y-127796428D01*
X153573571Y-102939287D02*
X152573571Y-102939287D01*
X152073571Y-102939287D02*
X152145000Y-102867858D01*
X152216429Y-102939287D01*
X152145000Y-103010715D01*
X152073571Y-102939287D01*
X152216429Y-102939287D01*
X152216429Y-103582144D02*
X152145000Y-103653573D01*
X152073571Y-103796430D01*
X152073571Y-104153573D01*
X152145000Y-104296430D01*
X152216429Y-104367859D01*
X152359286Y-104439287D01*
X152502143Y-104439287D01*
X152716429Y-104367859D01*
X153573571Y-103510716D01*
X153573571Y-104439287D01*
X153502143Y-105725001D02*
X153573571Y-105582144D01*
X153573571Y-105296430D01*
X153502143Y-105153572D01*
X153430714Y-105082144D01*
X153287857Y-105010715D01*
X152859286Y-105010715D01*
X152716429Y-105082144D01*
X152645000Y-105153572D01*
X152573571Y-105296430D01*
X152573571Y-105582144D01*
X152645000Y-105725001D01*
X153573571Y-107510715D02*
X152073571Y-107510715D01*
X152073571Y-107867858D01*
X152145000Y-108082143D01*
X152287857Y-108225001D01*
X152430714Y-108296429D01*
X152716429Y-108367858D01*
X152930714Y-108367858D01*
X153216429Y-108296429D01*
X153359286Y-108225001D01*
X153502143Y-108082143D01*
X153573571Y-107867858D01*
X153573571Y-107510715D01*
X153573571Y-109010715D02*
X152573571Y-109010715D01*
X152859286Y-109010715D02*
X152716429Y-109082143D01*
X152645000Y-109153572D01*
X152573571Y-109296429D01*
X152573571Y-109439286D01*
X153573571Y-109939286D02*
X152573571Y-109939286D01*
X152073571Y-109939286D02*
X152145000Y-109867857D01*
X152216429Y-109939286D01*
X152145000Y-110010714D01*
X152073571Y-109939286D01*
X152216429Y-109939286D01*
X152573571Y-110510715D02*
X153573571Y-110867858D01*
X152573571Y-111225000D01*
X153502143Y-112367857D02*
X153573571Y-112225000D01*
X153573571Y-111939286D01*
X153502143Y-111796429D01*
X153359286Y-111725000D01*
X152787857Y-111725000D01*
X152645000Y-111796429D01*
X152573571Y-111939286D01*
X152573571Y-112225000D01*
X152645000Y-112367857D01*
X152787857Y-112439286D01*
X152930714Y-112439286D01*
X153073571Y-111725000D01*
X153573571Y-113082143D02*
X152573571Y-113082143D01*
X152859286Y-113082143D02*
X152716429Y-113153571D01*
X152645000Y-113225000D01*
X152573571Y-113367857D01*
X152573571Y-113510714D01*
X152787857Y-115653571D02*
X152859286Y-115867857D01*
X152930714Y-115939285D01*
X153073571Y-116010714D01*
X153287857Y-116010714D01*
X153430714Y-115939285D01*
X153502143Y-115867857D01*
X153573571Y-115724999D01*
X153573571Y-115153571D01*
X152073571Y-115153571D01*
X152073571Y-115653571D01*
X152145000Y-115796428D01*
X152216429Y-115867857D01*
X152359286Y-115939285D01*
X152502143Y-115939285D01*
X152645000Y-115867857D01*
X152716429Y-115796428D01*
X152787857Y-115653571D01*
X152787857Y-115153571D01*
X153573571Y-116867857D02*
X153502143Y-116724999D01*
X153430714Y-116653571D01*
X153287857Y-116582142D01*
X152859286Y-116582142D01*
X152716429Y-116653571D01*
X152645000Y-116724999D01*
X152573571Y-116867857D01*
X152573571Y-117082142D01*
X152645000Y-117224999D01*
X152716429Y-117296428D01*
X152859286Y-117367857D01*
X153287857Y-117367857D01*
X153430714Y-117296428D01*
X153502143Y-117224999D01*
X153573571Y-117082142D01*
X153573571Y-116867857D01*
X153573571Y-118653571D02*
X152787857Y-118653571D01*
X152645000Y-118582142D01*
X152573571Y-118439285D01*
X152573571Y-118153571D01*
X152645000Y-118010714D01*
X153502143Y-118653571D02*
X153573571Y-118510714D01*
X153573571Y-118153571D01*
X153502143Y-118010714D01*
X153359286Y-117939285D01*
X153216429Y-117939285D01*
X153073571Y-118010714D01*
X153002143Y-118153571D01*
X153002143Y-118510714D01*
X152930714Y-118653571D01*
X153573571Y-119367857D02*
X152573571Y-119367857D01*
X152859286Y-119367857D02*
X152716429Y-119439285D01*
X152645000Y-119510714D01*
X152573571Y-119653571D01*
X152573571Y-119796428D01*
X153573571Y-120939285D02*
X152073571Y-120939285D01*
X153502143Y-120939285D02*
X153573571Y-120796428D01*
X153573571Y-120510714D01*
X153502143Y-120367856D01*
X153430714Y-120296428D01*
X153287857Y-120224999D01*
X152859286Y-120224999D01*
X152716429Y-120296428D01*
X152645000Y-120367856D01*
X152573571Y-120510714D01*
X152573571Y-120796428D01*
X152645000Y-120939285D01*
X153573571Y-122796428D02*
X152073571Y-122796428D01*
X152573571Y-123510714D02*
X153573571Y-123510714D01*
X152716429Y-123510714D02*
X152645000Y-123582142D01*
X152573571Y-123725000D01*
X152573571Y-123939285D01*
X152645000Y-124082142D01*
X152787857Y-124153571D01*
X153573571Y-124153571D01*
X152573571Y-124653571D02*
X152573571Y-125225000D01*
X152073571Y-124867857D02*
X153359286Y-124867857D01*
X153502143Y-124939285D01*
X153573571Y-125082143D01*
X153573571Y-125225000D01*
X153502143Y-126296428D02*
X153573571Y-126153571D01*
X153573571Y-125867857D01*
X153502143Y-125725000D01*
X153359286Y-125653571D01*
X152787857Y-125653571D01*
X152645000Y-125725000D01*
X152573571Y-125867857D01*
X152573571Y-126153571D01*
X152645000Y-126296428D01*
X152787857Y-126367857D01*
X152930714Y-126367857D01*
X153073571Y-125653571D01*
X153573571Y-127010714D02*
X152573571Y-127010714D01*
X152859286Y-127010714D02*
X152716429Y-127082142D01*
X152645000Y-127153571D01*
X152573571Y-127296428D01*
X152573571Y-127439285D01*
X152573571Y-127724999D02*
X152573571Y-128296428D01*
X153573571Y-127939285D02*
X152287857Y-127939285D01*
X152145000Y-128010713D01*
X152073571Y-128153571D01*
X152073571Y-128296428D01*
X153573571Y-129439285D02*
X152787857Y-129439285D01*
X152645000Y-129367856D01*
X152573571Y-129224999D01*
X152573571Y-128939285D01*
X152645000Y-128796428D01*
X153502143Y-129439285D02*
X153573571Y-129296428D01*
X153573571Y-128939285D01*
X153502143Y-128796428D01*
X153359286Y-128724999D01*
X153216429Y-128724999D01*
X153073571Y-128796428D01*
X153002143Y-128939285D01*
X153002143Y-129296428D01*
X152930714Y-129439285D01*
X153502143Y-130796428D02*
X153573571Y-130653571D01*
X153573571Y-130367857D01*
X153502143Y-130224999D01*
X153430714Y-130153571D01*
X153287857Y-130082142D01*
X152859286Y-130082142D01*
X152716429Y-130153571D01*
X152645000Y-130224999D01*
X152573571Y-130367857D01*
X152573571Y-130653571D01*
X152645000Y-130796428D01*
X153502143Y-132010713D02*
X153573571Y-131867856D01*
X153573571Y-131582142D01*
X153502143Y-131439285D01*
X153359286Y-131367856D01*
X152787857Y-131367856D01*
X152645000Y-131439285D01*
X152573571Y-131582142D01*
X152573571Y-131867856D01*
X152645000Y-132010713D01*
X152787857Y-132082142D01*
X152930714Y-132082142D01*
X153073571Y-131367856D01*
D12*
X138707857Y-118935367D02*
X138707857Y-117689367D01*
X138136429Y-117689367D01*
X137993571Y-117748700D01*
X137922143Y-117808033D01*
X137850714Y-117926700D01*
X137850714Y-118104700D01*
X137922143Y-118223367D01*
X137993571Y-118282700D01*
X138136429Y-118342033D01*
X138707857Y-118342033D01*
X137279286Y-117808033D02*
X137207857Y-117748700D01*
X137065000Y-117689367D01*
X136707857Y-117689367D01*
X136565000Y-117748700D01*
X136493571Y-117808033D01*
X136422143Y-117926700D01*
X136422143Y-118045367D01*
X136493571Y-118223367D01*
X137350714Y-118935367D01*
X136422143Y-118935367D01*
X134707858Y-118876033D02*
X134493572Y-118935367D01*
X134136429Y-118935367D01*
X133993572Y-118876033D01*
X133922143Y-118816700D01*
X133850715Y-118698033D01*
X133850715Y-118579367D01*
X133922143Y-118460700D01*
X133993572Y-118401367D01*
X134136429Y-118342033D01*
X134422143Y-118282700D01*
X134565001Y-118223367D01*
X134636429Y-118164033D01*
X134707858Y-118045367D01*
X134707858Y-117926700D01*
X134636429Y-117808033D01*
X134565001Y-117748700D01*
X134422143Y-117689367D01*
X134065001Y-117689367D01*
X133850715Y-117748700D01*
X133207858Y-118935367D02*
X133207858Y-117689367D01*
X132850715Y-117689367D01*
X132636430Y-117748700D01*
X132493572Y-117867367D01*
X132422144Y-117986033D01*
X132350715Y-118223367D01*
X132350715Y-118401367D01*
X132422144Y-118638700D01*
X132493572Y-118757367D01*
X132636430Y-118876033D01*
X132850715Y-118935367D01*
X133207858Y-118935367D01*
X131707858Y-117689367D02*
X131707858Y-118698033D01*
X131636430Y-118816700D01*
X131565001Y-118876033D01*
X131422144Y-118935367D01*
X131136430Y-118935367D01*
X130993572Y-118876033D01*
X130922144Y-118816700D01*
X130850715Y-118698033D01*
X130850715Y-117689367D01*
X137922143Y-120852767D02*
X138779286Y-120852767D01*
X138350714Y-120852767D02*
X138350714Y-119606767D01*
X138493571Y-119784767D01*
X138636429Y-119903433D01*
X138779286Y-119962767D01*
X136136429Y-120378100D02*
X134993572Y-120378100D01*
X132279286Y-120852767D02*
X132779286Y-120259433D01*
X133136429Y-120852767D02*
X133136429Y-119606767D01*
X132565001Y-119606767D01*
X132422143Y-119666100D01*
X132350715Y-119725433D01*
X132279286Y-119844100D01*
X132279286Y-120022100D01*
X132350715Y-120140767D01*
X132422143Y-120200100D01*
X132565001Y-120259433D01*
X133136429Y-120259433D01*
X131065001Y-120793433D02*
X131207858Y-120852767D01*
X131493572Y-120852767D01*
X131636429Y-120793433D01*
X131707858Y-120674767D01*
X131707858Y-120200100D01*
X131636429Y-120081433D01*
X131493572Y-120022100D01*
X131207858Y-120022100D01*
X131065001Y-120081433D01*
X130993572Y-120200100D01*
X130993572Y-120318767D01*
X131707858Y-120437433D01*
X130136429Y-120852767D02*
X130279287Y-120793433D01*
X130350715Y-120674767D01*
X130350715Y-119606767D01*
X128922144Y-120852767D02*
X128922144Y-120200100D01*
X128993573Y-120081433D01*
X129136430Y-120022100D01*
X129422144Y-120022100D01*
X129565001Y-120081433D01*
X128922144Y-120793433D02*
X129065001Y-120852767D01*
X129422144Y-120852767D01*
X129565001Y-120793433D01*
X129636430Y-120674767D01*
X129636430Y-120556100D01*
X129565001Y-120437433D01*
X129422144Y-120378100D01*
X129065001Y-120378100D01*
X128922144Y-120318767D01*
X128350715Y-120022100D02*
X127993572Y-120852767D01*
X127636430Y-120022100D02*
X127993572Y-120852767D01*
X128136430Y-121149433D01*
X128207858Y-121208767D01*
X128350715Y-121268100D01*
X126279287Y-120852767D02*
X127136430Y-120852767D01*
X126707858Y-120852767D02*
X126707858Y-119606767D01*
X126850715Y-119784767D01*
X126993573Y-119903433D01*
X127136430Y-119962767D01*
X138779286Y-121642833D02*
X138707857Y-121583500D01*
X138565000Y-121524167D01*
X138207857Y-121524167D01*
X138065000Y-121583500D01*
X137993571Y-121642833D01*
X137922143Y-121761500D01*
X137922143Y-121880167D01*
X137993571Y-122058167D01*
X138850714Y-122770167D01*
X137922143Y-122770167D01*
X136136429Y-122295500D02*
X134993572Y-122295500D01*
X132279286Y-122770167D02*
X132779286Y-122176833D01*
X133136429Y-122770167D02*
X133136429Y-121524167D01*
X132565001Y-121524167D01*
X132422143Y-121583500D01*
X132350715Y-121642833D01*
X132279286Y-121761500D01*
X132279286Y-121939500D01*
X132350715Y-122058167D01*
X132422143Y-122117500D01*
X132565001Y-122176833D01*
X133136429Y-122176833D01*
X131065001Y-122710833D02*
X131207858Y-122770167D01*
X131493572Y-122770167D01*
X131636429Y-122710833D01*
X131707858Y-122592167D01*
X131707858Y-122117500D01*
X131636429Y-121998833D01*
X131493572Y-121939500D01*
X131207858Y-121939500D01*
X131065001Y-121998833D01*
X130993572Y-122117500D01*
X130993572Y-122236167D01*
X131707858Y-122354833D01*
X130136429Y-122770167D02*
X130279287Y-122710833D01*
X130350715Y-122592167D01*
X130350715Y-121524167D01*
X128922144Y-122770167D02*
X128922144Y-122117500D01*
X128993573Y-121998833D01*
X129136430Y-121939500D01*
X129422144Y-121939500D01*
X129565001Y-121998833D01*
X128922144Y-122710833D02*
X129065001Y-122770167D01*
X129422144Y-122770167D01*
X129565001Y-122710833D01*
X129636430Y-122592167D01*
X129636430Y-122473500D01*
X129565001Y-122354833D01*
X129422144Y-122295500D01*
X129065001Y-122295500D01*
X128922144Y-122236167D01*
X128350715Y-121939500D02*
X127993572Y-122770167D01*
X127636430Y-121939500D02*
X127993572Y-122770167D01*
X128136430Y-123066833D01*
X128207858Y-123126167D01*
X128350715Y-123185500D01*
X127136430Y-121642833D02*
X127065001Y-121583500D01*
X126922144Y-121524167D01*
X126565001Y-121524167D01*
X126422144Y-121583500D01*
X126350715Y-121642833D01*
X126279287Y-121761500D01*
X126279287Y-121880167D01*
X126350715Y-122058167D01*
X127207858Y-122770167D01*
X126279287Y-122770167D01*
X138850714Y-123441567D02*
X137922143Y-123441567D01*
X138422143Y-123916233D01*
X138207857Y-123916233D01*
X138065000Y-123975567D01*
X137993571Y-124034900D01*
X137922143Y-124153567D01*
X137922143Y-124450233D01*
X137993571Y-124568900D01*
X138065000Y-124628233D01*
X138207857Y-124687567D01*
X138636429Y-124687567D01*
X138779286Y-124628233D01*
X138850714Y-124568900D01*
X136136429Y-124212900D02*
X134993572Y-124212900D01*
X132707858Y-123441567D02*
X132707858Y-124331567D01*
X132779286Y-124509567D01*
X132922143Y-124628233D01*
X133136429Y-124687567D01*
X133279286Y-124687567D01*
X132065001Y-123560233D02*
X131993572Y-123500900D01*
X131850715Y-123441567D01*
X131493572Y-123441567D01*
X131350715Y-123500900D01*
X131279286Y-123560233D01*
X131207858Y-123678900D01*
X131207858Y-123797567D01*
X131279286Y-123975567D01*
X132136429Y-124687567D01*
X131207858Y-124687567D01*
X129493573Y-123382233D02*
X130779287Y-124984233D01*
X128207858Y-124687567D02*
X129065001Y-124687567D01*
X128636429Y-124687567D02*
X128636429Y-123441567D01*
X128779286Y-123619567D01*
X128922144Y-123738233D01*
X129065001Y-123797567D01*
X127279287Y-123441567D02*
X127136430Y-123441567D01*
X126993573Y-123500900D01*
X126922144Y-123560233D01*
X126850715Y-123678900D01*
X126779287Y-123916233D01*
X126779287Y-124212900D01*
X126850715Y-124450233D01*
X126922144Y-124568900D01*
X126993573Y-124628233D01*
X127136430Y-124687567D01*
X127279287Y-124687567D01*
X127422144Y-124628233D01*
X127493573Y-124568900D01*
X127565001Y-124450233D01*
X127636430Y-124212900D01*
X127636430Y-123916233D01*
X127565001Y-123678900D01*
X127493573Y-123560233D01*
X127422144Y-123500900D01*
X127279287Y-123441567D01*
X138065000Y-125774300D02*
X138065000Y-126604967D01*
X138422143Y-125299633D02*
X138779286Y-126189633D01*
X137850714Y-126189633D01*
X136136429Y-126130300D02*
X134993572Y-126130300D01*
X132707858Y-125358967D02*
X132707858Y-126248967D01*
X132779286Y-126426967D01*
X132922143Y-126545633D01*
X133136429Y-126604967D01*
X133279286Y-126604967D01*
X132065001Y-125477633D02*
X131993572Y-125418300D01*
X131850715Y-125358967D01*
X131493572Y-125358967D01*
X131350715Y-125418300D01*
X131279286Y-125477633D01*
X131207858Y-125596300D01*
X131207858Y-125714967D01*
X131279286Y-125892967D01*
X132136429Y-126604967D01*
X131207858Y-126604967D01*
X129493573Y-125299633D02*
X130779287Y-126901633D01*
X128922144Y-126604967D02*
X128636429Y-126604967D01*
X128493572Y-126545633D01*
X128422144Y-126486300D01*
X128279286Y-126308300D01*
X128207858Y-126070967D01*
X128207858Y-125596300D01*
X128279286Y-125477633D01*
X128350715Y-125418300D01*
X128493572Y-125358967D01*
X128779286Y-125358967D01*
X128922144Y-125418300D01*
X128993572Y-125477633D01*
X129065001Y-125596300D01*
X129065001Y-125892967D01*
X128993572Y-126011633D01*
X128922144Y-126070967D01*
X128779286Y-126130300D01*
X128493572Y-126130300D01*
X128350715Y-126070967D01*
X128279286Y-126011633D01*
X128207858Y-125892967D01*
X137993571Y-127276367D02*
X138707857Y-127276367D01*
X138779286Y-127869700D01*
X138707857Y-127810367D01*
X138565000Y-127751033D01*
X138207857Y-127751033D01*
X138065000Y-127810367D01*
X137993571Y-127869700D01*
X137922143Y-127988367D01*
X137922143Y-128285033D01*
X137993571Y-128403700D01*
X138065000Y-128463033D01*
X138207857Y-128522367D01*
X138565000Y-128522367D01*
X138707857Y-128463033D01*
X138779286Y-128403700D01*
X136136429Y-128047700D02*
X134993572Y-128047700D01*
X133207858Y-128166367D02*
X132493572Y-128166367D01*
X133350715Y-128522367D02*
X132850715Y-127276367D01*
X132350715Y-128522367D01*
X131850715Y-128522367D02*
X131850715Y-127276367D01*
X131493572Y-127276367D01*
X131279287Y-127335700D01*
X131136429Y-127454367D01*
X131065001Y-127573033D01*
X130993572Y-127810367D01*
X130993572Y-127988367D01*
X131065001Y-128225700D01*
X131136429Y-128344367D01*
X131279287Y-128463033D01*
X131493572Y-128522367D01*
X131850715Y-128522367D01*
X130350715Y-128522367D02*
X130350715Y-127276367D01*
X129993572Y-127276367D01*
X129779287Y-127335700D01*
X129636429Y-127454367D01*
X129565001Y-127573033D01*
X129493572Y-127810367D01*
X129493572Y-127988367D01*
X129565001Y-128225700D01*
X129636429Y-128344367D01*
X129779287Y-128463033D01*
X129993572Y-128522367D01*
X130350715Y-128522367D01*
X126922144Y-128522367D02*
X127779287Y-128522367D01*
X127350715Y-128522367D02*
X127350715Y-127276367D01*
X127493572Y-127454367D01*
X127636430Y-127573033D01*
X127779287Y-127632367D01*
X138065000Y-129193767D02*
X138350714Y-129193767D01*
X138493571Y-129253100D01*
X138565000Y-129312433D01*
X138707857Y-129490433D01*
X138779286Y-129727767D01*
X138779286Y-130202433D01*
X138707857Y-130321100D01*
X138636429Y-130380433D01*
X138493571Y-130439767D01*
X138207857Y-130439767D01*
X138065000Y-130380433D01*
X137993571Y-130321100D01*
X137922143Y-130202433D01*
X137922143Y-129905767D01*
X137993571Y-129787100D01*
X138065000Y-129727767D01*
X138207857Y-129668433D01*
X138493571Y-129668433D01*
X138636429Y-129727767D01*
X138707857Y-129787100D01*
X138779286Y-129905767D01*
X136136429Y-129965100D02*
X134993572Y-129965100D01*
X133207858Y-130083767D02*
X132493572Y-130083767D01*
X133350715Y-130439767D02*
X132850715Y-129193767D01*
X132350715Y-130439767D01*
X131850715Y-130439767D02*
X131850715Y-129193767D01*
X131493572Y-129193767D01*
X131279287Y-129253100D01*
X131136429Y-129371767D01*
X131065001Y-129490433D01*
X130993572Y-129727767D01*
X130993572Y-129905767D01*
X131065001Y-130143100D01*
X131136429Y-130261767D01*
X131279287Y-130380433D01*
X131493572Y-130439767D01*
X131850715Y-130439767D01*
X130350715Y-130439767D02*
X130350715Y-129193767D01*
X129993572Y-129193767D01*
X129779287Y-129253100D01*
X129636429Y-129371767D01*
X129565001Y-129490433D01*
X129493572Y-129727767D01*
X129493572Y-129905767D01*
X129565001Y-130143100D01*
X129636429Y-130261767D01*
X129779287Y-130380433D01*
X129993572Y-130439767D01*
X130350715Y-130439767D01*
X127779287Y-129312433D02*
X127707858Y-129253100D01*
X127565001Y-129193767D01*
X127207858Y-129193767D01*
X127065001Y-129253100D01*
X126993572Y-129312433D01*
X126922144Y-129431100D01*
X126922144Y-129549767D01*
X126993572Y-129727767D01*
X127850715Y-130439767D01*
X126922144Y-130439767D01*
X138850714Y-131111167D02*
X137850714Y-131111167D01*
X138493571Y-132357167D01*
X136136429Y-131882500D02*
X134993572Y-131882500D01*
X133136429Y-132357167D02*
X133136429Y-131111167D01*
X132279286Y-132357167D02*
X132922143Y-131645167D01*
X132279286Y-131111167D02*
X133136429Y-131823167D01*
X131065001Y-132297833D02*
X131207858Y-132357167D01*
X131493572Y-132357167D01*
X131636429Y-132297833D01*
X131707858Y-132179167D01*
X131707858Y-131704500D01*
X131636429Y-131585833D01*
X131493572Y-131526500D01*
X131207858Y-131526500D01*
X131065001Y-131585833D01*
X130993572Y-131704500D01*
X130993572Y-131823167D01*
X131707858Y-131941833D01*
X130493572Y-131526500D02*
X130136429Y-132357167D01*
X129779287Y-131526500D02*
X130136429Y-132357167D01*
X130279287Y-132653833D01*
X130350715Y-132713167D01*
X130493572Y-132772500D01*
X138493571Y-133562567D02*
X138636429Y-133503233D01*
X138707857Y-133443900D01*
X138779286Y-133325233D01*
X138779286Y-133265900D01*
X138707857Y-133147233D01*
X138636429Y-133087900D01*
X138493571Y-133028567D01*
X138207857Y-133028567D01*
X138065000Y-133087900D01*
X137993571Y-133147233D01*
X137922143Y-133265900D01*
X137922143Y-133325233D01*
X137993571Y-133443900D01*
X138065000Y-133503233D01*
X138207857Y-133562567D01*
X138493571Y-133562567D01*
X138636429Y-133621900D01*
X138707857Y-133681233D01*
X138779286Y-133799900D01*
X138779286Y-134037233D01*
X138707857Y-134155900D01*
X138636429Y-134215233D01*
X138493571Y-134274567D01*
X138207857Y-134274567D01*
X138065000Y-134215233D01*
X137993571Y-134155900D01*
X137922143Y-134037233D01*
X137922143Y-133799900D01*
X137993571Y-133681233D01*
X138065000Y-133621900D01*
X138207857Y-133562567D01*
X136136429Y-133799900D02*
X134993572Y-133799900D01*
X133207858Y-133918567D02*
X132493572Y-133918567D01*
X133350715Y-134274567D02*
X132850715Y-133028567D01*
X132350715Y-134274567D01*
X131850715Y-134274567D02*
X131850715Y-133028567D01*
X131493572Y-133028567D01*
X131279287Y-133087900D01*
X131136429Y-133206567D01*
X131065001Y-133325233D01*
X130993572Y-133562567D01*
X130993572Y-133740567D01*
X131065001Y-133977900D01*
X131136429Y-134096567D01*
X131279287Y-134215233D01*
X131493572Y-134274567D01*
X131850715Y-134274567D01*
X130350715Y-134274567D02*
X130350715Y-133028567D01*
X129993572Y-133028567D01*
X129779287Y-133087900D01*
X129636429Y-133206567D01*
X129565001Y-133325233D01*
X129493572Y-133562567D01*
X129493572Y-133740567D01*
X129565001Y-133977900D01*
X129636429Y-134096567D01*
X129779287Y-134215233D01*
X129993572Y-134274567D01*
X130350715Y-134274567D01*
X127850715Y-133028567D02*
X126922144Y-133028567D01*
X127422144Y-133503233D01*
X127207858Y-133503233D01*
X127065001Y-133562567D01*
X126993572Y-133621900D01*
X126922144Y-133740567D01*
X126922144Y-134037233D01*
X126993572Y-134155900D01*
X127065001Y-134215233D01*
X127207858Y-134274567D01*
X127636430Y-134274567D01*
X127779287Y-134215233D01*
X127850715Y-134155900D01*
X138636429Y-136191967D02*
X138350714Y-136191967D01*
X138207857Y-136132633D01*
X138136429Y-136073300D01*
X137993571Y-135895300D01*
X137922143Y-135657967D01*
X137922143Y-135183300D01*
X137993571Y-135064633D01*
X138065000Y-135005300D01*
X138207857Y-134945967D01*
X138493571Y-134945967D01*
X138636429Y-135005300D01*
X138707857Y-135064633D01*
X138779286Y-135183300D01*
X138779286Y-135479967D01*
X138707857Y-135598633D01*
X138636429Y-135657967D01*
X138493571Y-135717300D01*
X138207857Y-135717300D01*
X138065000Y-135657967D01*
X137993571Y-135598633D01*
X137922143Y-135479967D01*
X136136429Y-135717300D02*
X134993572Y-135717300D01*
X133207858Y-135835967D02*
X132493572Y-135835967D01*
X133350715Y-136191967D02*
X132850715Y-134945967D01*
X132350715Y-136191967D01*
X131850715Y-136191967D02*
X131850715Y-134945967D01*
X131493572Y-134945967D01*
X131279287Y-135005300D01*
X131136429Y-135123967D01*
X131065001Y-135242633D01*
X130993572Y-135479967D01*
X130993572Y-135657967D01*
X131065001Y-135895300D01*
X131136429Y-136013967D01*
X131279287Y-136132633D01*
X131493572Y-136191967D01*
X131850715Y-136191967D01*
X130350715Y-136191967D02*
X130350715Y-134945967D01*
X129993572Y-134945967D01*
X129779287Y-135005300D01*
X129636429Y-135123967D01*
X129565001Y-135242633D01*
X129493572Y-135479967D01*
X129493572Y-135657967D01*
X129565001Y-135895300D01*
X129636429Y-136013967D01*
X129779287Y-136132633D01*
X129993572Y-136191967D01*
X130350715Y-136191967D01*
X127065001Y-135361300D02*
X127065001Y-136191967D01*
X127422144Y-134886633D02*
X127779287Y-135776633D01*
X126850715Y-135776633D01*
X130452857Y-94805367D02*
X130452857Y-93559367D01*
X129881429Y-93559367D01*
X129738571Y-93618700D01*
X129667143Y-93678033D01*
X129595714Y-93796700D01*
X129595714Y-93974700D01*
X129667143Y-94093367D01*
X129738571Y-94152700D01*
X129881429Y-94212033D01*
X130452857Y-94212033D01*
X129095714Y-93559367D02*
X128167143Y-93559367D01*
X128667143Y-94034033D01*
X128452857Y-94034033D01*
X128310000Y-94093367D01*
X128238571Y-94152700D01*
X128167143Y-94271367D01*
X128167143Y-94568033D01*
X128238571Y-94686700D01*
X128310000Y-94746033D01*
X128452857Y-94805367D01*
X128881429Y-94805367D01*
X129024286Y-94746033D01*
X129095714Y-94686700D01*
X125667143Y-94805367D02*
X126381429Y-94805367D01*
X126381429Y-93559367D01*
X125167143Y-94805367D02*
X125167143Y-93559367D01*
X124810000Y-93559367D01*
X124595715Y-93618700D01*
X124452857Y-93737367D01*
X124381429Y-93856033D01*
X124310000Y-94093367D01*
X124310000Y-94271367D01*
X124381429Y-94508700D01*
X124452857Y-94627367D01*
X124595715Y-94746033D01*
X124810000Y-94805367D01*
X125167143Y-94805367D01*
X123667143Y-93559367D02*
X123667143Y-94568033D01*
X123595715Y-94686700D01*
X123524286Y-94746033D01*
X123381429Y-94805367D01*
X123095715Y-94805367D01*
X122952857Y-94746033D01*
X122881429Y-94686700D01*
X122810000Y-94568033D01*
X122810000Y-93559367D01*
X129667143Y-96722767D02*
X130524286Y-96722767D01*
X130095714Y-96722767D02*
X130095714Y-95476767D01*
X130238571Y-95654767D01*
X130381429Y-95773433D01*
X130524286Y-95832767D01*
X127881429Y-96248100D02*
X126738572Y-96248100D01*
X124881429Y-96070100D02*
X124381429Y-96070100D01*
X124167143Y-96722767D02*
X124881429Y-96722767D01*
X124881429Y-95476767D01*
X124167143Y-95476767D01*
X123524286Y-96722767D02*
X123524286Y-95476767D01*
X122667143Y-96722767D01*
X122667143Y-95476767D01*
X120024286Y-96722767D02*
X120881429Y-96722767D01*
X120452857Y-96722767D02*
X120452857Y-95476767D01*
X120595714Y-95654767D01*
X120738572Y-95773433D01*
X120881429Y-95832767D01*
X130524286Y-97512833D02*
X130452857Y-97453500D01*
X130310000Y-97394167D01*
X129952857Y-97394167D01*
X129810000Y-97453500D01*
X129738571Y-97512833D01*
X129667143Y-97631500D01*
X129667143Y-97750167D01*
X129738571Y-97928167D01*
X130595714Y-98640167D01*
X129667143Y-98640167D01*
X127881429Y-98165500D02*
X126738572Y-98165500D01*
X124881429Y-97987500D02*
X124381429Y-97987500D01*
X124167143Y-98640167D02*
X124881429Y-98640167D01*
X124881429Y-97394167D01*
X124167143Y-97394167D01*
X123524286Y-98640167D02*
X123524286Y-97394167D01*
X122667143Y-98640167D01*
X122667143Y-97394167D01*
X120881429Y-97512833D02*
X120810000Y-97453500D01*
X120667143Y-97394167D01*
X120310000Y-97394167D01*
X120167143Y-97453500D01*
X120095714Y-97512833D01*
X120024286Y-97631500D01*
X120024286Y-97750167D01*
X120095714Y-97928167D01*
X120952857Y-98640167D01*
X120024286Y-98640167D01*
X130595714Y-99311567D02*
X129667143Y-99311567D01*
X130167143Y-99786233D01*
X129952857Y-99786233D01*
X129810000Y-99845567D01*
X129738571Y-99904900D01*
X129667143Y-100023567D01*
X129667143Y-100320233D01*
X129738571Y-100438900D01*
X129810000Y-100498233D01*
X129952857Y-100557567D01*
X130381429Y-100557567D01*
X130524286Y-100498233D01*
X130595714Y-100438900D01*
X127881429Y-100082900D02*
X126738572Y-100082900D01*
X124952858Y-100201567D02*
X124238572Y-100201567D01*
X125095715Y-100557567D02*
X124595715Y-99311567D01*
X124095715Y-100557567D01*
X123595715Y-100557567D02*
X123595715Y-99311567D01*
X123238572Y-99311567D01*
X123024287Y-99370900D01*
X122881429Y-99489567D01*
X122810001Y-99608233D01*
X122738572Y-99845567D01*
X122738572Y-100023567D01*
X122810001Y-100260900D01*
X122881429Y-100379567D01*
X123024287Y-100498233D01*
X123238572Y-100557567D01*
X123595715Y-100557567D01*
X122095715Y-100557567D02*
X122095715Y-99311567D01*
X121738572Y-99311567D01*
X121524287Y-99370900D01*
X121381429Y-99489567D01*
X121310001Y-99608233D01*
X121238572Y-99845567D01*
X121238572Y-100023567D01*
X121310001Y-100260900D01*
X121381429Y-100379567D01*
X121524287Y-100498233D01*
X121738572Y-100557567D01*
X122095715Y-100557567D01*
X118810001Y-99726900D02*
X118810001Y-100557567D01*
X119167144Y-99252233D02*
X119524287Y-100142233D01*
X118595715Y-100142233D01*
X129810000Y-101644300D02*
X129810000Y-102474967D01*
X130167143Y-101169633D02*
X130524286Y-102059633D01*
X129595714Y-102059633D01*
X127881429Y-102000300D02*
X126738572Y-102000300D01*
X124952858Y-102118967D02*
X124238572Y-102118967D01*
X125095715Y-102474967D02*
X124595715Y-101228967D01*
X124095715Y-102474967D01*
X123595715Y-102474967D02*
X123595715Y-101228967D01*
X123238572Y-101228967D01*
X123024287Y-101288300D01*
X122881429Y-101406967D01*
X122810001Y-101525633D01*
X122738572Y-101762967D01*
X122738572Y-101940967D01*
X122810001Y-102178300D01*
X122881429Y-102296967D01*
X123024287Y-102415633D01*
X123238572Y-102474967D01*
X123595715Y-102474967D01*
X122095715Y-102474967D02*
X122095715Y-101228967D01*
X121738572Y-101228967D01*
X121524287Y-101288300D01*
X121381429Y-101406967D01*
X121310001Y-101525633D01*
X121238572Y-101762967D01*
X121238572Y-101940967D01*
X121310001Y-102178300D01*
X121381429Y-102296967D01*
X121524287Y-102415633D01*
X121738572Y-102474967D01*
X122095715Y-102474967D01*
X119595715Y-101228967D02*
X118667144Y-101228967D01*
X119167144Y-101703633D01*
X118952858Y-101703633D01*
X118810001Y-101762967D01*
X118738572Y-101822300D01*
X118667144Y-101940967D01*
X118667144Y-102237633D01*
X118738572Y-102356300D01*
X118810001Y-102415633D01*
X118952858Y-102474967D01*
X119381430Y-102474967D01*
X119524287Y-102415633D01*
X119595715Y-102356300D01*
X129738571Y-103146367D02*
X130452857Y-103146367D01*
X130524286Y-103739700D01*
X130452857Y-103680367D01*
X130310000Y-103621033D01*
X129952857Y-103621033D01*
X129810000Y-103680367D01*
X129738571Y-103739700D01*
X129667143Y-103858367D01*
X129667143Y-104155033D01*
X129738571Y-104273700D01*
X129810000Y-104333033D01*
X129952857Y-104392367D01*
X130310000Y-104392367D01*
X130452857Y-104333033D01*
X130524286Y-104273700D01*
X127881429Y-103917700D02*
X126738572Y-103917700D01*
X124881429Y-103739700D02*
X124381429Y-103739700D01*
X124167143Y-104392367D02*
X124881429Y-104392367D01*
X124881429Y-103146367D01*
X124167143Y-103146367D01*
X123524286Y-104392367D02*
X123524286Y-103146367D01*
X122667143Y-104392367D01*
X122667143Y-103146367D01*
X120952857Y-103146367D02*
X120024286Y-103146367D01*
X120524286Y-103621033D01*
X120310000Y-103621033D01*
X120167143Y-103680367D01*
X120095714Y-103739700D01*
X120024286Y-103858367D01*
X120024286Y-104155033D01*
X120095714Y-104273700D01*
X120167143Y-104333033D01*
X120310000Y-104392367D01*
X120738572Y-104392367D01*
X120881429Y-104333033D01*
X120952857Y-104273700D01*
X129810000Y-105063767D02*
X130095714Y-105063767D01*
X130238571Y-105123100D01*
X130310000Y-105182433D01*
X130452857Y-105360433D01*
X130524286Y-105597767D01*
X130524286Y-106072433D01*
X130452857Y-106191100D01*
X130381429Y-106250433D01*
X130238571Y-106309767D01*
X129952857Y-106309767D01*
X129810000Y-106250433D01*
X129738571Y-106191100D01*
X129667143Y-106072433D01*
X129667143Y-105775767D01*
X129738571Y-105657100D01*
X129810000Y-105597767D01*
X129952857Y-105538433D01*
X130238571Y-105538433D01*
X130381429Y-105597767D01*
X130452857Y-105657100D01*
X130524286Y-105775767D01*
X127881429Y-105835100D02*
X126738572Y-105835100D01*
X124881429Y-106309767D02*
X124881429Y-105063767D01*
X124024286Y-106309767D02*
X124667143Y-105597767D01*
X124024286Y-105063767D02*
X124881429Y-105775767D01*
X122810001Y-106250433D02*
X122952858Y-106309767D01*
X123238572Y-106309767D01*
X123381429Y-106250433D01*
X123452858Y-106131767D01*
X123452858Y-105657100D01*
X123381429Y-105538433D01*
X123238572Y-105479100D01*
X122952858Y-105479100D01*
X122810001Y-105538433D01*
X122738572Y-105657100D01*
X122738572Y-105775767D01*
X123452858Y-105894433D01*
X122238572Y-105479100D02*
X121881429Y-106309767D01*
X121524287Y-105479100D02*
X121881429Y-106309767D01*
X122024287Y-106606433D01*
X122095715Y-106665767D01*
X122238572Y-106725100D01*
X130595714Y-106981167D02*
X129595714Y-106981167D01*
X130238571Y-108227167D01*
X127881429Y-107752500D02*
X126738572Y-107752500D01*
X124881429Y-107574500D02*
X124381429Y-107574500D01*
X124167143Y-108227167D02*
X124881429Y-108227167D01*
X124881429Y-106981167D01*
X124167143Y-106981167D01*
X123524286Y-108227167D02*
X123524286Y-106981167D01*
X122667143Y-108227167D01*
X122667143Y-106981167D01*
X120167143Y-107396500D02*
X120167143Y-108227167D01*
X120524286Y-106921833D02*
X120881429Y-107811833D01*
X119952857Y-107811833D01*
X130238571Y-109432567D02*
X130381429Y-109373233D01*
X130452857Y-109313900D01*
X130524286Y-109195233D01*
X130524286Y-109135900D01*
X130452857Y-109017233D01*
X130381429Y-108957900D01*
X130238571Y-108898567D01*
X129952857Y-108898567D01*
X129810000Y-108957900D01*
X129738571Y-109017233D01*
X129667143Y-109135900D01*
X129667143Y-109195233D01*
X129738571Y-109313900D01*
X129810000Y-109373233D01*
X129952857Y-109432567D01*
X130238571Y-109432567D01*
X130381429Y-109491900D01*
X130452857Y-109551233D01*
X130524286Y-109669900D01*
X130524286Y-109907233D01*
X130452857Y-110025900D01*
X130381429Y-110085233D01*
X130238571Y-110144567D01*
X129952857Y-110144567D01*
X129810000Y-110085233D01*
X129738571Y-110025900D01*
X129667143Y-109907233D01*
X129667143Y-109669900D01*
X129738571Y-109551233D01*
X129810000Y-109491900D01*
X129952857Y-109432567D01*
X127881429Y-109669900D02*
X126738572Y-109669900D01*
X124952858Y-109788567D02*
X124238572Y-109788567D01*
X125095715Y-110144567D02*
X124595715Y-108898567D01*
X124095715Y-110144567D01*
X123595715Y-110144567D02*
X123595715Y-108898567D01*
X123238572Y-108898567D01*
X123024287Y-108957900D01*
X122881429Y-109076567D01*
X122810001Y-109195233D01*
X122738572Y-109432567D01*
X122738572Y-109610567D01*
X122810001Y-109847900D01*
X122881429Y-109966567D01*
X123024287Y-110085233D01*
X123238572Y-110144567D01*
X123595715Y-110144567D01*
X122095715Y-110144567D02*
X122095715Y-108898567D01*
X121738572Y-108898567D01*
X121524287Y-108957900D01*
X121381429Y-109076567D01*
X121310001Y-109195233D01*
X121238572Y-109432567D01*
X121238572Y-109610567D01*
X121310001Y-109847900D01*
X121381429Y-109966567D01*
X121524287Y-110085233D01*
X121738572Y-110144567D01*
X122095715Y-110144567D01*
X118667144Y-110144567D02*
X119524287Y-110144567D01*
X119095715Y-110144567D02*
X119095715Y-108898567D01*
X119238572Y-109076567D01*
X119381430Y-109195233D01*
X119524287Y-109254567D01*
X130381429Y-112061967D02*
X130095714Y-112061967D01*
X129952857Y-112002633D01*
X129881429Y-111943300D01*
X129738571Y-111765300D01*
X129667143Y-111527967D01*
X129667143Y-111053300D01*
X129738571Y-110934633D01*
X129810000Y-110875300D01*
X129952857Y-110815967D01*
X130238571Y-110815967D01*
X130381429Y-110875300D01*
X130452857Y-110934633D01*
X130524286Y-111053300D01*
X130524286Y-111349967D01*
X130452857Y-111468633D01*
X130381429Y-111527967D01*
X130238571Y-111587300D01*
X129952857Y-111587300D01*
X129810000Y-111527967D01*
X129738571Y-111468633D01*
X129667143Y-111349967D01*
X127881429Y-111587300D02*
X126738572Y-111587300D01*
X124952858Y-111705967D02*
X124238572Y-111705967D01*
X125095715Y-112061967D02*
X124595715Y-110815967D01*
X124095715Y-112061967D01*
X123595715Y-112061967D02*
X123595715Y-110815967D01*
X123238572Y-110815967D01*
X123024287Y-110875300D01*
X122881429Y-110993967D01*
X122810001Y-111112633D01*
X122738572Y-111349967D01*
X122738572Y-111527967D01*
X122810001Y-111765300D01*
X122881429Y-111883967D01*
X123024287Y-112002633D01*
X123238572Y-112061967D01*
X123595715Y-112061967D01*
X122095715Y-112061967D02*
X122095715Y-110815967D01*
X121738572Y-110815967D01*
X121524287Y-110875300D01*
X121381429Y-110993967D01*
X121310001Y-111112633D01*
X121238572Y-111349967D01*
X121238572Y-111527967D01*
X121310001Y-111765300D01*
X121381429Y-111883967D01*
X121524287Y-112002633D01*
X121738572Y-112061967D01*
X122095715Y-112061967D01*
X119524287Y-110934633D02*
X119452858Y-110875300D01*
X119310001Y-110815967D01*
X118952858Y-110815967D01*
X118810001Y-110875300D01*
X118738572Y-110934633D01*
X118667144Y-111053300D01*
X118667144Y-111171967D01*
X118738572Y-111349967D01*
X119595715Y-112061967D01*
X118667144Y-112061967D01*
M02*
