G04 #@! TF.FileFunction,Legend,Top*
%FSLAX46Y46*%
G04 Gerber Fmt 4.6, Leading zero omitted, Abs format (unit mm)*
G04 Created by KiCad (PCBNEW 4.0.2-4+6225~38~ubuntu15.10.1-stable) date Mon 06 Jun 2016 09:20:46 PM EDT*
%MOMM*%
G01*
G04 APERTURE LIST*
%ADD10C,0.100000*%
%ADD11C,0.300000*%
%ADD12C,0.150000*%
G04 APERTURE END LIST*
D10*
D11*
X146657143Y-102786428D02*
X146728571Y-102572142D01*
X146728571Y-102214999D01*
X146657143Y-102072142D01*
X146585714Y-102000713D01*
X146442857Y-101929285D01*
X146300000Y-101929285D01*
X146157143Y-102000713D01*
X146085714Y-102072142D01*
X146014286Y-102214999D01*
X145942857Y-102500713D01*
X145871429Y-102643571D01*
X145800000Y-102714999D01*
X145657143Y-102786428D01*
X145514286Y-102786428D01*
X145371429Y-102714999D01*
X145300000Y-102643571D01*
X145228571Y-102500713D01*
X145228571Y-102143571D01*
X145300000Y-101929285D01*
X146728571Y-101286428D02*
X145228571Y-101286428D01*
X145228571Y-100929285D01*
X145300000Y-100715000D01*
X145442857Y-100572142D01*
X145585714Y-100500714D01*
X145871429Y-100429285D01*
X146085714Y-100429285D01*
X146371429Y-100500714D01*
X146514286Y-100572142D01*
X146657143Y-100715000D01*
X146728571Y-100929285D01*
X146728571Y-101286428D01*
X146300000Y-99857857D02*
X146300000Y-99143571D01*
X146728571Y-100000714D02*
X145228571Y-99500714D01*
X146728571Y-99000714D01*
X149197143Y-102750714D02*
X149268571Y-102536428D01*
X149268571Y-102179285D01*
X149197143Y-102036428D01*
X149125714Y-101964999D01*
X148982857Y-101893571D01*
X148840000Y-101893571D01*
X148697143Y-101964999D01*
X148625714Y-102036428D01*
X148554286Y-102179285D01*
X148482857Y-102464999D01*
X148411429Y-102607857D01*
X148340000Y-102679285D01*
X148197143Y-102750714D01*
X148054286Y-102750714D01*
X147911429Y-102679285D01*
X147840000Y-102607857D01*
X147768571Y-102464999D01*
X147768571Y-102107857D01*
X147840000Y-101893571D01*
X149125714Y-100393571D02*
X149197143Y-100465000D01*
X149268571Y-100679286D01*
X149268571Y-100822143D01*
X149197143Y-101036428D01*
X149054286Y-101179286D01*
X148911429Y-101250714D01*
X148625714Y-101322143D01*
X148411429Y-101322143D01*
X148125714Y-101250714D01*
X147982857Y-101179286D01*
X147840000Y-101036428D01*
X147768571Y-100822143D01*
X147768571Y-100679286D01*
X147840000Y-100465000D01*
X147911429Y-100393571D01*
X149268571Y-99036428D02*
X149268571Y-99750714D01*
X147768571Y-99750714D01*
X154412143Y-103528571D02*
X154412143Y-102385714D01*
X154983571Y-102957143D02*
X153840714Y-102957143D01*
X153483571Y-100957142D02*
X153483571Y-101671428D01*
X154197857Y-101742857D01*
X154126429Y-101671428D01*
X154055000Y-101528571D01*
X154055000Y-101171428D01*
X154126429Y-101028571D01*
X154197857Y-100957142D01*
X154340714Y-100885714D01*
X154697857Y-100885714D01*
X154840714Y-100957142D01*
X154912143Y-101028571D01*
X154983571Y-101171428D01*
X154983571Y-101528571D01*
X154912143Y-101671428D01*
X154840714Y-101742857D01*
X153483571Y-100457143D02*
X154983571Y-99957143D01*
X153483571Y-99457143D01*
X150380000Y-102107857D02*
X150308571Y-102250714D01*
X150308571Y-102465000D01*
X150380000Y-102679285D01*
X150522857Y-102822143D01*
X150665714Y-102893571D01*
X150951429Y-102965000D01*
X151165714Y-102965000D01*
X151451429Y-102893571D01*
X151594286Y-102822143D01*
X151737143Y-102679285D01*
X151808571Y-102465000D01*
X151808571Y-102322143D01*
X151737143Y-102107857D01*
X151665714Y-102036428D01*
X151165714Y-102036428D01*
X151165714Y-102322143D01*
X151808571Y-101393571D02*
X150308571Y-101393571D01*
X151808571Y-100536428D01*
X150308571Y-100536428D01*
X151808571Y-99822142D02*
X150308571Y-99822142D01*
X150308571Y-99464999D01*
X150380000Y-99250714D01*
X150522857Y-99107856D01*
X150665714Y-99036428D01*
X150951429Y-98964999D01*
X151165714Y-98964999D01*
X151451429Y-99036428D01*
X151594286Y-99107856D01*
X151737143Y-99250714D01*
X151808571Y-99464999D01*
X151808571Y-99822142D01*
X119353573Y-94023571D02*
X119353573Y-93023571D01*
X119353573Y-92523571D02*
X119282144Y-92595000D01*
X119353573Y-92666429D01*
X119425001Y-92595000D01*
X119353573Y-92523571D01*
X119353573Y-92666429D01*
X119996430Y-92666429D02*
X120067859Y-92595000D01*
X120210716Y-92523571D01*
X120567859Y-92523571D01*
X120710716Y-92595000D01*
X120782145Y-92666429D01*
X120853573Y-92809286D01*
X120853573Y-92952143D01*
X120782145Y-93166429D01*
X119925002Y-94023571D01*
X120853573Y-94023571D01*
X122353573Y-93880714D02*
X122282144Y-93952143D01*
X122067858Y-94023571D01*
X121925001Y-94023571D01*
X121710716Y-93952143D01*
X121567858Y-93809286D01*
X121496430Y-93666429D01*
X121425001Y-93380714D01*
X121425001Y-93166429D01*
X121496430Y-92880714D01*
X121567858Y-92737857D01*
X121710716Y-92595000D01*
X121925001Y-92523571D01*
X122067858Y-92523571D01*
X122282144Y-92595000D01*
X122353573Y-92666429D01*
X124139287Y-94023571D02*
X124139287Y-92523571D01*
X124496430Y-92523571D01*
X124710715Y-92595000D01*
X124853573Y-92737857D01*
X124925001Y-92880714D01*
X124996430Y-93166429D01*
X124996430Y-93380714D01*
X124925001Y-93666429D01*
X124853573Y-93809286D01*
X124710715Y-93952143D01*
X124496430Y-94023571D01*
X124139287Y-94023571D01*
X125639287Y-94023571D02*
X125639287Y-93023571D01*
X125639287Y-93309286D02*
X125710715Y-93166429D01*
X125782144Y-93095000D01*
X125925001Y-93023571D01*
X126067858Y-93023571D01*
X126567858Y-94023571D02*
X126567858Y-93023571D01*
X126567858Y-92523571D02*
X126496429Y-92595000D01*
X126567858Y-92666429D01*
X126639286Y-92595000D01*
X126567858Y-92523571D01*
X126567858Y-92666429D01*
X127139287Y-93023571D02*
X127496430Y-94023571D01*
X127853572Y-93023571D01*
X128996429Y-93952143D02*
X128853572Y-94023571D01*
X128567858Y-94023571D01*
X128425001Y-93952143D01*
X128353572Y-93809286D01*
X128353572Y-93237857D01*
X128425001Y-93095000D01*
X128567858Y-93023571D01*
X128853572Y-93023571D01*
X128996429Y-93095000D01*
X129067858Y-93237857D01*
X129067858Y-93380714D01*
X128353572Y-93523571D01*
X129710715Y-94023571D02*
X129710715Y-93023571D01*
X129710715Y-93309286D02*
X129782143Y-93166429D01*
X129853572Y-93095000D01*
X129996429Y-93023571D01*
X130139286Y-93023571D01*
X131782143Y-94023571D02*
X131782143Y-92523571D01*
X132496429Y-93023571D02*
X132496429Y-94023571D01*
X132496429Y-93166429D02*
X132567857Y-93095000D01*
X132710715Y-93023571D01*
X132925000Y-93023571D01*
X133067857Y-93095000D01*
X133139286Y-93237857D01*
X133139286Y-94023571D01*
X133639286Y-93023571D02*
X134210715Y-93023571D01*
X133853572Y-92523571D02*
X133853572Y-93809286D01*
X133925000Y-93952143D01*
X134067858Y-94023571D01*
X134210715Y-94023571D01*
X135282143Y-93952143D02*
X135139286Y-94023571D01*
X134853572Y-94023571D01*
X134710715Y-93952143D01*
X134639286Y-93809286D01*
X134639286Y-93237857D01*
X134710715Y-93095000D01*
X134853572Y-93023571D01*
X135139286Y-93023571D01*
X135282143Y-93095000D01*
X135353572Y-93237857D01*
X135353572Y-93380714D01*
X134639286Y-93523571D01*
X135996429Y-94023571D02*
X135996429Y-93023571D01*
X135996429Y-93309286D02*
X136067857Y-93166429D01*
X136139286Y-93095000D01*
X136282143Y-93023571D01*
X136425000Y-93023571D01*
X136710714Y-93023571D02*
X137282143Y-93023571D01*
X136925000Y-94023571D02*
X136925000Y-92737857D01*
X136996428Y-92595000D01*
X137139286Y-92523571D01*
X137282143Y-92523571D01*
X138425000Y-94023571D02*
X138425000Y-93237857D01*
X138353571Y-93095000D01*
X138210714Y-93023571D01*
X137925000Y-93023571D01*
X137782143Y-93095000D01*
X138425000Y-93952143D02*
X138282143Y-94023571D01*
X137925000Y-94023571D01*
X137782143Y-93952143D01*
X137710714Y-93809286D01*
X137710714Y-93666429D01*
X137782143Y-93523571D01*
X137925000Y-93452143D01*
X138282143Y-93452143D01*
X138425000Y-93380714D01*
X139782143Y-93952143D02*
X139639286Y-94023571D01*
X139353572Y-94023571D01*
X139210714Y-93952143D01*
X139139286Y-93880714D01*
X139067857Y-93737857D01*
X139067857Y-93309286D01*
X139139286Y-93166429D01*
X139210714Y-93095000D01*
X139353572Y-93023571D01*
X139639286Y-93023571D01*
X139782143Y-93095000D01*
X140996428Y-93952143D02*
X140853571Y-94023571D01*
X140567857Y-94023571D01*
X140425000Y-93952143D01*
X140353571Y-93809286D01*
X140353571Y-93237857D01*
X140425000Y-93095000D01*
X140567857Y-93023571D01*
X140853571Y-93023571D01*
X140996428Y-93095000D01*
X141067857Y-93237857D01*
X141067857Y-93380714D01*
X140353571Y-93523571D01*
X158071429Y-136987856D02*
X158000000Y-136916427D01*
X157928571Y-136773570D01*
X157928571Y-136416427D01*
X158000000Y-136273570D01*
X158071429Y-136202141D01*
X158214286Y-136130713D01*
X158357143Y-136130713D01*
X158571429Y-136202141D01*
X159428571Y-137059284D01*
X159428571Y-136130713D01*
X157928571Y-135202142D02*
X157928571Y-135059285D01*
X158000000Y-134916428D01*
X158071429Y-134844999D01*
X158214286Y-134773570D01*
X158500000Y-134702142D01*
X158857143Y-134702142D01*
X159142857Y-134773570D01*
X159285714Y-134844999D01*
X159357143Y-134916428D01*
X159428571Y-135059285D01*
X159428571Y-135202142D01*
X159357143Y-135344999D01*
X159285714Y-135416428D01*
X159142857Y-135487856D01*
X158857143Y-135559285D01*
X158500000Y-135559285D01*
X158214286Y-135487856D01*
X158071429Y-135416428D01*
X158000000Y-135344999D01*
X157928571Y-135202142D01*
X159428571Y-133273571D02*
X159428571Y-134130714D01*
X159428571Y-133702142D02*
X157928571Y-133702142D01*
X158142857Y-133844999D01*
X158285714Y-133987857D01*
X158357143Y-134130714D01*
X157928571Y-131987857D02*
X157928571Y-132273571D01*
X158000000Y-132416428D01*
X158071429Y-132487857D01*
X158285714Y-132630714D01*
X158571429Y-132702143D01*
X159142857Y-132702143D01*
X159285714Y-132630714D01*
X159357143Y-132559286D01*
X159428571Y-132416428D01*
X159428571Y-132130714D01*
X159357143Y-131987857D01*
X159285714Y-131916428D01*
X159142857Y-131845000D01*
X158785714Y-131845000D01*
X158642857Y-131916428D01*
X158571429Y-131987857D01*
X158500000Y-132130714D01*
X158500000Y-132416428D01*
X158571429Y-132559286D01*
X158642857Y-132630714D01*
X158785714Y-132702143D01*
X158857143Y-130059286D02*
X158857143Y-128916429D01*
X159357143Y-126487858D02*
X159428571Y-126630715D01*
X159428571Y-126916429D01*
X159357143Y-127059286D01*
X159214286Y-127130715D01*
X158642857Y-127130715D01*
X158500000Y-127059286D01*
X158428571Y-126916429D01*
X158428571Y-126630715D01*
X158500000Y-126487858D01*
X158642857Y-126416429D01*
X158785714Y-126416429D01*
X158928571Y-127130715D01*
X159428571Y-125773572D02*
X157928571Y-125773572D01*
X157928571Y-125202144D01*
X158000000Y-125059286D01*
X158071429Y-124987858D01*
X158214286Y-124916429D01*
X158428571Y-124916429D01*
X158571429Y-124987858D01*
X158642857Y-125059286D01*
X158714286Y-125202144D01*
X158714286Y-125773572D01*
X159428571Y-124273572D02*
X158428571Y-124273572D01*
X157928571Y-124273572D02*
X158000000Y-124345001D01*
X158071429Y-124273572D01*
X158000000Y-124202144D01*
X157928571Y-124273572D01*
X158071429Y-124273572D01*
X158428571Y-123559286D02*
X159428571Y-123559286D01*
X158571429Y-123559286D02*
X158500000Y-123487858D01*
X158428571Y-123345000D01*
X158428571Y-123130715D01*
X158500000Y-122987858D01*
X158642857Y-122916429D01*
X159428571Y-122916429D01*
X159428571Y-122202143D02*
X157928571Y-122202143D01*
X158500000Y-122202143D02*
X158428571Y-122059286D01*
X158428571Y-121773572D01*
X158500000Y-121630715D01*
X158571429Y-121559286D01*
X158714286Y-121487857D01*
X159142857Y-121487857D01*
X159285714Y-121559286D01*
X159357143Y-121630715D01*
X159428571Y-121773572D01*
X159428571Y-122059286D01*
X159357143Y-122202143D01*
X159428571Y-120202143D02*
X158642857Y-120202143D01*
X158500000Y-120273572D01*
X158428571Y-120416429D01*
X158428571Y-120702143D01*
X158500000Y-120845000D01*
X159357143Y-120202143D02*
X159428571Y-120345000D01*
X159428571Y-120702143D01*
X159357143Y-120845000D01*
X159214286Y-120916429D01*
X159071429Y-120916429D01*
X158928571Y-120845000D01*
X158857143Y-120702143D01*
X158857143Y-120345000D01*
X158785714Y-120202143D01*
X159428571Y-119273571D02*
X159357143Y-119416429D01*
X159214286Y-119487857D01*
X157928571Y-119487857D01*
X159428571Y-118487857D02*
X159357143Y-118630715D01*
X159214286Y-118702143D01*
X157928571Y-118702143D01*
X159285714Y-117916429D02*
X159357143Y-117845001D01*
X159428571Y-117916429D01*
X159357143Y-117987858D01*
X159285714Y-117916429D01*
X159428571Y-117916429D01*
X159357143Y-116559286D02*
X159428571Y-116702143D01*
X159428571Y-116987857D01*
X159357143Y-117130715D01*
X159285714Y-117202143D01*
X159142857Y-117273572D01*
X158714286Y-117273572D01*
X158571429Y-117202143D01*
X158500000Y-117130715D01*
X158428571Y-116987857D01*
X158428571Y-116702143D01*
X158500000Y-116559286D01*
X159428571Y-115702143D02*
X159357143Y-115845001D01*
X159285714Y-115916429D01*
X159142857Y-115987858D01*
X158714286Y-115987858D01*
X158571429Y-115916429D01*
X158500000Y-115845001D01*
X158428571Y-115702143D01*
X158428571Y-115487858D01*
X158500000Y-115345001D01*
X158571429Y-115273572D01*
X158714286Y-115202143D01*
X159142857Y-115202143D01*
X159285714Y-115273572D01*
X159357143Y-115345001D01*
X159428571Y-115487858D01*
X159428571Y-115702143D01*
X159428571Y-114559286D02*
X158428571Y-114559286D01*
X158571429Y-114559286D02*
X158500000Y-114487858D01*
X158428571Y-114345000D01*
X158428571Y-114130715D01*
X158500000Y-113987858D01*
X158642857Y-113916429D01*
X159428571Y-113916429D01*
X158642857Y-113916429D02*
X158500000Y-113845000D01*
X158428571Y-113702143D01*
X158428571Y-113487858D01*
X158500000Y-113345000D01*
X158642857Y-113273572D01*
X159428571Y-113273572D01*
X123852857Y-96449286D02*
X123781429Y-96663572D01*
X123781429Y-97020715D01*
X123852857Y-97163572D01*
X123924286Y-97235001D01*
X124067143Y-97306429D01*
X124210000Y-97306429D01*
X124352857Y-97235001D01*
X124424286Y-97163572D01*
X124495714Y-97020715D01*
X124567143Y-96735001D01*
X124638571Y-96592143D01*
X124710000Y-96520715D01*
X124852857Y-96449286D01*
X124995714Y-96449286D01*
X125138571Y-96520715D01*
X125210000Y-96592143D01*
X125281429Y-96735001D01*
X125281429Y-97092143D01*
X125210000Y-97306429D01*
X123781429Y-97949286D02*
X125281429Y-97949286D01*
X125281429Y-98306429D01*
X125210000Y-98520714D01*
X125067143Y-98663572D01*
X124924286Y-98735000D01*
X124638571Y-98806429D01*
X124424286Y-98806429D01*
X124138571Y-98735000D01*
X123995714Y-98663572D01*
X123852857Y-98520714D01*
X123781429Y-98306429D01*
X123781429Y-97949286D01*
X125281429Y-99449286D02*
X124067143Y-99449286D01*
X123924286Y-99520714D01*
X123852857Y-99592143D01*
X123781429Y-99735000D01*
X123781429Y-100020714D01*
X123852857Y-100163572D01*
X123924286Y-100235000D01*
X124067143Y-100306429D01*
X125281429Y-100306429D01*
X124567143Y-102663572D02*
X124495714Y-102877858D01*
X124424286Y-102949286D01*
X124281429Y-103020715D01*
X124067143Y-103020715D01*
X123924286Y-102949286D01*
X123852857Y-102877858D01*
X123781429Y-102735000D01*
X123781429Y-102163572D01*
X125281429Y-102163572D01*
X125281429Y-102663572D01*
X125210000Y-102806429D01*
X125138571Y-102877858D01*
X124995714Y-102949286D01*
X124852857Y-102949286D01*
X124710000Y-102877858D01*
X124638571Y-102806429D01*
X124567143Y-102663572D01*
X124567143Y-102163572D01*
X123781429Y-103877858D02*
X123852857Y-103735000D01*
X123924286Y-103663572D01*
X124067143Y-103592143D01*
X124495714Y-103592143D01*
X124638571Y-103663572D01*
X124710000Y-103735000D01*
X124781429Y-103877858D01*
X124781429Y-104092143D01*
X124710000Y-104235000D01*
X124638571Y-104306429D01*
X124495714Y-104377858D01*
X124067143Y-104377858D01*
X123924286Y-104306429D01*
X123852857Y-104235000D01*
X123781429Y-104092143D01*
X123781429Y-103877858D01*
X123781429Y-105663572D02*
X124567143Y-105663572D01*
X124710000Y-105592143D01*
X124781429Y-105449286D01*
X124781429Y-105163572D01*
X124710000Y-105020715D01*
X123852857Y-105663572D02*
X123781429Y-105520715D01*
X123781429Y-105163572D01*
X123852857Y-105020715D01*
X123995714Y-104949286D01*
X124138571Y-104949286D01*
X124281429Y-105020715D01*
X124352857Y-105163572D01*
X124352857Y-105520715D01*
X124424286Y-105663572D01*
X123781429Y-106377858D02*
X124781429Y-106377858D01*
X124495714Y-106377858D02*
X124638571Y-106449286D01*
X124710000Y-106520715D01*
X124781429Y-106663572D01*
X124781429Y-106806429D01*
X123781429Y-107949286D02*
X125281429Y-107949286D01*
X123852857Y-107949286D02*
X123781429Y-107806429D01*
X123781429Y-107520715D01*
X123852857Y-107377857D01*
X123924286Y-107306429D01*
X124067143Y-107235000D01*
X124495714Y-107235000D01*
X124638571Y-107306429D01*
X124710000Y-107377857D01*
X124781429Y-107520715D01*
X124781429Y-107806429D01*
X124710000Y-107949286D01*
X119336429Y-97342143D02*
X119336429Y-96627857D01*
X120836429Y-96627857D01*
X119336429Y-97842143D02*
X120836429Y-97842143D01*
X120836429Y-98199286D01*
X120765000Y-98413571D01*
X120622143Y-98556429D01*
X120479286Y-98627857D01*
X120193571Y-98699286D01*
X119979286Y-98699286D01*
X119693571Y-98627857D01*
X119550714Y-98556429D01*
X119407857Y-98413571D01*
X119336429Y-98199286D01*
X119336429Y-97842143D01*
X120836429Y-99342143D02*
X119622143Y-99342143D01*
X119479286Y-99413571D01*
X119407857Y-99485000D01*
X119336429Y-99627857D01*
X119336429Y-99913571D01*
X119407857Y-100056429D01*
X119479286Y-100127857D01*
X119622143Y-100199286D01*
X120836429Y-100199286D01*
X120122143Y-102556429D02*
X120050714Y-102770715D01*
X119979286Y-102842143D01*
X119836429Y-102913572D01*
X119622143Y-102913572D01*
X119479286Y-102842143D01*
X119407857Y-102770715D01*
X119336429Y-102627857D01*
X119336429Y-102056429D01*
X120836429Y-102056429D01*
X120836429Y-102556429D01*
X120765000Y-102699286D01*
X120693571Y-102770715D01*
X120550714Y-102842143D01*
X120407857Y-102842143D01*
X120265000Y-102770715D01*
X120193571Y-102699286D01*
X120122143Y-102556429D01*
X120122143Y-102056429D01*
X119336429Y-103770715D02*
X119407857Y-103627857D01*
X119479286Y-103556429D01*
X119622143Y-103485000D01*
X120050714Y-103485000D01*
X120193571Y-103556429D01*
X120265000Y-103627857D01*
X120336429Y-103770715D01*
X120336429Y-103985000D01*
X120265000Y-104127857D01*
X120193571Y-104199286D01*
X120050714Y-104270715D01*
X119622143Y-104270715D01*
X119479286Y-104199286D01*
X119407857Y-104127857D01*
X119336429Y-103985000D01*
X119336429Y-103770715D01*
X119336429Y-105556429D02*
X120122143Y-105556429D01*
X120265000Y-105485000D01*
X120336429Y-105342143D01*
X120336429Y-105056429D01*
X120265000Y-104913572D01*
X119407857Y-105556429D02*
X119336429Y-105413572D01*
X119336429Y-105056429D01*
X119407857Y-104913572D01*
X119550714Y-104842143D01*
X119693571Y-104842143D01*
X119836429Y-104913572D01*
X119907857Y-105056429D01*
X119907857Y-105413572D01*
X119979286Y-105556429D01*
X119336429Y-106270715D02*
X120336429Y-106270715D01*
X120050714Y-106270715D02*
X120193571Y-106342143D01*
X120265000Y-106413572D01*
X120336429Y-106556429D01*
X120336429Y-106699286D01*
X119336429Y-107842143D02*
X120836429Y-107842143D01*
X119407857Y-107842143D02*
X119336429Y-107699286D01*
X119336429Y-107413572D01*
X119407857Y-107270714D01*
X119479286Y-107199286D01*
X119622143Y-107127857D01*
X120050714Y-107127857D01*
X120193571Y-107199286D01*
X120265000Y-107270714D01*
X120336429Y-107413572D01*
X120336429Y-107699286D01*
X120265000Y-107842143D01*
D12*
X126446000Y-103470000D02*
X136444000Y-103470000D01*
X126450000Y-103330000D02*
X136440000Y-103330000D01*
X126458000Y-103190000D02*
X136432000Y-103190000D01*
X126470000Y-103050000D02*
X136420000Y-103050000D01*
X126485000Y-102910000D02*
X136405000Y-102910000D01*
X126505000Y-102770000D02*
X136385000Y-102770000D01*
X126529000Y-102630000D02*
X136361000Y-102630000D01*
X126558000Y-102490000D02*
X136332000Y-102490000D01*
X126590000Y-102350000D02*
X136300000Y-102350000D01*
X126627000Y-102210000D02*
X136263000Y-102210000D01*
X126668000Y-102070000D02*
X136222000Y-102070000D01*
X126713000Y-101930000D02*
X130979000Y-101930000D01*
X131911000Y-101930000D02*
X136177000Y-101930000D01*
X126763000Y-101790000D02*
X130778000Y-101790000D01*
X132112000Y-101790000D02*
X136127000Y-101790000D01*
X126818000Y-101650000D02*
X130649000Y-101650000D01*
X132241000Y-101650000D02*
X136072000Y-101650000D01*
X126878000Y-101510000D02*
X130560000Y-101510000D01*
X132330000Y-101510000D02*
X136012000Y-101510000D01*
X126943000Y-101370000D02*
X130499000Y-101370000D01*
X132391000Y-101370000D02*
X135947000Y-101370000D01*
X127013000Y-101230000D02*
X130462000Y-101230000D01*
X132428000Y-101230000D02*
X135877000Y-101230000D01*
X127089000Y-101090000D02*
X130446000Y-101090000D01*
X132444000Y-101090000D02*
X135801000Y-101090000D01*
X127171000Y-100950000D02*
X130450000Y-100950000D01*
X132440000Y-100950000D02*
X135719000Y-100950000D01*
X127259000Y-100810000D02*
X130473000Y-100810000D01*
X132417000Y-100810000D02*
X135631000Y-100810000D01*
X127354000Y-100670000D02*
X130518000Y-100670000D01*
X132372000Y-100670000D02*
X135536000Y-100670000D01*
X127456000Y-100530000D02*
X130588000Y-100530000D01*
X132302000Y-100530000D02*
X135434000Y-100530000D01*
X127566000Y-100390000D02*
X130689000Y-100390000D01*
X132201000Y-100390000D02*
X135324000Y-100390000D01*
X127684000Y-100250000D02*
X130838000Y-100250000D01*
X132052000Y-100250000D02*
X135206000Y-100250000D01*
X127812000Y-100110000D02*
X131090000Y-100110000D01*
X131800000Y-100110000D02*
X135078000Y-100110000D01*
X127949000Y-99970000D02*
X134941000Y-99970000D01*
X128099000Y-99830000D02*
X134791000Y-99830000D01*
X128261000Y-99690000D02*
X134629000Y-99690000D01*
X128438000Y-99550000D02*
X134452000Y-99550000D01*
X128634000Y-99410000D02*
X134256000Y-99410000D01*
X128852000Y-99270000D02*
X134038000Y-99270000D01*
X129098000Y-99130000D02*
X133792000Y-99130000D01*
X129383000Y-98990000D02*
X133507000Y-98990000D01*
X129725000Y-98850000D02*
X133165000Y-98850000D01*
X130171000Y-98710000D02*
X132719000Y-98710000D01*
X130946000Y-98570000D02*
X131944000Y-98570000D01*
X132445000Y-101045000D02*
G75*
G03X132445000Y-101045000I-1000000J0D01*
G01*
X136482500Y-103545000D02*
G75*
G03X136482500Y-103545000I-5037500J0D01*
G01*
X155040000Y-98905000D02*
X155040000Y-92905000D01*
X155040000Y-92905000D02*
X144680000Y-92905000D01*
X144680000Y-92905000D02*
X144680000Y-98905000D01*
X144680000Y-98905000D02*
X155040000Y-98905000D01*
X153670000Y-92905000D02*
X153670000Y-93905000D01*
X153670000Y-93905000D02*
X146050000Y-93905000D01*
X146050000Y-93905000D02*
X146050000Y-92905000D01*
X153670000Y-93905000D02*
X153420000Y-94335000D01*
X153420000Y-94335000D02*
X146300000Y-94335000D01*
X146300000Y-94335000D02*
X146050000Y-93905000D01*
X153420000Y-92905000D02*
X153420000Y-93905000D01*
X146300000Y-92905000D02*
X146300000Y-93905000D01*
X154470000Y-98905000D02*
X154470000Y-98285000D01*
X154470000Y-98285000D02*
X152870000Y-98285000D01*
X152870000Y-98285000D02*
X152870000Y-98905000D01*
X151930000Y-98905000D02*
X151930000Y-98285000D01*
X151930000Y-98285000D02*
X150330000Y-98285000D01*
X150330000Y-98285000D02*
X150330000Y-98905000D01*
X149390000Y-98905000D02*
X149390000Y-98285000D01*
X149390000Y-98285000D02*
X147790000Y-98285000D01*
X147790000Y-98285000D02*
X147790000Y-98905000D01*
X146850000Y-98905000D02*
X146850000Y-98285000D01*
X146850000Y-98285000D02*
X145250000Y-98285000D01*
X145250000Y-98285000D02*
X145250000Y-98905000D01*
X123160000Y-113385000D02*
X123160000Y-114935000D01*
X124460000Y-113385000D02*
X123160000Y-113385000D01*
X128651000Y-114808000D02*
X134493000Y-114808000D01*
X134493000Y-114808000D02*
X134493000Y-115062000D01*
X134493000Y-115062000D02*
X128651000Y-115062000D01*
X128651000Y-115062000D02*
X128651000Y-114935000D01*
X128651000Y-114935000D02*
X134493000Y-114935000D01*
X125984000Y-135001000D02*
X125603000Y-135001000D01*
X125984000Y-135509000D02*
X125603000Y-135509000D01*
X125984000Y-114681000D02*
X125603000Y-114681000D01*
X125984000Y-115189000D02*
X125603000Y-115189000D01*
X125984000Y-117221000D02*
X125603000Y-117221000D01*
X125984000Y-117729000D02*
X125603000Y-117729000D01*
X125984000Y-119761000D02*
X125603000Y-119761000D01*
X125984000Y-120269000D02*
X125603000Y-120269000D01*
X125984000Y-122301000D02*
X125603000Y-122301000D01*
X125984000Y-122809000D02*
X125603000Y-122809000D01*
X125984000Y-132969000D02*
X125603000Y-132969000D01*
X125984000Y-132461000D02*
X125603000Y-132461000D01*
X125984000Y-130429000D02*
X125603000Y-130429000D01*
X125984000Y-129921000D02*
X125603000Y-129921000D01*
X125984000Y-127889000D02*
X125603000Y-127889000D01*
X125984000Y-127381000D02*
X125603000Y-127381000D01*
X125984000Y-125349000D02*
X125603000Y-125349000D01*
X125984000Y-124841000D02*
X125603000Y-124841000D01*
X125984000Y-131445000D02*
X128524000Y-131445000D01*
X125984000Y-131445000D02*
X125984000Y-133985000D01*
X125984000Y-133985000D02*
X128524000Y-133985000D01*
X128524000Y-132461000D02*
X134620000Y-132461000D01*
X134620000Y-132461000D02*
X134620000Y-132969000D01*
X134620000Y-132969000D02*
X128524000Y-132969000D01*
X128524000Y-133985000D02*
X128524000Y-131445000D01*
X128524000Y-136525000D02*
X128524000Y-133985000D01*
X134620000Y-135509000D02*
X128524000Y-135509000D01*
X134620000Y-135001000D02*
X134620000Y-135509000D01*
X128524000Y-135001000D02*
X134620000Y-135001000D01*
X125984000Y-133985000D02*
X125984000Y-136525000D01*
X125984000Y-133985000D02*
X128524000Y-133985000D01*
X125984000Y-136525000D02*
X128524000Y-136525000D01*
X128524000Y-116205000D02*
X128524000Y-113665000D01*
X134620000Y-115189000D02*
X128524000Y-115189000D01*
X134620000Y-114681000D02*
X134620000Y-115189000D01*
X128524000Y-114681000D02*
X134620000Y-114681000D01*
X125984000Y-116205000D02*
X128524000Y-116205000D01*
X125984000Y-113665000D02*
X125984000Y-116205000D01*
X125984000Y-113665000D02*
X128524000Y-113665000D01*
X125984000Y-118745000D02*
X128524000Y-118745000D01*
X125984000Y-118745000D02*
X125984000Y-121285000D01*
X125984000Y-121285000D02*
X128524000Y-121285000D01*
X128524000Y-119761000D02*
X134620000Y-119761000D01*
X134620000Y-119761000D02*
X134620000Y-120269000D01*
X134620000Y-120269000D02*
X128524000Y-120269000D01*
X128524000Y-121285000D02*
X128524000Y-118745000D01*
X128524000Y-118745000D02*
X128524000Y-116205000D01*
X134620000Y-117729000D02*
X128524000Y-117729000D01*
X134620000Y-117221000D02*
X134620000Y-117729000D01*
X128524000Y-117221000D02*
X134620000Y-117221000D01*
X125984000Y-118745000D02*
X128524000Y-118745000D01*
X125984000Y-116205000D02*
X125984000Y-118745000D01*
X125984000Y-116205000D02*
X128524000Y-116205000D01*
X125984000Y-126365000D02*
X128524000Y-126365000D01*
X125984000Y-126365000D02*
X125984000Y-128905000D01*
X125984000Y-128905000D02*
X128524000Y-128905000D01*
X128524000Y-127381000D02*
X134620000Y-127381000D01*
X134620000Y-127381000D02*
X134620000Y-127889000D01*
X134620000Y-127889000D02*
X128524000Y-127889000D01*
X128524000Y-128905000D02*
X128524000Y-126365000D01*
X128524000Y-131445000D02*
X128524000Y-128905000D01*
X134620000Y-130429000D02*
X128524000Y-130429000D01*
X134620000Y-129921000D02*
X134620000Y-130429000D01*
X128524000Y-129921000D02*
X134620000Y-129921000D01*
X125984000Y-131445000D02*
X128524000Y-131445000D01*
X125984000Y-128905000D02*
X125984000Y-131445000D01*
X125984000Y-128905000D02*
X128524000Y-128905000D01*
X125984000Y-123825000D02*
X128524000Y-123825000D01*
X125984000Y-123825000D02*
X125984000Y-126365000D01*
X125984000Y-126365000D02*
X128524000Y-126365000D01*
X128524000Y-124841000D02*
X134620000Y-124841000D01*
X134620000Y-124841000D02*
X134620000Y-125349000D01*
X134620000Y-125349000D02*
X128524000Y-125349000D01*
X128524000Y-126365000D02*
X128524000Y-123825000D01*
X128524000Y-123825000D02*
X128524000Y-121285000D01*
X134620000Y-122809000D02*
X128524000Y-122809000D01*
X134620000Y-122301000D02*
X134620000Y-122809000D01*
X128524000Y-122301000D02*
X134620000Y-122301000D01*
X125984000Y-123825000D02*
X128524000Y-123825000D01*
X125984000Y-121285000D02*
X125984000Y-123825000D01*
X125984000Y-121285000D02*
X128524000Y-121285000D01*
X118715000Y-113385000D02*
X118715000Y-114935000D01*
X120015000Y-113385000D02*
X118715000Y-113385000D01*
X124206000Y-114808000D02*
X130048000Y-114808000D01*
X130048000Y-114808000D02*
X130048000Y-115062000D01*
X130048000Y-115062000D02*
X124206000Y-115062000D01*
X124206000Y-115062000D02*
X124206000Y-114935000D01*
X124206000Y-114935000D02*
X130048000Y-114935000D01*
X121539000Y-135001000D02*
X121158000Y-135001000D01*
X121539000Y-135509000D02*
X121158000Y-135509000D01*
X121539000Y-114681000D02*
X121158000Y-114681000D01*
X121539000Y-115189000D02*
X121158000Y-115189000D01*
X121539000Y-117221000D02*
X121158000Y-117221000D01*
X121539000Y-117729000D02*
X121158000Y-117729000D01*
X121539000Y-119761000D02*
X121158000Y-119761000D01*
X121539000Y-120269000D02*
X121158000Y-120269000D01*
X121539000Y-122301000D02*
X121158000Y-122301000D01*
X121539000Y-122809000D02*
X121158000Y-122809000D01*
X121539000Y-132969000D02*
X121158000Y-132969000D01*
X121539000Y-132461000D02*
X121158000Y-132461000D01*
X121539000Y-130429000D02*
X121158000Y-130429000D01*
X121539000Y-129921000D02*
X121158000Y-129921000D01*
X121539000Y-127889000D02*
X121158000Y-127889000D01*
X121539000Y-127381000D02*
X121158000Y-127381000D01*
X121539000Y-125349000D02*
X121158000Y-125349000D01*
X121539000Y-124841000D02*
X121158000Y-124841000D01*
X121539000Y-131445000D02*
X124079000Y-131445000D01*
X121539000Y-131445000D02*
X121539000Y-133985000D01*
X121539000Y-133985000D02*
X124079000Y-133985000D01*
X124079000Y-132461000D02*
X130175000Y-132461000D01*
X130175000Y-132461000D02*
X130175000Y-132969000D01*
X130175000Y-132969000D02*
X124079000Y-132969000D01*
X124079000Y-133985000D02*
X124079000Y-131445000D01*
X124079000Y-136525000D02*
X124079000Y-133985000D01*
X130175000Y-135509000D02*
X124079000Y-135509000D01*
X130175000Y-135001000D02*
X130175000Y-135509000D01*
X124079000Y-135001000D02*
X130175000Y-135001000D01*
X121539000Y-133985000D02*
X121539000Y-136525000D01*
X121539000Y-133985000D02*
X124079000Y-133985000D01*
X121539000Y-136525000D02*
X124079000Y-136525000D01*
X124079000Y-116205000D02*
X124079000Y-113665000D01*
X130175000Y-115189000D02*
X124079000Y-115189000D01*
X130175000Y-114681000D02*
X130175000Y-115189000D01*
X124079000Y-114681000D02*
X130175000Y-114681000D01*
X121539000Y-116205000D02*
X124079000Y-116205000D01*
X121539000Y-113665000D02*
X121539000Y-116205000D01*
X121539000Y-113665000D02*
X124079000Y-113665000D01*
X121539000Y-118745000D02*
X124079000Y-118745000D01*
X121539000Y-118745000D02*
X121539000Y-121285000D01*
X121539000Y-121285000D02*
X124079000Y-121285000D01*
X124079000Y-119761000D02*
X130175000Y-119761000D01*
X130175000Y-119761000D02*
X130175000Y-120269000D01*
X130175000Y-120269000D02*
X124079000Y-120269000D01*
X124079000Y-121285000D02*
X124079000Y-118745000D01*
X124079000Y-118745000D02*
X124079000Y-116205000D01*
X130175000Y-117729000D02*
X124079000Y-117729000D01*
X130175000Y-117221000D02*
X130175000Y-117729000D01*
X124079000Y-117221000D02*
X130175000Y-117221000D01*
X121539000Y-118745000D02*
X124079000Y-118745000D01*
X121539000Y-116205000D02*
X121539000Y-118745000D01*
X121539000Y-116205000D02*
X124079000Y-116205000D01*
X121539000Y-126365000D02*
X124079000Y-126365000D01*
X121539000Y-126365000D02*
X121539000Y-128905000D01*
X121539000Y-128905000D02*
X124079000Y-128905000D01*
X124079000Y-127381000D02*
X130175000Y-127381000D01*
X130175000Y-127381000D02*
X130175000Y-127889000D01*
X130175000Y-127889000D02*
X124079000Y-127889000D01*
X124079000Y-128905000D02*
X124079000Y-126365000D01*
X124079000Y-131445000D02*
X124079000Y-128905000D01*
X130175000Y-130429000D02*
X124079000Y-130429000D01*
X130175000Y-129921000D02*
X130175000Y-130429000D01*
X124079000Y-129921000D02*
X130175000Y-129921000D01*
X121539000Y-131445000D02*
X124079000Y-131445000D01*
X121539000Y-128905000D02*
X121539000Y-131445000D01*
X121539000Y-128905000D02*
X124079000Y-128905000D01*
X121539000Y-123825000D02*
X124079000Y-123825000D01*
X121539000Y-123825000D02*
X121539000Y-126365000D01*
X121539000Y-126365000D02*
X124079000Y-126365000D01*
X124079000Y-124841000D02*
X130175000Y-124841000D01*
X130175000Y-124841000D02*
X130175000Y-125349000D01*
X130175000Y-125349000D02*
X124079000Y-125349000D01*
X124079000Y-126365000D02*
X124079000Y-123825000D01*
X124079000Y-123825000D02*
X124079000Y-121285000D01*
X130175000Y-122809000D02*
X124079000Y-122809000D01*
X130175000Y-122301000D02*
X130175000Y-122809000D01*
X124079000Y-122301000D02*
X130175000Y-122301000D01*
X121539000Y-123825000D02*
X124079000Y-123825000D01*
X121539000Y-121285000D02*
X121539000Y-123825000D01*
X121539000Y-121285000D02*
X124079000Y-121285000D01*
X156075000Y-135010000D02*
X156075000Y-133740000D01*
X141105000Y-135010000D02*
X141105000Y-133740000D01*
X141105000Y-102480000D02*
X141105000Y-103750000D01*
X156075000Y-102480000D02*
X156075000Y-103750000D01*
X156075000Y-135010000D02*
X141105000Y-135010000D01*
X156075000Y-102480000D02*
X141105000Y-102480000D01*
X156075000Y-133740000D02*
X157010000Y-133740000D01*
D10*
X132045000Y-101045000D02*
G75*
G03X132045000Y-101045000I-600000J0D01*
G01*
X152080000Y-96185000D02*
X152080000Y-95585000D01*
X150180000Y-96185000D02*
X150180000Y-95585000D01*
X152080000Y-95585000D02*
G75*
G03X150180000Y-95585000I-950000J0D01*
G01*
X150180000Y-96185000D02*
G75*
G03X152080000Y-96185000I950000J0D01*
G01*
X149540000Y-96185000D02*
X149540000Y-95585000D01*
X147640000Y-96185000D02*
X147640000Y-95585000D01*
X149540000Y-95585000D02*
G75*
G03X147640000Y-95585000I-950000J0D01*
G01*
X147640000Y-96185000D02*
G75*
G03X149540000Y-96185000I950000J0D01*
G01*
X147000000Y-96185000D02*
X147000000Y-95585000D01*
X145100000Y-96185000D02*
X145100000Y-95585000D01*
X147000000Y-95585000D02*
G75*
G03X145100000Y-95585000I-950000J0D01*
G01*
X145100000Y-96185000D02*
G75*
G03X147000000Y-96185000I950000J0D01*
G01*
X124307600Y-118288600D02*
X124612400Y-118288600D01*
X124307600Y-116661400D02*
X124612400Y-116661400D01*
X124612400Y-118288600D02*
G75*
G03X124612400Y-116661400I0J813600D01*
G01*
X124307600Y-116661400D02*
G75*
G03X124307600Y-118288600I0J-813600D01*
G01*
X124307600Y-120828600D02*
X124612400Y-120828600D01*
X124307600Y-119201400D02*
X124612400Y-119201400D01*
X124612400Y-120828600D02*
G75*
G03X124612400Y-119201400I0J813600D01*
G01*
X124307600Y-119201400D02*
G75*
G03X124307600Y-120828600I0J-813600D01*
G01*
X124307600Y-123368600D02*
X124612400Y-123368600D01*
X124307600Y-121741400D02*
X124612400Y-121741400D01*
X124612400Y-123368600D02*
G75*
G03X124612400Y-121741400I0J813600D01*
G01*
X124307600Y-121741400D02*
G75*
G03X124307600Y-123368600I0J-813600D01*
G01*
X124307600Y-125908600D02*
X124612400Y-125908600D01*
X124307600Y-124281400D02*
X124612400Y-124281400D01*
X124612400Y-125908600D02*
G75*
G03X124612400Y-124281400I0J813600D01*
G01*
X124307600Y-124281400D02*
G75*
G03X124307600Y-125908600I0J-813600D01*
G01*
X124307600Y-128448600D02*
X124612400Y-128448600D01*
X124307600Y-126821400D02*
X124612400Y-126821400D01*
X124612400Y-128448600D02*
G75*
G03X124612400Y-126821400I0J813600D01*
G01*
X124307600Y-126821400D02*
G75*
G03X124307600Y-128448600I0J-813600D01*
G01*
X124307600Y-130988600D02*
X124612400Y-130988600D01*
X124307600Y-129361400D02*
X124612400Y-129361400D01*
X124612400Y-130988600D02*
G75*
G03X124612400Y-129361400I0J813600D01*
G01*
X124307600Y-129361400D02*
G75*
G03X124307600Y-130988600I0J-813600D01*
G01*
X124307600Y-133528600D02*
X124612400Y-133528600D01*
X124307600Y-131901400D02*
X124612400Y-131901400D01*
X124612400Y-133528600D02*
G75*
G03X124612400Y-131901400I0J813600D01*
G01*
X124307600Y-131901400D02*
G75*
G03X124307600Y-133528600I0J-813600D01*
G01*
X124307600Y-136068600D02*
X124612400Y-136068600D01*
X124307600Y-134441400D02*
X124612400Y-134441400D01*
X124612400Y-136068600D02*
G75*
G03X124612400Y-134441400I0J813600D01*
G01*
X124307600Y-134441400D02*
G75*
G03X124307600Y-136068600I0J-813600D01*
G01*
X119862600Y-118288600D02*
X120167400Y-118288600D01*
X119862600Y-116661400D02*
X120167400Y-116661400D01*
X120167400Y-118288600D02*
G75*
G03X120167400Y-116661400I0J813600D01*
G01*
X119862600Y-116661400D02*
G75*
G03X119862600Y-118288600I0J-813600D01*
G01*
X119862600Y-120828600D02*
X120167400Y-120828600D01*
X119862600Y-119201400D02*
X120167400Y-119201400D01*
X120167400Y-120828600D02*
G75*
G03X120167400Y-119201400I0J813600D01*
G01*
X119862600Y-119201400D02*
G75*
G03X119862600Y-120828600I0J-813600D01*
G01*
X119862600Y-123368600D02*
X120167400Y-123368600D01*
X119862600Y-121741400D02*
X120167400Y-121741400D01*
X120167400Y-123368600D02*
G75*
G03X120167400Y-121741400I0J813600D01*
G01*
X119862600Y-121741400D02*
G75*
G03X119862600Y-123368600I0J-813600D01*
G01*
X119862600Y-125908600D02*
X120167400Y-125908600D01*
X119862600Y-124281400D02*
X120167400Y-124281400D01*
X120167400Y-125908600D02*
G75*
G03X120167400Y-124281400I0J813600D01*
G01*
X119862600Y-124281400D02*
G75*
G03X119862600Y-125908600I0J-813600D01*
G01*
X119862600Y-128448600D02*
X120167400Y-128448600D01*
X119862600Y-126821400D02*
X120167400Y-126821400D01*
X120167400Y-128448600D02*
G75*
G03X120167400Y-126821400I0J813600D01*
G01*
X119862600Y-126821400D02*
G75*
G03X119862600Y-128448600I0J-813600D01*
G01*
X119862600Y-130988600D02*
X120167400Y-130988600D01*
X119862600Y-129361400D02*
X120167400Y-129361400D01*
X120167400Y-130988600D02*
G75*
G03X120167400Y-129361400I0J813600D01*
G01*
X119862600Y-129361400D02*
G75*
G03X119862600Y-130988600I0J-813600D01*
G01*
X119862600Y-133528600D02*
X120167400Y-133528600D01*
X119862600Y-131901400D02*
X120167400Y-131901400D01*
X120167400Y-133528600D02*
G75*
G03X120167400Y-131901400I0J813600D01*
G01*
X119862600Y-131901400D02*
G75*
G03X119862600Y-133528600I0J-813600D01*
G01*
X119862600Y-136068600D02*
X120167400Y-136068600D01*
X119862600Y-134441400D02*
X120167400Y-134441400D01*
X120167400Y-136068600D02*
G75*
G03X120167400Y-134441400I0J813600D01*
G01*
X119862600Y-134441400D02*
G75*
G03X119862600Y-136068600I0J-813600D01*
G01*
X156960000Y-132715000D02*
X156960000Y-132715000D01*
X155460000Y-132715000D02*
X155460000Y-132715000D01*
X156960000Y-132715000D02*
G75*
G03X155460000Y-132715000I-750000J0D01*
G01*
X155460000Y-132715000D02*
G75*
G03X156960000Y-132715000I750000J0D01*
G01*
X156960000Y-130175000D02*
X156960000Y-130175000D01*
X155460000Y-130175000D02*
X155460000Y-130175000D01*
X156960000Y-130175000D02*
G75*
G03X155460000Y-130175000I-750000J0D01*
G01*
X155460000Y-130175000D02*
G75*
G03X156960000Y-130175000I750000J0D01*
G01*
X156960000Y-127635000D02*
X156960000Y-127635000D01*
X155460000Y-127635000D02*
X155460000Y-127635000D01*
X156960000Y-127635000D02*
G75*
G03X155460000Y-127635000I-750000J0D01*
G01*
X155460000Y-127635000D02*
G75*
G03X156960000Y-127635000I750000J0D01*
G01*
X156960000Y-125095000D02*
X156960000Y-125095000D01*
X155460000Y-125095000D02*
X155460000Y-125095000D01*
X156960000Y-125095000D02*
G75*
G03X155460000Y-125095000I-750000J0D01*
G01*
X155460000Y-125095000D02*
G75*
G03X156960000Y-125095000I750000J0D01*
G01*
X156960000Y-122555000D02*
X156960000Y-122555000D01*
X155460000Y-122555000D02*
X155460000Y-122555000D01*
X156960000Y-122555000D02*
G75*
G03X155460000Y-122555000I-750000J0D01*
G01*
X155460000Y-122555000D02*
G75*
G03X156960000Y-122555000I750000J0D01*
G01*
X156960000Y-120015000D02*
X156960000Y-120015000D01*
X155460000Y-120015000D02*
X155460000Y-120015000D01*
X156960000Y-120015000D02*
G75*
G03X155460000Y-120015000I-750000J0D01*
G01*
X155460000Y-120015000D02*
G75*
G03X156960000Y-120015000I750000J0D01*
G01*
X156960000Y-117475000D02*
X156960000Y-117475000D01*
X155460000Y-117475000D02*
X155460000Y-117475000D01*
X156960000Y-117475000D02*
G75*
G03X155460000Y-117475000I-750000J0D01*
G01*
X155460000Y-117475000D02*
G75*
G03X156960000Y-117475000I750000J0D01*
G01*
X156960000Y-114935000D02*
X156960000Y-114935000D01*
X155460000Y-114935000D02*
X155460000Y-114935000D01*
X156960000Y-114935000D02*
G75*
G03X155460000Y-114935000I-750000J0D01*
G01*
X155460000Y-114935000D02*
G75*
G03X156960000Y-114935000I750000J0D01*
G01*
X156960000Y-112395000D02*
X156960000Y-112395000D01*
X155460000Y-112395000D02*
X155460000Y-112395000D01*
X156960000Y-112395000D02*
G75*
G03X155460000Y-112395000I-750000J0D01*
G01*
X155460000Y-112395000D02*
G75*
G03X156960000Y-112395000I750000J0D01*
G01*
X156960000Y-109855000D02*
X156960000Y-109855000D01*
X155460000Y-109855000D02*
X155460000Y-109855000D01*
X156960000Y-109855000D02*
G75*
G03X155460000Y-109855000I-750000J0D01*
G01*
X155460000Y-109855000D02*
G75*
G03X156960000Y-109855000I750000J0D01*
G01*
X156960000Y-107315000D02*
X156960000Y-107315000D01*
X155460000Y-107315000D02*
X155460000Y-107315000D01*
X156960000Y-107315000D02*
G75*
G03X155460000Y-107315000I-750000J0D01*
G01*
X155460000Y-107315000D02*
G75*
G03X156960000Y-107315000I750000J0D01*
G01*
X156960000Y-104775000D02*
X156960000Y-104775000D01*
X155460000Y-104775000D02*
X155460000Y-104775000D01*
X156960000Y-104775000D02*
G75*
G03X155460000Y-104775000I-750000J0D01*
G01*
X155460000Y-104775000D02*
G75*
G03X156960000Y-104775000I750000J0D01*
G01*
X141720000Y-104775000D02*
X141720000Y-104775000D01*
X140220000Y-104775000D02*
X140220000Y-104775000D01*
X141720000Y-104775000D02*
G75*
G03X140220000Y-104775000I-750000J0D01*
G01*
X140220000Y-104775000D02*
G75*
G03X141720000Y-104775000I750000J0D01*
G01*
X141720000Y-107315000D02*
X141720000Y-107315000D01*
X140220000Y-107315000D02*
X140220000Y-107315000D01*
X141720000Y-107315000D02*
G75*
G03X140220000Y-107315000I-750000J0D01*
G01*
X140220000Y-107315000D02*
G75*
G03X141720000Y-107315000I750000J0D01*
G01*
X141720000Y-109855000D02*
X141720000Y-109855000D01*
X140220000Y-109855000D02*
X140220000Y-109855000D01*
X141720000Y-109855000D02*
G75*
G03X140220000Y-109855000I-750000J0D01*
G01*
X140220000Y-109855000D02*
G75*
G03X141720000Y-109855000I750000J0D01*
G01*
X141720000Y-112395000D02*
X141720000Y-112395000D01*
X140220000Y-112395000D02*
X140220000Y-112395000D01*
X141720000Y-112395000D02*
G75*
G03X140220000Y-112395000I-750000J0D01*
G01*
X140220000Y-112395000D02*
G75*
G03X141720000Y-112395000I750000J0D01*
G01*
X141720000Y-114935000D02*
X141720000Y-114935000D01*
X140220000Y-114935000D02*
X140220000Y-114935000D01*
X141720000Y-114935000D02*
G75*
G03X140220000Y-114935000I-750000J0D01*
G01*
X140220000Y-114935000D02*
G75*
G03X141720000Y-114935000I750000J0D01*
G01*
X141720000Y-117475000D02*
X141720000Y-117475000D01*
X140220000Y-117475000D02*
X140220000Y-117475000D01*
X141720000Y-117475000D02*
G75*
G03X140220000Y-117475000I-750000J0D01*
G01*
X140220000Y-117475000D02*
G75*
G03X141720000Y-117475000I750000J0D01*
G01*
X141720000Y-120015000D02*
X141720000Y-120015000D01*
X140220000Y-120015000D02*
X140220000Y-120015000D01*
X141720000Y-120015000D02*
G75*
G03X140220000Y-120015000I-750000J0D01*
G01*
X140220000Y-120015000D02*
G75*
G03X141720000Y-120015000I750000J0D01*
G01*
X141720000Y-122555000D02*
X141720000Y-122555000D01*
X140220000Y-122555000D02*
X140220000Y-122555000D01*
X141720000Y-122555000D02*
G75*
G03X140220000Y-122555000I-750000J0D01*
G01*
X140220000Y-122555000D02*
G75*
G03X141720000Y-122555000I750000J0D01*
G01*
X141720000Y-125095000D02*
X141720000Y-125095000D01*
X140220000Y-125095000D02*
X140220000Y-125095000D01*
X141720000Y-125095000D02*
G75*
G03X140220000Y-125095000I-750000J0D01*
G01*
X140220000Y-125095000D02*
G75*
G03X141720000Y-125095000I750000J0D01*
G01*
X141720000Y-127635000D02*
X141720000Y-127635000D01*
X140220000Y-127635000D02*
X140220000Y-127635000D01*
X141720000Y-127635000D02*
G75*
G03X140220000Y-127635000I-750000J0D01*
G01*
X140220000Y-127635000D02*
G75*
G03X141720000Y-127635000I750000J0D01*
G01*
X141720000Y-130175000D02*
X141720000Y-130175000D01*
X140220000Y-130175000D02*
X140220000Y-130175000D01*
X141720000Y-130175000D02*
G75*
G03X140220000Y-130175000I-750000J0D01*
G01*
X140220000Y-130175000D02*
G75*
G03X141720000Y-130175000I750000J0D01*
G01*
X141720000Y-132715000D02*
X141720000Y-132715000D01*
X140220000Y-132715000D02*
X140220000Y-132715000D01*
X141720000Y-132715000D02*
G75*
G03X140220000Y-132715000I-750000J0D01*
G01*
X140220000Y-132715000D02*
G75*
G03X141720000Y-132715000I750000J0D01*
G01*
X155652000Y-135255000D02*
G75*
G03X155652000Y-135255000I-712000J0D01*
G01*
X153112000Y-135255000D02*
G75*
G03X153112000Y-135255000I-712000J0D01*
G01*
X150572000Y-135255000D02*
G75*
G03X150572000Y-135255000I-712000J0D01*
G01*
X148032000Y-135255000D02*
G75*
G03X148032000Y-135255000I-712000J0D01*
G01*
X145492000Y-135255000D02*
G75*
G03X145492000Y-135255000I-712000J0D01*
G01*
X142952000Y-135255000D02*
G75*
G03X142952000Y-135255000I-712000J0D01*
G01*
X144222000Y-111125000D02*
G75*
G03X144222000Y-111125000I-712000J0D01*
G01*
X144222000Y-113665000D02*
G75*
G03X144222000Y-113665000I-712000J0D01*
G01*
X144222000Y-121285000D02*
G75*
G03X144222000Y-121285000I-712000J0D01*
G01*
X144222000Y-123825000D02*
G75*
G03X144222000Y-123825000I-712000J0D01*
G01*
D12*
X125502143Y-103711666D02*
X125549762Y-103759285D01*
X125597381Y-103902142D01*
X125597381Y-103997380D01*
X125549762Y-104140238D01*
X125454524Y-104235476D01*
X125359286Y-104283095D01*
X125168810Y-104330714D01*
X125025952Y-104330714D01*
X124835476Y-104283095D01*
X124740238Y-104235476D01*
X124645000Y-104140238D01*
X124597381Y-103997380D01*
X124597381Y-103902142D01*
X124645000Y-103759285D01*
X124692619Y-103711666D01*
X125597381Y-102759285D02*
X125597381Y-103330714D01*
X125597381Y-103045000D02*
X124597381Y-103045000D01*
X124740238Y-103140238D01*
X124835476Y-103235476D01*
X124883095Y-103330714D01*
X151931905Y-100837381D02*
X151931905Y-99837381D01*
X152312858Y-99837381D01*
X152408096Y-99885000D01*
X152455715Y-99932619D01*
X152503334Y-100027857D01*
X152503334Y-100170714D01*
X152455715Y-100265952D01*
X152408096Y-100313571D01*
X152312858Y-100361190D01*
X151931905Y-100361190D01*
X153455715Y-100837381D02*
X152884286Y-100837381D01*
X153170000Y-100837381D02*
X153170000Y-99837381D01*
X153074762Y-99980238D01*
X152979524Y-100075476D01*
X152884286Y-100123095D01*
X123721905Y-110287381D02*
X123721905Y-109287381D01*
X124102858Y-109287381D01*
X124198096Y-109335000D01*
X124245715Y-109382619D01*
X124293334Y-109477857D01*
X124293334Y-109620714D01*
X124245715Y-109715952D01*
X124198096Y-109763571D01*
X124102858Y-109811190D01*
X123721905Y-109811190D01*
X124674286Y-109382619D02*
X124721905Y-109335000D01*
X124817143Y-109287381D01*
X125055239Y-109287381D01*
X125150477Y-109335000D01*
X125198096Y-109382619D01*
X125245715Y-109477857D01*
X125245715Y-109573095D01*
X125198096Y-109715952D01*
X124626667Y-110287381D01*
X125245715Y-110287381D01*
X119276905Y-110287381D02*
X119276905Y-109287381D01*
X119657858Y-109287381D01*
X119753096Y-109335000D01*
X119800715Y-109382619D01*
X119848334Y-109477857D01*
X119848334Y-109620714D01*
X119800715Y-109715952D01*
X119753096Y-109763571D01*
X119657858Y-109811190D01*
X119276905Y-109811190D01*
X120181667Y-109287381D02*
X120800715Y-109287381D01*
X120467381Y-109668333D01*
X120610239Y-109668333D01*
X120705477Y-109715952D01*
X120753096Y-109763571D01*
X120800715Y-109858810D01*
X120800715Y-110096905D01*
X120753096Y-110192143D01*
X120705477Y-110239762D01*
X120610239Y-110287381D01*
X120324524Y-110287381D01*
X120229286Y-110239762D01*
X120181667Y-110192143D01*
X151638095Y-129627381D02*
X151638095Y-130436905D01*
X151685714Y-130532143D01*
X151733333Y-130579762D01*
X151828571Y-130627381D01*
X152019048Y-130627381D01*
X152114286Y-130579762D01*
X152161905Y-130532143D01*
X152209524Y-130436905D01*
X152209524Y-129627381D01*
X153209524Y-130627381D02*
X152638095Y-130627381D01*
X152923809Y-130627381D02*
X152923809Y-129627381D01*
X152828571Y-129770238D01*
X152733333Y-129865476D01*
X152638095Y-129913095D01*
M02*
