M48
INCH,TZ
T1C0.025
T2C0.032
T3C0.040
T4C0.201
%
G90
G05
T1
X34500Y-57000
X43500Y-49000
X45000Y-38500
X45500Y-51500
X47000Y-51500
X50000Y-59500
X52500Y-56500
X53000Y-50500
X55000Y-48500
X57500Y-29000
X59500Y-30000
X61000Y-57500
X61500Y-31000
X62500Y-54000
X62500Y-58000
X62500Y-60500
X63000Y-40000
X63000Y-42000
X63500Y-32000
X66000Y-35000
X67000Y-34000
X67500Y-35000
X68500Y-33500
X68500Y-43000
X69000Y-24000
X71000Y-34000
X71500Y-54000
X74500Y-35000
X74500Y-40000
X75000Y-38000
X75000Y-40000
X77500Y-40000
T2
X34500Y-24000
X34500Y-25000
X34500Y-26000
X34500Y-27000
X34500Y-28000
X34500Y-29000
X34500Y-30000
X34500Y-31000
X34500Y-32000
X34500Y-33000
X34500Y-38000
X34500Y-39000
X34500Y-40000
X34500Y-41000
X34500Y-42000
X34500Y-43000
X34500Y-44000
X34500Y-45000
X34500Y-46000
X34500Y-47000
X35250Y-58000
X35500Y-52750
X35500Y-56250
X35500Y-60000
X35500Y-62000
X36750Y-38000
X36750Y-39000
X36750Y-40000
X36750Y-41000
X36750Y-43000
X36750Y-44000
X36750Y-45000
X36750Y-46000
X37000Y-52750
X37000Y-56250
X38500Y-20000
X38500Y-52750
X38500Y-56250
X38500Y-60000
X38500Y-62000
X38750Y-24000
X38750Y-26000
X38750Y-28000
X38750Y-30000
X38750Y-32000
X38750Y-58000
X39500Y-20000
X40000Y-52750
X40000Y-56250
X40250Y-38000
X40250Y-39000
X40250Y-40000
X40250Y-41000
X40250Y-43000
X40250Y-44000
X40250Y-45000
X40250Y-46000
X40500Y-20000
X41500Y-20000
X41500Y-52750
X41500Y-56250
X42250Y-24000
X42250Y-26000
X42250Y-28000
X42250Y-30000
X42250Y-32000
X42500Y-20000
X42500Y-34250
X42500Y-37750
X43000Y-40500
X43000Y-43500
X43000Y-47000
X43000Y-50000
X43000Y-52750
X43000Y-56250
X43750Y-25000
X43750Y-29000
X43750Y-31000
X44000Y-34250
X44000Y-37750
X44000Y-40500
X44000Y-43500
X44000Y-47000
X44000Y-50000
X44500Y-52750
X44500Y-56250
X45000Y-40500
X45000Y-43500
X45000Y-47000
X45000Y-50000
X45500Y-34250
X45500Y-37750
X46000Y-40500
X46000Y-43500
X46000Y-47000
X46000Y-50000
X46000Y-52750
X46000Y-56250
X47000Y-34250
X47000Y-37750
X47000Y-40500
X47000Y-43500
X47000Y-47000
X47000Y-50000
X47250Y-25000
X47250Y-29000
X47250Y-31000
X48000Y-40500
X48000Y-43500
X48000Y-47000
X48000Y-50000
X48000Y-52750
X48000Y-56250
X48500Y-34250
X48500Y-37750
X49000Y-40500
X49000Y-43500
X49000Y-47000
X49000Y-50000
X50500Y-20000
X50500Y-23000
X50500Y-25000
X50500Y-28000
X51000Y-34250
X51000Y-37750
X51500Y-19750
X51500Y-23250
X52500Y-20000
X52500Y-23000
X52500Y-25000
X52500Y-28000
X53000Y-34250
X53000Y-37750
X53000Y-40750
X53000Y-44250
X53000Y-46250
X53000Y-49750
X53000Y-52250
X53000Y-55750
X53000Y-57750
X53000Y-61250
X53500Y-19750
X53500Y-23250
X54500Y-20000
X54500Y-23000
X54500Y-25000
X54500Y-28000
X55000Y-34250
X55000Y-37750
X55000Y-40750
X55000Y-44250
X55000Y-46250
X55000Y-49750
X55000Y-52250
X55000Y-55750
X55000Y-57750
X55000Y-61250
X55500Y-19750
X55500Y-23250
X56500Y-20000
X56500Y-23000
X56500Y-25000
X56500Y-28000
X57000Y-34250
X57000Y-37750
X57000Y-40750
X57000Y-44250
X57000Y-46250
X57000Y-49750
X57000Y-52250
X57000Y-55750
X57000Y-57750
X57000Y-61250
X57500Y-19750
X57500Y-23250
X58500Y-20000
X58500Y-23000
X58500Y-25000
X58500Y-28000
X59000Y-40750
X59000Y-44250
X59000Y-46250
X59000Y-49750
X59000Y-52250
X59000Y-55750
X59000Y-57750
X59000Y-61250
X59500Y-19750
X59500Y-23250
X60500Y-20000
X60500Y-23000
X60500Y-25000
X60500Y-28000
X61000Y-59500
X61000Y-60500
X61500Y-19750
X61500Y-23250
X62500Y-20000
X62500Y-23000
X62500Y-25000
X62500Y-28000
X63500Y-19750
X63500Y-23250
X64000Y-52750
X64000Y-56250
X64000Y-57500
X64000Y-58500
X64500Y-20000
X64500Y-23000
X64500Y-25000
X64500Y-28000
X64500Y-37000
X64500Y-38000
X64500Y-39000
X64500Y-40000
X64500Y-41000
X64500Y-42000
X64500Y-43000
X64500Y-44000
X64500Y-45000
X64500Y-46000
X64500Y-47000
X64500Y-48000
X64500Y-49000
X64500Y-50000
X65500Y-19750
X65500Y-23250
X66500Y-52750
X66500Y-56250
X66500Y-57500
X66500Y-58500
X67500Y-25500
X67500Y-26500
X67500Y-27500
X67500Y-28500
X67500Y-29500
X67500Y-30500
X67500Y-31500
X67500Y-32500
X70500Y-20500
X70500Y-23000
X70500Y-25500
X70500Y-26500
X70500Y-27500
X70500Y-28500
X70500Y-29500
X70500Y-30500
X70500Y-31500
X70500Y-32500
X70500Y-37000
X70500Y-38000
X70500Y-39000
X70500Y-40000
X70500Y-41000
X70500Y-42000
X70500Y-43000
X70500Y-44000
X70500Y-45000
X70500Y-46000
X70500Y-47000
X70500Y-48000
X70500Y-49000
X70500Y-50000
X71500Y-20500
X71500Y-23000
X72250Y-48000
X73000Y-51500
X73000Y-54500
X73500Y-41750
X73500Y-45250
X74500Y-50000
X75000Y-51500
X75000Y-54500
X75500Y-43500
X75500Y-46500
X75500Y-50000
X75750Y-48000
X76500Y-31500
X76500Y-32500
X76500Y-33500
X76500Y-34500
X76500Y-35500
X76500Y-36500
X76500Y-37500
X76500Y-43500
X76500Y-46500
T3
X72500Y-60000
X72500Y-61000
X73500Y-60000
X73500Y-61000
X74500Y-60000
X74500Y-61000
X75500Y-25500
X75500Y-26500
X75500Y-27500
T4
X36000Y-21500
X43500Y-60500
X69000Y-60500
X75000Y-21500
T0
M30
