G04 (created by PCBNEW (2013-jul-07)-stable) date Sun 06 Sep 2015 09:30:16 PM EDT*
%MOIN*%
G04 Gerber Fmt 3.4, Leading zero omitted, Abs format*
%FSLAX34Y34*%
G01*
G70*
G90*
G04 APERTURE LIST*
%ADD10C,0.00590551*%
%ADD11C,0.07*%
%ADD12R,0.07X0.07*%
%ADD13C,0.055*%
%ADD14R,0.055X0.055*%
%ADD15R,0.06X0.06*%
%ADD16C,0.06*%
%ADD17C,0.066*%
%ADD18C,0.401*%
%ADD19C,0.035*%
%ADD20C,0.01*%
G04 APERTURE END LIST*
G54D10*
G54D11*
X75500Y-27500D03*
X75500Y-26500D03*
G54D12*
X75500Y-25500D03*
G54D13*
X75000Y-54500D03*
X73000Y-54500D03*
X75000Y-51500D03*
X73000Y-51500D03*
X38500Y-60000D03*
X38500Y-62000D03*
X35500Y-60000D03*
X35500Y-62000D03*
G54D14*
X76500Y-37500D03*
G54D13*
X76500Y-36500D03*
X76500Y-35500D03*
X76500Y-34500D03*
X76500Y-33500D03*
X76500Y-32500D03*
X76500Y-31500D03*
G54D14*
X34500Y-33000D03*
G54D13*
X34500Y-32000D03*
X34500Y-31000D03*
X34500Y-30000D03*
X34500Y-29000D03*
X34500Y-28000D03*
X34500Y-27000D03*
X34500Y-26000D03*
X34500Y-25000D03*
X34500Y-24000D03*
G54D14*
X34500Y-38000D03*
G54D13*
X34500Y-39000D03*
X34500Y-40000D03*
X34500Y-41000D03*
X34500Y-42000D03*
X34500Y-43000D03*
X34500Y-44000D03*
X34500Y-45000D03*
X34500Y-46000D03*
X34500Y-47000D03*
X61500Y-19750D03*
X61500Y-23250D03*
X53000Y-49750D03*
X53000Y-46250D03*
X59500Y-19750D03*
X59500Y-23250D03*
X57500Y-19750D03*
X57500Y-23250D03*
X55500Y-19750D03*
X55500Y-23250D03*
X48000Y-56250D03*
X48000Y-52750D03*
X46000Y-56250D03*
X46000Y-52750D03*
X37000Y-56250D03*
X37000Y-52750D03*
X59000Y-49750D03*
X59000Y-46250D03*
X59000Y-52250D03*
X59000Y-55750D03*
X59000Y-57750D03*
X59000Y-61250D03*
X40250Y-46000D03*
X36750Y-46000D03*
X38500Y-56250D03*
X38500Y-52750D03*
X53500Y-19750D03*
X53500Y-23250D03*
X63500Y-19750D03*
X63500Y-23250D03*
X65500Y-19750D03*
X65500Y-23250D03*
X51500Y-19750D03*
X51500Y-23250D03*
X38750Y-24000D03*
X42250Y-24000D03*
X43750Y-25000D03*
X47250Y-25000D03*
X38750Y-26000D03*
X42250Y-26000D03*
X38750Y-28000D03*
X42250Y-28000D03*
X43750Y-29000D03*
X47250Y-29000D03*
X38750Y-30000D03*
X42250Y-30000D03*
X43750Y-31000D03*
X47250Y-31000D03*
X38750Y-32000D03*
X42250Y-32000D03*
X73500Y-41750D03*
X73500Y-45250D03*
X64000Y-52750D03*
X64000Y-56250D03*
X66500Y-56250D03*
X66500Y-52750D03*
X35250Y-58000D03*
X38750Y-58000D03*
X72250Y-48000D03*
X75750Y-48000D03*
X57000Y-34250D03*
X57000Y-37750D03*
X57000Y-44250D03*
X57000Y-40750D03*
X42500Y-37750D03*
X42500Y-34250D03*
X47000Y-37750D03*
X47000Y-34250D03*
X51000Y-34250D03*
X51000Y-37750D03*
X53000Y-37750D03*
X53000Y-34250D03*
X44500Y-56250D03*
X44500Y-52750D03*
X40250Y-39000D03*
X36750Y-39000D03*
X45500Y-37750D03*
X45500Y-34250D03*
X59000Y-40750D03*
X59000Y-44250D03*
X55000Y-37750D03*
X55000Y-34250D03*
X48500Y-37750D03*
X48500Y-34250D03*
X40250Y-40000D03*
X36750Y-40000D03*
X44000Y-37750D03*
X44000Y-34250D03*
X53000Y-44250D03*
X53000Y-40750D03*
X55000Y-40750D03*
X55000Y-44250D03*
X40250Y-41000D03*
X36750Y-41000D03*
X43000Y-56250D03*
X43000Y-52750D03*
X55000Y-49750D03*
X55000Y-46250D03*
X57000Y-57750D03*
X57000Y-61250D03*
X40250Y-45000D03*
X36750Y-45000D03*
X40000Y-56250D03*
X40000Y-52750D03*
X57000Y-49750D03*
X57000Y-46250D03*
X55000Y-52250D03*
X55000Y-55750D03*
X55000Y-57750D03*
X55000Y-61250D03*
X40250Y-44000D03*
X36750Y-44000D03*
X35500Y-56250D03*
X35500Y-52750D03*
X57000Y-52250D03*
X57000Y-55750D03*
X41500Y-56250D03*
X41500Y-52750D03*
X53000Y-52250D03*
X53000Y-55750D03*
X53000Y-57750D03*
X53000Y-61250D03*
X40250Y-43000D03*
X36750Y-43000D03*
X40250Y-38000D03*
X36750Y-38000D03*
G54D15*
X72500Y-61000D03*
G54D16*
X72500Y-60000D03*
X73500Y-61000D03*
X73500Y-60000D03*
X74500Y-61000D03*
X74500Y-60000D03*
G54D17*
X66500Y-57500D03*
X66500Y-58500D03*
X64000Y-57500D03*
X64000Y-58500D03*
G54D14*
X70500Y-50000D03*
G54D13*
X70500Y-49000D03*
X70500Y-48000D03*
X70500Y-47000D03*
X70500Y-46000D03*
X70500Y-45000D03*
X70500Y-44000D03*
X70500Y-43000D03*
X70500Y-42000D03*
X70500Y-41000D03*
X70500Y-40000D03*
X70500Y-39000D03*
X70500Y-38000D03*
X70500Y-37000D03*
X64500Y-37000D03*
X64500Y-38000D03*
X64500Y-39000D03*
X64500Y-40000D03*
X64500Y-41000D03*
X64500Y-42000D03*
X64500Y-43000D03*
X64500Y-44000D03*
X64500Y-45000D03*
X64500Y-46000D03*
X64500Y-47000D03*
X64500Y-48000D03*
X64500Y-49000D03*
X64500Y-50000D03*
G54D14*
X70500Y-32500D03*
G54D13*
X70500Y-31500D03*
X70500Y-30500D03*
X70500Y-29500D03*
X70500Y-28500D03*
X70500Y-27500D03*
X70500Y-26500D03*
X70500Y-25500D03*
X67500Y-25500D03*
X67500Y-26500D03*
X67500Y-27500D03*
X67500Y-28500D03*
X67500Y-29500D03*
X67500Y-30500D03*
X67500Y-31500D03*
X67500Y-32500D03*
G54D14*
X49000Y-40500D03*
G54D13*
X48000Y-40500D03*
X47000Y-40500D03*
X46000Y-40500D03*
X45000Y-40500D03*
X44000Y-40500D03*
X43000Y-40500D03*
X43000Y-43500D03*
X44000Y-43500D03*
X45000Y-43500D03*
X46000Y-43500D03*
X47000Y-43500D03*
X48000Y-43500D03*
X49000Y-43500D03*
G54D14*
X49000Y-47000D03*
G54D13*
X48000Y-47000D03*
X47000Y-47000D03*
X46000Y-47000D03*
X45000Y-47000D03*
X44000Y-47000D03*
X43000Y-47000D03*
X43000Y-50000D03*
X44000Y-50000D03*
X45000Y-50000D03*
X46000Y-50000D03*
X47000Y-50000D03*
X48000Y-50000D03*
X49000Y-50000D03*
G54D14*
X52500Y-20000D03*
G54D13*
X52500Y-23000D03*
G54D14*
X54500Y-20000D03*
G54D13*
X54500Y-23000D03*
G54D14*
X56500Y-20000D03*
G54D13*
X56500Y-23000D03*
G54D14*
X58500Y-20000D03*
G54D13*
X58500Y-23000D03*
G54D14*
X60500Y-20000D03*
G54D13*
X60500Y-23000D03*
G54D14*
X62500Y-20000D03*
G54D13*
X62500Y-23000D03*
G54D14*
X50500Y-20000D03*
G54D13*
X50500Y-23000D03*
G54D14*
X64500Y-20000D03*
G54D13*
X64500Y-23000D03*
G54D14*
X64500Y-25000D03*
G54D13*
X64500Y-28000D03*
G54D14*
X50500Y-25000D03*
G54D13*
X50500Y-28000D03*
G54D14*
X52500Y-25000D03*
G54D13*
X52500Y-28000D03*
G54D14*
X54500Y-25000D03*
G54D13*
X54500Y-28000D03*
G54D14*
X56500Y-25000D03*
G54D13*
X56500Y-28000D03*
G54D14*
X58500Y-25000D03*
G54D13*
X58500Y-28000D03*
G54D14*
X60500Y-25000D03*
G54D13*
X60500Y-28000D03*
G54D14*
X62500Y-25000D03*
G54D13*
X62500Y-28000D03*
X74500Y-50000D03*
X75500Y-50000D03*
X61000Y-60500D03*
X61000Y-59500D03*
X70500Y-23000D03*
X71500Y-23000D03*
X70500Y-20500D03*
X71500Y-20500D03*
X75500Y-46500D03*
X76500Y-46500D03*
X75500Y-43500D03*
X76500Y-43500D03*
G54D14*
X38500Y-20000D03*
G54D13*
X39500Y-20000D03*
X40500Y-20000D03*
X41500Y-20000D03*
X42500Y-20000D03*
G54D18*
X36000Y-21500D03*
X75000Y-21500D03*
X43500Y-60500D03*
X69000Y-60500D03*
G54D19*
X74500Y-35000D03*
X74500Y-40000D03*
X69000Y-24000D03*
X50000Y-59500D03*
X61000Y-57500D03*
X34500Y-57000D03*
X57500Y-29000D03*
X59500Y-30000D03*
X61500Y-31000D03*
X63500Y-32000D03*
X47000Y-51500D03*
X45500Y-51500D03*
X53000Y-50500D03*
X43500Y-49000D03*
X52500Y-56500D03*
X67000Y-34000D03*
X71000Y-34000D03*
X71500Y-54000D03*
X67500Y-35000D03*
X66000Y-35000D03*
X62500Y-54000D03*
X62500Y-58000D03*
X62500Y-60500D03*
X77500Y-40000D03*
X75000Y-40000D03*
X75000Y-38000D03*
X55000Y-48500D03*
X63000Y-40000D03*
X63000Y-42000D03*
X45000Y-38500D03*
X68500Y-33500D03*
X68500Y-43000D03*
G54D20*
X74500Y-40000D02*
X74500Y-35000D01*
X70500Y-27500D02*
X72500Y-27500D01*
X73500Y-25500D02*
X75500Y-25500D01*
X73000Y-26000D02*
X73500Y-25500D01*
X73000Y-27000D02*
X73000Y-26000D01*
X72500Y-27500D02*
X73000Y-27000D01*
X70000Y-20500D02*
X70500Y-20500D01*
X69000Y-21500D02*
X70000Y-20500D01*
X69000Y-24000D02*
X69000Y-21500D01*
X38500Y-20000D02*
X39500Y-20000D01*
X39500Y-20000D02*
X40000Y-19500D01*
X40000Y-19500D02*
X50000Y-19500D01*
X50000Y-19500D02*
X50500Y-20000D01*
X57000Y-44250D02*
X57000Y-44500D01*
X57000Y-44500D02*
X58000Y-45500D01*
X58000Y-45500D02*
X58000Y-48750D01*
X58000Y-48750D02*
X59000Y-49750D01*
X57000Y-49750D02*
X59000Y-49750D01*
X59000Y-49750D02*
X61875Y-52625D01*
X46250Y-56250D02*
X49500Y-59500D01*
X49500Y-59500D02*
X50000Y-59500D01*
X61000Y-57500D02*
X61875Y-56625D01*
X61875Y-56625D02*
X61875Y-52625D01*
X46000Y-56250D02*
X46250Y-56250D01*
X55000Y-40750D02*
X55000Y-42250D01*
X55000Y-42250D02*
X57000Y-44250D01*
X53000Y-37750D02*
X55000Y-37750D01*
X48500Y-37750D02*
X48750Y-37750D01*
X51750Y-36500D02*
X53000Y-37750D01*
X50000Y-36500D02*
X51750Y-36500D01*
X48750Y-37750D02*
X50000Y-36500D01*
X48500Y-37750D02*
X48500Y-38000D01*
X48500Y-38000D02*
X47000Y-39500D01*
X47000Y-39500D02*
X47000Y-40500D01*
X53000Y-49750D02*
X55000Y-49750D01*
X55000Y-49750D02*
X57000Y-49750D01*
X44500Y-56250D02*
X46000Y-56250D01*
X35500Y-56250D02*
X37000Y-56250D01*
X37000Y-56250D02*
X38500Y-56250D01*
X38500Y-56250D02*
X40000Y-56250D01*
X40000Y-56250D02*
X41500Y-56250D01*
X41500Y-56250D02*
X43000Y-56250D01*
X43000Y-56250D02*
X44500Y-56250D01*
X64500Y-19750D02*
X69750Y-19750D01*
X69750Y-19750D02*
X70500Y-20500D01*
X64500Y-20000D02*
X65250Y-20000D01*
X65250Y-20000D02*
X65500Y-19750D01*
X63500Y-19750D02*
X64250Y-19750D01*
X64250Y-19750D02*
X64500Y-20000D01*
X62500Y-20000D02*
X63250Y-20000D01*
X63250Y-20000D02*
X63500Y-19750D01*
X61500Y-19750D02*
X62250Y-19750D01*
X62250Y-19750D02*
X62500Y-20000D01*
X60500Y-20000D02*
X61250Y-20000D01*
X61250Y-20000D02*
X61500Y-19750D01*
X59500Y-19750D02*
X60250Y-19750D01*
X60250Y-19750D02*
X60500Y-20000D01*
X58500Y-20000D02*
X59250Y-20000D01*
X59250Y-20000D02*
X59500Y-19750D01*
X57500Y-19750D02*
X58250Y-19750D01*
X58250Y-19750D02*
X58500Y-20000D01*
X56500Y-20000D02*
X57250Y-20000D01*
X57250Y-20000D02*
X57500Y-19750D01*
X55500Y-19750D02*
X56250Y-19750D01*
X56250Y-19750D02*
X56500Y-20000D01*
X54500Y-20000D02*
X55250Y-20000D01*
X55250Y-20000D02*
X55500Y-19750D01*
X53500Y-19750D02*
X54250Y-19750D01*
X54250Y-19750D02*
X54500Y-20000D01*
X52500Y-20000D02*
X53250Y-20000D01*
X53250Y-20000D02*
X53500Y-19750D01*
X51500Y-19750D02*
X52250Y-19750D01*
X52250Y-19750D02*
X52500Y-20000D01*
X50500Y-20000D02*
X51250Y-20000D01*
X51250Y-20000D02*
X51500Y-19750D01*
X75500Y-26500D02*
X76500Y-26500D01*
X73000Y-24500D02*
X71500Y-23000D01*
X76500Y-24500D02*
X73000Y-24500D01*
X77000Y-25000D02*
X76500Y-24500D01*
X77000Y-26000D02*
X77000Y-25000D01*
X76500Y-26500D02*
X77000Y-26000D01*
X71500Y-21500D02*
X70000Y-21500D01*
X69500Y-24500D02*
X70500Y-25500D01*
X69500Y-22000D02*
X69500Y-24500D01*
X70000Y-21500D02*
X69500Y-22000D01*
X76500Y-29500D02*
X77000Y-29500D01*
X71000Y-29500D02*
X76500Y-29500D01*
X70500Y-29500D02*
X71000Y-29500D01*
X77500Y-30000D02*
X77500Y-37000D01*
X77000Y-29500D02*
X77500Y-30000D01*
X77500Y-37000D02*
X77000Y-37500D01*
X77000Y-37500D02*
X76500Y-37500D01*
X42500Y-20000D02*
X41500Y-20000D01*
X33500Y-42500D02*
X36000Y-42500D01*
X47000Y-44000D02*
X47000Y-43500D01*
X46000Y-45000D02*
X47000Y-44000D01*
X43500Y-45000D02*
X46000Y-45000D01*
X40500Y-42000D02*
X43500Y-45000D01*
X36500Y-42000D02*
X40500Y-42000D01*
X36000Y-42500D02*
X36500Y-42000D01*
X76500Y-37500D02*
X76500Y-43500D01*
X76500Y-37500D02*
X77000Y-37500D01*
X77000Y-37500D02*
X77500Y-37000D01*
X70500Y-28500D02*
X70500Y-29500D01*
X64500Y-28000D02*
X69000Y-28000D01*
X69500Y-28500D02*
X70500Y-28500D01*
X69000Y-28000D02*
X69500Y-28500D01*
X50500Y-28000D02*
X52500Y-28000D01*
X52500Y-28000D02*
X54500Y-28000D01*
X54500Y-28000D02*
X56500Y-28000D01*
X56500Y-28000D02*
X58500Y-28000D01*
X58500Y-28000D02*
X60500Y-28000D01*
X60500Y-28000D02*
X62500Y-28000D01*
X62500Y-28000D02*
X64500Y-28000D01*
X75500Y-50000D02*
X76500Y-49000D01*
X76500Y-49000D02*
X76500Y-46500D01*
X76500Y-46500D02*
X76500Y-43500D01*
X75000Y-54500D02*
X75000Y-51500D01*
X75000Y-51500D02*
X75500Y-51000D01*
X75500Y-51000D02*
X75500Y-50000D01*
X75000Y-54500D02*
X75000Y-58000D01*
X75500Y-61000D02*
X74500Y-61000D01*
X76000Y-60500D02*
X75500Y-61000D01*
X76000Y-59000D02*
X76000Y-60500D01*
X75000Y-58000D02*
X76000Y-59000D01*
X73500Y-61000D02*
X74500Y-61000D01*
X48000Y-52750D02*
X48000Y-52000D01*
X47000Y-51000D02*
X47000Y-50000D01*
X48000Y-52000D02*
X47000Y-51000D01*
X35500Y-62000D02*
X34500Y-61000D01*
X34500Y-61000D02*
X34500Y-57000D01*
X34500Y-57000D02*
X34500Y-47000D01*
X35500Y-62000D02*
X38500Y-62000D01*
X34500Y-47000D02*
X33500Y-47000D01*
X33500Y-33000D02*
X34500Y-33000D01*
X33500Y-42500D02*
X33500Y-33000D01*
X33500Y-47000D02*
X33500Y-42500D01*
X71500Y-20500D02*
X71500Y-21500D01*
X71500Y-21500D02*
X71500Y-22000D01*
X71500Y-22000D02*
X71500Y-23000D01*
X34500Y-24000D02*
X38750Y-24000D01*
X58500Y-23000D02*
X58500Y-25000D01*
X58500Y-23000D02*
X59250Y-23000D01*
X59250Y-23000D02*
X59500Y-23250D01*
X47250Y-29000D02*
X57500Y-29000D01*
X57500Y-29000D02*
X67000Y-29000D01*
X67000Y-29000D02*
X67500Y-28500D01*
X61500Y-23250D02*
X60750Y-23250D01*
X60750Y-23250D02*
X60500Y-23000D01*
X60500Y-23000D02*
X60500Y-25000D01*
X42250Y-30000D02*
X59500Y-30000D01*
X59500Y-30000D02*
X61500Y-30000D01*
X67000Y-30000D02*
X67500Y-29500D01*
X61500Y-30000D02*
X67000Y-30000D01*
X62500Y-23000D02*
X62500Y-25000D01*
X62500Y-23000D02*
X63250Y-23000D01*
X63250Y-23000D02*
X63500Y-23250D01*
X47250Y-31000D02*
X61500Y-31000D01*
X61500Y-31000D02*
X67000Y-31000D01*
X67000Y-31000D02*
X67500Y-30500D01*
X64500Y-23000D02*
X64500Y-25000D01*
X64500Y-23000D02*
X65250Y-23000D01*
X65250Y-23000D02*
X65500Y-23250D01*
X42250Y-32000D02*
X63500Y-32000D01*
X63500Y-32000D02*
X67000Y-32000D01*
X67000Y-32000D02*
X67500Y-31500D01*
X50500Y-23000D02*
X51250Y-23000D01*
X51250Y-23000D02*
X51500Y-23250D01*
X42250Y-24000D02*
X49500Y-24000D01*
X49500Y-24000D02*
X50500Y-23000D01*
X52500Y-25000D02*
X52500Y-23000D01*
X47250Y-25000D02*
X49000Y-25000D01*
X52750Y-24000D02*
X53500Y-23250D01*
X50000Y-24000D02*
X52750Y-24000D01*
X49000Y-25000D02*
X50000Y-24000D01*
X53500Y-23250D02*
X52750Y-23250D01*
X52750Y-23250D02*
X52500Y-23000D01*
X54500Y-25000D02*
X54500Y-26000D01*
X54500Y-23000D02*
X54500Y-25000D01*
X55500Y-23250D02*
X54750Y-23250D01*
X54750Y-23250D02*
X54500Y-23000D01*
X42250Y-26000D02*
X54500Y-26000D01*
X54500Y-26000D02*
X67000Y-26000D01*
X67000Y-26000D02*
X67500Y-26500D01*
X53000Y-55750D02*
X52750Y-55750D01*
X47500Y-49500D02*
X45000Y-47000D01*
X47500Y-50500D02*
X47500Y-49500D01*
X52750Y-55750D02*
X47500Y-50500D01*
X53000Y-57750D02*
X53000Y-55750D01*
X40250Y-46000D02*
X40500Y-46000D01*
X42500Y-50000D02*
X43000Y-50000D01*
X41500Y-49000D02*
X42500Y-50000D01*
X41500Y-47000D02*
X41500Y-49000D01*
X40500Y-46000D02*
X41500Y-47000D01*
X45500Y-51500D02*
X47000Y-51500D01*
X59000Y-55750D02*
X59000Y-57750D01*
X34500Y-25000D02*
X43750Y-25000D01*
X57250Y-55750D02*
X57000Y-55750D01*
X60000Y-53000D02*
X57250Y-55750D01*
X60000Y-52000D02*
X60000Y-53000D01*
X58500Y-50500D02*
X60000Y-52000D01*
X53000Y-50500D02*
X58500Y-50500D01*
X57000Y-57750D02*
X57000Y-55750D01*
X40250Y-41000D02*
X40500Y-41000D01*
X40500Y-41000D02*
X43000Y-43500D01*
X40250Y-43000D02*
X41000Y-43000D01*
X44500Y-45500D02*
X46000Y-47000D01*
X43500Y-45500D02*
X44500Y-45500D01*
X41000Y-43000D02*
X43500Y-45500D01*
X40250Y-44000D02*
X41000Y-44000D01*
X41000Y-44000D02*
X44000Y-47000D01*
X43500Y-49000D02*
X43500Y-50500D01*
X43500Y-50500D02*
X43500Y-51000D01*
X43500Y-51000D02*
X44500Y-52000D01*
X44500Y-52000D02*
X46500Y-52000D01*
X46500Y-52000D02*
X51000Y-56500D01*
X51000Y-56500D02*
X52500Y-56500D01*
X55000Y-55750D02*
X55000Y-57750D01*
X40250Y-45000D02*
X40500Y-45000D01*
X45000Y-48500D02*
X45000Y-50000D01*
X43000Y-48500D02*
X45000Y-48500D01*
X42000Y-47500D02*
X43000Y-48500D01*
X42000Y-46500D02*
X42000Y-47500D01*
X40500Y-45000D02*
X42000Y-46500D01*
X73000Y-51500D02*
X73000Y-50000D01*
X71000Y-47000D02*
X70500Y-47000D01*
X71500Y-47500D02*
X71000Y-47000D01*
X71500Y-48500D02*
X71500Y-47500D01*
X73000Y-50000D02*
X71500Y-48500D01*
X72500Y-60000D02*
X72500Y-55000D01*
X72500Y-55000D02*
X73000Y-54500D01*
X73000Y-54500D02*
X73000Y-51500D01*
X73000Y-51500D02*
X74500Y-50000D01*
X72250Y-48000D02*
X72250Y-47250D01*
X69500Y-45000D02*
X70500Y-44000D01*
X69500Y-46000D02*
X69500Y-45000D01*
X70000Y-46500D02*
X69500Y-46000D01*
X71500Y-46500D02*
X70000Y-46500D01*
X72250Y-47250D02*
X71500Y-46500D01*
X64000Y-56250D02*
X64000Y-57500D01*
X38750Y-26000D02*
X34500Y-26000D01*
X66500Y-56250D02*
X66500Y-57500D01*
X64000Y-58500D02*
X65000Y-57500D01*
X63500Y-47000D02*
X64500Y-47000D01*
X63000Y-47500D02*
X63500Y-47000D01*
X63000Y-50500D02*
X63000Y-47500D01*
X63500Y-51000D02*
X63000Y-50500D01*
X64500Y-51000D02*
X63500Y-51000D01*
X65000Y-51500D02*
X64500Y-51000D01*
X65000Y-57500D02*
X65000Y-51500D01*
X66500Y-58500D02*
X65500Y-57500D01*
X65000Y-46000D02*
X64500Y-46000D01*
X65500Y-46500D02*
X65000Y-46000D01*
X65500Y-57500D02*
X65500Y-46500D01*
X71000Y-34000D02*
X67000Y-34000D01*
X34500Y-28000D02*
X38750Y-28000D01*
X75500Y-46500D02*
X75500Y-47750D01*
X75500Y-47750D02*
X75750Y-48000D01*
X73500Y-45250D02*
X74250Y-45250D01*
X74250Y-45250D02*
X75500Y-46500D01*
X76500Y-31500D02*
X75500Y-31500D01*
X71500Y-40000D02*
X70500Y-40000D01*
X73000Y-38500D02*
X71500Y-40000D01*
X73000Y-34000D02*
X73000Y-38500D01*
X75500Y-31500D02*
X73000Y-34000D01*
X76500Y-32500D02*
X75500Y-32500D01*
X71500Y-41000D02*
X70500Y-41000D01*
X73500Y-39000D02*
X71500Y-41000D01*
X73500Y-34500D02*
X73500Y-39000D01*
X75500Y-32500D02*
X73500Y-34500D01*
X76500Y-33500D02*
X75500Y-33500D01*
X71500Y-42000D02*
X70500Y-42000D01*
X74000Y-39500D02*
X71500Y-42000D01*
X74000Y-35000D02*
X74000Y-39500D01*
X75500Y-33500D02*
X74000Y-35000D01*
X66000Y-42000D02*
X64500Y-42000D01*
X67500Y-43500D02*
X66000Y-42000D01*
X67500Y-48000D02*
X67500Y-43500D01*
X69000Y-49500D02*
X67500Y-48000D01*
X69000Y-51500D02*
X69000Y-49500D01*
X71500Y-54000D02*
X69000Y-51500D01*
X53000Y-46250D02*
X52250Y-46250D01*
X71500Y-37000D02*
X70500Y-37000D01*
X72000Y-36500D02*
X71500Y-37000D01*
X72000Y-35500D02*
X72000Y-36500D01*
X71500Y-35000D02*
X72000Y-35500D01*
X67500Y-35000D02*
X71500Y-35000D01*
X61500Y-35000D02*
X66000Y-35000D01*
X58000Y-38500D02*
X61500Y-35000D01*
X53500Y-38500D02*
X58000Y-38500D01*
X50500Y-41500D02*
X53500Y-38500D01*
X50500Y-44500D02*
X50500Y-41500D01*
X52250Y-46250D02*
X50500Y-44500D01*
X57000Y-52250D02*
X57000Y-52000D01*
X48000Y-50500D02*
X48000Y-50000D01*
X49000Y-51500D02*
X48000Y-50500D01*
X50000Y-51500D02*
X49000Y-51500D01*
X56500Y-51500D02*
X50000Y-51500D01*
X57000Y-52000D02*
X56500Y-51500D01*
X53000Y-46250D02*
X53000Y-47500D01*
X49000Y-49000D02*
X48000Y-50000D01*
X51500Y-49000D02*
X49000Y-49000D01*
X53000Y-47500D02*
X51500Y-49000D01*
X38500Y-52750D02*
X38500Y-46750D01*
X38500Y-46750D02*
X36750Y-45000D01*
X34500Y-45000D02*
X36750Y-45000D01*
X34500Y-29000D02*
X43750Y-29000D01*
X62500Y-58000D02*
X62500Y-54000D01*
X62500Y-61500D02*
X62500Y-60500D01*
X64000Y-63000D02*
X62500Y-61500D01*
X77500Y-63000D02*
X64000Y-63000D01*
X77500Y-40000D02*
X77500Y-63000D01*
X75000Y-38000D02*
X75000Y-40000D01*
X49000Y-50000D02*
X51500Y-50000D01*
X59000Y-52000D02*
X59000Y-52250D01*
X58000Y-51000D02*
X59000Y-52000D01*
X52500Y-51000D02*
X58000Y-51000D01*
X51500Y-50000D02*
X52500Y-51000D01*
X55000Y-46250D02*
X55000Y-46000D01*
X55000Y-46000D02*
X54500Y-45500D01*
X54500Y-45500D02*
X52500Y-45500D01*
X52500Y-45500D02*
X51500Y-44500D01*
X51500Y-44500D02*
X51500Y-41000D01*
X51500Y-41000D02*
X53000Y-39500D01*
X53000Y-39500D02*
X59000Y-39500D01*
X59000Y-39500D02*
X60500Y-38000D01*
X60500Y-38000D02*
X64500Y-38000D01*
X55000Y-48500D02*
X55000Y-46250D01*
X34500Y-43000D02*
X36750Y-43000D01*
X63000Y-42000D02*
X63000Y-40000D01*
X37000Y-52750D02*
X37000Y-46250D01*
X37000Y-46250D02*
X36750Y-46000D01*
X34500Y-46000D02*
X36750Y-46000D01*
X40000Y-52750D02*
X40000Y-47250D01*
X40000Y-47250D02*
X36750Y-44000D01*
X34500Y-44000D02*
X36750Y-44000D01*
X34500Y-30000D02*
X38750Y-30000D01*
X40250Y-38000D02*
X40500Y-38000D01*
X44000Y-38500D02*
X46000Y-40500D01*
X41000Y-38500D02*
X44000Y-38500D01*
X40500Y-38000D02*
X41000Y-38500D01*
X47000Y-38500D02*
X47000Y-37750D01*
X45000Y-38500D02*
X47000Y-38500D01*
X70500Y-48000D02*
X70000Y-48000D01*
X53000Y-33500D02*
X53000Y-34250D01*
X68500Y-33500D02*
X53000Y-33500D01*
X68500Y-46500D02*
X68500Y-43000D01*
X70000Y-48000D02*
X68500Y-46500D01*
X51000Y-34250D02*
X53000Y-34250D01*
X34500Y-38000D02*
X36750Y-38000D01*
X40250Y-39000D02*
X42500Y-39000D01*
X42500Y-39000D02*
X44000Y-40500D01*
X45500Y-37750D02*
X45750Y-37750D01*
X55250Y-36000D02*
X57000Y-37750D01*
X47500Y-36000D02*
X55250Y-36000D01*
X45750Y-37750D02*
X47500Y-36000D01*
X34500Y-31000D02*
X43750Y-31000D01*
X34500Y-41000D02*
X36750Y-41000D01*
X59000Y-40750D02*
X59750Y-40750D01*
X61500Y-39000D02*
X64500Y-39000D01*
X59750Y-40750D02*
X61500Y-39000D01*
X57000Y-40750D02*
X59000Y-40750D01*
X57000Y-34250D02*
X66250Y-34250D01*
X69500Y-49000D02*
X70500Y-49000D01*
X68000Y-47500D02*
X69500Y-49000D01*
X68000Y-36000D02*
X68000Y-47500D01*
X66250Y-34250D02*
X68000Y-36000D01*
X55000Y-34250D02*
X57000Y-34250D01*
X36750Y-39000D02*
X37500Y-39000D01*
X47750Y-33500D02*
X48500Y-34250D01*
X41000Y-33500D02*
X47750Y-33500D01*
X39500Y-35000D02*
X41000Y-33500D01*
X39500Y-37000D02*
X39500Y-35000D01*
X37500Y-39000D02*
X39500Y-37000D01*
X36750Y-39000D02*
X34500Y-39000D01*
X40250Y-40000D02*
X41500Y-40000D01*
X41500Y-40000D02*
X45000Y-43500D01*
X42500Y-34250D02*
X44000Y-34250D01*
X44000Y-34250D02*
X45500Y-34250D01*
X45500Y-34250D02*
X47000Y-34250D01*
X48000Y-56250D02*
X48000Y-54750D01*
X48000Y-54750D02*
X46000Y-52750D01*
X48000Y-56250D02*
X53000Y-61250D01*
X53000Y-61250D02*
X55000Y-61250D01*
X55000Y-61250D02*
X57000Y-61250D01*
X57000Y-61250D02*
X59000Y-61250D01*
X59000Y-61250D02*
X59750Y-60500D01*
X59750Y-60500D02*
X61000Y-60500D01*
X38750Y-32000D02*
X34500Y-32000D01*
X53000Y-44250D02*
X55000Y-44250D01*
X34500Y-40000D02*
X36750Y-40000D01*
X73500Y-41750D02*
X74750Y-41750D01*
X75500Y-42500D02*
X75500Y-43500D01*
X74750Y-41750D02*
X75500Y-42500D01*
X70500Y-45000D02*
X72000Y-45000D01*
X73500Y-43500D02*
X73500Y-41750D01*
X72000Y-45000D02*
X73500Y-43500D01*
X35500Y-60000D02*
X38500Y-60000D01*
X38500Y-60000D02*
X38750Y-59750D01*
X38750Y-59750D02*
X38750Y-58000D01*
X56500Y-23000D02*
X56500Y-22500D01*
X68500Y-26500D02*
X67500Y-27500D01*
X68500Y-24000D02*
X68500Y-26500D01*
X66500Y-22000D02*
X68500Y-24000D01*
X57000Y-22000D02*
X66500Y-22000D01*
X56500Y-22500D02*
X57000Y-22000D01*
X56500Y-23000D02*
X56500Y-25000D01*
X56500Y-23000D02*
X57250Y-23000D01*
X57250Y-23000D02*
X57500Y-23250D01*
X42250Y-28000D02*
X48000Y-28000D01*
X48000Y-28000D02*
X48500Y-27500D01*
X48500Y-27500D02*
X67500Y-27500D01*
G54D10*
G36*
X52582Y-56075D02*
X52415Y-56074D01*
X52259Y-56139D01*
X52198Y-56200D01*
X51124Y-56200D01*
X48728Y-53804D01*
X48728Y-52873D01*
X48720Y-52585D01*
X48626Y-52356D01*
X48477Y-52343D01*
X48406Y-52414D01*
X48406Y-52272D01*
X48393Y-52123D01*
X48123Y-52021D01*
X47835Y-52029D01*
X47606Y-52123D01*
X47593Y-52272D01*
X48000Y-52679D01*
X48406Y-52272D01*
X48406Y-52414D01*
X48070Y-52750D01*
X48477Y-53156D01*
X48626Y-53143D01*
X48728Y-52873D01*
X48728Y-53804D01*
X48327Y-53403D01*
X48393Y-53376D01*
X48406Y-53227D01*
X48000Y-52820D01*
X47994Y-52826D01*
X47923Y-52755D01*
X47929Y-52750D01*
X47522Y-52343D01*
X47373Y-52356D01*
X47348Y-52424D01*
X46802Y-51878D01*
X46915Y-51924D01*
X47084Y-51925D01*
X47240Y-51860D01*
X47360Y-51741D01*
X47424Y-51584D01*
X47425Y-51415D01*
X47360Y-51259D01*
X47241Y-51139D01*
X47084Y-51075D01*
X46915Y-51074D01*
X46759Y-51139D01*
X46698Y-51200D01*
X45801Y-51200D01*
X45741Y-51139D01*
X45584Y-51075D01*
X45415Y-51074D01*
X45259Y-51139D01*
X45139Y-51258D01*
X45075Y-51415D01*
X45074Y-51584D01*
X45122Y-51700D01*
X44624Y-51700D01*
X43800Y-50875D01*
X43800Y-50500D01*
X43800Y-50485D01*
X43895Y-50524D01*
X44103Y-50525D01*
X44297Y-50445D01*
X44444Y-50297D01*
X44500Y-50164D01*
X44554Y-50297D01*
X44702Y-50444D01*
X44895Y-50524D01*
X45103Y-50525D01*
X45297Y-50445D01*
X45444Y-50297D01*
X45500Y-50164D01*
X45554Y-50297D01*
X45702Y-50444D01*
X45895Y-50524D01*
X46103Y-50525D01*
X46297Y-50445D01*
X46366Y-50375D01*
X46373Y-50393D01*
X46522Y-50406D01*
X46929Y-50000D01*
X46522Y-49593D01*
X46373Y-49606D01*
X46367Y-49624D01*
X46297Y-49555D01*
X46104Y-49475D01*
X45896Y-49474D01*
X45703Y-49554D01*
X45555Y-49702D01*
X45499Y-49835D01*
X45445Y-49703D01*
X45300Y-49557D01*
X45300Y-48500D01*
X45277Y-48385D01*
X45212Y-48287D01*
X45114Y-48222D01*
X45000Y-48200D01*
X43124Y-48200D01*
X42300Y-47375D01*
X42300Y-46500D01*
X42277Y-46385D01*
X42212Y-46287D01*
X42212Y-46287D01*
X40743Y-44818D01*
X40695Y-44703D01*
X40547Y-44555D01*
X40414Y-44499D01*
X40547Y-44445D01*
X40692Y-44300D01*
X40875Y-44300D01*
X43050Y-46475D01*
X42896Y-46474D01*
X42703Y-46554D01*
X42555Y-46702D01*
X42475Y-46895D01*
X42474Y-47103D01*
X42554Y-47297D01*
X42702Y-47444D01*
X42895Y-47524D01*
X43103Y-47525D01*
X43297Y-47445D01*
X43444Y-47297D01*
X43500Y-47164D01*
X43554Y-47297D01*
X43702Y-47444D01*
X43895Y-47524D01*
X44103Y-47525D01*
X44297Y-47445D01*
X44444Y-47297D01*
X44500Y-47164D01*
X44554Y-47297D01*
X44702Y-47444D01*
X44895Y-47524D01*
X45100Y-47525D01*
X46854Y-49278D01*
X46835Y-49279D01*
X46606Y-49373D01*
X46593Y-49522D01*
X47000Y-49929D01*
X47005Y-49923D01*
X47076Y-49994D01*
X47070Y-50000D01*
X47076Y-50005D01*
X47005Y-50076D01*
X47000Y-50070D01*
X46593Y-50477D01*
X46606Y-50626D01*
X46876Y-50728D01*
X47164Y-50720D01*
X47265Y-50678D01*
X47287Y-50712D01*
X52506Y-55931D01*
X52554Y-56047D01*
X52582Y-56075D01*
X52582Y-56075D01*
G37*
G54D20*
X52582Y-56075D02*
X52415Y-56074D01*
X52259Y-56139D01*
X52198Y-56200D01*
X51124Y-56200D01*
X48728Y-53804D01*
X48728Y-52873D01*
X48720Y-52585D01*
X48626Y-52356D01*
X48477Y-52343D01*
X48406Y-52414D01*
X48406Y-52272D01*
X48393Y-52123D01*
X48123Y-52021D01*
X47835Y-52029D01*
X47606Y-52123D01*
X47593Y-52272D01*
X48000Y-52679D01*
X48406Y-52272D01*
X48406Y-52414D01*
X48070Y-52750D01*
X48477Y-53156D01*
X48626Y-53143D01*
X48728Y-52873D01*
X48728Y-53804D01*
X48327Y-53403D01*
X48393Y-53376D01*
X48406Y-53227D01*
X48000Y-52820D01*
X47994Y-52826D01*
X47923Y-52755D01*
X47929Y-52750D01*
X47522Y-52343D01*
X47373Y-52356D01*
X47348Y-52424D01*
X46802Y-51878D01*
X46915Y-51924D01*
X47084Y-51925D01*
X47240Y-51860D01*
X47360Y-51741D01*
X47424Y-51584D01*
X47425Y-51415D01*
X47360Y-51259D01*
X47241Y-51139D01*
X47084Y-51075D01*
X46915Y-51074D01*
X46759Y-51139D01*
X46698Y-51200D01*
X45801Y-51200D01*
X45741Y-51139D01*
X45584Y-51075D01*
X45415Y-51074D01*
X45259Y-51139D01*
X45139Y-51258D01*
X45075Y-51415D01*
X45074Y-51584D01*
X45122Y-51700D01*
X44624Y-51700D01*
X43800Y-50875D01*
X43800Y-50500D01*
X43800Y-50485D01*
X43895Y-50524D01*
X44103Y-50525D01*
X44297Y-50445D01*
X44444Y-50297D01*
X44500Y-50164D01*
X44554Y-50297D01*
X44702Y-50444D01*
X44895Y-50524D01*
X45103Y-50525D01*
X45297Y-50445D01*
X45444Y-50297D01*
X45500Y-50164D01*
X45554Y-50297D01*
X45702Y-50444D01*
X45895Y-50524D01*
X46103Y-50525D01*
X46297Y-50445D01*
X46366Y-50375D01*
X46373Y-50393D01*
X46522Y-50406D01*
X46929Y-50000D01*
X46522Y-49593D01*
X46373Y-49606D01*
X46367Y-49624D01*
X46297Y-49555D01*
X46104Y-49475D01*
X45896Y-49474D01*
X45703Y-49554D01*
X45555Y-49702D01*
X45499Y-49835D01*
X45445Y-49703D01*
X45300Y-49557D01*
X45300Y-48500D01*
X45277Y-48385D01*
X45212Y-48287D01*
X45114Y-48222D01*
X45000Y-48200D01*
X43124Y-48200D01*
X42300Y-47375D01*
X42300Y-46500D01*
X42277Y-46385D01*
X42212Y-46287D01*
X42212Y-46287D01*
X40743Y-44818D01*
X40695Y-44703D01*
X40547Y-44555D01*
X40414Y-44499D01*
X40547Y-44445D01*
X40692Y-44300D01*
X40875Y-44300D01*
X43050Y-46475D01*
X42896Y-46474D01*
X42703Y-46554D01*
X42555Y-46702D01*
X42475Y-46895D01*
X42474Y-47103D01*
X42554Y-47297D01*
X42702Y-47444D01*
X42895Y-47524D01*
X43103Y-47525D01*
X43297Y-47445D01*
X43444Y-47297D01*
X43500Y-47164D01*
X43554Y-47297D01*
X43702Y-47444D01*
X43895Y-47524D01*
X44103Y-47525D01*
X44297Y-47445D01*
X44444Y-47297D01*
X44500Y-47164D01*
X44554Y-47297D01*
X44702Y-47444D01*
X44895Y-47524D01*
X45100Y-47525D01*
X46854Y-49278D01*
X46835Y-49279D01*
X46606Y-49373D01*
X46593Y-49522D01*
X47000Y-49929D01*
X47005Y-49923D01*
X47076Y-49994D01*
X47070Y-50000D01*
X47076Y-50005D01*
X47005Y-50076D01*
X47000Y-50070D01*
X46593Y-50477D01*
X46606Y-50626D01*
X46876Y-50728D01*
X47164Y-50720D01*
X47265Y-50678D01*
X47287Y-50712D01*
X52506Y-55931D01*
X52554Y-56047D01*
X52582Y-56075D01*
G54D10*
G36*
X77730Y-39635D02*
X77584Y-39575D01*
X77415Y-39574D01*
X77259Y-39639D01*
X77255Y-39643D01*
X77255Y-21053D01*
X76912Y-20224D01*
X76279Y-19589D01*
X75450Y-19245D01*
X74553Y-19244D01*
X73724Y-19587D01*
X73089Y-20220D01*
X72745Y-21049D01*
X72744Y-21946D01*
X73087Y-22775D01*
X73720Y-23410D01*
X74549Y-23754D01*
X75446Y-23755D01*
X76275Y-23412D01*
X76910Y-22779D01*
X77254Y-21950D01*
X77255Y-21053D01*
X77255Y-39643D01*
X77225Y-39673D01*
X77225Y-37864D01*
X77225Y-37135D01*
X77156Y-36970D01*
X77030Y-36843D01*
X76937Y-36805D01*
X76944Y-36797D01*
X77024Y-36604D01*
X77025Y-36396D01*
X76945Y-36203D01*
X76797Y-36055D01*
X76664Y-35999D01*
X76797Y-35945D01*
X76944Y-35797D01*
X77024Y-35604D01*
X77025Y-35396D01*
X76945Y-35203D01*
X76797Y-35055D01*
X76664Y-34999D01*
X76797Y-34945D01*
X76944Y-34797D01*
X77024Y-34604D01*
X77025Y-34396D01*
X76945Y-34203D01*
X76797Y-34055D01*
X76664Y-33999D01*
X76797Y-33945D01*
X76944Y-33797D01*
X77024Y-33604D01*
X77025Y-33396D01*
X76945Y-33203D01*
X76797Y-33055D01*
X76664Y-32999D01*
X76797Y-32945D01*
X76944Y-32797D01*
X77024Y-32604D01*
X77025Y-32396D01*
X76945Y-32203D01*
X76797Y-32055D01*
X76664Y-31999D01*
X76797Y-31945D01*
X76944Y-31797D01*
X77024Y-31604D01*
X77025Y-31396D01*
X76945Y-31203D01*
X76797Y-31055D01*
X76604Y-30975D01*
X76396Y-30974D01*
X76303Y-31013D01*
X76303Y-26641D01*
X76296Y-26323D01*
X76188Y-26061D01*
X76100Y-26049D01*
X76031Y-26039D01*
X76100Y-25970D01*
X76111Y-25959D01*
X76100Y-25947D01*
X76085Y-25933D01*
X76099Y-25899D01*
X76100Y-25800D01*
X76100Y-25100D01*
X76062Y-25008D01*
X75991Y-24938D01*
X75899Y-24900D01*
X75800Y-24899D01*
X75100Y-24899D01*
X75008Y-24937D01*
X74938Y-25008D01*
X74900Y-25100D01*
X74899Y-25199D01*
X74899Y-25200D01*
X73500Y-25200D01*
X73385Y-25222D01*
X73287Y-25287D01*
X72787Y-25787D01*
X72722Y-25885D01*
X72700Y-26000D01*
X72700Y-26875D01*
X72375Y-27200D01*
X72228Y-27200D01*
X72228Y-23123D01*
X72228Y-20623D01*
X72220Y-20335D01*
X72126Y-20106D01*
X71977Y-20093D01*
X71906Y-20164D01*
X71906Y-20022D01*
X71893Y-19873D01*
X71623Y-19771D01*
X71335Y-19779D01*
X71106Y-19873D01*
X71093Y-20022D01*
X71500Y-20429D01*
X71906Y-20022D01*
X71906Y-20164D01*
X71570Y-20500D01*
X71977Y-20906D01*
X72126Y-20893D01*
X72228Y-20623D01*
X72228Y-23123D01*
X72220Y-22835D01*
X72126Y-22606D01*
X71977Y-22593D01*
X71906Y-22664D01*
X71906Y-22522D01*
X71906Y-20977D01*
X71500Y-20570D01*
X71429Y-20641D01*
X71429Y-20500D01*
X71022Y-20093D01*
X70873Y-20106D01*
X70867Y-20124D01*
X70797Y-20055D01*
X70604Y-19975D01*
X70399Y-19974D01*
X69962Y-19537D01*
X69864Y-19472D01*
X69750Y-19450D01*
X65942Y-19450D01*
X65797Y-19305D01*
X65604Y-19225D01*
X65396Y-19224D01*
X65203Y-19304D01*
X65057Y-19450D01*
X64500Y-19450D01*
X64385Y-19472D01*
X64382Y-19474D01*
X64367Y-19474D01*
X64364Y-19472D01*
X64250Y-19450D01*
X63942Y-19450D01*
X63797Y-19305D01*
X63604Y-19225D01*
X63396Y-19224D01*
X63203Y-19304D01*
X63055Y-19452D01*
X62993Y-19599D01*
X62987Y-19583D01*
X62916Y-19513D01*
X62824Y-19475D01*
X62725Y-19474D01*
X62367Y-19474D01*
X62364Y-19472D01*
X62250Y-19450D01*
X61942Y-19450D01*
X61797Y-19305D01*
X61604Y-19225D01*
X61396Y-19224D01*
X61203Y-19304D01*
X61055Y-19452D01*
X60993Y-19599D01*
X60987Y-19583D01*
X60916Y-19513D01*
X60824Y-19475D01*
X60725Y-19474D01*
X60367Y-19474D01*
X60364Y-19472D01*
X60250Y-19450D01*
X59942Y-19450D01*
X59797Y-19305D01*
X59604Y-19225D01*
X59396Y-19224D01*
X59203Y-19304D01*
X59055Y-19452D01*
X58993Y-19599D01*
X58987Y-19583D01*
X58916Y-19513D01*
X58824Y-19475D01*
X58725Y-19474D01*
X58367Y-19474D01*
X58364Y-19472D01*
X58250Y-19450D01*
X57942Y-19450D01*
X57797Y-19305D01*
X57604Y-19225D01*
X57396Y-19224D01*
X57203Y-19304D01*
X57055Y-19452D01*
X56993Y-19599D01*
X56987Y-19583D01*
X56916Y-19513D01*
X56824Y-19475D01*
X56725Y-19474D01*
X56367Y-19474D01*
X56364Y-19472D01*
X56250Y-19450D01*
X55942Y-19450D01*
X55797Y-19305D01*
X55604Y-19225D01*
X55396Y-19224D01*
X55203Y-19304D01*
X55055Y-19452D01*
X54993Y-19599D01*
X54987Y-19583D01*
X54916Y-19513D01*
X54824Y-19475D01*
X54725Y-19474D01*
X54367Y-19474D01*
X54364Y-19472D01*
X54250Y-19450D01*
X53942Y-19450D01*
X53797Y-19305D01*
X53604Y-19225D01*
X53396Y-19224D01*
X53203Y-19304D01*
X53055Y-19452D01*
X52993Y-19599D01*
X52987Y-19583D01*
X52916Y-19513D01*
X52824Y-19475D01*
X52725Y-19474D01*
X52367Y-19474D01*
X52364Y-19472D01*
X52250Y-19450D01*
X51942Y-19450D01*
X51797Y-19305D01*
X51604Y-19225D01*
X51396Y-19224D01*
X51203Y-19304D01*
X51055Y-19452D01*
X50993Y-19599D01*
X50987Y-19583D01*
X50916Y-19513D01*
X50824Y-19475D01*
X50725Y-19474D01*
X50399Y-19474D01*
X50212Y-19287D01*
X50114Y-19222D01*
X50000Y-19200D01*
X40000Y-19200D01*
X39885Y-19222D01*
X39787Y-19287D01*
X39600Y-19475D01*
X39396Y-19474D01*
X39203Y-19554D01*
X39057Y-19700D01*
X39025Y-19700D01*
X39025Y-19675D01*
X38987Y-19583D01*
X38916Y-19513D01*
X38824Y-19475D01*
X38725Y-19474D01*
X38175Y-19474D01*
X38083Y-19512D01*
X38013Y-19583D01*
X37975Y-19675D01*
X37974Y-19774D01*
X37974Y-20324D01*
X38012Y-20416D01*
X38083Y-20486D01*
X38175Y-20524D01*
X38274Y-20525D01*
X38824Y-20525D01*
X38916Y-20487D01*
X38986Y-20416D01*
X39024Y-20324D01*
X39024Y-20300D01*
X39057Y-20300D01*
X39202Y-20444D01*
X39395Y-20524D01*
X39603Y-20525D01*
X39797Y-20445D01*
X39944Y-20297D01*
X40000Y-20164D01*
X40054Y-20297D01*
X40202Y-20444D01*
X40395Y-20524D01*
X40603Y-20525D01*
X40797Y-20445D01*
X40866Y-20375D01*
X40873Y-20393D01*
X41022Y-20406D01*
X41429Y-20000D01*
X41423Y-19994D01*
X41494Y-19923D01*
X41500Y-19929D01*
X41505Y-19923D01*
X41576Y-19994D01*
X41570Y-20000D01*
X41810Y-20239D01*
X41873Y-20393D01*
X41972Y-20401D01*
X41977Y-20406D01*
X42000Y-20404D01*
X42022Y-20406D01*
X42027Y-20401D01*
X42126Y-20393D01*
X42181Y-20247D01*
X42429Y-20000D01*
X42423Y-19994D01*
X42494Y-19923D01*
X42500Y-19929D01*
X42505Y-19923D01*
X42576Y-19994D01*
X42570Y-20000D01*
X42977Y-20406D01*
X43126Y-20393D01*
X43228Y-20123D01*
X43220Y-19835D01*
X43206Y-19800D01*
X49875Y-19800D01*
X49974Y-19899D01*
X49974Y-20324D01*
X50012Y-20416D01*
X50083Y-20486D01*
X50175Y-20524D01*
X50274Y-20525D01*
X50824Y-20525D01*
X50916Y-20487D01*
X50986Y-20416D01*
X51024Y-20324D01*
X51024Y-20300D01*
X51250Y-20300D01*
X51250Y-20299D01*
X51364Y-20277D01*
X51364Y-20277D01*
X51378Y-20268D01*
X51378Y-20268D01*
X51395Y-20274D01*
X51603Y-20275D01*
X51797Y-20195D01*
X51942Y-20050D01*
X51974Y-20050D01*
X51974Y-20324D01*
X52012Y-20416D01*
X52083Y-20486D01*
X52175Y-20524D01*
X52274Y-20525D01*
X52824Y-20525D01*
X52916Y-20487D01*
X52986Y-20416D01*
X53024Y-20324D01*
X53024Y-20300D01*
X53250Y-20300D01*
X53250Y-20299D01*
X53364Y-20277D01*
X53364Y-20277D01*
X53378Y-20268D01*
X53378Y-20268D01*
X53395Y-20274D01*
X53603Y-20275D01*
X53797Y-20195D01*
X53942Y-20050D01*
X53974Y-20050D01*
X53974Y-20324D01*
X54012Y-20416D01*
X54083Y-20486D01*
X54175Y-20524D01*
X54274Y-20525D01*
X54824Y-20525D01*
X54916Y-20487D01*
X54986Y-20416D01*
X55024Y-20324D01*
X55024Y-20300D01*
X55250Y-20300D01*
X55250Y-20299D01*
X55364Y-20277D01*
X55364Y-20277D01*
X55378Y-20268D01*
X55378Y-20268D01*
X55395Y-20274D01*
X55603Y-20275D01*
X55797Y-20195D01*
X55942Y-20050D01*
X55974Y-20050D01*
X55974Y-20324D01*
X56012Y-20416D01*
X56083Y-20486D01*
X56175Y-20524D01*
X56274Y-20525D01*
X56824Y-20525D01*
X56916Y-20487D01*
X56986Y-20416D01*
X57024Y-20324D01*
X57024Y-20300D01*
X57250Y-20300D01*
X57250Y-20299D01*
X57364Y-20277D01*
X57364Y-20277D01*
X57378Y-20268D01*
X57378Y-20268D01*
X57395Y-20274D01*
X57603Y-20275D01*
X57797Y-20195D01*
X57942Y-20050D01*
X57974Y-20050D01*
X57974Y-20324D01*
X58012Y-20416D01*
X58083Y-20486D01*
X58175Y-20524D01*
X58274Y-20525D01*
X58824Y-20525D01*
X58916Y-20487D01*
X58986Y-20416D01*
X59024Y-20324D01*
X59024Y-20300D01*
X59250Y-20300D01*
X59250Y-20299D01*
X59364Y-20277D01*
X59364Y-20277D01*
X59378Y-20268D01*
X59378Y-20268D01*
X59395Y-20274D01*
X59603Y-20275D01*
X59797Y-20195D01*
X59942Y-20050D01*
X59974Y-20050D01*
X59974Y-20324D01*
X60012Y-20416D01*
X60083Y-20486D01*
X60175Y-20524D01*
X60274Y-20525D01*
X60824Y-20525D01*
X60916Y-20487D01*
X60986Y-20416D01*
X61024Y-20324D01*
X61024Y-20300D01*
X61250Y-20300D01*
X61250Y-20299D01*
X61364Y-20277D01*
X61364Y-20277D01*
X61378Y-20268D01*
X61378Y-20268D01*
X61395Y-20274D01*
X61603Y-20275D01*
X61797Y-20195D01*
X61942Y-20050D01*
X61974Y-20050D01*
X61974Y-20324D01*
X62012Y-20416D01*
X62083Y-20486D01*
X62175Y-20524D01*
X62274Y-20525D01*
X62824Y-20525D01*
X62916Y-20487D01*
X62986Y-20416D01*
X63024Y-20324D01*
X63024Y-20300D01*
X63250Y-20300D01*
X63250Y-20299D01*
X63364Y-20277D01*
X63364Y-20277D01*
X63378Y-20268D01*
X63378Y-20268D01*
X63395Y-20274D01*
X63603Y-20275D01*
X63797Y-20195D01*
X63942Y-20050D01*
X63974Y-20050D01*
X63974Y-20324D01*
X64012Y-20416D01*
X64083Y-20486D01*
X64175Y-20524D01*
X64274Y-20525D01*
X64824Y-20525D01*
X64916Y-20487D01*
X64986Y-20416D01*
X65024Y-20324D01*
X65024Y-20300D01*
X65250Y-20300D01*
X65250Y-20299D01*
X65364Y-20277D01*
X65364Y-20277D01*
X65378Y-20268D01*
X65378Y-20268D01*
X65395Y-20274D01*
X65603Y-20275D01*
X65797Y-20195D01*
X65942Y-20050D01*
X69625Y-20050D01*
X69833Y-20257D01*
X69787Y-20287D01*
X68787Y-21287D01*
X68722Y-21385D01*
X68700Y-21500D01*
X68700Y-23698D01*
X68661Y-23737D01*
X66712Y-21787D01*
X66614Y-21722D01*
X66500Y-21700D01*
X57000Y-21700D01*
X56885Y-21722D01*
X56787Y-21787D01*
X56287Y-22287D01*
X56222Y-22385D01*
X56200Y-22500D01*
X56200Y-22557D01*
X56055Y-22702D01*
X55975Y-22895D01*
X55974Y-23024D01*
X55945Y-22953D01*
X55797Y-22805D01*
X55604Y-22725D01*
X55396Y-22724D01*
X55203Y-22804D01*
X55057Y-22950D01*
X55025Y-22950D01*
X55025Y-22896D01*
X54945Y-22703D01*
X54797Y-22555D01*
X54604Y-22475D01*
X54396Y-22474D01*
X54203Y-22554D01*
X54055Y-22702D01*
X53975Y-22895D01*
X53974Y-23024D01*
X53945Y-22953D01*
X53797Y-22805D01*
X53604Y-22725D01*
X53396Y-22724D01*
X53203Y-22804D01*
X53057Y-22950D01*
X53025Y-22950D01*
X53025Y-22896D01*
X52945Y-22703D01*
X52797Y-22555D01*
X52604Y-22475D01*
X52396Y-22474D01*
X52203Y-22554D01*
X52055Y-22702D01*
X51975Y-22895D01*
X51974Y-23024D01*
X51945Y-22953D01*
X51797Y-22805D01*
X51604Y-22725D01*
X51396Y-22724D01*
X51378Y-22732D01*
X51364Y-22722D01*
X51250Y-22700D01*
X50942Y-22700D01*
X50797Y-22555D01*
X50604Y-22475D01*
X50396Y-22474D01*
X50203Y-22554D01*
X50055Y-22702D01*
X49975Y-22895D01*
X49974Y-23100D01*
X49375Y-23700D01*
X42906Y-23700D01*
X42906Y-20477D01*
X42500Y-20070D01*
X42093Y-20477D01*
X42106Y-20626D01*
X42376Y-20728D01*
X42664Y-20720D01*
X42893Y-20626D01*
X42906Y-20477D01*
X42906Y-23700D01*
X42692Y-23700D01*
X42547Y-23555D01*
X42354Y-23475D01*
X42146Y-23474D01*
X41953Y-23554D01*
X41906Y-23601D01*
X41906Y-20477D01*
X41500Y-20070D01*
X41093Y-20477D01*
X41106Y-20626D01*
X41376Y-20728D01*
X41664Y-20720D01*
X41893Y-20626D01*
X41906Y-20477D01*
X41906Y-23601D01*
X41805Y-23702D01*
X41725Y-23895D01*
X41724Y-24103D01*
X41804Y-24297D01*
X41952Y-24444D01*
X42145Y-24524D01*
X42353Y-24525D01*
X42547Y-24445D01*
X42692Y-24300D01*
X49275Y-24300D01*
X48875Y-24700D01*
X47692Y-24700D01*
X47547Y-24555D01*
X47354Y-24475D01*
X47146Y-24474D01*
X46953Y-24554D01*
X46805Y-24702D01*
X46725Y-24895D01*
X46724Y-25103D01*
X46804Y-25297D01*
X46952Y-25444D01*
X47145Y-25524D01*
X47353Y-25525D01*
X47547Y-25445D01*
X47692Y-25300D01*
X49000Y-25300D01*
X49000Y-25299D01*
X49114Y-25277D01*
X49114Y-25277D01*
X49212Y-25212D01*
X50124Y-24300D01*
X52200Y-24300D01*
X52200Y-24474D01*
X52175Y-24474D01*
X52083Y-24512D01*
X52013Y-24583D01*
X51975Y-24675D01*
X51974Y-24774D01*
X51974Y-25324D01*
X52012Y-25416D01*
X52083Y-25486D01*
X52175Y-25524D01*
X52274Y-25525D01*
X52824Y-25525D01*
X52916Y-25487D01*
X52986Y-25416D01*
X53024Y-25324D01*
X53025Y-25225D01*
X53025Y-24675D01*
X52987Y-24583D01*
X52916Y-24513D01*
X52824Y-24475D01*
X52800Y-24475D01*
X52800Y-24290D01*
X52800Y-24290D01*
X52864Y-24277D01*
X52864Y-24277D01*
X52962Y-24212D01*
X53399Y-23774D01*
X53603Y-23775D01*
X53797Y-23695D01*
X53944Y-23547D01*
X54024Y-23354D01*
X54025Y-23225D01*
X54054Y-23297D01*
X54200Y-23442D01*
X54200Y-24474D01*
X54175Y-24474D01*
X54083Y-24512D01*
X54013Y-24583D01*
X53975Y-24675D01*
X53974Y-24774D01*
X53974Y-25324D01*
X54012Y-25416D01*
X54083Y-25486D01*
X54175Y-25524D01*
X54200Y-25524D01*
X54200Y-25700D01*
X51025Y-25700D01*
X51025Y-25225D01*
X51025Y-24675D01*
X50987Y-24583D01*
X50916Y-24513D01*
X50824Y-24475D01*
X50725Y-24474D01*
X50175Y-24474D01*
X50083Y-24512D01*
X50013Y-24583D01*
X49975Y-24675D01*
X49974Y-24774D01*
X49974Y-25324D01*
X50012Y-25416D01*
X50083Y-25486D01*
X50175Y-25524D01*
X50274Y-25525D01*
X50824Y-25525D01*
X50916Y-25487D01*
X50986Y-25416D01*
X51024Y-25324D01*
X51025Y-25225D01*
X51025Y-25700D01*
X42692Y-25700D01*
X42547Y-25555D01*
X42354Y-25475D01*
X42146Y-25474D01*
X41953Y-25554D01*
X41805Y-25702D01*
X41725Y-25895D01*
X41724Y-26103D01*
X41804Y-26297D01*
X41952Y-26444D01*
X42145Y-26524D01*
X42353Y-26525D01*
X42547Y-26445D01*
X42692Y-26300D01*
X54500Y-26300D01*
X66875Y-26300D01*
X66975Y-26399D01*
X66974Y-26603D01*
X67054Y-26797D01*
X67202Y-26944D01*
X67335Y-27000D01*
X67203Y-27054D01*
X67057Y-27200D01*
X48500Y-27200D01*
X48385Y-27222D01*
X48287Y-27287D01*
X47875Y-27700D01*
X42692Y-27700D01*
X42547Y-27555D01*
X42354Y-27475D01*
X42146Y-27474D01*
X41953Y-27554D01*
X41805Y-27702D01*
X41725Y-27895D01*
X41724Y-28103D01*
X41804Y-28297D01*
X41952Y-28444D01*
X42145Y-28524D01*
X42353Y-28525D01*
X42547Y-28445D01*
X42692Y-28300D01*
X48000Y-28300D01*
X48000Y-28299D01*
X48114Y-28277D01*
X48114Y-28277D01*
X48212Y-28212D01*
X48624Y-27800D01*
X49800Y-27800D01*
X49771Y-27876D01*
X49779Y-28164D01*
X49873Y-28393D01*
X50022Y-28406D01*
X50429Y-28000D01*
X50423Y-27994D01*
X50494Y-27923D01*
X50500Y-27929D01*
X50505Y-27923D01*
X50576Y-27994D01*
X50570Y-28000D01*
X50977Y-28406D01*
X51126Y-28393D01*
X51228Y-28123D01*
X51220Y-27835D01*
X51206Y-27800D01*
X51800Y-27800D01*
X51771Y-27876D01*
X51779Y-28164D01*
X51873Y-28393D01*
X52022Y-28406D01*
X52429Y-28000D01*
X52423Y-27994D01*
X52494Y-27923D01*
X52500Y-27929D01*
X52505Y-27923D01*
X52576Y-27994D01*
X52570Y-28000D01*
X52977Y-28406D01*
X53126Y-28393D01*
X53228Y-28123D01*
X53220Y-27835D01*
X53206Y-27800D01*
X53800Y-27800D01*
X53771Y-27876D01*
X53779Y-28164D01*
X53873Y-28393D01*
X54022Y-28406D01*
X54429Y-28000D01*
X54423Y-27994D01*
X54494Y-27923D01*
X54500Y-27929D01*
X54505Y-27923D01*
X54576Y-27994D01*
X54570Y-28000D01*
X54977Y-28406D01*
X55126Y-28393D01*
X55228Y-28123D01*
X55220Y-27835D01*
X55206Y-27800D01*
X55800Y-27800D01*
X55771Y-27876D01*
X55779Y-28164D01*
X55873Y-28393D01*
X56022Y-28406D01*
X56429Y-28000D01*
X56423Y-27994D01*
X56494Y-27923D01*
X56500Y-27929D01*
X56505Y-27923D01*
X56576Y-27994D01*
X56570Y-28000D01*
X56977Y-28406D01*
X57126Y-28393D01*
X57228Y-28123D01*
X57220Y-27835D01*
X57206Y-27800D01*
X57800Y-27800D01*
X57771Y-27876D01*
X57779Y-28164D01*
X57873Y-28393D01*
X58022Y-28406D01*
X58429Y-28000D01*
X58423Y-27994D01*
X58494Y-27923D01*
X58500Y-27929D01*
X58505Y-27923D01*
X58576Y-27994D01*
X58570Y-28000D01*
X58977Y-28406D01*
X59126Y-28393D01*
X59228Y-28123D01*
X59220Y-27835D01*
X59206Y-27800D01*
X59800Y-27800D01*
X59771Y-27876D01*
X59779Y-28164D01*
X59873Y-28393D01*
X60022Y-28406D01*
X60429Y-28000D01*
X60423Y-27994D01*
X60494Y-27923D01*
X60500Y-27929D01*
X60505Y-27923D01*
X60576Y-27994D01*
X60570Y-28000D01*
X60977Y-28406D01*
X61126Y-28393D01*
X61228Y-28123D01*
X61220Y-27835D01*
X61206Y-27800D01*
X61800Y-27800D01*
X61771Y-27876D01*
X61779Y-28164D01*
X61873Y-28393D01*
X62022Y-28406D01*
X62429Y-28000D01*
X62423Y-27994D01*
X62494Y-27923D01*
X62500Y-27929D01*
X62505Y-27923D01*
X62576Y-27994D01*
X62570Y-28000D01*
X62977Y-28406D01*
X63126Y-28393D01*
X63228Y-28123D01*
X63220Y-27835D01*
X63206Y-27800D01*
X63800Y-27800D01*
X63771Y-27876D01*
X63779Y-28164D01*
X63873Y-28393D01*
X64022Y-28406D01*
X64429Y-28000D01*
X64423Y-27994D01*
X64494Y-27923D01*
X64500Y-27929D01*
X64505Y-27923D01*
X64576Y-27994D01*
X64570Y-28000D01*
X64977Y-28406D01*
X65126Y-28393D01*
X65228Y-28123D01*
X65220Y-27835D01*
X65206Y-27800D01*
X67057Y-27800D01*
X67202Y-27944D01*
X67335Y-28000D01*
X67203Y-28054D01*
X67055Y-28202D01*
X66975Y-28395D01*
X66974Y-28600D01*
X66875Y-28700D01*
X64714Y-28700D01*
X64893Y-28626D01*
X64906Y-28477D01*
X64500Y-28070D01*
X64093Y-28477D01*
X64106Y-28626D01*
X64300Y-28700D01*
X62714Y-28700D01*
X62893Y-28626D01*
X62906Y-28477D01*
X62500Y-28070D01*
X62093Y-28477D01*
X62106Y-28626D01*
X62300Y-28700D01*
X60714Y-28700D01*
X60893Y-28626D01*
X60906Y-28477D01*
X60500Y-28070D01*
X60093Y-28477D01*
X60106Y-28626D01*
X60300Y-28700D01*
X58714Y-28700D01*
X58893Y-28626D01*
X58906Y-28477D01*
X58500Y-28070D01*
X58093Y-28477D01*
X58106Y-28626D01*
X58300Y-28700D01*
X57801Y-28700D01*
X57741Y-28639D01*
X57584Y-28575D01*
X57415Y-28574D01*
X57259Y-28639D01*
X57198Y-28700D01*
X56714Y-28700D01*
X56893Y-28626D01*
X56906Y-28477D01*
X56500Y-28070D01*
X56093Y-28477D01*
X56106Y-28626D01*
X56300Y-28700D01*
X54714Y-28700D01*
X54893Y-28626D01*
X54906Y-28477D01*
X54500Y-28070D01*
X54093Y-28477D01*
X54106Y-28626D01*
X54300Y-28700D01*
X52714Y-28700D01*
X52893Y-28626D01*
X52906Y-28477D01*
X52500Y-28070D01*
X52093Y-28477D01*
X52106Y-28626D01*
X52300Y-28700D01*
X50714Y-28700D01*
X50893Y-28626D01*
X50906Y-28477D01*
X50500Y-28070D01*
X50093Y-28477D01*
X50106Y-28626D01*
X50300Y-28700D01*
X47692Y-28700D01*
X47547Y-28555D01*
X47354Y-28475D01*
X47146Y-28474D01*
X46953Y-28554D01*
X46805Y-28702D01*
X46725Y-28895D01*
X46724Y-29103D01*
X46804Y-29297D01*
X46952Y-29444D01*
X47145Y-29524D01*
X47353Y-29525D01*
X47547Y-29445D01*
X47692Y-29300D01*
X57198Y-29300D01*
X57258Y-29360D01*
X57415Y-29424D01*
X57584Y-29425D01*
X57740Y-29360D01*
X57801Y-29300D01*
X67000Y-29300D01*
X67000Y-29299D01*
X67015Y-29296D01*
X66975Y-29395D01*
X66974Y-29600D01*
X66875Y-29700D01*
X61500Y-29700D01*
X59801Y-29700D01*
X59741Y-29639D01*
X59584Y-29575D01*
X59415Y-29574D01*
X59259Y-29639D01*
X59198Y-29700D01*
X42692Y-29700D01*
X42547Y-29555D01*
X42354Y-29475D01*
X42146Y-29474D01*
X41953Y-29554D01*
X41805Y-29702D01*
X41725Y-29895D01*
X41724Y-30103D01*
X41804Y-30297D01*
X41952Y-30444D01*
X42145Y-30524D01*
X42353Y-30525D01*
X42547Y-30445D01*
X42692Y-30300D01*
X59198Y-30300D01*
X59258Y-30360D01*
X59415Y-30424D01*
X59584Y-30425D01*
X59740Y-30360D01*
X59801Y-30300D01*
X61500Y-30300D01*
X67000Y-30300D01*
X67000Y-30299D01*
X67015Y-30296D01*
X66975Y-30395D01*
X66974Y-30600D01*
X66875Y-30700D01*
X61801Y-30700D01*
X61741Y-30639D01*
X61584Y-30575D01*
X61415Y-30574D01*
X61259Y-30639D01*
X61198Y-30700D01*
X47692Y-30700D01*
X47547Y-30555D01*
X47354Y-30475D01*
X47146Y-30474D01*
X46953Y-30554D01*
X46805Y-30702D01*
X46725Y-30895D01*
X46724Y-31103D01*
X46804Y-31297D01*
X46952Y-31444D01*
X47145Y-31524D01*
X47353Y-31525D01*
X47547Y-31445D01*
X47692Y-31300D01*
X61198Y-31300D01*
X61258Y-31360D01*
X61415Y-31424D01*
X61584Y-31425D01*
X61740Y-31360D01*
X61801Y-31300D01*
X67000Y-31300D01*
X67000Y-31299D01*
X67015Y-31296D01*
X66975Y-31395D01*
X66974Y-31600D01*
X66875Y-31700D01*
X63801Y-31700D01*
X63741Y-31639D01*
X63584Y-31575D01*
X63415Y-31574D01*
X63259Y-31639D01*
X63198Y-31700D01*
X44275Y-31700D01*
X44275Y-30896D01*
X44195Y-30703D01*
X44047Y-30555D01*
X43854Y-30475D01*
X43646Y-30474D01*
X43453Y-30554D01*
X43307Y-30700D01*
X34942Y-30700D01*
X34797Y-30555D01*
X34664Y-30499D01*
X34797Y-30445D01*
X34942Y-30300D01*
X38307Y-30300D01*
X38452Y-30444D01*
X38645Y-30524D01*
X38853Y-30525D01*
X39047Y-30445D01*
X39194Y-30297D01*
X39274Y-30104D01*
X39275Y-29896D01*
X39195Y-29703D01*
X39047Y-29555D01*
X38854Y-29475D01*
X38646Y-29474D01*
X38453Y-29554D01*
X38307Y-29700D01*
X34942Y-29700D01*
X34797Y-29555D01*
X34664Y-29499D01*
X34797Y-29445D01*
X34942Y-29300D01*
X43307Y-29300D01*
X43452Y-29444D01*
X43645Y-29524D01*
X43853Y-29525D01*
X44047Y-29445D01*
X44194Y-29297D01*
X44274Y-29104D01*
X44275Y-28896D01*
X44195Y-28703D01*
X44047Y-28555D01*
X43854Y-28475D01*
X43646Y-28474D01*
X43453Y-28554D01*
X43307Y-28700D01*
X34942Y-28700D01*
X34797Y-28555D01*
X34664Y-28499D01*
X34797Y-28445D01*
X34942Y-28300D01*
X38307Y-28300D01*
X38452Y-28444D01*
X38645Y-28524D01*
X38853Y-28525D01*
X39047Y-28445D01*
X39194Y-28297D01*
X39274Y-28104D01*
X39275Y-27896D01*
X39195Y-27703D01*
X39047Y-27555D01*
X38854Y-27475D01*
X38646Y-27474D01*
X38453Y-27554D01*
X38307Y-27700D01*
X34942Y-27700D01*
X34797Y-27555D01*
X34664Y-27499D01*
X34797Y-27445D01*
X34944Y-27297D01*
X35024Y-27104D01*
X35025Y-26896D01*
X34945Y-26703D01*
X34797Y-26555D01*
X34664Y-26499D01*
X34797Y-26445D01*
X34942Y-26300D01*
X38307Y-26300D01*
X38452Y-26444D01*
X38645Y-26524D01*
X38853Y-26525D01*
X39047Y-26445D01*
X39194Y-26297D01*
X39274Y-26104D01*
X39275Y-25896D01*
X39195Y-25703D01*
X39047Y-25555D01*
X38854Y-25475D01*
X38646Y-25474D01*
X38453Y-25554D01*
X38307Y-25700D01*
X34942Y-25700D01*
X34797Y-25555D01*
X34664Y-25499D01*
X34797Y-25445D01*
X34942Y-25300D01*
X43307Y-25300D01*
X43452Y-25444D01*
X43645Y-25524D01*
X43853Y-25525D01*
X44047Y-25445D01*
X44194Y-25297D01*
X44274Y-25104D01*
X44275Y-24896D01*
X44195Y-24703D01*
X44047Y-24555D01*
X43854Y-24475D01*
X43646Y-24474D01*
X43453Y-24554D01*
X43307Y-24700D01*
X34942Y-24700D01*
X34797Y-24555D01*
X34664Y-24499D01*
X34797Y-24445D01*
X34942Y-24300D01*
X38307Y-24300D01*
X38452Y-24444D01*
X38645Y-24524D01*
X38853Y-24525D01*
X39047Y-24445D01*
X39194Y-24297D01*
X39274Y-24104D01*
X39275Y-23896D01*
X39195Y-23703D01*
X39047Y-23555D01*
X38854Y-23475D01*
X38646Y-23474D01*
X38453Y-23554D01*
X38307Y-23700D01*
X36580Y-23700D01*
X37275Y-23412D01*
X37910Y-22779D01*
X38254Y-21950D01*
X38255Y-21053D01*
X37912Y-20224D01*
X37279Y-19589D01*
X36450Y-19245D01*
X35553Y-19244D01*
X34724Y-19587D01*
X34089Y-20220D01*
X33745Y-21049D01*
X33744Y-21946D01*
X34087Y-22775D01*
X34720Y-23410D01*
X35417Y-23700D01*
X34942Y-23700D01*
X34797Y-23555D01*
X34604Y-23475D01*
X34396Y-23474D01*
X34203Y-23554D01*
X34055Y-23702D01*
X33975Y-23895D01*
X33974Y-24103D01*
X34054Y-24297D01*
X34202Y-24444D01*
X34335Y-24500D01*
X34203Y-24554D01*
X34055Y-24702D01*
X33975Y-24895D01*
X33974Y-25103D01*
X34054Y-25297D01*
X34202Y-25444D01*
X34335Y-25500D01*
X34203Y-25554D01*
X34055Y-25702D01*
X33975Y-25895D01*
X33974Y-26103D01*
X34054Y-26297D01*
X34202Y-26444D01*
X34335Y-26500D01*
X34203Y-26554D01*
X34055Y-26702D01*
X33975Y-26895D01*
X33974Y-27103D01*
X34054Y-27297D01*
X34202Y-27444D01*
X34335Y-27500D01*
X34203Y-27554D01*
X34055Y-27702D01*
X33975Y-27895D01*
X33974Y-28103D01*
X34054Y-28297D01*
X34202Y-28444D01*
X34335Y-28500D01*
X34203Y-28554D01*
X34055Y-28702D01*
X33975Y-28895D01*
X33974Y-29103D01*
X34054Y-29297D01*
X34202Y-29444D01*
X34335Y-29500D01*
X34203Y-29554D01*
X34055Y-29702D01*
X33975Y-29895D01*
X33974Y-30103D01*
X34054Y-30297D01*
X34202Y-30444D01*
X34335Y-30500D01*
X34203Y-30554D01*
X34055Y-30702D01*
X33975Y-30895D01*
X33974Y-31103D01*
X34054Y-31297D01*
X34202Y-31444D01*
X34335Y-31500D01*
X34203Y-31554D01*
X34055Y-31702D01*
X33975Y-31895D01*
X33974Y-32103D01*
X34054Y-32297D01*
X34062Y-32305D01*
X33969Y-32343D01*
X33843Y-32470D01*
X33774Y-32635D01*
X33775Y-32837D01*
X33887Y-32950D01*
X34450Y-32950D01*
X34450Y-32942D01*
X34550Y-32942D01*
X34550Y-32950D01*
X35112Y-32950D01*
X35225Y-32837D01*
X35225Y-32635D01*
X35156Y-32470D01*
X35030Y-32343D01*
X34937Y-32305D01*
X34942Y-32300D01*
X38307Y-32300D01*
X38452Y-32444D01*
X38645Y-32524D01*
X38853Y-32525D01*
X39047Y-32445D01*
X39194Y-32297D01*
X39274Y-32104D01*
X39275Y-31896D01*
X39195Y-31703D01*
X39047Y-31555D01*
X38854Y-31475D01*
X38646Y-31474D01*
X38453Y-31554D01*
X38307Y-31700D01*
X34942Y-31700D01*
X34797Y-31555D01*
X34664Y-31499D01*
X34797Y-31445D01*
X34942Y-31300D01*
X43307Y-31300D01*
X43452Y-31444D01*
X43645Y-31524D01*
X43853Y-31525D01*
X44047Y-31445D01*
X44194Y-31297D01*
X44274Y-31104D01*
X44275Y-30896D01*
X44275Y-31700D01*
X42692Y-31700D01*
X42547Y-31555D01*
X42354Y-31475D01*
X42146Y-31474D01*
X41953Y-31554D01*
X41805Y-31702D01*
X41725Y-31895D01*
X41724Y-32103D01*
X41804Y-32297D01*
X41952Y-32444D01*
X42145Y-32524D01*
X42353Y-32525D01*
X42547Y-32445D01*
X42692Y-32300D01*
X63198Y-32300D01*
X63258Y-32360D01*
X63415Y-32424D01*
X63584Y-32425D01*
X63740Y-32360D01*
X63801Y-32300D01*
X67000Y-32300D01*
X67000Y-32299D01*
X67015Y-32296D01*
X66975Y-32395D01*
X66974Y-32603D01*
X67054Y-32797D01*
X67202Y-32944D01*
X67395Y-33024D01*
X67603Y-33025D01*
X67797Y-32945D01*
X67944Y-32797D01*
X68024Y-32604D01*
X68025Y-32396D01*
X67945Y-32203D01*
X67797Y-32055D01*
X67664Y-31999D01*
X67797Y-31945D01*
X67944Y-31797D01*
X68024Y-31604D01*
X68025Y-31396D01*
X67945Y-31203D01*
X67797Y-31055D01*
X67664Y-30999D01*
X67797Y-30945D01*
X67944Y-30797D01*
X68024Y-30604D01*
X68025Y-30396D01*
X67945Y-30203D01*
X67797Y-30055D01*
X67664Y-29999D01*
X67797Y-29945D01*
X67944Y-29797D01*
X68024Y-29604D01*
X68025Y-29396D01*
X67945Y-29203D01*
X67797Y-29055D01*
X67664Y-28999D01*
X67797Y-28945D01*
X67944Y-28797D01*
X68024Y-28604D01*
X68025Y-28396D01*
X67945Y-28203D01*
X67797Y-28055D01*
X67664Y-27999D01*
X67797Y-27945D01*
X67944Y-27797D01*
X68024Y-27604D01*
X68025Y-27399D01*
X68712Y-26712D01*
X68712Y-26712D01*
X68777Y-26614D01*
X68799Y-26500D01*
X68800Y-26500D01*
X68800Y-24377D01*
X68915Y-24424D01*
X69084Y-24425D01*
X69240Y-24360D01*
X69360Y-24241D01*
X69424Y-24084D01*
X69425Y-23915D01*
X69360Y-23759D01*
X69300Y-23698D01*
X69300Y-21624D01*
X70090Y-20833D01*
X70202Y-20944D01*
X70395Y-21024D01*
X70603Y-21025D01*
X70797Y-20945D01*
X70866Y-20875D01*
X70873Y-20893D01*
X71022Y-20906D01*
X71429Y-20500D01*
X71429Y-20641D01*
X71093Y-20977D01*
X71106Y-21126D01*
X71376Y-21228D01*
X71664Y-21220D01*
X71893Y-21126D01*
X71906Y-20977D01*
X71906Y-22522D01*
X71893Y-22373D01*
X71623Y-22271D01*
X71335Y-22279D01*
X71106Y-22373D01*
X71093Y-22522D01*
X71500Y-22929D01*
X71906Y-22522D01*
X71906Y-22664D01*
X71570Y-23000D01*
X71977Y-23406D01*
X72126Y-23393D01*
X72228Y-23123D01*
X72228Y-27200D01*
X71906Y-27200D01*
X71906Y-23477D01*
X71500Y-23070D01*
X71429Y-23141D01*
X71429Y-23000D01*
X71022Y-22593D01*
X70873Y-22606D01*
X70867Y-22624D01*
X70797Y-22555D01*
X70604Y-22475D01*
X70396Y-22474D01*
X70203Y-22554D01*
X70055Y-22702D01*
X69975Y-22895D01*
X69974Y-23103D01*
X70054Y-23297D01*
X70202Y-23444D01*
X70395Y-23524D01*
X70603Y-23525D01*
X70797Y-23445D01*
X70866Y-23375D01*
X70873Y-23393D01*
X71022Y-23406D01*
X71429Y-23000D01*
X71429Y-23141D01*
X71093Y-23477D01*
X71106Y-23626D01*
X71376Y-23728D01*
X71664Y-23720D01*
X71893Y-23626D01*
X71906Y-23477D01*
X71906Y-27200D01*
X71228Y-27200D01*
X71228Y-25623D01*
X71220Y-25335D01*
X71126Y-25106D01*
X70977Y-25093D01*
X70906Y-25164D01*
X70906Y-25022D01*
X70893Y-24873D01*
X70623Y-24771D01*
X70335Y-24779D01*
X70106Y-24873D01*
X70093Y-25022D01*
X70500Y-25429D01*
X70906Y-25022D01*
X70906Y-25164D01*
X70570Y-25500D01*
X70977Y-25906D01*
X71126Y-25893D01*
X71228Y-25623D01*
X71228Y-27200D01*
X70942Y-27200D01*
X70797Y-27055D01*
X70664Y-26999D01*
X70797Y-26945D01*
X70944Y-26797D01*
X71024Y-26604D01*
X71025Y-26396D01*
X70945Y-26203D01*
X70875Y-26133D01*
X70893Y-26126D01*
X70906Y-25977D01*
X70500Y-25570D01*
X70429Y-25641D01*
X70429Y-25500D01*
X70022Y-25093D01*
X69873Y-25106D01*
X69771Y-25376D01*
X69779Y-25664D01*
X69873Y-25893D01*
X70022Y-25906D01*
X70429Y-25500D01*
X70429Y-25641D01*
X70093Y-25977D01*
X70106Y-26126D01*
X70124Y-26132D01*
X70055Y-26202D01*
X69975Y-26395D01*
X69974Y-26603D01*
X70054Y-26797D01*
X70202Y-26944D01*
X70335Y-27000D01*
X70203Y-27054D01*
X70055Y-27202D01*
X69975Y-27395D01*
X69974Y-27603D01*
X70054Y-27797D01*
X70124Y-27866D01*
X70106Y-27873D01*
X70093Y-28022D01*
X70500Y-28429D01*
X70906Y-28022D01*
X70893Y-27873D01*
X70875Y-27867D01*
X70942Y-27800D01*
X72500Y-27800D01*
X72500Y-27799D01*
X72614Y-27777D01*
X72614Y-27777D01*
X72712Y-27712D01*
X73212Y-27212D01*
X73212Y-27212D01*
X73277Y-27114D01*
X73299Y-27000D01*
X73300Y-27000D01*
X73300Y-26124D01*
X73624Y-25800D01*
X74899Y-25800D01*
X74899Y-25899D01*
X74914Y-25933D01*
X74888Y-25959D01*
X74968Y-26039D01*
X74811Y-26061D01*
X74696Y-26358D01*
X74703Y-26676D01*
X74811Y-26938D01*
X74968Y-26960D01*
X75429Y-26500D01*
X75423Y-26494D01*
X75494Y-26423D01*
X75500Y-26429D01*
X75505Y-26423D01*
X75576Y-26494D01*
X75570Y-26500D01*
X76031Y-26960D01*
X76188Y-26938D01*
X76303Y-26641D01*
X76303Y-31013D01*
X76203Y-31054D01*
X76100Y-31157D01*
X76100Y-27381D01*
X76008Y-27160D01*
X75950Y-27101D01*
X75960Y-27031D01*
X75500Y-26570D01*
X75429Y-26641D01*
X75039Y-27031D01*
X75049Y-27101D01*
X74991Y-27159D01*
X74900Y-27380D01*
X74899Y-27618D01*
X74991Y-27839D01*
X75159Y-28008D01*
X75380Y-28099D01*
X75618Y-28100D01*
X75839Y-28008D01*
X76008Y-27840D01*
X76099Y-27619D01*
X76100Y-27381D01*
X76100Y-31157D01*
X76057Y-31200D01*
X75500Y-31200D01*
X75385Y-31222D01*
X75287Y-31287D01*
X72787Y-33787D01*
X72722Y-33885D01*
X72700Y-34000D01*
X72700Y-38375D01*
X71375Y-39700D01*
X70942Y-39700D01*
X70797Y-39555D01*
X70664Y-39499D01*
X70797Y-39445D01*
X70944Y-39297D01*
X71024Y-39104D01*
X71025Y-38896D01*
X70945Y-38703D01*
X70797Y-38555D01*
X70664Y-38499D01*
X70797Y-38445D01*
X70944Y-38297D01*
X71024Y-38104D01*
X71025Y-37896D01*
X70945Y-37703D01*
X70797Y-37555D01*
X70664Y-37499D01*
X70797Y-37445D01*
X70942Y-37300D01*
X71500Y-37300D01*
X71500Y-37299D01*
X71614Y-37277D01*
X71614Y-37277D01*
X71712Y-37212D01*
X72212Y-36712D01*
X72212Y-36712D01*
X72277Y-36614D01*
X72299Y-36500D01*
X72300Y-36500D01*
X72300Y-35500D01*
X72277Y-35385D01*
X72212Y-35287D01*
X72212Y-35287D01*
X71712Y-34787D01*
X71614Y-34722D01*
X71500Y-34700D01*
X67801Y-34700D01*
X67741Y-34639D01*
X67584Y-34575D01*
X67415Y-34574D01*
X67259Y-34639D01*
X67161Y-34737D01*
X66802Y-34378D01*
X66915Y-34424D01*
X67084Y-34425D01*
X67240Y-34360D01*
X67301Y-34300D01*
X70698Y-34300D01*
X70758Y-34360D01*
X70915Y-34424D01*
X71084Y-34425D01*
X71240Y-34360D01*
X71360Y-34241D01*
X71424Y-34084D01*
X71425Y-33915D01*
X71360Y-33759D01*
X71241Y-33639D01*
X71228Y-33634D01*
X71228Y-29623D01*
X71228Y-28623D01*
X71220Y-28335D01*
X71126Y-28106D01*
X70977Y-28093D01*
X70570Y-28500D01*
X70977Y-28906D01*
X71126Y-28893D01*
X71228Y-28623D01*
X71228Y-29623D01*
X71220Y-29335D01*
X71126Y-29106D01*
X70977Y-29093D01*
X70906Y-29164D01*
X70906Y-29022D01*
X70904Y-29000D01*
X70906Y-28977D01*
X70901Y-28972D01*
X70893Y-28873D01*
X70747Y-28818D01*
X70500Y-28570D01*
X70429Y-28641D01*
X70429Y-28500D01*
X70022Y-28093D01*
X69873Y-28106D01*
X69771Y-28376D01*
X69779Y-28664D01*
X69873Y-28893D01*
X70022Y-28906D01*
X70429Y-28500D01*
X70429Y-28641D01*
X70260Y-28810D01*
X70106Y-28873D01*
X70098Y-28972D01*
X70093Y-28977D01*
X70095Y-29000D01*
X70093Y-29022D01*
X70098Y-29027D01*
X70106Y-29126D01*
X70252Y-29181D01*
X70500Y-29429D01*
X70739Y-29189D01*
X70893Y-29126D01*
X70901Y-29027D01*
X70906Y-29022D01*
X70906Y-29164D01*
X70570Y-29500D01*
X70977Y-29906D01*
X71126Y-29893D01*
X71228Y-29623D01*
X71228Y-33634D01*
X71084Y-33575D01*
X71025Y-33575D01*
X71025Y-31396D01*
X70945Y-31203D01*
X70797Y-31055D01*
X70664Y-30999D01*
X70797Y-30945D01*
X70944Y-30797D01*
X71024Y-30604D01*
X71025Y-30396D01*
X70945Y-30203D01*
X70875Y-30133D01*
X70893Y-30126D01*
X70906Y-29977D01*
X70500Y-29570D01*
X70429Y-29641D01*
X70429Y-29500D01*
X70022Y-29093D01*
X69873Y-29106D01*
X69771Y-29376D01*
X69779Y-29664D01*
X69873Y-29893D01*
X70022Y-29906D01*
X70429Y-29500D01*
X70429Y-29641D01*
X70093Y-29977D01*
X70106Y-30126D01*
X70124Y-30132D01*
X70055Y-30202D01*
X69975Y-30395D01*
X69974Y-30603D01*
X70054Y-30797D01*
X70202Y-30944D01*
X70335Y-31000D01*
X70203Y-31054D01*
X70055Y-31202D01*
X69975Y-31395D01*
X69974Y-31603D01*
X70054Y-31797D01*
X70202Y-31944D01*
X70274Y-31974D01*
X70175Y-31974D01*
X70083Y-32012D01*
X70013Y-32083D01*
X69975Y-32175D01*
X69974Y-32274D01*
X69974Y-32824D01*
X70012Y-32916D01*
X70083Y-32986D01*
X70175Y-33024D01*
X70274Y-33025D01*
X70824Y-33025D01*
X70916Y-32987D01*
X70986Y-32916D01*
X71024Y-32824D01*
X71025Y-32725D01*
X71025Y-32175D01*
X70987Y-32083D01*
X70916Y-32013D01*
X70824Y-31975D01*
X70725Y-31974D01*
X70725Y-31974D01*
X70797Y-31945D01*
X70944Y-31797D01*
X71024Y-31604D01*
X71025Y-31396D01*
X71025Y-33575D01*
X70915Y-33574D01*
X70759Y-33639D01*
X70698Y-33700D01*
X68877Y-33700D01*
X68924Y-33584D01*
X68925Y-33415D01*
X68860Y-33259D01*
X68741Y-33139D01*
X68584Y-33075D01*
X68415Y-33074D01*
X68259Y-33139D01*
X68198Y-33200D01*
X53000Y-33200D01*
X52885Y-33222D01*
X52787Y-33287D01*
X52722Y-33385D01*
X52700Y-33500D01*
X52700Y-33807D01*
X52557Y-33950D01*
X51442Y-33950D01*
X51297Y-33805D01*
X51104Y-33725D01*
X50896Y-33724D01*
X50703Y-33804D01*
X50555Y-33952D01*
X50475Y-34145D01*
X50474Y-34353D01*
X50554Y-34547D01*
X50702Y-34694D01*
X50895Y-34774D01*
X51103Y-34775D01*
X51297Y-34695D01*
X51442Y-34550D01*
X52557Y-34550D01*
X52702Y-34694D01*
X52895Y-34774D01*
X53103Y-34775D01*
X53297Y-34695D01*
X53444Y-34547D01*
X53524Y-34354D01*
X53525Y-34146D01*
X53445Y-33953D01*
X53300Y-33807D01*
X53300Y-33800D01*
X54714Y-33800D01*
X54703Y-33804D01*
X54555Y-33952D01*
X54475Y-34145D01*
X54474Y-34353D01*
X54554Y-34547D01*
X54702Y-34694D01*
X54895Y-34774D01*
X55103Y-34775D01*
X55297Y-34695D01*
X55442Y-34550D01*
X56557Y-34550D01*
X56702Y-34694D01*
X56895Y-34774D01*
X57103Y-34775D01*
X57297Y-34695D01*
X57442Y-34550D01*
X66125Y-34550D01*
X66197Y-34621D01*
X66084Y-34575D01*
X65915Y-34574D01*
X65759Y-34639D01*
X65698Y-34700D01*
X61500Y-34700D01*
X61385Y-34722D01*
X61287Y-34787D01*
X57875Y-38200D01*
X57285Y-38200D01*
X57297Y-38195D01*
X57444Y-38047D01*
X57524Y-37854D01*
X57525Y-37646D01*
X57445Y-37453D01*
X57297Y-37305D01*
X57104Y-37225D01*
X56899Y-37224D01*
X55462Y-35787D01*
X55364Y-35722D01*
X55250Y-35700D01*
X49025Y-35700D01*
X49025Y-34146D01*
X48945Y-33953D01*
X48797Y-33805D01*
X48604Y-33725D01*
X48399Y-33724D01*
X47962Y-33287D01*
X47864Y-33222D01*
X47750Y-33200D01*
X41000Y-33200D01*
X40885Y-33222D01*
X40787Y-33287D01*
X39287Y-34787D01*
X39222Y-34885D01*
X39200Y-35000D01*
X39200Y-36875D01*
X37375Y-38700D01*
X37192Y-38700D01*
X37047Y-38555D01*
X36914Y-38499D01*
X37047Y-38445D01*
X37194Y-38297D01*
X37274Y-38104D01*
X37275Y-37896D01*
X37195Y-37703D01*
X37047Y-37555D01*
X36854Y-37475D01*
X36646Y-37474D01*
X36453Y-37554D01*
X36307Y-37700D01*
X35225Y-37700D01*
X35225Y-33364D01*
X35225Y-33162D01*
X35112Y-33050D01*
X34550Y-33050D01*
X34550Y-33612D01*
X34662Y-33725D01*
X34685Y-33725D01*
X34864Y-33724D01*
X35030Y-33656D01*
X35156Y-33529D01*
X35225Y-33364D01*
X35225Y-37700D01*
X35025Y-37700D01*
X35025Y-37675D01*
X34987Y-37583D01*
X34916Y-37513D01*
X34824Y-37475D01*
X34725Y-37474D01*
X34450Y-37474D01*
X34450Y-33612D01*
X34450Y-33050D01*
X33887Y-33050D01*
X33775Y-33162D01*
X33774Y-33364D01*
X33843Y-33529D01*
X33969Y-33656D01*
X34135Y-33724D01*
X34314Y-33725D01*
X34337Y-33725D01*
X34450Y-33612D01*
X34450Y-37474D01*
X34175Y-37474D01*
X34083Y-37512D01*
X34013Y-37583D01*
X33975Y-37675D01*
X33974Y-37774D01*
X33974Y-38324D01*
X34012Y-38416D01*
X34083Y-38486D01*
X34175Y-38524D01*
X34274Y-38525D01*
X34274Y-38525D01*
X34203Y-38554D01*
X34055Y-38702D01*
X33975Y-38895D01*
X33974Y-39103D01*
X34054Y-39297D01*
X34202Y-39444D01*
X34335Y-39500D01*
X34203Y-39554D01*
X34055Y-39702D01*
X33975Y-39895D01*
X33974Y-40103D01*
X34054Y-40297D01*
X34202Y-40444D01*
X34335Y-40500D01*
X34203Y-40554D01*
X34055Y-40702D01*
X33975Y-40895D01*
X33974Y-41103D01*
X34054Y-41297D01*
X34202Y-41444D01*
X34335Y-41500D01*
X34203Y-41554D01*
X34055Y-41702D01*
X33975Y-41895D01*
X33974Y-42103D01*
X34054Y-42297D01*
X34202Y-42444D01*
X34335Y-42500D01*
X34203Y-42554D01*
X34055Y-42702D01*
X33975Y-42895D01*
X33974Y-43103D01*
X34054Y-43297D01*
X34202Y-43444D01*
X34335Y-43500D01*
X34203Y-43554D01*
X34055Y-43702D01*
X33975Y-43895D01*
X33974Y-44103D01*
X34054Y-44297D01*
X34202Y-44444D01*
X34335Y-44500D01*
X34203Y-44554D01*
X34055Y-44702D01*
X33975Y-44895D01*
X33974Y-45103D01*
X34054Y-45297D01*
X34202Y-45444D01*
X34335Y-45500D01*
X34203Y-45554D01*
X34055Y-45702D01*
X33975Y-45895D01*
X33974Y-46103D01*
X34054Y-46297D01*
X34124Y-46366D01*
X34106Y-46373D01*
X34093Y-46522D01*
X34500Y-46929D01*
X34906Y-46522D01*
X34893Y-46373D01*
X34875Y-46367D01*
X34942Y-46300D01*
X36307Y-46300D01*
X36452Y-46444D01*
X36645Y-46524D01*
X36700Y-46524D01*
X36700Y-52307D01*
X36555Y-52452D01*
X36475Y-52645D01*
X36474Y-52853D01*
X36554Y-53047D01*
X36702Y-53194D01*
X36895Y-53274D01*
X37103Y-53275D01*
X37297Y-53195D01*
X37444Y-53047D01*
X37524Y-52854D01*
X37525Y-52646D01*
X37445Y-52453D01*
X37300Y-52307D01*
X37300Y-46250D01*
X37277Y-46135D01*
X37268Y-46121D01*
X37274Y-46104D01*
X37275Y-45949D01*
X38200Y-46874D01*
X38200Y-52307D01*
X38055Y-52452D01*
X37975Y-52645D01*
X37974Y-52853D01*
X38054Y-53047D01*
X38202Y-53194D01*
X38395Y-53274D01*
X38603Y-53275D01*
X38797Y-53195D01*
X38944Y-53047D01*
X39024Y-52854D01*
X39025Y-52646D01*
X38945Y-52453D01*
X38800Y-52307D01*
X38800Y-46750D01*
X38777Y-46635D01*
X38712Y-46537D01*
X38712Y-46537D01*
X37274Y-45100D01*
X37275Y-44949D01*
X39700Y-47374D01*
X39700Y-52307D01*
X39555Y-52452D01*
X39475Y-52645D01*
X39474Y-52853D01*
X39554Y-53047D01*
X39702Y-53194D01*
X39895Y-53274D01*
X40103Y-53275D01*
X40297Y-53195D01*
X40444Y-53047D01*
X40524Y-52854D01*
X40525Y-52646D01*
X40445Y-52453D01*
X40300Y-52307D01*
X40300Y-47250D01*
X40299Y-47249D01*
X40277Y-47135D01*
X40212Y-47037D01*
X40212Y-47037D01*
X37274Y-44100D01*
X37275Y-43896D01*
X37195Y-43703D01*
X37047Y-43555D01*
X36914Y-43499D01*
X37047Y-43445D01*
X37194Y-43297D01*
X37274Y-43104D01*
X37275Y-42896D01*
X37195Y-42703D01*
X37047Y-42555D01*
X36854Y-42475D01*
X36646Y-42474D01*
X36453Y-42554D01*
X36307Y-42700D01*
X34942Y-42700D01*
X34797Y-42555D01*
X34664Y-42499D01*
X34797Y-42445D01*
X34944Y-42297D01*
X35024Y-42104D01*
X35025Y-41896D01*
X34945Y-41703D01*
X34797Y-41555D01*
X34664Y-41499D01*
X34797Y-41445D01*
X34942Y-41300D01*
X36307Y-41300D01*
X36452Y-41444D01*
X36645Y-41524D01*
X36853Y-41525D01*
X37047Y-41445D01*
X37194Y-41297D01*
X37274Y-41104D01*
X37275Y-40896D01*
X37195Y-40703D01*
X37047Y-40555D01*
X36914Y-40499D01*
X37047Y-40445D01*
X37194Y-40297D01*
X37274Y-40104D01*
X37275Y-39896D01*
X37195Y-39703D01*
X37047Y-39555D01*
X36914Y-39499D01*
X37047Y-39445D01*
X37192Y-39300D01*
X37500Y-39300D01*
X37500Y-39299D01*
X37614Y-39277D01*
X37614Y-39277D01*
X37712Y-39212D01*
X39712Y-37212D01*
X39712Y-37212D01*
X39777Y-37114D01*
X39799Y-37000D01*
X39800Y-37000D01*
X39800Y-35124D01*
X41124Y-33800D01*
X42214Y-33800D01*
X42203Y-33804D01*
X42055Y-33952D01*
X41975Y-34145D01*
X41974Y-34353D01*
X42054Y-34547D01*
X42202Y-34694D01*
X42395Y-34774D01*
X42603Y-34775D01*
X42797Y-34695D01*
X42942Y-34550D01*
X43557Y-34550D01*
X43702Y-34694D01*
X43895Y-34774D01*
X44103Y-34775D01*
X44297Y-34695D01*
X44442Y-34550D01*
X45057Y-34550D01*
X45202Y-34694D01*
X45395Y-34774D01*
X45603Y-34775D01*
X45797Y-34695D01*
X45942Y-34550D01*
X46557Y-34550D01*
X46702Y-34694D01*
X46895Y-34774D01*
X47103Y-34775D01*
X47297Y-34695D01*
X47444Y-34547D01*
X47524Y-34354D01*
X47525Y-34146D01*
X47445Y-33953D01*
X47297Y-33805D01*
X47285Y-33800D01*
X47625Y-33800D01*
X47975Y-34149D01*
X47974Y-34353D01*
X48054Y-34547D01*
X48202Y-34694D01*
X48395Y-34774D01*
X48603Y-34775D01*
X48797Y-34695D01*
X48944Y-34547D01*
X49024Y-34354D01*
X49025Y-34146D01*
X49025Y-35700D01*
X47500Y-35700D01*
X47385Y-35722D01*
X47287Y-35787D01*
X45778Y-37297D01*
X45604Y-37225D01*
X45396Y-37224D01*
X45203Y-37304D01*
X45055Y-37452D01*
X44975Y-37645D01*
X44974Y-37853D01*
X45054Y-38047D01*
X45082Y-38075D01*
X44915Y-38074D01*
X44759Y-38139D01*
X44639Y-38258D01*
X44575Y-38415D01*
X44574Y-38584D01*
X44621Y-38697D01*
X44212Y-38287D01*
X44158Y-38252D01*
X44297Y-38195D01*
X44444Y-38047D01*
X44524Y-37854D01*
X44525Y-37646D01*
X44445Y-37453D01*
X44297Y-37305D01*
X44104Y-37225D01*
X43896Y-37224D01*
X43703Y-37304D01*
X43555Y-37452D01*
X43475Y-37645D01*
X43474Y-37853D01*
X43554Y-38047D01*
X43702Y-38194D01*
X43714Y-38200D01*
X42785Y-38200D01*
X42797Y-38195D01*
X42944Y-38047D01*
X43024Y-37854D01*
X43025Y-37646D01*
X42945Y-37453D01*
X42797Y-37305D01*
X42604Y-37225D01*
X42396Y-37224D01*
X42203Y-37304D01*
X42055Y-37452D01*
X41975Y-37645D01*
X41974Y-37853D01*
X42054Y-38047D01*
X42202Y-38194D01*
X42214Y-38200D01*
X41124Y-38200D01*
X40743Y-37818D01*
X40695Y-37703D01*
X40547Y-37555D01*
X40354Y-37475D01*
X40146Y-37474D01*
X39953Y-37554D01*
X39805Y-37702D01*
X39725Y-37895D01*
X39724Y-38103D01*
X39804Y-38297D01*
X39952Y-38444D01*
X40085Y-38500D01*
X39953Y-38554D01*
X39805Y-38702D01*
X39725Y-38895D01*
X39724Y-39103D01*
X39804Y-39297D01*
X39952Y-39444D01*
X40085Y-39500D01*
X39953Y-39554D01*
X39805Y-39702D01*
X39725Y-39895D01*
X39724Y-40103D01*
X39804Y-40297D01*
X39952Y-40444D01*
X40085Y-40500D01*
X39953Y-40554D01*
X39805Y-40702D01*
X39725Y-40895D01*
X39724Y-41103D01*
X39804Y-41297D01*
X39952Y-41444D01*
X40145Y-41524D01*
X40353Y-41525D01*
X40528Y-41452D01*
X42475Y-43399D01*
X42474Y-43603D01*
X42554Y-43797D01*
X42702Y-43944D01*
X42895Y-44024D01*
X43103Y-44025D01*
X43297Y-43945D01*
X43444Y-43797D01*
X43500Y-43664D01*
X43554Y-43797D01*
X43702Y-43944D01*
X43895Y-44024D01*
X44103Y-44025D01*
X44297Y-43945D01*
X44444Y-43797D01*
X44500Y-43664D01*
X44554Y-43797D01*
X44702Y-43944D01*
X44895Y-44024D01*
X45103Y-44025D01*
X45297Y-43945D01*
X45444Y-43797D01*
X45500Y-43664D01*
X45554Y-43797D01*
X45702Y-43944D01*
X45895Y-44024D01*
X46103Y-44025D01*
X46297Y-43945D01*
X46366Y-43875D01*
X46373Y-43893D01*
X46522Y-43906D01*
X46929Y-43500D01*
X46522Y-43093D01*
X46373Y-43106D01*
X46367Y-43124D01*
X46297Y-43055D01*
X46104Y-42975D01*
X45896Y-42974D01*
X45703Y-43054D01*
X45555Y-43202D01*
X45499Y-43335D01*
X45445Y-43203D01*
X45297Y-43055D01*
X45104Y-42975D01*
X44899Y-42974D01*
X42949Y-41024D01*
X43103Y-41025D01*
X43297Y-40945D01*
X43444Y-40797D01*
X43500Y-40664D01*
X43554Y-40797D01*
X43702Y-40944D01*
X43895Y-41024D01*
X44103Y-41025D01*
X44297Y-40945D01*
X44444Y-40797D01*
X44500Y-40664D01*
X44554Y-40797D01*
X44702Y-40944D01*
X44895Y-41024D01*
X45103Y-41025D01*
X45297Y-40945D01*
X45444Y-40797D01*
X45500Y-40664D01*
X45554Y-40797D01*
X45702Y-40944D01*
X45895Y-41024D01*
X46103Y-41025D01*
X46297Y-40945D01*
X46444Y-40797D01*
X46500Y-40664D01*
X46554Y-40797D01*
X46702Y-40944D01*
X46895Y-41024D01*
X47103Y-41025D01*
X47297Y-40945D01*
X47444Y-40797D01*
X47500Y-40664D01*
X47554Y-40797D01*
X47702Y-40944D01*
X47895Y-41024D01*
X48103Y-41025D01*
X48297Y-40945D01*
X48444Y-40797D01*
X48474Y-40725D01*
X48474Y-40824D01*
X48512Y-40916D01*
X48583Y-40986D01*
X48675Y-41024D01*
X48774Y-41025D01*
X49324Y-41025D01*
X49416Y-40987D01*
X49486Y-40916D01*
X49524Y-40824D01*
X49525Y-40725D01*
X49525Y-40175D01*
X49487Y-40083D01*
X49416Y-40013D01*
X49324Y-39975D01*
X49225Y-39974D01*
X48675Y-39974D01*
X48583Y-40012D01*
X48513Y-40083D01*
X48475Y-40175D01*
X48474Y-40274D01*
X48474Y-40274D01*
X48445Y-40203D01*
X48297Y-40055D01*
X48104Y-39975D01*
X47896Y-39974D01*
X47703Y-40054D01*
X47555Y-40202D01*
X47499Y-40335D01*
X47445Y-40203D01*
X47300Y-40057D01*
X47300Y-39624D01*
X48681Y-38243D01*
X48797Y-38195D01*
X48944Y-38047D01*
X48993Y-37930D01*
X50124Y-36800D01*
X51625Y-36800D01*
X52475Y-37649D01*
X52474Y-37853D01*
X52554Y-38047D01*
X52702Y-38194D01*
X52895Y-38274D01*
X53103Y-38275D01*
X53297Y-38195D01*
X53442Y-38050D01*
X54557Y-38050D01*
X54702Y-38194D01*
X54714Y-38200D01*
X53500Y-38200D01*
X53385Y-38222D01*
X53287Y-38287D01*
X51525Y-40050D01*
X51525Y-37646D01*
X51445Y-37453D01*
X51297Y-37305D01*
X51104Y-37225D01*
X50896Y-37224D01*
X50703Y-37304D01*
X50555Y-37452D01*
X50475Y-37645D01*
X50474Y-37853D01*
X50554Y-38047D01*
X50702Y-38194D01*
X50895Y-38274D01*
X51103Y-38275D01*
X51297Y-38195D01*
X51444Y-38047D01*
X51524Y-37854D01*
X51525Y-37646D01*
X51525Y-40050D01*
X50287Y-41287D01*
X50222Y-41385D01*
X50200Y-41500D01*
X50200Y-44500D01*
X50222Y-44614D01*
X50287Y-44712D01*
X52037Y-46462D01*
X52037Y-46462D01*
X52135Y-46527D01*
X52250Y-46550D01*
X52557Y-46550D01*
X52700Y-46692D01*
X52700Y-47375D01*
X51375Y-48700D01*
X49525Y-48700D01*
X49525Y-43396D01*
X49445Y-43203D01*
X49297Y-43055D01*
X49104Y-42975D01*
X48896Y-42974D01*
X48703Y-43054D01*
X48555Y-43202D01*
X48499Y-43335D01*
X48445Y-43203D01*
X48297Y-43055D01*
X48104Y-42975D01*
X47896Y-42974D01*
X47703Y-43054D01*
X47633Y-43124D01*
X47626Y-43106D01*
X47477Y-43093D01*
X47406Y-43164D01*
X47406Y-43022D01*
X47393Y-42873D01*
X47123Y-42771D01*
X46835Y-42779D01*
X46606Y-42873D01*
X46593Y-43022D01*
X47000Y-43429D01*
X47406Y-43022D01*
X47406Y-43164D01*
X47070Y-43500D01*
X47477Y-43906D01*
X47626Y-43893D01*
X47632Y-43875D01*
X47702Y-43944D01*
X47895Y-44024D01*
X48103Y-44025D01*
X48297Y-43945D01*
X48444Y-43797D01*
X48500Y-43664D01*
X48554Y-43797D01*
X48702Y-43944D01*
X48895Y-44024D01*
X49103Y-44025D01*
X49297Y-43945D01*
X49444Y-43797D01*
X49524Y-43604D01*
X49525Y-43396D01*
X49525Y-48700D01*
X49000Y-48700D01*
X48885Y-48722D01*
X48787Y-48787D01*
X48100Y-49475D01*
X47896Y-49474D01*
X47800Y-49514D01*
X47800Y-49500D01*
X47777Y-49385D01*
X47712Y-49287D01*
X45949Y-47524D01*
X46103Y-47525D01*
X46297Y-47445D01*
X46444Y-47297D01*
X46500Y-47164D01*
X46554Y-47297D01*
X46702Y-47444D01*
X46895Y-47524D01*
X47103Y-47525D01*
X47297Y-47445D01*
X47444Y-47297D01*
X47500Y-47164D01*
X47554Y-47297D01*
X47702Y-47444D01*
X47895Y-47524D01*
X48103Y-47525D01*
X48297Y-47445D01*
X48444Y-47297D01*
X48474Y-47225D01*
X48474Y-47324D01*
X48512Y-47416D01*
X48583Y-47486D01*
X48675Y-47524D01*
X48774Y-47525D01*
X49324Y-47525D01*
X49416Y-47487D01*
X49486Y-47416D01*
X49524Y-47324D01*
X49525Y-47225D01*
X49525Y-46675D01*
X49487Y-46583D01*
X49416Y-46513D01*
X49324Y-46475D01*
X49225Y-46474D01*
X48675Y-46474D01*
X48583Y-46512D01*
X48513Y-46583D01*
X48475Y-46675D01*
X48474Y-46774D01*
X48474Y-46774D01*
X48445Y-46703D01*
X48297Y-46555D01*
X48104Y-46475D01*
X47896Y-46474D01*
X47703Y-46554D01*
X47555Y-46702D01*
X47499Y-46835D01*
X47445Y-46703D01*
X47406Y-46663D01*
X47406Y-43977D01*
X47000Y-43570D01*
X46593Y-43977D01*
X46606Y-44126D01*
X46876Y-44228D01*
X47164Y-44220D01*
X47393Y-44126D01*
X47406Y-43977D01*
X47406Y-46663D01*
X47297Y-46555D01*
X47104Y-46475D01*
X46896Y-46474D01*
X46703Y-46554D01*
X46555Y-46702D01*
X46499Y-46835D01*
X46445Y-46703D01*
X46297Y-46555D01*
X46104Y-46475D01*
X45899Y-46474D01*
X44712Y-45287D01*
X44614Y-45222D01*
X44500Y-45200D01*
X43624Y-45200D01*
X41212Y-42787D01*
X41114Y-42722D01*
X41000Y-42700D01*
X40692Y-42700D01*
X40547Y-42555D01*
X40354Y-42475D01*
X40146Y-42474D01*
X39953Y-42554D01*
X39805Y-42702D01*
X39725Y-42895D01*
X39724Y-43103D01*
X39804Y-43297D01*
X39952Y-43444D01*
X40085Y-43500D01*
X39953Y-43554D01*
X39805Y-43702D01*
X39725Y-43895D01*
X39724Y-44103D01*
X39804Y-44297D01*
X39952Y-44444D01*
X40085Y-44500D01*
X39953Y-44554D01*
X39805Y-44702D01*
X39725Y-44895D01*
X39724Y-45103D01*
X39804Y-45297D01*
X39952Y-45444D01*
X40085Y-45500D01*
X39953Y-45554D01*
X39805Y-45702D01*
X39725Y-45895D01*
X39724Y-46103D01*
X39804Y-46297D01*
X39952Y-46444D01*
X40145Y-46524D01*
X40353Y-46525D01*
X40528Y-46452D01*
X41200Y-47124D01*
X41200Y-49000D01*
X41222Y-49114D01*
X41287Y-49212D01*
X42287Y-50212D01*
X42287Y-50212D01*
X42385Y-50277D01*
X42500Y-50300D01*
X42557Y-50300D01*
X42702Y-50444D01*
X42895Y-50524D01*
X43103Y-50525D01*
X43200Y-50485D01*
X43200Y-50500D01*
X43200Y-51000D01*
X43222Y-51114D01*
X43287Y-51212D01*
X44287Y-52212D01*
X44287Y-52212D01*
X44341Y-52247D01*
X44203Y-52304D01*
X44055Y-52452D01*
X43975Y-52645D01*
X43974Y-52853D01*
X44054Y-53047D01*
X44202Y-53194D01*
X44395Y-53274D01*
X44603Y-53275D01*
X44797Y-53195D01*
X44944Y-53047D01*
X45024Y-52854D01*
X45025Y-52646D01*
X44945Y-52453D01*
X44797Y-52305D01*
X44785Y-52300D01*
X45714Y-52300D01*
X45703Y-52304D01*
X45555Y-52452D01*
X45475Y-52645D01*
X45474Y-52853D01*
X45554Y-53047D01*
X45702Y-53194D01*
X45895Y-53274D01*
X46100Y-53275D01*
X47700Y-54874D01*
X47700Y-55807D01*
X47555Y-55952D01*
X47475Y-56145D01*
X47474Y-56353D01*
X47554Y-56547D01*
X47702Y-56694D01*
X47895Y-56774D01*
X48100Y-56775D01*
X52475Y-61149D01*
X52474Y-61353D01*
X52554Y-61547D01*
X52702Y-61694D01*
X52895Y-61774D01*
X53103Y-61775D01*
X53297Y-61695D01*
X53442Y-61550D01*
X54557Y-61550D01*
X54702Y-61694D01*
X54895Y-61774D01*
X55103Y-61775D01*
X55297Y-61695D01*
X55442Y-61550D01*
X56557Y-61550D01*
X56702Y-61694D01*
X56895Y-61774D01*
X57103Y-61775D01*
X57297Y-61695D01*
X57442Y-61550D01*
X58557Y-61550D01*
X58702Y-61694D01*
X58895Y-61774D01*
X59103Y-61775D01*
X59297Y-61695D01*
X59444Y-61547D01*
X59524Y-61354D01*
X59525Y-61149D01*
X59874Y-60800D01*
X60557Y-60800D01*
X60702Y-60944D01*
X60895Y-61024D01*
X61103Y-61025D01*
X61297Y-60945D01*
X61444Y-60797D01*
X61524Y-60604D01*
X61525Y-60396D01*
X61445Y-60203D01*
X61375Y-60133D01*
X61393Y-60126D01*
X61406Y-59977D01*
X61000Y-59570D01*
X60929Y-59641D01*
X60929Y-59500D01*
X60522Y-59093D01*
X60373Y-59106D01*
X60271Y-59376D01*
X60279Y-59664D01*
X60373Y-59893D01*
X60522Y-59906D01*
X60929Y-59500D01*
X60929Y-59641D01*
X60593Y-59977D01*
X60606Y-60126D01*
X60624Y-60132D01*
X60557Y-60200D01*
X59750Y-60200D01*
X59635Y-60222D01*
X59537Y-60287D01*
X59525Y-60300D01*
X59525Y-57646D01*
X59445Y-57453D01*
X59300Y-57307D01*
X59300Y-56192D01*
X59444Y-56047D01*
X59524Y-55854D01*
X59525Y-55646D01*
X59445Y-55453D01*
X59297Y-55305D01*
X59104Y-55225D01*
X58896Y-55224D01*
X58703Y-55304D01*
X58555Y-55452D01*
X58475Y-55645D01*
X58474Y-55853D01*
X58554Y-56047D01*
X58700Y-56192D01*
X58700Y-57307D01*
X58555Y-57452D01*
X58475Y-57645D01*
X58474Y-57853D01*
X58554Y-58047D01*
X58702Y-58194D01*
X58895Y-58274D01*
X59103Y-58275D01*
X59297Y-58195D01*
X59444Y-58047D01*
X59524Y-57854D01*
X59525Y-57646D01*
X59525Y-60300D01*
X59100Y-60725D01*
X58896Y-60724D01*
X58703Y-60804D01*
X58557Y-60950D01*
X57442Y-60950D01*
X57297Y-60805D01*
X57104Y-60725D01*
X56896Y-60724D01*
X56703Y-60804D01*
X56557Y-60950D01*
X55525Y-60950D01*
X55525Y-57646D01*
X55445Y-57453D01*
X55300Y-57307D01*
X55300Y-56192D01*
X55444Y-56047D01*
X55524Y-55854D01*
X55525Y-55646D01*
X55445Y-55453D01*
X55297Y-55305D01*
X55104Y-55225D01*
X54896Y-55224D01*
X54703Y-55304D01*
X54555Y-55452D01*
X54475Y-55645D01*
X54474Y-55853D01*
X54554Y-56047D01*
X54700Y-56192D01*
X54700Y-57307D01*
X54555Y-57452D01*
X54475Y-57645D01*
X54474Y-57853D01*
X54554Y-58047D01*
X54702Y-58194D01*
X54895Y-58274D01*
X55103Y-58275D01*
X55297Y-58195D01*
X55444Y-58047D01*
X55524Y-57854D01*
X55525Y-57646D01*
X55525Y-60950D01*
X55442Y-60950D01*
X55297Y-60805D01*
X55104Y-60725D01*
X54896Y-60724D01*
X54703Y-60804D01*
X54557Y-60950D01*
X53442Y-60950D01*
X53297Y-60805D01*
X53104Y-60725D01*
X52899Y-60724D01*
X48524Y-56350D01*
X48525Y-56146D01*
X48445Y-55953D01*
X48300Y-55807D01*
X48300Y-54750D01*
X48299Y-54749D01*
X48277Y-54635D01*
X48212Y-54537D01*
X48212Y-54537D01*
X46524Y-52850D01*
X46525Y-52646D01*
X46445Y-52453D01*
X46297Y-52305D01*
X46285Y-52300D01*
X46375Y-52300D01*
X50787Y-56712D01*
X50885Y-56777D01*
X50885Y-56777D01*
X51000Y-56800D01*
X52198Y-56800D01*
X52258Y-56860D01*
X52415Y-56924D01*
X52584Y-56925D01*
X52700Y-56877D01*
X52700Y-57307D01*
X52555Y-57452D01*
X52475Y-57645D01*
X52474Y-57853D01*
X52554Y-58047D01*
X52702Y-58194D01*
X52895Y-58274D01*
X53103Y-58275D01*
X53297Y-58195D01*
X53444Y-58047D01*
X53524Y-57854D01*
X53525Y-57646D01*
X53445Y-57453D01*
X53300Y-57307D01*
X53300Y-56192D01*
X53444Y-56047D01*
X53524Y-55854D01*
X53525Y-55646D01*
X53445Y-55453D01*
X53297Y-55305D01*
X53104Y-55225D01*
X52896Y-55224D01*
X52721Y-55297D01*
X49224Y-51800D01*
X50000Y-51800D01*
X52714Y-51800D01*
X52703Y-51804D01*
X52555Y-51952D01*
X52475Y-52145D01*
X52474Y-52353D01*
X52554Y-52547D01*
X52702Y-52694D01*
X52895Y-52774D01*
X53103Y-52775D01*
X53297Y-52695D01*
X53444Y-52547D01*
X53524Y-52354D01*
X53525Y-52146D01*
X53445Y-51953D01*
X53297Y-51805D01*
X53285Y-51800D01*
X54714Y-51800D01*
X54703Y-51804D01*
X54555Y-51952D01*
X54475Y-52145D01*
X54474Y-52353D01*
X54554Y-52547D01*
X54702Y-52694D01*
X54895Y-52774D01*
X55103Y-52775D01*
X55297Y-52695D01*
X55444Y-52547D01*
X55524Y-52354D01*
X55525Y-52146D01*
X55445Y-51953D01*
X55297Y-51805D01*
X55285Y-51800D01*
X56375Y-51800D01*
X56547Y-51971D01*
X56475Y-52145D01*
X56474Y-52353D01*
X56554Y-52547D01*
X56702Y-52694D01*
X56895Y-52774D01*
X57103Y-52775D01*
X57297Y-52695D01*
X57444Y-52547D01*
X57524Y-52354D01*
X57525Y-52146D01*
X57445Y-51953D01*
X57297Y-51805D01*
X57180Y-51756D01*
X56724Y-51300D01*
X57875Y-51300D01*
X58547Y-51971D01*
X58475Y-52145D01*
X58474Y-52353D01*
X58554Y-52547D01*
X58702Y-52694D01*
X58895Y-52774D01*
X59103Y-52775D01*
X59297Y-52695D01*
X59444Y-52547D01*
X59524Y-52354D01*
X59525Y-52146D01*
X59445Y-51953D01*
X59297Y-51805D01*
X59180Y-51756D01*
X58224Y-50800D01*
X58375Y-50800D01*
X59700Y-52124D01*
X59700Y-52875D01*
X57278Y-55297D01*
X57104Y-55225D01*
X56896Y-55224D01*
X56703Y-55304D01*
X56555Y-55452D01*
X56475Y-55645D01*
X56474Y-55853D01*
X56554Y-56047D01*
X56700Y-56192D01*
X56700Y-57307D01*
X56555Y-57452D01*
X56475Y-57645D01*
X56474Y-57853D01*
X56554Y-58047D01*
X56702Y-58194D01*
X56895Y-58274D01*
X57103Y-58275D01*
X57297Y-58195D01*
X57444Y-58047D01*
X57524Y-57854D01*
X57525Y-57646D01*
X57445Y-57453D01*
X57300Y-57307D01*
X57300Y-56192D01*
X57444Y-56047D01*
X57493Y-55930D01*
X60212Y-53212D01*
X60212Y-53212D01*
X60277Y-53114D01*
X60299Y-53000D01*
X60300Y-53000D01*
X60300Y-52000D01*
X60277Y-51885D01*
X60212Y-51787D01*
X60212Y-51787D01*
X58712Y-50287D01*
X58614Y-50222D01*
X58500Y-50200D01*
X57285Y-50200D01*
X57297Y-50195D01*
X57442Y-50050D01*
X58557Y-50050D01*
X58702Y-50194D01*
X58895Y-50274D01*
X59100Y-50275D01*
X61575Y-52749D01*
X61575Y-56500D01*
X61000Y-57075D01*
X60915Y-57074D01*
X60759Y-57139D01*
X60639Y-57258D01*
X60575Y-57415D01*
X60574Y-57584D01*
X60639Y-57740D01*
X60758Y-57860D01*
X60915Y-57924D01*
X61084Y-57925D01*
X61240Y-57860D01*
X61360Y-57741D01*
X61424Y-57584D01*
X61425Y-57499D01*
X62087Y-56837D01*
X62087Y-56837D01*
X62152Y-56739D01*
X62174Y-56625D01*
X62175Y-56625D01*
X62175Y-54275D01*
X62200Y-54301D01*
X62200Y-57698D01*
X62139Y-57758D01*
X62075Y-57915D01*
X62074Y-58084D01*
X62139Y-58240D01*
X62258Y-58360D01*
X62415Y-58424D01*
X62584Y-58425D01*
X62740Y-58360D01*
X62860Y-58241D01*
X62924Y-58084D01*
X62925Y-57915D01*
X62860Y-57759D01*
X62800Y-57698D01*
X62800Y-54301D01*
X62860Y-54241D01*
X62924Y-54084D01*
X62925Y-53915D01*
X62860Y-53759D01*
X62741Y-53639D01*
X62584Y-53575D01*
X62415Y-53574D01*
X62259Y-53639D01*
X62175Y-53723D01*
X62175Y-52625D01*
X62152Y-52510D01*
X62087Y-52412D01*
X62087Y-52412D01*
X59524Y-49850D01*
X59525Y-49646D01*
X59525Y-46146D01*
X59525Y-44146D01*
X59445Y-43953D01*
X59297Y-43805D01*
X59104Y-43725D01*
X58896Y-43724D01*
X58703Y-43804D01*
X58555Y-43952D01*
X58475Y-44145D01*
X58474Y-44353D01*
X58554Y-44547D01*
X58702Y-44694D01*
X58895Y-44774D01*
X59103Y-44775D01*
X59297Y-44695D01*
X59444Y-44547D01*
X59524Y-44354D01*
X59525Y-44146D01*
X59525Y-46146D01*
X59445Y-45953D01*
X59297Y-45805D01*
X59104Y-45725D01*
X58896Y-45724D01*
X58703Y-45804D01*
X58555Y-45952D01*
X58475Y-46145D01*
X58474Y-46353D01*
X58554Y-46547D01*
X58702Y-46694D01*
X58895Y-46774D01*
X59103Y-46775D01*
X59297Y-46695D01*
X59444Y-46547D01*
X59524Y-46354D01*
X59525Y-46146D01*
X59525Y-49646D01*
X59445Y-49453D01*
X59297Y-49305D01*
X59104Y-49225D01*
X58899Y-49224D01*
X58300Y-48625D01*
X58300Y-45500D01*
X58277Y-45385D01*
X58212Y-45287D01*
X58212Y-45287D01*
X57452Y-44528D01*
X57524Y-44354D01*
X57525Y-44146D01*
X57445Y-43953D01*
X57297Y-43805D01*
X57104Y-43725D01*
X56899Y-43724D01*
X55300Y-42125D01*
X55300Y-41192D01*
X55444Y-41047D01*
X55524Y-40854D01*
X55525Y-40646D01*
X55445Y-40453D01*
X55297Y-40305D01*
X55104Y-40225D01*
X54896Y-40224D01*
X54703Y-40304D01*
X54555Y-40452D01*
X54475Y-40645D01*
X54474Y-40853D01*
X54554Y-41047D01*
X54700Y-41192D01*
X54700Y-42250D01*
X54722Y-42364D01*
X54787Y-42462D01*
X56475Y-44149D01*
X56474Y-44353D01*
X56554Y-44547D01*
X56702Y-44694D01*
X56819Y-44743D01*
X57700Y-45624D01*
X57700Y-48750D01*
X57722Y-48864D01*
X57787Y-48962D01*
X58275Y-49450D01*
X57525Y-49450D01*
X57525Y-46146D01*
X57445Y-45953D01*
X57297Y-45805D01*
X57104Y-45725D01*
X56896Y-45724D01*
X56703Y-45804D01*
X56555Y-45952D01*
X56475Y-46145D01*
X56474Y-46353D01*
X56554Y-46547D01*
X56702Y-46694D01*
X56895Y-46774D01*
X57103Y-46775D01*
X57297Y-46695D01*
X57444Y-46547D01*
X57524Y-46354D01*
X57525Y-46146D01*
X57525Y-49450D01*
X57442Y-49450D01*
X57297Y-49305D01*
X57104Y-49225D01*
X56896Y-49224D01*
X56703Y-49304D01*
X56557Y-49450D01*
X55442Y-49450D01*
X55297Y-49305D01*
X55104Y-49225D01*
X54896Y-49224D01*
X54703Y-49304D01*
X54557Y-49450D01*
X53442Y-49450D01*
X53297Y-49305D01*
X53104Y-49225D01*
X52896Y-49224D01*
X52703Y-49304D01*
X52555Y-49452D01*
X52475Y-49645D01*
X52474Y-49853D01*
X52554Y-50047D01*
X52702Y-50194D01*
X52703Y-50195D01*
X52639Y-50258D01*
X52575Y-50415D01*
X52574Y-50584D01*
X52621Y-50697D01*
X51712Y-49787D01*
X51614Y-49722D01*
X51500Y-49700D01*
X49442Y-49700D01*
X49297Y-49555D01*
X49104Y-49475D01*
X48949Y-49474D01*
X49124Y-49300D01*
X51500Y-49300D01*
X51500Y-49299D01*
X51614Y-49277D01*
X51614Y-49277D01*
X51712Y-49212D01*
X53212Y-47712D01*
X53212Y-47712D01*
X53277Y-47614D01*
X53299Y-47500D01*
X53300Y-47500D01*
X53300Y-46692D01*
X53444Y-46547D01*
X53524Y-46354D01*
X53525Y-46146D01*
X53445Y-45953D01*
X53297Y-45805D01*
X53285Y-45800D01*
X54375Y-45800D01*
X54547Y-45971D01*
X54475Y-46145D01*
X54474Y-46353D01*
X54554Y-46547D01*
X54700Y-46692D01*
X54700Y-48198D01*
X54639Y-48258D01*
X54575Y-48415D01*
X54574Y-48584D01*
X54639Y-48740D01*
X54758Y-48860D01*
X54915Y-48924D01*
X55084Y-48925D01*
X55240Y-48860D01*
X55360Y-48741D01*
X55424Y-48584D01*
X55425Y-48415D01*
X55360Y-48259D01*
X55300Y-48198D01*
X55300Y-46692D01*
X55444Y-46547D01*
X55524Y-46354D01*
X55525Y-46146D01*
X55525Y-44146D01*
X55445Y-43953D01*
X55297Y-43805D01*
X55104Y-43725D01*
X54896Y-43724D01*
X54703Y-43804D01*
X54557Y-43950D01*
X53525Y-43950D01*
X53525Y-40646D01*
X53445Y-40453D01*
X53297Y-40305D01*
X53104Y-40225D01*
X52896Y-40224D01*
X52703Y-40304D01*
X52555Y-40452D01*
X52475Y-40645D01*
X52474Y-40853D01*
X52554Y-41047D01*
X52702Y-41194D01*
X52895Y-41274D01*
X53103Y-41275D01*
X53297Y-41195D01*
X53444Y-41047D01*
X53524Y-40854D01*
X53525Y-40646D01*
X53525Y-43950D01*
X53442Y-43950D01*
X53297Y-43805D01*
X53104Y-43725D01*
X52896Y-43724D01*
X52703Y-43804D01*
X52555Y-43952D01*
X52475Y-44145D01*
X52474Y-44353D01*
X52554Y-44547D01*
X52702Y-44694D01*
X52895Y-44774D01*
X53103Y-44775D01*
X53297Y-44695D01*
X53442Y-44550D01*
X54557Y-44550D01*
X54702Y-44694D01*
X54895Y-44774D01*
X55103Y-44775D01*
X55297Y-44695D01*
X55444Y-44547D01*
X55524Y-44354D01*
X55525Y-44146D01*
X55525Y-46146D01*
X55445Y-45953D01*
X55297Y-45805D01*
X55180Y-45756D01*
X54712Y-45287D01*
X54614Y-45222D01*
X54500Y-45200D01*
X52624Y-45200D01*
X51800Y-44375D01*
X51800Y-41124D01*
X53124Y-39800D01*
X59000Y-39800D01*
X59000Y-39799D01*
X59114Y-39777D01*
X59114Y-39777D01*
X59212Y-39712D01*
X60624Y-38300D01*
X64057Y-38300D01*
X64202Y-38444D01*
X64335Y-38500D01*
X64203Y-38554D01*
X64057Y-38700D01*
X61500Y-38700D01*
X61385Y-38722D01*
X61287Y-38787D01*
X59625Y-40450D01*
X59442Y-40450D01*
X59297Y-40305D01*
X59104Y-40225D01*
X58896Y-40224D01*
X58703Y-40304D01*
X58557Y-40450D01*
X57442Y-40450D01*
X57297Y-40305D01*
X57104Y-40225D01*
X56896Y-40224D01*
X56703Y-40304D01*
X56555Y-40452D01*
X56475Y-40645D01*
X56474Y-40853D01*
X56554Y-41047D01*
X56702Y-41194D01*
X56895Y-41274D01*
X57103Y-41275D01*
X57297Y-41195D01*
X57442Y-41050D01*
X58557Y-41050D01*
X58702Y-41194D01*
X58895Y-41274D01*
X59103Y-41275D01*
X59297Y-41195D01*
X59442Y-41050D01*
X59750Y-41050D01*
X59750Y-41049D01*
X59864Y-41027D01*
X59864Y-41027D01*
X59962Y-40962D01*
X61624Y-39300D01*
X64057Y-39300D01*
X64202Y-39444D01*
X64335Y-39500D01*
X64203Y-39554D01*
X64055Y-39702D01*
X63975Y-39895D01*
X63974Y-40103D01*
X64054Y-40297D01*
X64202Y-40444D01*
X64335Y-40500D01*
X64203Y-40554D01*
X64055Y-40702D01*
X63975Y-40895D01*
X63974Y-41103D01*
X64054Y-41297D01*
X64202Y-41444D01*
X64335Y-41500D01*
X64203Y-41554D01*
X64055Y-41702D01*
X63975Y-41895D01*
X63974Y-42103D01*
X64054Y-42297D01*
X64202Y-42444D01*
X64335Y-42500D01*
X64203Y-42554D01*
X64055Y-42702D01*
X63975Y-42895D01*
X63974Y-43103D01*
X64054Y-43297D01*
X64202Y-43444D01*
X64335Y-43500D01*
X64203Y-43554D01*
X64055Y-43702D01*
X63975Y-43895D01*
X63974Y-44103D01*
X64054Y-44297D01*
X64202Y-44444D01*
X64335Y-44500D01*
X64203Y-44554D01*
X64055Y-44702D01*
X63975Y-44895D01*
X63974Y-45103D01*
X64054Y-45297D01*
X64202Y-45444D01*
X64335Y-45500D01*
X64203Y-45554D01*
X64055Y-45702D01*
X63975Y-45895D01*
X63974Y-46103D01*
X64054Y-46297D01*
X64202Y-46444D01*
X64335Y-46500D01*
X64203Y-46554D01*
X64057Y-46700D01*
X63500Y-46700D01*
X63425Y-46714D01*
X63425Y-41915D01*
X63360Y-41759D01*
X63300Y-41698D01*
X63300Y-40301D01*
X63360Y-40241D01*
X63424Y-40084D01*
X63425Y-39915D01*
X63360Y-39759D01*
X63241Y-39639D01*
X63084Y-39575D01*
X62915Y-39574D01*
X62759Y-39639D01*
X62639Y-39758D01*
X62575Y-39915D01*
X62574Y-40084D01*
X62639Y-40240D01*
X62700Y-40301D01*
X62700Y-41698D01*
X62639Y-41758D01*
X62575Y-41915D01*
X62574Y-42084D01*
X62639Y-42240D01*
X62758Y-42360D01*
X62915Y-42424D01*
X63084Y-42425D01*
X63240Y-42360D01*
X63360Y-42241D01*
X63424Y-42084D01*
X63425Y-41915D01*
X63425Y-46714D01*
X63385Y-46722D01*
X63287Y-46787D01*
X62787Y-47287D01*
X62722Y-47385D01*
X62700Y-47500D01*
X62700Y-50500D01*
X62722Y-50614D01*
X62787Y-50712D01*
X63287Y-51212D01*
X63287Y-51212D01*
X63385Y-51277D01*
X63500Y-51300D01*
X64375Y-51300D01*
X64700Y-51624D01*
X64700Y-57375D01*
X64580Y-57495D01*
X64580Y-57385D01*
X64491Y-57171D01*
X64328Y-57008D01*
X64300Y-56996D01*
X64300Y-56692D01*
X64444Y-56547D01*
X64524Y-56354D01*
X64525Y-56146D01*
X64525Y-52646D01*
X64445Y-52453D01*
X64297Y-52305D01*
X64104Y-52225D01*
X63896Y-52224D01*
X63703Y-52304D01*
X63555Y-52452D01*
X63475Y-52645D01*
X63474Y-52853D01*
X63554Y-53047D01*
X63702Y-53194D01*
X63895Y-53274D01*
X64103Y-53275D01*
X64297Y-53195D01*
X64444Y-53047D01*
X64524Y-52854D01*
X64525Y-52646D01*
X64525Y-56146D01*
X64445Y-55953D01*
X64297Y-55805D01*
X64104Y-55725D01*
X63896Y-55724D01*
X63703Y-55804D01*
X63555Y-55952D01*
X63475Y-56145D01*
X63474Y-56353D01*
X63554Y-56547D01*
X63700Y-56692D01*
X63700Y-56996D01*
X63671Y-57008D01*
X63508Y-57171D01*
X63420Y-57384D01*
X63419Y-57614D01*
X63508Y-57828D01*
X63671Y-57991D01*
X63691Y-57999D01*
X63671Y-58008D01*
X63508Y-58171D01*
X63420Y-58384D01*
X63419Y-58614D01*
X63508Y-58828D01*
X63671Y-58991D01*
X63884Y-59079D01*
X64114Y-59080D01*
X64328Y-58991D01*
X64491Y-58828D01*
X64579Y-58615D01*
X64580Y-58385D01*
X64568Y-58356D01*
X65212Y-57712D01*
X65212Y-57712D01*
X65250Y-57655D01*
X65287Y-57712D01*
X65931Y-58356D01*
X65920Y-58384D01*
X65919Y-58614D01*
X66008Y-58828D01*
X66171Y-58991D01*
X66384Y-59079D01*
X66614Y-59080D01*
X66828Y-58991D01*
X66991Y-58828D01*
X67079Y-58615D01*
X67080Y-58385D01*
X66991Y-58171D01*
X66828Y-58008D01*
X66808Y-58000D01*
X66828Y-57991D01*
X66991Y-57828D01*
X67079Y-57615D01*
X67080Y-57385D01*
X66991Y-57171D01*
X66828Y-57008D01*
X66800Y-56996D01*
X66800Y-56692D01*
X66944Y-56547D01*
X67024Y-56354D01*
X67025Y-56146D01*
X67025Y-52646D01*
X66945Y-52453D01*
X66797Y-52305D01*
X66604Y-52225D01*
X66396Y-52224D01*
X66203Y-52304D01*
X66055Y-52452D01*
X65975Y-52645D01*
X65974Y-52853D01*
X66054Y-53047D01*
X66202Y-53194D01*
X66395Y-53274D01*
X66603Y-53275D01*
X66797Y-53195D01*
X66944Y-53047D01*
X67024Y-52854D01*
X67025Y-52646D01*
X67025Y-56146D01*
X66945Y-55953D01*
X66797Y-55805D01*
X66604Y-55725D01*
X66396Y-55724D01*
X66203Y-55804D01*
X66055Y-55952D01*
X65975Y-56145D01*
X65974Y-56353D01*
X66054Y-56547D01*
X66200Y-56692D01*
X66200Y-56996D01*
X66171Y-57008D01*
X66008Y-57171D01*
X65920Y-57384D01*
X65920Y-57495D01*
X65800Y-57375D01*
X65800Y-46500D01*
X65777Y-46385D01*
X65712Y-46287D01*
X65712Y-46287D01*
X65212Y-45787D01*
X65114Y-45722D01*
X65000Y-45700D01*
X64942Y-45700D01*
X64797Y-45555D01*
X64664Y-45499D01*
X64797Y-45445D01*
X64944Y-45297D01*
X65024Y-45104D01*
X65025Y-44896D01*
X64945Y-44703D01*
X64797Y-44555D01*
X64664Y-44499D01*
X64797Y-44445D01*
X64944Y-44297D01*
X65024Y-44104D01*
X65025Y-43896D01*
X64945Y-43703D01*
X64797Y-43555D01*
X64664Y-43499D01*
X64797Y-43445D01*
X64944Y-43297D01*
X65024Y-43104D01*
X65025Y-42896D01*
X64945Y-42703D01*
X64797Y-42555D01*
X64664Y-42499D01*
X64797Y-42445D01*
X64942Y-42300D01*
X65875Y-42300D01*
X67200Y-43624D01*
X67200Y-48000D01*
X67222Y-48114D01*
X67287Y-48212D01*
X68700Y-49624D01*
X68700Y-51500D01*
X68722Y-51614D01*
X68787Y-51712D01*
X71075Y-53999D01*
X71074Y-54084D01*
X71139Y-54240D01*
X71258Y-54360D01*
X71415Y-54424D01*
X71584Y-54425D01*
X71740Y-54360D01*
X71860Y-54241D01*
X71924Y-54084D01*
X71925Y-53915D01*
X71860Y-53759D01*
X71741Y-53639D01*
X71584Y-53575D01*
X71499Y-53574D01*
X69300Y-51375D01*
X69300Y-49500D01*
X69277Y-49385D01*
X69212Y-49287D01*
X69212Y-49287D01*
X67800Y-47875D01*
X67800Y-47724D01*
X69287Y-49212D01*
X69287Y-49212D01*
X69385Y-49277D01*
X69500Y-49300D01*
X70057Y-49300D01*
X70202Y-49444D01*
X70274Y-49474D01*
X70175Y-49474D01*
X70083Y-49512D01*
X70013Y-49583D01*
X69975Y-49675D01*
X69974Y-49774D01*
X69974Y-50324D01*
X70012Y-50416D01*
X70083Y-50486D01*
X70175Y-50524D01*
X70274Y-50525D01*
X70824Y-50525D01*
X70916Y-50487D01*
X70986Y-50416D01*
X71024Y-50324D01*
X71025Y-50225D01*
X71025Y-49675D01*
X70987Y-49583D01*
X70916Y-49513D01*
X70824Y-49475D01*
X70725Y-49474D01*
X70725Y-49474D01*
X70797Y-49445D01*
X70944Y-49297D01*
X71024Y-49104D01*
X71025Y-48896D01*
X70945Y-48703D01*
X70797Y-48555D01*
X70664Y-48499D01*
X70797Y-48445D01*
X70944Y-48297D01*
X71024Y-48104D01*
X71025Y-47896D01*
X70945Y-47703D01*
X70797Y-47555D01*
X70664Y-47499D01*
X70797Y-47445D01*
X70909Y-47333D01*
X71200Y-47624D01*
X71200Y-48500D01*
X71222Y-48614D01*
X71287Y-48712D01*
X72700Y-50124D01*
X72700Y-51057D01*
X72555Y-51202D01*
X72475Y-51395D01*
X72474Y-51603D01*
X72554Y-51797D01*
X72700Y-51942D01*
X72700Y-54057D01*
X72555Y-54202D01*
X72475Y-54395D01*
X72474Y-54600D01*
X72287Y-54787D01*
X72222Y-54885D01*
X72200Y-55000D01*
X72200Y-59528D01*
X72188Y-59533D01*
X72034Y-59688D01*
X71950Y-59890D01*
X71949Y-60108D01*
X72033Y-60311D01*
X72172Y-60449D01*
X72150Y-60449D01*
X72058Y-60487D01*
X71988Y-60558D01*
X71950Y-60650D01*
X71949Y-60749D01*
X71949Y-61349D01*
X71987Y-61441D01*
X72058Y-61511D01*
X72150Y-61549D01*
X72249Y-61550D01*
X72849Y-61550D01*
X72941Y-61512D01*
X73011Y-61441D01*
X73029Y-61400D01*
X73429Y-61000D01*
X73029Y-60599D01*
X73012Y-60558D01*
X72941Y-60488D01*
X72849Y-60450D01*
X72827Y-60450D01*
X72965Y-60311D01*
X72999Y-60230D01*
X73033Y-60311D01*
X73090Y-60368D01*
X73075Y-60504D01*
X73500Y-60929D01*
X73924Y-60504D01*
X73909Y-60368D01*
X73965Y-60311D01*
X73999Y-60230D01*
X74033Y-60311D01*
X74090Y-60368D01*
X74075Y-60504D01*
X74500Y-60929D01*
X74924Y-60504D01*
X74909Y-60368D01*
X74965Y-60311D01*
X75049Y-60109D01*
X75050Y-59891D01*
X74966Y-59688D01*
X74811Y-59534D01*
X74609Y-59450D01*
X74391Y-59449D01*
X74188Y-59533D01*
X74034Y-59688D01*
X74000Y-59769D01*
X73966Y-59688D01*
X73811Y-59534D01*
X73609Y-59450D01*
X73391Y-59449D01*
X73188Y-59533D01*
X73034Y-59688D01*
X73000Y-59769D01*
X72966Y-59688D01*
X72811Y-59534D01*
X72800Y-59529D01*
X72800Y-55124D01*
X72899Y-55024D01*
X73103Y-55025D01*
X73297Y-54945D01*
X73444Y-54797D01*
X73524Y-54604D01*
X73525Y-54396D01*
X73445Y-54203D01*
X73300Y-54057D01*
X73300Y-51942D01*
X73444Y-51797D01*
X73524Y-51604D01*
X73525Y-51399D01*
X74399Y-50524D01*
X74603Y-50525D01*
X74797Y-50445D01*
X74866Y-50375D01*
X74873Y-50393D01*
X75022Y-50406D01*
X75429Y-50000D01*
X75022Y-49593D01*
X74873Y-49606D01*
X74867Y-49624D01*
X74797Y-49555D01*
X74604Y-49475D01*
X74396Y-49474D01*
X74203Y-49554D01*
X74055Y-49702D01*
X73975Y-49895D01*
X73974Y-50100D01*
X73300Y-50775D01*
X73300Y-50000D01*
X73277Y-49885D01*
X73212Y-49787D01*
X73212Y-49787D01*
X71800Y-48375D01*
X71800Y-48285D01*
X71804Y-48297D01*
X71952Y-48444D01*
X72145Y-48524D01*
X72353Y-48525D01*
X72547Y-48445D01*
X72694Y-48297D01*
X72774Y-48104D01*
X72775Y-47896D01*
X72695Y-47703D01*
X72550Y-47557D01*
X72550Y-47250D01*
X72549Y-47249D01*
X72527Y-47135D01*
X72462Y-47037D01*
X72462Y-47037D01*
X71712Y-46287D01*
X71614Y-46222D01*
X71500Y-46200D01*
X71199Y-46200D01*
X71228Y-46123D01*
X71220Y-45835D01*
X71126Y-45606D01*
X70977Y-45593D01*
X70570Y-46000D01*
X70576Y-46005D01*
X70505Y-46076D01*
X70500Y-46070D01*
X70494Y-46076D01*
X70423Y-46005D01*
X70429Y-46000D01*
X70022Y-45593D01*
X69873Y-45606D01*
X69800Y-45800D01*
X69800Y-45124D01*
X69975Y-44949D01*
X69974Y-45103D01*
X70054Y-45297D01*
X70124Y-45366D01*
X70106Y-45373D01*
X70093Y-45522D01*
X70500Y-45929D01*
X70906Y-45522D01*
X70893Y-45373D01*
X70875Y-45367D01*
X70942Y-45300D01*
X72000Y-45300D01*
X72000Y-45299D01*
X72114Y-45277D01*
X72114Y-45277D01*
X72212Y-45212D01*
X73712Y-43712D01*
X73712Y-43712D01*
X73777Y-43614D01*
X73799Y-43500D01*
X73800Y-43500D01*
X73800Y-42192D01*
X73942Y-42050D01*
X74625Y-42050D01*
X75200Y-42624D01*
X75200Y-43057D01*
X75055Y-43202D01*
X74975Y-43395D01*
X74974Y-43603D01*
X75054Y-43797D01*
X75202Y-43944D01*
X75395Y-44024D01*
X75603Y-44025D01*
X75797Y-43945D01*
X75866Y-43875D01*
X75873Y-43893D01*
X76022Y-43906D01*
X76429Y-43500D01*
X76022Y-43093D01*
X75873Y-43106D01*
X75867Y-43124D01*
X75800Y-43057D01*
X75800Y-42500D01*
X75799Y-42499D01*
X75777Y-42385D01*
X75712Y-42287D01*
X75712Y-42287D01*
X74962Y-41537D01*
X74864Y-41472D01*
X74750Y-41450D01*
X73942Y-41450D01*
X73797Y-41305D01*
X73604Y-41225D01*
X73396Y-41224D01*
X73203Y-41304D01*
X73055Y-41452D01*
X72975Y-41645D01*
X72974Y-41853D01*
X73054Y-42047D01*
X73200Y-42192D01*
X73200Y-43375D01*
X71875Y-44700D01*
X70942Y-44700D01*
X70797Y-44555D01*
X70664Y-44499D01*
X70797Y-44445D01*
X70944Y-44297D01*
X71024Y-44104D01*
X71025Y-43896D01*
X70945Y-43703D01*
X70797Y-43555D01*
X70664Y-43499D01*
X70797Y-43445D01*
X70944Y-43297D01*
X71024Y-43104D01*
X71025Y-42896D01*
X70945Y-42703D01*
X70797Y-42555D01*
X70664Y-42499D01*
X70797Y-42445D01*
X70942Y-42300D01*
X71500Y-42300D01*
X71500Y-42299D01*
X71614Y-42277D01*
X71614Y-42277D01*
X71712Y-42212D01*
X74121Y-39802D01*
X74075Y-39915D01*
X74074Y-40084D01*
X74139Y-40240D01*
X74258Y-40360D01*
X74415Y-40424D01*
X74584Y-40425D01*
X74740Y-40360D01*
X74749Y-40351D01*
X74758Y-40360D01*
X74915Y-40424D01*
X75084Y-40425D01*
X75240Y-40360D01*
X75360Y-40241D01*
X75424Y-40084D01*
X75425Y-39915D01*
X75360Y-39759D01*
X75300Y-39698D01*
X75300Y-38301D01*
X75360Y-38241D01*
X75424Y-38084D01*
X75425Y-37915D01*
X75360Y-37759D01*
X75241Y-37639D01*
X75084Y-37575D01*
X74915Y-37574D01*
X74800Y-37622D01*
X74800Y-35301D01*
X74860Y-35241D01*
X74924Y-35084D01*
X74925Y-34915D01*
X74860Y-34759D01*
X74762Y-34661D01*
X75624Y-33800D01*
X76057Y-33800D01*
X76202Y-33944D01*
X76335Y-34000D01*
X76203Y-34054D01*
X76055Y-34202D01*
X75975Y-34395D01*
X75974Y-34603D01*
X76054Y-34797D01*
X76202Y-34944D01*
X76335Y-35000D01*
X76203Y-35054D01*
X76055Y-35202D01*
X75975Y-35395D01*
X75974Y-35603D01*
X76054Y-35797D01*
X76202Y-35944D01*
X76335Y-36000D01*
X76203Y-36054D01*
X76055Y-36202D01*
X75975Y-36395D01*
X75974Y-36603D01*
X76054Y-36797D01*
X76062Y-36805D01*
X75969Y-36843D01*
X75843Y-36970D01*
X75774Y-37135D01*
X75775Y-37337D01*
X75887Y-37450D01*
X76450Y-37450D01*
X76450Y-37442D01*
X76550Y-37442D01*
X76550Y-37450D01*
X77112Y-37450D01*
X77225Y-37337D01*
X77225Y-37135D01*
X77225Y-37864D01*
X77225Y-37662D01*
X77112Y-37550D01*
X76550Y-37550D01*
X76550Y-38112D01*
X76662Y-38225D01*
X76685Y-38225D01*
X76864Y-38224D01*
X77030Y-38156D01*
X77156Y-38029D01*
X77225Y-37864D01*
X77225Y-39673D01*
X77139Y-39758D01*
X77075Y-39915D01*
X77074Y-40084D01*
X77139Y-40240D01*
X77200Y-40301D01*
X77200Y-43285D01*
X77126Y-43106D01*
X76977Y-43093D01*
X76906Y-43164D01*
X76906Y-43022D01*
X76893Y-42873D01*
X76623Y-42771D01*
X76450Y-42776D01*
X76450Y-38112D01*
X76450Y-37550D01*
X75887Y-37550D01*
X75775Y-37662D01*
X75774Y-37864D01*
X75843Y-38029D01*
X75969Y-38156D01*
X76135Y-38224D01*
X76314Y-38225D01*
X76337Y-38225D01*
X76450Y-38112D01*
X76450Y-42776D01*
X76335Y-42779D01*
X76106Y-42873D01*
X76093Y-43022D01*
X76500Y-43429D01*
X76906Y-43022D01*
X76906Y-43164D01*
X76570Y-43500D01*
X76977Y-43906D01*
X77126Y-43893D01*
X77200Y-43699D01*
X77200Y-46285D01*
X77126Y-46106D01*
X76977Y-46093D01*
X76906Y-46164D01*
X76906Y-46022D01*
X76906Y-43977D01*
X76500Y-43570D01*
X76093Y-43977D01*
X76106Y-44126D01*
X76376Y-44228D01*
X76664Y-44220D01*
X76893Y-44126D01*
X76906Y-43977D01*
X76906Y-46022D01*
X76893Y-45873D01*
X76623Y-45771D01*
X76335Y-45779D01*
X76106Y-45873D01*
X76093Y-46022D01*
X76500Y-46429D01*
X76906Y-46022D01*
X76906Y-46164D01*
X76570Y-46500D01*
X76977Y-46906D01*
X77126Y-46893D01*
X77200Y-46699D01*
X77200Y-62700D01*
X76906Y-62700D01*
X76906Y-46977D01*
X76500Y-46570D01*
X76429Y-46641D01*
X76429Y-46500D01*
X76022Y-46093D01*
X75873Y-46106D01*
X75867Y-46124D01*
X75797Y-46055D01*
X75604Y-45975D01*
X75399Y-45974D01*
X74462Y-45037D01*
X74364Y-44972D01*
X74250Y-44950D01*
X73942Y-44950D01*
X73797Y-44805D01*
X73604Y-44725D01*
X73396Y-44724D01*
X73203Y-44804D01*
X73055Y-44952D01*
X72975Y-45145D01*
X72974Y-45353D01*
X73054Y-45547D01*
X73202Y-45694D01*
X73395Y-45774D01*
X73603Y-45775D01*
X73797Y-45695D01*
X73942Y-45550D01*
X74125Y-45550D01*
X74975Y-46399D01*
X74974Y-46603D01*
X75054Y-46797D01*
X75200Y-46942D01*
X75200Y-47750D01*
X75222Y-47864D01*
X75231Y-47878D01*
X75231Y-47878D01*
X75225Y-47895D01*
X75224Y-48103D01*
X75304Y-48297D01*
X75452Y-48444D01*
X75645Y-48524D01*
X75853Y-48525D01*
X76047Y-48445D01*
X76194Y-48297D01*
X76274Y-48104D01*
X76275Y-47896D01*
X76195Y-47703D01*
X76047Y-47555D01*
X75854Y-47475D01*
X75800Y-47475D01*
X75800Y-46942D01*
X75866Y-46875D01*
X75873Y-46893D01*
X76022Y-46906D01*
X76429Y-46500D01*
X76429Y-46641D01*
X76093Y-46977D01*
X76106Y-47126D01*
X76376Y-47228D01*
X76664Y-47220D01*
X76893Y-47126D01*
X76906Y-46977D01*
X76906Y-62700D01*
X76228Y-62700D01*
X76228Y-50123D01*
X76220Y-49835D01*
X76126Y-49606D01*
X75977Y-49593D01*
X75906Y-49664D01*
X75906Y-49522D01*
X75893Y-49373D01*
X75623Y-49271D01*
X75335Y-49279D01*
X75106Y-49373D01*
X75093Y-49522D01*
X75500Y-49929D01*
X75906Y-49522D01*
X75906Y-49664D01*
X75570Y-50000D01*
X75977Y-50406D01*
X76126Y-50393D01*
X76228Y-50123D01*
X76228Y-62700D01*
X75906Y-62700D01*
X75906Y-50477D01*
X75500Y-50070D01*
X75093Y-50477D01*
X75106Y-50626D01*
X75376Y-50728D01*
X75664Y-50720D01*
X75893Y-50626D01*
X75906Y-50477D01*
X75906Y-62700D01*
X75728Y-62700D01*
X75728Y-54623D01*
X75728Y-51623D01*
X75720Y-51335D01*
X75626Y-51106D01*
X75477Y-51093D01*
X75406Y-51164D01*
X75406Y-51022D01*
X75393Y-50873D01*
X75123Y-50771D01*
X74835Y-50779D01*
X74606Y-50873D01*
X74593Y-51022D01*
X75000Y-51429D01*
X75406Y-51022D01*
X75406Y-51164D01*
X75070Y-51500D01*
X75477Y-51906D01*
X75626Y-51893D01*
X75728Y-51623D01*
X75728Y-54623D01*
X75720Y-54335D01*
X75626Y-54106D01*
X75477Y-54093D01*
X75406Y-54164D01*
X75406Y-54022D01*
X75406Y-51977D01*
X75000Y-51570D01*
X74929Y-51641D01*
X74929Y-51500D01*
X74522Y-51093D01*
X74373Y-51106D01*
X74271Y-51376D01*
X74279Y-51664D01*
X74373Y-51893D01*
X74522Y-51906D01*
X74929Y-51500D01*
X74929Y-51641D01*
X74593Y-51977D01*
X74606Y-52126D01*
X74876Y-52228D01*
X75164Y-52220D01*
X75393Y-52126D01*
X75406Y-51977D01*
X75406Y-54022D01*
X75393Y-53873D01*
X75123Y-53771D01*
X74835Y-53779D01*
X74606Y-53873D01*
X74593Y-54022D01*
X75000Y-54429D01*
X75406Y-54022D01*
X75406Y-54164D01*
X75070Y-54500D01*
X75477Y-54906D01*
X75626Y-54893D01*
X75728Y-54623D01*
X75728Y-62700D01*
X75406Y-62700D01*
X75406Y-54977D01*
X75000Y-54570D01*
X74929Y-54641D01*
X74929Y-54500D01*
X74522Y-54093D01*
X74373Y-54106D01*
X74271Y-54376D01*
X74279Y-54664D01*
X74373Y-54893D01*
X74522Y-54906D01*
X74929Y-54500D01*
X74929Y-54641D01*
X74593Y-54977D01*
X74606Y-55126D01*
X74876Y-55228D01*
X75164Y-55220D01*
X75393Y-55126D01*
X75406Y-54977D01*
X75406Y-62700D01*
X75253Y-62700D01*
X75253Y-61129D01*
X75245Y-60831D01*
X75146Y-60591D01*
X74995Y-60575D01*
X74570Y-61000D01*
X74995Y-61424D01*
X75146Y-61408D01*
X75253Y-61129D01*
X75253Y-62700D01*
X74924Y-62700D01*
X74924Y-61495D01*
X74500Y-61070D01*
X74429Y-61141D01*
X74429Y-61000D01*
X74235Y-60806D01*
X74146Y-60591D01*
X74006Y-60576D01*
X74004Y-60575D01*
X73999Y-60576D01*
X73995Y-60575D01*
X73993Y-60576D01*
X73853Y-60591D01*
X73775Y-60795D01*
X73570Y-61000D01*
X73764Y-61193D01*
X73853Y-61408D01*
X73993Y-61423D01*
X73995Y-61424D01*
X74000Y-61423D01*
X74004Y-61424D01*
X74006Y-61423D01*
X74146Y-61408D01*
X74224Y-61204D01*
X74429Y-61000D01*
X74429Y-61141D01*
X74075Y-61495D01*
X74091Y-61646D01*
X74370Y-61753D01*
X74668Y-61745D01*
X74908Y-61646D01*
X74924Y-61495D01*
X74924Y-62700D01*
X73924Y-62700D01*
X73924Y-61495D01*
X73500Y-61070D01*
X73075Y-61495D01*
X73091Y-61646D01*
X73370Y-61753D01*
X73668Y-61745D01*
X73908Y-61646D01*
X73924Y-61495D01*
X73924Y-62700D01*
X69580Y-62700D01*
X70275Y-62412D01*
X70910Y-61779D01*
X71254Y-60950D01*
X71255Y-60053D01*
X70912Y-59224D01*
X70279Y-58589D01*
X69450Y-58245D01*
X68553Y-58244D01*
X67724Y-58587D01*
X67089Y-59220D01*
X66745Y-60049D01*
X66744Y-60946D01*
X67087Y-61775D01*
X67720Y-62410D01*
X68417Y-62700D01*
X64124Y-62700D01*
X62800Y-61375D01*
X62800Y-60801D01*
X62860Y-60741D01*
X62924Y-60584D01*
X62925Y-60415D01*
X62860Y-60259D01*
X62741Y-60139D01*
X62584Y-60075D01*
X62415Y-60074D01*
X62259Y-60139D01*
X62139Y-60258D01*
X62075Y-60415D01*
X62074Y-60584D01*
X62139Y-60740D01*
X62200Y-60801D01*
X62200Y-61500D01*
X62222Y-61614D01*
X62287Y-61712D01*
X63787Y-63212D01*
X63787Y-63212D01*
X63815Y-63230D01*
X61728Y-63230D01*
X61728Y-59623D01*
X61720Y-59335D01*
X61626Y-59106D01*
X61477Y-59093D01*
X61406Y-59164D01*
X61406Y-59022D01*
X61393Y-58873D01*
X61123Y-58771D01*
X60835Y-58779D01*
X60606Y-58873D01*
X60593Y-59022D01*
X61000Y-59429D01*
X61406Y-59022D01*
X61406Y-59164D01*
X61070Y-59500D01*
X61477Y-59906D01*
X61626Y-59893D01*
X61728Y-59623D01*
X61728Y-63230D01*
X50425Y-63230D01*
X50425Y-59415D01*
X50360Y-59259D01*
X50241Y-59139D01*
X50084Y-59075D01*
X49915Y-59074D01*
X49759Y-59139D01*
X49698Y-59200D01*
X49624Y-59200D01*
X46493Y-56068D01*
X46445Y-55953D01*
X46297Y-55805D01*
X46104Y-55725D01*
X45896Y-55724D01*
X45703Y-55804D01*
X45557Y-55950D01*
X44942Y-55950D01*
X44797Y-55805D01*
X44604Y-55725D01*
X44396Y-55724D01*
X44203Y-55804D01*
X44057Y-55950D01*
X43525Y-55950D01*
X43525Y-52646D01*
X43445Y-52453D01*
X43297Y-52305D01*
X43104Y-52225D01*
X42896Y-52224D01*
X42703Y-52304D01*
X42555Y-52452D01*
X42475Y-52645D01*
X42474Y-52853D01*
X42554Y-53047D01*
X42702Y-53194D01*
X42895Y-53274D01*
X43103Y-53275D01*
X43297Y-53195D01*
X43444Y-53047D01*
X43524Y-52854D01*
X43525Y-52646D01*
X43525Y-55950D01*
X43442Y-55950D01*
X43297Y-55805D01*
X43104Y-55725D01*
X42896Y-55724D01*
X42703Y-55804D01*
X42557Y-55950D01*
X42025Y-55950D01*
X42025Y-52646D01*
X41945Y-52453D01*
X41797Y-52305D01*
X41604Y-52225D01*
X41396Y-52224D01*
X41203Y-52304D01*
X41055Y-52452D01*
X40975Y-52645D01*
X40974Y-52853D01*
X41054Y-53047D01*
X41202Y-53194D01*
X41395Y-53274D01*
X41603Y-53275D01*
X41797Y-53195D01*
X41944Y-53047D01*
X42024Y-52854D01*
X42025Y-52646D01*
X42025Y-55950D01*
X41942Y-55950D01*
X41797Y-55805D01*
X41604Y-55725D01*
X41396Y-55724D01*
X41203Y-55804D01*
X41057Y-55950D01*
X40442Y-55950D01*
X40297Y-55805D01*
X40104Y-55725D01*
X39896Y-55724D01*
X39703Y-55804D01*
X39557Y-55950D01*
X38942Y-55950D01*
X38797Y-55805D01*
X38604Y-55725D01*
X38396Y-55724D01*
X38203Y-55804D01*
X38057Y-55950D01*
X37442Y-55950D01*
X37297Y-55805D01*
X37104Y-55725D01*
X36896Y-55724D01*
X36703Y-55804D01*
X36557Y-55950D01*
X36025Y-55950D01*
X36025Y-52646D01*
X35945Y-52453D01*
X35797Y-52305D01*
X35604Y-52225D01*
X35396Y-52224D01*
X35228Y-52294D01*
X35228Y-47123D01*
X35220Y-46835D01*
X35126Y-46606D01*
X34977Y-46593D01*
X34570Y-47000D01*
X34977Y-47406D01*
X35126Y-47393D01*
X35228Y-47123D01*
X35228Y-52294D01*
X35203Y-52304D01*
X35055Y-52452D01*
X34975Y-52645D01*
X34974Y-52853D01*
X35054Y-53047D01*
X35202Y-53194D01*
X35395Y-53274D01*
X35603Y-53275D01*
X35797Y-53195D01*
X35944Y-53047D01*
X36024Y-52854D01*
X36025Y-52646D01*
X36025Y-55950D01*
X35942Y-55950D01*
X35797Y-55805D01*
X35604Y-55725D01*
X35396Y-55724D01*
X35203Y-55804D01*
X35055Y-55952D01*
X34975Y-56145D01*
X34974Y-56353D01*
X35054Y-56547D01*
X35202Y-56694D01*
X35395Y-56774D01*
X35603Y-56775D01*
X35797Y-56695D01*
X35942Y-56550D01*
X36557Y-56550D01*
X36702Y-56694D01*
X36895Y-56774D01*
X37103Y-56775D01*
X37297Y-56695D01*
X37442Y-56550D01*
X38057Y-56550D01*
X38202Y-56694D01*
X38395Y-56774D01*
X38603Y-56775D01*
X38797Y-56695D01*
X38942Y-56550D01*
X39557Y-56550D01*
X39702Y-56694D01*
X39895Y-56774D01*
X40103Y-56775D01*
X40297Y-56695D01*
X40442Y-56550D01*
X41057Y-56550D01*
X41202Y-56694D01*
X41395Y-56774D01*
X41603Y-56775D01*
X41797Y-56695D01*
X41942Y-56550D01*
X42557Y-56550D01*
X42702Y-56694D01*
X42895Y-56774D01*
X43103Y-56775D01*
X43297Y-56695D01*
X43442Y-56550D01*
X44057Y-56550D01*
X44202Y-56694D01*
X44395Y-56774D01*
X44603Y-56775D01*
X44797Y-56695D01*
X44942Y-56550D01*
X45557Y-56550D01*
X45702Y-56694D01*
X45895Y-56774D01*
X46103Y-56775D01*
X46278Y-56702D01*
X49287Y-59712D01*
X49287Y-59712D01*
X49385Y-59777D01*
X49499Y-59799D01*
X49500Y-59800D01*
X49698Y-59800D01*
X49758Y-59860D01*
X49915Y-59924D01*
X50084Y-59925D01*
X50240Y-59860D01*
X50360Y-59741D01*
X50424Y-59584D01*
X50425Y-59415D01*
X50425Y-63230D01*
X45755Y-63230D01*
X45755Y-60053D01*
X45412Y-59224D01*
X44779Y-58589D01*
X43950Y-58245D01*
X43053Y-58244D01*
X42224Y-58587D01*
X41589Y-59220D01*
X41245Y-60049D01*
X41244Y-60946D01*
X41587Y-61775D01*
X42220Y-62410D01*
X43049Y-62754D01*
X43946Y-62755D01*
X44775Y-62412D01*
X45410Y-61779D01*
X45754Y-60950D01*
X45755Y-60053D01*
X45755Y-63230D01*
X39275Y-63230D01*
X39275Y-57896D01*
X39195Y-57703D01*
X39047Y-57555D01*
X38854Y-57475D01*
X38646Y-57474D01*
X38453Y-57554D01*
X38305Y-57702D01*
X38225Y-57895D01*
X38224Y-58103D01*
X38304Y-58297D01*
X38450Y-58442D01*
X38450Y-59474D01*
X38396Y-59474D01*
X38203Y-59554D01*
X38057Y-59700D01*
X35942Y-59700D01*
X35797Y-59555D01*
X35775Y-59545D01*
X35775Y-57896D01*
X35695Y-57703D01*
X35547Y-57555D01*
X35354Y-57475D01*
X35146Y-57474D01*
X34953Y-57554D01*
X34906Y-57601D01*
X34906Y-47477D01*
X34500Y-47070D01*
X34429Y-47141D01*
X34429Y-47000D01*
X34022Y-46593D01*
X33873Y-46606D01*
X33771Y-46876D01*
X33779Y-47164D01*
X33873Y-47393D01*
X34022Y-47406D01*
X34429Y-47000D01*
X34429Y-47141D01*
X34093Y-47477D01*
X34106Y-47626D01*
X34376Y-47728D01*
X34664Y-47720D01*
X34893Y-47626D01*
X34906Y-47477D01*
X34906Y-57601D01*
X34805Y-57702D01*
X34725Y-57895D01*
X34724Y-58103D01*
X34804Y-58297D01*
X34952Y-58444D01*
X35145Y-58524D01*
X35353Y-58525D01*
X35547Y-58445D01*
X35694Y-58297D01*
X35774Y-58104D01*
X35775Y-57896D01*
X35775Y-59545D01*
X35604Y-59475D01*
X35396Y-59474D01*
X35203Y-59554D01*
X35055Y-59702D01*
X34975Y-59895D01*
X34974Y-60103D01*
X35054Y-60297D01*
X35202Y-60444D01*
X35395Y-60524D01*
X35603Y-60525D01*
X35797Y-60445D01*
X35942Y-60300D01*
X38057Y-60300D01*
X38202Y-60444D01*
X38395Y-60524D01*
X38603Y-60525D01*
X38797Y-60445D01*
X38944Y-60297D01*
X39024Y-60104D01*
X39025Y-59896D01*
X39017Y-59878D01*
X39027Y-59864D01*
X39049Y-59750D01*
X39050Y-59750D01*
X39050Y-58442D01*
X39194Y-58297D01*
X39274Y-58104D01*
X39275Y-57896D01*
X39275Y-63230D01*
X39228Y-63230D01*
X39228Y-62123D01*
X39220Y-61835D01*
X39126Y-61606D01*
X38977Y-61593D01*
X38906Y-61664D01*
X38906Y-61522D01*
X38893Y-61373D01*
X38623Y-61271D01*
X38335Y-61279D01*
X38106Y-61373D01*
X38093Y-61522D01*
X38500Y-61929D01*
X38906Y-61522D01*
X38906Y-61664D01*
X38570Y-62000D01*
X38977Y-62406D01*
X39126Y-62393D01*
X39228Y-62123D01*
X39228Y-63230D01*
X38906Y-63230D01*
X38906Y-62477D01*
X38500Y-62070D01*
X38429Y-62141D01*
X38429Y-62000D01*
X38022Y-61593D01*
X37873Y-61606D01*
X37771Y-61876D01*
X37779Y-62164D01*
X37873Y-62393D01*
X38022Y-62406D01*
X38429Y-62000D01*
X38429Y-62141D01*
X38093Y-62477D01*
X38106Y-62626D01*
X38376Y-62728D01*
X38664Y-62720D01*
X38893Y-62626D01*
X38906Y-62477D01*
X38906Y-63230D01*
X36228Y-63230D01*
X36228Y-62123D01*
X36220Y-61835D01*
X36126Y-61606D01*
X35977Y-61593D01*
X35906Y-61664D01*
X35906Y-61522D01*
X35893Y-61373D01*
X35623Y-61271D01*
X35335Y-61279D01*
X35106Y-61373D01*
X35093Y-61522D01*
X35500Y-61929D01*
X35906Y-61522D01*
X35906Y-61664D01*
X35570Y-62000D01*
X35977Y-62406D01*
X36126Y-62393D01*
X36228Y-62123D01*
X36228Y-63230D01*
X35906Y-63230D01*
X35906Y-62477D01*
X35500Y-62070D01*
X35429Y-62141D01*
X35429Y-62000D01*
X35022Y-61593D01*
X34873Y-61606D01*
X34771Y-61876D01*
X34779Y-62164D01*
X34873Y-62393D01*
X35022Y-62406D01*
X35429Y-62000D01*
X35429Y-62141D01*
X35093Y-62477D01*
X35106Y-62626D01*
X35376Y-62728D01*
X35664Y-62720D01*
X35893Y-62626D01*
X35906Y-62477D01*
X35906Y-63230D01*
X33269Y-63230D01*
X33269Y-18769D01*
X77730Y-18769D01*
X77730Y-39635D01*
X77730Y-39635D01*
G37*
G54D20*
X77730Y-39635D02*
X77584Y-39575D01*
X77415Y-39574D01*
X77259Y-39639D01*
X77255Y-39643D01*
X77255Y-21053D01*
X76912Y-20224D01*
X76279Y-19589D01*
X75450Y-19245D01*
X74553Y-19244D01*
X73724Y-19587D01*
X73089Y-20220D01*
X72745Y-21049D01*
X72744Y-21946D01*
X73087Y-22775D01*
X73720Y-23410D01*
X74549Y-23754D01*
X75446Y-23755D01*
X76275Y-23412D01*
X76910Y-22779D01*
X77254Y-21950D01*
X77255Y-21053D01*
X77255Y-39643D01*
X77225Y-39673D01*
X77225Y-37864D01*
X77225Y-37135D01*
X77156Y-36970D01*
X77030Y-36843D01*
X76937Y-36805D01*
X76944Y-36797D01*
X77024Y-36604D01*
X77025Y-36396D01*
X76945Y-36203D01*
X76797Y-36055D01*
X76664Y-35999D01*
X76797Y-35945D01*
X76944Y-35797D01*
X77024Y-35604D01*
X77025Y-35396D01*
X76945Y-35203D01*
X76797Y-35055D01*
X76664Y-34999D01*
X76797Y-34945D01*
X76944Y-34797D01*
X77024Y-34604D01*
X77025Y-34396D01*
X76945Y-34203D01*
X76797Y-34055D01*
X76664Y-33999D01*
X76797Y-33945D01*
X76944Y-33797D01*
X77024Y-33604D01*
X77025Y-33396D01*
X76945Y-33203D01*
X76797Y-33055D01*
X76664Y-32999D01*
X76797Y-32945D01*
X76944Y-32797D01*
X77024Y-32604D01*
X77025Y-32396D01*
X76945Y-32203D01*
X76797Y-32055D01*
X76664Y-31999D01*
X76797Y-31945D01*
X76944Y-31797D01*
X77024Y-31604D01*
X77025Y-31396D01*
X76945Y-31203D01*
X76797Y-31055D01*
X76604Y-30975D01*
X76396Y-30974D01*
X76303Y-31013D01*
X76303Y-26641D01*
X76296Y-26323D01*
X76188Y-26061D01*
X76100Y-26049D01*
X76031Y-26039D01*
X76100Y-25970D01*
X76111Y-25959D01*
X76100Y-25947D01*
X76085Y-25933D01*
X76099Y-25899D01*
X76100Y-25800D01*
X76100Y-25100D01*
X76062Y-25008D01*
X75991Y-24938D01*
X75899Y-24900D01*
X75800Y-24899D01*
X75100Y-24899D01*
X75008Y-24937D01*
X74938Y-25008D01*
X74900Y-25100D01*
X74899Y-25199D01*
X74899Y-25200D01*
X73500Y-25200D01*
X73385Y-25222D01*
X73287Y-25287D01*
X72787Y-25787D01*
X72722Y-25885D01*
X72700Y-26000D01*
X72700Y-26875D01*
X72375Y-27200D01*
X72228Y-27200D01*
X72228Y-23123D01*
X72228Y-20623D01*
X72220Y-20335D01*
X72126Y-20106D01*
X71977Y-20093D01*
X71906Y-20164D01*
X71906Y-20022D01*
X71893Y-19873D01*
X71623Y-19771D01*
X71335Y-19779D01*
X71106Y-19873D01*
X71093Y-20022D01*
X71500Y-20429D01*
X71906Y-20022D01*
X71906Y-20164D01*
X71570Y-20500D01*
X71977Y-20906D01*
X72126Y-20893D01*
X72228Y-20623D01*
X72228Y-23123D01*
X72220Y-22835D01*
X72126Y-22606D01*
X71977Y-22593D01*
X71906Y-22664D01*
X71906Y-22522D01*
X71906Y-20977D01*
X71500Y-20570D01*
X71429Y-20641D01*
X71429Y-20500D01*
X71022Y-20093D01*
X70873Y-20106D01*
X70867Y-20124D01*
X70797Y-20055D01*
X70604Y-19975D01*
X70399Y-19974D01*
X69962Y-19537D01*
X69864Y-19472D01*
X69750Y-19450D01*
X65942Y-19450D01*
X65797Y-19305D01*
X65604Y-19225D01*
X65396Y-19224D01*
X65203Y-19304D01*
X65057Y-19450D01*
X64500Y-19450D01*
X64385Y-19472D01*
X64382Y-19474D01*
X64367Y-19474D01*
X64364Y-19472D01*
X64250Y-19450D01*
X63942Y-19450D01*
X63797Y-19305D01*
X63604Y-19225D01*
X63396Y-19224D01*
X63203Y-19304D01*
X63055Y-19452D01*
X62993Y-19599D01*
X62987Y-19583D01*
X62916Y-19513D01*
X62824Y-19475D01*
X62725Y-19474D01*
X62367Y-19474D01*
X62364Y-19472D01*
X62250Y-19450D01*
X61942Y-19450D01*
X61797Y-19305D01*
X61604Y-19225D01*
X61396Y-19224D01*
X61203Y-19304D01*
X61055Y-19452D01*
X60993Y-19599D01*
X60987Y-19583D01*
X60916Y-19513D01*
X60824Y-19475D01*
X60725Y-19474D01*
X60367Y-19474D01*
X60364Y-19472D01*
X60250Y-19450D01*
X59942Y-19450D01*
X59797Y-19305D01*
X59604Y-19225D01*
X59396Y-19224D01*
X59203Y-19304D01*
X59055Y-19452D01*
X58993Y-19599D01*
X58987Y-19583D01*
X58916Y-19513D01*
X58824Y-19475D01*
X58725Y-19474D01*
X58367Y-19474D01*
X58364Y-19472D01*
X58250Y-19450D01*
X57942Y-19450D01*
X57797Y-19305D01*
X57604Y-19225D01*
X57396Y-19224D01*
X57203Y-19304D01*
X57055Y-19452D01*
X56993Y-19599D01*
X56987Y-19583D01*
X56916Y-19513D01*
X56824Y-19475D01*
X56725Y-19474D01*
X56367Y-19474D01*
X56364Y-19472D01*
X56250Y-19450D01*
X55942Y-19450D01*
X55797Y-19305D01*
X55604Y-19225D01*
X55396Y-19224D01*
X55203Y-19304D01*
X55055Y-19452D01*
X54993Y-19599D01*
X54987Y-19583D01*
X54916Y-19513D01*
X54824Y-19475D01*
X54725Y-19474D01*
X54367Y-19474D01*
X54364Y-19472D01*
X54250Y-19450D01*
X53942Y-19450D01*
X53797Y-19305D01*
X53604Y-19225D01*
X53396Y-19224D01*
X53203Y-19304D01*
X53055Y-19452D01*
X52993Y-19599D01*
X52987Y-19583D01*
X52916Y-19513D01*
X52824Y-19475D01*
X52725Y-19474D01*
X52367Y-19474D01*
X52364Y-19472D01*
X52250Y-19450D01*
X51942Y-19450D01*
X51797Y-19305D01*
X51604Y-19225D01*
X51396Y-19224D01*
X51203Y-19304D01*
X51055Y-19452D01*
X50993Y-19599D01*
X50987Y-19583D01*
X50916Y-19513D01*
X50824Y-19475D01*
X50725Y-19474D01*
X50399Y-19474D01*
X50212Y-19287D01*
X50114Y-19222D01*
X50000Y-19200D01*
X40000Y-19200D01*
X39885Y-19222D01*
X39787Y-19287D01*
X39600Y-19475D01*
X39396Y-19474D01*
X39203Y-19554D01*
X39057Y-19700D01*
X39025Y-19700D01*
X39025Y-19675D01*
X38987Y-19583D01*
X38916Y-19513D01*
X38824Y-19475D01*
X38725Y-19474D01*
X38175Y-19474D01*
X38083Y-19512D01*
X38013Y-19583D01*
X37975Y-19675D01*
X37974Y-19774D01*
X37974Y-20324D01*
X38012Y-20416D01*
X38083Y-20486D01*
X38175Y-20524D01*
X38274Y-20525D01*
X38824Y-20525D01*
X38916Y-20487D01*
X38986Y-20416D01*
X39024Y-20324D01*
X39024Y-20300D01*
X39057Y-20300D01*
X39202Y-20444D01*
X39395Y-20524D01*
X39603Y-20525D01*
X39797Y-20445D01*
X39944Y-20297D01*
X40000Y-20164D01*
X40054Y-20297D01*
X40202Y-20444D01*
X40395Y-20524D01*
X40603Y-20525D01*
X40797Y-20445D01*
X40866Y-20375D01*
X40873Y-20393D01*
X41022Y-20406D01*
X41429Y-20000D01*
X41423Y-19994D01*
X41494Y-19923D01*
X41500Y-19929D01*
X41505Y-19923D01*
X41576Y-19994D01*
X41570Y-20000D01*
X41810Y-20239D01*
X41873Y-20393D01*
X41972Y-20401D01*
X41977Y-20406D01*
X42000Y-20404D01*
X42022Y-20406D01*
X42027Y-20401D01*
X42126Y-20393D01*
X42181Y-20247D01*
X42429Y-20000D01*
X42423Y-19994D01*
X42494Y-19923D01*
X42500Y-19929D01*
X42505Y-19923D01*
X42576Y-19994D01*
X42570Y-20000D01*
X42977Y-20406D01*
X43126Y-20393D01*
X43228Y-20123D01*
X43220Y-19835D01*
X43206Y-19800D01*
X49875Y-19800D01*
X49974Y-19899D01*
X49974Y-20324D01*
X50012Y-20416D01*
X50083Y-20486D01*
X50175Y-20524D01*
X50274Y-20525D01*
X50824Y-20525D01*
X50916Y-20487D01*
X50986Y-20416D01*
X51024Y-20324D01*
X51024Y-20300D01*
X51250Y-20300D01*
X51250Y-20299D01*
X51364Y-20277D01*
X51364Y-20277D01*
X51378Y-20268D01*
X51378Y-20268D01*
X51395Y-20274D01*
X51603Y-20275D01*
X51797Y-20195D01*
X51942Y-20050D01*
X51974Y-20050D01*
X51974Y-20324D01*
X52012Y-20416D01*
X52083Y-20486D01*
X52175Y-20524D01*
X52274Y-20525D01*
X52824Y-20525D01*
X52916Y-20487D01*
X52986Y-20416D01*
X53024Y-20324D01*
X53024Y-20300D01*
X53250Y-20300D01*
X53250Y-20299D01*
X53364Y-20277D01*
X53364Y-20277D01*
X53378Y-20268D01*
X53378Y-20268D01*
X53395Y-20274D01*
X53603Y-20275D01*
X53797Y-20195D01*
X53942Y-20050D01*
X53974Y-20050D01*
X53974Y-20324D01*
X54012Y-20416D01*
X54083Y-20486D01*
X54175Y-20524D01*
X54274Y-20525D01*
X54824Y-20525D01*
X54916Y-20487D01*
X54986Y-20416D01*
X55024Y-20324D01*
X55024Y-20300D01*
X55250Y-20300D01*
X55250Y-20299D01*
X55364Y-20277D01*
X55364Y-20277D01*
X55378Y-20268D01*
X55378Y-20268D01*
X55395Y-20274D01*
X55603Y-20275D01*
X55797Y-20195D01*
X55942Y-20050D01*
X55974Y-20050D01*
X55974Y-20324D01*
X56012Y-20416D01*
X56083Y-20486D01*
X56175Y-20524D01*
X56274Y-20525D01*
X56824Y-20525D01*
X56916Y-20487D01*
X56986Y-20416D01*
X57024Y-20324D01*
X57024Y-20300D01*
X57250Y-20300D01*
X57250Y-20299D01*
X57364Y-20277D01*
X57364Y-20277D01*
X57378Y-20268D01*
X57378Y-20268D01*
X57395Y-20274D01*
X57603Y-20275D01*
X57797Y-20195D01*
X57942Y-20050D01*
X57974Y-20050D01*
X57974Y-20324D01*
X58012Y-20416D01*
X58083Y-20486D01*
X58175Y-20524D01*
X58274Y-20525D01*
X58824Y-20525D01*
X58916Y-20487D01*
X58986Y-20416D01*
X59024Y-20324D01*
X59024Y-20300D01*
X59250Y-20300D01*
X59250Y-20299D01*
X59364Y-20277D01*
X59364Y-20277D01*
X59378Y-20268D01*
X59378Y-20268D01*
X59395Y-20274D01*
X59603Y-20275D01*
X59797Y-20195D01*
X59942Y-20050D01*
X59974Y-20050D01*
X59974Y-20324D01*
X60012Y-20416D01*
X60083Y-20486D01*
X60175Y-20524D01*
X60274Y-20525D01*
X60824Y-20525D01*
X60916Y-20487D01*
X60986Y-20416D01*
X61024Y-20324D01*
X61024Y-20300D01*
X61250Y-20300D01*
X61250Y-20299D01*
X61364Y-20277D01*
X61364Y-20277D01*
X61378Y-20268D01*
X61378Y-20268D01*
X61395Y-20274D01*
X61603Y-20275D01*
X61797Y-20195D01*
X61942Y-20050D01*
X61974Y-20050D01*
X61974Y-20324D01*
X62012Y-20416D01*
X62083Y-20486D01*
X62175Y-20524D01*
X62274Y-20525D01*
X62824Y-20525D01*
X62916Y-20487D01*
X62986Y-20416D01*
X63024Y-20324D01*
X63024Y-20300D01*
X63250Y-20300D01*
X63250Y-20299D01*
X63364Y-20277D01*
X63364Y-20277D01*
X63378Y-20268D01*
X63378Y-20268D01*
X63395Y-20274D01*
X63603Y-20275D01*
X63797Y-20195D01*
X63942Y-20050D01*
X63974Y-20050D01*
X63974Y-20324D01*
X64012Y-20416D01*
X64083Y-20486D01*
X64175Y-20524D01*
X64274Y-20525D01*
X64824Y-20525D01*
X64916Y-20487D01*
X64986Y-20416D01*
X65024Y-20324D01*
X65024Y-20300D01*
X65250Y-20300D01*
X65250Y-20299D01*
X65364Y-20277D01*
X65364Y-20277D01*
X65378Y-20268D01*
X65378Y-20268D01*
X65395Y-20274D01*
X65603Y-20275D01*
X65797Y-20195D01*
X65942Y-20050D01*
X69625Y-20050D01*
X69833Y-20257D01*
X69787Y-20287D01*
X68787Y-21287D01*
X68722Y-21385D01*
X68700Y-21500D01*
X68700Y-23698D01*
X68661Y-23737D01*
X66712Y-21787D01*
X66614Y-21722D01*
X66500Y-21700D01*
X57000Y-21700D01*
X56885Y-21722D01*
X56787Y-21787D01*
X56287Y-22287D01*
X56222Y-22385D01*
X56200Y-22500D01*
X56200Y-22557D01*
X56055Y-22702D01*
X55975Y-22895D01*
X55974Y-23024D01*
X55945Y-22953D01*
X55797Y-22805D01*
X55604Y-22725D01*
X55396Y-22724D01*
X55203Y-22804D01*
X55057Y-22950D01*
X55025Y-22950D01*
X55025Y-22896D01*
X54945Y-22703D01*
X54797Y-22555D01*
X54604Y-22475D01*
X54396Y-22474D01*
X54203Y-22554D01*
X54055Y-22702D01*
X53975Y-22895D01*
X53974Y-23024D01*
X53945Y-22953D01*
X53797Y-22805D01*
X53604Y-22725D01*
X53396Y-22724D01*
X53203Y-22804D01*
X53057Y-22950D01*
X53025Y-22950D01*
X53025Y-22896D01*
X52945Y-22703D01*
X52797Y-22555D01*
X52604Y-22475D01*
X52396Y-22474D01*
X52203Y-22554D01*
X52055Y-22702D01*
X51975Y-22895D01*
X51974Y-23024D01*
X51945Y-22953D01*
X51797Y-22805D01*
X51604Y-22725D01*
X51396Y-22724D01*
X51378Y-22732D01*
X51364Y-22722D01*
X51250Y-22700D01*
X50942Y-22700D01*
X50797Y-22555D01*
X50604Y-22475D01*
X50396Y-22474D01*
X50203Y-22554D01*
X50055Y-22702D01*
X49975Y-22895D01*
X49974Y-23100D01*
X49375Y-23700D01*
X42906Y-23700D01*
X42906Y-20477D01*
X42500Y-20070D01*
X42093Y-20477D01*
X42106Y-20626D01*
X42376Y-20728D01*
X42664Y-20720D01*
X42893Y-20626D01*
X42906Y-20477D01*
X42906Y-23700D01*
X42692Y-23700D01*
X42547Y-23555D01*
X42354Y-23475D01*
X42146Y-23474D01*
X41953Y-23554D01*
X41906Y-23601D01*
X41906Y-20477D01*
X41500Y-20070D01*
X41093Y-20477D01*
X41106Y-20626D01*
X41376Y-20728D01*
X41664Y-20720D01*
X41893Y-20626D01*
X41906Y-20477D01*
X41906Y-23601D01*
X41805Y-23702D01*
X41725Y-23895D01*
X41724Y-24103D01*
X41804Y-24297D01*
X41952Y-24444D01*
X42145Y-24524D01*
X42353Y-24525D01*
X42547Y-24445D01*
X42692Y-24300D01*
X49275Y-24300D01*
X48875Y-24700D01*
X47692Y-24700D01*
X47547Y-24555D01*
X47354Y-24475D01*
X47146Y-24474D01*
X46953Y-24554D01*
X46805Y-24702D01*
X46725Y-24895D01*
X46724Y-25103D01*
X46804Y-25297D01*
X46952Y-25444D01*
X47145Y-25524D01*
X47353Y-25525D01*
X47547Y-25445D01*
X47692Y-25300D01*
X49000Y-25300D01*
X49000Y-25299D01*
X49114Y-25277D01*
X49114Y-25277D01*
X49212Y-25212D01*
X50124Y-24300D01*
X52200Y-24300D01*
X52200Y-24474D01*
X52175Y-24474D01*
X52083Y-24512D01*
X52013Y-24583D01*
X51975Y-24675D01*
X51974Y-24774D01*
X51974Y-25324D01*
X52012Y-25416D01*
X52083Y-25486D01*
X52175Y-25524D01*
X52274Y-25525D01*
X52824Y-25525D01*
X52916Y-25487D01*
X52986Y-25416D01*
X53024Y-25324D01*
X53025Y-25225D01*
X53025Y-24675D01*
X52987Y-24583D01*
X52916Y-24513D01*
X52824Y-24475D01*
X52800Y-24475D01*
X52800Y-24290D01*
X52800Y-24290D01*
X52864Y-24277D01*
X52864Y-24277D01*
X52962Y-24212D01*
X53399Y-23774D01*
X53603Y-23775D01*
X53797Y-23695D01*
X53944Y-23547D01*
X54024Y-23354D01*
X54025Y-23225D01*
X54054Y-23297D01*
X54200Y-23442D01*
X54200Y-24474D01*
X54175Y-24474D01*
X54083Y-24512D01*
X54013Y-24583D01*
X53975Y-24675D01*
X53974Y-24774D01*
X53974Y-25324D01*
X54012Y-25416D01*
X54083Y-25486D01*
X54175Y-25524D01*
X54200Y-25524D01*
X54200Y-25700D01*
X51025Y-25700D01*
X51025Y-25225D01*
X51025Y-24675D01*
X50987Y-24583D01*
X50916Y-24513D01*
X50824Y-24475D01*
X50725Y-24474D01*
X50175Y-24474D01*
X50083Y-24512D01*
X50013Y-24583D01*
X49975Y-24675D01*
X49974Y-24774D01*
X49974Y-25324D01*
X50012Y-25416D01*
X50083Y-25486D01*
X50175Y-25524D01*
X50274Y-25525D01*
X50824Y-25525D01*
X50916Y-25487D01*
X50986Y-25416D01*
X51024Y-25324D01*
X51025Y-25225D01*
X51025Y-25700D01*
X42692Y-25700D01*
X42547Y-25555D01*
X42354Y-25475D01*
X42146Y-25474D01*
X41953Y-25554D01*
X41805Y-25702D01*
X41725Y-25895D01*
X41724Y-26103D01*
X41804Y-26297D01*
X41952Y-26444D01*
X42145Y-26524D01*
X42353Y-26525D01*
X42547Y-26445D01*
X42692Y-26300D01*
X54500Y-26300D01*
X66875Y-26300D01*
X66975Y-26399D01*
X66974Y-26603D01*
X67054Y-26797D01*
X67202Y-26944D01*
X67335Y-27000D01*
X67203Y-27054D01*
X67057Y-27200D01*
X48500Y-27200D01*
X48385Y-27222D01*
X48287Y-27287D01*
X47875Y-27700D01*
X42692Y-27700D01*
X42547Y-27555D01*
X42354Y-27475D01*
X42146Y-27474D01*
X41953Y-27554D01*
X41805Y-27702D01*
X41725Y-27895D01*
X41724Y-28103D01*
X41804Y-28297D01*
X41952Y-28444D01*
X42145Y-28524D01*
X42353Y-28525D01*
X42547Y-28445D01*
X42692Y-28300D01*
X48000Y-28300D01*
X48000Y-28299D01*
X48114Y-28277D01*
X48114Y-28277D01*
X48212Y-28212D01*
X48624Y-27800D01*
X49800Y-27800D01*
X49771Y-27876D01*
X49779Y-28164D01*
X49873Y-28393D01*
X50022Y-28406D01*
X50429Y-28000D01*
X50423Y-27994D01*
X50494Y-27923D01*
X50500Y-27929D01*
X50505Y-27923D01*
X50576Y-27994D01*
X50570Y-28000D01*
X50977Y-28406D01*
X51126Y-28393D01*
X51228Y-28123D01*
X51220Y-27835D01*
X51206Y-27800D01*
X51800Y-27800D01*
X51771Y-27876D01*
X51779Y-28164D01*
X51873Y-28393D01*
X52022Y-28406D01*
X52429Y-28000D01*
X52423Y-27994D01*
X52494Y-27923D01*
X52500Y-27929D01*
X52505Y-27923D01*
X52576Y-27994D01*
X52570Y-28000D01*
X52977Y-28406D01*
X53126Y-28393D01*
X53228Y-28123D01*
X53220Y-27835D01*
X53206Y-27800D01*
X53800Y-27800D01*
X53771Y-27876D01*
X53779Y-28164D01*
X53873Y-28393D01*
X54022Y-28406D01*
X54429Y-28000D01*
X54423Y-27994D01*
X54494Y-27923D01*
X54500Y-27929D01*
X54505Y-27923D01*
X54576Y-27994D01*
X54570Y-28000D01*
X54977Y-28406D01*
X55126Y-28393D01*
X55228Y-28123D01*
X55220Y-27835D01*
X55206Y-27800D01*
X55800Y-27800D01*
X55771Y-27876D01*
X55779Y-28164D01*
X55873Y-28393D01*
X56022Y-28406D01*
X56429Y-28000D01*
X56423Y-27994D01*
X56494Y-27923D01*
X56500Y-27929D01*
X56505Y-27923D01*
X56576Y-27994D01*
X56570Y-28000D01*
X56977Y-28406D01*
X57126Y-28393D01*
X57228Y-28123D01*
X57220Y-27835D01*
X57206Y-27800D01*
X57800Y-27800D01*
X57771Y-27876D01*
X57779Y-28164D01*
X57873Y-28393D01*
X58022Y-28406D01*
X58429Y-28000D01*
X58423Y-27994D01*
X58494Y-27923D01*
X58500Y-27929D01*
X58505Y-27923D01*
X58576Y-27994D01*
X58570Y-28000D01*
X58977Y-28406D01*
X59126Y-28393D01*
X59228Y-28123D01*
X59220Y-27835D01*
X59206Y-27800D01*
X59800Y-27800D01*
X59771Y-27876D01*
X59779Y-28164D01*
X59873Y-28393D01*
X60022Y-28406D01*
X60429Y-28000D01*
X60423Y-27994D01*
X60494Y-27923D01*
X60500Y-27929D01*
X60505Y-27923D01*
X60576Y-27994D01*
X60570Y-28000D01*
X60977Y-28406D01*
X61126Y-28393D01*
X61228Y-28123D01*
X61220Y-27835D01*
X61206Y-27800D01*
X61800Y-27800D01*
X61771Y-27876D01*
X61779Y-28164D01*
X61873Y-28393D01*
X62022Y-28406D01*
X62429Y-28000D01*
X62423Y-27994D01*
X62494Y-27923D01*
X62500Y-27929D01*
X62505Y-27923D01*
X62576Y-27994D01*
X62570Y-28000D01*
X62977Y-28406D01*
X63126Y-28393D01*
X63228Y-28123D01*
X63220Y-27835D01*
X63206Y-27800D01*
X63800Y-27800D01*
X63771Y-27876D01*
X63779Y-28164D01*
X63873Y-28393D01*
X64022Y-28406D01*
X64429Y-28000D01*
X64423Y-27994D01*
X64494Y-27923D01*
X64500Y-27929D01*
X64505Y-27923D01*
X64576Y-27994D01*
X64570Y-28000D01*
X64977Y-28406D01*
X65126Y-28393D01*
X65228Y-28123D01*
X65220Y-27835D01*
X65206Y-27800D01*
X67057Y-27800D01*
X67202Y-27944D01*
X67335Y-28000D01*
X67203Y-28054D01*
X67055Y-28202D01*
X66975Y-28395D01*
X66974Y-28600D01*
X66875Y-28700D01*
X64714Y-28700D01*
X64893Y-28626D01*
X64906Y-28477D01*
X64500Y-28070D01*
X64093Y-28477D01*
X64106Y-28626D01*
X64300Y-28700D01*
X62714Y-28700D01*
X62893Y-28626D01*
X62906Y-28477D01*
X62500Y-28070D01*
X62093Y-28477D01*
X62106Y-28626D01*
X62300Y-28700D01*
X60714Y-28700D01*
X60893Y-28626D01*
X60906Y-28477D01*
X60500Y-28070D01*
X60093Y-28477D01*
X60106Y-28626D01*
X60300Y-28700D01*
X58714Y-28700D01*
X58893Y-28626D01*
X58906Y-28477D01*
X58500Y-28070D01*
X58093Y-28477D01*
X58106Y-28626D01*
X58300Y-28700D01*
X57801Y-28700D01*
X57741Y-28639D01*
X57584Y-28575D01*
X57415Y-28574D01*
X57259Y-28639D01*
X57198Y-28700D01*
X56714Y-28700D01*
X56893Y-28626D01*
X56906Y-28477D01*
X56500Y-28070D01*
X56093Y-28477D01*
X56106Y-28626D01*
X56300Y-28700D01*
X54714Y-28700D01*
X54893Y-28626D01*
X54906Y-28477D01*
X54500Y-28070D01*
X54093Y-28477D01*
X54106Y-28626D01*
X54300Y-28700D01*
X52714Y-28700D01*
X52893Y-28626D01*
X52906Y-28477D01*
X52500Y-28070D01*
X52093Y-28477D01*
X52106Y-28626D01*
X52300Y-28700D01*
X50714Y-28700D01*
X50893Y-28626D01*
X50906Y-28477D01*
X50500Y-28070D01*
X50093Y-28477D01*
X50106Y-28626D01*
X50300Y-28700D01*
X47692Y-28700D01*
X47547Y-28555D01*
X47354Y-28475D01*
X47146Y-28474D01*
X46953Y-28554D01*
X46805Y-28702D01*
X46725Y-28895D01*
X46724Y-29103D01*
X46804Y-29297D01*
X46952Y-29444D01*
X47145Y-29524D01*
X47353Y-29525D01*
X47547Y-29445D01*
X47692Y-29300D01*
X57198Y-29300D01*
X57258Y-29360D01*
X57415Y-29424D01*
X57584Y-29425D01*
X57740Y-29360D01*
X57801Y-29300D01*
X67000Y-29300D01*
X67000Y-29299D01*
X67015Y-29296D01*
X66975Y-29395D01*
X66974Y-29600D01*
X66875Y-29700D01*
X61500Y-29700D01*
X59801Y-29700D01*
X59741Y-29639D01*
X59584Y-29575D01*
X59415Y-29574D01*
X59259Y-29639D01*
X59198Y-29700D01*
X42692Y-29700D01*
X42547Y-29555D01*
X42354Y-29475D01*
X42146Y-29474D01*
X41953Y-29554D01*
X41805Y-29702D01*
X41725Y-29895D01*
X41724Y-30103D01*
X41804Y-30297D01*
X41952Y-30444D01*
X42145Y-30524D01*
X42353Y-30525D01*
X42547Y-30445D01*
X42692Y-30300D01*
X59198Y-30300D01*
X59258Y-30360D01*
X59415Y-30424D01*
X59584Y-30425D01*
X59740Y-30360D01*
X59801Y-30300D01*
X61500Y-30300D01*
X67000Y-30300D01*
X67000Y-30299D01*
X67015Y-30296D01*
X66975Y-30395D01*
X66974Y-30600D01*
X66875Y-30700D01*
X61801Y-30700D01*
X61741Y-30639D01*
X61584Y-30575D01*
X61415Y-30574D01*
X61259Y-30639D01*
X61198Y-30700D01*
X47692Y-30700D01*
X47547Y-30555D01*
X47354Y-30475D01*
X47146Y-30474D01*
X46953Y-30554D01*
X46805Y-30702D01*
X46725Y-30895D01*
X46724Y-31103D01*
X46804Y-31297D01*
X46952Y-31444D01*
X47145Y-31524D01*
X47353Y-31525D01*
X47547Y-31445D01*
X47692Y-31300D01*
X61198Y-31300D01*
X61258Y-31360D01*
X61415Y-31424D01*
X61584Y-31425D01*
X61740Y-31360D01*
X61801Y-31300D01*
X67000Y-31300D01*
X67000Y-31299D01*
X67015Y-31296D01*
X66975Y-31395D01*
X66974Y-31600D01*
X66875Y-31700D01*
X63801Y-31700D01*
X63741Y-31639D01*
X63584Y-31575D01*
X63415Y-31574D01*
X63259Y-31639D01*
X63198Y-31700D01*
X44275Y-31700D01*
X44275Y-30896D01*
X44195Y-30703D01*
X44047Y-30555D01*
X43854Y-30475D01*
X43646Y-30474D01*
X43453Y-30554D01*
X43307Y-30700D01*
X34942Y-30700D01*
X34797Y-30555D01*
X34664Y-30499D01*
X34797Y-30445D01*
X34942Y-30300D01*
X38307Y-30300D01*
X38452Y-30444D01*
X38645Y-30524D01*
X38853Y-30525D01*
X39047Y-30445D01*
X39194Y-30297D01*
X39274Y-30104D01*
X39275Y-29896D01*
X39195Y-29703D01*
X39047Y-29555D01*
X38854Y-29475D01*
X38646Y-29474D01*
X38453Y-29554D01*
X38307Y-29700D01*
X34942Y-29700D01*
X34797Y-29555D01*
X34664Y-29499D01*
X34797Y-29445D01*
X34942Y-29300D01*
X43307Y-29300D01*
X43452Y-29444D01*
X43645Y-29524D01*
X43853Y-29525D01*
X44047Y-29445D01*
X44194Y-29297D01*
X44274Y-29104D01*
X44275Y-28896D01*
X44195Y-28703D01*
X44047Y-28555D01*
X43854Y-28475D01*
X43646Y-28474D01*
X43453Y-28554D01*
X43307Y-28700D01*
X34942Y-28700D01*
X34797Y-28555D01*
X34664Y-28499D01*
X34797Y-28445D01*
X34942Y-28300D01*
X38307Y-28300D01*
X38452Y-28444D01*
X38645Y-28524D01*
X38853Y-28525D01*
X39047Y-28445D01*
X39194Y-28297D01*
X39274Y-28104D01*
X39275Y-27896D01*
X39195Y-27703D01*
X39047Y-27555D01*
X38854Y-27475D01*
X38646Y-27474D01*
X38453Y-27554D01*
X38307Y-27700D01*
X34942Y-27700D01*
X34797Y-27555D01*
X34664Y-27499D01*
X34797Y-27445D01*
X34944Y-27297D01*
X35024Y-27104D01*
X35025Y-26896D01*
X34945Y-26703D01*
X34797Y-26555D01*
X34664Y-26499D01*
X34797Y-26445D01*
X34942Y-26300D01*
X38307Y-26300D01*
X38452Y-26444D01*
X38645Y-26524D01*
X38853Y-26525D01*
X39047Y-26445D01*
X39194Y-26297D01*
X39274Y-26104D01*
X39275Y-25896D01*
X39195Y-25703D01*
X39047Y-25555D01*
X38854Y-25475D01*
X38646Y-25474D01*
X38453Y-25554D01*
X38307Y-25700D01*
X34942Y-25700D01*
X34797Y-25555D01*
X34664Y-25499D01*
X34797Y-25445D01*
X34942Y-25300D01*
X43307Y-25300D01*
X43452Y-25444D01*
X43645Y-25524D01*
X43853Y-25525D01*
X44047Y-25445D01*
X44194Y-25297D01*
X44274Y-25104D01*
X44275Y-24896D01*
X44195Y-24703D01*
X44047Y-24555D01*
X43854Y-24475D01*
X43646Y-24474D01*
X43453Y-24554D01*
X43307Y-24700D01*
X34942Y-24700D01*
X34797Y-24555D01*
X34664Y-24499D01*
X34797Y-24445D01*
X34942Y-24300D01*
X38307Y-24300D01*
X38452Y-24444D01*
X38645Y-24524D01*
X38853Y-24525D01*
X39047Y-24445D01*
X39194Y-24297D01*
X39274Y-24104D01*
X39275Y-23896D01*
X39195Y-23703D01*
X39047Y-23555D01*
X38854Y-23475D01*
X38646Y-23474D01*
X38453Y-23554D01*
X38307Y-23700D01*
X36580Y-23700D01*
X37275Y-23412D01*
X37910Y-22779D01*
X38254Y-21950D01*
X38255Y-21053D01*
X37912Y-20224D01*
X37279Y-19589D01*
X36450Y-19245D01*
X35553Y-19244D01*
X34724Y-19587D01*
X34089Y-20220D01*
X33745Y-21049D01*
X33744Y-21946D01*
X34087Y-22775D01*
X34720Y-23410D01*
X35417Y-23700D01*
X34942Y-23700D01*
X34797Y-23555D01*
X34604Y-23475D01*
X34396Y-23474D01*
X34203Y-23554D01*
X34055Y-23702D01*
X33975Y-23895D01*
X33974Y-24103D01*
X34054Y-24297D01*
X34202Y-24444D01*
X34335Y-24500D01*
X34203Y-24554D01*
X34055Y-24702D01*
X33975Y-24895D01*
X33974Y-25103D01*
X34054Y-25297D01*
X34202Y-25444D01*
X34335Y-25500D01*
X34203Y-25554D01*
X34055Y-25702D01*
X33975Y-25895D01*
X33974Y-26103D01*
X34054Y-26297D01*
X34202Y-26444D01*
X34335Y-26500D01*
X34203Y-26554D01*
X34055Y-26702D01*
X33975Y-26895D01*
X33974Y-27103D01*
X34054Y-27297D01*
X34202Y-27444D01*
X34335Y-27500D01*
X34203Y-27554D01*
X34055Y-27702D01*
X33975Y-27895D01*
X33974Y-28103D01*
X34054Y-28297D01*
X34202Y-28444D01*
X34335Y-28500D01*
X34203Y-28554D01*
X34055Y-28702D01*
X33975Y-28895D01*
X33974Y-29103D01*
X34054Y-29297D01*
X34202Y-29444D01*
X34335Y-29500D01*
X34203Y-29554D01*
X34055Y-29702D01*
X33975Y-29895D01*
X33974Y-30103D01*
X34054Y-30297D01*
X34202Y-30444D01*
X34335Y-30500D01*
X34203Y-30554D01*
X34055Y-30702D01*
X33975Y-30895D01*
X33974Y-31103D01*
X34054Y-31297D01*
X34202Y-31444D01*
X34335Y-31500D01*
X34203Y-31554D01*
X34055Y-31702D01*
X33975Y-31895D01*
X33974Y-32103D01*
X34054Y-32297D01*
X34062Y-32305D01*
X33969Y-32343D01*
X33843Y-32470D01*
X33774Y-32635D01*
X33775Y-32837D01*
X33887Y-32950D01*
X34450Y-32950D01*
X34450Y-32942D01*
X34550Y-32942D01*
X34550Y-32950D01*
X35112Y-32950D01*
X35225Y-32837D01*
X35225Y-32635D01*
X35156Y-32470D01*
X35030Y-32343D01*
X34937Y-32305D01*
X34942Y-32300D01*
X38307Y-32300D01*
X38452Y-32444D01*
X38645Y-32524D01*
X38853Y-32525D01*
X39047Y-32445D01*
X39194Y-32297D01*
X39274Y-32104D01*
X39275Y-31896D01*
X39195Y-31703D01*
X39047Y-31555D01*
X38854Y-31475D01*
X38646Y-31474D01*
X38453Y-31554D01*
X38307Y-31700D01*
X34942Y-31700D01*
X34797Y-31555D01*
X34664Y-31499D01*
X34797Y-31445D01*
X34942Y-31300D01*
X43307Y-31300D01*
X43452Y-31444D01*
X43645Y-31524D01*
X43853Y-31525D01*
X44047Y-31445D01*
X44194Y-31297D01*
X44274Y-31104D01*
X44275Y-30896D01*
X44275Y-31700D01*
X42692Y-31700D01*
X42547Y-31555D01*
X42354Y-31475D01*
X42146Y-31474D01*
X41953Y-31554D01*
X41805Y-31702D01*
X41725Y-31895D01*
X41724Y-32103D01*
X41804Y-32297D01*
X41952Y-32444D01*
X42145Y-32524D01*
X42353Y-32525D01*
X42547Y-32445D01*
X42692Y-32300D01*
X63198Y-32300D01*
X63258Y-32360D01*
X63415Y-32424D01*
X63584Y-32425D01*
X63740Y-32360D01*
X63801Y-32300D01*
X67000Y-32300D01*
X67000Y-32299D01*
X67015Y-32296D01*
X66975Y-32395D01*
X66974Y-32603D01*
X67054Y-32797D01*
X67202Y-32944D01*
X67395Y-33024D01*
X67603Y-33025D01*
X67797Y-32945D01*
X67944Y-32797D01*
X68024Y-32604D01*
X68025Y-32396D01*
X67945Y-32203D01*
X67797Y-32055D01*
X67664Y-31999D01*
X67797Y-31945D01*
X67944Y-31797D01*
X68024Y-31604D01*
X68025Y-31396D01*
X67945Y-31203D01*
X67797Y-31055D01*
X67664Y-30999D01*
X67797Y-30945D01*
X67944Y-30797D01*
X68024Y-30604D01*
X68025Y-30396D01*
X67945Y-30203D01*
X67797Y-30055D01*
X67664Y-29999D01*
X67797Y-29945D01*
X67944Y-29797D01*
X68024Y-29604D01*
X68025Y-29396D01*
X67945Y-29203D01*
X67797Y-29055D01*
X67664Y-28999D01*
X67797Y-28945D01*
X67944Y-28797D01*
X68024Y-28604D01*
X68025Y-28396D01*
X67945Y-28203D01*
X67797Y-28055D01*
X67664Y-27999D01*
X67797Y-27945D01*
X67944Y-27797D01*
X68024Y-27604D01*
X68025Y-27399D01*
X68712Y-26712D01*
X68712Y-26712D01*
X68777Y-26614D01*
X68799Y-26500D01*
X68800Y-26500D01*
X68800Y-24377D01*
X68915Y-24424D01*
X69084Y-24425D01*
X69240Y-24360D01*
X69360Y-24241D01*
X69424Y-24084D01*
X69425Y-23915D01*
X69360Y-23759D01*
X69300Y-23698D01*
X69300Y-21624D01*
X70090Y-20833D01*
X70202Y-20944D01*
X70395Y-21024D01*
X70603Y-21025D01*
X70797Y-20945D01*
X70866Y-20875D01*
X70873Y-20893D01*
X71022Y-20906D01*
X71429Y-20500D01*
X71429Y-20641D01*
X71093Y-20977D01*
X71106Y-21126D01*
X71376Y-21228D01*
X71664Y-21220D01*
X71893Y-21126D01*
X71906Y-20977D01*
X71906Y-22522D01*
X71893Y-22373D01*
X71623Y-22271D01*
X71335Y-22279D01*
X71106Y-22373D01*
X71093Y-22522D01*
X71500Y-22929D01*
X71906Y-22522D01*
X71906Y-22664D01*
X71570Y-23000D01*
X71977Y-23406D01*
X72126Y-23393D01*
X72228Y-23123D01*
X72228Y-27200D01*
X71906Y-27200D01*
X71906Y-23477D01*
X71500Y-23070D01*
X71429Y-23141D01*
X71429Y-23000D01*
X71022Y-22593D01*
X70873Y-22606D01*
X70867Y-22624D01*
X70797Y-22555D01*
X70604Y-22475D01*
X70396Y-22474D01*
X70203Y-22554D01*
X70055Y-22702D01*
X69975Y-22895D01*
X69974Y-23103D01*
X70054Y-23297D01*
X70202Y-23444D01*
X70395Y-23524D01*
X70603Y-23525D01*
X70797Y-23445D01*
X70866Y-23375D01*
X70873Y-23393D01*
X71022Y-23406D01*
X71429Y-23000D01*
X71429Y-23141D01*
X71093Y-23477D01*
X71106Y-23626D01*
X71376Y-23728D01*
X71664Y-23720D01*
X71893Y-23626D01*
X71906Y-23477D01*
X71906Y-27200D01*
X71228Y-27200D01*
X71228Y-25623D01*
X71220Y-25335D01*
X71126Y-25106D01*
X70977Y-25093D01*
X70906Y-25164D01*
X70906Y-25022D01*
X70893Y-24873D01*
X70623Y-24771D01*
X70335Y-24779D01*
X70106Y-24873D01*
X70093Y-25022D01*
X70500Y-25429D01*
X70906Y-25022D01*
X70906Y-25164D01*
X70570Y-25500D01*
X70977Y-25906D01*
X71126Y-25893D01*
X71228Y-25623D01*
X71228Y-27200D01*
X70942Y-27200D01*
X70797Y-27055D01*
X70664Y-26999D01*
X70797Y-26945D01*
X70944Y-26797D01*
X71024Y-26604D01*
X71025Y-26396D01*
X70945Y-26203D01*
X70875Y-26133D01*
X70893Y-26126D01*
X70906Y-25977D01*
X70500Y-25570D01*
X70429Y-25641D01*
X70429Y-25500D01*
X70022Y-25093D01*
X69873Y-25106D01*
X69771Y-25376D01*
X69779Y-25664D01*
X69873Y-25893D01*
X70022Y-25906D01*
X70429Y-25500D01*
X70429Y-25641D01*
X70093Y-25977D01*
X70106Y-26126D01*
X70124Y-26132D01*
X70055Y-26202D01*
X69975Y-26395D01*
X69974Y-26603D01*
X70054Y-26797D01*
X70202Y-26944D01*
X70335Y-27000D01*
X70203Y-27054D01*
X70055Y-27202D01*
X69975Y-27395D01*
X69974Y-27603D01*
X70054Y-27797D01*
X70124Y-27866D01*
X70106Y-27873D01*
X70093Y-28022D01*
X70500Y-28429D01*
X70906Y-28022D01*
X70893Y-27873D01*
X70875Y-27867D01*
X70942Y-27800D01*
X72500Y-27800D01*
X72500Y-27799D01*
X72614Y-27777D01*
X72614Y-27777D01*
X72712Y-27712D01*
X73212Y-27212D01*
X73212Y-27212D01*
X73277Y-27114D01*
X73299Y-27000D01*
X73300Y-27000D01*
X73300Y-26124D01*
X73624Y-25800D01*
X74899Y-25800D01*
X74899Y-25899D01*
X74914Y-25933D01*
X74888Y-25959D01*
X74968Y-26039D01*
X74811Y-26061D01*
X74696Y-26358D01*
X74703Y-26676D01*
X74811Y-26938D01*
X74968Y-26960D01*
X75429Y-26500D01*
X75423Y-26494D01*
X75494Y-26423D01*
X75500Y-26429D01*
X75505Y-26423D01*
X75576Y-26494D01*
X75570Y-26500D01*
X76031Y-26960D01*
X76188Y-26938D01*
X76303Y-26641D01*
X76303Y-31013D01*
X76203Y-31054D01*
X76100Y-31157D01*
X76100Y-27381D01*
X76008Y-27160D01*
X75950Y-27101D01*
X75960Y-27031D01*
X75500Y-26570D01*
X75429Y-26641D01*
X75039Y-27031D01*
X75049Y-27101D01*
X74991Y-27159D01*
X74900Y-27380D01*
X74899Y-27618D01*
X74991Y-27839D01*
X75159Y-28008D01*
X75380Y-28099D01*
X75618Y-28100D01*
X75839Y-28008D01*
X76008Y-27840D01*
X76099Y-27619D01*
X76100Y-27381D01*
X76100Y-31157D01*
X76057Y-31200D01*
X75500Y-31200D01*
X75385Y-31222D01*
X75287Y-31287D01*
X72787Y-33787D01*
X72722Y-33885D01*
X72700Y-34000D01*
X72700Y-38375D01*
X71375Y-39700D01*
X70942Y-39700D01*
X70797Y-39555D01*
X70664Y-39499D01*
X70797Y-39445D01*
X70944Y-39297D01*
X71024Y-39104D01*
X71025Y-38896D01*
X70945Y-38703D01*
X70797Y-38555D01*
X70664Y-38499D01*
X70797Y-38445D01*
X70944Y-38297D01*
X71024Y-38104D01*
X71025Y-37896D01*
X70945Y-37703D01*
X70797Y-37555D01*
X70664Y-37499D01*
X70797Y-37445D01*
X70942Y-37300D01*
X71500Y-37300D01*
X71500Y-37299D01*
X71614Y-37277D01*
X71614Y-37277D01*
X71712Y-37212D01*
X72212Y-36712D01*
X72212Y-36712D01*
X72277Y-36614D01*
X72299Y-36500D01*
X72300Y-36500D01*
X72300Y-35500D01*
X72277Y-35385D01*
X72212Y-35287D01*
X72212Y-35287D01*
X71712Y-34787D01*
X71614Y-34722D01*
X71500Y-34700D01*
X67801Y-34700D01*
X67741Y-34639D01*
X67584Y-34575D01*
X67415Y-34574D01*
X67259Y-34639D01*
X67161Y-34737D01*
X66802Y-34378D01*
X66915Y-34424D01*
X67084Y-34425D01*
X67240Y-34360D01*
X67301Y-34300D01*
X70698Y-34300D01*
X70758Y-34360D01*
X70915Y-34424D01*
X71084Y-34425D01*
X71240Y-34360D01*
X71360Y-34241D01*
X71424Y-34084D01*
X71425Y-33915D01*
X71360Y-33759D01*
X71241Y-33639D01*
X71228Y-33634D01*
X71228Y-29623D01*
X71228Y-28623D01*
X71220Y-28335D01*
X71126Y-28106D01*
X70977Y-28093D01*
X70570Y-28500D01*
X70977Y-28906D01*
X71126Y-28893D01*
X71228Y-28623D01*
X71228Y-29623D01*
X71220Y-29335D01*
X71126Y-29106D01*
X70977Y-29093D01*
X70906Y-29164D01*
X70906Y-29022D01*
X70904Y-29000D01*
X70906Y-28977D01*
X70901Y-28972D01*
X70893Y-28873D01*
X70747Y-28818D01*
X70500Y-28570D01*
X70429Y-28641D01*
X70429Y-28500D01*
X70022Y-28093D01*
X69873Y-28106D01*
X69771Y-28376D01*
X69779Y-28664D01*
X69873Y-28893D01*
X70022Y-28906D01*
X70429Y-28500D01*
X70429Y-28641D01*
X70260Y-28810D01*
X70106Y-28873D01*
X70098Y-28972D01*
X70093Y-28977D01*
X70095Y-29000D01*
X70093Y-29022D01*
X70098Y-29027D01*
X70106Y-29126D01*
X70252Y-29181D01*
X70500Y-29429D01*
X70739Y-29189D01*
X70893Y-29126D01*
X70901Y-29027D01*
X70906Y-29022D01*
X70906Y-29164D01*
X70570Y-29500D01*
X70977Y-29906D01*
X71126Y-29893D01*
X71228Y-29623D01*
X71228Y-33634D01*
X71084Y-33575D01*
X71025Y-33575D01*
X71025Y-31396D01*
X70945Y-31203D01*
X70797Y-31055D01*
X70664Y-30999D01*
X70797Y-30945D01*
X70944Y-30797D01*
X71024Y-30604D01*
X71025Y-30396D01*
X70945Y-30203D01*
X70875Y-30133D01*
X70893Y-30126D01*
X70906Y-29977D01*
X70500Y-29570D01*
X70429Y-29641D01*
X70429Y-29500D01*
X70022Y-29093D01*
X69873Y-29106D01*
X69771Y-29376D01*
X69779Y-29664D01*
X69873Y-29893D01*
X70022Y-29906D01*
X70429Y-29500D01*
X70429Y-29641D01*
X70093Y-29977D01*
X70106Y-30126D01*
X70124Y-30132D01*
X70055Y-30202D01*
X69975Y-30395D01*
X69974Y-30603D01*
X70054Y-30797D01*
X70202Y-30944D01*
X70335Y-31000D01*
X70203Y-31054D01*
X70055Y-31202D01*
X69975Y-31395D01*
X69974Y-31603D01*
X70054Y-31797D01*
X70202Y-31944D01*
X70274Y-31974D01*
X70175Y-31974D01*
X70083Y-32012D01*
X70013Y-32083D01*
X69975Y-32175D01*
X69974Y-32274D01*
X69974Y-32824D01*
X70012Y-32916D01*
X70083Y-32986D01*
X70175Y-33024D01*
X70274Y-33025D01*
X70824Y-33025D01*
X70916Y-32987D01*
X70986Y-32916D01*
X71024Y-32824D01*
X71025Y-32725D01*
X71025Y-32175D01*
X70987Y-32083D01*
X70916Y-32013D01*
X70824Y-31975D01*
X70725Y-31974D01*
X70725Y-31974D01*
X70797Y-31945D01*
X70944Y-31797D01*
X71024Y-31604D01*
X71025Y-31396D01*
X71025Y-33575D01*
X70915Y-33574D01*
X70759Y-33639D01*
X70698Y-33700D01*
X68877Y-33700D01*
X68924Y-33584D01*
X68925Y-33415D01*
X68860Y-33259D01*
X68741Y-33139D01*
X68584Y-33075D01*
X68415Y-33074D01*
X68259Y-33139D01*
X68198Y-33200D01*
X53000Y-33200D01*
X52885Y-33222D01*
X52787Y-33287D01*
X52722Y-33385D01*
X52700Y-33500D01*
X52700Y-33807D01*
X52557Y-33950D01*
X51442Y-33950D01*
X51297Y-33805D01*
X51104Y-33725D01*
X50896Y-33724D01*
X50703Y-33804D01*
X50555Y-33952D01*
X50475Y-34145D01*
X50474Y-34353D01*
X50554Y-34547D01*
X50702Y-34694D01*
X50895Y-34774D01*
X51103Y-34775D01*
X51297Y-34695D01*
X51442Y-34550D01*
X52557Y-34550D01*
X52702Y-34694D01*
X52895Y-34774D01*
X53103Y-34775D01*
X53297Y-34695D01*
X53444Y-34547D01*
X53524Y-34354D01*
X53525Y-34146D01*
X53445Y-33953D01*
X53300Y-33807D01*
X53300Y-33800D01*
X54714Y-33800D01*
X54703Y-33804D01*
X54555Y-33952D01*
X54475Y-34145D01*
X54474Y-34353D01*
X54554Y-34547D01*
X54702Y-34694D01*
X54895Y-34774D01*
X55103Y-34775D01*
X55297Y-34695D01*
X55442Y-34550D01*
X56557Y-34550D01*
X56702Y-34694D01*
X56895Y-34774D01*
X57103Y-34775D01*
X57297Y-34695D01*
X57442Y-34550D01*
X66125Y-34550D01*
X66197Y-34621D01*
X66084Y-34575D01*
X65915Y-34574D01*
X65759Y-34639D01*
X65698Y-34700D01*
X61500Y-34700D01*
X61385Y-34722D01*
X61287Y-34787D01*
X57875Y-38200D01*
X57285Y-38200D01*
X57297Y-38195D01*
X57444Y-38047D01*
X57524Y-37854D01*
X57525Y-37646D01*
X57445Y-37453D01*
X57297Y-37305D01*
X57104Y-37225D01*
X56899Y-37224D01*
X55462Y-35787D01*
X55364Y-35722D01*
X55250Y-35700D01*
X49025Y-35700D01*
X49025Y-34146D01*
X48945Y-33953D01*
X48797Y-33805D01*
X48604Y-33725D01*
X48399Y-33724D01*
X47962Y-33287D01*
X47864Y-33222D01*
X47750Y-33200D01*
X41000Y-33200D01*
X40885Y-33222D01*
X40787Y-33287D01*
X39287Y-34787D01*
X39222Y-34885D01*
X39200Y-35000D01*
X39200Y-36875D01*
X37375Y-38700D01*
X37192Y-38700D01*
X37047Y-38555D01*
X36914Y-38499D01*
X37047Y-38445D01*
X37194Y-38297D01*
X37274Y-38104D01*
X37275Y-37896D01*
X37195Y-37703D01*
X37047Y-37555D01*
X36854Y-37475D01*
X36646Y-37474D01*
X36453Y-37554D01*
X36307Y-37700D01*
X35225Y-37700D01*
X35225Y-33364D01*
X35225Y-33162D01*
X35112Y-33050D01*
X34550Y-33050D01*
X34550Y-33612D01*
X34662Y-33725D01*
X34685Y-33725D01*
X34864Y-33724D01*
X35030Y-33656D01*
X35156Y-33529D01*
X35225Y-33364D01*
X35225Y-37700D01*
X35025Y-37700D01*
X35025Y-37675D01*
X34987Y-37583D01*
X34916Y-37513D01*
X34824Y-37475D01*
X34725Y-37474D01*
X34450Y-37474D01*
X34450Y-33612D01*
X34450Y-33050D01*
X33887Y-33050D01*
X33775Y-33162D01*
X33774Y-33364D01*
X33843Y-33529D01*
X33969Y-33656D01*
X34135Y-33724D01*
X34314Y-33725D01*
X34337Y-33725D01*
X34450Y-33612D01*
X34450Y-37474D01*
X34175Y-37474D01*
X34083Y-37512D01*
X34013Y-37583D01*
X33975Y-37675D01*
X33974Y-37774D01*
X33974Y-38324D01*
X34012Y-38416D01*
X34083Y-38486D01*
X34175Y-38524D01*
X34274Y-38525D01*
X34274Y-38525D01*
X34203Y-38554D01*
X34055Y-38702D01*
X33975Y-38895D01*
X33974Y-39103D01*
X34054Y-39297D01*
X34202Y-39444D01*
X34335Y-39500D01*
X34203Y-39554D01*
X34055Y-39702D01*
X33975Y-39895D01*
X33974Y-40103D01*
X34054Y-40297D01*
X34202Y-40444D01*
X34335Y-40500D01*
X34203Y-40554D01*
X34055Y-40702D01*
X33975Y-40895D01*
X33974Y-41103D01*
X34054Y-41297D01*
X34202Y-41444D01*
X34335Y-41500D01*
X34203Y-41554D01*
X34055Y-41702D01*
X33975Y-41895D01*
X33974Y-42103D01*
X34054Y-42297D01*
X34202Y-42444D01*
X34335Y-42500D01*
X34203Y-42554D01*
X34055Y-42702D01*
X33975Y-42895D01*
X33974Y-43103D01*
X34054Y-43297D01*
X34202Y-43444D01*
X34335Y-43500D01*
X34203Y-43554D01*
X34055Y-43702D01*
X33975Y-43895D01*
X33974Y-44103D01*
X34054Y-44297D01*
X34202Y-44444D01*
X34335Y-44500D01*
X34203Y-44554D01*
X34055Y-44702D01*
X33975Y-44895D01*
X33974Y-45103D01*
X34054Y-45297D01*
X34202Y-45444D01*
X34335Y-45500D01*
X34203Y-45554D01*
X34055Y-45702D01*
X33975Y-45895D01*
X33974Y-46103D01*
X34054Y-46297D01*
X34124Y-46366D01*
X34106Y-46373D01*
X34093Y-46522D01*
X34500Y-46929D01*
X34906Y-46522D01*
X34893Y-46373D01*
X34875Y-46367D01*
X34942Y-46300D01*
X36307Y-46300D01*
X36452Y-46444D01*
X36645Y-46524D01*
X36700Y-46524D01*
X36700Y-52307D01*
X36555Y-52452D01*
X36475Y-52645D01*
X36474Y-52853D01*
X36554Y-53047D01*
X36702Y-53194D01*
X36895Y-53274D01*
X37103Y-53275D01*
X37297Y-53195D01*
X37444Y-53047D01*
X37524Y-52854D01*
X37525Y-52646D01*
X37445Y-52453D01*
X37300Y-52307D01*
X37300Y-46250D01*
X37277Y-46135D01*
X37268Y-46121D01*
X37274Y-46104D01*
X37275Y-45949D01*
X38200Y-46874D01*
X38200Y-52307D01*
X38055Y-52452D01*
X37975Y-52645D01*
X37974Y-52853D01*
X38054Y-53047D01*
X38202Y-53194D01*
X38395Y-53274D01*
X38603Y-53275D01*
X38797Y-53195D01*
X38944Y-53047D01*
X39024Y-52854D01*
X39025Y-52646D01*
X38945Y-52453D01*
X38800Y-52307D01*
X38800Y-46750D01*
X38777Y-46635D01*
X38712Y-46537D01*
X38712Y-46537D01*
X37274Y-45100D01*
X37275Y-44949D01*
X39700Y-47374D01*
X39700Y-52307D01*
X39555Y-52452D01*
X39475Y-52645D01*
X39474Y-52853D01*
X39554Y-53047D01*
X39702Y-53194D01*
X39895Y-53274D01*
X40103Y-53275D01*
X40297Y-53195D01*
X40444Y-53047D01*
X40524Y-52854D01*
X40525Y-52646D01*
X40445Y-52453D01*
X40300Y-52307D01*
X40300Y-47250D01*
X40299Y-47249D01*
X40277Y-47135D01*
X40212Y-47037D01*
X40212Y-47037D01*
X37274Y-44100D01*
X37275Y-43896D01*
X37195Y-43703D01*
X37047Y-43555D01*
X36914Y-43499D01*
X37047Y-43445D01*
X37194Y-43297D01*
X37274Y-43104D01*
X37275Y-42896D01*
X37195Y-42703D01*
X37047Y-42555D01*
X36854Y-42475D01*
X36646Y-42474D01*
X36453Y-42554D01*
X36307Y-42700D01*
X34942Y-42700D01*
X34797Y-42555D01*
X34664Y-42499D01*
X34797Y-42445D01*
X34944Y-42297D01*
X35024Y-42104D01*
X35025Y-41896D01*
X34945Y-41703D01*
X34797Y-41555D01*
X34664Y-41499D01*
X34797Y-41445D01*
X34942Y-41300D01*
X36307Y-41300D01*
X36452Y-41444D01*
X36645Y-41524D01*
X36853Y-41525D01*
X37047Y-41445D01*
X37194Y-41297D01*
X37274Y-41104D01*
X37275Y-40896D01*
X37195Y-40703D01*
X37047Y-40555D01*
X36914Y-40499D01*
X37047Y-40445D01*
X37194Y-40297D01*
X37274Y-40104D01*
X37275Y-39896D01*
X37195Y-39703D01*
X37047Y-39555D01*
X36914Y-39499D01*
X37047Y-39445D01*
X37192Y-39300D01*
X37500Y-39300D01*
X37500Y-39299D01*
X37614Y-39277D01*
X37614Y-39277D01*
X37712Y-39212D01*
X39712Y-37212D01*
X39712Y-37212D01*
X39777Y-37114D01*
X39799Y-37000D01*
X39800Y-37000D01*
X39800Y-35124D01*
X41124Y-33800D01*
X42214Y-33800D01*
X42203Y-33804D01*
X42055Y-33952D01*
X41975Y-34145D01*
X41974Y-34353D01*
X42054Y-34547D01*
X42202Y-34694D01*
X42395Y-34774D01*
X42603Y-34775D01*
X42797Y-34695D01*
X42942Y-34550D01*
X43557Y-34550D01*
X43702Y-34694D01*
X43895Y-34774D01*
X44103Y-34775D01*
X44297Y-34695D01*
X44442Y-34550D01*
X45057Y-34550D01*
X45202Y-34694D01*
X45395Y-34774D01*
X45603Y-34775D01*
X45797Y-34695D01*
X45942Y-34550D01*
X46557Y-34550D01*
X46702Y-34694D01*
X46895Y-34774D01*
X47103Y-34775D01*
X47297Y-34695D01*
X47444Y-34547D01*
X47524Y-34354D01*
X47525Y-34146D01*
X47445Y-33953D01*
X47297Y-33805D01*
X47285Y-33800D01*
X47625Y-33800D01*
X47975Y-34149D01*
X47974Y-34353D01*
X48054Y-34547D01*
X48202Y-34694D01*
X48395Y-34774D01*
X48603Y-34775D01*
X48797Y-34695D01*
X48944Y-34547D01*
X49024Y-34354D01*
X49025Y-34146D01*
X49025Y-35700D01*
X47500Y-35700D01*
X47385Y-35722D01*
X47287Y-35787D01*
X45778Y-37297D01*
X45604Y-37225D01*
X45396Y-37224D01*
X45203Y-37304D01*
X45055Y-37452D01*
X44975Y-37645D01*
X44974Y-37853D01*
X45054Y-38047D01*
X45082Y-38075D01*
X44915Y-38074D01*
X44759Y-38139D01*
X44639Y-38258D01*
X44575Y-38415D01*
X44574Y-38584D01*
X44621Y-38697D01*
X44212Y-38287D01*
X44158Y-38252D01*
X44297Y-38195D01*
X44444Y-38047D01*
X44524Y-37854D01*
X44525Y-37646D01*
X44445Y-37453D01*
X44297Y-37305D01*
X44104Y-37225D01*
X43896Y-37224D01*
X43703Y-37304D01*
X43555Y-37452D01*
X43475Y-37645D01*
X43474Y-37853D01*
X43554Y-38047D01*
X43702Y-38194D01*
X43714Y-38200D01*
X42785Y-38200D01*
X42797Y-38195D01*
X42944Y-38047D01*
X43024Y-37854D01*
X43025Y-37646D01*
X42945Y-37453D01*
X42797Y-37305D01*
X42604Y-37225D01*
X42396Y-37224D01*
X42203Y-37304D01*
X42055Y-37452D01*
X41975Y-37645D01*
X41974Y-37853D01*
X42054Y-38047D01*
X42202Y-38194D01*
X42214Y-38200D01*
X41124Y-38200D01*
X40743Y-37818D01*
X40695Y-37703D01*
X40547Y-37555D01*
X40354Y-37475D01*
X40146Y-37474D01*
X39953Y-37554D01*
X39805Y-37702D01*
X39725Y-37895D01*
X39724Y-38103D01*
X39804Y-38297D01*
X39952Y-38444D01*
X40085Y-38500D01*
X39953Y-38554D01*
X39805Y-38702D01*
X39725Y-38895D01*
X39724Y-39103D01*
X39804Y-39297D01*
X39952Y-39444D01*
X40085Y-39500D01*
X39953Y-39554D01*
X39805Y-39702D01*
X39725Y-39895D01*
X39724Y-40103D01*
X39804Y-40297D01*
X39952Y-40444D01*
X40085Y-40500D01*
X39953Y-40554D01*
X39805Y-40702D01*
X39725Y-40895D01*
X39724Y-41103D01*
X39804Y-41297D01*
X39952Y-41444D01*
X40145Y-41524D01*
X40353Y-41525D01*
X40528Y-41452D01*
X42475Y-43399D01*
X42474Y-43603D01*
X42554Y-43797D01*
X42702Y-43944D01*
X42895Y-44024D01*
X43103Y-44025D01*
X43297Y-43945D01*
X43444Y-43797D01*
X43500Y-43664D01*
X43554Y-43797D01*
X43702Y-43944D01*
X43895Y-44024D01*
X44103Y-44025D01*
X44297Y-43945D01*
X44444Y-43797D01*
X44500Y-43664D01*
X44554Y-43797D01*
X44702Y-43944D01*
X44895Y-44024D01*
X45103Y-44025D01*
X45297Y-43945D01*
X45444Y-43797D01*
X45500Y-43664D01*
X45554Y-43797D01*
X45702Y-43944D01*
X45895Y-44024D01*
X46103Y-44025D01*
X46297Y-43945D01*
X46366Y-43875D01*
X46373Y-43893D01*
X46522Y-43906D01*
X46929Y-43500D01*
X46522Y-43093D01*
X46373Y-43106D01*
X46367Y-43124D01*
X46297Y-43055D01*
X46104Y-42975D01*
X45896Y-42974D01*
X45703Y-43054D01*
X45555Y-43202D01*
X45499Y-43335D01*
X45445Y-43203D01*
X45297Y-43055D01*
X45104Y-42975D01*
X44899Y-42974D01*
X42949Y-41024D01*
X43103Y-41025D01*
X43297Y-40945D01*
X43444Y-40797D01*
X43500Y-40664D01*
X43554Y-40797D01*
X43702Y-40944D01*
X43895Y-41024D01*
X44103Y-41025D01*
X44297Y-40945D01*
X44444Y-40797D01*
X44500Y-40664D01*
X44554Y-40797D01*
X44702Y-40944D01*
X44895Y-41024D01*
X45103Y-41025D01*
X45297Y-40945D01*
X45444Y-40797D01*
X45500Y-40664D01*
X45554Y-40797D01*
X45702Y-40944D01*
X45895Y-41024D01*
X46103Y-41025D01*
X46297Y-40945D01*
X46444Y-40797D01*
X46500Y-40664D01*
X46554Y-40797D01*
X46702Y-40944D01*
X46895Y-41024D01*
X47103Y-41025D01*
X47297Y-40945D01*
X47444Y-40797D01*
X47500Y-40664D01*
X47554Y-40797D01*
X47702Y-40944D01*
X47895Y-41024D01*
X48103Y-41025D01*
X48297Y-40945D01*
X48444Y-40797D01*
X48474Y-40725D01*
X48474Y-40824D01*
X48512Y-40916D01*
X48583Y-40986D01*
X48675Y-41024D01*
X48774Y-41025D01*
X49324Y-41025D01*
X49416Y-40987D01*
X49486Y-40916D01*
X49524Y-40824D01*
X49525Y-40725D01*
X49525Y-40175D01*
X49487Y-40083D01*
X49416Y-40013D01*
X49324Y-39975D01*
X49225Y-39974D01*
X48675Y-39974D01*
X48583Y-40012D01*
X48513Y-40083D01*
X48475Y-40175D01*
X48474Y-40274D01*
X48474Y-40274D01*
X48445Y-40203D01*
X48297Y-40055D01*
X48104Y-39975D01*
X47896Y-39974D01*
X47703Y-40054D01*
X47555Y-40202D01*
X47499Y-40335D01*
X47445Y-40203D01*
X47300Y-40057D01*
X47300Y-39624D01*
X48681Y-38243D01*
X48797Y-38195D01*
X48944Y-38047D01*
X48993Y-37930D01*
X50124Y-36800D01*
X51625Y-36800D01*
X52475Y-37649D01*
X52474Y-37853D01*
X52554Y-38047D01*
X52702Y-38194D01*
X52895Y-38274D01*
X53103Y-38275D01*
X53297Y-38195D01*
X53442Y-38050D01*
X54557Y-38050D01*
X54702Y-38194D01*
X54714Y-38200D01*
X53500Y-38200D01*
X53385Y-38222D01*
X53287Y-38287D01*
X51525Y-40050D01*
X51525Y-37646D01*
X51445Y-37453D01*
X51297Y-37305D01*
X51104Y-37225D01*
X50896Y-37224D01*
X50703Y-37304D01*
X50555Y-37452D01*
X50475Y-37645D01*
X50474Y-37853D01*
X50554Y-38047D01*
X50702Y-38194D01*
X50895Y-38274D01*
X51103Y-38275D01*
X51297Y-38195D01*
X51444Y-38047D01*
X51524Y-37854D01*
X51525Y-37646D01*
X51525Y-40050D01*
X50287Y-41287D01*
X50222Y-41385D01*
X50200Y-41500D01*
X50200Y-44500D01*
X50222Y-44614D01*
X50287Y-44712D01*
X52037Y-46462D01*
X52037Y-46462D01*
X52135Y-46527D01*
X52250Y-46550D01*
X52557Y-46550D01*
X52700Y-46692D01*
X52700Y-47375D01*
X51375Y-48700D01*
X49525Y-48700D01*
X49525Y-43396D01*
X49445Y-43203D01*
X49297Y-43055D01*
X49104Y-42975D01*
X48896Y-42974D01*
X48703Y-43054D01*
X48555Y-43202D01*
X48499Y-43335D01*
X48445Y-43203D01*
X48297Y-43055D01*
X48104Y-42975D01*
X47896Y-42974D01*
X47703Y-43054D01*
X47633Y-43124D01*
X47626Y-43106D01*
X47477Y-43093D01*
X47406Y-43164D01*
X47406Y-43022D01*
X47393Y-42873D01*
X47123Y-42771D01*
X46835Y-42779D01*
X46606Y-42873D01*
X46593Y-43022D01*
X47000Y-43429D01*
X47406Y-43022D01*
X47406Y-43164D01*
X47070Y-43500D01*
X47477Y-43906D01*
X47626Y-43893D01*
X47632Y-43875D01*
X47702Y-43944D01*
X47895Y-44024D01*
X48103Y-44025D01*
X48297Y-43945D01*
X48444Y-43797D01*
X48500Y-43664D01*
X48554Y-43797D01*
X48702Y-43944D01*
X48895Y-44024D01*
X49103Y-44025D01*
X49297Y-43945D01*
X49444Y-43797D01*
X49524Y-43604D01*
X49525Y-43396D01*
X49525Y-48700D01*
X49000Y-48700D01*
X48885Y-48722D01*
X48787Y-48787D01*
X48100Y-49475D01*
X47896Y-49474D01*
X47800Y-49514D01*
X47800Y-49500D01*
X47777Y-49385D01*
X47712Y-49287D01*
X45949Y-47524D01*
X46103Y-47525D01*
X46297Y-47445D01*
X46444Y-47297D01*
X46500Y-47164D01*
X46554Y-47297D01*
X46702Y-47444D01*
X46895Y-47524D01*
X47103Y-47525D01*
X47297Y-47445D01*
X47444Y-47297D01*
X47500Y-47164D01*
X47554Y-47297D01*
X47702Y-47444D01*
X47895Y-47524D01*
X48103Y-47525D01*
X48297Y-47445D01*
X48444Y-47297D01*
X48474Y-47225D01*
X48474Y-47324D01*
X48512Y-47416D01*
X48583Y-47486D01*
X48675Y-47524D01*
X48774Y-47525D01*
X49324Y-47525D01*
X49416Y-47487D01*
X49486Y-47416D01*
X49524Y-47324D01*
X49525Y-47225D01*
X49525Y-46675D01*
X49487Y-46583D01*
X49416Y-46513D01*
X49324Y-46475D01*
X49225Y-46474D01*
X48675Y-46474D01*
X48583Y-46512D01*
X48513Y-46583D01*
X48475Y-46675D01*
X48474Y-46774D01*
X48474Y-46774D01*
X48445Y-46703D01*
X48297Y-46555D01*
X48104Y-46475D01*
X47896Y-46474D01*
X47703Y-46554D01*
X47555Y-46702D01*
X47499Y-46835D01*
X47445Y-46703D01*
X47406Y-46663D01*
X47406Y-43977D01*
X47000Y-43570D01*
X46593Y-43977D01*
X46606Y-44126D01*
X46876Y-44228D01*
X47164Y-44220D01*
X47393Y-44126D01*
X47406Y-43977D01*
X47406Y-46663D01*
X47297Y-46555D01*
X47104Y-46475D01*
X46896Y-46474D01*
X46703Y-46554D01*
X46555Y-46702D01*
X46499Y-46835D01*
X46445Y-46703D01*
X46297Y-46555D01*
X46104Y-46475D01*
X45899Y-46474D01*
X44712Y-45287D01*
X44614Y-45222D01*
X44500Y-45200D01*
X43624Y-45200D01*
X41212Y-42787D01*
X41114Y-42722D01*
X41000Y-42700D01*
X40692Y-42700D01*
X40547Y-42555D01*
X40354Y-42475D01*
X40146Y-42474D01*
X39953Y-42554D01*
X39805Y-42702D01*
X39725Y-42895D01*
X39724Y-43103D01*
X39804Y-43297D01*
X39952Y-43444D01*
X40085Y-43500D01*
X39953Y-43554D01*
X39805Y-43702D01*
X39725Y-43895D01*
X39724Y-44103D01*
X39804Y-44297D01*
X39952Y-44444D01*
X40085Y-44500D01*
X39953Y-44554D01*
X39805Y-44702D01*
X39725Y-44895D01*
X39724Y-45103D01*
X39804Y-45297D01*
X39952Y-45444D01*
X40085Y-45500D01*
X39953Y-45554D01*
X39805Y-45702D01*
X39725Y-45895D01*
X39724Y-46103D01*
X39804Y-46297D01*
X39952Y-46444D01*
X40145Y-46524D01*
X40353Y-46525D01*
X40528Y-46452D01*
X41200Y-47124D01*
X41200Y-49000D01*
X41222Y-49114D01*
X41287Y-49212D01*
X42287Y-50212D01*
X42287Y-50212D01*
X42385Y-50277D01*
X42500Y-50300D01*
X42557Y-50300D01*
X42702Y-50444D01*
X42895Y-50524D01*
X43103Y-50525D01*
X43200Y-50485D01*
X43200Y-50500D01*
X43200Y-51000D01*
X43222Y-51114D01*
X43287Y-51212D01*
X44287Y-52212D01*
X44287Y-52212D01*
X44341Y-52247D01*
X44203Y-52304D01*
X44055Y-52452D01*
X43975Y-52645D01*
X43974Y-52853D01*
X44054Y-53047D01*
X44202Y-53194D01*
X44395Y-53274D01*
X44603Y-53275D01*
X44797Y-53195D01*
X44944Y-53047D01*
X45024Y-52854D01*
X45025Y-52646D01*
X44945Y-52453D01*
X44797Y-52305D01*
X44785Y-52300D01*
X45714Y-52300D01*
X45703Y-52304D01*
X45555Y-52452D01*
X45475Y-52645D01*
X45474Y-52853D01*
X45554Y-53047D01*
X45702Y-53194D01*
X45895Y-53274D01*
X46100Y-53275D01*
X47700Y-54874D01*
X47700Y-55807D01*
X47555Y-55952D01*
X47475Y-56145D01*
X47474Y-56353D01*
X47554Y-56547D01*
X47702Y-56694D01*
X47895Y-56774D01*
X48100Y-56775D01*
X52475Y-61149D01*
X52474Y-61353D01*
X52554Y-61547D01*
X52702Y-61694D01*
X52895Y-61774D01*
X53103Y-61775D01*
X53297Y-61695D01*
X53442Y-61550D01*
X54557Y-61550D01*
X54702Y-61694D01*
X54895Y-61774D01*
X55103Y-61775D01*
X55297Y-61695D01*
X55442Y-61550D01*
X56557Y-61550D01*
X56702Y-61694D01*
X56895Y-61774D01*
X57103Y-61775D01*
X57297Y-61695D01*
X57442Y-61550D01*
X58557Y-61550D01*
X58702Y-61694D01*
X58895Y-61774D01*
X59103Y-61775D01*
X59297Y-61695D01*
X59444Y-61547D01*
X59524Y-61354D01*
X59525Y-61149D01*
X59874Y-60800D01*
X60557Y-60800D01*
X60702Y-60944D01*
X60895Y-61024D01*
X61103Y-61025D01*
X61297Y-60945D01*
X61444Y-60797D01*
X61524Y-60604D01*
X61525Y-60396D01*
X61445Y-60203D01*
X61375Y-60133D01*
X61393Y-60126D01*
X61406Y-59977D01*
X61000Y-59570D01*
X60929Y-59641D01*
X60929Y-59500D01*
X60522Y-59093D01*
X60373Y-59106D01*
X60271Y-59376D01*
X60279Y-59664D01*
X60373Y-59893D01*
X60522Y-59906D01*
X60929Y-59500D01*
X60929Y-59641D01*
X60593Y-59977D01*
X60606Y-60126D01*
X60624Y-60132D01*
X60557Y-60200D01*
X59750Y-60200D01*
X59635Y-60222D01*
X59537Y-60287D01*
X59525Y-60300D01*
X59525Y-57646D01*
X59445Y-57453D01*
X59300Y-57307D01*
X59300Y-56192D01*
X59444Y-56047D01*
X59524Y-55854D01*
X59525Y-55646D01*
X59445Y-55453D01*
X59297Y-55305D01*
X59104Y-55225D01*
X58896Y-55224D01*
X58703Y-55304D01*
X58555Y-55452D01*
X58475Y-55645D01*
X58474Y-55853D01*
X58554Y-56047D01*
X58700Y-56192D01*
X58700Y-57307D01*
X58555Y-57452D01*
X58475Y-57645D01*
X58474Y-57853D01*
X58554Y-58047D01*
X58702Y-58194D01*
X58895Y-58274D01*
X59103Y-58275D01*
X59297Y-58195D01*
X59444Y-58047D01*
X59524Y-57854D01*
X59525Y-57646D01*
X59525Y-60300D01*
X59100Y-60725D01*
X58896Y-60724D01*
X58703Y-60804D01*
X58557Y-60950D01*
X57442Y-60950D01*
X57297Y-60805D01*
X57104Y-60725D01*
X56896Y-60724D01*
X56703Y-60804D01*
X56557Y-60950D01*
X55525Y-60950D01*
X55525Y-57646D01*
X55445Y-57453D01*
X55300Y-57307D01*
X55300Y-56192D01*
X55444Y-56047D01*
X55524Y-55854D01*
X55525Y-55646D01*
X55445Y-55453D01*
X55297Y-55305D01*
X55104Y-55225D01*
X54896Y-55224D01*
X54703Y-55304D01*
X54555Y-55452D01*
X54475Y-55645D01*
X54474Y-55853D01*
X54554Y-56047D01*
X54700Y-56192D01*
X54700Y-57307D01*
X54555Y-57452D01*
X54475Y-57645D01*
X54474Y-57853D01*
X54554Y-58047D01*
X54702Y-58194D01*
X54895Y-58274D01*
X55103Y-58275D01*
X55297Y-58195D01*
X55444Y-58047D01*
X55524Y-57854D01*
X55525Y-57646D01*
X55525Y-60950D01*
X55442Y-60950D01*
X55297Y-60805D01*
X55104Y-60725D01*
X54896Y-60724D01*
X54703Y-60804D01*
X54557Y-60950D01*
X53442Y-60950D01*
X53297Y-60805D01*
X53104Y-60725D01*
X52899Y-60724D01*
X48524Y-56350D01*
X48525Y-56146D01*
X48445Y-55953D01*
X48300Y-55807D01*
X48300Y-54750D01*
X48299Y-54749D01*
X48277Y-54635D01*
X48212Y-54537D01*
X48212Y-54537D01*
X46524Y-52850D01*
X46525Y-52646D01*
X46445Y-52453D01*
X46297Y-52305D01*
X46285Y-52300D01*
X46375Y-52300D01*
X50787Y-56712D01*
X50885Y-56777D01*
X50885Y-56777D01*
X51000Y-56800D01*
X52198Y-56800D01*
X52258Y-56860D01*
X52415Y-56924D01*
X52584Y-56925D01*
X52700Y-56877D01*
X52700Y-57307D01*
X52555Y-57452D01*
X52475Y-57645D01*
X52474Y-57853D01*
X52554Y-58047D01*
X52702Y-58194D01*
X52895Y-58274D01*
X53103Y-58275D01*
X53297Y-58195D01*
X53444Y-58047D01*
X53524Y-57854D01*
X53525Y-57646D01*
X53445Y-57453D01*
X53300Y-57307D01*
X53300Y-56192D01*
X53444Y-56047D01*
X53524Y-55854D01*
X53525Y-55646D01*
X53445Y-55453D01*
X53297Y-55305D01*
X53104Y-55225D01*
X52896Y-55224D01*
X52721Y-55297D01*
X49224Y-51800D01*
X50000Y-51800D01*
X52714Y-51800D01*
X52703Y-51804D01*
X52555Y-51952D01*
X52475Y-52145D01*
X52474Y-52353D01*
X52554Y-52547D01*
X52702Y-52694D01*
X52895Y-52774D01*
X53103Y-52775D01*
X53297Y-52695D01*
X53444Y-52547D01*
X53524Y-52354D01*
X53525Y-52146D01*
X53445Y-51953D01*
X53297Y-51805D01*
X53285Y-51800D01*
X54714Y-51800D01*
X54703Y-51804D01*
X54555Y-51952D01*
X54475Y-52145D01*
X54474Y-52353D01*
X54554Y-52547D01*
X54702Y-52694D01*
X54895Y-52774D01*
X55103Y-52775D01*
X55297Y-52695D01*
X55444Y-52547D01*
X55524Y-52354D01*
X55525Y-52146D01*
X55445Y-51953D01*
X55297Y-51805D01*
X55285Y-51800D01*
X56375Y-51800D01*
X56547Y-51971D01*
X56475Y-52145D01*
X56474Y-52353D01*
X56554Y-52547D01*
X56702Y-52694D01*
X56895Y-52774D01*
X57103Y-52775D01*
X57297Y-52695D01*
X57444Y-52547D01*
X57524Y-52354D01*
X57525Y-52146D01*
X57445Y-51953D01*
X57297Y-51805D01*
X57180Y-51756D01*
X56724Y-51300D01*
X57875Y-51300D01*
X58547Y-51971D01*
X58475Y-52145D01*
X58474Y-52353D01*
X58554Y-52547D01*
X58702Y-52694D01*
X58895Y-52774D01*
X59103Y-52775D01*
X59297Y-52695D01*
X59444Y-52547D01*
X59524Y-52354D01*
X59525Y-52146D01*
X59445Y-51953D01*
X59297Y-51805D01*
X59180Y-51756D01*
X58224Y-50800D01*
X58375Y-50800D01*
X59700Y-52124D01*
X59700Y-52875D01*
X57278Y-55297D01*
X57104Y-55225D01*
X56896Y-55224D01*
X56703Y-55304D01*
X56555Y-55452D01*
X56475Y-55645D01*
X56474Y-55853D01*
X56554Y-56047D01*
X56700Y-56192D01*
X56700Y-57307D01*
X56555Y-57452D01*
X56475Y-57645D01*
X56474Y-57853D01*
X56554Y-58047D01*
X56702Y-58194D01*
X56895Y-58274D01*
X57103Y-58275D01*
X57297Y-58195D01*
X57444Y-58047D01*
X57524Y-57854D01*
X57525Y-57646D01*
X57445Y-57453D01*
X57300Y-57307D01*
X57300Y-56192D01*
X57444Y-56047D01*
X57493Y-55930D01*
X60212Y-53212D01*
X60212Y-53212D01*
X60277Y-53114D01*
X60299Y-53000D01*
X60300Y-53000D01*
X60300Y-52000D01*
X60277Y-51885D01*
X60212Y-51787D01*
X60212Y-51787D01*
X58712Y-50287D01*
X58614Y-50222D01*
X58500Y-50200D01*
X57285Y-50200D01*
X57297Y-50195D01*
X57442Y-50050D01*
X58557Y-50050D01*
X58702Y-50194D01*
X58895Y-50274D01*
X59100Y-50275D01*
X61575Y-52749D01*
X61575Y-56500D01*
X61000Y-57075D01*
X60915Y-57074D01*
X60759Y-57139D01*
X60639Y-57258D01*
X60575Y-57415D01*
X60574Y-57584D01*
X60639Y-57740D01*
X60758Y-57860D01*
X60915Y-57924D01*
X61084Y-57925D01*
X61240Y-57860D01*
X61360Y-57741D01*
X61424Y-57584D01*
X61425Y-57499D01*
X62087Y-56837D01*
X62087Y-56837D01*
X62152Y-56739D01*
X62174Y-56625D01*
X62175Y-56625D01*
X62175Y-54275D01*
X62200Y-54301D01*
X62200Y-57698D01*
X62139Y-57758D01*
X62075Y-57915D01*
X62074Y-58084D01*
X62139Y-58240D01*
X62258Y-58360D01*
X62415Y-58424D01*
X62584Y-58425D01*
X62740Y-58360D01*
X62860Y-58241D01*
X62924Y-58084D01*
X62925Y-57915D01*
X62860Y-57759D01*
X62800Y-57698D01*
X62800Y-54301D01*
X62860Y-54241D01*
X62924Y-54084D01*
X62925Y-53915D01*
X62860Y-53759D01*
X62741Y-53639D01*
X62584Y-53575D01*
X62415Y-53574D01*
X62259Y-53639D01*
X62175Y-53723D01*
X62175Y-52625D01*
X62152Y-52510D01*
X62087Y-52412D01*
X62087Y-52412D01*
X59524Y-49850D01*
X59525Y-49646D01*
X59525Y-46146D01*
X59525Y-44146D01*
X59445Y-43953D01*
X59297Y-43805D01*
X59104Y-43725D01*
X58896Y-43724D01*
X58703Y-43804D01*
X58555Y-43952D01*
X58475Y-44145D01*
X58474Y-44353D01*
X58554Y-44547D01*
X58702Y-44694D01*
X58895Y-44774D01*
X59103Y-44775D01*
X59297Y-44695D01*
X59444Y-44547D01*
X59524Y-44354D01*
X59525Y-44146D01*
X59525Y-46146D01*
X59445Y-45953D01*
X59297Y-45805D01*
X59104Y-45725D01*
X58896Y-45724D01*
X58703Y-45804D01*
X58555Y-45952D01*
X58475Y-46145D01*
X58474Y-46353D01*
X58554Y-46547D01*
X58702Y-46694D01*
X58895Y-46774D01*
X59103Y-46775D01*
X59297Y-46695D01*
X59444Y-46547D01*
X59524Y-46354D01*
X59525Y-46146D01*
X59525Y-49646D01*
X59445Y-49453D01*
X59297Y-49305D01*
X59104Y-49225D01*
X58899Y-49224D01*
X58300Y-48625D01*
X58300Y-45500D01*
X58277Y-45385D01*
X58212Y-45287D01*
X58212Y-45287D01*
X57452Y-44528D01*
X57524Y-44354D01*
X57525Y-44146D01*
X57445Y-43953D01*
X57297Y-43805D01*
X57104Y-43725D01*
X56899Y-43724D01*
X55300Y-42125D01*
X55300Y-41192D01*
X55444Y-41047D01*
X55524Y-40854D01*
X55525Y-40646D01*
X55445Y-40453D01*
X55297Y-40305D01*
X55104Y-40225D01*
X54896Y-40224D01*
X54703Y-40304D01*
X54555Y-40452D01*
X54475Y-40645D01*
X54474Y-40853D01*
X54554Y-41047D01*
X54700Y-41192D01*
X54700Y-42250D01*
X54722Y-42364D01*
X54787Y-42462D01*
X56475Y-44149D01*
X56474Y-44353D01*
X56554Y-44547D01*
X56702Y-44694D01*
X56819Y-44743D01*
X57700Y-45624D01*
X57700Y-48750D01*
X57722Y-48864D01*
X57787Y-48962D01*
X58275Y-49450D01*
X57525Y-49450D01*
X57525Y-46146D01*
X57445Y-45953D01*
X57297Y-45805D01*
X57104Y-45725D01*
X56896Y-45724D01*
X56703Y-45804D01*
X56555Y-45952D01*
X56475Y-46145D01*
X56474Y-46353D01*
X56554Y-46547D01*
X56702Y-46694D01*
X56895Y-46774D01*
X57103Y-46775D01*
X57297Y-46695D01*
X57444Y-46547D01*
X57524Y-46354D01*
X57525Y-46146D01*
X57525Y-49450D01*
X57442Y-49450D01*
X57297Y-49305D01*
X57104Y-49225D01*
X56896Y-49224D01*
X56703Y-49304D01*
X56557Y-49450D01*
X55442Y-49450D01*
X55297Y-49305D01*
X55104Y-49225D01*
X54896Y-49224D01*
X54703Y-49304D01*
X54557Y-49450D01*
X53442Y-49450D01*
X53297Y-49305D01*
X53104Y-49225D01*
X52896Y-49224D01*
X52703Y-49304D01*
X52555Y-49452D01*
X52475Y-49645D01*
X52474Y-49853D01*
X52554Y-50047D01*
X52702Y-50194D01*
X52703Y-50195D01*
X52639Y-50258D01*
X52575Y-50415D01*
X52574Y-50584D01*
X52621Y-50697D01*
X51712Y-49787D01*
X51614Y-49722D01*
X51500Y-49700D01*
X49442Y-49700D01*
X49297Y-49555D01*
X49104Y-49475D01*
X48949Y-49474D01*
X49124Y-49300D01*
X51500Y-49300D01*
X51500Y-49299D01*
X51614Y-49277D01*
X51614Y-49277D01*
X51712Y-49212D01*
X53212Y-47712D01*
X53212Y-47712D01*
X53277Y-47614D01*
X53299Y-47500D01*
X53300Y-47500D01*
X53300Y-46692D01*
X53444Y-46547D01*
X53524Y-46354D01*
X53525Y-46146D01*
X53445Y-45953D01*
X53297Y-45805D01*
X53285Y-45800D01*
X54375Y-45800D01*
X54547Y-45971D01*
X54475Y-46145D01*
X54474Y-46353D01*
X54554Y-46547D01*
X54700Y-46692D01*
X54700Y-48198D01*
X54639Y-48258D01*
X54575Y-48415D01*
X54574Y-48584D01*
X54639Y-48740D01*
X54758Y-48860D01*
X54915Y-48924D01*
X55084Y-48925D01*
X55240Y-48860D01*
X55360Y-48741D01*
X55424Y-48584D01*
X55425Y-48415D01*
X55360Y-48259D01*
X55300Y-48198D01*
X55300Y-46692D01*
X55444Y-46547D01*
X55524Y-46354D01*
X55525Y-46146D01*
X55525Y-44146D01*
X55445Y-43953D01*
X55297Y-43805D01*
X55104Y-43725D01*
X54896Y-43724D01*
X54703Y-43804D01*
X54557Y-43950D01*
X53525Y-43950D01*
X53525Y-40646D01*
X53445Y-40453D01*
X53297Y-40305D01*
X53104Y-40225D01*
X52896Y-40224D01*
X52703Y-40304D01*
X52555Y-40452D01*
X52475Y-40645D01*
X52474Y-40853D01*
X52554Y-41047D01*
X52702Y-41194D01*
X52895Y-41274D01*
X53103Y-41275D01*
X53297Y-41195D01*
X53444Y-41047D01*
X53524Y-40854D01*
X53525Y-40646D01*
X53525Y-43950D01*
X53442Y-43950D01*
X53297Y-43805D01*
X53104Y-43725D01*
X52896Y-43724D01*
X52703Y-43804D01*
X52555Y-43952D01*
X52475Y-44145D01*
X52474Y-44353D01*
X52554Y-44547D01*
X52702Y-44694D01*
X52895Y-44774D01*
X53103Y-44775D01*
X53297Y-44695D01*
X53442Y-44550D01*
X54557Y-44550D01*
X54702Y-44694D01*
X54895Y-44774D01*
X55103Y-44775D01*
X55297Y-44695D01*
X55444Y-44547D01*
X55524Y-44354D01*
X55525Y-44146D01*
X55525Y-46146D01*
X55445Y-45953D01*
X55297Y-45805D01*
X55180Y-45756D01*
X54712Y-45287D01*
X54614Y-45222D01*
X54500Y-45200D01*
X52624Y-45200D01*
X51800Y-44375D01*
X51800Y-41124D01*
X53124Y-39800D01*
X59000Y-39800D01*
X59000Y-39799D01*
X59114Y-39777D01*
X59114Y-39777D01*
X59212Y-39712D01*
X60624Y-38300D01*
X64057Y-38300D01*
X64202Y-38444D01*
X64335Y-38500D01*
X64203Y-38554D01*
X64057Y-38700D01*
X61500Y-38700D01*
X61385Y-38722D01*
X61287Y-38787D01*
X59625Y-40450D01*
X59442Y-40450D01*
X59297Y-40305D01*
X59104Y-40225D01*
X58896Y-40224D01*
X58703Y-40304D01*
X58557Y-40450D01*
X57442Y-40450D01*
X57297Y-40305D01*
X57104Y-40225D01*
X56896Y-40224D01*
X56703Y-40304D01*
X56555Y-40452D01*
X56475Y-40645D01*
X56474Y-40853D01*
X56554Y-41047D01*
X56702Y-41194D01*
X56895Y-41274D01*
X57103Y-41275D01*
X57297Y-41195D01*
X57442Y-41050D01*
X58557Y-41050D01*
X58702Y-41194D01*
X58895Y-41274D01*
X59103Y-41275D01*
X59297Y-41195D01*
X59442Y-41050D01*
X59750Y-41050D01*
X59750Y-41049D01*
X59864Y-41027D01*
X59864Y-41027D01*
X59962Y-40962D01*
X61624Y-39300D01*
X64057Y-39300D01*
X64202Y-39444D01*
X64335Y-39500D01*
X64203Y-39554D01*
X64055Y-39702D01*
X63975Y-39895D01*
X63974Y-40103D01*
X64054Y-40297D01*
X64202Y-40444D01*
X64335Y-40500D01*
X64203Y-40554D01*
X64055Y-40702D01*
X63975Y-40895D01*
X63974Y-41103D01*
X64054Y-41297D01*
X64202Y-41444D01*
X64335Y-41500D01*
X64203Y-41554D01*
X64055Y-41702D01*
X63975Y-41895D01*
X63974Y-42103D01*
X64054Y-42297D01*
X64202Y-42444D01*
X64335Y-42500D01*
X64203Y-42554D01*
X64055Y-42702D01*
X63975Y-42895D01*
X63974Y-43103D01*
X64054Y-43297D01*
X64202Y-43444D01*
X64335Y-43500D01*
X64203Y-43554D01*
X64055Y-43702D01*
X63975Y-43895D01*
X63974Y-44103D01*
X64054Y-44297D01*
X64202Y-44444D01*
X64335Y-44500D01*
X64203Y-44554D01*
X64055Y-44702D01*
X63975Y-44895D01*
X63974Y-45103D01*
X64054Y-45297D01*
X64202Y-45444D01*
X64335Y-45500D01*
X64203Y-45554D01*
X64055Y-45702D01*
X63975Y-45895D01*
X63974Y-46103D01*
X64054Y-46297D01*
X64202Y-46444D01*
X64335Y-46500D01*
X64203Y-46554D01*
X64057Y-46700D01*
X63500Y-46700D01*
X63425Y-46714D01*
X63425Y-41915D01*
X63360Y-41759D01*
X63300Y-41698D01*
X63300Y-40301D01*
X63360Y-40241D01*
X63424Y-40084D01*
X63425Y-39915D01*
X63360Y-39759D01*
X63241Y-39639D01*
X63084Y-39575D01*
X62915Y-39574D01*
X62759Y-39639D01*
X62639Y-39758D01*
X62575Y-39915D01*
X62574Y-40084D01*
X62639Y-40240D01*
X62700Y-40301D01*
X62700Y-41698D01*
X62639Y-41758D01*
X62575Y-41915D01*
X62574Y-42084D01*
X62639Y-42240D01*
X62758Y-42360D01*
X62915Y-42424D01*
X63084Y-42425D01*
X63240Y-42360D01*
X63360Y-42241D01*
X63424Y-42084D01*
X63425Y-41915D01*
X63425Y-46714D01*
X63385Y-46722D01*
X63287Y-46787D01*
X62787Y-47287D01*
X62722Y-47385D01*
X62700Y-47500D01*
X62700Y-50500D01*
X62722Y-50614D01*
X62787Y-50712D01*
X63287Y-51212D01*
X63287Y-51212D01*
X63385Y-51277D01*
X63500Y-51300D01*
X64375Y-51300D01*
X64700Y-51624D01*
X64700Y-57375D01*
X64580Y-57495D01*
X64580Y-57385D01*
X64491Y-57171D01*
X64328Y-57008D01*
X64300Y-56996D01*
X64300Y-56692D01*
X64444Y-56547D01*
X64524Y-56354D01*
X64525Y-56146D01*
X64525Y-52646D01*
X64445Y-52453D01*
X64297Y-52305D01*
X64104Y-52225D01*
X63896Y-52224D01*
X63703Y-52304D01*
X63555Y-52452D01*
X63475Y-52645D01*
X63474Y-52853D01*
X63554Y-53047D01*
X63702Y-53194D01*
X63895Y-53274D01*
X64103Y-53275D01*
X64297Y-53195D01*
X64444Y-53047D01*
X64524Y-52854D01*
X64525Y-52646D01*
X64525Y-56146D01*
X64445Y-55953D01*
X64297Y-55805D01*
X64104Y-55725D01*
X63896Y-55724D01*
X63703Y-55804D01*
X63555Y-55952D01*
X63475Y-56145D01*
X63474Y-56353D01*
X63554Y-56547D01*
X63700Y-56692D01*
X63700Y-56996D01*
X63671Y-57008D01*
X63508Y-57171D01*
X63420Y-57384D01*
X63419Y-57614D01*
X63508Y-57828D01*
X63671Y-57991D01*
X63691Y-57999D01*
X63671Y-58008D01*
X63508Y-58171D01*
X63420Y-58384D01*
X63419Y-58614D01*
X63508Y-58828D01*
X63671Y-58991D01*
X63884Y-59079D01*
X64114Y-59080D01*
X64328Y-58991D01*
X64491Y-58828D01*
X64579Y-58615D01*
X64580Y-58385D01*
X64568Y-58356D01*
X65212Y-57712D01*
X65212Y-57712D01*
X65250Y-57655D01*
X65287Y-57712D01*
X65931Y-58356D01*
X65920Y-58384D01*
X65919Y-58614D01*
X66008Y-58828D01*
X66171Y-58991D01*
X66384Y-59079D01*
X66614Y-59080D01*
X66828Y-58991D01*
X66991Y-58828D01*
X67079Y-58615D01*
X67080Y-58385D01*
X66991Y-58171D01*
X66828Y-58008D01*
X66808Y-58000D01*
X66828Y-57991D01*
X66991Y-57828D01*
X67079Y-57615D01*
X67080Y-57385D01*
X66991Y-57171D01*
X66828Y-57008D01*
X66800Y-56996D01*
X66800Y-56692D01*
X66944Y-56547D01*
X67024Y-56354D01*
X67025Y-56146D01*
X67025Y-52646D01*
X66945Y-52453D01*
X66797Y-52305D01*
X66604Y-52225D01*
X66396Y-52224D01*
X66203Y-52304D01*
X66055Y-52452D01*
X65975Y-52645D01*
X65974Y-52853D01*
X66054Y-53047D01*
X66202Y-53194D01*
X66395Y-53274D01*
X66603Y-53275D01*
X66797Y-53195D01*
X66944Y-53047D01*
X67024Y-52854D01*
X67025Y-52646D01*
X67025Y-56146D01*
X66945Y-55953D01*
X66797Y-55805D01*
X66604Y-55725D01*
X66396Y-55724D01*
X66203Y-55804D01*
X66055Y-55952D01*
X65975Y-56145D01*
X65974Y-56353D01*
X66054Y-56547D01*
X66200Y-56692D01*
X66200Y-56996D01*
X66171Y-57008D01*
X66008Y-57171D01*
X65920Y-57384D01*
X65920Y-57495D01*
X65800Y-57375D01*
X65800Y-46500D01*
X65777Y-46385D01*
X65712Y-46287D01*
X65712Y-46287D01*
X65212Y-45787D01*
X65114Y-45722D01*
X65000Y-45700D01*
X64942Y-45700D01*
X64797Y-45555D01*
X64664Y-45499D01*
X64797Y-45445D01*
X64944Y-45297D01*
X65024Y-45104D01*
X65025Y-44896D01*
X64945Y-44703D01*
X64797Y-44555D01*
X64664Y-44499D01*
X64797Y-44445D01*
X64944Y-44297D01*
X65024Y-44104D01*
X65025Y-43896D01*
X64945Y-43703D01*
X64797Y-43555D01*
X64664Y-43499D01*
X64797Y-43445D01*
X64944Y-43297D01*
X65024Y-43104D01*
X65025Y-42896D01*
X64945Y-42703D01*
X64797Y-42555D01*
X64664Y-42499D01*
X64797Y-42445D01*
X64942Y-42300D01*
X65875Y-42300D01*
X67200Y-43624D01*
X67200Y-48000D01*
X67222Y-48114D01*
X67287Y-48212D01*
X68700Y-49624D01*
X68700Y-51500D01*
X68722Y-51614D01*
X68787Y-51712D01*
X71075Y-53999D01*
X71074Y-54084D01*
X71139Y-54240D01*
X71258Y-54360D01*
X71415Y-54424D01*
X71584Y-54425D01*
X71740Y-54360D01*
X71860Y-54241D01*
X71924Y-54084D01*
X71925Y-53915D01*
X71860Y-53759D01*
X71741Y-53639D01*
X71584Y-53575D01*
X71499Y-53574D01*
X69300Y-51375D01*
X69300Y-49500D01*
X69277Y-49385D01*
X69212Y-49287D01*
X69212Y-49287D01*
X67800Y-47875D01*
X67800Y-47724D01*
X69287Y-49212D01*
X69287Y-49212D01*
X69385Y-49277D01*
X69500Y-49300D01*
X70057Y-49300D01*
X70202Y-49444D01*
X70274Y-49474D01*
X70175Y-49474D01*
X70083Y-49512D01*
X70013Y-49583D01*
X69975Y-49675D01*
X69974Y-49774D01*
X69974Y-50324D01*
X70012Y-50416D01*
X70083Y-50486D01*
X70175Y-50524D01*
X70274Y-50525D01*
X70824Y-50525D01*
X70916Y-50487D01*
X70986Y-50416D01*
X71024Y-50324D01*
X71025Y-50225D01*
X71025Y-49675D01*
X70987Y-49583D01*
X70916Y-49513D01*
X70824Y-49475D01*
X70725Y-49474D01*
X70725Y-49474D01*
X70797Y-49445D01*
X70944Y-49297D01*
X71024Y-49104D01*
X71025Y-48896D01*
X70945Y-48703D01*
X70797Y-48555D01*
X70664Y-48499D01*
X70797Y-48445D01*
X70944Y-48297D01*
X71024Y-48104D01*
X71025Y-47896D01*
X70945Y-47703D01*
X70797Y-47555D01*
X70664Y-47499D01*
X70797Y-47445D01*
X70909Y-47333D01*
X71200Y-47624D01*
X71200Y-48500D01*
X71222Y-48614D01*
X71287Y-48712D01*
X72700Y-50124D01*
X72700Y-51057D01*
X72555Y-51202D01*
X72475Y-51395D01*
X72474Y-51603D01*
X72554Y-51797D01*
X72700Y-51942D01*
X72700Y-54057D01*
X72555Y-54202D01*
X72475Y-54395D01*
X72474Y-54600D01*
X72287Y-54787D01*
X72222Y-54885D01*
X72200Y-55000D01*
X72200Y-59528D01*
X72188Y-59533D01*
X72034Y-59688D01*
X71950Y-59890D01*
X71949Y-60108D01*
X72033Y-60311D01*
X72172Y-60449D01*
X72150Y-60449D01*
X72058Y-60487D01*
X71988Y-60558D01*
X71950Y-60650D01*
X71949Y-60749D01*
X71949Y-61349D01*
X71987Y-61441D01*
X72058Y-61511D01*
X72150Y-61549D01*
X72249Y-61550D01*
X72849Y-61550D01*
X72941Y-61512D01*
X73011Y-61441D01*
X73029Y-61400D01*
X73429Y-61000D01*
X73029Y-60599D01*
X73012Y-60558D01*
X72941Y-60488D01*
X72849Y-60450D01*
X72827Y-60450D01*
X72965Y-60311D01*
X72999Y-60230D01*
X73033Y-60311D01*
X73090Y-60368D01*
X73075Y-60504D01*
X73500Y-60929D01*
X73924Y-60504D01*
X73909Y-60368D01*
X73965Y-60311D01*
X73999Y-60230D01*
X74033Y-60311D01*
X74090Y-60368D01*
X74075Y-60504D01*
X74500Y-60929D01*
X74924Y-60504D01*
X74909Y-60368D01*
X74965Y-60311D01*
X75049Y-60109D01*
X75050Y-59891D01*
X74966Y-59688D01*
X74811Y-59534D01*
X74609Y-59450D01*
X74391Y-59449D01*
X74188Y-59533D01*
X74034Y-59688D01*
X74000Y-59769D01*
X73966Y-59688D01*
X73811Y-59534D01*
X73609Y-59450D01*
X73391Y-59449D01*
X73188Y-59533D01*
X73034Y-59688D01*
X73000Y-59769D01*
X72966Y-59688D01*
X72811Y-59534D01*
X72800Y-59529D01*
X72800Y-55124D01*
X72899Y-55024D01*
X73103Y-55025D01*
X73297Y-54945D01*
X73444Y-54797D01*
X73524Y-54604D01*
X73525Y-54396D01*
X73445Y-54203D01*
X73300Y-54057D01*
X73300Y-51942D01*
X73444Y-51797D01*
X73524Y-51604D01*
X73525Y-51399D01*
X74399Y-50524D01*
X74603Y-50525D01*
X74797Y-50445D01*
X74866Y-50375D01*
X74873Y-50393D01*
X75022Y-50406D01*
X75429Y-50000D01*
X75022Y-49593D01*
X74873Y-49606D01*
X74867Y-49624D01*
X74797Y-49555D01*
X74604Y-49475D01*
X74396Y-49474D01*
X74203Y-49554D01*
X74055Y-49702D01*
X73975Y-49895D01*
X73974Y-50100D01*
X73300Y-50775D01*
X73300Y-50000D01*
X73277Y-49885D01*
X73212Y-49787D01*
X73212Y-49787D01*
X71800Y-48375D01*
X71800Y-48285D01*
X71804Y-48297D01*
X71952Y-48444D01*
X72145Y-48524D01*
X72353Y-48525D01*
X72547Y-48445D01*
X72694Y-48297D01*
X72774Y-48104D01*
X72775Y-47896D01*
X72695Y-47703D01*
X72550Y-47557D01*
X72550Y-47250D01*
X72549Y-47249D01*
X72527Y-47135D01*
X72462Y-47037D01*
X72462Y-47037D01*
X71712Y-46287D01*
X71614Y-46222D01*
X71500Y-46200D01*
X71199Y-46200D01*
X71228Y-46123D01*
X71220Y-45835D01*
X71126Y-45606D01*
X70977Y-45593D01*
X70570Y-46000D01*
X70576Y-46005D01*
X70505Y-46076D01*
X70500Y-46070D01*
X70494Y-46076D01*
X70423Y-46005D01*
X70429Y-46000D01*
X70022Y-45593D01*
X69873Y-45606D01*
X69800Y-45800D01*
X69800Y-45124D01*
X69975Y-44949D01*
X69974Y-45103D01*
X70054Y-45297D01*
X70124Y-45366D01*
X70106Y-45373D01*
X70093Y-45522D01*
X70500Y-45929D01*
X70906Y-45522D01*
X70893Y-45373D01*
X70875Y-45367D01*
X70942Y-45300D01*
X72000Y-45300D01*
X72000Y-45299D01*
X72114Y-45277D01*
X72114Y-45277D01*
X72212Y-45212D01*
X73712Y-43712D01*
X73712Y-43712D01*
X73777Y-43614D01*
X73799Y-43500D01*
X73800Y-43500D01*
X73800Y-42192D01*
X73942Y-42050D01*
X74625Y-42050D01*
X75200Y-42624D01*
X75200Y-43057D01*
X75055Y-43202D01*
X74975Y-43395D01*
X74974Y-43603D01*
X75054Y-43797D01*
X75202Y-43944D01*
X75395Y-44024D01*
X75603Y-44025D01*
X75797Y-43945D01*
X75866Y-43875D01*
X75873Y-43893D01*
X76022Y-43906D01*
X76429Y-43500D01*
X76022Y-43093D01*
X75873Y-43106D01*
X75867Y-43124D01*
X75800Y-43057D01*
X75800Y-42500D01*
X75799Y-42499D01*
X75777Y-42385D01*
X75712Y-42287D01*
X75712Y-42287D01*
X74962Y-41537D01*
X74864Y-41472D01*
X74750Y-41450D01*
X73942Y-41450D01*
X73797Y-41305D01*
X73604Y-41225D01*
X73396Y-41224D01*
X73203Y-41304D01*
X73055Y-41452D01*
X72975Y-41645D01*
X72974Y-41853D01*
X73054Y-42047D01*
X73200Y-42192D01*
X73200Y-43375D01*
X71875Y-44700D01*
X70942Y-44700D01*
X70797Y-44555D01*
X70664Y-44499D01*
X70797Y-44445D01*
X70944Y-44297D01*
X71024Y-44104D01*
X71025Y-43896D01*
X70945Y-43703D01*
X70797Y-43555D01*
X70664Y-43499D01*
X70797Y-43445D01*
X70944Y-43297D01*
X71024Y-43104D01*
X71025Y-42896D01*
X70945Y-42703D01*
X70797Y-42555D01*
X70664Y-42499D01*
X70797Y-42445D01*
X70942Y-42300D01*
X71500Y-42300D01*
X71500Y-42299D01*
X71614Y-42277D01*
X71614Y-42277D01*
X71712Y-42212D01*
X74121Y-39802D01*
X74075Y-39915D01*
X74074Y-40084D01*
X74139Y-40240D01*
X74258Y-40360D01*
X74415Y-40424D01*
X74584Y-40425D01*
X74740Y-40360D01*
X74749Y-40351D01*
X74758Y-40360D01*
X74915Y-40424D01*
X75084Y-40425D01*
X75240Y-40360D01*
X75360Y-40241D01*
X75424Y-40084D01*
X75425Y-39915D01*
X75360Y-39759D01*
X75300Y-39698D01*
X75300Y-38301D01*
X75360Y-38241D01*
X75424Y-38084D01*
X75425Y-37915D01*
X75360Y-37759D01*
X75241Y-37639D01*
X75084Y-37575D01*
X74915Y-37574D01*
X74800Y-37622D01*
X74800Y-35301D01*
X74860Y-35241D01*
X74924Y-35084D01*
X74925Y-34915D01*
X74860Y-34759D01*
X74762Y-34661D01*
X75624Y-33800D01*
X76057Y-33800D01*
X76202Y-33944D01*
X76335Y-34000D01*
X76203Y-34054D01*
X76055Y-34202D01*
X75975Y-34395D01*
X75974Y-34603D01*
X76054Y-34797D01*
X76202Y-34944D01*
X76335Y-35000D01*
X76203Y-35054D01*
X76055Y-35202D01*
X75975Y-35395D01*
X75974Y-35603D01*
X76054Y-35797D01*
X76202Y-35944D01*
X76335Y-36000D01*
X76203Y-36054D01*
X76055Y-36202D01*
X75975Y-36395D01*
X75974Y-36603D01*
X76054Y-36797D01*
X76062Y-36805D01*
X75969Y-36843D01*
X75843Y-36970D01*
X75774Y-37135D01*
X75775Y-37337D01*
X75887Y-37450D01*
X76450Y-37450D01*
X76450Y-37442D01*
X76550Y-37442D01*
X76550Y-37450D01*
X77112Y-37450D01*
X77225Y-37337D01*
X77225Y-37135D01*
X77225Y-37864D01*
X77225Y-37662D01*
X77112Y-37550D01*
X76550Y-37550D01*
X76550Y-38112D01*
X76662Y-38225D01*
X76685Y-38225D01*
X76864Y-38224D01*
X77030Y-38156D01*
X77156Y-38029D01*
X77225Y-37864D01*
X77225Y-39673D01*
X77139Y-39758D01*
X77075Y-39915D01*
X77074Y-40084D01*
X77139Y-40240D01*
X77200Y-40301D01*
X77200Y-43285D01*
X77126Y-43106D01*
X76977Y-43093D01*
X76906Y-43164D01*
X76906Y-43022D01*
X76893Y-42873D01*
X76623Y-42771D01*
X76450Y-42776D01*
X76450Y-38112D01*
X76450Y-37550D01*
X75887Y-37550D01*
X75775Y-37662D01*
X75774Y-37864D01*
X75843Y-38029D01*
X75969Y-38156D01*
X76135Y-38224D01*
X76314Y-38225D01*
X76337Y-38225D01*
X76450Y-38112D01*
X76450Y-42776D01*
X76335Y-42779D01*
X76106Y-42873D01*
X76093Y-43022D01*
X76500Y-43429D01*
X76906Y-43022D01*
X76906Y-43164D01*
X76570Y-43500D01*
X76977Y-43906D01*
X77126Y-43893D01*
X77200Y-43699D01*
X77200Y-46285D01*
X77126Y-46106D01*
X76977Y-46093D01*
X76906Y-46164D01*
X76906Y-46022D01*
X76906Y-43977D01*
X76500Y-43570D01*
X76093Y-43977D01*
X76106Y-44126D01*
X76376Y-44228D01*
X76664Y-44220D01*
X76893Y-44126D01*
X76906Y-43977D01*
X76906Y-46022D01*
X76893Y-45873D01*
X76623Y-45771D01*
X76335Y-45779D01*
X76106Y-45873D01*
X76093Y-46022D01*
X76500Y-46429D01*
X76906Y-46022D01*
X76906Y-46164D01*
X76570Y-46500D01*
X76977Y-46906D01*
X77126Y-46893D01*
X77200Y-46699D01*
X77200Y-62700D01*
X76906Y-62700D01*
X76906Y-46977D01*
X76500Y-46570D01*
X76429Y-46641D01*
X76429Y-46500D01*
X76022Y-46093D01*
X75873Y-46106D01*
X75867Y-46124D01*
X75797Y-46055D01*
X75604Y-45975D01*
X75399Y-45974D01*
X74462Y-45037D01*
X74364Y-44972D01*
X74250Y-44950D01*
X73942Y-44950D01*
X73797Y-44805D01*
X73604Y-44725D01*
X73396Y-44724D01*
X73203Y-44804D01*
X73055Y-44952D01*
X72975Y-45145D01*
X72974Y-45353D01*
X73054Y-45547D01*
X73202Y-45694D01*
X73395Y-45774D01*
X73603Y-45775D01*
X73797Y-45695D01*
X73942Y-45550D01*
X74125Y-45550D01*
X74975Y-46399D01*
X74974Y-46603D01*
X75054Y-46797D01*
X75200Y-46942D01*
X75200Y-47750D01*
X75222Y-47864D01*
X75231Y-47878D01*
X75231Y-47878D01*
X75225Y-47895D01*
X75224Y-48103D01*
X75304Y-48297D01*
X75452Y-48444D01*
X75645Y-48524D01*
X75853Y-48525D01*
X76047Y-48445D01*
X76194Y-48297D01*
X76274Y-48104D01*
X76275Y-47896D01*
X76195Y-47703D01*
X76047Y-47555D01*
X75854Y-47475D01*
X75800Y-47475D01*
X75800Y-46942D01*
X75866Y-46875D01*
X75873Y-46893D01*
X76022Y-46906D01*
X76429Y-46500D01*
X76429Y-46641D01*
X76093Y-46977D01*
X76106Y-47126D01*
X76376Y-47228D01*
X76664Y-47220D01*
X76893Y-47126D01*
X76906Y-46977D01*
X76906Y-62700D01*
X76228Y-62700D01*
X76228Y-50123D01*
X76220Y-49835D01*
X76126Y-49606D01*
X75977Y-49593D01*
X75906Y-49664D01*
X75906Y-49522D01*
X75893Y-49373D01*
X75623Y-49271D01*
X75335Y-49279D01*
X75106Y-49373D01*
X75093Y-49522D01*
X75500Y-49929D01*
X75906Y-49522D01*
X75906Y-49664D01*
X75570Y-50000D01*
X75977Y-50406D01*
X76126Y-50393D01*
X76228Y-50123D01*
X76228Y-62700D01*
X75906Y-62700D01*
X75906Y-50477D01*
X75500Y-50070D01*
X75093Y-50477D01*
X75106Y-50626D01*
X75376Y-50728D01*
X75664Y-50720D01*
X75893Y-50626D01*
X75906Y-50477D01*
X75906Y-62700D01*
X75728Y-62700D01*
X75728Y-54623D01*
X75728Y-51623D01*
X75720Y-51335D01*
X75626Y-51106D01*
X75477Y-51093D01*
X75406Y-51164D01*
X75406Y-51022D01*
X75393Y-50873D01*
X75123Y-50771D01*
X74835Y-50779D01*
X74606Y-50873D01*
X74593Y-51022D01*
X75000Y-51429D01*
X75406Y-51022D01*
X75406Y-51164D01*
X75070Y-51500D01*
X75477Y-51906D01*
X75626Y-51893D01*
X75728Y-51623D01*
X75728Y-54623D01*
X75720Y-54335D01*
X75626Y-54106D01*
X75477Y-54093D01*
X75406Y-54164D01*
X75406Y-54022D01*
X75406Y-51977D01*
X75000Y-51570D01*
X74929Y-51641D01*
X74929Y-51500D01*
X74522Y-51093D01*
X74373Y-51106D01*
X74271Y-51376D01*
X74279Y-51664D01*
X74373Y-51893D01*
X74522Y-51906D01*
X74929Y-51500D01*
X74929Y-51641D01*
X74593Y-51977D01*
X74606Y-52126D01*
X74876Y-52228D01*
X75164Y-52220D01*
X75393Y-52126D01*
X75406Y-51977D01*
X75406Y-54022D01*
X75393Y-53873D01*
X75123Y-53771D01*
X74835Y-53779D01*
X74606Y-53873D01*
X74593Y-54022D01*
X75000Y-54429D01*
X75406Y-54022D01*
X75406Y-54164D01*
X75070Y-54500D01*
X75477Y-54906D01*
X75626Y-54893D01*
X75728Y-54623D01*
X75728Y-62700D01*
X75406Y-62700D01*
X75406Y-54977D01*
X75000Y-54570D01*
X74929Y-54641D01*
X74929Y-54500D01*
X74522Y-54093D01*
X74373Y-54106D01*
X74271Y-54376D01*
X74279Y-54664D01*
X74373Y-54893D01*
X74522Y-54906D01*
X74929Y-54500D01*
X74929Y-54641D01*
X74593Y-54977D01*
X74606Y-55126D01*
X74876Y-55228D01*
X75164Y-55220D01*
X75393Y-55126D01*
X75406Y-54977D01*
X75406Y-62700D01*
X75253Y-62700D01*
X75253Y-61129D01*
X75245Y-60831D01*
X75146Y-60591D01*
X74995Y-60575D01*
X74570Y-61000D01*
X74995Y-61424D01*
X75146Y-61408D01*
X75253Y-61129D01*
X75253Y-62700D01*
X74924Y-62700D01*
X74924Y-61495D01*
X74500Y-61070D01*
X74429Y-61141D01*
X74429Y-61000D01*
X74235Y-60806D01*
X74146Y-60591D01*
X74006Y-60576D01*
X74004Y-60575D01*
X73999Y-60576D01*
X73995Y-60575D01*
X73993Y-60576D01*
X73853Y-60591D01*
X73775Y-60795D01*
X73570Y-61000D01*
X73764Y-61193D01*
X73853Y-61408D01*
X73993Y-61423D01*
X73995Y-61424D01*
X74000Y-61423D01*
X74004Y-61424D01*
X74006Y-61423D01*
X74146Y-61408D01*
X74224Y-61204D01*
X74429Y-61000D01*
X74429Y-61141D01*
X74075Y-61495D01*
X74091Y-61646D01*
X74370Y-61753D01*
X74668Y-61745D01*
X74908Y-61646D01*
X74924Y-61495D01*
X74924Y-62700D01*
X73924Y-62700D01*
X73924Y-61495D01*
X73500Y-61070D01*
X73075Y-61495D01*
X73091Y-61646D01*
X73370Y-61753D01*
X73668Y-61745D01*
X73908Y-61646D01*
X73924Y-61495D01*
X73924Y-62700D01*
X69580Y-62700D01*
X70275Y-62412D01*
X70910Y-61779D01*
X71254Y-60950D01*
X71255Y-60053D01*
X70912Y-59224D01*
X70279Y-58589D01*
X69450Y-58245D01*
X68553Y-58244D01*
X67724Y-58587D01*
X67089Y-59220D01*
X66745Y-60049D01*
X66744Y-60946D01*
X67087Y-61775D01*
X67720Y-62410D01*
X68417Y-62700D01*
X64124Y-62700D01*
X62800Y-61375D01*
X62800Y-60801D01*
X62860Y-60741D01*
X62924Y-60584D01*
X62925Y-60415D01*
X62860Y-60259D01*
X62741Y-60139D01*
X62584Y-60075D01*
X62415Y-60074D01*
X62259Y-60139D01*
X62139Y-60258D01*
X62075Y-60415D01*
X62074Y-60584D01*
X62139Y-60740D01*
X62200Y-60801D01*
X62200Y-61500D01*
X62222Y-61614D01*
X62287Y-61712D01*
X63787Y-63212D01*
X63787Y-63212D01*
X63815Y-63230D01*
X61728Y-63230D01*
X61728Y-59623D01*
X61720Y-59335D01*
X61626Y-59106D01*
X61477Y-59093D01*
X61406Y-59164D01*
X61406Y-59022D01*
X61393Y-58873D01*
X61123Y-58771D01*
X60835Y-58779D01*
X60606Y-58873D01*
X60593Y-59022D01*
X61000Y-59429D01*
X61406Y-59022D01*
X61406Y-59164D01*
X61070Y-59500D01*
X61477Y-59906D01*
X61626Y-59893D01*
X61728Y-59623D01*
X61728Y-63230D01*
X50425Y-63230D01*
X50425Y-59415D01*
X50360Y-59259D01*
X50241Y-59139D01*
X50084Y-59075D01*
X49915Y-59074D01*
X49759Y-59139D01*
X49698Y-59200D01*
X49624Y-59200D01*
X46493Y-56068D01*
X46445Y-55953D01*
X46297Y-55805D01*
X46104Y-55725D01*
X45896Y-55724D01*
X45703Y-55804D01*
X45557Y-55950D01*
X44942Y-55950D01*
X44797Y-55805D01*
X44604Y-55725D01*
X44396Y-55724D01*
X44203Y-55804D01*
X44057Y-55950D01*
X43525Y-55950D01*
X43525Y-52646D01*
X43445Y-52453D01*
X43297Y-52305D01*
X43104Y-52225D01*
X42896Y-52224D01*
X42703Y-52304D01*
X42555Y-52452D01*
X42475Y-52645D01*
X42474Y-52853D01*
X42554Y-53047D01*
X42702Y-53194D01*
X42895Y-53274D01*
X43103Y-53275D01*
X43297Y-53195D01*
X43444Y-53047D01*
X43524Y-52854D01*
X43525Y-52646D01*
X43525Y-55950D01*
X43442Y-55950D01*
X43297Y-55805D01*
X43104Y-55725D01*
X42896Y-55724D01*
X42703Y-55804D01*
X42557Y-55950D01*
X42025Y-55950D01*
X42025Y-52646D01*
X41945Y-52453D01*
X41797Y-52305D01*
X41604Y-52225D01*
X41396Y-52224D01*
X41203Y-52304D01*
X41055Y-52452D01*
X40975Y-52645D01*
X40974Y-52853D01*
X41054Y-53047D01*
X41202Y-53194D01*
X41395Y-53274D01*
X41603Y-53275D01*
X41797Y-53195D01*
X41944Y-53047D01*
X42024Y-52854D01*
X42025Y-52646D01*
X42025Y-55950D01*
X41942Y-55950D01*
X41797Y-55805D01*
X41604Y-55725D01*
X41396Y-55724D01*
X41203Y-55804D01*
X41057Y-55950D01*
X40442Y-55950D01*
X40297Y-55805D01*
X40104Y-55725D01*
X39896Y-55724D01*
X39703Y-55804D01*
X39557Y-55950D01*
X38942Y-55950D01*
X38797Y-55805D01*
X38604Y-55725D01*
X38396Y-55724D01*
X38203Y-55804D01*
X38057Y-55950D01*
X37442Y-55950D01*
X37297Y-55805D01*
X37104Y-55725D01*
X36896Y-55724D01*
X36703Y-55804D01*
X36557Y-55950D01*
X36025Y-55950D01*
X36025Y-52646D01*
X35945Y-52453D01*
X35797Y-52305D01*
X35604Y-52225D01*
X35396Y-52224D01*
X35228Y-52294D01*
X35228Y-47123D01*
X35220Y-46835D01*
X35126Y-46606D01*
X34977Y-46593D01*
X34570Y-47000D01*
X34977Y-47406D01*
X35126Y-47393D01*
X35228Y-47123D01*
X35228Y-52294D01*
X35203Y-52304D01*
X35055Y-52452D01*
X34975Y-52645D01*
X34974Y-52853D01*
X35054Y-53047D01*
X35202Y-53194D01*
X35395Y-53274D01*
X35603Y-53275D01*
X35797Y-53195D01*
X35944Y-53047D01*
X36024Y-52854D01*
X36025Y-52646D01*
X36025Y-55950D01*
X35942Y-55950D01*
X35797Y-55805D01*
X35604Y-55725D01*
X35396Y-55724D01*
X35203Y-55804D01*
X35055Y-55952D01*
X34975Y-56145D01*
X34974Y-56353D01*
X35054Y-56547D01*
X35202Y-56694D01*
X35395Y-56774D01*
X35603Y-56775D01*
X35797Y-56695D01*
X35942Y-56550D01*
X36557Y-56550D01*
X36702Y-56694D01*
X36895Y-56774D01*
X37103Y-56775D01*
X37297Y-56695D01*
X37442Y-56550D01*
X38057Y-56550D01*
X38202Y-56694D01*
X38395Y-56774D01*
X38603Y-56775D01*
X38797Y-56695D01*
X38942Y-56550D01*
X39557Y-56550D01*
X39702Y-56694D01*
X39895Y-56774D01*
X40103Y-56775D01*
X40297Y-56695D01*
X40442Y-56550D01*
X41057Y-56550D01*
X41202Y-56694D01*
X41395Y-56774D01*
X41603Y-56775D01*
X41797Y-56695D01*
X41942Y-56550D01*
X42557Y-56550D01*
X42702Y-56694D01*
X42895Y-56774D01*
X43103Y-56775D01*
X43297Y-56695D01*
X43442Y-56550D01*
X44057Y-56550D01*
X44202Y-56694D01*
X44395Y-56774D01*
X44603Y-56775D01*
X44797Y-56695D01*
X44942Y-56550D01*
X45557Y-56550D01*
X45702Y-56694D01*
X45895Y-56774D01*
X46103Y-56775D01*
X46278Y-56702D01*
X49287Y-59712D01*
X49287Y-59712D01*
X49385Y-59777D01*
X49499Y-59799D01*
X49500Y-59800D01*
X49698Y-59800D01*
X49758Y-59860D01*
X49915Y-59924D01*
X50084Y-59925D01*
X50240Y-59860D01*
X50360Y-59741D01*
X50424Y-59584D01*
X50425Y-59415D01*
X50425Y-63230D01*
X45755Y-63230D01*
X45755Y-60053D01*
X45412Y-59224D01*
X44779Y-58589D01*
X43950Y-58245D01*
X43053Y-58244D01*
X42224Y-58587D01*
X41589Y-59220D01*
X41245Y-60049D01*
X41244Y-60946D01*
X41587Y-61775D01*
X42220Y-62410D01*
X43049Y-62754D01*
X43946Y-62755D01*
X44775Y-62412D01*
X45410Y-61779D01*
X45754Y-60950D01*
X45755Y-60053D01*
X45755Y-63230D01*
X39275Y-63230D01*
X39275Y-57896D01*
X39195Y-57703D01*
X39047Y-57555D01*
X38854Y-57475D01*
X38646Y-57474D01*
X38453Y-57554D01*
X38305Y-57702D01*
X38225Y-57895D01*
X38224Y-58103D01*
X38304Y-58297D01*
X38450Y-58442D01*
X38450Y-59474D01*
X38396Y-59474D01*
X38203Y-59554D01*
X38057Y-59700D01*
X35942Y-59700D01*
X35797Y-59555D01*
X35775Y-59545D01*
X35775Y-57896D01*
X35695Y-57703D01*
X35547Y-57555D01*
X35354Y-57475D01*
X35146Y-57474D01*
X34953Y-57554D01*
X34906Y-57601D01*
X34906Y-47477D01*
X34500Y-47070D01*
X34429Y-47141D01*
X34429Y-47000D01*
X34022Y-46593D01*
X33873Y-46606D01*
X33771Y-46876D01*
X33779Y-47164D01*
X33873Y-47393D01*
X34022Y-47406D01*
X34429Y-47000D01*
X34429Y-47141D01*
X34093Y-47477D01*
X34106Y-47626D01*
X34376Y-47728D01*
X34664Y-47720D01*
X34893Y-47626D01*
X34906Y-47477D01*
X34906Y-57601D01*
X34805Y-57702D01*
X34725Y-57895D01*
X34724Y-58103D01*
X34804Y-58297D01*
X34952Y-58444D01*
X35145Y-58524D01*
X35353Y-58525D01*
X35547Y-58445D01*
X35694Y-58297D01*
X35774Y-58104D01*
X35775Y-57896D01*
X35775Y-59545D01*
X35604Y-59475D01*
X35396Y-59474D01*
X35203Y-59554D01*
X35055Y-59702D01*
X34975Y-59895D01*
X34974Y-60103D01*
X35054Y-60297D01*
X35202Y-60444D01*
X35395Y-60524D01*
X35603Y-60525D01*
X35797Y-60445D01*
X35942Y-60300D01*
X38057Y-60300D01*
X38202Y-60444D01*
X38395Y-60524D01*
X38603Y-60525D01*
X38797Y-60445D01*
X38944Y-60297D01*
X39024Y-60104D01*
X39025Y-59896D01*
X39017Y-59878D01*
X39027Y-59864D01*
X39049Y-59750D01*
X39050Y-59750D01*
X39050Y-58442D01*
X39194Y-58297D01*
X39274Y-58104D01*
X39275Y-57896D01*
X39275Y-63230D01*
X39228Y-63230D01*
X39228Y-62123D01*
X39220Y-61835D01*
X39126Y-61606D01*
X38977Y-61593D01*
X38906Y-61664D01*
X38906Y-61522D01*
X38893Y-61373D01*
X38623Y-61271D01*
X38335Y-61279D01*
X38106Y-61373D01*
X38093Y-61522D01*
X38500Y-61929D01*
X38906Y-61522D01*
X38906Y-61664D01*
X38570Y-62000D01*
X38977Y-62406D01*
X39126Y-62393D01*
X39228Y-62123D01*
X39228Y-63230D01*
X38906Y-63230D01*
X38906Y-62477D01*
X38500Y-62070D01*
X38429Y-62141D01*
X38429Y-62000D01*
X38022Y-61593D01*
X37873Y-61606D01*
X37771Y-61876D01*
X37779Y-62164D01*
X37873Y-62393D01*
X38022Y-62406D01*
X38429Y-62000D01*
X38429Y-62141D01*
X38093Y-62477D01*
X38106Y-62626D01*
X38376Y-62728D01*
X38664Y-62720D01*
X38893Y-62626D01*
X38906Y-62477D01*
X38906Y-63230D01*
X36228Y-63230D01*
X36228Y-62123D01*
X36220Y-61835D01*
X36126Y-61606D01*
X35977Y-61593D01*
X35906Y-61664D01*
X35906Y-61522D01*
X35893Y-61373D01*
X35623Y-61271D01*
X35335Y-61279D01*
X35106Y-61373D01*
X35093Y-61522D01*
X35500Y-61929D01*
X35906Y-61522D01*
X35906Y-61664D01*
X35570Y-62000D01*
X35977Y-62406D01*
X36126Y-62393D01*
X36228Y-62123D01*
X36228Y-63230D01*
X35906Y-63230D01*
X35906Y-62477D01*
X35500Y-62070D01*
X35429Y-62141D01*
X35429Y-62000D01*
X35022Y-61593D01*
X34873Y-61606D01*
X34771Y-61876D01*
X34779Y-62164D01*
X34873Y-62393D01*
X35022Y-62406D01*
X35429Y-62000D01*
X35429Y-62141D01*
X35093Y-62477D01*
X35106Y-62626D01*
X35376Y-62728D01*
X35664Y-62720D01*
X35893Y-62626D01*
X35906Y-62477D01*
X35906Y-63230D01*
X33269Y-63230D01*
X33269Y-18769D01*
X77730Y-18769D01*
X77730Y-39635D01*
M02*
