G04 (created by PCBNEW (2013-jul-07)-stable) date Sun 06 Sep 2015 09:30:16 PM EDT*
%MOIN*%
G04 Gerber Fmt 3.4, Leading zero omitted, Abs format*
%FSLAX34Y34*%
G01*
G70*
G90*
G04 APERTURE LIST*
%ADD10C,0.00590551*%
%ADD11C,0.07*%
%ADD12R,0.07X0.07*%
%ADD13C,0.055*%
%ADD14R,0.055X0.055*%
%ADD15R,0.06X0.06*%
%ADD16C,0.06*%
%ADD17C,0.066*%
%ADD18C,0.401*%
%ADD19C,0.035*%
%ADD20C,0.01*%
G04 APERTURE END LIST*
G54D10*
G54D11*
X75500Y-27500D03*
X75500Y-26500D03*
G54D12*
X75500Y-25500D03*
G54D13*
X75000Y-54500D03*
X73000Y-54500D03*
X75000Y-51500D03*
X73000Y-51500D03*
X38500Y-60000D03*
X38500Y-62000D03*
X35500Y-60000D03*
X35500Y-62000D03*
G54D14*
X76500Y-37500D03*
G54D13*
X76500Y-36500D03*
X76500Y-35500D03*
X76500Y-34500D03*
X76500Y-33500D03*
X76500Y-32500D03*
X76500Y-31500D03*
G54D14*
X34500Y-33000D03*
G54D13*
X34500Y-32000D03*
X34500Y-31000D03*
X34500Y-30000D03*
X34500Y-29000D03*
X34500Y-28000D03*
X34500Y-27000D03*
X34500Y-26000D03*
X34500Y-25000D03*
X34500Y-24000D03*
G54D14*
X34500Y-38000D03*
G54D13*
X34500Y-39000D03*
X34500Y-40000D03*
X34500Y-41000D03*
X34500Y-42000D03*
X34500Y-43000D03*
X34500Y-44000D03*
X34500Y-45000D03*
X34500Y-46000D03*
X34500Y-47000D03*
X61500Y-19750D03*
X61500Y-23250D03*
X53000Y-49750D03*
X53000Y-46250D03*
X59500Y-19750D03*
X59500Y-23250D03*
X57500Y-19750D03*
X57500Y-23250D03*
X55500Y-19750D03*
X55500Y-23250D03*
X48000Y-56250D03*
X48000Y-52750D03*
X46000Y-56250D03*
X46000Y-52750D03*
X37000Y-56250D03*
X37000Y-52750D03*
X59000Y-49750D03*
X59000Y-46250D03*
X59000Y-52250D03*
X59000Y-55750D03*
X59000Y-57750D03*
X59000Y-61250D03*
X40250Y-46000D03*
X36750Y-46000D03*
X38500Y-56250D03*
X38500Y-52750D03*
X53500Y-19750D03*
X53500Y-23250D03*
X63500Y-19750D03*
X63500Y-23250D03*
X65500Y-19750D03*
X65500Y-23250D03*
X51500Y-19750D03*
X51500Y-23250D03*
X38750Y-24000D03*
X42250Y-24000D03*
X43750Y-25000D03*
X47250Y-25000D03*
X38750Y-26000D03*
X42250Y-26000D03*
X38750Y-28000D03*
X42250Y-28000D03*
X43750Y-29000D03*
X47250Y-29000D03*
X38750Y-30000D03*
X42250Y-30000D03*
X43750Y-31000D03*
X47250Y-31000D03*
X38750Y-32000D03*
X42250Y-32000D03*
X73500Y-41750D03*
X73500Y-45250D03*
X64000Y-52750D03*
X64000Y-56250D03*
X66500Y-56250D03*
X66500Y-52750D03*
X35250Y-58000D03*
X38750Y-58000D03*
X72250Y-48000D03*
X75750Y-48000D03*
X57000Y-34250D03*
X57000Y-37750D03*
X57000Y-44250D03*
X57000Y-40750D03*
X42500Y-37750D03*
X42500Y-34250D03*
X47000Y-37750D03*
X47000Y-34250D03*
X51000Y-34250D03*
X51000Y-37750D03*
X53000Y-37750D03*
X53000Y-34250D03*
X44500Y-56250D03*
X44500Y-52750D03*
X40250Y-39000D03*
X36750Y-39000D03*
X45500Y-37750D03*
X45500Y-34250D03*
X59000Y-40750D03*
X59000Y-44250D03*
X55000Y-37750D03*
X55000Y-34250D03*
X48500Y-37750D03*
X48500Y-34250D03*
X40250Y-40000D03*
X36750Y-40000D03*
X44000Y-37750D03*
X44000Y-34250D03*
X53000Y-44250D03*
X53000Y-40750D03*
X55000Y-40750D03*
X55000Y-44250D03*
X40250Y-41000D03*
X36750Y-41000D03*
X43000Y-56250D03*
X43000Y-52750D03*
X55000Y-49750D03*
X55000Y-46250D03*
X57000Y-57750D03*
X57000Y-61250D03*
X40250Y-45000D03*
X36750Y-45000D03*
X40000Y-56250D03*
X40000Y-52750D03*
X57000Y-49750D03*
X57000Y-46250D03*
X55000Y-52250D03*
X55000Y-55750D03*
X55000Y-57750D03*
X55000Y-61250D03*
X40250Y-44000D03*
X36750Y-44000D03*
X35500Y-56250D03*
X35500Y-52750D03*
X57000Y-52250D03*
X57000Y-55750D03*
X41500Y-56250D03*
X41500Y-52750D03*
X53000Y-52250D03*
X53000Y-55750D03*
X53000Y-57750D03*
X53000Y-61250D03*
X40250Y-43000D03*
X36750Y-43000D03*
X40250Y-38000D03*
X36750Y-38000D03*
G54D15*
X72500Y-61000D03*
G54D16*
X72500Y-60000D03*
X73500Y-61000D03*
X73500Y-60000D03*
X74500Y-61000D03*
X74500Y-60000D03*
G54D17*
X66500Y-57500D03*
X66500Y-58500D03*
X64000Y-57500D03*
X64000Y-58500D03*
G54D14*
X70500Y-50000D03*
G54D13*
X70500Y-49000D03*
X70500Y-48000D03*
X70500Y-47000D03*
X70500Y-46000D03*
X70500Y-45000D03*
X70500Y-44000D03*
X70500Y-43000D03*
X70500Y-42000D03*
X70500Y-41000D03*
X70500Y-40000D03*
X70500Y-39000D03*
X70500Y-38000D03*
X70500Y-37000D03*
X64500Y-37000D03*
X64500Y-38000D03*
X64500Y-39000D03*
X64500Y-40000D03*
X64500Y-41000D03*
X64500Y-42000D03*
X64500Y-43000D03*
X64500Y-44000D03*
X64500Y-45000D03*
X64500Y-46000D03*
X64500Y-47000D03*
X64500Y-48000D03*
X64500Y-49000D03*
X64500Y-50000D03*
G54D14*
X70500Y-32500D03*
G54D13*
X70500Y-31500D03*
X70500Y-30500D03*
X70500Y-29500D03*
X70500Y-28500D03*
X70500Y-27500D03*
X70500Y-26500D03*
X70500Y-25500D03*
X67500Y-25500D03*
X67500Y-26500D03*
X67500Y-27500D03*
X67500Y-28500D03*
X67500Y-29500D03*
X67500Y-30500D03*
X67500Y-31500D03*
X67500Y-32500D03*
G54D14*
X49000Y-40500D03*
G54D13*
X48000Y-40500D03*
X47000Y-40500D03*
X46000Y-40500D03*
X45000Y-40500D03*
X44000Y-40500D03*
X43000Y-40500D03*
X43000Y-43500D03*
X44000Y-43500D03*
X45000Y-43500D03*
X46000Y-43500D03*
X47000Y-43500D03*
X48000Y-43500D03*
X49000Y-43500D03*
G54D14*
X49000Y-47000D03*
G54D13*
X48000Y-47000D03*
X47000Y-47000D03*
X46000Y-47000D03*
X45000Y-47000D03*
X44000Y-47000D03*
X43000Y-47000D03*
X43000Y-50000D03*
X44000Y-50000D03*
X45000Y-50000D03*
X46000Y-50000D03*
X47000Y-50000D03*
X48000Y-50000D03*
X49000Y-50000D03*
G54D14*
X52500Y-20000D03*
G54D13*
X52500Y-23000D03*
G54D14*
X54500Y-20000D03*
G54D13*
X54500Y-23000D03*
G54D14*
X56500Y-20000D03*
G54D13*
X56500Y-23000D03*
G54D14*
X58500Y-20000D03*
G54D13*
X58500Y-23000D03*
G54D14*
X60500Y-20000D03*
G54D13*
X60500Y-23000D03*
G54D14*
X62500Y-20000D03*
G54D13*
X62500Y-23000D03*
G54D14*
X50500Y-20000D03*
G54D13*
X50500Y-23000D03*
G54D14*
X64500Y-20000D03*
G54D13*
X64500Y-23000D03*
G54D14*
X64500Y-25000D03*
G54D13*
X64500Y-28000D03*
G54D14*
X50500Y-25000D03*
G54D13*
X50500Y-28000D03*
G54D14*
X52500Y-25000D03*
G54D13*
X52500Y-28000D03*
G54D14*
X54500Y-25000D03*
G54D13*
X54500Y-28000D03*
G54D14*
X56500Y-25000D03*
G54D13*
X56500Y-28000D03*
G54D14*
X58500Y-25000D03*
G54D13*
X58500Y-28000D03*
G54D14*
X60500Y-25000D03*
G54D13*
X60500Y-28000D03*
G54D14*
X62500Y-25000D03*
G54D13*
X62500Y-28000D03*
X74500Y-50000D03*
X75500Y-50000D03*
X61000Y-60500D03*
X61000Y-59500D03*
X70500Y-23000D03*
X71500Y-23000D03*
X70500Y-20500D03*
X71500Y-20500D03*
X75500Y-46500D03*
X76500Y-46500D03*
X75500Y-43500D03*
X76500Y-43500D03*
G54D14*
X38500Y-20000D03*
G54D13*
X39500Y-20000D03*
X40500Y-20000D03*
X41500Y-20000D03*
X42500Y-20000D03*
G54D18*
X36000Y-21500D03*
X75000Y-21500D03*
X43500Y-60500D03*
X69000Y-60500D03*
G54D19*
X74500Y-35000D03*
X74500Y-40000D03*
X69000Y-24000D03*
X50000Y-59500D03*
X61000Y-57500D03*
X34500Y-57000D03*
X57500Y-29000D03*
X59500Y-30000D03*
X61500Y-31000D03*
X63500Y-32000D03*
X47000Y-51500D03*
X45500Y-51500D03*
X53000Y-50500D03*
X43500Y-49000D03*
X52500Y-56500D03*
X67000Y-34000D03*
X71000Y-34000D03*
X71500Y-54000D03*
X67500Y-35000D03*
X66000Y-35000D03*
X62500Y-54000D03*
X62500Y-58000D03*
X62500Y-60500D03*
X77500Y-40000D03*
X75000Y-40000D03*
X75000Y-38000D03*
X55000Y-48500D03*
X63000Y-40000D03*
X63000Y-42000D03*
X45000Y-38500D03*
X68500Y-33500D03*
X68500Y-43000D03*
G54D20*
X35250Y-58000D02*
X35250Y-58250D01*
X70500Y-63000D02*
X72500Y-61000D01*
X41500Y-63000D02*
X70500Y-63000D01*
X40500Y-62000D02*
X41500Y-63000D01*
X40500Y-60000D02*
X40500Y-62000D01*
X39500Y-59000D02*
X40500Y-60000D01*
X36000Y-59000D02*
X39500Y-59000D01*
X35250Y-58250D02*
X36000Y-59000D01*
X70500Y-23000D02*
X72000Y-24500D01*
X72000Y-24500D02*
X72000Y-27000D01*
X72500Y-27500D02*
X75500Y-27500D01*
X72000Y-27000D02*
X72500Y-27500D01*
X72500Y-61500D02*
X72500Y-61000D01*
X70500Y-43000D02*
X71500Y-43000D01*
X72000Y-32500D02*
X72000Y-24500D01*
X74500Y-35000D02*
X72000Y-32500D01*
X71500Y-43000D02*
X74500Y-40000D01*
X72500Y-61000D02*
X72500Y-61500D01*
X74000Y-43000D02*
X70500Y-43000D01*
X75000Y-42000D02*
X74000Y-43000D01*
X76000Y-42000D02*
X75500Y-42000D01*
X75500Y-42000D02*
X75000Y-42000D01*
X77500Y-43500D02*
X76000Y-42000D01*
X77500Y-60000D02*
X77500Y-43500D01*
X75500Y-62000D02*
X77500Y-60000D01*
X73000Y-62000D02*
X75500Y-62000D01*
X72500Y-61500D02*
X73000Y-62000D01*
X66500Y-52750D02*
X64000Y-52750D01*
X64000Y-52750D02*
X61000Y-49750D01*
X61000Y-49750D02*
X59000Y-49750D01*
X69000Y-29000D02*
X69000Y-24000D01*
X55000Y-37750D02*
X55000Y-40750D01*
X50000Y-59500D02*
X59000Y-59500D01*
X59000Y-59500D02*
X61000Y-57500D01*
X67500Y-32500D02*
X68000Y-32500D01*
X69000Y-29000D02*
X70500Y-27500D01*
X69000Y-31500D02*
X69000Y-29000D01*
X68000Y-32500D02*
X69000Y-31500D01*
X55000Y-37750D02*
X55000Y-36500D01*
X56500Y-32500D02*
X67500Y-32500D01*
X56000Y-33000D02*
X56500Y-32500D01*
X56000Y-35500D02*
X56000Y-33000D01*
X55000Y-36500D02*
X56000Y-35500D01*
X46000Y-56250D02*
X46000Y-54500D01*
X47000Y-48500D02*
X47000Y-47000D01*
X46500Y-49000D02*
X47000Y-48500D01*
X46500Y-54000D02*
X46500Y-49000D01*
X46000Y-54500D02*
X46500Y-54000D01*
X50500Y-28000D02*
X49500Y-28000D01*
X46000Y-20000D02*
X42500Y-20000D01*
X48500Y-22500D02*
X46000Y-20000D01*
X48500Y-27000D02*
X48500Y-22500D01*
X49500Y-28000D02*
X48500Y-27000D01*
X48000Y-52750D02*
X48000Y-54000D01*
X46500Y-57000D02*
X34500Y-57000D01*
X47000Y-56500D02*
X46500Y-57000D01*
X47000Y-55000D02*
X47000Y-56500D01*
X48000Y-54000D02*
X47000Y-55000D01*
X50500Y-28000D02*
X50500Y-32500D01*
X50500Y-32500D02*
X50000Y-33000D01*
X50000Y-33000D02*
X34500Y-33000D01*
X70500Y-46000D02*
X74500Y-46000D01*
X76500Y-44000D02*
X76500Y-43500D01*
X74500Y-46000D02*
X76500Y-44000D01*
X58500Y-25000D02*
X58000Y-25000D01*
X57500Y-25500D02*
X57500Y-29000D01*
X58000Y-25000D02*
X57500Y-25500D01*
X60500Y-25000D02*
X60000Y-25000D01*
X59500Y-25500D02*
X59500Y-30000D01*
X60000Y-25000D02*
X59500Y-25500D01*
X62500Y-25000D02*
X62000Y-25000D01*
X61500Y-25500D02*
X61500Y-31000D01*
X62000Y-25000D02*
X61500Y-25500D01*
X64500Y-25000D02*
X64000Y-25000D01*
X63500Y-25500D02*
X63500Y-32000D01*
X64000Y-25000D02*
X63500Y-25500D01*
X50500Y-23000D02*
X51500Y-22000D01*
X70000Y-26500D02*
X70500Y-26500D01*
X69500Y-26000D02*
X70000Y-26500D01*
X69500Y-23500D02*
X69500Y-26000D01*
X68000Y-22000D02*
X69500Y-23500D01*
X51500Y-22000D02*
X68000Y-22000D01*
X50500Y-23000D02*
X50500Y-25000D01*
X52500Y-25000D02*
X53000Y-25000D01*
X66000Y-24000D02*
X67500Y-25500D01*
X54000Y-24000D02*
X66000Y-24000D01*
X53000Y-25000D02*
X54000Y-24000D01*
X44000Y-50000D02*
X45500Y-51500D01*
X59000Y-53500D02*
X59000Y-55750D01*
X58500Y-53000D02*
X59000Y-53500D01*
X52500Y-53000D02*
X58500Y-53000D01*
X51000Y-51500D02*
X52500Y-53000D01*
X47000Y-51500D02*
X51000Y-51500D01*
X46000Y-50000D02*
X46000Y-48500D01*
X52500Y-50500D02*
X53000Y-50500D01*
X50500Y-48500D02*
X52500Y-50500D01*
X48000Y-48500D02*
X50500Y-48500D01*
X47500Y-48000D02*
X48000Y-48500D01*
X47500Y-46000D02*
X47500Y-48000D01*
X46500Y-46000D02*
X47500Y-46000D01*
X46500Y-48000D02*
X46500Y-46000D01*
X46000Y-48500D02*
X46500Y-48000D01*
X44000Y-43500D02*
X44000Y-44000D01*
X57750Y-45500D02*
X59000Y-44250D01*
X45500Y-45500D02*
X57750Y-45500D01*
X44000Y-44000D02*
X45500Y-45500D01*
X44000Y-43500D02*
X44000Y-41500D01*
X42500Y-38000D02*
X42500Y-37750D01*
X43500Y-39000D02*
X42500Y-38000D01*
X43500Y-41000D02*
X43500Y-39000D01*
X44000Y-41500D02*
X43500Y-41000D01*
X43000Y-47000D02*
X43000Y-48500D01*
X43000Y-48500D02*
X43500Y-49000D01*
X43500Y-49000D02*
X43500Y-50500D01*
X43500Y-50500D02*
X43500Y-49000D01*
X52500Y-56500D02*
X54500Y-56500D01*
X54500Y-56500D02*
X55000Y-56000D01*
X55000Y-56000D02*
X55000Y-55750D01*
X76500Y-35500D02*
X72500Y-35500D01*
X65500Y-40000D02*
X64500Y-41000D01*
X65500Y-34000D02*
X65500Y-40000D01*
X67000Y-34000D02*
X65500Y-34000D01*
X72500Y-35500D02*
X71000Y-34000D01*
X64500Y-49000D02*
X67000Y-49000D01*
X69500Y-32500D02*
X70500Y-31500D01*
X69500Y-34500D02*
X69500Y-32500D01*
X69000Y-35000D02*
X69500Y-34500D01*
X69000Y-47000D02*
X69000Y-35000D01*
X67000Y-49000D02*
X69000Y-47000D01*
X64500Y-48000D02*
X66500Y-48000D01*
X68000Y-33000D02*
X70500Y-30500D01*
X68000Y-46500D02*
X68000Y-33000D01*
X66500Y-48000D02*
X68000Y-46500D01*
X64500Y-50000D02*
X67000Y-50000D01*
X70500Y-35000D02*
X70500Y-32500D01*
X69500Y-36000D02*
X70500Y-35000D01*
X69500Y-47500D02*
X69500Y-36000D01*
X67000Y-50000D02*
X69500Y-47500D01*
X70500Y-39000D02*
X77500Y-39000D01*
X77500Y-34500D02*
X76500Y-34500D01*
X77500Y-39000D02*
X77500Y-34500D01*
X73500Y-60000D02*
X73500Y-56000D01*
X73500Y-56000D02*
X71500Y-54000D01*
X66000Y-35000D02*
X67500Y-35000D01*
X70500Y-38000D02*
X75000Y-38000D01*
X60750Y-52250D02*
X59000Y-52250D01*
X62500Y-54000D02*
X60750Y-52250D01*
X62500Y-60500D02*
X62500Y-58000D01*
X75000Y-40000D02*
X77500Y-40000D01*
X59000Y-52250D02*
X59000Y-52000D01*
X59000Y-48500D02*
X59000Y-46250D01*
X58000Y-49500D02*
X59000Y-48500D01*
X58000Y-51000D02*
X58000Y-49500D01*
X59000Y-52000D02*
X58000Y-51000D01*
X53000Y-52250D02*
X53000Y-51500D01*
X54000Y-49500D02*
X55000Y-48500D01*
X54000Y-50500D02*
X54000Y-49500D01*
X53000Y-51500D02*
X54000Y-50500D01*
X48000Y-47000D02*
X48000Y-46500D01*
X55000Y-46500D02*
X55000Y-46250D01*
X54000Y-47500D02*
X55000Y-46500D01*
X51000Y-47500D02*
X54000Y-47500D01*
X49500Y-46000D02*
X51000Y-47500D01*
X48500Y-46000D02*
X49500Y-46000D01*
X48000Y-46500D02*
X48500Y-46000D01*
X35500Y-52750D02*
X35500Y-44250D01*
X35500Y-44250D02*
X36750Y-43000D01*
X57000Y-46250D02*
X57750Y-46250D01*
X63500Y-37000D02*
X64500Y-37000D01*
X63000Y-37500D02*
X63500Y-37000D01*
X63000Y-40000D02*
X63000Y-37500D01*
X63000Y-44000D02*
X63000Y-42000D01*
X62000Y-45000D02*
X63000Y-44000D01*
X59000Y-45000D02*
X62000Y-45000D01*
X57750Y-46250D02*
X59000Y-45000D01*
X55000Y-52250D02*
X55000Y-51500D01*
X57000Y-48000D02*
X57000Y-46250D01*
X56000Y-49000D02*
X57000Y-48000D01*
X56000Y-50500D02*
X56000Y-49000D01*
X55000Y-51500D02*
X56000Y-50500D01*
X49000Y-47000D02*
X50000Y-48000D01*
X57000Y-47000D02*
X57000Y-46250D01*
X56000Y-48000D02*
X57000Y-47000D01*
X50000Y-48000D02*
X56000Y-48000D01*
X47000Y-37750D02*
X47250Y-37750D01*
X49750Y-36500D02*
X51000Y-37750D01*
X48500Y-36500D02*
X49750Y-36500D01*
X47250Y-37750D02*
X48500Y-36500D01*
X45000Y-40500D02*
X45000Y-38500D01*
X68500Y-43000D02*
X68500Y-33500D01*
X48000Y-40500D02*
X49000Y-39500D01*
X51500Y-35750D02*
X53000Y-34250D01*
X51500Y-39000D02*
X51500Y-35750D01*
X51000Y-39500D02*
X51500Y-39000D01*
X49000Y-39500D02*
X51000Y-39500D01*
X44500Y-52750D02*
X44500Y-52500D01*
X37500Y-38000D02*
X36750Y-38000D01*
X38500Y-39000D02*
X37500Y-38000D01*
X38500Y-49500D02*
X38500Y-39000D01*
X39000Y-50000D02*
X38500Y-49500D01*
X41000Y-50000D02*
X39000Y-50000D01*
X42500Y-51500D02*
X41000Y-50000D01*
X43500Y-51500D02*
X42500Y-51500D01*
X44500Y-52500D02*
X43500Y-51500D01*
X43000Y-40500D02*
X41000Y-38500D01*
X45500Y-37500D02*
X45500Y-37750D01*
X44500Y-36500D02*
X45500Y-37500D01*
X41500Y-36500D02*
X44500Y-36500D01*
X41000Y-37000D02*
X41500Y-36500D01*
X41000Y-38500D02*
X41000Y-37000D01*
X36750Y-41000D02*
X37000Y-41000D01*
X40250Y-51500D02*
X41500Y-52750D01*
X38000Y-51500D02*
X40250Y-51500D01*
X37500Y-51000D02*
X38000Y-51500D01*
X37500Y-41500D02*
X37500Y-51000D01*
X37000Y-41000D02*
X37500Y-41500D01*
X49000Y-43500D02*
X55500Y-43500D01*
X57000Y-42000D02*
X57000Y-40750D01*
X55500Y-43500D02*
X57000Y-42000D01*
X55000Y-34250D02*
X54750Y-34250D01*
X50500Y-40500D02*
X49000Y-40500D01*
X52000Y-39000D02*
X50500Y-40500D01*
X52000Y-37000D02*
X52000Y-39000D01*
X54750Y-34250D02*
X52000Y-37000D01*
X46000Y-43500D02*
X46000Y-43000D01*
X52250Y-41500D02*
X53000Y-40750D01*
X47500Y-41500D02*
X52250Y-41500D01*
X46000Y-43000D02*
X47500Y-41500D01*
X46000Y-43500D02*
X44500Y-42000D01*
X44000Y-38000D02*
X44000Y-37750D01*
X44500Y-38500D02*
X44000Y-38000D01*
X44500Y-42000D02*
X44500Y-38500D01*
X42500Y-34250D02*
X41250Y-34250D01*
X44250Y-51000D02*
X46000Y-52750D01*
X43000Y-51000D02*
X44250Y-51000D01*
X41500Y-49500D02*
X43000Y-51000D01*
X39500Y-49500D02*
X41500Y-49500D01*
X39000Y-49000D02*
X39500Y-49500D01*
X39000Y-38500D02*
X39000Y-49000D01*
X40000Y-37500D02*
X39000Y-38500D01*
X40000Y-35500D02*
X40000Y-37500D01*
X41250Y-34250D02*
X40000Y-35500D01*
X48000Y-43500D02*
X48000Y-44000D01*
X48250Y-44250D02*
X53000Y-44250D01*
X48000Y-44000D02*
X48250Y-44250D01*
X55000Y-44250D02*
X55750Y-44250D01*
X64000Y-40000D02*
X64500Y-40000D01*
X62500Y-41500D02*
X64000Y-40000D01*
X58500Y-41500D02*
X62500Y-41500D01*
X55750Y-44250D02*
X58500Y-41500D01*
X43000Y-52750D02*
X42750Y-52750D01*
X38000Y-41250D02*
X36750Y-40000D01*
X38000Y-50000D02*
X38000Y-41250D01*
X39000Y-51000D02*
X38000Y-50000D01*
X41000Y-51000D02*
X39000Y-51000D01*
X42750Y-52750D02*
X41000Y-51000D01*
X38750Y-58000D02*
X51500Y-58000D01*
X70500Y-52000D02*
X70500Y-50000D01*
X67500Y-55000D02*
X70500Y-52000D01*
X61500Y-55000D02*
X67500Y-55000D01*
X60500Y-56000D02*
X61500Y-55000D01*
X60500Y-57500D02*
X60500Y-56000D01*
X59000Y-59000D02*
X60500Y-57500D01*
X52500Y-59000D02*
X59000Y-59000D01*
X51500Y-58000D02*
X52500Y-59000D01*
G54D10*
G36*
X53197Y-50878D02*
X52787Y-51287D01*
X52722Y-51385D01*
X52700Y-51500D01*
X52700Y-51807D01*
X52555Y-51952D01*
X52475Y-52145D01*
X52474Y-52353D01*
X52554Y-52547D01*
X52702Y-52694D01*
X52714Y-52700D01*
X52624Y-52700D01*
X51212Y-51287D01*
X51114Y-51222D01*
X51000Y-51200D01*
X49525Y-51200D01*
X49525Y-49896D01*
X49445Y-49703D01*
X49297Y-49555D01*
X49104Y-49475D01*
X48896Y-49474D01*
X48703Y-49554D01*
X48555Y-49702D01*
X48499Y-49835D01*
X48445Y-49703D01*
X48297Y-49555D01*
X48104Y-49475D01*
X47896Y-49474D01*
X47703Y-49554D01*
X47633Y-49624D01*
X47626Y-49606D01*
X47477Y-49593D01*
X47070Y-50000D01*
X47477Y-50406D01*
X47626Y-50393D01*
X47632Y-50375D01*
X47702Y-50444D01*
X47895Y-50524D01*
X48103Y-50525D01*
X48297Y-50445D01*
X48444Y-50297D01*
X48500Y-50164D01*
X48554Y-50297D01*
X48702Y-50444D01*
X48895Y-50524D01*
X49103Y-50525D01*
X49297Y-50445D01*
X49444Y-50297D01*
X49524Y-50104D01*
X49525Y-49896D01*
X49525Y-51200D01*
X47301Y-51200D01*
X47241Y-51139D01*
X47084Y-51075D01*
X46915Y-51074D01*
X46800Y-51122D01*
X46800Y-50699D01*
X46876Y-50728D01*
X47164Y-50720D01*
X47393Y-50626D01*
X47406Y-50477D01*
X47000Y-50070D01*
X46994Y-50076D01*
X46923Y-50005D01*
X46929Y-50000D01*
X46923Y-49994D01*
X46994Y-49923D01*
X47000Y-49929D01*
X47406Y-49522D01*
X47393Y-49373D01*
X47123Y-49271D01*
X46835Y-49279D01*
X46800Y-49293D01*
X46800Y-49124D01*
X47212Y-48712D01*
X47212Y-48712D01*
X47277Y-48614D01*
X47299Y-48500D01*
X47300Y-48500D01*
X47300Y-48224D01*
X47787Y-48712D01*
X47787Y-48712D01*
X47885Y-48777D01*
X48000Y-48800D01*
X50375Y-48800D01*
X52287Y-50712D01*
X52287Y-50712D01*
X52385Y-50777D01*
X52499Y-50799D01*
X52500Y-50800D01*
X52698Y-50800D01*
X52758Y-50860D01*
X52915Y-50924D01*
X53084Y-50925D01*
X53197Y-50878D01*
X53197Y-50878D01*
G37*
G54D20*
X53197Y-50878D02*
X52787Y-51287D01*
X52722Y-51385D01*
X52700Y-51500D01*
X52700Y-51807D01*
X52555Y-51952D01*
X52475Y-52145D01*
X52474Y-52353D01*
X52554Y-52547D01*
X52702Y-52694D01*
X52714Y-52700D01*
X52624Y-52700D01*
X51212Y-51287D01*
X51114Y-51222D01*
X51000Y-51200D01*
X49525Y-51200D01*
X49525Y-49896D01*
X49445Y-49703D01*
X49297Y-49555D01*
X49104Y-49475D01*
X48896Y-49474D01*
X48703Y-49554D01*
X48555Y-49702D01*
X48499Y-49835D01*
X48445Y-49703D01*
X48297Y-49555D01*
X48104Y-49475D01*
X47896Y-49474D01*
X47703Y-49554D01*
X47633Y-49624D01*
X47626Y-49606D01*
X47477Y-49593D01*
X47070Y-50000D01*
X47477Y-50406D01*
X47626Y-50393D01*
X47632Y-50375D01*
X47702Y-50444D01*
X47895Y-50524D01*
X48103Y-50525D01*
X48297Y-50445D01*
X48444Y-50297D01*
X48500Y-50164D01*
X48554Y-50297D01*
X48702Y-50444D01*
X48895Y-50524D01*
X49103Y-50525D01*
X49297Y-50445D01*
X49444Y-50297D01*
X49524Y-50104D01*
X49525Y-49896D01*
X49525Y-51200D01*
X47301Y-51200D01*
X47241Y-51139D01*
X47084Y-51075D01*
X46915Y-51074D01*
X46800Y-51122D01*
X46800Y-50699D01*
X46876Y-50728D01*
X47164Y-50720D01*
X47393Y-50626D01*
X47406Y-50477D01*
X47000Y-50070D01*
X46994Y-50076D01*
X46923Y-50005D01*
X46929Y-50000D01*
X46923Y-49994D01*
X46994Y-49923D01*
X47000Y-49929D01*
X47406Y-49522D01*
X47393Y-49373D01*
X47123Y-49271D01*
X46835Y-49279D01*
X46800Y-49293D01*
X46800Y-49124D01*
X47212Y-48712D01*
X47212Y-48712D01*
X47277Y-48614D01*
X47299Y-48500D01*
X47300Y-48500D01*
X47300Y-48224D01*
X47787Y-48712D01*
X47787Y-48712D01*
X47885Y-48777D01*
X48000Y-48800D01*
X50375Y-48800D01*
X52287Y-50712D01*
X52287Y-50712D01*
X52385Y-50777D01*
X52499Y-50799D01*
X52500Y-50800D01*
X52698Y-50800D01*
X52758Y-50860D01*
X52915Y-50924D01*
X53084Y-50925D01*
X53197Y-50878D01*
G54D10*
G36*
X77730Y-34315D02*
X77712Y-34287D01*
X77614Y-34222D01*
X77500Y-34200D01*
X77255Y-34200D01*
X77255Y-21053D01*
X76912Y-20224D01*
X76279Y-19589D01*
X75450Y-19245D01*
X74553Y-19244D01*
X73724Y-19587D01*
X73089Y-20220D01*
X72745Y-21049D01*
X72744Y-21946D01*
X73087Y-22775D01*
X73720Y-23410D01*
X74549Y-23754D01*
X75446Y-23755D01*
X76275Y-23412D01*
X76910Y-22779D01*
X77254Y-21950D01*
X77255Y-21053D01*
X77255Y-34200D01*
X76942Y-34200D01*
X76797Y-34055D01*
X76664Y-33999D01*
X76797Y-33945D01*
X76944Y-33797D01*
X77024Y-33604D01*
X77025Y-33396D01*
X76945Y-33203D01*
X76797Y-33055D01*
X76664Y-32999D01*
X76797Y-32945D01*
X76944Y-32797D01*
X77024Y-32604D01*
X77025Y-32396D01*
X76945Y-32203D01*
X76797Y-32055D01*
X76664Y-31999D01*
X76797Y-31945D01*
X76944Y-31797D01*
X77024Y-31604D01*
X77025Y-31396D01*
X76945Y-31203D01*
X76797Y-31055D01*
X76604Y-30975D01*
X76396Y-30974D01*
X76303Y-31013D01*
X76303Y-26641D01*
X76296Y-26323D01*
X76188Y-26061D01*
X76100Y-26049D01*
X76031Y-26039D01*
X76100Y-25970D01*
X76111Y-25959D01*
X76100Y-25947D01*
X76085Y-25933D01*
X76099Y-25899D01*
X76100Y-25800D01*
X76100Y-25100D01*
X76062Y-25008D01*
X75991Y-24938D01*
X75899Y-24900D01*
X75800Y-24899D01*
X75100Y-24899D01*
X75008Y-24937D01*
X74938Y-25008D01*
X74900Y-25100D01*
X74899Y-25199D01*
X74899Y-25899D01*
X74914Y-25933D01*
X74888Y-25959D01*
X74968Y-26039D01*
X74811Y-26061D01*
X74696Y-26358D01*
X74703Y-26676D01*
X74811Y-26938D01*
X74968Y-26960D01*
X75429Y-26500D01*
X75423Y-26494D01*
X75494Y-26423D01*
X75500Y-26429D01*
X75505Y-26423D01*
X75576Y-26494D01*
X75570Y-26500D01*
X76031Y-26960D01*
X76188Y-26938D01*
X76303Y-26641D01*
X76303Y-31013D01*
X76203Y-31054D01*
X76055Y-31202D01*
X75975Y-31395D01*
X75974Y-31603D01*
X76054Y-31797D01*
X76202Y-31944D01*
X76335Y-32000D01*
X76203Y-32054D01*
X76055Y-32202D01*
X75975Y-32395D01*
X75974Y-32603D01*
X76054Y-32797D01*
X76202Y-32944D01*
X76335Y-33000D01*
X76203Y-33054D01*
X76055Y-33202D01*
X75975Y-33395D01*
X75974Y-33603D01*
X76054Y-33797D01*
X76202Y-33944D01*
X76335Y-34000D01*
X76203Y-34054D01*
X76055Y-34202D01*
X75975Y-34395D01*
X75974Y-34603D01*
X76054Y-34797D01*
X76202Y-34944D01*
X76335Y-35000D01*
X76203Y-35054D01*
X76057Y-35200D01*
X74877Y-35200D01*
X74924Y-35084D01*
X74925Y-34915D01*
X74860Y-34759D01*
X74741Y-34639D01*
X74584Y-34575D01*
X74499Y-34574D01*
X72300Y-32375D01*
X72300Y-27720D01*
X72385Y-27777D01*
X72500Y-27800D01*
X74974Y-27800D01*
X74991Y-27839D01*
X75159Y-28008D01*
X75380Y-28099D01*
X75618Y-28100D01*
X75839Y-28008D01*
X76008Y-27840D01*
X76099Y-27619D01*
X76100Y-27381D01*
X76008Y-27160D01*
X75950Y-27101D01*
X75960Y-27031D01*
X75500Y-26570D01*
X75429Y-26641D01*
X75039Y-27031D01*
X75049Y-27101D01*
X74991Y-27159D01*
X74974Y-27200D01*
X72624Y-27200D01*
X72300Y-26875D01*
X72300Y-24500D01*
X72277Y-24385D01*
X72228Y-24312D01*
X72228Y-23123D01*
X72228Y-20623D01*
X72220Y-20335D01*
X72126Y-20106D01*
X71977Y-20093D01*
X71906Y-20164D01*
X71906Y-20022D01*
X71893Y-19873D01*
X71623Y-19771D01*
X71335Y-19779D01*
X71106Y-19873D01*
X71093Y-20022D01*
X71500Y-20429D01*
X71906Y-20022D01*
X71906Y-20164D01*
X71570Y-20500D01*
X71977Y-20906D01*
X72126Y-20893D01*
X72228Y-20623D01*
X72228Y-23123D01*
X72220Y-22835D01*
X72126Y-22606D01*
X71977Y-22593D01*
X71906Y-22664D01*
X71906Y-22522D01*
X71906Y-20977D01*
X71500Y-20570D01*
X71429Y-20641D01*
X71429Y-20500D01*
X71022Y-20093D01*
X70873Y-20106D01*
X70867Y-20124D01*
X70797Y-20055D01*
X70604Y-19975D01*
X70396Y-19974D01*
X70203Y-20054D01*
X70055Y-20202D01*
X69975Y-20395D01*
X69974Y-20603D01*
X70054Y-20797D01*
X70202Y-20944D01*
X70395Y-21024D01*
X70603Y-21025D01*
X70797Y-20945D01*
X70866Y-20875D01*
X70873Y-20893D01*
X71022Y-20906D01*
X71429Y-20500D01*
X71429Y-20641D01*
X71093Y-20977D01*
X71106Y-21126D01*
X71376Y-21228D01*
X71664Y-21220D01*
X71893Y-21126D01*
X71906Y-20977D01*
X71906Y-22522D01*
X71893Y-22373D01*
X71623Y-22271D01*
X71335Y-22279D01*
X71106Y-22373D01*
X71093Y-22522D01*
X71500Y-22929D01*
X71906Y-22522D01*
X71906Y-22664D01*
X71570Y-23000D01*
X71977Y-23406D01*
X72126Y-23393D01*
X72228Y-23123D01*
X72228Y-24312D01*
X72212Y-24287D01*
X72212Y-24287D01*
X71645Y-23721D01*
X71664Y-23720D01*
X71893Y-23626D01*
X71906Y-23477D01*
X71500Y-23070D01*
X71494Y-23076D01*
X71423Y-23005D01*
X71429Y-23000D01*
X71022Y-22593D01*
X70873Y-22606D01*
X70867Y-22624D01*
X70797Y-22555D01*
X70604Y-22475D01*
X70396Y-22474D01*
X70203Y-22554D01*
X70055Y-22702D01*
X69975Y-22895D01*
X69974Y-23103D01*
X70054Y-23297D01*
X70202Y-23444D01*
X70395Y-23524D01*
X70600Y-23525D01*
X71700Y-24624D01*
X71700Y-27000D01*
X71700Y-32500D01*
X71722Y-32614D01*
X71787Y-32712D01*
X74075Y-34999D01*
X74074Y-35084D01*
X74122Y-35200D01*
X72624Y-35200D01*
X71424Y-34000D01*
X71425Y-33915D01*
X71360Y-33759D01*
X71241Y-33639D01*
X71228Y-33634D01*
X71228Y-29623D01*
X71228Y-28623D01*
X71228Y-25623D01*
X71220Y-25335D01*
X71126Y-25106D01*
X70977Y-25093D01*
X70906Y-25164D01*
X70906Y-25022D01*
X70893Y-24873D01*
X70623Y-24771D01*
X70335Y-24779D01*
X70106Y-24873D01*
X70093Y-25022D01*
X70500Y-25429D01*
X70906Y-25022D01*
X70906Y-25164D01*
X70570Y-25500D01*
X70977Y-25906D01*
X71126Y-25893D01*
X71228Y-25623D01*
X71228Y-28623D01*
X71220Y-28335D01*
X71126Y-28106D01*
X70977Y-28093D01*
X70570Y-28500D01*
X70977Y-28906D01*
X71126Y-28893D01*
X71228Y-28623D01*
X71228Y-29623D01*
X71220Y-29335D01*
X71126Y-29106D01*
X70977Y-29093D01*
X70906Y-29164D01*
X70906Y-29022D01*
X70904Y-29000D01*
X70906Y-28977D01*
X70901Y-28972D01*
X70893Y-28873D01*
X70747Y-28818D01*
X70500Y-28570D01*
X70260Y-28810D01*
X70106Y-28873D01*
X70098Y-28972D01*
X70093Y-28977D01*
X70095Y-29000D01*
X70093Y-29022D01*
X70098Y-29027D01*
X70106Y-29126D01*
X70252Y-29181D01*
X70500Y-29429D01*
X70739Y-29189D01*
X70893Y-29126D01*
X70901Y-29027D01*
X70906Y-29022D01*
X70906Y-29164D01*
X70570Y-29500D01*
X70977Y-29906D01*
X71126Y-29893D01*
X71228Y-29623D01*
X71228Y-33634D01*
X71084Y-33575D01*
X70915Y-33574D01*
X70800Y-33622D01*
X70800Y-33025D01*
X70824Y-33025D01*
X70916Y-32987D01*
X70986Y-32916D01*
X71024Y-32824D01*
X71025Y-32725D01*
X71025Y-32175D01*
X70987Y-32083D01*
X70916Y-32013D01*
X70824Y-31975D01*
X70725Y-31974D01*
X70725Y-31974D01*
X70797Y-31945D01*
X70944Y-31797D01*
X71024Y-31604D01*
X71025Y-31396D01*
X70945Y-31203D01*
X70797Y-31055D01*
X70664Y-30999D01*
X70797Y-30945D01*
X70944Y-30797D01*
X71024Y-30604D01*
X71025Y-30396D01*
X70945Y-30203D01*
X70875Y-30133D01*
X70893Y-30126D01*
X70906Y-29977D01*
X70500Y-29570D01*
X70429Y-29641D01*
X70429Y-29500D01*
X70022Y-29093D01*
X69873Y-29106D01*
X69771Y-29376D01*
X69779Y-29664D01*
X69873Y-29893D01*
X70022Y-29906D01*
X70429Y-29500D01*
X70429Y-29641D01*
X70093Y-29977D01*
X70106Y-30126D01*
X70124Y-30132D01*
X70055Y-30202D01*
X69975Y-30395D01*
X69974Y-30600D01*
X69300Y-31275D01*
X69300Y-29124D01*
X69778Y-28645D01*
X69779Y-28664D01*
X69873Y-28893D01*
X70022Y-28906D01*
X70429Y-28500D01*
X70423Y-28494D01*
X70494Y-28423D01*
X70500Y-28429D01*
X70906Y-28022D01*
X70893Y-27873D01*
X70875Y-27867D01*
X70944Y-27797D01*
X71024Y-27604D01*
X71025Y-27396D01*
X70945Y-27203D01*
X70797Y-27055D01*
X70664Y-26999D01*
X70797Y-26945D01*
X70944Y-26797D01*
X71024Y-26604D01*
X71025Y-26396D01*
X70945Y-26203D01*
X70875Y-26133D01*
X70893Y-26126D01*
X70906Y-25977D01*
X70500Y-25570D01*
X70093Y-25977D01*
X70106Y-26126D01*
X70124Y-26132D01*
X70090Y-26166D01*
X69800Y-25875D01*
X69800Y-25714D01*
X69873Y-25893D01*
X70022Y-25906D01*
X70429Y-25500D01*
X70022Y-25093D01*
X69873Y-25106D01*
X69800Y-25300D01*
X69800Y-23500D01*
X69777Y-23385D01*
X69712Y-23287D01*
X69712Y-23287D01*
X68212Y-21787D01*
X68114Y-21722D01*
X68000Y-21700D01*
X66025Y-21700D01*
X66025Y-19646D01*
X65945Y-19453D01*
X65797Y-19305D01*
X65604Y-19225D01*
X65396Y-19224D01*
X65203Y-19304D01*
X65055Y-19452D01*
X64993Y-19599D01*
X64987Y-19583D01*
X64916Y-19513D01*
X64824Y-19475D01*
X64725Y-19474D01*
X64175Y-19474D01*
X64083Y-19512D01*
X64013Y-19583D01*
X64006Y-19600D01*
X63945Y-19453D01*
X63797Y-19305D01*
X63604Y-19225D01*
X63396Y-19224D01*
X63203Y-19304D01*
X63055Y-19452D01*
X62993Y-19599D01*
X62987Y-19583D01*
X62916Y-19513D01*
X62824Y-19475D01*
X62725Y-19474D01*
X62175Y-19474D01*
X62083Y-19512D01*
X62013Y-19583D01*
X62006Y-19600D01*
X61945Y-19453D01*
X61797Y-19305D01*
X61604Y-19225D01*
X61396Y-19224D01*
X61203Y-19304D01*
X61055Y-19452D01*
X60993Y-19599D01*
X60987Y-19583D01*
X60916Y-19513D01*
X60824Y-19475D01*
X60725Y-19474D01*
X60175Y-19474D01*
X60083Y-19512D01*
X60013Y-19583D01*
X60006Y-19600D01*
X59945Y-19453D01*
X59797Y-19305D01*
X59604Y-19225D01*
X59396Y-19224D01*
X59203Y-19304D01*
X59055Y-19452D01*
X58993Y-19599D01*
X58987Y-19583D01*
X58916Y-19513D01*
X58824Y-19475D01*
X58725Y-19474D01*
X58175Y-19474D01*
X58083Y-19512D01*
X58013Y-19583D01*
X58006Y-19600D01*
X57945Y-19453D01*
X57797Y-19305D01*
X57604Y-19225D01*
X57396Y-19224D01*
X57203Y-19304D01*
X57055Y-19452D01*
X56993Y-19599D01*
X56987Y-19583D01*
X56916Y-19513D01*
X56824Y-19475D01*
X56725Y-19474D01*
X56175Y-19474D01*
X56083Y-19512D01*
X56013Y-19583D01*
X56006Y-19600D01*
X55945Y-19453D01*
X55797Y-19305D01*
X55604Y-19225D01*
X55396Y-19224D01*
X55203Y-19304D01*
X55055Y-19452D01*
X54993Y-19599D01*
X54987Y-19583D01*
X54916Y-19513D01*
X54824Y-19475D01*
X54725Y-19474D01*
X54175Y-19474D01*
X54083Y-19512D01*
X54013Y-19583D01*
X54006Y-19600D01*
X53945Y-19453D01*
X53797Y-19305D01*
X53604Y-19225D01*
X53396Y-19224D01*
X53203Y-19304D01*
X53055Y-19452D01*
X52993Y-19599D01*
X52987Y-19583D01*
X52916Y-19513D01*
X52824Y-19475D01*
X52725Y-19474D01*
X52175Y-19474D01*
X52083Y-19512D01*
X52013Y-19583D01*
X52006Y-19600D01*
X51945Y-19453D01*
X51797Y-19305D01*
X51604Y-19225D01*
X51396Y-19224D01*
X51203Y-19304D01*
X51055Y-19452D01*
X50993Y-19599D01*
X50987Y-19583D01*
X50916Y-19513D01*
X50824Y-19475D01*
X50725Y-19474D01*
X50175Y-19474D01*
X50083Y-19512D01*
X50013Y-19583D01*
X49975Y-19675D01*
X49974Y-19774D01*
X49974Y-20324D01*
X50012Y-20416D01*
X50083Y-20486D01*
X50175Y-20524D01*
X50274Y-20525D01*
X50824Y-20525D01*
X50916Y-20487D01*
X50986Y-20416D01*
X51024Y-20324D01*
X51025Y-20225D01*
X51025Y-19975D01*
X51054Y-20047D01*
X51202Y-20194D01*
X51395Y-20274D01*
X51603Y-20275D01*
X51797Y-20195D01*
X51944Y-20047D01*
X51974Y-19975D01*
X51974Y-20324D01*
X52012Y-20416D01*
X52083Y-20486D01*
X52175Y-20524D01*
X52274Y-20525D01*
X52824Y-20525D01*
X52916Y-20487D01*
X52986Y-20416D01*
X53024Y-20324D01*
X53025Y-20225D01*
X53025Y-19975D01*
X53054Y-20047D01*
X53202Y-20194D01*
X53395Y-20274D01*
X53603Y-20275D01*
X53797Y-20195D01*
X53944Y-20047D01*
X53974Y-19975D01*
X53974Y-20324D01*
X54012Y-20416D01*
X54083Y-20486D01*
X54175Y-20524D01*
X54274Y-20525D01*
X54824Y-20525D01*
X54916Y-20487D01*
X54986Y-20416D01*
X55024Y-20324D01*
X55025Y-20225D01*
X55025Y-19975D01*
X55054Y-20047D01*
X55202Y-20194D01*
X55395Y-20274D01*
X55603Y-20275D01*
X55797Y-20195D01*
X55944Y-20047D01*
X55974Y-19975D01*
X55974Y-20324D01*
X56012Y-20416D01*
X56083Y-20486D01*
X56175Y-20524D01*
X56274Y-20525D01*
X56824Y-20525D01*
X56916Y-20487D01*
X56986Y-20416D01*
X57024Y-20324D01*
X57025Y-20225D01*
X57025Y-19975D01*
X57054Y-20047D01*
X57202Y-20194D01*
X57395Y-20274D01*
X57603Y-20275D01*
X57797Y-20195D01*
X57944Y-20047D01*
X57974Y-19975D01*
X57974Y-20324D01*
X58012Y-20416D01*
X58083Y-20486D01*
X58175Y-20524D01*
X58274Y-20525D01*
X58824Y-20525D01*
X58916Y-20487D01*
X58986Y-20416D01*
X59024Y-20324D01*
X59025Y-20225D01*
X59025Y-19975D01*
X59054Y-20047D01*
X59202Y-20194D01*
X59395Y-20274D01*
X59603Y-20275D01*
X59797Y-20195D01*
X59944Y-20047D01*
X59974Y-19975D01*
X59974Y-20324D01*
X60012Y-20416D01*
X60083Y-20486D01*
X60175Y-20524D01*
X60274Y-20525D01*
X60824Y-20525D01*
X60916Y-20487D01*
X60986Y-20416D01*
X61024Y-20324D01*
X61025Y-20225D01*
X61025Y-19975D01*
X61054Y-20047D01*
X61202Y-20194D01*
X61395Y-20274D01*
X61603Y-20275D01*
X61797Y-20195D01*
X61944Y-20047D01*
X61974Y-19975D01*
X61974Y-20324D01*
X62012Y-20416D01*
X62083Y-20486D01*
X62175Y-20524D01*
X62274Y-20525D01*
X62824Y-20525D01*
X62916Y-20487D01*
X62986Y-20416D01*
X63024Y-20324D01*
X63025Y-20225D01*
X63025Y-19975D01*
X63054Y-20047D01*
X63202Y-20194D01*
X63395Y-20274D01*
X63603Y-20275D01*
X63797Y-20195D01*
X63944Y-20047D01*
X63974Y-19975D01*
X63974Y-20324D01*
X64012Y-20416D01*
X64083Y-20486D01*
X64175Y-20524D01*
X64274Y-20525D01*
X64824Y-20525D01*
X64916Y-20487D01*
X64986Y-20416D01*
X65024Y-20324D01*
X65025Y-20225D01*
X65025Y-19975D01*
X65054Y-20047D01*
X65202Y-20194D01*
X65395Y-20274D01*
X65603Y-20275D01*
X65797Y-20195D01*
X65944Y-20047D01*
X66024Y-19854D01*
X66025Y-19646D01*
X66025Y-21700D01*
X51500Y-21700D01*
X51385Y-21722D01*
X51287Y-21787D01*
X50600Y-22475D01*
X50396Y-22474D01*
X50203Y-22554D01*
X50055Y-22702D01*
X49975Y-22895D01*
X49974Y-23103D01*
X50054Y-23297D01*
X50200Y-23442D01*
X50200Y-24474D01*
X50175Y-24474D01*
X50083Y-24512D01*
X50013Y-24583D01*
X49975Y-24675D01*
X49974Y-24774D01*
X49974Y-25324D01*
X50012Y-25416D01*
X50083Y-25486D01*
X50175Y-25524D01*
X50274Y-25525D01*
X50824Y-25525D01*
X50916Y-25487D01*
X50986Y-25416D01*
X51024Y-25324D01*
X51025Y-25225D01*
X51025Y-24675D01*
X50987Y-24583D01*
X50916Y-24513D01*
X50824Y-24475D01*
X50800Y-24475D01*
X50800Y-23442D01*
X50944Y-23297D01*
X50975Y-23225D01*
X50974Y-23353D01*
X51054Y-23547D01*
X51202Y-23694D01*
X51395Y-23774D01*
X51603Y-23775D01*
X51797Y-23695D01*
X51944Y-23547D01*
X52024Y-23354D01*
X52025Y-23225D01*
X52054Y-23297D01*
X52202Y-23444D01*
X52395Y-23524D01*
X52603Y-23525D01*
X52797Y-23445D01*
X52944Y-23297D01*
X52975Y-23225D01*
X52974Y-23353D01*
X53054Y-23547D01*
X53202Y-23694D01*
X53395Y-23774D01*
X53603Y-23775D01*
X53797Y-23695D01*
X53944Y-23547D01*
X54024Y-23354D01*
X54025Y-23225D01*
X54054Y-23297D01*
X54202Y-23444D01*
X54395Y-23524D01*
X54603Y-23525D01*
X54797Y-23445D01*
X54944Y-23297D01*
X54975Y-23225D01*
X54974Y-23353D01*
X55054Y-23547D01*
X55202Y-23694D01*
X55214Y-23700D01*
X54000Y-23700D01*
X53885Y-23722D01*
X53787Y-23787D01*
X52988Y-24587D01*
X52987Y-24583D01*
X52916Y-24513D01*
X52824Y-24475D01*
X52725Y-24474D01*
X52175Y-24474D01*
X52083Y-24512D01*
X52013Y-24583D01*
X51975Y-24675D01*
X51974Y-24774D01*
X51974Y-25324D01*
X52012Y-25416D01*
X52083Y-25486D01*
X52175Y-25524D01*
X52274Y-25525D01*
X52824Y-25525D01*
X52916Y-25487D01*
X52986Y-25416D01*
X53024Y-25324D01*
X53024Y-25295D01*
X53114Y-25277D01*
X53114Y-25277D01*
X53212Y-25212D01*
X54124Y-24300D01*
X65875Y-24300D01*
X66975Y-25399D01*
X66974Y-25603D01*
X67054Y-25797D01*
X67202Y-25944D01*
X67335Y-26000D01*
X67203Y-26054D01*
X67055Y-26202D01*
X66975Y-26395D01*
X66974Y-26603D01*
X67054Y-26797D01*
X67202Y-26944D01*
X67335Y-27000D01*
X67203Y-27054D01*
X67055Y-27202D01*
X66975Y-27395D01*
X66974Y-27603D01*
X67054Y-27797D01*
X67202Y-27944D01*
X67335Y-28000D01*
X67203Y-28054D01*
X67055Y-28202D01*
X66975Y-28395D01*
X66974Y-28603D01*
X67054Y-28797D01*
X67202Y-28944D01*
X67335Y-29000D01*
X67203Y-29054D01*
X67055Y-29202D01*
X66975Y-29395D01*
X66974Y-29603D01*
X67054Y-29797D01*
X67202Y-29944D01*
X67335Y-30000D01*
X67203Y-30054D01*
X67055Y-30202D01*
X66975Y-30395D01*
X66974Y-30603D01*
X67054Y-30797D01*
X67202Y-30944D01*
X67335Y-31000D01*
X67203Y-31054D01*
X67055Y-31202D01*
X66975Y-31395D01*
X66974Y-31603D01*
X67054Y-31797D01*
X67202Y-31944D01*
X67335Y-32000D01*
X67203Y-32054D01*
X67057Y-32200D01*
X65228Y-32200D01*
X65228Y-28123D01*
X65220Y-27835D01*
X65126Y-27606D01*
X64977Y-27593D01*
X64906Y-27664D01*
X64906Y-27522D01*
X64893Y-27373D01*
X64623Y-27271D01*
X64335Y-27279D01*
X64106Y-27373D01*
X64093Y-27522D01*
X64500Y-27929D01*
X64906Y-27522D01*
X64906Y-27664D01*
X64570Y-28000D01*
X64977Y-28406D01*
X65126Y-28393D01*
X65228Y-28123D01*
X65228Y-32200D01*
X64906Y-32200D01*
X64906Y-28477D01*
X64500Y-28070D01*
X64093Y-28477D01*
X64106Y-28626D01*
X64376Y-28728D01*
X64664Y-28720D01*
X64893Y-28626D01*
X64906Y-28477D01*
X64906Y-32200D01*
X63877Y-32200D01*
X63924Y-32084D01*
X63925Y-31915D01*
X63860Y-31759D01*
X63800Y-31698D01*
X63800Y-28214D01*
X63873Y-28393D01*
X64022Y-28406D01*
X64429Y-28000D01*
X64022Y-27593D01*
X63873Y-27606D01*
X63800Y-27800D01*
X63800Y-25624D01*
X64011Y-25412D01*
X64012Y-25416D01*
X64083Y-25486D01*
X64175Y-25524D01*
X64274Y-25525D01*
X64824Y-25525D01*
X64916Y-25487D01*
X64986Y-25416D01*
X65024Y-25324D01*
X65025Y-25225D01*
X65025Y-24675D01*
X64987Y-24583D01*
X64916Y-24513D01*
X64824Y-24475D01*
X64725Y-24474D01*
X64175Y-24474D01*
X64083Y-24512D01*
X64013Y-24583D01*
X63975Y-24675D01*
X63975Y-24704D01*
X63885Y-24722D01*
X63787Y-24787D01*
X63287Y-25287D01*
X63222Y-25385D01*
X63200Y-25500D01*
X63200Y-27785D01*
X63126Y-27606D01*
X63025Y-27597D01*
X63025Y-25225D01*
X63025Y-24675D01*
X62987Y-24583D01*
X62916Y-24513D01*
X62824Y-24475D01*
X62725Y-24474D01*
X62175Y-24474D01*
X62083Y-24512D01*
X62013Y-24583D01*
X61975Y-24675D01*
X61975Y-24704D01*
X61885Y-24722D01*
X61787Y-24787D01*
X61287Y-25287D01*
X61222Y-25385D01*
X61200Y-25500D01*
X61200Y-27785D01*
X61126Y-27606D01*
X61025Y-27597D01*
X61025Y-25225D01*
X61025Y-24675D01*
X60987Y-24583D01*
X60916Y-24513D01*
X60824Y-24475D01*
X60725Y-24474D01*
X60175Y-24474D01*
X60083Y-24512D01*
X60013Y-24583D01*
X59975Y-24675D01*
X59975Y-24704D01*
X59885Y-24722D01*
X59787Y-24787D01*
X59287Y-25287D01*
X59222Y-25385D01*
X59200Y-25500D01*
X59200Y-27785D01*
X59126Y-27606D01*
X59025Y-27597D01*
X59025Y-25225D01*
X59025Y-24675D01*
X58987Y-24583D01*
X58916Y-24513D01*
X58824Y-24475D01*
X58725Y-24474D01*
X58175Y-24474D01*
X58083Y-24512D01*
X58013Y-24583D01*
X57975Y-24675D01*
X57975Y-24704D01*
X57885Y-24722D01*
X57787Y-24787D01*
X57287Y-25287D01*
X57222Y-25385D01*
X57200Y-25500D01*
X57200Y-27785D01*
X57126Y-27606D01*
X57025Y-27597D01*
X57025Y-25225D01*
X57025Y-24675D01*
X56987Y-24583D01*
X56916Y-24513D01*
X56824Y-24475D01*
X56725Y-24474D01*
X56175Y-24474D01*
X56083Y-24512D01*
X56013Y-24583D01*
X55975Y-24675D01*
X55974Y-24774D01*
X55974Y-25324D01*
X56012Y-25416D01*
X56083Y-25486D01*
X56175Y-25524D01*
X56274Y-25525D01*
X56824Y-25525D01*
X56916Y-25487D01*
X56986Y-25416D01*
X57024Y-25324D01*
X57025Y-25225D01*
X57025Y-27597D01*
X56977Y-27593D01*
X56906Y-27664D01*
X56906Y-27522D01*
X56893Y-27373D01*
X56623Y-27271D01*
X56335Y-27279D01*
X56106Y-27373D01*
X56093Y-27522D01*
X56500Y-27929D01*
X56906Y-27522D01*
X56906Y-27664D01*
X56570Y-28000D01*
X56977Y-28406D01*
X57126Y-28393D01*
X57200Y-28199D01*
X57200Y-28698D01*
X57139Y-28758D01*
X57075Y-28915D01*
X57074Y-29084D01*
X57139Y-29240D01*
X57258Y-29360D01*
X57415Y-29424D01*
X57584Y-29425D01*
X57740Y-29360D01*
X57860Y-29241D01*
X57924Y-29084D01*
X57925Y-28915D01*
X57860Y-28759D01*
X57800Y-28698D01*
X57800Y-28214D01*
X57873Y-28393D01*
X58022Y-28406D01*
X58429Y-28000D01*
X58022Y-27593D01*
X57873Y-27606D01*
X57800Y-27800D01*
X57800Y-25624D01*
X58011Y-25412D01*
X58012Y-25416D01*
X58083Y-25486D01*
X58175Y-25524D01*
X58274Y-25525D01*
X58824Y-25525D01*
X58916Y-25487D01*
X58986Y-25416D01*
X59024Y-25324D01*
X59025Y-25225D01*
X59025Y-27597D01*
X58977Y-27593D01*
X58906Y-27664D01*
X58906Y-27522D01*
X58893Y-27373D01*
X58623Y-27271D01*
X58335Y-27279D01*
X58106Y-27373D01*
X58093Y-27522D01*
X58500Y-27929D01*
X58906Y-27522D01*
X58906Y-27664D01*
X58570Y-28000D01*
X58977Y-28406D01*
X59126Y-28393D01*
X59200Y-28199D01*
X59200Y-29698D01*
X59139Y-29758D01*
X59075Y-29915D01*
X59074Y-30084D01*
X59139Y-30240D01*
X59258Y-30360D01*
X59415Y-30424D01*
X59584Y-30425D01*
X59740Y-30360D01*
X59860Y-30241D01*
X59924Y-30084D01*
X59925Y-29915D01*
X59860Y-29759D01*
X59800Y-29698D01*
X59800Y-28214D01*
X59873Y-28393D01*
X60022Y-28406D01*
X60429Y-28000D01*
X60022Y-27593D01*
X59873Y-27606D01*
X59800Y-27800D01*
X59800Y-25624D01*
X60011Y-25412D01*
X60012Y-25416D01*
X60083Y-25486D01*
X60175Y-25524D01*
X60274Y-25525D01*
X60824Y-25525D01*
X60916Y-25487D01*
X60986Y-25416D01*
X61024Y-25324D01*
X61025Y-25225D01*
X61025Y-27597D01*
X60977Y-27593D01*
X60906Y-27664D01*
X60906Y-27522D01*
X60893Y-27373D01*
X60623Y-27271D01*
X60335Y-27279D01*
X60106Y-27373D01*
X60093Y-27522D01*
X60500Y-27929D01*
X60906Y-27522D01*
X60906Y-27664D01*
X60570Y-28000D01*
X60977Y-28406D01*
X61126Y-28393D01*
X61200Y-28199D01*
X61200Y-30698D01*
X61139Y-30758D01*
X61075Y-30915D01*
X61074Y-31084D01*
X61139Y-31240D01*
X61258Y-31360D01*
X61415Y-31424D01*
X61584Y-31425D01*
X61740Y-31360D01*
X61860Y-31241D01*
X61924Y-31084D01*
X61925Y-30915D01*
X61860Y-30759D01*
X61800Y-30698D01*
X61800Y-28214D01*
X61873Y-28393D01*
X62022Y-28406D01*
X62429Y-28000D01*
X62022Y-27593D01*
X61873Y-27606D01*
X61800Y-27800D01*
X61800Y-25624D01*
X62011Y-25412D01*
X62012Y-25416D01*
X62083Y-25486D01*
X62175Y-25524D01*
X62274Y-25525D01*
X62824Y-25525D01*
X62916Y-25487D01*
X62986Y-25416D01*
X63024Y-25324D01*
X63025Y-25225D01*
X63025Y-27597D01*
X62977Y-27593D01*
X62906Y-27664D01*
X62906Y-27522D01*
X62893Y-27373D01*
X62623Y-27271D01*
X62335Y-27279D01*
X62106Y-27373D01*
X62093Y-27522D01*
X62500Y-27929D01*
X62906Y-27522D01*
X62906Y-27664D01*
X62570Y-28000D01*
X62977Y-28406D01*
X63126Y-28393D01*
X63200Y-28199D01*
X63200Y-31698D01*
X63139Y-31758D01*
X63075Y-31915D01*
X63074Y-32084D01*
X63122Y-32200D01*
X62906Y-32200D01*
X62906Y-28477D01*
X62500Y-28070D01*
X62093Y-28477D01*
X62106Y-28626D01*
X62376Y-28728D01*
X62664Y-28720D01*
X62893Y-28626D01*
X62906Y-28477D01*
X62906Y-32200D01*
X60906Y-32200D01*
X60906Y-28477D01*
X60500Y-28070D01*
X60093Y-28477D01*
X60106Y-28626D01*
X60376Y-28728D01*
X60664Y-28720D01*
X60893Y-28626D01*
X60906Y-28477D01*
X60906Y-32200D01*
X58906Y-32200D01*
X58906Y-28477D01*
X58500Y-28070D01*
X58093Y-28477D01*
X58106Y-28626D01*
X58376Y-28728D01*
X58664Y-28720D01*
X58893Y-28626D01*
X58906Y-28477D01*
X58906Y-32200D01*
X56906Y-32200D01*
X56906Y-28477D01*
X56500Y-28070D01*
X56429Y-28141D01*
X56429Y-28000D01*
X56022Y-27593D01*
X55873Y-27606D01*
X55771Y-27876D01*
X55779Y-28164D01*
X55873Y-28393D01*
X56022Y-28406D01*
X56429Y-28000D01*
X56429Y-28141D01*
X56093Y-28477D01*
X56106Y-28626D01*
X56376Y-28728D01*
X56664Y-28720D01*
X56893Y-28626D01*
X56906Y-28477D01*
X56906Y-32200D01*
X56500Y-32200D01*
X56385Y-32222D01*
X56287Y-32287D01*
X55787Y-32787D01*
X55722Y-32885D01*
X55700Y-33000D01*
X55700Y-35375D01*
X54787Y-36287D01*
X54722Y-36385D01*
X54700Y-36500D01*
X54700Y-37307D01*
X54555Y-37452D01*
X54475Y-37645D01*
X54474Y-37853D01*
X54554Y-38047D01*
X54700Y-38192D01*
X54700Y-40307D01*
X54555Y-40452D01*
X54475Y-40645D01*
X54474Y-40853D01*
X54554Y-41047D01*
X54702Y-41194D01*
X54895Y-41274D01*
X55103Y-41275D01*
X55297Y-41195D01*
X55444Y-41047D01*
X55524Y-40854D01*
X55525Y-40646D01*
X55445Y-40453D01*
X55300Y-40307D01*
X55300Y-38192D01*
X55444Y-38047D01*
X55524Y-37854D01*
X55525Y-37646D01*
X55445Y-37453D01*
X55300Y-37307D01*
X55300Y-36624D01*
X56212Y-35712D01*
X56212Y-35712D01*
X56277Y-35614D01*
X56299Y-35500D01*
X56300Y-35500D01*
X56300Y-33124D01*
X56624Y-32800D01*
X67057Y-32800D01*
X67202Y-32944D01*
X67395Y-33024D01*
X67603Y-33025D01*
X67703Y-32984D01*
X67700Y-33000D01*
X67700Y-34622D01*
X67584Y-34575D01*
X67415Y-34574D01*
X67259Y-34639D01*
X67198Y-34700D01*
X66301Y-34700D01*
X66241Y-34639D01*
X66084Y-34575D01*
X65915Y-34574D01*
X65800Y-34622D01*
X65800Y-34300D01*
X66698Y-34300D01*
X66758Y-34360D01*
X66915Y-34424D01*
X67084Y-34425D01*
X67240Y-34360D01*
X67360Y-34241D01*
X67424Y-34084D01*
X67425Y-33915D01*
X67360Y-33759D01*
X67241Y-33639D01*
X67084Y-33575D01*
X66915Y-33574D01*
X66759Y-33639D01*
X66698Y-33700D01*
X65500Y-33700D01*
X65385Y-33722D01*
X65287Y-33787D01*
X65222Y-33885D01*
X65200Y-34000D01*
X65200Y-39875D01*
X65024Y-40050D01*
X65025Y-39896D01*
X64945Y-39703D01*
X64797Y-39555D01*
X64664Y-39499D01*
X64797Y-39445D01*
X64944Y-39297D01*
X65024Y-39104D01*
X65025Y-38896D01*
X64945Y-38703D01*
X64797Y-38555D01*
X64664Y-38499D01*
X64797Y-38445D01*
X64944Y-38297D01*
X65024Y-38104D01*
X65025Y-37896D01*
X64945Y-37703D01*
X64797Y-37555D01*
X64664Y-37499D01*
X64797Y-37445D01*
X64944Y-37297D01*
X65024Y-37104D01*
X65025Y-36896D01*
X64945Y-36703D01*
X64797Y-36555D01*
X64604Y-36475D01*
X64396Y-36474D01*
X64203Y-36554D01*
X64057Y-36700D01*
X63500Y-36700D01*
X63385Y-36722D01*
X63287Y-36787D01*
X62787Y-37287D01*
X62722Y-37385D01*
X62700Y-37500D01*
X62700Y-39698D01*
X62639Y-39758D01*
X62575Y-39915D01*
X62574Y-40084D01*
X62639Y-40240D01*
X62758Y-40360D01*
X62915Y-40424D01*
X63084Y-40425D01*
X63197Y-40378D01*
X62375Y-41200D01*
X59285Y-41200D01*
X59297Y-41195D01*
X59444Y-41047D01*
X59524Y-40854D01*
X59525Y-40646D01*
X59445Y-40453D01*
X59297Y-40305D01*
X59104Y-40225D01*
X58896Y-40224D01*
X58703Y-40304D01*
X58555Y-40452D01*
X58475Y-40645D01*
X58474Y-40853D01*
X58554Y-41047D01*
X58702Y-41194D01*
X58714Y-41200D01*
X58500Y-41200D01*
X58385Y-41222D01*
X58287Y-41287D01*
X55625Y-43950D01*
X55442Y-43950D01*
X55297Y-43805D01*
X55285Y-43800D01*
X55500Y-43800D01*
X55500Y-43799D01*
X55614Y-43777D01*
X55614Y-43777D01*
X55712Y-43712D01*
X57212Y-42212D01*
X57212Y-42212D01*
X57277Y-42114D01*
X57299Y-42000D01*
X57300Y-42000D01*
X57300Y-41192D01*
X57444Y-41047D01*
X57524Y-40854D01*
X57525Y-40646D01*
X57525Y-37646D01*
X57525Y-34146D01*
X57445Y-33953D01*
X57297Y-33805D01*
X57104Y-33725D01*
X56896Y-33724D01*
X56703Y-33804D01*
X56555Y-33952D01*
X56475Y-34145D01*
X56474Y-34353D01*
X56554Y-34547D01*
X56702Y-34694D01*
X56895Y-34774D01*
X57103Y-34775D01*
X57297Y-34695D01*
X57444Y-34547D01*
X57524Y-34354D01*
X57525Y-34146D01*
X57525Y-37646D01*
X57445Y-37453D01*
X57297Y-37305D01*
X57104Y-37225D01*
X56896Y-37224D01*
X56703Y-37304D01*
X56555Y-37452D01*
X56475Y-37645D01*
X56474Y-37853D01*
X56554Y-38047D01*
X56702Y-38194D01*
X56895Y-38274D01*
X57103Y-38275D01*
X57297Y-38195D01*
X57444Y-38047D01*
X57524Y-37854D01*
X57525Y-37646D01*
X57525Y-40646D01*
X57445Y-40453D01*
X57297Y-40305D01*
X57104Y-40225D01*
X56896Y-40224D01*
X56703Y-40304D01*
X56555Y-40452D01*
X56475Y-40645D01*
X56474Y-40853D01*
X56554Y-41047D01*
X56700Y-41192D01*
X56700Y-41875D01*
X55375Y-43200D01*
X49442Y-43200D01*
X49297Y-43055D01*
X49104Y-42975D01*
X48896Y-42974D01*
X48703Y-43054D01*
X48555Y-43202D01*
X48499Y-43335D01*
X48445Y-43203D01*
X48297Y-43055D01*
X48104Y-42975D01*
X47896Y-42974D01*
X47703Y-43054D01*
X47633Y-43124D01*
X47626Y-43106D01*
X47477Y-43093D01*
X47406Y-43164D01*
X47406Y-43022D01*
X47393Y-42873D01*
X47123Y-42771D01*
X46835Y-42779D01*
X46606Y-42873D01*
X46593Y-43022D01*
X47000Y-43429D01*
X47406Y-43022D01*
X47406Y-43164D01*
X47070Y-43500D01*
X47477Y-43906D01*
X47626Y-43893D01*
X47632Y-43875D01*
X47700Y-43942D01*
X47700Y-44000D01*
X47722Y-44114D01*
X47787Y-44212D01*
X48037Y-44462D01*
X48037Y-44462D01*
X48135Y-44527D01*
X48250Y-44550D01*
X52557Y-44550D01*
X52702Y-44694D01*
X52895Y-44774D01*
X53103Y-44775D01*
X53297Y-44695D01*
X53444Y-44547D01*
X53524Y-44354D01*
X53525Y-44146D01*
X53445Y-43953D01*
X53297Y-43805D01*
X53285Y-43800D01*
X54714Y-43800D01*
X54703Y-43804D01*
X54555Y-43952D01*
X54475Y-44145D01*
X54474Y-44353D01*
X54554Y-44547D01*
X54702Y-44694D01*
X54895Y-44774D01*
X55103Y-44775D01*
X55297Y-44695D01*
X55442Y-44550D01*
X55750Y-44550D01*
X55750Y-44549D01*
X55864Y-44527D01*
X55864Y-44527D01*
X55962Y-44462D01*
X58624Y-41800D01*
X62500Y-41800D01*
X62500Y-41799D01*
X62614Y-41777D01*
X62614Y-41777D01*
X62639Y-41760D01*
X62575Y-41915D01*
X62574Y-42084D01*
X62639Y-42240D01*
X62700Y-42301D01*
X62700Y-43875D01*
X61875Y-44700D01*
X59285Y-44700D01*
X59297Y-44695D01*
X59444Y-44547D01*
X59524Y-44354D01*
X59525Y-44146D01*
X59445Y-43953D01*
X59297Y-43805D01*
X59104Y-43725D01*
X58896Y-43724D01*
X58703Y-43804D01*
X58555Y-43952D01*
X58475Y-44145D01*
X58474Y-44350D01*
X57625Y-45200D01*
X57525Y-45200D01*
X57525Y-44146D01*
X57445Y-43953D01*
X57297Y-43805D01*
X57104Y-43725D01*
X56896Y-43724D01*
X56703Y-43804D01*
X56555Y-43952D01*
X56475Y-44145D01*
X56474Y-44353D01*
X56554Y-44547D01*
X56702Y-44694D01*
X56895Y-44774D01*
X57103Y-44775D01*
X57297Y-44695D01*
X57444Y-44547D01*
X57524Y-44354D01*
X57525Y-44146D01*
X57525Y-45200D01*
X47406Y-45200D01*
X47406Y-43977D01*
X47000Y-43570D01*
X46593Y-43977D01*
X46606Y-44126D01*
X46876Y-44228D01*
X47164Y-44220D01*
X47393Y-44126D01*
X47406Y-43977D01*
X47406Y-45200D01*
X45624Y-45200D01*
X44333Y-43909D01*
X44444Y-43797D01*
X44500Y-43664D01*
X44554Y-43797D01*
X44702Y-43944D01*
X44895Y-44024D01*
X45103Y-44025D01*
X45297Y-43945D01*
X45444Y-43797D01*
X45500Y-43664D01*
X45554Y-43797D01*
X45702Y-43944D01*
X45895Y-44024D01*
X46103Y-44025D01*
X46297Y-43945D01*
X46366Y-43875D01*
X46373Y-43893D01*
X46522Y-43906D01*
X46929Y-43500D01*
X46522Y-43093D01*
X46373Y-43106D01*
X46367Y-43124D01*
X46333Y-43090D01*
X47624Y-41800D01*
X52250Y-41800D01*
X52250Y-41799D01*
X52364Y-41777D01*
X52364Y-41777D01*
X52462Y-41712D01*
X52899Y-41274D01*
X53103Y-41275D01*
X53297Y-41195D01*
X53444Y-41047D01*
X53524Y-40854D01*
X53525Y-40646D01*
X53525Y-37646D01*
X53445Y-37453D01*
X53297Y-37305D01*
X53104Y-37225D01*
X52896Y-37224D01*
X52703Y-37304D01*
X52555Y-37452D01*
X52475Y-37645D01*
X52474Y-37853D01*
X52554Y-38047D01*
X52702Y-38194D01*
X52895Y-38274D01*
X53103Y-38275D01*
X53297Y-38195D01*
X53444Y-38047D01*
X53524Y-37854D01*
X53525Y-37646D01*
X53525Y-40646D01*
X53445Y-40453D01*
X53297Y-40305D01*
X53104Y-40225D01*
X52896Y-40224D01*
X52703Y-40304D01*
X52555Y-40452D01*
X52475Y-40645D01*
X52474Y-40850D01*
X52125Y-41200D01*
X47500Y-41200D01*
X47385Y-41222D01*
X47287Y-41287D01*
X45787Y-42787D01*
X45757Y-42833D01*
X44800Y-41875D01*
X44800Y-40985D01*
X44895Y-41024D01*
X45103Y-41025D01*
X45297Y-40945D01*
X45444Y-40797D01*
X45500Y-40664D01*
X45554Y-40797D01*
X45702Y-40944D01*
X45895Y-41024D01*
X46103Y-41025D01*
X46297Y-40945D01*
X46444Y-40797D01*
X46500Y-40664D01*
X46554Y-40797D01*
X46702Y-40944D01*
X46895Y-41024D01*
X47103Y-41025D01*
X47297Y-40945D01*
X47444Y-40797D01*
X47500Y-40664D01*
X47554Y-40797D01*
X47702Y-40944D01*
X47895Y-41024D01*
X48103Y-41025D01*
X48297Y-40945D01*
X48444Y-40797D01*
X48474Y-40725D01*
X48474Y-40824D01*
X48512Y-40916D01*
X48583Y-40986D01*
X48675Y-41024D01*
X48774Y-41025D01*
X49324Y-41025D01*
X49416Y-40987D01*
X49486Y-40916D01*
X49524Y-40824D01*
X49524Y-40800D01*
X50500Y-40800D01*
X50500Y-40799D01*
X50614Y-40777D01*
X50614Y-40777D01*
X50712Y-40712D01*
X52212Y-39212D01*
X52212Y-39212D01*
X52277Y-39114D01*
X52299Y-39000D01*
X52300Y-39000D01*
X52300Y-37124D01*
X54721Y-34702D01*
X54895Y-34774D01*
X55103Y-34775D01*
X55297Y-34695D01*
X55444Y-34547D01*
X55524Y-34354D01*
X55525Y-34146D01*
X55445Y-33953D01*
X55297Y-33805D01*
X55228Y-33776D01*
X55228Y-28123D01*
X55220Y-27835D01*
X55126Y-27606D01*
X55025Y-27597D01*
X55025Y-25225D01*
X55025Y-24675D01*
X54987Y-24583D01*
X54916Y-24513D01*
X54824Y-24475D01*
X54725Y-24474D01*
X54175Y-24474D01*
X54083Y-24512D01*
X54013Y-24583D01*
X53975Y-24675D01*
X53974Y-24774D01*
X53974Y-25324D01*
X54012Y-25416D01*
X54083Y-25486D01*
X54175Y-25524D01*
X54274Y-25525D01*
X54824Y-25525D01*
X54916Y-25487D01*
X54986Y-25416D01*
X55024Y-25324D01*
X55025Y-25225D01*
X55025Y-27597D01*
X54977Y-27593D01*
X54906Y-27664D01*
X54906Y-27522D01*
X54893Y-27373D01*
X54623Y-27271D01*
X54335Y-27279D01*
X54106Y-27373D01*
X54093Y-27522D01*
X54500Y-27929D01*
X54906Y-27522D01*
X54906Y-27664D01*
X54570Y-28000D01*
X54977Y-28406D01*
X55126Y-28393D01*
X55228Y-28123D01*
X55228Y-33776D01*
X55104Y-33725D01*
X54906Y-33724D01*
X54906Y-28477D01*
X54500Y-28070D01*
X54429Y-28141D01*
X54429Y-28000D01*
X54022Y-27593D01*
X53873Y-27606D01*
X53771Y-27876D01*
X53779Y-28164D01*
X53873Y-28393D01*
X54022Y-28406D01*
X54429Y-28000D01*
X54429Y-28141D01*
X54093Y-28477D01*
X54106Y-28626D01*
X54376Y-28728D01*
X54664Y-28720D01*
X54893Y-28626D01*
X54906Y-28477D01*
X54906Y-33724D01*
X54896Y-33724D01*
X54703Y-33804D01*
X54555Y-33952D01*
X54506Y-34069D01*
X51800Y-36775D01*
X51800Y-35874D01*
X52899Y-34774D01*
X53103Y-34775D01*
X53297Y-34695D01*
X53444Y-34547D01*
X53524Y-34354D01*
X53525Y-34146D01*
X53445Y-33953D01*
X53297Y-33805D01*
X53228Y-33776D01*
X53228Y-28123D01*
X53220Y-27835D01*
X53126Y-27606D01*
X52977Y-27593D01*
X52906Y-27664D01*
X52906Y-27522D01*
X52893Y-27373D01*
X52623Y-27271D01*
X52335Y-27279D01*
X52106Y-27373D01*
X52093Y-27522D01*
X52500Y-27929D01*
X52906Y-27522D01*
X52906Y-27664D01*
X52570Y-28000D01*
X52977Y-28406D01*
X53126Y-28393D01*
X53228Y-28123D01*
X53228Y-33776D01*
X53104Y-33725D01*
X52906Y-33724D01*
X52906Y-28477D01*
X52500Y-28070D01*
X52429Y-28141D01*
X52429Y-28000D01*
X52022Y-27593D01*
X51873Y-27606D01*
X51771Y-27876D01*
X51779Y-28164D01*
X51873Y-28393D01*
X52022Y-28406D01*
X52429Y-28000D01*
X52429Y-28141D01*
X52093Y-28477D01*
X52106Y-28626D01*
X52376Y-28728D01*
X52664Y-28720D01*
X52893Y-28626D01*
X52906Y-28477D01*
X52906Y-33724D01*
X52896Y-33724D01*
X52703Y-33804D01*
X52555Y-33952D01*
X52475Y-34145D01*
X52474Y-34350D01*
X51525Y-35300D01*
X51525Y-34146D01*
X51445Y-33953D01*
X51297Y-33805D01*
X51228Y-33776D01*
X51228Y-28123D01*
X51220Y-27835D01*
X51126Y-27606D01*
X50977Y-27593D01*
X50906Y-27664D01*
X50906Y-27522D01*
X50893Y-27373D01*
X50623Y-27271D01*
X50335Y-27279D01*
X50106Y-27373D01*
X50093Y-27522D01*
X50500Y-27929D01*
X50906Y-27522D01*
X50906Y-27664D01*
X50570Y-28000D01*
X50977Y-28406D01*
X51126Y-28393D01*
X51228Y-28123D01*
X51228Y-33776D01*
X51104Y-33725D01*
X50906Y-33724D01*
X50906Y-28477D01*
X50500Y-28070D01*
X50429Y-28141D01*
X50429Y-28000D01*
X50022Y-27593D01*
X49873Y-27606D01*
X49771Y-27876D01*
X49779Y-28164D01*
X49873Y-28393D01*
X50022Y-28406D01*
X50429Y-28000D01*
X50429Y-28141D01*
X50093Y-28477D01*
X50106Y-28626D01*
X50376Y-28728D01*
X50664Y-28720D01*
X50893Y-28626D01*
X50906Y-28477D01*
X50906Y-33724D01*
X50896Y-33724D01*
X50703Y-33804D01*
X50555Y-33952D01*
X50475Y-34145D01*
X50474Y-34353D01*
X50554Y-34547D01*
X50702Y-34694D01*
X50895Y-34774D01*
X51103Y-34775D01*
X51297Y-34695D01*
X51444Y-34547D01*
X51524Y-34354D01*
X51525Y-34146D01*
X51525Y-35300D01*
X51287Y-35537D01*
X51222Y-35635D01*
X51200Y-35750D01*
X51200Y-37264D01*
X51104Y-37225D01*
X50899Y-37224D01*
X49962Y-36287D01*
X49864Y-36222D01*
X49750Y-36200D01*
X49025Y-36200D01*
X49025Y-34146D01*
X48945Y-33953D01*
X48797Y-33805D01*
X48604Y-33725D01*
X48396Y-33724D01*
X48203Y-33804D01*
X48055Y-33952D01*
X47975Y-34145D01*
X47974Y-34353D01*
X48054Y-34547D01*
X48202Y-34694D01*
X48395Y-34774D01*
X48603Y-34775D01*
X48797Y-34695D01*
X48944Y-34547D01*
X49024Y-34354D01*
X49025Y-34146D01*
X49025Y-36200D01*
X48500Y-36200D01*
X48385Y-36222D01*
X48287Y-36287D01*
X47775Y-36800D01*
X47775Y-30896D01*
X47775Y-28896D01*
X47775Y-24896D01*
X47695Y-24703D01*
X47547Y-24555D01*
X47354Y-24475D01*
X47146Y-24474D01*
X46953Y-24554D01*
X46805Y-24702D01*
X46725Y-24895D01*
X46724Y-25103D01*
X46804Y-25297D01*
X46952Y-25444D01*
X47145Y-25524D01*
X47353Y-25525D01*
X47547Y-25445D01*
X47694Y-25297D01*
X47774Y-25104D01*
X47775Y-24896D01*
X47775Y-28896D01*
X47695Y-28703D01*
X47547Y-28555D01*
X47354Y-28475D01*
X47146Y-28474D01*
X46953Y-28554D01*
X46805Y-28702D01*
X46725Y-28895D01*
X46724Y-29103D01*
X46804Y-29297D01*
X46952Y-29444D01*
X47145Y-29524D01*
X47353Y-29525D01*
X47547Y-29445D01*
X47694Y-29297D01*
X47774Y-29104D01*
X47775Y-28896D01*
X47775Y-30896D01*
X47695Y-30703D01*
X47547Y-30555D01*
X47354Y-30475D01*
X47146Y-30474D01*
X46953Y-30554D01*
X46805Y-30702D01*
X46725Y-30895D01*
X46724Y-31103D01*
X46804Y-31297D01*
X46952Y-31444D01*
X47145Y-31524D01*
X47353Y-31525D01*
X47547Y-31445D01*
X47694Y-31297D01*
X47774Y-31104D01*
X47775Y-30896D01*
X47775Y-36800D01*
X47525Y-37050D01*
X47525Y-34146D01*
X47445Y-33953D01*
X47297Y-33805D01*
X47104Y-33725D01*
X46896Y-33724D01*
X46703Y-33804D01*
X46555Y-33952D01*
X46475Y-34145D01*
X46474Y-34353D01*
X46554Y-34547D01*
X46702Y-34694D01*
X46895Y-34774D01*
X47103Y-34775D01*
X47297Y-34695D01*
X47444Y-34547D01*
X47524Y-34354D01*
X47525Y-34146D01*
X47525Y-37050D01*
X47278Y-37297D01*
X47104Y-37225D01*
X46896Y-37224D01*
X46703Y-37304D01*
X46555Y-37452D01*
X46475Y-37645D01*
X46474Y-37853D01*
X46554Y-38047D01*
X46702Y-38194D01*
X46895Y-38274D01*
X47103Y-38275D01*
X47297Y-38195D01*
X47444Y-38047D01*
X47493Y-37930D01*
X48624Y-36800D01*
X49625Y-36800D01*
X50475Y-37649D01*
X50474Y-37853D01*
X50554Y-38047D01*
X50702Y-38194D01*
X50895Y-38274D01*
X51103Y-38275D01*
X51200Y-38235D01*
X51200Y-38875D01*
X50875Y-39200D01*
X49025Y-39200D01*
X49025Y-37646D01*
X48945Y-37453D01*
X48797Y-37305D01*
X48604Y-37225D01*
X48396Y-37224D01*
X48203Y-37304D01*
X48055Y-37452D01*
X47975Y-37645D01*
X47974Y-37853D01*
X48054Y-38047D01*
X48202Y-38194D01*
X48395Y-38274D01*
X48603Y-38275D01*
X48797Y-38195D01*
X48944Y-38047D01*
X49024Y-37854D01*
X49025Y-37646D01*
X49025Y-39200D01*
X49000Y-39200D01*
X48885Y-39222D01*
X48787Y-39287D01*
X48100Y-39975D01*
X47896Y-39974D01*
X47703Y-40054D01*
X47555Y-40202D01*
X47499Y-40335D01*
X47445Y-40203D01*
X47297Y-40055D01*
X47104Y-39975D01*
X46896Y-39974D01*
X46703Y-40054D01*
X46555Y-40202D01*
X46499Y-40335D01*
X46445Y-40203D01*
X46297Y-40055D01*
X46104Y-39975D01*
X45896Y-39974D01*
X45703Y-40054D01*
X45555Y-40202D01*
X45499Y-40335D01*
X45445Y-40203D01*
X45300Y-40057D01*
X45300Y-38801D01*
X45360Y-38741D01*
X45424Y-38584D01*
X45425Y-38415D01*
X45360Y-38260D01*
X45395Y-38274D01*
X45603Y-38275D01*
X45797Y-38195D01*
X45944Y-38047D01*
X46024Y-37854D01*
X46025Y-37646D01*
X46025Y-34146D01*
X45945Y-33953D01*
X45797Y-33805D01*
X45604Y-33725D01*
X45396Y-33724D01*
X45203Y-33804D01*
X45055Y-33952D01*
X44975Y-34145D01*
X44974Y-34353D01*
X45054Y-34547D01*
X45202Y-34694D01*
X45395Y-34774D01*
X45603Y-34775D01*
X45797Y-34695D01*
X45944Y-34547D01*
X46024Y-34354D01*
X46025Y-34146D01*
X46025Y-37646D01*
X45945Y-37453D01*
X45797Y-37305D01*
X45680Y-37256D01*
X44712Y-36287D01*
X44614Y-36222D01*
X44525Y-36204D01*
X44525Y-34146D01*
X44445Y-33953D01*
X44297Y-33805D01*
X44275Y-33795D01*
X44275Y-30896D01*
X44275Y-28896D01*
X44275Y-24896D01*
X44195Y-24703D01*
X44047Y-24555D01*
X43854Y-24475D01*
X43646Y-24474D01*
X43453Y-24554D01*
X43305Y-24702D01*
X43228Y-24886D01*
X43228Y-20123D01*
X43220Y-19835D01*
X43126Y-19606D01*
X42977Y-19593D01*
X42906Y-19664D01*
X42906Y-19522D01*
X42893Y-19373D01*
X42623Y-19271D01*
X42335Y-19279D01*
X42106Y-19373D01*
X42093Y-19522D01*
X42500Y-19929D01*
X42906Y-19522D01*
X42906Y-19664D01*
X42570Y-20000D01*
X42977Y-20406D01*
X43126Y-20393D01*
X43228Y-20123D01*
X43228Y-24886D01*
X43225Y-24895D01*
X43224Y-25103D01*
X43304Y-25297D01*
X43452Y-25444D01*
X43645Y-25524D01*
X43853Y-25525D01*
X44047Y-25445D01*
X44194Y-25297D01*
X44274Y-25104D01*
X44275Y-24896D01*
X44275Y-28896D01*
X44195Y-28703D01*
X44047Y-28555D01*
X43854Y-28475D01*
X43646Y-28474D01*
X43453Y-28554D01*
X43305Y-28702D01*
X43225Y-28895D01*
X43224Y-29103D01*
X43304Y-29297D01*
X43452Y-29444D01*
X43645Y-29524D01*
X43853Y-29525D01*
X44047Y-29445D01*
X44194Y-29297D01*
X44274Y-29104D01*
X44275Y-28896D01*
X44275Y-30896D01*
X44195Y-30703D01*
X44047Y-30555D01*
X43854Y-30475D01*
X43646Y-30474D01*
X43453Y-30554D01*
X43305Y-30702D01*
X43225Y-30895D01*
X43224Y-31103D01*
X43304Y-31297D01*
X43452Y-31444D01*
X43645Y-31524D01*
X43853Y-31525D01*
X44047Y-31445D01*
X44194Y-31297D01*
X44274Y-31104D01*
X44275Y-30896D01*
X44275Y-33795D01*
X44104Y-33725D01*
X43896Y-33724D01*
X43703Y-33804D01*
X43555Y-33952D01*
X43475Y-34145D01*
X43474Y-34353D01*
X43554Y-34547D01*
X43702Y-34694D01*
X43895Y-34774D01*
X44103Y-34775D01*
X44297Y-34695D01*
X44444Y-34547D01*
X44524Y-34354D01*
X44525Y-34146D01*
X44525Y-36204D01*
X44500Y-36200D01*
X41500Y-36200D01*
X41385Y-36222D01*
X41287Y-36287D01*
X40787Y-36787D01*
X40722Y-36885D01*
X40700Y-37000D01*
X40700Y-37714D01*
X40695Y-37703D01*
X40547Y-37555D01*
X40354Y-37475D01*
X40300Y-37475D01*
X40300Y-35624D01*
X41374Y-34550D01*
X42057Y-34550D01*
X42202Y-34694D01*
X42395Y-34774D01*
X42603Y-34775D01*
X42797Y-34695D01*
X42944Y-34547D01*
X43024Y-34354D01*
X43025Y-34146D01*
X42945Y-33953D01*
X42906Y-33913D01*
X42906Y-20477D01*
X42500Y-20070D01*
X42429Y-20141D01*
X42429Y-20000D01*
X42189Y-19760D01*
X42126Y-19606D01*
X42027Y-19598D01*
X42022Y-19593D01*
X42000Y-19595D01*
X41977Y-19593D01*
X41972Y-19598D01*
X41906Y-19604D01*
X41906Y-19522D01*
X41893Y-19373D01*
X41623Y-19271D01*
X41335Y-19279D01*
X41106Y-19373D01*
X41093Y-19522D01*
X41500Y-19929D01*
X41906Y-19522D01*
X41906Y-19604D01*
X41873Y-19606D01*
X41818Y-19752D01*
X41570Y-20000D01*
X41810Y-20239D01*
X41873Y-20393D01*
X41972Y-20401D01*
X41977Y-20406D01*
X42000Y-20404D01*
X42022Y-20406D01*
X42027Y-20401D01*
X42126Y-20393D01*
X42181Y-20247D01*
X42429Y-20000D01*
X42429Y-20141D01*
X42093Y-20477D01*
X42106Y-20626D01*
X42376Y-20728D01*
X42664Y-20720D01*
X42893Y-20626D01*
X42906Y-20477D01*
X42906Y-33913D01*
X42797Y-33805D01*
X42775Y-33795D01*
X42775Y-31896D01*
X42775Y-29896D01*
X42775Y-27896D01*
X42775Y-25896D01*
X42775Y-23896D01*
X42695Y-23703D01*
X42547Y-23555D01*
X42354Y-23475D01*
X42146Y-23474D01*
X41953Y-23554D01*
X41906Y-23601D01*
X41906Y-20477D01*
X41500Y-20070D01*
X41429Y-20141D01*
X41429Y-20000D01*
X41022Y-19593D01*
X40873Y-19606D01*
X40867Y-19624D01*
X40797Y-19555D01*
X40604Y-19475D01*
X40396Y-19474D01*
X40203Y-19554D01*
X40055Y-19702D01*
X39999Y-19835D01*
X39945Y-19703D01*
X39797Y-19555D01*
X39604Y-19475D01*
X39396Y-19474D01*
X39203Y-19554D01*
X39055Y-19702D01*
X39025Y-19774D01*
X39025Y-19675D01*
X38987Y-19583D01*
X38916Y-19513D01*
X38824Y-19475D01*
X38725Y-19474D01*
X38175Y-19474D01*
X38083Y-19512D01*
X38013Y-19583D01*
X37975Y-19675D01*
X37974Y-19774D01*
X37974Y-20324D01*
X38012Y-20416D01*
X38083Y-20486D01*
X38175Y-20524D01*
X38274Y-20525D01*
X38824Y-20525D01*
X38916Y-20487D01*
X38986Y-20416D01*
X39024Y-20324D01*
X39025Y-20225D01*
X39025Y-20225D01*
X39054Y-20297D01*
X39202Y-20444D01*
X39395Y-20524D01*
X39603Y-20525D01*
X39797Y-20445D01*
X39944Y-20297D01*
X40000Y-20164D01*
X40054Y-20297D01*
X40202Y-20444D01*
X40395Y-20524D01*
X40603Y-20525D01*
X40797Y-20445D01*
X40866Y-20375D01*
X40873Y-20393D01*
X41022Y-20406D01*
X41429Y-20000D01*
X41429Y-20141D01*
X41093Y-20477D01*
X41106Y-20626D01*
X41376Y-20728D01*
X41664Y-20720D01*
X41893Y-20626D01*
X41906Y-20477D01*
X41906Y-23601D01*
X41805Y-23702D01*
X41725Y-23895D01*
X41724Y-24103D01*
X41804Y-24297D01*
X41952Y-24444D01*
X42145Y-24524D01*
X42353Y-24525D01*
X42547Y-24445D01*
X42694Y-24297D01*
X42774Y-24104D01*
X42775Y-23896D01*
X42775Y-25896D01*
X42695Y-25703D01*
X42547Y-25555D01*
X42354Y-25475D01*
X42146Y-25474D01*
X41953Y-25554D01*
X41805Y-25702D01*
X41725Y-25895D01*
X41724Y-26103D01*
X41804Y-26297D01*
X41952Y-26444D01*
X42145Y-26524D01*
X42353Y-26525D01*
X42547Y-26445D01*
X42694Y-26297D01*
X42774Y-26104D01*
X42775Y-25896D01*
X42775Y-27896D01*
X42695Y-27703D01*
X42547Y-27555D01*
X42354Y-27475D01*
X42146Y-27474D01*
X41953Y-27554D01*
X41805Y-27702D01*
X41725Y-27895D01*
X41724Y-28103D01*
X41804Y-28297D01*
X41952Y-28444D01*
X42145Y-28524D01*
X42353Y-28525D01*
X42547Y-28445D01*
X42694Y-28297D01*
X42774Y-28104D01*
X42775Y-27896D01*
X42775Y-29896D01*
X42695Y-29703D01*
X42547Y-29555D01*
X42354Y-29475D01*
X42146Y-29474D01*
X41953Y-29554D01*
X41805Y-29702D01*
X41725Y-29895D01*
X41724Y-30103D01*
X41804Y-30297D01*
X41952Y-30444D01*
X42145Y-30524D01*
X42353Y-30525D01*
X42547Y-30445D01*
X42694Y-30297D01*
X42774Y-30104D01*
X42775Y-29896D01*
X42775Y-31896D01*
X42695Y-31703D01*
X42547Y-31555D01*
X42354Y-31475D01*
X42146Y-31474D01*
X41953Y-31554D01*
X41805Y-31702D01*
X41725Y-31895D01*
X41724Y-32103D01*
X41804Y-32297D01*
X41952Y-32444D01*
X42145Y-32524D01*
X42353Y-32525D01*
X42547Y-32445D01*
X42694Y-32297D01*
X42774Y-32104D01*
X42775Y-31896D01*
X42775Y-33795D01*
X42604Y-33725D01*
X42396Y-33724D01*
X42203Y-33804D01*
X42057Y-33950D01*
X41250Y-33950D01*
X41135Y-33972D01*
X41037Y-34037D01*
X39787Y-35287D01*
X39722Y-35385D01*
X39700Y-35500D01*
X39700Y-37375D01*
X39275Y-37800D01*
X39275Y-31896D01*
X39275Y-29896D01*
X39275Y-27896D01*
X39275Y-25896D01*
X39275Y-23896D01*
X39195Y-23703D01*
X39047Y-23555D01*
X38854Y-23475D01*
X38646Y-23474D01*
X38453Y-23554D01*
X38305Y-23702D01*
X38255Y-23822D01*
X38255Y-21053D01*
X37912Y-20224D01*
X37279Y-19589D01*
X36450Y-19245D01*
X35553Y-19244D01*
X34724Y-19587D01*
X34089Y-20220D01*
X33745Y-21049D01*
X33744Y-21946D01*
X34087Y-22775D01*
X34720Y-23410D01*
X35549Y-23754D01*
X36446Y-23755D01*
X37275Y-23412D01*
X37910Y-22779D01*
X38254Y-21950D01*
X38255Y-21053D01*
X38255Y-23822D01*
X38225Y-23895D01*
X38224Y-24103D01*
X38304Y-24297D01*
X38452Y-24444D01*
X38645Y-24524D01*
X38853Y-24525D01*
X39047Y-24445D01*
X39194Y-24297D01*
X39274Y-24104D01*
X39275Y-23896D01*
X39275Y-25896D01*
X39195Y-25703D01*
X39047Y-25555D01*
X38854Y-25475D01*
X38646Y-25474D01*
X38453Y-25554D01*
X38305Y-25702D01*
X38225Y-25895D01*
X38224Y-26103D01*
X38304Y-26297D01*
X38452Y-26444D01*
X38645Y-26524D01*
X38853Y-26525D01*
X39047Y-26445D01*
X39194Y-26297D01*
X39274Y-26104D01*
X39275Y-25896D01*
X39275Y-27896D01*
X39195Y-27703D01*
X39047Y-27555D01*
X38854Y-27475D01*
X38646Y-27474D01*
X38453Y-27554D01*
X38305Y-27702D01*
X38225Y-27895D01*
X38224Y-28103D01*
X38304Y-28297D01*
X38452Y-28444D01*
X38645Y-28524D01*
X38853Y-28525D01*
X39047Y-28445D01*
X39194Y-28297D01*
X39274Y-28104D01*
X39275Y-27896D01*
X39275Y-29896D01*
X39195Y-29703D01*
X39047Y-29555D01*
X38854Y-29475D01*
X38646Y-29474D01*
X38453Y-29554D01*
X38305Y-29702D01*
X38225Y-29895D01*
X38224Y-30103D01*
X38304Y-30297D01*
X38452Y-30444D01*
X38645Y-30524D01*
X38853Y-30525D01*
X39047Y-30445D01*
X39194Y-30297D01*
X39274Y-30104D01*
X39275Y-29896D01*
X39275Y-31896D01*
X39195Y-31703D01*
X39047Y-31555D01*
X38854Y-31475D01*
X38646Y-31474D01*
X38453Y-31554D01*
X38305Y-31702D01*
X38225Y-31895D01*
X38224Y-32103D01*
X38304Y-32297D01*
X38452Y-32444D01*
X38645Y-32524D01*
X38853Y-32525D01*
X39047Y-32445D01*
X39194Y-32297D01*
X39274Y-32104D01*
X39275Y-31896D01*
X39275Y-37800D01*
X38787Y-38287D01*
X38722Y-38385D01*
X38700Y-38500D01*
X38700Y-38775D01*
X37712Y-37787D01*
X37614Y-37722D01*
X37500Y-37700D01*
X37192Y-37700D01*
X37047Y-37555D01*
X36854Y-37475D01*
X36646Y-37474D01*
X36453Y-37554D01*
X36305Y-37702D01*
X36225Y-37895D01*
X36224Y-38103D01*
X36304Y-38297D01*
X36452Y-38444D01*
X36585Y-38500D01*
X36453Y-38554D01*
X36305Y-38702D01*
X36225Y-38895D01*
X36224Y-39103D01*
X36304Y-39297D01*
X36452Y-39444D01*
X36585Y-39500D01*
X36453Y-39554D01*
X36305Y-39702D01*
X36225Y-39895D01*
X36224Y-40103D01*
X36304Y-40297D01*
X36452Y-40444D01*
X36585Y-40500D01*
X36453Y-40554D01*
X36305Y-40702D01*
X36225Y-40895D01*
X36224Y-41103D01*
X36304Y-41297D01*
X36452Y-41444D01*
X36645Y-41524D01*
X36853Y-41525D01*
X37028Y-41452D01*
X37200Y-41624D01*
X37200Y-42714D01*
X37195Y-42703D01*
X37047Y-42555D01*
X36854Y-42475D01*
X36646Y-42474D01*
X36453Y-42554D01*
X36305Y-42702D01*
X36225Y-42895D01*
X36224Y-43100D01*
X35287Y-44037D01*
X35225Y-44131D01*
X35225Y-33364D01*
X35225Y-32635D01*
X35156Y-32470D01*
X35030Y-32343D01*
X34937Y-32305D01*
X34944Y-32297D01*
X35024Y-32104D01*
X35025Y-31896D01*
X34945Y-31703D01*
X34797Y-31555D01*
X34664Y-31499D01*
X34797Y-31445D01*
X34944Y-31297D01*
X35024Y-31104D01*
X35025Y-30896D01*
X34945Y-30703D01*
X34797Y-30555D01*
X34664Y-30499D01*
X34797Y-30445D01*
X34944Y-30297D01*
X35024Y-30104D01*
X35025Y-29896D01*
X34945Y-29703D01*
X34797Y-29555D01*
X34664Y-29499D01*
X34797Y-29445D01*
X34944Y-29297D01*
X35024Y-29104D01*
X35025Y-28896D01*
X34945Y-28703D01*
X34797Y-28555D01*
X34664Y-28499D01*
X34797Y-28445D01*
X34944Y-28297D01*
X35024Y-28104D01*
X35025Y-27896D01*
X34945Y-27703D01*
X34797Y-27555D01*
X34664Y-27499D01*
X34797Y-27445D01*
X34944Y-27297D01*
X35024Y-27104D01*
X35025Y-26896D01*
X34945Y-26703D01*
X34797Y-26555D01*
X34664Y-26499D01*
X34797Y-26445D01*
X34944Y-26297D01*
X35024Y-26104D01*
X35025Y-25896D01*
X34945Y-25703D01*
X34797Y-25555D01*
X34664Y-25499D01*
X34797Y-25445D01*
X34944Y-25297D01*
X35024Y-25104D01*
X35025Y-24896D01*
X34945Y-24703D01*
X34797Y-24555D01*
X34664Y-24499D01*
X34797Y-24445D01*
X34944Y-24297D01*
X35024Y-24104D01*
X35025Y-23896D01*
X34945Y-23703D01*
X34797Y-23555D01*
X34604Y-23475D01*
X34396Y-23474D01*
X34203Y-23554D01*
X34055Y-23702D01*
X33975Y-23895D01*
X33974Y-24103D01*
X34054Y-24297D01*
X34202Y-24444D01*
X34335Y-24500D01*
X34203Y-24554D01*
X34055Y-24702D01*
X33975Y-24895D01*
X33974Y-25103D01*
X34054Y-25297D01*
X34202Y-25444D01*
X34335Y-25500D01*
X34203Y-25554D01*
X34055Y-25702D01*
X33975Y-25895D01*
X33974Y-26103D01*
X34054Y-26297D01*
X34202Y-26444D01*
X34335Y-26500D01*
X34203Y-26554D01*
X34055Y-26702D01*
X33975Y-26895D01*
X33974Y-27103D01*
X34054Y-27297D01*
X34202Y-27444D01*
X34335Y-27500D01*
X34203Y-27554D01*
X34055Y-27702D01*
X33975Y-27895D01*
X33974Y-28103D01*
X34054Y-28297D01*
X34202Y-28444D01*
X34335Y-28500D01*
X34203Y-28554D01*
X34055Y-28702D01*
X33975Y-28895D01*
X33974Y-29103D01*
X34054Y-29297D01*
X34202Y-29444D01*
X34335Y-29500D01*
X34203Y-29554D01*
X34055Y-29702D01*
X33975Y-29895D01*
X33974Y-30103D01*
X34054Y-30297D01*
X34202Y-30444D01*
X34335Y-30500D01*
X34203Y-30554D01*
X34055Y-30702D01*
X33975Y-30895D01*
X33974Y-31103D01*
X34054Y-31297D01*
X34202Y-31444D01*
X34335Y-31500D01*
X34203Y-31554D01*
X34055Y-31702D01*
X33975Y-31895D01*
X33974Y-32103D01*
X34054Y-32297D01*
X34062Y-32305D01*
X33969Y-32343D01*
X33843Y-32470D01*
X33774Y-32635D01*
X33775Y-32837D01*
X33887Y-32950D01*
X34450Y-32950D01*
X34450Y-32942D01*
X34550Y-32942D01*
X34550Y-32950D01*
X35112Y-32950D01*
X35225Y-32837D01*
X35225Y-32635D01*
X35225Y-33364D01*
X35225Y-33162D01*
X35112Y-33050D01*
X34550Y-33050D01*
X34550Y-33612D01*
X34662Y-33725D01*
X34685Y-33725D01*
X34864Y-33724D01*
X35030Y-33656D01*
X35156Y-33529D01*
X35225Y-33364D01*
X35225Y-44131D01*
X35222Y-44135D01*
X35200Y-44250D01*
X35200Y-46785D01*
X35126Y-46606D01*
X35025Y-46597D01*
X35025Y-45896D01*
X34945Y-45703D01*
X34797Y-45555D01*
X34664Y-45499D01*
X34797Y-45445D01*
X34944Y-45297D01*
X35024Y-45104D01*
X35025Y-44896D01*
X34945Y-44703D01*
X34797Y-44555D01*
X34664Y-44499D01*
X34797Y-44445D01*
X34944Y-44297D01*
X35024Y-44104D01*
X35025Y-43896D01*
X34945Y-43703D01*
X34797Y-43555D01*
X34664Y-43499D01*
X34797Y-43445D01*
X34944Y-43297D01*
X35024Y-43104D01*
X35025Y-42896D01*
X34945Y-42703D01*
X34797Y-42555D01*
X34664Y-42499D01*
X34797Y-42445D01*
X34944Y-42297D01*
X35024Y-42104D01*
X35025Y-41896D01*
X34945Y-41703D01*
X34797Y-41555D01*
X34664Y-41499D01*
X34797Y-41445D01*
X34944Y-41297D01*
X35024Y-41104D01*
X35025Y-40896D01*
X34945Y-40703D01*
X34797Y-40555D01*
X34664Y-40499D01*
X34797Y-40445D01*
X34944Y-40297D01*
X35024Y-40104D01*
X35025Y-39896D01*
X34945Y-39703D01*
X34797Y-39555D01*
X34664Y-39499D01*
X34797Y-39445D01*
X34944Y-39297D01*
X35024Y-39104D01*
X35025Y-38896D01*
X34945Y-38703D01*
X34797Y-38555D01*
X34725Y-38525D01*
X34824Y-38525D01*
X34916Y-38487D01*
X34986Y-38416D01*
X35024Y-38324D01*
X35025Y-38225D01*
X35025Y-37675D01*
X34987Y-37583D01*
X34916Y-37513D01*
X34824Y-37475D01*
X34725Y-37474D01*
X34450Y-37474D01*
X34450Y-33612D01*
X34450Y-33050D01*
X33887Y-33050D01*
X33775Y-33162D01*
X33774Y-33364D01*
X33843Y-33529D01*
X33969Y-33656D01*
X34135Y-33724D01*
X34314Y-33725D01*
X34337Y-33725D01*
X34450Y-33612D01*
X34450Y-37474D01*
X34175Y-37474D01*
X34083Y-37512D01*
X34013Y-37583D01*
X33975Y-37675D01*
X33974Y-37774D01*
X33974Y-38324D01*
X34012Y-38416D01*
X34083Y-38486D01*
X34175Y-38524D01*
X34274Y-38525D01*
X34274Y-38525D01*
X34203Y-38554D01*
X34055Y-38702D01*
X33975Y-38895D01*
X33974Y-39103D01*
X34054Y-39297D01*
X34202Y-39444D01*
X34335Y-39500D01*
X34203Y-39554D01*
X34055Y-39702D01*
X33975Y-39895D01*
X33974Y-40103D01*
X34054Y-40297D01*
X34202Y-40444D01*
X34335Y-40500D01*
X34203Y-40554D01*
X34055Y-40702D01*
X33975Y-40895D01*
X33974Y-41103D01*
X34054Y-41297D01*
X34202Y-41444D01*
X34335Y-41500D01*
X34203Y-41554D01*
X34055Y-41702D01*
X33975Y-41895D01*
X33974Y-42103D01*
X34054Y-42297D01*
X34202Y-42444D01*
X34335Y-42500D01*
X34203Y-42554D01*
X34055Y-42702D01*
X33975Y-42895D01*
X33974Y-43103D01*
X34054Y-43297D01*
X34202Y-43444D01*
X34335Y-43500D01*
X34203Y-43554D01*
X34055Y-43702D01*
X33975Y-43895D01*
X33974Y-44103D01*
X34054Y-44297D01*
X34202Y-44444D01*
X34335Y-44500D01*
X34203Y-44554D01*
X34055Y-44702D01*
X33975Y-44895D01*
X33974Y-45103D01*
X34054Y-45297D01*
X34202Y-45444D01*
X34335Y-45500D01*
X34203Y-45554D01*
X34055Y-45702D01*
X33975Y-45895D01*
X33974Y-46103D01*
X34054Y-46297D01*
X34124Y-46366D01*
X34106Y-46373D01*
X34093Y-46522D01*
X34500Y-46929D01*
X34906Y-46522D01*
X34893Y-46373D01*
X34875Y-46367D01*
X34944Y-46297D01*
X35024Y-46104D01*
X35025Y-45896D01*
X35025Y-46597D01*
X34977Y-46593D01*
X34570Y-47000D01*
X34977Y-47406D01*
X35126Y-47393D01*
X35200Y-47199D01*
X35200Y-52307D01*
X35055Y-52452D01*
X34975Y-52645D01*
X34974Y-52853D01*
X35054Y-53047D01*
X35202Y-53194D01*
X35395Y-53274D01*
X35603Y-53275D01*
X35797Y-53195D01*
X35944Y-53047D01*
X36024Y-52854D01*
X36025Y-52646D01*
X35945Y-52453D01*
X35800Y-52307D01*
X35800Y-44374D01*
X36225Y-43949D01*
X36224Y-44103D01*
X36304Y-44297D01*
X36452Y-44444D01*
X36585Y-44500D01*
X36453Y-44554D01*
X36305Y-44702D01*
X36225Y-44895D01*
X36224Y-45103D01*
X36304Y-45297D01*
X36452Y-45444D01*
X36585Y-45500D01*
X36453Y-45554D01*
X36305Y-45702D01*
X36225Y-45895D01*
X36224Y-46103D01*
X36304Y-46297D01*
X36452Y-46444D01*
X36645Y-46524D01*
X36853Y-46525D01*
X37047Y-46445D01*
X37194Y-46297D01*
X37200Y-46285D01*
X37200Y-51000D01*
X37222Y-51114D01*
X37287Y-51212D01*
X37787Y-51712D01*
X37787Y-51712D01*
X37885Y-51777D01*
X38000Y-51800D01*
X40125Y-51800D01*
X40975Y-52649D01*
X40974Y-52853D01*
X41054Y-53047D01*
X41202Y-53194D01*
X41395Y-53274D01*
X41603Y-53275D01*
X41797Y-53195D01*
X41944Y-53047D01*
X42024Y-52854D01*
X42025Y-52646D01*
X41945Y-52453D01*
X41797Y-52305D01*
X41604Y-52225D01*
X41399Y-52224D01*
X40474Y-51300D01*
X40875Y-51300D01*
X42506Y-52931D01*
X42554Y-53047D01*
X42702Y-53194D01*
X42895Y-53274D01*
X43103Y-53275D01*
X43297Y-53195D01*
X43444Y-53047D01*
X43524Y-52854D01*
X43525Y-52646D01*
X43445Y-52453D01*
X43297Y-52305D01*
X43104Y-52225D01*
X42896Y-52224D01*
X42721Y-52297D01*
X41212Y-50787D01*
X41114Y-50722D01*
X41000Y-50700D01*
X39124Y-50700D01*
X38300Y-49875D01*
X38300Y-49724D01*
X38787Y-50212D01*
X38787Y-50212D01*
X38885Y-50277D01*
X39000Y-50300D01*
X40875Y-50300D01*
X42287Y-51712D01*
X42287Y-51712D01*
X42385Y-51777D01*
X42500Y-51800D01*
X43375Y-51800D01*
X44047Y-52471D01*
X43975Y-52645D01*
X43974Y-52853D01*
X44054Y-53047D01*
X44202Y-53194D01*
X44395Y-53274D01*
X44603Y-53275D01*
X44797Y-53195D01*
X44944Y-53047D01*
X45024Y-52854D01*
X45025Y-52646D01*
X44945Y-52453D01*
X44797Y-52305D01*
X44680Y-52256D01*
X43724Y-51300D01*
X44125Y-51300D01*
X45475Y-52649D01*
X45474Y-52853D01*
X45554Y-53047D01*
X45702Y-53194D01*
X45895Y-53274D01*
X46103Y-53275D01*
X46200Y-53235D01*
X46200Y-53875D01*
X45787Y-54287D01*
X45722Y-54385D01*
X45700Y-54500D01*
X45700Y-55807D01*
X45555Y-55952D01*
X45475Y-56145D01*
X45474Y-56353D01*
X45554Y-56547D01*
X45702Y-56694D01*
X45895Y-56774D01*
X46103Y-56775D01*
X46297Y-56695D01*
X46444Y-56547D01*
X46524Y-56354D01*
X46525Y-56146D01*
X46445Y-55953D01*
X46300Y-55807D01*
X46300Y-54624D01*
X46712Y-54212D01*
X46712Y-54212D01*
X46777Y-54114D01*
X46799Y-54000D01*
X46800Y-54000D01*
X46800Y-51877D01*
X46915Y-51924D01*
X47084Y-51925D01*
X47240Y-51860D01*
X47301Y-51800D01*
X50875Y-51800D01*
X52287Y-53212D01*
X52287Y-53212D01*
X52385Y-53277D01*
X52500Y-53300D01*
X58375Y-53300D01*
X58700Y-53624D01*
X58700Y-55307D01*
X58555Y-55452D01*
X58475Y-55645D01*
X58474Y-55853D01*
X58554Y-56047D01*
X58702Y-56194D01*
X58895Y-56274D01*
X59103Y-56275D01*
X59297Y-56195D01*
X59444Y-56047D01*
X59524Y-55854D01*
X59525Y-55646D01*
X59445Y-55453D01*
X59300Y-55307D01*
X59300Y-53500D01*
X59277Y-53385D01*
X59212Y-53287D01*
X59212Y-53287D01*
X58712Y-52787D01*
X58614Y-52722D01*
X58500Y-52700D01*
X57285Y-52700D01*
X57297Y-52695D01*
X57444Y-52547D01*
X57524Y-52354D01*
X57525Y-52146D01*
X57525Y-49646D01*
X57445Y-49453D01*
X57297Y-49305D01*
X57104Y-49225D01*
X56896Y-49224D01*
X56703Y-49304D01*
X56555Y-49452D01*
X56475Y-49645D01*
X56474Y-49853D01*
X56554Y-50047D01*
X56702Y-50194D01*
X56895Y-50274D01*
X57103Y-50275D01*
X57297Y-50195D01*
X57444Y-50047D01*
X57524Y-49854D01*
X57525Y-49646D01*
X57525Y-52146D01*
X57445Y-51953D01*
X57297Y-51805D01*
X57104Y-51725D01*
X56896Y-51724D01*
X56703Y-51804D01*
X56555Y-51952D01*
X56475Y-52145D01*
X56474Y-52353D01*
X56554Y-52547D01*
X56702Y-52694D01*
X56714Y-52700D01*
X55285Y-52700D01*
X55297Y-52695D01*
X55444Y-52547D01*
X55524Y-52354D01*
X55525Y-52146D01*
X55445Y-51953D01*
X55300Y-51807D01*
X55300Y-51624D01*
X56212Y-50712D01*
X56212Y-50712D01*
X56277Y-50614D01*
X56299Y-50500D01*
X56300Y-50500D01*
X56300Y-49124D01*
X57212Y-48212D01*
X57212Y-48212D01*
X57277Y-48114D01*
X57299Y-48000D01*
X57300Y-48000D01*
X57300Y-47000D01*
X57300Y-46692D01*
X57442Y-46550D01*
X57750Y-46550D01*
X57750Y-46549D01*
X57864Y-46527D01*
X57864Y-46527D01*
X57962Y-46462D01*
X59124Y-45300D01*
X62000Y-45300D01*
X62000Y-45299D01*
X62114Y-45277D01*
X62114Y-45277D01*
X62212Y-45212D01*
X63212Y-44212D01*
X63212Y-44212D01*
X63277Y-44114D01*
X63299Y-44000D01*
X63300Y-44000D01*
X63300Y-42301D01*
X63360Y-42241D01*
X63424Y-42084D01*
X63425Y-41915D01*
X63360Y-41759D01*
X63241Y-41639D01*
X63084Y-41575D01*
X62915Y-41574D01*
X62802Y-41621D01*
X64090Y-40333D01*
X64202Y-40444D01*
X64335Y-40500D01*
X64203Y-40554D01*
X64055Y-40702D01*
X63975Y-40895D01*
X63974Y-41103D01*
X64054Y-41297D01*
X64202Y-41444D01*
X64335Y-41500D01*
X64203Y-41554D01*
X64055Y-41702D01*
X63975Y-41895D01*
X63974Y-42103D01*
X64054Y-42297D01*
X64202Y-42444D01*
X64335Y-42500D01*
X64203Y-42554D01*
X64055Y-42702D01*
X63975Y-42895D01*
X63974Y-43103D01*
X64054Y-43297D01*
X64202Y-43444D01*
X64335Y-43500D01*
X64203Y-43554D01*
X64055Y-43702D01*
X63975Y-43895D01*
X63974Y-44103D01*
X64054Y-44297D01*
X64202Y-44444D01*
X64335Y-44500D01*
X64203Y-44554D01*
X64055Y-44702D01*
X63975Y-44895D01*
X63974Y-45103D01*
X64054Y-45297D01*
X64202Y-45444D01*
X64335Y-45500D01*
X64203Y-45554D01*
X64055Y-45702D01*
X63975Y-45895D01*
X63974Y-46103D01*
X64054Y-46297D01*
X64202Y-46444D01*
X64335Y-46500D01*
X64203Y-46554D01*
X64055Y-46702D01*
X63975Y-46895D01*
X63974Y-47103D01*
X64054Y-47297D01*
X64202Y-47444D01*
X64335Y-47500D01*
X64203Y-47554D01*
X64055Y-47702D01*
X63975Y-47895D01*
X63974Y-48103D01*
X64054Y-48297D01*
X64202Y-48444D01*
X64335Y-48500D01*
X64203Y-48554D01*
X64055Y-48702D01*
X63975Y-48895D01*
X63974Y-49103D01*
X64054Y-49297D01*
X64202Y-49444D01*
X64335Y-49500D01*
X64203Y-49554D01*
X64055Y-49702D01*
X63975Y-49895D01*
X63974Y-50103D01*
X64054Y-50297D01*
X64202Y-50444D01*
X64395Y-50524D01*
X64603Y-50525D01*
X64797Y-50445D01*
X64942Y-50300D01*
X67000Y-50300D01*
X67000Y-50299D01*
X67114Y-50277D01*
X67114Y-50277D01*
X67212Y-50212D01*
X69712Y-47712D01*
X69777Y-47614D01*
X69799Y-47500D01*
X69800Y-47500D01*
X69800Y-46214D01*
X69873Y-46393D01*
X70022Y-46406D01*
X70429Y-46000D01*
X70022Y-45593D01*
X69873Y-45606D01*
X69800Y-45800D01*
X69800Y-36124D01*
X70712Y-35212D01*
X70712Y-35212D01*
X70777Y-35114D01*
X70799Y-35000D01*
X70800Y-35000D01*
X70800Y-34377D01*
X70915Y-34424D01*
X71000Y-34425D01*
X72287Y-35712D01*
X72287Y-35712D01*
X72385Y-35777D01*
X72500Y-35800D01*
X76057Y-35800D01*
X76202Y-35944D01*
X76335Y-36000D01*
X76203Y-36054D01*
X76055Y-36202D01*
X75975Y-36395D01*
X75974Y-36603D01*
X76054Y-36797D01*
X76062Y-36805D01*
X75969Y-36843D01*
X75843Y-36970D01*
X75774Y-37135D01*
X75775Y-37337D01*
X75887Y-37450D01*
X76450Y-37450D01*
X76450Y-37442D01*
X76550Y-37442D01*
X76550Y-37450D01*
X76557Y-37450D01*
X76557Y-37550D01*
X76550Y-37550D01*
X76550Y-38112D01*
X76662Y-38225D01*
X76685Y-38225D01*
X76864Y-38224D01*
X77030Y-38156D01*
X77156Y-38029D01*
X77200Y-37924D01*
X77200Y-38700D01*
X76450Y-38700D01*
X76450Y-38112D01*
X76450Y-37550D01*
X75887Y-37550D01*
X75775Y-37662D01*
X75774Y-37864D01*
X75843Y-38029D01*
X75969Y-38156D01*
X76135Y-38224D01*
X76314Y-38225D01*
X76337Y-38225D01*
X76450Y-38112D01*
X76450Y-38700D01*
X70942Y-38700D01*
X70797Y-38555D01*
X70664Y-38499D01*
X70797Y-38445D01*
X70942Y-38300D01*
X74698Y-38300D01*
X74758Y-38360D01*
X74915Y-38424D01*
X75084Y-38425D01*
X75240Y-38360D01*
X75360Y-38241D01*
X75424Y-38084D01*
X75425Y-37915D01*
X75360Y-37759D01*
X75241Y-37639D01*
X75084Y-37575D01*
X74915Y-37574D01*
X74759Y-37639D01*
X74698Y-37700D01*
X70942Y-37700D01*
X70797Y-37555D01*
X70664Y-37499D01*
X70797Y-37445D01*
X70944Y-37297D01*
X71024Y-37104D01*
X71025Y-36896D01*
X70945Y-36703D01*
X70797Y-36555D01*
X70604Y-36475D01*
X70396Y-36474D01*
X70203Y-36554D01*
X70055Y-36702D01*
X69975Y-36895D01*
X69974Y-37103D01*
X70054Y-37297D01*
X70202Y-37444D01*
X70335Y-37500D01*
X70203Y-37554D01*
X70055Y-37702D01*
X69975Y-37895D01*
X69974Y-38103D01*
X70054Y-38297D01*
X70202Y-38444D01*
X70335Y-38500D01*
X70203Y-38554D01*
X70055Y-38702D01*
X69975Y-38895D01*
X69974Y-39103D01*
X70054Y-39297D01*
X70202Y-39444D01*
X70335Y-39500D01*
X70203Y-39554D01*
X70055Y-39702D01*
X69975Y-39895D01*
X69974Y-40103D01*
X70054Y-40297D01*
X70202Y-40444D01*
X70335Y-40500D01*
X70203Y-40554D01*
X70055Y-40702D01*
X69975Y-40895D01*
X69974Y-41103D01*
X70054Y-41297D01*
X70202Y-41444D01*
X70335Y-41500D01*
X70203Y-41554D01*
X70055Y-41702D01*
X69975Y-41895D01*
X69974Y-42103D01*
X70054Y-42297D01*
X70202Y-42444D01*
X70335Y-42500D01*
X70203Y-42554D01*
X70055Y-42702D01*
X69975Y-42895D01*
X69974Y-43103D01*
X70054Y-43297D01*
X70202Y-43444D01*
X70335Y-43500D01*
X70203Y-43554D01*
X70055Y-43702D01*
X69975Y-43895D01*
X69974Y-44103D01*
X70054Y-44297D01*
X70202Y-44444D01*
X70335Y-44500D01*
X70203Y-44554D01*
X70055Y-44702D01*
X69975Y-44895D01*
X69974Y-45103D01*
X70054Y-45297D01*
X70124Y-45366D01*
X70106Y-45373D01*
X70093Y-45522D01*
X70500Y-45929D01*
X70906Y-45522D01*
X70893Y-45373D01*
X70875Y-45367D01*
X70944Y-45297D01*
X71024Y-45104D01*
X71025Y-44896D01*
X70945Y-44703D01*
X70797Y-44555D01*
X70664Y-44499D01*
X70797Y-44445D01*
X70944Y-44297D01*
X71024Y-44104D01*
X71025Y-43896D01*
X70945Y-43703D01*
X70797Y-43555D01*
X70664Y-43499D01*
X70797Y-43445D01*
X70942Y-43300D01*
X71500Y-43300D01*
X74000Y-43300D01*
X74000Y-43299D01*
X74114Y-43277D01*
X74114Y-43277D01*
X74212Y-43212D01*
X75124Y-42300D01*
X75500Y-42300D01*
X75875Y-42300D01*
X76354Y-42778D01*
X76335Y-42779D01*
X76106Y-42873D01*
X76093Y-43022D01*
X76500Y-43429D01*
X76505Y-43423D01*
X76576Y-43494D01*
X76570Y-43500D01*
X76977Y-43906D01*
X77126Y-43893D01*
X77200Y-43699D01*
X77200Y-46285D01*
X77126Y-46106D01*
X76977Y-46093D01*
X76906Y-46164D01*
X76906Y-46022D01*
X76906Y-43977D01*
X76500Y-43570D01*
X76429Y-43641D01*
X76429Y-43500D01*
X76022Y-43093D01*
X75873Y-43106D01*
X75867Y-43124D01*
X75797Y-43055D01*
X75604Y-42975D01*
X75396Y-42974D01*
X75203Y-43054D01*
X75055Y-43202D01*
X74975Y-43395D01*
X74974Y-43603D01*
X75054Y-43797D01*
X75202Y-43944D01*
X75395Y-44024D01*
X75603Y-44025D01*
X75797Y-43945D01*
X75866Y-43875D01*
X75873Y-43893D01*
X76022Y-43906D01*
X76429Y-43500D01*
X76429Y-43641D01*
X76093Y-43977D01*
X76106Y-44126D01*
X76376Y-44228D01*
X76664Y-44220D01*
X76893Y-44126D01*
X76906Y-43977D01*
X76906Y-46022D01*
X76893Y-45873D01*
X76623Y-45771D01*
X76335Y-45779D01*
X76106Y-45873D01*
X76093Y-46022D01*
X76500Y-46429D01*
X76906Y-46022D01*
X76906Y-46164D01*
X76570Y-46500D01*
X76977Y-46906D01*
X77126Y-46893D01*
X77200Y-46699D01*
X77200Y-59875D01*
X76906Y-60169D01*
X76906Y-46977D01*
X76500Y-46570D01*
X76429Y-46641D01*
X76429Y-46500D01*
X76022Y-46093D01*
X75873Y-46106D01*
X75867Y-46124D01*
X75797Y-46055D01*
X75604Y-45975D01*
X75396Y-45974D01*
X75203Y-46054D01*
X75055Y-46202D01*
X74975Y-46395D01*
X74974Y-46603D01*
X75054Y-46797D01*
X75202Y-46944D01*
X75395Y-47024D01*
X75603Y-47025D01*
X75797Y-46945D01*
X75866Y-46875D01*
X75873Y-46893D01*
X76022Y-46906D01*
X76429Y-46500D01*
X76429Y-46641D01*
X76093Y-46977D01*
X76106Y-47126D01*
X76376Y-47228D01*
X76664Y-47220D01*
X76893Y-47126D01*
X76906Y-46977D01*
X76906Y-60169D01*
X76275Y-60800D01*
X76275Y-47896D01*
X76195Y-47703D01*
X76047Y-47555D01*
X75854Y-47475D01*
X75646Y-47474D01*
X75453Y-47554D01*
X75305Y-47702D01*
X75225Y-47895D01*
X75224Y-48103D01*
X75304Y-48297D01*
X75452Y-48444D01*
X75645Y-48524D01*
X75853Y-48525D01*
X76047Y-48445D01*
X76194Y-48297D01*
X76274Y-48104D01*
X76275Y-47896D01*
X76275Y-60800D01*
X76228Y-60846D01*
X76228Y-50123D01*
X76220Y-49835D01*
X76126Y-49606D01*
X75977Y-49593D01*
X75906Y-49664D01*
X75906Y-49522D01*
X75893Y-49373D01*
X75623Y-49271D01*
X75335Y-49279D01*
X75106Y-49373D01*
X75093Y-49522D01*
X75500Y-49929D01*
X75906Y-49522D01*
X75906Y-49664D01*
X75570Y-50000D01*
X75977Y-50406D01*
X76126Y-50393D01*
X76228Y-50123D01*
X76228Y-60846D01*
X75906Y-61169D01*
X75906Y-50477D01*
X75500Y-50070D01*
X75429Y-50141D01*
X75429Y-50000D01*
X75022Y-49593D01*
X74873Y-49606D01*
X74867Y-49624D01*
X74797Y-49555D01*
X74604Y-49475D01*
X74396Y-49474D01*
X74203Y-49554D01*
X74055Y-49702D01*
X74025Y-49774D01*
X74025Y-45146D01*
X73945Y-44953D01*
X73797Y-44805D01*
X73604Y-44725D01*
X73396Y-44724D01*
X73203Y-44804D01*
X73055Y-44952D01*
X72975Y-45145D01*
X72974Y-45353D01*
X73054Y-45547D01*
X73202Y-45694D01*
X73395Y-45774D01*
X73603Y-45775D01*
X73797Y-45695D01*
X73944Y-45547D01*
X74024Y-45354D01*
X74025Y-45146D01*
X74025Y-49774D01*
X73975Y-49895D01*
X73974Y-50103D01*
X74054Y-50297D01*
X74202Y-50444D01*
X74395Y-50524D01*
X74603Y-50525D01*
X74797Y-50445D01*
X74866Y-50375D01*
X74873Y-50393D01*
X75022Y-50406D01*
X75429Y-50000D01*
X75429Y-50141D01*
X75093Y-50477D01*
X75106Y-50626D01*
X75376Y-50728D01*
X75664Y-50720D01*
X75893Y-50626D01*
X75906Y-50477D01*
X75906Y-61169D01*
X75728Y-61346D01*
X75728Y-54623D01*
X75728Y-51623D01*
X75720Y-51335D01*
X75626Y-51106D01*
X75477Y-51093D01*
X75406Y-51164D01*
X75406Y-51022D01*
X75393Y-50873D01*
X75123Y-50771D01*
X74835Y-50779D01*
X74606Y-50873D01*
X74593Y-51022D01*
X75000Y-51429D01*
X75406Y-51022D01*
X75406Y-51164D01*
X75070Y-51500D01*
X75477Y-51906D01*
X75626Y-51893D01*
X75728Y-51623D01*
X75728Y-54623D01*
X75720Y-54335D01*
X75626Y-54106D01*
X75477Y-54093D01*
X75406Y-54164D01*
X75406Y-54022D01*
X75406Y-51977D01*
X75000Y-51570D01*
X74929Y-51641D01*
X74929Y-51500D01*
X74522Y-51093D01*
X74373Y-51106D01*
X74271Y-51376D01*
X74279Y-51664D01*
X74373Y-51893D01*
X74522Y-51906D01*
X74929Y-51500D01*
X74929Y-51641D01*
X74593Y-51977D01*
X74606Y-52126D01*
X74876Y-52228D01*
X75164Y-52220D01*
X75393Y-52126D01*
X75406Y-51977D01*
X75406Y-54022D01*
X75393Y-53873D01*
X75123Y-53771D01*
X74835Y-53779D01*
X74606Y-53873D01*
X74593Y-54022D01*
X75000Y-54429D01*
X75406Y-54022D01*
X75406Y-54164D01*
X75070Y-54500D01*
X75477Y-54906D01*
X75626Y-54893D01*
X75728Y-54623D01*
X75728Y-61346D01*
X75406Y-61669D01*
X75406Y-54977D01*
X75000Y-54570D01*
X74929Y-54641D01*
X74929Y-54500D01*
X74522Y-54093D01*
X74373Y-54106D01*
X74271Y-54376D01*
X74279Y-54664D01*
X74373Y-54893D01*
X74522Y-54906D01*
X74929Y-54500D01*
X74929Y-54641D01*
X74593Y-54977D01*
X74606Y-55126D01*
X74876Y-55228D01*
X75164Y-55220D01*
X75393Y-55126D01*
X75406Y-54977D01*
X75406Y-61669D01*
X75375Y-61700D01*
X75253Y-61700D01*
X75253Y-61129D01*
X75245Y-60831D01*
X75146Y-60591D01*
X74995Y-60575D01*
X74570Y-61000D01*
X74995Y-61424D01*
X75146Y-61408D01*
X75253Y-61129D01*
X75253Y-61700D01*
X74779Y-61700D01*
X74908Y-61646D01*
X74924Y-61495D01*
X74500Y-61070D01*
X74429Y-61141D01*
X74429Y-61000D01*
X74235Y-60806D01*
X74146Y-60591D01*
X74006Y-60576D01*
X74004Y-60575D01*
X73999Y-60576D01*
X73995Y-60575D01*
X73993Y-60576D01*
X73853Y-60591D01*
X73775Y-60795D01*
X73570Y-61000D01*
X73764Y-61193D01*
X73853Y-61408D01*
X73993Y-61423D01*
X73995Y-61424D01*
X74000Y-61423D01*
X74004Y-61424D01*
X74006Y-61423D01*
X74146Y-61408D01*
X74224Y-61204D01*
X74429Y-61000D01*
X74429Y-61141D01*
X74075Y-61495D01*
X74091Y-61646D01*
X74230Y-61700D01*
X73779Y-61700D01*
X73908Y-61646D01*
X73924Y-61495D01*
X73500Y-61070D01*
X73494Y-61076D01*
X73423Y-61005D01*
X73429Y-61000D01*
X73029Y-60599D01*
X73012Y-60558D01*
X72941Y-60488D01*
X72849Y-60450D01*
X72827Y-60450D01*
X72965Y-60311D01*
X72999Y-60230D01*
X73033Y-60311D01*
X73090Y-60368D01*
X73075Y-60504D01*
X73500Y-60929D01*
X73924Y-60504D01*
X73909Y-60368D01*
X73965Y-60311D01*
X73999Y-60230D01*
X74033Y-60311D01*
X74090Y-60368D01*
X74075Y-60504D01*
X74500Y-60929D01*
X74924Y-60504D01*
X74909Y-60368D01*
X74965Y-60311D01*
X75049Y-60109D01*
X75050Y-59891D01*
X74966Y-59688D01*
X74811Y-59534D01*
X74609Y-59450D01*
X74391Y-59449D01*
X74188Y-59533D01*
X74034Y-59688D01*
X74000Y-59769D01*
X73966Y-59688D01*
X73811Y-59534D01*
X73800Y-59529D01*
X73800Y-56000D01*
X73799Y-55999D01*
X73777Y-55885D01*
X73712Y-55787D01*
X73712Y-55787D01*
X72949Y-55024D01*
X73103Y-55025D01*
X73297Y-54945D01*
X73444Y-54797D01*
X73524Y-54604D01*
X73525Y-54396D01*
X73525Y-51396D01*
X73445Y-51203D01*
X73297Y-51055D01*
X73104Y-50975D01*
X72896Y-50974D01*
X72775Y-51024D01*
X72775Y-47896D01*
X72695Y-47703D01*
X72547Y-47555D01*
X72354Y-47475D01*
X72146Y-47474D01*
X71953Y-47554D01*
X71805Y-47702D01*
X71725Y-47895D01*
X71724Y-48103D01*
X71804Y-48297D01*
X71952Y-48444D01*
X72145Y-48524D01*
X72353Y-48525D01*
X72547Y-48445D01*
X72694Y-48297D01*
X72774Y-48104D01*
X72775Y-47896D01*
X72775Y-51024D01*
X72703Y-51054D01*
X72555Y-51202D01*
X72475Y-51395D01*
X72474Y-51603D01*
X72554Y-51797D01*
X72702Y-51944D01*
X72895Y-52024D01*
X73103Y-52025D01*
X73297Y-51945D01*
X73444Y-51797D01*
X73524Y-51604D01*
X73525Y-51396D01*
X73525Y-54396D01*
X73445Y-54203D01*
X73297Y-54055D01*
X73104Y-53975D01*
X72896Y-53974D01*
X72703Y-54054D01*
X72555Y-54202D01*
X72475Y-54395D01*
X72474Y-54550D01*
X71924Y-54000D01*
X71925Y-53915D01*
X71860Y-53759D01*
X71741Y-53639D01*
X71584Y-53575D01*
X71415Y-53574D01*
X71259Y-53639D01*
X71228Y-53670D01*
X71228Y-46123D01*
X71220Y-45835D01*
X71126Y-45606D01*
X70977Y-45593D01*
X70570Y-46000D01*
X70977Y-46406D01*
X71126Y-46393D01*
X71228Y-46123D01*
X71228Y-53670D01*
X71139Y-53758D01*
X71075Y-53915D01*
X71074Y-54084D01*
X71139Y-54240D01*
X71258Y-54360D01*
X71415Y-54424D01*
X71500Y-54425D01*
X73200Y-56124D01*
X73200Y-59528D01*
X73188Y-59533D01*
X73034Y-59688D01*
X73000Y-59769D01*
X72966Y-59688D01*
X72811Y-59534D01*
X72609Y-59450D01*
X72391Y-59449D01*
X72188Y-59533D01*
X72034Y-59688D01*
X71950Y-59890D01*
X71949Y-60108D01*
X72033Y-60311D01*
X72172Y-60449D01*
X72150Y-60449D01*
X72058Y-60487D01*
X71988Y-60558D01*
X71950Y-60650D01*
X71949Y-60749D01*
X71949Y-61125D01*
X70375Y-62700D01*
X69580Y-62700D01*
X70275Y-62412D01*
X70910Y-61779D01*
X71254Y-60950D01*
X71255Y-60053D01*
X70912Y-59224D01*
X70279Y-58589D01*
X69450Y-58245D01*
X68553Y-58244D01*
X67724Y-58587D01*
X67089Y-59220D01*
X67080Y-59243D01*
X67080Y-58385D01*
X66991Y-58171D01*
X66828Y-58008D01*
X66808Y-58000D01*
X66828Y-57991D01*
X66991Y-57828D01*
X67079Y-57615D01*
X67080Y-57385D01*
X67025Y-57252D01*
X67025Y-56146D01*
X66945Y-55953D01*
X66797Y-55805D01*
X66604Y-55725D01*
X66396Y-55724D01*
X66203Y-55804D01*
X66055Y-55952D01*
X65975Y-56145D01*
X65974Y-56353D01*
X66054Y-56547D01*
X66202Y-56694D01*
X66395Y-56774D01*
X66603Y-56775D01*
X66797Y-56695D01*
X66944Y-56547D01*
X67024Y-56354D01*
X67025Y-56146D01*
X67025Y-57252D01*
X66991Y-57171D01*
X66828Y-57008D01*
X66615Y-56920D01*
X66385Y-56919D01*
X66171Y-57008D01*
X66008Y-57171D01*
X65920Y-57384D01*
X65919Y-57614D01*
X66008Y-57828D01*
X66171Y-57991D01*
X66191Y-57999D01*
X66171Y-58008D01*
X66008Y-58171D01*
X65920Y-58384D01*
X65919Y-58614D01*
X66008Y-58828D01*
X66171Y-58991D01*
X66384Y-59079D01*
X66614Y-59080D01*
X66828Y-58991D01*
X66991Y-58828D01*
X67079Y-58615D01*
X67080Y-58385D01*
X67080Y-59243D01*
X66745Y-60049D01*
X66744Y-60946D01*
X67087Y-61775D01*
X67720Y-62410D01*
X68417Y-62700D01*
X64580Y-62700D01*
X64580Y-58385D01*
X64491Y-58171D01*
X64328Y-58008D01*
X64308Y-58000D01*
X64328Y-57991D01*
X64491Y-57828D01*
X64579Y-57615D01*
X64580Y-57385D01*
X64525Y-57252D01*
X64525Y-56146D01*
X64445Y-55953D01*
X64297Y-55805D01*
X64104Y-55725D01*
X63896Y-55724D01*
X63703Y-55804D01*
X63555Y-55952D01*
X63475Y-56145D01*
X63474Y-56353D01*
X63554Y-56547D01*
X63702Y-56694D01*
X63895Y-56774D01*
X64103Y-56775D01*
X64297Y-56695D01*
X64444Y-56547D01*
X64524Y-56354D01*
X64525Y-56146D01*
X64525Y-57252D01*
X64491Y-57171D01*
X64328Y-57008D01*
X64115Y-56920D01*
X63885Y-56919D01*
X63671Y-57008D01*
X63508Y-57171D01*
X63420Y-57384D01*
X63419Y-57614D01*
X63508Y-57828D01*
X63671Y-57991D01*
X63691Y-57999D01*
X63671Y-58008D01*
X63508Y-58171D01*
X63420Y-58384D01*
X63419Y-58614D01*
X63508Y-58828D01*
X63671Y-58991D01*
X63884Y-59079D01*
X64114Y-59080D01*
X64328Y-58991D01*
X64491Y-58828D01*
X64579Y-58615D01*
X64580Y-58385D01*
X64580Y-62700D01*
X62925Y-62700D01*
X62925Y-60415D01*
X62860Y-60259D01*
X62800Y-60198D01*
X62800Y-58301D01*
X62860Y-58241D01*
X62924Y-58084D01*
X62925Y-57915D01*
X62860Y-57759D01*
X62741Y-57639D01*
X62584Y-57575D01*
X62415Y-57574D01*
X62259Y-57639D01*
X62139Y-57758D01*
X62075Y-57915D01*
X62074Y-58084D01*
X62139Y-58240D01*
X62200Y-58301D01*
X62200Y-60198D01*
X62139Y-60258D01*
X62075Y-60415D01*
X62074Y-60584D01*
X62139Y-60740D01*
X62258Y-60860D01*
X62415Y-60924D01*
X62584Y-60925D01*
X62740Y-60860D01*
X62860Y-60741D01*
X62924Y-60584D01*
X62925Y-60415D01*
X62925Y-62700D01*
X61728Y-62700D01*
X61728Y-59623D01*
X61720Y-59335D01*
X61626Y-59106D01*
X61477Y-59093D01*
X61406Y-59164D01*
X61406Y-59022D01*
X61393Y-58873D01*
X61123Y-58771D01*
X60835Y-58779D01*
X60606Y-58873D01*
X60593Y-59022D01*
X61000Y-59429D01*
X61406Y-59022D01*
X61406Y-59164D01*
X61070Y-59500D01*
X61477Y-59906D01*
X61626Y-59893D01*
X61728Y-59623D01*
X61728Y-62700D01*
X61525Y-62700D01*
X61525Y-60396D01*
X61445Y-60203D01*
X61375Y-60133D01*
X61393Y-60126D01*
X61406Y-59977D01*
X61000Y-59570D01*
X60929Y-59641D01*
X60929Y-59500D01*
X60522Y-59093D01*
X60373Y-59106D01*
X60271Y-59376D01*
X60279Y-59664D01*
X60373Y-59893D01*
X60522Y-59906D01*
X60929Y-59500D01*
X60929Y-59641D01*
X60593Y-59977D01*
X60606Y-60126D01*
X60624Y-60132D01*
X60555Y-60202D01*
X60475Y-60395D01*
X60474Y-60603D01*
X60554Y-60797D01*
X60702Y-60944D01*
X60895Y-61024D01*
X61103Y-61025D01*
X61297Y-60945D01*
X61444Y-60797D01*
X61524Y-60604D01*
X61525Y-60396D01*
X61525Y-62700D01*
X59525Y-62700D01*
X59525Y-61146D01*
X59445Y-60953D01*
X59297Y-60805D01*
X59104Y-60725D01*
X58896Y-60724D01*
X58703Y-60804D01*
X58555Y-60952D01*
X58475Y-61145D01*
X58474Y-61353D01*
X58554Y-61547D01*
X58702Y-61694D01*
X58895Y-61774D01*
X59103Y-61775D01*
X59297Y-61695D01*
X59444Y-61547D01*
X59524Y-61354D01*
X59525Y-61146D01*
X59525Y-62700D01*
X57525Y-62700D01*
X57525Y-61146D01*
X57445Y-60953D01*
X57297Y-60805D01*
X57104Y-60725D01*
X56896Y-60724D01*
X56703Y-60804D01*
X56555Y-60952D01*
X56475Y-61145D01*
X56474Y-61353D01*
X56554Y-61547D01*
X56702Y-61694D01*
X56895Y-61774D01*
X57103Y-61775D01*
X57297Y-61695D01*
X57444Y-61547D01*
X57524Y-61354D01*
X57525Y-61146D01*
X57525Y-62700D01*
X55525Y-62700D01*
X55525Y-61146D01*
X55445Y-60953D01*
X55297Y-60805D01*
X55104Y-60725D01*
X54896Y-60724D01*
X54703Y-60804D01*
X54555Y-60952D01*
X54475Y-61145D01*
X54474Y-61353D01*
X54554Y-61547D01*
X54702Y-61694D01*
X54895Y-61774D01*
X55103Y-61775D01*
X55297Y-61695D01*
X55444Y-61547D01*
X55524Y-61354D01*
X55525Y-61146D01*
X55525Y-62700D01*
X53525Y-62700D01*
X53525Y-61146D01*
X53445Y-60953D01*
X53297Y-60805D01*
X53104Y-60725D01*
X52896Y-60724D01*
X52703Y-60804D01*
X52555Y-60952D01*
X52475Y-61145D01*
X52474Y-61353D01*
X52554Y-61547D01*
X52702Y-61694D01*
X52895Y-61774D01*
X53103Y-61775D01*
X53297Y-61695D01*
X53444Y-61547D01*
X53524Y-61354D01*
X53525Y-61146D01*
X53525Y-62700D01*
X44080Y-62700D01*
X44775Y-62412D01*
X45410Y-61779D01*
X45754Y-60950D01*
X45755Y-60053D01*
X45412Y-59224D01*
X44779Y-58589D01*
X44082Y-58300D01*
X51375Y-58300D01*
X52275Y-59200D01*
X50301Y-59200D01*
X50241Y-59139D01*
X50084Y-59075D01*
X49915Y-59074D01*
X49759Y-59139D01*
X49639Y-59258D01*
X49575Y-59415D01*
X49574Y-59584D01*
X49639Y-59740D01*
X49758Y-59860D01*
X49915Y-59924D01*
X50084Y-59925D01*
X50240Y-59860D01*
X50301Y-59800D01*
X59000Y-59800D01*
X59000Y-59799D01*
X59114Y-59777D01*
X59114Y-59777D01*
X59212Y-59712D01*
X60999Y-57924D01*
X61084Y-57925D01*
X61240Y-57860D01*
X61360Y-57741D01*
X61424Y-57584D01*
X61425Y-57415D01*
X61360Y-57259D01*
X61241Y-57139D01*
X61084Y-57075D01*
X60915Y-57074D01*
X60800Y-57122D01*
X60800Y-56124D01*
X61624Y-55300D01*
X67500Y-55300D01*
X67500Y-55299D01*
X67614Y-55277D01*
X67614Y-55277D01*
X67712Y-55212D01*
X70712Y-52212D01*
X70712Y-52212D01*
X70777Y-52114D01*
X70799Y-52000D01*
X70800Y-52000D01*
X70800Y-50525D01*
X70824Y-50525D01*
X70916Y-50487D01*
X70986Y-50416D01*
X71024Y-50324D01*
X71025Y-50225D01*
X71025Y-49675D01*
X70987Y-49583D01*
X70916Y-49513D01*
X70824Y-49475D01*
X70725Y-49474D01*
X70725Y-49474D01*
X70797Y-49445D01*
X70944Y-49297D01*
X71024Y-49104D01*
X71025Y-48896D01*
X70945Y-48703D01*
X70797Y-48555D01*
X70664Y-48499D01*
X70797Y-48445D01*
X70944Y-48297D01*
X71024Y-48104D01*
X71025Y-47896D01*
X70945Y-47703D01*
X70797Y-47555D01*
X70664Y-47499D01*
X70797Y-47445D01*
X70944Y-47297D01*
X71024Y-47104D01*
X71025Y-46896D01*
X70945Y-46703D01*
X70875Y-46633D01*
X70893Y-46626D01*
X70906Y-46477D01*
X70500Y-46070D01*
X70093Y-46477D01*
X70106Y-46626D01*
X70124Y-46632D01*
X70055Y-46702D01*
X69975Y-46895D01*
X69974Y-47103D01*
X70054Y-47297D01*
X70202Y-47444D01*
X70335Y-47500D01*
X70203Y-47554D01*
X70055Y-47702D01*
X69975Y-47895D01*
X69974Y-48103D01*
X70054Y-48297D01*
X70202Y-48444D01*
X70335Y-48500D01*
X70203Y-48554D01*
X70055Y-48702D01*
X69975Y-48895D01*
X69974Y-49103D01*
X70054Y-49297D01*
X70202Y-49444D01*
X70274Y-49474D01*
X70175Y-49474D01*
X70083Y-49512D01*
X70013Y-49583D01*
X69975Y-49675D01*
X69974Y-49774D01*
X69974Y-50324D01*
X70012Y-50416D01*
X70083Y-50486D01*
X70175Y-50524D01*
X70200Y-50524D01*
X70200Y-51875D01*
X67375Y-54700D01*
X67025Y-54700D01*
X67025Y-52646D01*
X66945Y-52453D01*
X66797Y-52305D01*
X66604Y-52225D01*
X66396Y-52224D01*
X66203Y-52304D01*
X66057Y-52450D01*
X64442Y-52450D01*
X64297Y-52305D01*
X64104Y-52225D01*
X63899Y-52224D01*
X61212Y-49537D01*
X61114Y-49472D01*
X61000Y-49450D01*
X59442Y-49450D01*
X59297Y-49305D01*
X59104Y-49225D01*
X58896Y-49224D01*
X58703Y-49304D01*
X58555Y-49452D01*
X58475Y-49645D01*
X58474Y-49853D01*
X58554Y-50047D01*
X58702Y-50194D01*
X58895Y-50274D01*
X59103Y-50275D01*
X59297Y-50195D01*
X59442Y-50050D01*
X60875Y-50050D01*
X63475Y-52649D01*
X63474Y-52853D01*
X63554Y-53047D01*
X63702Y-53194D01*
X63895Y-53274D01*
X64103Y-53275D01*
X64297Y-53195D01*
X64442Y-53050D01*
X66057Y-53050D01*
X66202Y-53194D01*
X66395Y-53274D01*
X66603Y-53275D01*
X66797Y-53195D01*
X66944Y-53047D01*
X67024Y-52854D01*
X67025Y-52646D01*
X67025Y-54700D01*
X62925Y-54700D01*
X62925Y-53915D01*
X62860Y-53759D01*
X62741Y-53639D01*
X62584Y-53575D01*
X62499Y-53574D01*
X60962Y-52037D01*
X60864Y-51972D01*
X60750Y-51950D01*
X59442Y-51950D01*
X59297Y-51805D01*
X59180Y-51756D01*
X58300Y-50875D01*
X58300Y-49624D01*
X59212Y-48712D01*
X59212Y-48712D01*
X59277Y-48614D01*
X59299Y-48500D01*
X59300Y-48500D01*
X59300Y-46692D01*
X59444Y-46547D01*
X59524Y-46354D01*
X59525Y-46146D01*
X59445Y-45953D01*
X59297Y-45805D01*
X59104Y-45725D01*
X58896Y-45724D01*
X58703Y-45804D01*
X58555Y-45952D01*
X58475Y-46145D01*
X58474Y-46353D01*
X58554Y-46547D01*
X58700Y-46692D01*
X58700Y-48375D01*
X57787Y-49287D01*
X57722Y-49385D01*
X57700Y-49500D01*
X57700Y-51000D01*
X57722Y-51114D01*
X57787Y-51212D01*
X58547Y-51971D01*
X58475Y-52145D01*
X58474Y-52353D01*
X58554Y-52547D01*
X58702Y-52694D01*
X58895Y-52774D01*
X59103Y-52775D01*
X59297Y-52695D01*
X59442Y-52550D01*
X60625Y-52550D01*
X62075Y-53999D01*
X62074Y-54084D01*
X62139Y-54240D01*
X62258Y-54360D01*
X62415Y-54424D01*
X62584Y-54425D01*
X62740Y-54360D01*
X62860Y-54241D01*
X62924Y-54084D01*
X62925Y-53915D01*
X62925Y-54700D01*
X61500Y-54700D01*
X61385Y-54722D01*
X61287Y-54787D01*
X60287Y-55787D01*
X60222Y-55885D01*
X60200Y-56000D01*
X60200Y-57375D01*
X59525Y-58050D01*
X59525Y-57646D01*
X59445Y-57453D01*
X59297Y-57305D01*
X59104Y-57225D01*
X58896Y-57224D01*
X58703Y-57304D01*
X58555Y-57452D01*
X58475Y-57645D01*
X58474Y-57853D01*
X58554Y-58047D01*
X58702Y-58194D01*
X58895Y-58274D01*
X59103Y-58275D01*
X59297Y-58195D01*
X59444Y-58047D01*
X59524Y-57854D01*
X59525Y-57646D01*
X59525Y-58050D01*
X58875Y-58700D01*
X57525Y-58700D01*
X57525Y-57646D01*
X57525Y-55646D01*
X57445Y-55453D01*
X57297Y-55305D01*
X57104Y-55225D01*
X56896Y-55224D01*
X56703Y-55304D01*
X56555Y-55452D01*
X56475Y-55645D01*
X56474Y-55853D01*
X56554Y-56047D01*
X56702Y-56194D01*
X56895Y-56274D01*
X57103Y-56275D01*
X57297Y-56195D01*
X57444Y-56047D01*
X57524Y-55854D01*
X57525Y-55646D01*
X57525Y-57646D01*
X57445Y-57453D01*
X57297Y-57305D01*
X57104Y-57225D01*
X56896Y-57224D01*
X56703Y-57304D01*
X56555Y-57452D01*
X56475Y-57645D01*
X56474Y-57853D01*
X56554Y-58047D01*
X56702Y-58194D01*
X56895Y-58274D01*
X57103Y-58275D01*
X57297Y-58195D01*
X57444Y-58047D01*
X57524Y-57854D01*
X57525Y-57646D01*
X57525Y-58700D01*
X55525Y-58700D01*
X55525Y-57646D01*
X55525Y-55646D01*
X55445Y-55453D01*
X55297Y-55305D01*
X55104Y-55225D01*
X54896Y-55224D01*
X54703Y-55304D01*
X54555Y-55452D01*
X54475Y-55645D01*
X54474Y-55853D01*
X54547Y-56028D01*
X54375Y-56200D01*
X53285Y-56200D01*
X53297Y-56195D01*
X53444Y-56047D01*
X53524Y-55854D01*
X53525Y-55646D01*
X53445Y-55453D01*
X53297Y-55305D01*
X53104Y-55225D01*
X52896Y-55224D01*
X52703Y-55304D01*
X52555Y-55452D01*
X52475Y-55645D01*
X52474Y-55853D01*
X52554Y-56047D01*
X52582Y-56075D01*
X52415Y-56074D01*
X52259Y-56139D01*
X52139Y-56258D01*
X52075Y-56415D01*
X52074Y-56584D01*
X52139Y-56740D01*
X52258Y-56860D01*
X52415Y-56924D01*
X52584Y-56925D01*
X52740Y-56860D01*
X52801Y-56800D01*
X54500Y-56800D01*
X54500Y-56799D01*
X54614Y-56777D01*
X54614Y-56777D01*
X54712Y-56712D01*
X55181Y-56243D01*
X55297Y-56195D01*
X55444Y-56047D01*
X55524Y-55854D01*
X55525Y-55646D01*
X55525Y-57646D01*
X55445Y-57453D01*
X55297Y-57305D01*
X55104Y-57225D01*
X54896Y-57224D01*
X54703Y-57304D01*
X54555Y-57452D01*
X54475Y-57645D01*
X54474Y-57853D01*
X54554Y-58047D01*
X54702Y-58194D01*
X54895Y-58274D01*
X55103Y-58275D01*
X55297Y-58195D01*
X55444Y-58047D01*
X55524Y-57854D01*
X55525Y-57646D01*
X55525Y-58700D01*
X53525Y-58700D01*
X53525Y-57646D01*
X53445Y-57453D01*
X53297Y-57305D01*
X53104Y-57225D01*
X52896Y-57224D01*
X52703Y-57304D01*
X52555Y-57452D01*
X52475Y-57645D01*
X52474Y-57853D01*
X52554Y-58047D01*
X52702Y-58194D01*
X52895Y-58274D01*
X53103Y-58275D01*
X53297Y-58195D01*
X53444Y-58047D01*
X53524Y-57854D01*
X53525Y-57646D01*
X53525Y-58700D01*
X52624Y-58700D01*
X51712Y-57787D01*
X51614Y-57722D01*
X51500Y-57700D01*
X48728Y-57700D01*
X48728Y-52873D01*
X48720Y-52585D01*
X48626Y-52356D01*
X48477Y-52343D01*
X48406Y-52414D01*
X48406Y-52272D01*
X48393Y-52123D01*
X48123Y-52021D01*
X47835Y-52029D01*
X47606Y-52123D01*
X47593Y-52272D01*
X48000Y-52679D01*
X48406Y-52272D01*
X48406Y-52414D01*
X48070Y-52750D01*
X48477Y-53156D01*
X48626Y-53143D01*
X48728Y-52873D01*
X48728Y-57700D01*
X48525Y-57700D01*
X48525Y-56146D01*
X48445Y-55953D01*
X48406Y-55913D01*
X48406Y-53227D01*
X48000Y-52820D01*
X47929Y-52891D01*
X47929Y-52750D01*
X47522Y-52343D01*
X47373Y-52356D01*
X47271Y-52626D01*
X47279Y-52914D01*
X47373Y-53143D01*
X47522Y-53156D01*
X47929Y-52750D01*
X47929Y-52891D01*
X47593Y-53227D01*
X47606Y-53376D01*
X47876Y-53478D01*
X48164Y-53470D01*
X48393Y-53376D01*
X48406Y-53227D01*
X48406Y-55913D01*
X48297Y-55805D01*
X48104Y-55725D01*
X47896Y-55724D01*
X47703Y-55804D01*
X47555Y-55952D01*
X47475Y-56145D01*
X47474Y-56353D01*
X47554Y-56547D01*
X47702Y-56694D01*
X47895Y-56774D01*
X48103Y-56775D01*
X48297Y-56695D01*
X48444Y-56547D01*
X48524Y-56354D01*
X48525Y-56146D01*
X48525Y-57700D01*
X45025Y-57700D01*
X45025Y-56146D01*
X44945Y-55953D01*
X44797Y-55805D01*
X44604Y-55725D01*
X44396Y-55724D01*
X44203Y-55804D01*
X44055Y-55952D01*
X43975Y-56145D01*
X43974Y-56353D01*
X44054Y-56547D01*
X44202Y-56694D01*
X44395Y-56774D01*
X44603Y-56775D01*
X44797Y-56695D01*
X44944Y-56547D01*
X45024Y-56354D01*
X45025Y-56146D01*
X45025Y-57700D01*
X43525Y-57700D01*
X43525Y-56146D01*
X43445Y-55953D01*
X43297Y-55805D01*
X43104Y-55725D01*
X42896Y-55724D01*
X42703Y-55804D01*
X42555Y-55952D01*
X42475Y-56145D01*
X42474Y-56353D01*
X42554Y-56547D01*
X42702Y-56694D01*
X42895Y-56774D01*
X43103Y-56775D01*
X43297Y-56695D01*
X43444Y-56547D01*
X43524Y-56354D01*
X43525Y-56146D01*
X43525Y-57700D01*
X42025Y-57700D01*
X42025Y-56146D01*
X41945Y-55953D01*
X41797Y-55805D01*
X41604Y-55725D01*
X41396Y-55724D01*
X41203Y-55804D01*
X41055Y-55952D01*
X40975Y-56145D01*
X40974Y-56353D01*
X41054Y-56547D01*
X41202Y-56694D01*
X41395Y-56774D01*
X41603Y-56775D01*
X41797Y-56695D01*
X41944Y-56547D01*
X42024Y-56354D01*
X42025Y-56146D01*
X42025Y-57700D01*
X40525Y-57700D01*
X40525Y-56146D01*
X40525Y-52646D01*
X40445Y-52453D01*
X40297Y-52305D01*
X40104Y-52225D01*
X39896Y-52224D01*
X39703Y-52304D01*
X39555Y-52452D01*
X39475Y-52645D01*
X39474Y-52853D01*
X39554Y-53047D01*
X39702Y-53194D01*
X39895Y-53274D01*
X40103Y-53275D01*
X40297Y-53195D01*
X40444Y-53047D01*
X40524Y-52854D01*
X40525Y-52646D01*
X40525Y-56146D01*
X40445Y-55953D01*
X40297Y-55805D01*
X40104Y-55725D01*
X39896Y-55724D01*
X39703Y-55804D01*
X39555Y-55952D01*
X39475Y-56145D01*
X39474Y-56353D01*
X39554Y-56547D01*
X39702Y-56694D01*
X39895Y-56774D01*
X40103Y-56775D01*
X40297Y-56695D01*
X40444Y-56547D01*
X40524Y-56354D01*
X40525Y-56146D01*
X40525Y-57700D01*
X39192Y-57700D01*
X39047Y-57555D01*
X39025Y-57545D01*
X39025Y-56146D01*
X39025Y-52646D01*
X38945Y-52453D01*
X38797Y-52305D01*
X38604Y-52225D01*
X38396Y-52224D01*
X38203Y-52304D01*
X38055Y-52452D01*
X37975Y-52645D01*
X37974Y-52853D01*
X38054Y-53047D01*
X38202Y-53194D01*
X38395Y-53274D01*
X38603Y-53275D01*
X38797Y-53195D01*
X38944Y-53047D01*
X39024Y-52854D01*
X39025Y-52646D01*
X39025Y-56146D01*
X38945Y-55953D01*
X38797Y-55805D01*
X38604Y-55725D01*
X38396Y-55724D01*
X38203Y-55804D01*
X38055Y-55952D01*
X37975Y-56145D01*
X37974Y-56353D01*
X38054Y-56547D01*
X38202Y-56694D01*
X38395Y-56774D01*
X38603Y-56775D01*
X38797Y-56695D01*
X38944Y-56547D01*
X39024Y-56354D01*
X39025Y-56146D01*
X39025Y-57545D01*
X38854Y-57475D01*
X38646Y-57474D01*
X38453Y-57554D01*
X38305Y-57702D01*
X38225Y-57895D01*
X38224Y-58103D01*
X38304Y-58297D01*
X38452Y-58444D01*
X38645Y-58524D01*
X38853Y-58525D01*
X39047Y-58445D01*
X39192Y-58300D01*
X42919Y-58300D01*
X42224Y-58587D01*
X41589Y-59220D01*
X41245Y-60049D01*
X41244Y-60946D01*
X41587Y-61775D01*
X42220Y-62410D01*
X42917Y-62700D01*
X41624Y-62700D01*
X40800Y-61875D01*
X40800Y-60000D01*
X40777Y-59885D01*
X40712Y-59787D01*
X40712Y-59787D01*
X39712Y-58787D01*
X39614Y-58722D01*
X39500Y-58700D01*
X37525Y-58700D01*
X37525Y-56146D01*
X37525Y-52646D01*
X37445Y-52453D01*
X37297Y-52305D01*
X37104Y-52225D01*
X36896Y-52224D01*
X36703Y-52304D01*
X36555Y-52452D01*
X36475Y-52645D01*
X36474Y-52853D01*
X36554Y-53047D01*
X36702Y-53194D01*
X36895Y-53274D01*
X37103Y-53275D01*
X37297Y-53195D01*
X37444Y-53047D01*
X37524Y-52854D01*
X37525Y-52646D01*
X37525Y-56146D01*
X37445Y-55953D01*
X37297Y-55805D01*
X37104Y-55725D01*
X36896Y-55724D01*
X36703Y-55804D01*
X36555Y-55952D01*
X36475Y-56145D01*
X36474Y-56353D01*
X36554Y-56547D01*
X36702Y-56694D01*
X36895Y-56774D01*
X37103Y-56775D01*
X37297Y-56695D01*
X37444Y-56547D01*
X37524Y-56354D01*
X37525Y-56146D01*
X37525Y-58700D01*
X36124Y-58700D01*
X36025Y-58600D01*
X36025Y-56146D01*
X35945Y-55953D01*
X35797Y-55805D01*
X35604Y-55725D01*
X35396Y-55724D01*
X35203Y-55804D01*
X35055Y-55952D01*
X34975Y-56145D01*
X34974Y-56353D01*
X35054Y-56547D01*
X35202Y-56694D01*
X35395Y-56774D01*
X35603Y-56775D01*
X35797Y-56695D01*
X35944Y-56547D01*
X36024Y-56354D01*
X36025Y-56146D01*
X36025Y-58600D01*
X35702Y-58278D01*
X35774Y-58104D01*
X35775Y-57896D01*
X35695Y-57703D01*
X35547Y-57555D01*
X35354Y-57475D01*
X35146Y-57474D01*
X34953Y-57554D01*
X34906Y-57601D01*
X34906Y-47477D01*
X34500Y-47070D01*
X34429Y-47141D01*
X34429Y-47000D01*
X34022Y-46593D01*
X33873Y-46606D01*
X33771Y-46876D01*
X33779Y-47164D01*
X33873Y-47393D01*
X34022Y-47406D01*
X34429Y-47000D01*
X34429Y-47141D01*
X34093Y-47477D01*
X34106Y-47626D01*
X34376Y-47728D01*
X34664Y-47720D01*
X34893Y-47626D01*
X34906Y-47477D01*
X34906Y-57601D01*
X34805Y-57702D01*
X34725Y-57895D01*
X34724Y-58103D01*
X34804Y-58297D01*
X34952Y-58444D01*
X35069Y-58493D01*
X35787Y-59212D01*
X35787Y-59212D01*
X35885Y-59277D01*
X35999Y-59299D01*
X36000Y-59300D01*
X39375Y-59300D01*
X40200Y-60124D01*
X40200Y-62000D01*
X40222Y-62114D01*
X40287Y-62212D01*
X41287Y-63212D01*
X41287Y-63212D01*
X41315Y-63230D01*
X39228Y-63230D01*
X39228Y-62123D01*
X39220Y-61835D01*
X39126Y-61606D01*
X39025Y-61597D01*
X39025Y-59896D01*
X38945Y-59703D01*
X38797Y-59555D01*
X38604Y-59475D01*
X38396Y-59474D01*
X38203Y-59554D01*
X38055Y-59702D01*
X37975Y-59895D01*
X37974Y-60103D01*
X38054Y-60297D01*
X38202Y-60444D01*
X38395Y-60524D01*
X38603Y-60525D01*
X38797Y-60445D01*
X38944Y-60297D01*
X39024Y-60104D01*
X39025Y-59896D01*
X39025Y-61597D01*
X38977Y-61593D01*
X38906Y-61664D01*
X38906Y-61522D01*
X38893Y-61373D01*
X38623Y-61271D01*
X38335Y-61279D01*
X38106Y-61373D01*
X38093Y-61522D01*
X38500Y-61929D01*
X38906Y-61522D01*
X38906Y-61664D01*
X38570Y-62000D01*
X38977Y-62406D01*
X39126Y-62393D01*
X39228Y-62123D01*
X39228Y-63230D01*
X38906Y-63230D01*
X38906Y-62477D01*
X38500Y-62070D01*
X38429Y-62141D01*
X38429Y-62000D01*
X38022Y-61593D01*
X37873Y-61606D01*
X37771Y-61876D01*
X37779Y-62164D01*
X37873Y-62393D01*
X38022Y-62406D01*
X38429Y-62000D01*
X38429Y-62141D01*
X38093Y-62477D01*
X38106Y-62626D01*
X38376Y-62728D01*
X38664Y-62720D01*
X38893Y-62626D01*
X38906Y-62477D01*
X38906Y-63230D01*
X36228Y-63230D01*
X36228Y-62123D01*
X36220Y-61835D01*
X36126Y-61606D01*
X36025Y-61597D01*
X36025Y-59896D01*
X35945Y-59703D01*
X35797Y-59555D01*
X35604Y-59475D01*
X35396Y-59474D01*
X35203Y-59554D01*
X35055Y-59702D01*
X34975Y-59895D01*
X34974Y-60103D01*
X35054Y-60297D01*
X35202Y-60444D01*
X35395Y-60524D01*
X35603Y-60525D01*
X35797Y-60445D01*
X35944Y-60297D01*
X36024Y-60104D01*
X36025Y-59896D01*
X36025Y-61597D01*
X35977Y-61593D01*
X35906Y-61664D01*
X35906Y-61522D01*
X35893Y-61373D01*
X35623Y-61271D01*
X35335Y-61279D01*
X35106Y-61373D01*
X35093Y-61522D01*
X35500Y-61929D01*
X35906Y-61522D01*
X35906Y-61664D01*
X35570Y-62000D01*
X35977Y-62406D01*
X36126Y-62393D01*
X36228Y-62123D01*
X36228Y-63230D01*
X35906Y-63230D01*
X35906Y-62477D01*
X35500Y-62070D01*
X35429Y-62141D01*
X35429Y-62000D01*
X35022Y-61593D01*
X34873Y-61606D01*
X34771Y-61876D01*
X34779Y-62164D01*
X34873Y-62393D01*
X35022Y-62406D01*
X35429Y-62000D01*
X35429Y-62141D01*
X35093Y-62477D01*
X35106Y-62626D01*
X35376Y-62728D01*
X35664Y-62720D01*
X35893Y-62626D01*
X35906Y-62477D01*
X35906Y-63230D01*
X33269Y-63230D01*
X33269Y-18769D01*
X77730Y-18769D01*
X77730Y-34315D01*
X77730Y-34315D01*
G37*
G54D20*
X77730Y-34315D02*
X77712Y-34287D01*
X77614Y-34222D01*
X77500Y-34200D01*
X77255Y-34200D01*
X77255Y-21053D01*
X76912Y-20224D01*
X76279Y-19589D01*
X75450Y-19245D01*
X74553Y-19244D01*
X73724Y-19587D01*
X73089Y-20220D01*
X72745Y-21049D01*
X72744Y-21946D01*
X73087Y-22775D01*
X73720Y-23410D01*
X74549Y-23754D01*
X75446Y-23755D01*
X76275Y-23412D01*
X76910Y-22779D01*
X77254Y-21950D01*
X77255Y-21053D01*
X77255Y-34200D01*
X76942Y-34200D01*
X76797Y-34055D01*
X76664Y-33999D01*
X76797Y-33945D01*
X76944Y-33797D01*
X77024Y-33604D01*
X77025Y-33396D01*
X76945Y-33203D01*
X76797Y-33055D01*
X76664Y-32999D01*
X76797Y-32945D01*
X76944Y-32797D01*
X77024Y-32604D01*
X77025Y-32396D01*
X76945Y-32203D01*
X76797Y-32055D01*
X76664Y-31999D01*
X76797Y-31945D01*
X76944Y-31797D01*
X77024Y-31604D01*
X77025Y-31396D01*
X76945Y-31203D01*
X76797Y-31055D01*
X76604Y-30975D01*
X76396Y-30974D01*
X76303Y-31013D01*
X76303Y-26641D01*
X76296Y-26323D01*
X76188Y-26061D01*
X76100Y-26049D01*
X76031Y-26039D01*
X76100Y-25970D01*
X76111Y-25959D01*
X76100Y-25947D01*
X76085Y-25933D01*
X76099Y-25899D01*
X76100Y-25800D01*
X76100Y-25100D01*
X76062Y-25008D01*
X75991Y-24938D01*
X75899Y-24900D01*
X75800Y-24899D01*
X75100Y-24899D01*
X75008Y-24937D01*
X74938Y-25008D01*
X74900Y-25100D01*
X74899Y-25199D01*
X74899Y-25899D01*
X74914Y-25933D01*
X74888Y-25959D01*
X74968Y-26039D01*
X74811Y-26061D01*
X74696Y-26358D01*
X74703Y-26676D01*
X74811Y-26938D01*
X74968Y-26960D01*
X75429Y-26500D01*
X75423Y-26494D01*
X75494Y-26423D01*
X75500Y-26429D01*
X75505Y-26423D01*
X75576Y-26494D01*
X75570Y-26500D01*
X76031Y-26960D01*
X76188Y-26938D01*
X76303Y-26641D01*
X76303Y-31013D01*
X76203Y-31054D01*
X76055Y-31202D01*
X75975Y-31395D01*
X75974Y-31603D01*
X76054Y-31797D01*
X76202Y-31944D01*
X76335Y-32000D01*
X76203Y-32054D01*
X76055Y-32202D01*
X75975Y-32395D01*
X75974Y-32603D01*
X76054Y-32797D01*
X76202Y-32944D01*
X76335Y-33000D01*
X76203Y-33054D01*
X76055Y-33202D01*
X75975Y-33395D01*
X75974Y-33603D01*
X76054Y-33797D01*
X76202Y-33944D01*
X76335Y-34000D01*
X76203Y-34054D01*
X76055Y-34202D01*
X75975Y-34395D01*
X75974Y-34603D01*
X76054Y-34797D01*
X76202Y-34944D01*
X76335Y-35000D01*
X76203Y-35054D01*
X76057Y-35200D01*
X74877Y-35200D01*
X74924Y-35084D01*
X74925Y-34915D01*
X74860Y-34759D01*
X74741Y-34639D01*
X74584Y-34575D01*
X74499Y-34574D01*
X72300Y-32375D01*
X72300Y-27720D01*
X72385Y-27777D01*
X72500Y-27800D01*
X74974Y-27800D01*
X74991Y-27839D01*
X75159Y-28008D01*
X75380Y-28099D01*
X75618Y-28100D01*
X75839Y-28008D01*
X76008Y-27840D01*
X76099Y-27619D01*
X76100Y-27381D01*
X76008Y-27160D01*
X75950Y-27101D01*
X75960Y-27031D01*
X75500Y-26570D01*
X75429Y-26641D01*
X75039Y-27031D01*
X75049Y-27101D01*
X74991Y-27159D01*
X74974Y-27200D01*
X72624Y-27200D01*
X72300Y-26875D01*
X72300Y-24500D01*
X72277Y-24385D01*
X72228Y-24312D01*
X72228Y-23123D01*
X72228Y-20623D01*
X72220Y-20335D01*
X72126Y-20106D01*
X71977Y-20093D01*
X71906Y-20164D01*
X71906Y-20022D01*
X71893Y-19873D01*
X71623Y-19771D01*
X71335Y-19779D01*
X71106Y-19873D01*
X71093Y-20022D01*
X71500Y-20429D01*
X71906Y-20022D01*
X71906Y-20164D01*
X71570Y-20500D01*
X71977Y-20906D01*
X72126Y-20893D01*
X72228Y-20623D01*
X72228Y-23123D01*
X72220Y-22835D01*
X72126Y-22606D01*
X71977Y-22593D01*
X71906Y-22664D01*
X71906Y-22522D01*
X71906Y-20977D01*
X71500Y-20570D01*
X71429Y-20641D01*
X71429Y-20500D01*
X71022Y-20093D01*
X70873Y-20106D01*
X70867Y-20124D01*
X70797Y-20055D01*
X70604Y-19975D01*
X70396Y-19974D01*
X70203Y-20054D01*
X70055Y-20202D01*
X69975Y-20395D01*
X69974Y-20603D01*
X70054Y-20797D01*
X70202Y-20944D01*
X70395Y-21024D01*
X70603Y-21025D01*
X70797Y-20945D01*
X70866Y-20875D01*
X70873Y-20893D01*
X71022Y-20906D01*
X71429Y-20500D01*
X71429Y-20641D01*
X71093Y-20977D01*
X71106Y-21126D01*
X71376Y-21228D01*
X71664Y-21220D01*
X71893Y-21126D01*
X71906Y-20977D01*
X71906Y-22522D01*
X71893Y-22373D01*
X71623Y-22271D01*
X71335Y-22279D01*
X71106Y-22373D01*
X71093Y-22522D01*
X71500Y-22929D01*
X71906Y-22522D01*
X71906Y-22664D01*
X71570Y-23000D01*
X71977Y-23406D01*
X72126Y-23393D01*
X72228Y-23123D01*
X72228Y-24312D01*
X72212Y-24287D01*
X72212Y-24287D01*
X71645Y-23721D01*
X71664Y-23720D01*
X71893Y-23626D01*
X71906Y-23477D01*
X71500Y-23070D01*
X71494Y-23076D01*
X71423Y-23005D01*
X71429Y-23000D01*
X71022Y-22593D01*
X70873Y-22606D01*
X70867Y-22624D01*
X70797Y-22555D01*
X70604Y-22475D01*
X70396Y-22474D01*
X70203Y-22554D01*
X70055Y-22702D01*
X69975Y-22895D01*
X69974Y-23103D01*
X70054Y-23297D01*
X70202Y-23444D01*
X70395Y-23524D01*
X70600Y-23525D01*
X71700Y-24624D01*
X71700Y-27000D01*
X71700Y-32500D01*
X71722Y-32614D01*
X71787Y-32712D01*
X74075Y-34999D01*
X74074Y-35084D01*
X74122Y-35200D01*
X72624Y-35200D01*
X71424Y-34000D01*
X71425Y-33915D01*
X71360Y-33759D01*
X71241Y-33639D01*
X71228Y-33634D01*
X71228Y-29623D01*
X71228Y-28623D01*
X71228Y-25623D01*
X71220Y-25335D01*
X71126Y-25106D01*
X70977Y-25093D01*
X70906Y-25164D01*
X70906Y-25022D01*
X70893Y-24873D01*
X70623Y-24771D01*
X70335Y-24779D01*
X70106Y-24873D01*
X70093Y-25022D01*
X70500Y-25429D01*
X70906Y-25022D01*
X70906Y-25164D01*
X70570Y-25500D01*
X70977Y-25906D01*
X71126Y-25893D01*
X71228Y-25623D01*
X71228Y-28623D01*
X71220Y-28335D01*
X71126Y-28106D01*
X70977Y-28093D01*
X70570Y-28500D01*
X70977Y-28906D01*
X71126Y-28893D01*
X71228Y-28623D01*
X71228Y-29623D01*
X71220Y-29335D01*
X71126Y-29106D01*
X70977Y-29093D01*
X70906Y-29164D01*
X70906Y-29022D01*
X70904Y-29000D01*
X70906Y-28977D01*
X70901Y-28972D01*
X70893Y-28873D01*
X70747Y-28818D01*
X70500Y-28570D01*
X70260Y-28810D01*
X70106Y-28873D01*
X70098Y-28972D01*
X70093Y-28977D01*
X70095Y-29000D01*
X70093Y-29022D01*
X70098Y-29027D01*
X70106Y-29126D01*
X70252Y-29181D01*
X70500Y-29429D01*
X70739Y-29189D01*
X70893Y-29126D01*
X70901Y-29027D01*
X70906Y-29022D01*
X70906Y-29164D01*
X70570Y-29500D01*
X70977Y-29906D01*
X71126Y-29893D01*
X71228Y-29623D01*
X71228Y-33634D01*
X71084Y-33575D01*
X70915Y-33574D01*
X70800Y-33622D01*
X70800Y-33025D01*
X70824Y-33025D01*
X70916Y-32987D01*
X70986Y-32916D01*
X71024Y-32824D01*
X71025Y-32725D01*
X71025Y-32175D01*
X70987Y-32083D01*
X70916Y-32013D01*
X70824Y-31975D01*
X70725Y-31974D01*
X70725Y-31974D01*
X70797Y-31945D01*
X70944Y-31797D01*
X71024Y-31604D01*
X71025Y-31396D01*
X70945Y-31203D01*
X70797Y-31055D01*
X70664Y-30999D01*
X70797Y-30945D01*
X70944Y-30797D01*
X71024Y-30604D01*
X71025Y-30396D01*
X70945Y-30203D01*
X70875Y-30133D01*
X70893Y-30126D01*
X70906Y-29977D01*
X70500Y-29570D01*
X70429Y-29641D01*
X70429Y-29500D01*
X70022Y-29093D01*
X69873Y-29106D01*
X69771Y-29376D01*
X69779Y-29664D01*
X69873Y-29893D01*
X70022Y-29906D01*
X70429Y-29500D01*
X70429Y-29641D01*
X70093Y-29977D01*
X70106Y-30126D01*
X70124Y-30132D01*
X70055Y-30202D01*
X69975Y-30395D01*
X69974Y-30600D01*
X69300Y-31275D01*
X69300Y-29124D01*
X69778Y-28645D01*
X69779Y-28664D01*
X69873Y-28893D01*
X70022Y-28906D01*
X70429Y-28500D01*
X70423Y-28494D01*
X70494Y-28423D01*
X70500Y-28429D01*
X70906Y-28022D01*
X70893Y-27873D01*
X70875Y-27867D01*
X70944Y-27797D01*
X71024Y-27604D01*
X71025Y-27396D01*
X70945Y-27203D01*
X70797Y-27055D01*
X70664Y-26999D01*
X70797Y-26945D01*
X70944Y-26797D01*
X71024Y-26604D01*
X71025Y-26396D01*
X70945Y-26203D01*
X70875Y-26133D01*
X70893Y-26126D01*
X70906Y-25977D01*
X70500Y-25570D01*
X70093Y-25977D01*
X70106Y-26126D01*
X70124Y-26132D01*
X70090Y-26166D01*
X69800Y-25875D01*
X69800Y-25714D01*
X69873Y-25893D01*
X70022Y-25906D01*
X70429Y-25500D01*
X70022Y-25093D01*
X69873Y-25106D01*
X69800Y-25300D01*
X69800Y-23500D01*
X69777Y-23385D01*
X69712Y-23287D01*
X69712Y-23287D01*
X68212Y-21787D01*
X68114Y-21722D01*
X68000Y-21700D01*
X66025Y-21700D01*
X66025Y-19646D01*
X65945Y-19453D01*
X65797Y-19305D01*
X65604Y-19225D01*
X65396Y-19224D01*
X65203Y-19304D01*
X65055Y-19452D01*
X64993Y-19599D01*
X64987Y-19583D01*
X64916Y-19513D01*
X64824Y-19475D01*
X64725Y-19474D01*
X64175Y-19474D01*
X64083Y-19512D01*
X64013Y-19583D01*
X64006Y-19600D01*
X63945Y-19453D01*
X63797Y-19305D01*
X63604Y-19225D01*
X63396Y-19224D01*
X63203Y-19304D01*
X63055Y-19452D01*
X62993Y-19599D01*
X62987Y-19583D01*
X62916Y-19513D01*
X62824Y-19475D01*
X62725Y-19474D01*
X62175Y-19474D01*
X62083Y-19512D01*
X62013Y-19583D01*
X62006Y-19600D01*
X61945Y-19453D01*
X61797Y-19305D01*
X61604Y-19225D01*
X61396Y-19224D01*
X61203Y-19304D01*
X61055Y-19452D01*
X60993Y-19599D01*
X60987Y-19583D01*
X60916Y-19513D01*
X60824Y-19475D01*
X60725Y-19474D01*
X60175Y-19474D01*
X60083Y-19512D01*
X60013Y-19583D01*
X60006Y-19600D01*
X59945Y-19453D01*
X59797Y-19305D01*
X59604Y-19225D01*
X59396Y-19224D01*
X59203Y-19304D01*
X59055Y-19452D01*
X58993Y-19599D01*
X58987Y-19583D01*
X58916Y-19513D01*
X58824Y-19475D01*
X58725Y-19474D01*
X58175Y-19474D01*
X58083Y-19512D01*
X58013Y-19583D01*
X58006Y-19600D01*
X57945Y-19453D01*
X57797Y-19305D01*
X57604Y-19225D01*
X57396Y-19224D01*
X57203Y-19304D01*
X57055Y-19452D01*
X56993Y-19599D01*
X56987Y-19583D01*
X56916Y-19513D01*
X56824Y-19475D01*
X56725Y-19474D01*
X56175Y-19474D01*
X56083Y-19512D01*
X56013Y-19583D01*
X56006Y-19600D01*
X55945Y-19453D01*
X55797Y-19305D01*
X55604Y-19225D01*
X55396Y-19224D01*
X55203Y-19304D01*
X55055Y-19452D01*
X54993Y-19599D01*
X54987Y-19583D01*
X54916Y-19513D01*
X54824Y-19475D01*
X54725Y-19474D01*
X54175Y-19474D01*
X54083Y-19512D01*
X54013Y-19583D01*
X54006Y-19600D01*
X53945Y-19453D01*
X53797Y-19305D01*
X53604Y-19225D01*
X53396Y-19224D01*
X53203Y-19304D01*
X53055Y-19452D01*
X52993Y-19599D01*
X52987Y-19583D01*
X52916Y-19513D01*
X52824Y-19475D01*
X52725Y-19474D01*
X52175Y-19474D01*
X52083Y-19512D01*
X52013Y-19583D01*
X52006Y-19600D01*
X51945Y-19453D01*
X51797Y-19305D01*
X51604Y-19225D01*
X51396Y-19224D01*
X51203Y-19304D01*
X51055Y-19452D01*
X50993Y-19599D01*
X50987Y-19583D01*
X50916Y-19513D01*
X50824Y-19475D01*
X50725Y-19474D01*
X50175Y-19474D01*
X50083Y-19512D01*
X50013Y-19583D01*
X49975Y-19675D01*
X49974Y-19774D01*
X49974Y-20324D01*
X50012Y-20416D01*
X50083Y-20486D01*
X50175Y-20524D01*
X50274Y-20525D01*
X50824Y-20525D01*
X50916Y-20487D01*
X50986Y-20416D01*
X51024Y-20324D01*
X51025Y-20225D01*
X51025Y-19975D01*
X51054Y-20047D01*
X51202Y-20194D01*
X51395Y-20274D01*
X51603Y-20275D01*
X51797Y-20195D01*
X51944Y-20047D01*
X51974Y-19975D01*
X51974Y-20324D01*
X52012Y-20416D01*
X52083Y-20486D01*
X52175Y-20524D01*
X52274Y-20525D01*
X52824Y-20525D01*
X52916Y-20487D01*
X52986Y-20416D01*
X53024Y-20324D01*
X53025Y-20225D01*
X53025Y-19975D01*
X53054Y-20047D01*
X53202Y-20194D01*
X53395Y-20274D01*
X53603Y-20275D01*
X53797Y-20195D01*
X53944Y-20047D01*
X53974Y-19975D01*
X53974Y-20324D01*
X54012Y-20416D01*
X54083Y-20486D01*
X54175Y-20524D01*
X54274Y-20525D01*
X54824Y-20525D01*
X54916Y-20487D01*
X54986Y-20416D01*
X55024Y-20324D01*
X55025Y-20225D01*
X55025Y-19975D01*
X55054Y-20047D01*
X55202Y-20194D01*
X55395Y-20274D01*
X55603Y-20275D01*
X55797Y-20195D01*
X55944Y-20047D01*
X55974Y-19975D01*
X55974Y-20324D01*
X56012Y-20416D01*
X56083Y-20486D01*
X56175Y-20524D01*
X56274Y-20525D01*
X56824Y-20525D01*
X56916Y-20487D01*
X56986Y-20416D01*
X57024Y-20324D01*
X57025Y-20225D01*
X57025Y-19975D01*
X57054Y-20047D01*
X57202Y-20194D01*
X57395Y-20274D01*
X57603Y-20275D01*
X57797Y-20195D01*
X57944Y-20047D01*
X57974Y-19975D01*
X57974Y-20324D01*
X58012Y-20416D01*
X58083Y-20486D01*
X58175Y-20524D01*
X58274Y-20525D01*
X58824Y-20525D01*
X58916Y-20487D01*
X58986Y-20416D01*
X59024Y-20324D01*
X59025Y-20225D01*
X59025Y-19975D01*
X59054Y-20047D01*
X59202Y-20194D01*
X59395Y-20274D01*
X59603Y-20275D01*
X59797Y-20195D01*
X59944Y-20047D01*
X59974Y-19975D01*
X59974Y-20324D01*
X60012Y-20416D01*
X60083Y-20486D01*
X60175Y-20524D01*
X60274Y-20525D01*
X60824Y-20525D01*
X60916Y-20487D01*
X60986Y-20416D01*
X61024Y-20324D01*
X61025Y-20225D01*
X61025Y-19975D01*
X61054Y-20047D01*
X61202Y-20194D01*
X61395Y-20274D01*
X61603Y-20275D01*
X61797Y-20195D01*
X61944Y-20047D01*
X61974Y-19975D01*
X61974Y-20324D01*
X62012Y-20416D01*
X62083Y-20486D01*
X62175Y-20524D01*
X62274Y-20525D01*
X62824Y-20525D01*
X62916Y-20487D01*
X62986Y-20416D01*
X63024Y-20324D01*
X63025Y-20225D01*
X63025Y-19975D01*
X63054Y-20047D01*
X63202Y-20194D01*
X63395Y-20274D01*
X63603Y-20275D01*
X63797Y-20195D01*
X63944Y-20047D01*
X63974Y-19975D01*
X63974Y-20324D01*
X64012Y-20416D01*
X64083Y-20486D01*
X64175Y-20524D01*
X64274Y-20525D01*
X64824Y-20525D01*
X64916Y-20487D01*
X64986Y-20416D01*
X65024Y-20324D01*
X65025Y-20225D01*
X65025Y-19975D01*
X65054Y-20047D01*
X65202Y-20194D01*
X65395Y-20274D01*
X65603Y-20275D01*
X65797Y-20195D01*
X65944Y-20047D01*
X66024Y-19854D01*
X66025Y-19646D01*
X66025Y-21700D01*
X51500Y-21700D01*
X51385Y-21722D01*
X51287Y-21787D01*
X50600Y-22475D01*
X50396Y-22474D01*
X50203Y-22554D01*
X50055Y-22702D01*
X49975Y-22895D01*
X49974Y-23103D01*
X50054Y-23297D01*
X50200Y-23442D01*
X50200Y-24474D01*
X50175Y-24474D01*
X50083Y-24512D01*
X50013Y-24583D01*
X49975Y-24675D01*
X49974Y-24774D01*
X49974Y-25324D01*
X50012Y-25416D01*
X50083Y-25486D01*
X50175Y-25524D01*
X50274Y-25525D01*
X50824Y-25525D01*
X50916Y-25487D01*
X50986Y-25416D01*
X51024Y-25324D01*
X51025Y-25225D01*
X51025Y-24675D01*
X50987Y-24583D01*
X50916Y-24513D01*
X50824Y-24475D01*
X50800Y-24475D01*
X50800Y-23442D01*
X50944Y-23297D01*
X50975Y-23225D01*
X50974Y-23353D01*
X51054Y-23547D01*
X51202Y-23694D01*
X51395Y-23774D01*
X51603Y-23775D01*
X51797Y-23695D01*
X51944Y-23547D01*
X52024Y-23354D01*
X52025Y-23225D01*
X52054Y-23297D01*
X52202Y-23444D01*
X52395Y-23524D01*
X52603Y-23525D01*
X52797Y-23445D01*
X52944Y-23297D01*
X52975Y-23225D01*
X52974Y-23353D01*
X53054Y-23547D01*
X53202Y-23694D01*
X53395Y-23774D01*
X53603Y-23775D01*
X53797Y-23695D01*
X53944Y-23547D01*
X54024Y-23354D01*
X54025Y-23225D01*
X54054Y-23297D01*
X54202Y-23444D01*
X54395Y-23524D01*
X54603Y-23525D01*
X54797Y-23445D01*
X54944Y-23297D01*
X54975Y-23225D01*
X54974Y-23353D01*
X55054Y-23547D01*
X55202Y-23694D01*
X55214Y-23700D01*
X54000Y-23700D01*
X53885Y-23722D01*
X53787Y-23787D01*
X52988Y-24587D01*
X52987Y-24583D01*
X52916Y-24513D01*
X52824Y-24475D01*
X52725Y-24474D01*
X52175Y-24474D01*
X52083Y-24512D01*
X52013Y-24583D01*
X51975Y-24675D01*
X51974Y-24774D01*
X51974Y-25324D01*
X52012Y-25416D01*
X52083Y-25486D01*
X52175Y-25524D01*
X52274Y-25525D01*
X52824Y-25525D01*
X52916Y-25487D01*
X52986Y-25416D01*
X53024Y-25324D01*
X53024Y-25295D01*
X53114Y-25277D01*
X53114Y-25277D01*
X53212Y-25212D01*
X54124Y-24300D01*
X65875Y-24300D01*
X66975Y-25399D01*
X66974Y-25603D01*
X67054Y-25797D01*
X67202Y-25944D01*
X67335Y-26000D01*
X67203Y-26054D01*
X67055Y-26202D01*
X66975Y-26395D01*
X66974Y-26603D01*
X67054Y-26797D01*
X67202Y-26944D01*
X67335Y-27000D01*
X67203Y-27054D01*
X67055Y-27202D01*
X66975Y-27395D01*
X66974Y-27603D01*
X67054Y-27797D01*
X67202Y-27944D01*
X67335Y-28000D01*
X67203Y-28054D01*
X67055Y-28202D01*
X66975Y-28395D01*
X66974Y-28603D01*
X67054Y-28797D01*
X67202Y-28944D01*
X67335Y-29000D01*
X67203Y-29054D01*
X67055Y-29202D01*
X66975Y-29395D01*
X66974Y-29603D01*
X67054Y-29797D01*
X67202Y-29944D01*
X67335Y-30000D01*
X67203Y-30054D01*
X67055Y-30202D01*
X66975Y-30395D01*
X66974Y-30603D01*
X67054Y-30797D01*
X67202Y-30944D01*
X67335Y-31000D01*
X67203Y-31054D01*
X67055Y-31202D01*
X66975Y-31395D01*
X66974Y-31603D01*
X67054Y-31797D01*
X67202Y-31944D01*
X67335Y-32000D01*
X67203Y-32054D01*
X67057Y-32200D01*
X65228Y-32200D01*
X65228Y-28123D01*
X65220Y-27835D01*
X65126Y-27606D01*
X64977Y-27593D01*
X64906Y-27664D01*
X64906Y-27522D01*
X64893Y-27373D01*
X64623Y-27271D01*
X64335Y-27279D01*
X64106Y-27373D01*
X64093Y-27522D01*
X64500Y-27929D01*
X64906Y-27522D01*
X64906Y-27664D01*
X64570Y-28000D01*
X64977Y-28406D01*
X65126Y-28393D01*
X65228Y-28123D01*
X65228Y-32200D01*
X64906Y-32200D01*
X64906Y-28477D01*
X64500Y-28070D01*
X64093Y-28477D01*
X64106Y-28626D01*
X64376Y-28728D01*
X64664Y-28720D01*
X64893Y-28626D01*
X64906Y-28477D01*
X64906Y-32200D01*
X63877Y-32200D01*
X63924Y-32084D01*
X63925Y-31915D01*
X63860Y-31759D01*
X63800Y-31698D01*
X63800Y-28214D01*
X63873Y-28393D01*
X64022Y-28406D01*
X64429Y-28000D01*
X64022Y-27593D01*
X63873Y-27606D01*
X63800Y-27800D01*
X63800Y-25624D01*
X64011Y-25412D01*
X64012Y-25416D01*
X64083Y-25486D01*
X64175Y-25524D01*
X64274Y-25525D01*
X64824Y-25525D01*
X64916Y-25487D01*
X64986Y-25416D01*
X65024Y-25324D01*
X65025Y-25225D01*
X65025Y-24675D01*
X64987Y-24583D01*
X64916Y-24513D01*
X64824Y-24475D01*
X64725Y-24474D01*
X64175Y-24474D01*
X64083Y-24512D01*
X64013Y-24583D01*
X63975Y-24675D01*
X63975Y-24704D01*
X63885Y-24722D01*
X63787Y-24787D01*
X63287Y-25287D01*
X63222Y-25385D01*
X63200Y-25500D01*
X63200Y-27785D01*
X63126Y-27606D01*
X63025Y-27597D01*
X63025Y-25225D01*
X63025Y-24675D01*
X62987Y-24583D01*
X62916Y-24513D01*
X62824Y-24475D01*
X62725Y-24474D01*
X62175Y-24474D01*
X62083Y-24512D01*
X62013Y-24583D01*
X61975Y-24675D01*
X61975Y-24704D01*
X61885Y-24722D01*
X61787Y-24787D01*
X61287Y-25287D01*
X61222Y-25385D01*
X61200Y-25500D01*
X61200Y-27785D01*
X61126Y-27606D01*
X61025Y-27597D01*
X61025Y-25225D01*
X61025Y-24675D01*
X60987Y-24583D01*
X60916Y-24513D01*
X60824Y-24475D01*
X60725Y-24474D01*
X60175Y-24474D01*
X60083Y-24512D01*
X60013Y-24583D01*
X59975Y-24675D01*
X59975Y-24704D01*
X59885Y-24722D01*
X59787Y-24787D01*
X59287Y-25287D01*
X59222Y-25385D01*
X59200Y-25500D01*
X59200Y-27785D01*
X59126Y-27606D01*
X59025Y-27597D01*
X59025Y-25225D01*
X59025Y-24675D01*
X58987Y-24583D01*
X58916Y-24513D01*
X58824Y-24475D01*
X58725Y-24474D01*
X58175Y-24474D01*
X58083Y-24512D01*
X58013Y-24583D01*
X57975Y-24675D01*
X57975Y-24704D01*
X57885Y-24722D01*
X57787Y-24787D01*
X57287Y-25287D01*
X57222Y-25385D01*
X57200Y-25500D01*
X57200Y-27785D01*
X57126Y-27606D01*
X57025Y-27597D01*
X57025Y-25225D01*
X57025Y-24675D01*
X56987Y-24583D01*
X56916Y-24513D01*
X56824Y-24475D01*
X56725Y-24474D01*
X56175Y-24474D01*
X56083Y-24512D01*
X56013Y-24583D01*
X55975Y-24675D01*
X55974Y-24774D01*
X55974Y-25324D01*
X56012Y-25416D01*
X56083Y-25486D01*
X56175Y-25524D01*
X56274Y-25525D01*
X56824Y-25525D01*
X56916Y-25487D01*
X56986Y-25416D01*
X57024Y-25324D01*
X57025Y-25225D01*
X57025Y-27597D01*
X56977Y-27593D01*
X56906Y-27664D01*
X56906Y-27522D01*
X56893Y-27373D01*
X56623Y-27271D01*
X56335Y-27279D01*
X56106Y-27373D01*
X56093Y-27522D01*
X56500Y-27929D01*
X56906Y-27522D01*
X56906Y-27664D01*
X56570Y-28000D01*
X56977Y-28406D01*
X57126Y-28393D01*
X57200Y-28199D01*
X57200Y-28698D01*
X57139Y-28758D01*
X57075Y-28915D01*
X57074Y-29084D01*
X57139Y-29240D01*
X57258Y-29360D01*
X57415Y-29424D01*
X57584Y-29425D01*
X57740Y-29360D01*
X57860Y-29241D01*
X57924Y-29084D01*
X57925Y-28915D01*
X57860Y-28759D01*
X57800Y-28698D01*
X57800Y-28214D01*
X57873Y-28393D01*
X58022Y-28406D01*
X58429Y-28000D01*
X58022Y-27593D01*
X57873Y-27606D01*
X57800Y-27800D01*
X57800Y-25624D01*
X58011Y-25412D01*
X58012Y-25416D01*
X58083Y-25486D01*
X58175Y-25524D01*
X58274Y-25525D01*
X58824Y-25525D01*
X58916Y-25487D01*
X58986Y-25416D01*
X59024Y-25324D01*
X59025Y-25225D01*
X59025Y-27597D01*
X58977Y-27593D01*
X58906Y-27664D01*
X58906Y-27522D01*
X58893Y-27373D01*
X58623Y-27271D01*
X58335Y-27279D01*
X58106Y-27373D01*
X58093Y-27522D01*
X58500Y-27929D01*
X58906Y-27522D01*
X58906Y-27664D01*
X58570Y-28000D01*
X58977Y-28406D01*
X59126Y-28393D01*
X59200Y-28199D01*
X59200Y-29698D01*
X59139Y-29758D01*
X59075Y-29915D01*
X59074Y-30084D01*
X59139Y-30240D01*
X59258Y-30360D01*
X59415Y-30424D01*
X59584Y-30425D01*
X59740Y-30360D01*
X59860Y-30241D01*
X59924Y-30084D01*
X59925Y-29915D01*
X59860Y-29759D01*
X59800Y-29698D01*
X59800Y-28214D01*
X59873Y-28393D01*
X60022Y-28406D01*
X60429Y-28000D01*
X60022Y-27593D01*
X59873Y-27606D01*
X59800Y-27800D01*
X59800Y-25624D01*
X60011Y-25412D01*
X60012Y-25416D01*
X60083Y-25486D01*
X60175Y-25524D01*
X60274Y-25525D01*
X60824Y-25525D01*
X60916Y-25487D01*
X60986Y-25416D01*
X61024Y-25324D01*
X61025Y-25225D01*
X61025Y-27597D01*
X60977Y-27593D01*
X60906Y-27664D01*
X60906Y-27522D01*
X60893Y-27373D01*
X60623Y-27271D01*
X60335Y-27279D01*
X60106Y-27373D01*
X60093Y-27522D01*
X60500Y-27929D01*
X60906Y-27522D01*
X60906Y-27664D01*
X60570Y-28000D01*
X60977Y-28406D01*
X61126Y-28393D01*
X61200Y-28199D01*
X61200Y-30698D01*
X61139Y-30758D01*
X61075Y-30915D01*
X61074Y-31084D01*
X61139Y-31240D01*
X61258Y-31360D01*
X61415Y-31424D01*
X61584Y-31425D01*
X61740Y-31360D01*
X61860Y-31241D01*
X61924Y-31084D01*
X61925Y-30915D01*
X61860Y-30759D01*
X61800Y-30698D01*
X61800Y-28214D01*
X61873Y-28393D01*
X62022Y-28406D01*
X62429Y-28000D01*
X62022Y-27593D01*
X61873Y-27606D01*
X61800Y-27800D01*
X61800Y-25624D01*
X62011Y-25412D01*
X62012Y-25416D01*
X62083Y-25486D01*
X62175Y-25524D01*
X62274Y-25525D01*
X62824Y-25525D01*
X62916Y-25487D01*
X62986Y-25416D01*
X63024Y-25324D01*
X63025Y-25225D01*
X63025Y-27597D01*
X62977Y-27593D01*
X62906Y-27664D01*
X62906Y-27522D01*
X62893Y-27373D01*
X62623Y-27271D01*
X62335Y-27279D01*
X62106Y-27373D01*
X62093Y-27522D01*
X62500Y-27929D01*
X62906Y-27522D01*
X62906Y-27664D01*
X62570Y-28000D01*
X62977Y-28406D01*
X63126Y-28393D01*
X63200Y-28199D01*
X63200Y-31698D01*
X63139Y-31758D01*
X63075Y-31915D01*
X63074Y-32084D01*
X63122Y-32200D01*
X62906Y-32200D01*
X62906Y-28477D01*
X62500Y-28070D01*
X62093Y-28477D01*
X62106Y-28626D01*
X62376Y-28728D01*
X62664Y-28720D01*
X62893Y-28626D01*
X62906Y-28477D01*
X62906Y-32200D01*
X60906Y-32200D01*
X60906Y-28477D01*
X60500Y-28070D01*
X60093Y-28477D01*
X60106Y-28626D01*
X60376Y-28728D01*
X60664Y-28720D01*
X60893Y-28626D01*
X60906Y-28477D01*
X60906Y-32200D01*
X58906Y-32200D01*
X58906Y-28477D01*
X58500Y-28070D01*
X58093Y-28477D01*
X58106Y-28626D01*
X58376Y-28728D01*
X58664Y-28720D01*
X58893Y-28626D01*
X58906Y-28477D01*
X58906Y-32200D01*
X56906Y-32200D01*
X56906Y-28477D01*
X56500Y-28070D01*
X56429Y-28141D01*
X56429Y-28000D01*
X56022Y-27593D01*
X55873Y-27606D01*
X55771Y-27876D01*
X55779Y-28164D01*
X55873Y-28393D01*
X56022Y-28406D01*
X56429Y-28000D01*
X56429Y-28141D01*
X56093Y-28477D01*
X56106Y-28626D01*
X56376Y-28728D01*
X56664Y-28720D01*
X56893Y-28626D01*
X56906Y-28477D01*
X56906Y-32200D01*
X56500Y-32200D01*
X56385Y-32222D01*
X56287Y-32287D01*
X55787Y-32787D01*
X55722Y-32885D01*
X55700Y-33000D01*
X55700Y-35375D01*
X54787Y-36287D01*
X54722Y-36385D01*
X54700Y-36500D01*
X54700Y-37307D01*
X54555Y-37452D01*
X54475Y-37645D01*
X54474Y-37853D01*
X54554Y-38047D01*
X54700Y-38192D01*
X54700Y-40307D01*
X54555Y-40452D01*
X54475Y-40645D01*
X54474Y-40853D01*
X54554Y-41047D01*
X54702Y-41194D01*
X54895Y-41274D01*
X55103Y-41275D01*
X55297Y-41195D01*
X55444Y-41047D01*
X55524Y-40854D01*
X55525Y-40646D01*
X55445Y-40453D01*
X55300Y-40307D01*
X55300Y-38192D01*
X55444Y-38047D01*
X55524Y-37854D01*
X55525Y-37646D01*
X55445Y-37453D01*
X55300Y-37307D01*
X55300Y-36624D01*
X56212Y-35712D01*
X56212Y-35712D01*
X56277Y-35614D01*
X56299Y-35500D01*
X56300Y-35500D01*
X56300Y-33124D01*
X56624Y-32800D01*
X67057Y-32800D01*
X67202Y-32944D01*
X67395Y-33024D01*
X67603Y-33025D01*
X67703Y-32984D01*
X67700Y-33000D01*
X67700Y-34622D01*
X67584Y-34575D01*
X67415Y-34574D01*
X67259Y-34639D01*
X67198Y-34700D01*
X66301Y-34700D01*
X66241Y-34639D01*
X66084Y-34575D01*
X65915Y-34574D01*
X65800Y-34622D01*
X65800Y-34300D01*
X66698Y-34300D01*
X66758Y-34360D01*
X66915Y-34424D01*
X67084Y-34425D01*
X67240Y-34360D01*
X67360Y-34241D01*
X67424Y-34084D01*
X67425Y-33915D01*
X67360Y-33759D01*
X67241Y-33639D01*
X67084Y-33575D01*
X66915Y-33574D01*
X66759Y-33639D01*
X66698Y-33700D01*
X65500Y-33700D01*
X65385Y-33722D01*
X65287Y-33787D01*
X65222Y-33885D01*
X65200Y-34000D01*
X65200Y-39875D01*
X65024Y-40050D01*
X65025Y-39896D01*
X64945Y-39703D01*
X64797Y-39555D01*
X64664Y-39499D01*
X64797Y-39445D01*
X64944Y-39297D01*
X65024Y-39104D01*
X65025Y-38896D01*
X64945Y-38703D01*
X64797Y-38555D01*
X64664Y-38499D01*
X64797Y-38445D01*
X64944Y-38297D01*
X65024Y-38104D01*
X65025Y-37896D01*
X64945Y-37703D01*
X64797Y-37555D01*
X64664Y-37499D01*
X64797Y-37445D01*
X64944Y-37297D01*
X65024Y-37104D01*
X65025Y-36896D01*
X64945Y-36703D01*
X64797Y-36555D01*
X64604Y-36475D01*
X64396Y-36474D01*
X64203Y-36554D01*
X64057Y-36700D01*
X63500Y-36700D01*
X63385Y-36722D01*
X63287Y-36787D01*
X62787Y-37287D01*
X62722Y-37385D01*
X62700Y-37500D01*
X62700Y-39698D01*
X62639Y-39758D01*
X62575Y-39915D01*
X62574Y-40084D01*
X62639Y-40240D01*
X62758Y-40360D01*
X62915Y-40424D01*
X63084Y-40425D01*
X63197Y-40378D01*
X62375Y-41200D01*
X59285Y-41200D01*
X59297Y-41195D01*
X59444Y-41047D01*
X59524Y-40854D01*
X59525Y-40646D01*
X59445Y-40453D01*
X59297Y-40305D01*
X59104Y-40225D01*
X58896Y-40224D01*
X58703Y-40304D01*
X58555Y-40452D01*
X58475Y-40645D01*
X58474Y-40853D01*
X58554Y-41047D01*
X58702Y-41194D01*
X58714Y-41200D01*
X58500Y-41200D01*
X58385Y-41222D01*
X58287Y-41287D01*
X55625Y-43950D01*
X55442Y-43950D01*
X55297Y-43805D01*
X55285Y-43800D01*
X55500Y-43800D01*
X55500Y-43799D01*
X55614Y-43777D01*
X55614Y-43777D01*
X55712Y-43712D01*
X57212Y-42212D01*
X57212Y-42212D01*
X57277Y-42114D01*
X57299Y-42000D01*
X57300Y-42000D01*
X57300Y-41192D01*
X57444Y-41047D01*
X57524Y-40854D01*
X57525Y-40646D01*
X57525Y-37646D01*
X57525Y-34146D01*
X57445Y-33953D01*
X57297Y-33805D01*
X57104Y-33725D01*
X56896Y-33724D01*
X56703Y-33804D01*
X56555Y-33952D01*
X56475Y-34145D01*
X56474Y-34353D01*
X56554Y-34547D01*
X56702Y-34694D01*
X56895Y-34774D01*
X57103Y-34775D01*
X57297Y-34695D01*
X57444Y-34547D01*
X57524Y-34354D01*
X57525Y-34146D01*
X57525Y-37646D01*
X57445Y-37453D01*
X57297Y-37305D01*
X57104Y-37225D01*
X56896Y-37224D01*
X56703Y-37304D01*
X56555Y-37452D01*
X56475Y-37645D01*
X56474Y-37853D01*
X56554Y-38047D01*
X56702Y-38194D01*
X56895Y-38274D01*
X57103Y-38275D01*
X57297Y-38195D01*
X57444Y-38047D01*
X57524Y-37854D01*
X57525Y-37646D01*
X57525Y-40646D01*
X57445Y-40453D01*
X57297Y-40305D01*
X57104Y-40225D01*
X56896Y-40224D01*
X56703Y-40304D01*
X56555Y-40452D01*
X56475Y-40645D01*
X56474Y-40853D01*
X56554Y-41047D01*
X56700Y-41192D01*
X56700Y-41875D01*
X55375Y-43200D01*
X49442Y-43200D01*
X49297Y-43055D01*
X49104Y-42975D01*
X48896Y-42974D01*
X48703Y-43054D01*
X48555Y-43202D01*
X48499Y-43335D01*
X48445Y-43203D01*
X48297Y-43055D01*
X48104Y-42975D01*
X47896Y-42974D01*
X47703Y-43054D01*
X47633Y-43124D01*
X47626Y-43106D01*
X47477Y-43093D01*
X47406Y-43164D01*
X47406Y-43022D01*
X47393Y-42873D01*
X47123Y-42771D01*
X46835Y-42779D01*
X46606Y-42873D01*
X46593Y-43022D01*
X47000Y-43429D01*
X47406Y-43022D01*
X47406Y-43164D01*
X47070Y-43500D01*
X47477Y-43906D01*
X47626Y-43893D01*
X47632Y-43875D01*
X47700Y-43942D01*
X47700Y-44000D01*
X47722Y-44114D01*
X47787Y-44212D01*
X48037Y-44462D01*
X48037Y-44462D01*
X48135Y-44527D01*
X48250Y-44550D01*
X52557Y-44550D01*
X52702Y-44694D01*
X52895Y-44774D01*
X53103Y-44775D01*
X53297Y-44695D01*
X53444Y-44547D01*
X53524Y-44354D01*
X53525Y-44146D01*
X53445Y-43953D01*
X53297Y-43805D01*
X53285Y-43800D01*
X54714Y-43800D01*
X54703Y-43804D01*
X54555Y-43952D01*
X54475Y-44145D01*
X54474Y-44353D01*
X54554Y-44547D01*
X54702Y-44694D01*
X54895Y-44774D01*
X55103Y-44775D01*
X55297Y-44695D01*
X55442Y-44550D01*
X55750Y-44550D01*
X55750Y-44549D01*
X55864Y-44527D01*
X55864Y-44527D01*
X55962Y-44462D01*
X58624Y-41800D01*
X62500Y-41800D01*
X62500Y-41799D01*
X62614Y-41777D01*
X62614Y-41777D01*
X62639Y-41760D01*
X62575Y-41915D01*
X62574Y-42084D01*
X62639Y-42240D01*
X62700Y-42301D01*
X62700Y-43875D01*
X61875Y-44700D01*
X59285Y-44700D01*
X59297Y-44695D01*
X59444Y-44547D01*
X59524Y-44354D01*
X59525Y-44146D01*
X59445Y-43953D01*
X59297Y-43805D01*
X59104Y-43725D01*
X58896Y-43724D01*
X58703Y-43804D01*
X58555Y-43952D01*
X58475Y-44145D01*
X58474Y-44350D01*
X57625Y-45200D01*
X57525Y-45200D01*
X57525Y-44146D01*
X57445Y-43953D01*
X57297Y-43805D01*
X57104Y-43725D01*
X56896Y-43724D01*
X56703Y-43804D01*
X56555Y-43952D01*
X56475Y-44145D01*
X56474Y-44353D01*
X56554Y-44547D01*
X56702Y-44694D01*
X56895Y-44774D01*
X57103Y-44775D01*
X57297Y-44695D01*
X57444Y-44547D01*
X57524Y-44354D01*
X57525Y-44146D01*
X57525Y-45200D01*
X47406Y-45200D01*
X47406Y-43977D01*
X47000Y-43570D01*
X46593Y-43977D01*
X46606Y-44126D01*
X46876Y-44228D01*
X47164Y-44220D01*
X47393Y-44126D01*
X47406Y-43977D01*
X47406Y-45200D01*
X45624Y-45200D01*
X44333Y-43909D01*
X44444Y-43797D01*
X44500Y-43664D01*
X44554Y-43797D01*
X44702Y-43944D01*
X44895Y-44024D01*
X45103Y-44025D01*
X45297Y-43945D01*
X45444Y-43797D01*
X45500Y-43664D01*
X45554Y-43797D01*
X45702Y-43944D01*
X45895Y-44024D01*
X46103Y-44025D01*
X46297Y-43945D01*
X46366Y-43875D01*
X46373Y-43893D01*
X46522Y-43906D01*
X46929Y-43500D01*
X46522Y-43093D01*
X46373Y-43106D01*
X46367Y-43124D01*
X46333Y-43090D01*
X47624Y-41800D01*
X52250Y-41800D01*
X52250Y-41799D01*
X52364Y-41777D01*
X52364Y-41777D01*
X52462Y-41712D01*
X52899Y-41274D01*
X53103Y-41275D01*
X53297Y-41195D01*
X53444Y-41047D01*
X53524Y-40854D01*
X53525Y-40646D01*
X53525Y-37646D01*
X53445Y-37453D01*
X53297Y-37305D01*
X53104Y-37225D01*
X52896Y-37224D01*
X52703Y-37304D01*
X52555Y-37452D01*
X52475Y-37645D01*
X52474Y-37853D01*
X52554Y-38047D01*
X52702Y-38194D01*
X52895Y-38274D01*
X53103Y-38275D01*
X53297Y-38195D01*
X53444Y-38047D01*
X53524Y-37854D01*
X53525Y-37646D01*
X53525Y-40646D01*
X53445Y-40453D01*
X53297Y-40305D01*
X53104Y-40225D01*
X52896Y-40224D01*
X52703Y-40304D01*
X52555Y-40452D01*
X52475Y-40645D01*
X52474Y-40850D01*
X52125Y-41200D01*
X47500Y-41200D01*
X47385Y-41222D01*
X47287Y-41287D01*
X45787Y-42787D01*
X45757Y-42833D01*
X44800Y-41875D01*
X44800Y-40985D01*
X44895Y-41024D01*
X45103Y-41025D01*
X45297Y-40945D01*
X45444Y-40797D01*
X45500Y-40664D01*
X45554Y-40797D01*
X45702Y-40944D01*
X45895Y-41024D01*
X46103Y-41025D01*
X46297Y-40945D01*
X46444Y-40797D01*
X46500Y-40664D01*
X46554Y-40797D01*
X46702Y-40944D01*
X46895Y-41024D01*
X47103Y-41025D01*
X47297Y-40945D01*
X47444Y-40797D01*
X47500Y-40664D01*
X47554Y-40797D01*
X47702Y-40944D01*
X47895Y-41024D01*
X48103Y-41025D01*
X48297Y-40945D01*
X48444Y-40797D01*
X48474Y-40725D01*
X48474Y-40824D01*
X48512Y-40916D01*
X48583Y-40986D01*
X48675Y-41024D01*
X48774Y-41025D01*
X49324Y-41025D01*
X49416Y-40987D01*
X49486Y-40916D01*
X49524Y-40824D01*
X49524Y-40800D01*
X50500Y-40800D01*
X50500Y-40799D01*
X50614Y-40777D01*
X50614Y-40777D01*
X50712Y-40712D01*
X52212Y-39212D01*
X52212Y-39212D01*
X52277Y-39114D01*
X52299Y-39000D01*
X52300Y-39000D01*
X52300Y-37124D01*
X54721Y-34702D01*
X54895Y-34774D01*
X55103Y-34775D01*
X55297Y-34695D01*
X55444Y-34547D01*
X55524Y-34354D01*
X55525Y-34146D01*
X55445Y-33953D01*
X55297Y-33805D01*
X55228Y-33776D01*
X55228Y-28123D01*
X55220Y-27835D01*
X55126Y-27606D01*
X55025Y-27597D01*
X55025Y-25225D01*
X55025Y-24675D01*
X54987Y-24583D01*
X54916Y-24513D01*
X54824Y-24475D01*
X54725Y-24474D01*
X54175Y-24474D01*
X54083Y-24512D01*
X54013Y-24583D01*
X53975Y-24675D01*
X53974Y-24774D01*
X53974Y-25324D01*
X54012Y-25416D01*
X54083Y-25486D01*
X54175Y-25524D01*
X54274Y-25525D01*
X54824Y-25525D01*
X54916Y-25487D01*
X54986Y-25416D01*
X55024Y-25324D01*
X55025Y-25225D01*
X55025Y-27597D01*
X54977Y-27593D01*
X54906Y-27664D01*
X54906Y-27522D01*
X54893Y-27373D01*
X54623Y-27271D01*
X54335Y-27279D01*
X54106Y-27373D01*
X54093Y-27522D01*
X54500Y-27929D01*
X54906Y-27522D01*
X54906Y-27664D01*
X54570Y-28000D01*
X54977Y-28406D01*
X55126Y-28393D01*
X55228Y-28123D01*
X55228Y-33776D01*
X55104Y-33725D01*
X54906Y-33724D01*
X54906Y-28477D01*
X54500Y-28070D01*
X54429Y-28141D01*
X54429Y-28000D01*
X54022Y-27593D01*
X53873Y-27606D01*
X53771Y-27876D01*
X53779Y-28164D01*
X53873Y-28393D01*
X54022Y-28406D01*
X54429Y-28000D01*
X54429Y-28141D01*
X54093Y-28477D01*
X54106Y-28626D01*
X54376Y-28728D01*
X54664Y-28720D01*
X54893Y-28626D01*
X54906Y-28477D01*
X54906Y-33724D01*
X54896Y-33724D01*
X54703Y-33804D01*
X54555Y-33952D01*
X54506Y-34069D01*
X51800Y-36775D01*
X51800Y-35874D01*
X52899Y-34774D01*
X53103Y-34775D01*
X53297Y-34695D01*
X53444Y-34547D01*
X53524Y-34354D01*
X53525Y-34146D01*
X53445Y-33953D01*
X53297Y-33805D01*
X53228Y-33776D01*
X53228Y-28123D01*
X53220Y-27835D01*
X53126Y-27606D01*
X52977Y-27593D01*
X52906Y-27664D01*
X52906Y-27522D01*
X52893Y-27373D01*
X52623Y-27271D01*
X52335Y-27279D01*
X52106Y-27373D01*
X52093Y-27522D01*
X52500Y-27929D01*
X52906Y-27522D01*
X52906Y-27664D01*
X52570Y-28000D01*
X52977Y-28406D01*
X53126Y-28393D01*
X53228Y-28123D01*
X53228Y-33776D01*
X53104Y-33725D01*
X52906Y-33724D01*
X52906Y-28477D01*
X52500Y-28070D01*
X52429Y-28141D01*
X52429Y-28000D01*
X52022Y-27593D01*
X51873Y-27606D01*
X51771Y-27876D01*
X51779Y-28164D01*
X51873Y-28393D01*
X52022Y-28406D01*
X52429Y-28000D01*
X52429Y-28141D01*
X52093Y-28477D01*
X52106Y-28626D01*
X52376Y-28728D01*
X52664Y-28720D01*
X52893Y-28626D01*
X52906Y-28477D01*
X52906Y-33724D01*
X52896Y-33724D01*
X52703Y-33804D01*
X52555Y-33952D01*
X52475Y-34145D01*
X52474Y-34350D01*
X51525Y-35300D01*
X51525Y-34146D01*
X51445Y-33953D01*
X51297Y-33805D01*
X51228Y-33776D01*
X51228Y-28123D01*
X51220Y-27835D01*
X51126Y-27606D01*
X50977Y-27593D01*
X50906Y-27664D01*
X50906Y-27522D01*
X50893Y-27373D01*
X50623Y-27271D01*
X50335Y-27279D01*
X50106Y-27373D01*
X50093Y-27522D01*
X50500Y-27929D01*
X50906Y-27522D01*
X50906Y-27664D01*
X50570Y-28000D01*
X50977Y-28406D01*
X51126Y-28393D01*
X51228Y-28123D01*
X51228Y-33776D01*
X51104Y-33725D01*
X50906Y-33724D01*
X50906Y-28477D01*
X50500Y-28070D01*
X50429Y-28141D01*
X50429Y-28000D01*
X50022Y-27593D01*
X49873Y-27606D01*
X49771Y-27876D01*
X49779Y-28164D01*
X49873Y-28393D01*
X50022Y-28406D01*
X50429Y-28000D01*
X50429Y-28141D01*
X50093Y-28477D01*
X50106Y-28626D01*
X50376Y-28728D01*
X50664Y-28720D01*
X50893Y-28626D01*
X50906Y-28477D01*
X50906Y-33724D01*
X50896Y-33724D01*
X50703Y-33804D01*
X50555Y-33952D01*
X50475Y-34145D01*
X50474Y-34353D01*
X50554Y-34547D01*
X50702Y-34694D01*
X50895Y-34774D01*
X51103Y-34775D01*
X51297Y-34695D01*
X51444Y-34547D01*
X51524Y-34354D01*
X51525Y-34146D01*
X51525Y-35300D01*
X51287Y-35537D01*
X51222Y-35635D01*
X51200Y-35750D01*
X51200Y-37264D01*
X51104Y-37225D01*
X50899Y-37224D01*
X49962Y-36287D01*
X49864Y-36222D01*
X49750Y-36200D01*
X49025Y-36200D01*
X49025Y-34146D01*
X48945Y-33953D01*
X48797Y-33805D01*
X48604Y-33725D01*
X48396Y-33724D01*
X48203Y-33804D01*
X48055Y-33952D01*
X47975Y-34145D01*
X47974Y-34353D01*
X48054Y-34547D01*
X48202Y-34694D01*
X48395Y-34774D01*
X48603Y-34775D01*
X48797Y-34695D01*
X48944Y-34547D01*
X49024Y-34354D01*
X49025Y-34146D01*
X49025Y-36200D01*
X48500Y-36200D01*
X48385Y-36222D01*
X48287Y-36287D01*
X47775Y-36800D01*
X47775Y-30896D01*
X47775Y-28896D01*
X47775Y-24896D01*
X47695Y-24703D01*
X47547Y-24555D01*
X47354Y-24475D01*
X47146Y-24474D01*
X46953Y-24554D01*
X46805Y-24702D01*
X46725Y-24895D01*
X46724Y-25103D01*
X46804Y-25297D01*
X46952Y-25444D01*
X47145Y-25524D01*
X47353Y-25525D01*
X47547Y-25445D01*
X47694Y-25297D01*
X47774Y-25104D01*
X47775Y-24896D01*
X47775Y-28896D01*
X47695Y-28703D01*
X47547Y-28555D01*
X47354Y-28475D01*
X47146Y-28474D01*
X46953Y-28554D01*
X46805Y-28702D01*
X46725Y-28895D01*
X46724Y-29103D01*
X46804Y-29297D01*
X46952Y-29444D01*
X47145Y-29524D01*
X47353Y-29525D01*
X47547Y-29445D01*
X47694Y-29297D01*
X47774Y-29104D01*
X47775Y-28896D01*
X47775Y-30896D01*
X47695Y-30703D01*
X47547Y-30555D01*
X47354Y-30475D01*
X47146Y-30474D01*
X46953Y-30554D01*
X46805Y-30702D01*
X46725Y-30895D01*
X46724Y-31103D01*
X46804Y-31297D01*
X46952Y-31444D01*
X47145Y-31524D01*
X47353Y-31525D01*
X47547Y-31445D01*
X47694Y-31297D01*
X47774Y-31104D01*
X47775Y-30896D01*
X47775Y-36800D01*
X47525Y-37050D01*
X47525Y-34146D01*
X47445Y-33953D01*
X47297Y-33805D01*
X47104Y-33725D01*
X46896Y-33724D01*
X46703Y-33804D01*
X46555Y-33952D01*
X46475Y-34145D01*
X46474Y-34353D01*
X46554Y-34547D01*
X46702Y-34694D01*
X46895Y-34774D01*
X47103Y-34775D01*
X47297Y-34695D01*
X47444Y-34547D01*
X47524Y-34354D01*
X47525Y-34146D01*
X47525Y-37050D01*
X47278Y-37297D01*
X47104Y-37225D01*
X46896Y-37224D01*
X46703Y-37304D01*
X46555Y-37452D01*
X46475Y-37645D01*
X46474Y-37853D01*
X46554Y-38047D01*
X46702Y-38194D01*
X46895Y-38274D01*
X47103Y-38275D01*
X47297Y-38195D01*
X47444Y-38047D01*
X47493Y-37930D01*
X48624Y-36800D01*
X49625Y-36800D01*
X50475Y-37649D01*
X50474Y-37853D01*
X50554Y-38047D01*
X50702Y-38194D01*
X50895Y-38274D01*
X51103Y-38275D01*
X51200Y-38235D01*
X51200Y-38875D01*
X50875Y-39200D01*
X49025Y-39200D01*
X49025Y-37646D01*
X48945Y-37453D01*
X48797Y-37305D01*
X48604Y-37225D01*
X48396Y-37224D01*
X48203Y-37304D01*
X48055Y-37452D01*
X47975Y-37645D01*
X47974Y-37853D01*
X48054Y-38047D01*
X48202Y-38194D01*
X48395Y-38274D01*
X48603Y-38275D01*
X48797Y-38195D01*
X48944Y-38047D01*
X49024Y-37854D01*
X49025Y-37646D01*
X49025Y-39200D01*
X49000Y-39200D01*
X48885Y-39222D01*
X48787Y-39287D01*
X48100Y-39975D01*
X47896Y-39974D01*
X47703Y-40054D01*
X47555Y-40202D01*
X47499Y-40335D01*
X47445Y-40203D01*
X47297Y-40055D01*
X47104Y-39975D01*
X46896Y-39974D01*
X46703Y-40054D01*
X46555Y-40202D01*
X46499Y-40335D01*
X46445Y-40203D01*
X46297Y-40055D01*
X46104Y-39975D01*
X45896Y-39974D01*
X45703Y-40054D01*
X45555Y-40202D01*
X45499Y-40335D01*
X45445Y-40203D01*
X45300Y-40057D01*
X45300Y-38801D01*
X45360Y-38741D01*
X45424Y-38584D01*
X45425Y-38415D01*
X45360Y-38260D01*
X45395Y-38274D01*
X45603Y-38275D01*
X45797Y-38195D01*
X45944Y-38047D01*
X46024Y-37854D01*
X46025Y-37646D01*
X46025Y-34146D01*
X45945Y-33953D01*
X45797Y-33805D01*
X45604Y-33725D01*
X45396Y-33724D01*
X45203Y-33804D01*
X45055Y-33952D01*
X44975Y-34145D01*
X44974Y-34353D01*
X45054Y-34547D01*
X45202Y-34694D01*
X45395Y-34774D01*
X45603Y-34775D01*
X45797Y-34695D01*
X45944Y-34547D01*
X46024Y-34354D01*
X46025Y-34146D01*
X46025Y-37646D01*
X45945Y-37453D01*
X45797Y-37305D01*
X45680Y-37256D01*
X44712Y-36287D01*
X44614Y-36222D01*
X44525Y-36204D01*
X44525Y-34146D01*
X44445Y-33953D01*
X44297Y-33805D01*
X44275Y-33795D01*
X44275Y-30896D01*
X44275Y-28896D01*
X44275Y-24896D01*
X44195Y-24703D01*
X44047Y-24555D01*
X43854Y-24475D01*
X43646Y-24474D01*
X43453Y-24554D01*
X43305Y-24702D01*
X43228Y-24886D01*
X43228Y-20123D01*
X43220Y-19835D01*
X43126Y-19606D01*
X42977Y-19593D01*
X42906Y-19664D01*
X42906Y-19522D01*
X42893Y-19373D01*
X42623Y-19271D01*
X42335Y-19279D01*
X42106Y-19373D01*
X42093Y-19522D01*
X42500Y-19929D01*
X42906Y-19522D01*
X42906Y-19664D01*
X42570Y-20000D01*
X42977Y-20406D01*
X43126Y-20393D01*
X43228Y-20123D01*
X43228Y-24886D01*
X43225Y-24895D01*
X43224Y-25103D01*
X43304Y-25297D01*
X43452Y-25444D01*
X43645Y-25524D01*
X43853Y-25525D01*
X44047Y-25445D01*
X44194Y-25297D01*
X44274Y-25104D01*
X44275Y-24896D01*
X44275Y-28896D01*
X44195Y-28703D01*
X44047Y-28555D01*
X43854Y-28475D01*
X43646Y-28474D01*
X43453Y-28554D01*
X43305Y-28702D01*
X43225Y-28895D01*
X43224Y-29103D01*
X43304Y-29297D01*
X43452Y-29444D01*
X43645Y-29524D01*
X43853Y-29525D01*
X44047Y-29445D01*
X44194Y-29297D01*
X44274Y-29104D01*
X44275Y-28896D01*
X44275Y-30896D01*
X44195Y-30703D01*
X44047Y-30555D01*
X43854Y-30475D01*
X43646Y-30474D01*
X43453Y-30554D01*
X43305Y-30702D01*
X43225Y-30895D01*
X43224Y-31103D01*
X43304Y-31297D01*
X43452Y-31444D01*
X43645Y-31524D01*
X43853Y-31525D01*
X44047Y-31445D01*
X44194Y-31297D01*
X44274Y-31104D01*
X44275Y-30896D01*
X44275Y-33795D01*
X44104Y-33725D01*
X43896Y-33724D01*
X43703Y-33804D01*
X43555Y-33952D01*
X43475Y-34145D01*
X43474Y-34353D01*
X43554Y-34547D01*
X43702Y-34694D01*
X43895Y-34774D01*
X44103Y-34775D01*
X44297Y-34695D01*
X44444Y-34547D01*
X44524Y-34354D01*
X44525Y-34146D01*
X44525Y-36204D01*
X44500Y-36200D01*
X41500Y-36200D01*
X41385Y-36222D01*
X41287Y-36287D01*
X40787Y-36787D01*
X40722Y-36885D01*
X40700Y-37000D01*
X40700Y-37714D01*
X40695Y-37703D01*
X40547Y-37555D01*
X40354Y-37475D01*
X40300Y-37475D01*
X40300Y-35624D01*
X41374Y-34550D01*
X42057Y-34550D01*
X42202Y-34694D01*
X42395Y-34774D01*
X42603Y-34775D01*
X42797Y-34695D01*
X42944Y-34547D01*
X43024Y-34354D01*
X43025Y-34146D01*
X42945Y-33953D01*
X42906Y-33913D01*
X42906Y-20477D01*
X42500Y-20070D01*
X42429Y-20141D01*
X42429Y-20000D01*
X42189Y-19760D01*
X42126Y-19606D01*
X42027Y-19598D01*
X42022Y-19593D01*
X42000Y-19595D01*
X41977Y-19593D01*
X41972Y-19598D01*
X41906Y-19604D01*
X41906Y-19522D01*
X41893Y-19373D01*
X41623Y-19271D01*
X41335Y-19279D01*
X41106Y-19373D01*
X41093Y-19522D01*
X41500Y-19929D01*
X41906Y-19522D01*
X41906Y-19604D01*
X41873Y-19606D01*
X41818Y-19752D01*
X41570Y-20000D01*
X41810Y-20239D01*
X41873Y-20393D01*
X41972Y-20401D01*
X41977Y-20406D01*
X42000Y-20404D01*
X42022Y-20406D01*
X42027Y-20401D01*
X42126Y-20393D01*
X42181Y-20247D01*
X42429Y-20000D01*
X42429Y-20141D01*
X42093Y-20477D01*
X42106Y-20626D01*
X42376Y-20728D01*
X42664Y-20720D01*
X42893Y-20626D01*
X42906Y-20477D01*
X42906Y-33913D01*
X42797Y-33805D01*
X42775Y-33795D01*
X42775Y-31896D01*
X42775Y-29896D01*
X42775Y-27896D01*
X42775Y-25896D01*
X42775Y-23896D01*
X42695Y-23703D01*
X42547Y-23555D01*
X42354Y-23475D01*
X42146Y-23474D01*
X41953Y-23554D01*
X41906Y-23601D01*
X41906Y-20477D01*
X41500Y-20070D01*
X41429Y-20141D01*
X41429Y-20000D01*
X41022Y-19593D01*
X40873Y-19606D01*
X40867Y-19624D01*
X40797Y-19555D01*
X40604Y-19475D01*
X40396Y-19474D01*
X40203Y-19554D01*
X40055Y-19702D01*
X39999Y-19835D01*
X39945Y-19703D01*
X39797Y-19555D01*
X39604Y-19475D01*
X39396Y-19474D01*
X39203Y-19554D01*
X39055Y-19702D01*
X39025Y-19774D01*
X39025Y-19675D01*
X38987Y-19583D01*
X38916Y-19513D01*
X38824Y-19475D01*
X38725Y-19474D01*
X38175Y-19474D01*
X38083Y-19512D01*
X38013Y-19583D01*
X37975Y-19675D01*
X37974Y-19774D01*
X37974Y-20324D01*
X38012Y-20416D01*
X38083Y-20486D01*
X38175Y-20524D01*
X38274Y-20525D01*
X38824Y-20525D01*
X38916Y-20487D01*
X38986Y-20416D01*
X39024Y-20324D01*
X39025Y-20225D01*
X39025Y-20225D01*
X39054Y-20297D01*
X39202Y-20444D01*
X39395Y-20524D01*
X39603Y-20525D01*
X39797Y-20445D01*
X39944Y-20297D01*
X40000Y-20164D01*
X40054Y-20297D01*
X40202Y-20444D01*
X40395Y-20524D01*
X40603Y-20525D01*
X40797Y-20445D01*
X40866Y-20375D01*
X40873Y-20393D01*
X41022Y-20406D01*
X41429Y-20000D01*
X41429Y-20141D01*
X41093Y-20477D01*
X41106Y-20626D01*
X41376Y-20728D01*
X41664Y-20720D01*
X41893Y-20626D01*
X41906Y-20477D01*
X41906Y-23601D01*
X41805Y-23702D01*
X41725Y-23895D01*
X41724Y-24103D01*
X41804Y-24297D01*
X41952Y-24444D01*
X42145Y-24524D01*
X42353Y-24525D01*
X42547Y-24445D01*
X42694Y-24297D01*
X42774Y-24104D01*
X42775Y-23896D01*
X42775Y-25896D01*
X42695Y-25703D01*
X42547Y-25555D01*
X42354Y-25475D01*
X42146Y-25474D01*
X41953Y-25554D01*
X41805Y-25702D01*
X41725Y-25895D01*
X41724Y-26103D01*
X41804Y-26297D01*
X41952Y-26444D01*
X42145Y-26524D01*
X42353Y-26525D01*
X42547Y-26445D01*
X42694Y-26297D01*
X42774Y-26104D01*
X42775Y-25896D01*
X42775Y-27896D01*
X42695Y-27703D01*
X42547Y-27555D01*
X42354Y-27475D01*
X42146Y-27474D01*
X41953Y-27554D01*
X41805Y-27702D01*
X41725Y-27895D01*
X41724Y-28103D01*
X41804Y-28297D01*
X41952Y-28444D01*
X42145Y-28524D01*
X42353Y-28525D01*
X42547Y-28445D01*
X42694Y-28297D01*
X42774Y-28104D01*
X42775Y-27896D01*
X42775Y-29896D01*
X42695Y-29703D01*
X42547Y-29555D01*
X42354Y-29475D01*
X42146Y-29474D01*
X41953Y-29554D01*
X41805Y-29702D01*
X41725Y-29895D01*
X41724Y-30103D01*
X41804Y-30297D01*
X41952Y-30444D01*
X42145Y-30524D01*
X42353Y-30525D01*
X42547Y-30445D01*
X42694Y-30297D01*
X42774Y-30104D01*
X42775Y-29896D01*
X42775Y-31896D01*
X42695Y-31703D01*
X42547Y-31555D01*
X42354Y-31475D01*
X42146Y-31474D01*
X41953Y-31554D01*
X41805Y-31702D01*
X41725Y-31895D01*
X41724Y-32103D01*
X41804Y-32297D01*
X41952Y-32444D01*
X42145Y-32524D01*
X42353Y-32525D01*
X42547Y-32445D01*
X42694Y-32297D01*
X42774Y-32104D01*
X42775Y-31896D01*
X42775Y-33795D01*
X42604Y-33725D01*
X42396Y-33724D01*
X42203Y-33804D01*
X42057Y-33950D01*
X41250Y-33950D01*
X41135Y-33972D01*
X41037Y-34037D01*
X39787Y-35287D01*
X39722Y-35385D01*
X39700Y-35500D01*
X39700Y-37375D01*
X39275Y-37800D01*
X39275Y-31896D01*
X39275Y-29896D01*
X39275Y-27896D01*
X39275Y-25896D01*
X39275Y-23896D01*
X39195Y-23703D01*
X39047Y-23555D01*
X38854Y-23475D01*
X38646Y-23474D01*
X38453Y-23554D01*
X38305Y-23702D01*
X38255Y-23822D01*
X38255Y-21053D01*
X37912Y-20224D01*
X37279Y-19589D01*
X36450Y-19245D01*
X35553Y-19244D01*
X34724Y-19587D01*
X34089Y-20220D01*
X33745Y-21049D01*
X33744Y-21946D01*
X34087Y-22775D01*
X34720Y-23410D01*
X35549Y-23754D01*
X36446Y-23755D01*
X37275Y-23412D01*
X37910Y-22779D01*
X38254Y-21950D01*
X38255Y-21053D01*
X38255Y-23822D01*
X38225Y-23895D01*
X38224Y-24103D01*
X38304Y-24297D01*
X38452Y-24444D01*
X38645Y-24524D01*
X38853Y-24525D01*
X39047Y-24445D01*
X39194Y-24297D01*
X39274Y-24104D01*
X39275Y-23896D01*
X39275Y-25896D01*
X39195Y-25703D01*
X39047Y-25555D01*
X38854Y-25475D01*
X38646Y-25474D01*
X38453Y-25554D01*
X38305Y-25702D01*
X38225Y-25895D01*
X38224Y-26103D01*
X38304Y-26297D01*
X38452Y-26444D01*
X38645Y-26524D01*
X38853Y-26525D01*
X39047Y-26445D01*
X39194Y-26297D01*
X39274Y-26104D01*
X39275Y-25896D01*
X39275Y-27896D01*
X39195Y-27703D01*
X39047Y-27555D01*
X38854Y-27475D01*
X38646Y-27474D01*
X38453Y-27554D01*
X38305Y-27702D01*
X38225Y-27895D01*
X38224Y-28103D01*
X38304Y-28297D01*
X38452Y-28444D01*
X38645Y-28524D01*
X38853Y-28525D01*
X39047Y-28445D01*
X39194Y-28297D01*
X39274Y-28104D01*
X39275Y-27896D01*
X39275Y-29896D01*
X39195Y-29703D01*
X39047Y-29555D01*
X38854Y-29475D01*
X38646Y-29474D01*
X38453Y-29554D01*
X38305Y-29702D01*
X38225Y-29895D01*
X38224Y-30103D01*
X38304Y-30297D01*
X38452Y-30444D01*
X38645Y-30524D01*
X38853Y-30525D01*
X39047Y-30445D01*
X39194Y-30297D01*
X39274Y-30104D01*
X39275Y-29896D01*
X39275Y-31896D01*
X39195Y-31703D01*
X39047Y-31555D01*
X38854Y-31475D01*
X38646Y-31474D01*
X38453Y-31554D01*
X38305Y-31702D01*
X38225Y-31895D01*
X38224Y-32103D01*
X38304Y-32297D01*
X38452Y-32444D01*
X38645Y-32524D01*
X38853Y-32525D01*
X39047Y-32445D01*
X39194Y-32297D01*
X39274Y-32104D01*
X39275Y-31896D01*
X39275Y-37800D01*
X38787Y-38287D01*
X38722Y-38385D01*
X38700Y-38500D01*
X38700Y-38775D01*
X37712Y-37787D01*
X37614Y-37722D01*
X37500Y-37700D01*
X37192Y-37700D01*
X37047Y-37555D01*
X36854Y-37475D01*
X36646Y-37474D01*
X36453Y-37554D01*
X36305Y-37702D01*
X36225Y-37895D01*
X36224Y-38103D01*
X36304Y-38297D01*
X36452Y-38444D01*
X36585Y-38500D01*
X36453Y-38554D01*
X36305Y-38702D01*
X36225Y-38895D01*
X36224Y-39103D01*
X36304Y-39297D01*
X36452Y-39444D01*
X36585Y-39500D01*
X36453Y-39554D01*
X36305Y-39702D01*
X36225Y-39895D01*
X36224Y-40103D01*
X36304Y-40297D01*
X36452Y-40444D01*
X36585Y-40500D01*
X36453Y-40554D01*
X36305Y-40702D01*
X36225Y-40895D01*
X36224Y-41103D01*
X36304Y-41297D01*
X36452Y-41444D01*
X36645Y-41524D01*
X36853Y-41525D01*
X37028Y-41452D01*
X37200Y-41624D01*
X37200Y-42714D01*
X37195Y-42703D01*
X37047Y-42555D01*
X36854Y-42475D01*
X36646Y-42474D01*
X36453Y-42554D01*
X36305Y-42702D01*
X36225Y-42895D01*
X36224Y-43100D01*
X35287Y-44037D01*
X35225Y-44131D01*
X35225Y-33364D01*
X35225Y-32635D01*
X35156Y-32470D01*
X35030Y-32343D01*
X34937Y-32305D01*
X34944Y-32297D01*
X35024Y-32104D01*
X35025Y-31896D01*
X34945Y-31703D01*
X34797Y-31555D01*
X34664Y-31499D01*
X34797Y-31445D01*
X34944Y-31297D01*
X35024Y-31104D01*
X35025Y-30896D01*
X34945Y-30703D01*
X34797Y-30555D01*
X34664Y-30499D01*
X34797Y-30445D01*
X34944Y-30297D01*
X35024Y-30104D01*
X35025Y-29896D01*
X34945Y-29703D01*
X34797Y-29555D01*
X34664Y-29499D01*
X34797Y-29445D01*
X34944Y-29297D01*
X35024Y-29104D01*
X35025Y-28896D01*
X34945Y-28703D01*
X34797Y-28555D01*
X34664Y-28499D01*
X34797Y-28445D01*
X34944Y-28297D01*
X35024Y-28104D01*
X35025Y-27896D01*
X34945Y-27703D01*
X34797Y-27555D01*
X34664Y-27499D01*
X34797Y-27445D01*
X34944Y-27297D01*
X35024Y-27104D01*
X35025Y-26896D01*
X34945Y-26703D01*
X34797Y-26555D01*
X34664Y-26499D01*
X34797Y-26445D01*
X34944Y-26297D01*
X35024Y-26104D01*
X35025Y-25896D01*
X34945Y-25703D01*
X34797Y-25555D01*
X34664Y-25499D01*
X34797Y-25445D01*
X34944Y-25297D01*
X35024Y-25104D01*
X35025Y-24896D01*
X34945Y-24703D01*
X34797Y-24555D01*
X34664Y-24499D01*
X34797Y-24445D01*
X34944Y-24297D01*
X35024Y-24104D01*
X35025Y-23896D01*
X34945Y-23703D01*
X34797Y-23555D01*
X34604Y-23475D01*
X34396Y-23474D01*
X34203Y-23554D01*
X34055Y-23702D01*
X33975Y-23895D01*
X33974Y-24103D01*
X34054Y-24297D01*
X34202Y-24444D01*
X34335Y-24500D01*
X34203Y-24554D01*
X34055Y-24702D01*
X33975Y-24895D01*
X33974Y-25103D01*
X34054Y-25297D01*
X34202Y-25444D01*
X34335Y-25500D01*
X34203Y-25554D01*
X34055Y-25702D01*
X33975Y-25895D01*
X33974Y-26103D01*
X34054Y-26297D01*
X34202Y-26444D01*
X34335Y-26500D01*
X34203Y-26554D01*
X34055Y-26702D01*
X33975Y-26895D01*
X33974Y-27103D01*
X34054Y-27297D01*
X34202Y-27444D01*
X34335Y-27500D01*
X34203Y-27554D01*
X34055Y-27702D01*
X33975Y-27895D01*
X33974Y-28103D01*
X34054Y-28297D01*
X34202Y-28444D01*
X34335Y-28500D01*
X34203Y-28554D01*
X34055Y-28702D01*
X33975Y-28895D01*
X33974Y-29103D01*
X34054Y-29297D01*
X34202Y-29444D01*
X34335Y-29500D01*
X34203Y-29554D01*
X34055Y-29702D01*
X33975Y-29895D01*
X33974Y-30103D01*
X34054Y-30297D01*
X34202Y-30444D01*
X34335Y-30500D01*
X34203Y-30554D01*
X34055Y-30702D01*
X33975Y-30895D01*
X33974Y-31103D01*
X34054Y-31297D01*
X34202Y-31444D01*
X34335Y-31500D01*
X34203Y-31554D01*
X34055Y-31702D01*
X33975Y-31895D01*
X33974Y-32103D01*
X34054Y-32297D01*
X34062Y-32305D01*
X33969Y-32343D01*
X33843Y-32470D01*
X33774Y-32635D01*
X33775Y-32837D01*
X33887Y-32950D01*
X34450Y-32950D01*
X34450Y-32942D01*
X34550Y-32942D01*
X34550Y-32950D01*
X35112Y-32950D01*
X35225Y-32837D01*
X35225Y-32635D01*
X35225Y-33364D01*
X35225Y-33162D01*
X35112Y-33050D01*
X34550Y-33050D01*
X34550Y-33612D01*
X34662Y-33725D01*
X34685Y-33725D01*
X34864Y-33724D01*
X35030Y-33656D01*
X35156Y-33529D01*
X35225Y-33364D01*
X35225Y-44131D01*
X35222Y-44135D01*
X35200Y-44250D01*
X35200Y-46785D01*
X35126Y-46606D01*
X35025Y-46597D01*
X35025Y-45896D01*
X34945Y-45703D01*
X34797Y-45555D01*
X34664Y-45499D01*
X34797Y-45445D01*
X34944Y-45297D01*
X35024Y-45104D01*
X35025Y-44896D01*
X34945Y-44703D01*
X34797Y-44555D01*
X34664Y-44499D01*
X34797Y-44445D01*
X34944Y-44297D01*
X35024Y-44104D01*
X35025Y-43896D01*
X34945Y-43703D01*
X34797Y-43555D01*
X34664Y-43499D01*
X34797Y-43445D01*
X34944Y-43297D01*
X35024Y-43104D01*
X35025Y-42896D01*
X34945Y-42703D01*
X34797Y-42555D01*
X34664Y-42499D01*
X34797Y-42445D01*
X34944Y-42297D01*
X35024Y-42104D01*
X35025Y-41896D01*
X34945Y-41703D01*
X34797Y-41555D01*
X34664Y-41499D01*
X34797Y-41445D01*
X34944Y-41297D01*
X35024Y-41104D01*
X35025Y-40896D01*
X34945Y-40703D01*
X34797Y-40555D01*
X34664Y-40499D01*
X34797Y-40445D01*
X34944Y-40297D01*
X35024Y-40104D01*
X35025Y-39896D01*
X34945Y-39703D01*
X34797Y-39555D01*
X34664Y-39499D01*
X34797Y-39445D01*
X34944Y-39297D01*
X35024Y-39104D01*
X35025Y-38896D01*
X34945Y-38703D01*
X34797Y-38555D01*
X34725Y-38525D01*
X34824Y-38525D01*
X34916Y-38487D01*
X34986Y-38416D01*
X35024Y-38324D01*
X35025Y-38225D01*
X35025Y-37675D01*
X34987Y-37583D01*
X34916Y-37513D01*
X34824Y-37475D01*
X34725Y-37474D01*
X34450Y-37474D01*
X34450Y-33612D01*
X34450Y-33050D01*
X33887Y-33050D01*
X33775Y-33162D01*
X33774Y-33364D01*
X33843Y-33529D01*
X33969Y-33656D01*
X34135Y-33724D01*
X34314Y-33725D01*
X34337Y-33725D01*
X34450Y-33612D01*
X34450Y-37474D01*
X34175Y-37474D01*
X34083Y-37512D01*
X34013Y-37583D01*
X33975Y-37675D01*
X33974Y-37774D01*
X33974Y-38324D01*
X34012Y-38416D01*
X34083Y-38486D01*
X34175Y-38524D01*
X34274Y-38525D01*
X34274Y-38525D01*
X34203Y-38554D01*
X34055Y-38702D01*
X33975Y-38895D01*
X33974Y-39103D01*
X34054Y-39297D01*
X34202Y-39444D01*
X34335Y-39500D01*
X34203Y-39554D01*
X34055Y-39702D01*
X33975Y-39895D01*
X33974Y-40103D01*
X34054Y-40297D01*
X34202Y-40444D01*
X34335Y-40500D01*
X34203Y-40554D01*
X34055Y-40702D01*
X33975Y-40895D01*
X33974Y-41103D01*
X34054Y-41297D01*
X34202Y-41444D01*
X34335Y-41500D01*
X34203Y-41554D01*
X34055Y-41702D01*
X33975Y-41895D01*
X33974Y-42103D01*
X34054Y-42297D01*
X34202Y-42444D01*
X34335Y-42500D01*
X34203Y-42554D01*
X34055Y-42702D01*
X33975Y-42895D01*
X33974Y-43103D01*
X34054Y-43297D01*
X34202Y-43444D01*
X34335Y-43500D01*
X34203Y-43554D01*
X34055Y-43702D01*
X33975Y-43895D01*
X33974Y-44103D01*
X34054Y-44297D01*
X34202Y-44444D01*
X34335Y-44500D01*
X34203Y-44554D01*
X34055Y-44702D01*
X33975Y-44895D01*
X33974Y-45103D01*
X34054Y-45297D01*
X34202Y-45444D01*
X34335Y-45500D01*
X34203Y-45554D01*
X34055Y-45702D01*
X33975Y-45895D01*
X33974Y-46103D01*
X34054Y-46297D01*
X34124Y-46366D01*
X34106Y-46373D01*
X34093Y-46522D01*
X34500Y-46929D01*
X34906Y-46522D01*
X34893Y-46373D01*
X34875Y-46367D01*
X34944Y-46297D01*
X35024Y-46104D01*
X35025Y-45896D01*
X35025Y-46597D01*
X34977Y-46593D01*
X34570Y-47000D01*
X34977Y-47406D01*
X35126Y-47393D01*
X35200Y-47199D01*
X35200Y-52307D01*
X35055Y-52452D01*
X34975Y-52645D01*
X34974Y-52853D01*
X35054Y-53047D01*
X35202Y-53194D01*
X35395Y-53274D01*
X35603Y-53275D01*
X35797Y-53195D01*
X35944Y-53047D01*
X36024Y-52854D01*
X36025Y-52646D01*
X35945Y-52453D01*
X35800Y-52307D01*
X35800Y-44374D01*
X36225Y-43949D01*
X36224Y-44103D01*
X36304Y-44297D01*
X36452Y-44444D01*
X36585Y-44500D01*
X36453Y-44554D01*
X36305Y-44702D01*
X36225Y-44895D01*
X36224Y-45103D01*
X36304Y-45297D01*
X36452Y-45444D01*
X36585Y-45500D01*
X36453Y-45554D01*
X36305Y-45702D01*
X36225Y-45895D01*
X36224Y-46103D01*
X36304Y-46297D01*
X36452Y-46444D01*
X36645Y-46524D01*
X36853Y-46525D01*
X37047Y-46445D01*
X37194Y-46297D01*
X37200Y-46285D01*
X37200Y-51000D01*
X37222Y-51114D01*
X37287Y-51212D01*
X37787Y-51712D01*
X37787Y-51712D01*
X37885Y-51777D01*
X38000Y-51800D01*
X40125Y-51800D01*
X40975Y-52649D01*
X40974Y-52853D01*
X41054Y-53047D01*
X41202Y-53194D01*
X41395Y-53274D01*
X41603Y-53275D01*
X41797Y-53195D01*
X41944Y-53047D01*
X42024Y-52854D01*
X42025Y-52646D01*
X41945Y-52453D01*
X41797Y-52305D01*
X41604Y-52225D01*
X41399Y-52224D01*
X40474Y-51300D01*
X40875Y-51300D01*
X42506Y-52931D01*
X42554Y-53047D01*
X42702Y-53194D01*
X42895Y-53274D01*
X43103Y-53275D01*
X43297Y-53195D01*
X43444Y-53047D01*
X43524Y-52854D01*
X43525Y-52646D01*
X43445Y-52453D01*
X43297Y-52305D01*
X43104Y-52225D01*
X42896Y-52224D01*
X42721Y-52297D01*
X41212Y-50787D01*
X41114Y-50722D01*
X41000Y-50700D01*
X39124Y-50700D01*
X38300Y-49875D01*
X38300Y-49724D01*
X38787Y-50212D01*
X38787Y-50212D01*
X38885Y-50277D01*
X39000Y-50300D01*
X40875Y-50300D01*
X42287Y-51712D01*
X42287Y-51712D01*
X42385Y-51777D01*
X42500Y-51800D01*
X43375Y-51800D01*
X44047Y-52471D01*
X43975Y-52645D01*
X43974Y-52853D01*
X44054Y-53047D01*
X44202Y-53194D01*
X44395Y-53274D01*
X44603Y-53275D01*
X44797Y-53195D01*
X44944Y-53047D01*
X45024Y-52854D01*
X45025Y-52646D01*
X44945Y-52453D01*
X44797Y-52305D01*
X44680Y-52256D01*
X43724Y-51300D01*
X44125Y-51300D01*
X45475Y-52649D01*
X45474Y-52853D01*
X45554Y-53047D01*
X45702Y-53194D01*
X45895Y-53274D01*
X46103Y-53275D01*
X46200Y-53235D01*
X46200Y-53875D01*
X45787Y-54287D01*
X45722Y-54385D01*
X45700Y-54500D01*
X45700Y-55807D01*
X45555Y-55952D01*
X45475Y-56145D01*
X45474Y-56353D01*
X45554Y-56547D01*
X45702Y-56694D01*
X45895Y-56774D01*
X46103Y-56775D01*
X46297Y-56695D01*
X46444Y-56547D01*
X46524Y-56354D01*
X46525Y-56146D01*
X46445Y-55953D01*
X46300Y-55807D01*
X46300Y-54624D01*
X46712Y-54212D01*
X46712Y-54212D01*
X46777Y-54114D01*
X46799Y-54000D01*
X46800Y-54000D01*
X46800Y-51877D01*
X46915Y-51924D01*
X47084Y-51925D01*
X47240Y-51860D01*
X47301Y-51800D01*
X50875Y-51800D01*
X52287Y-53212D01*
X52287Y-53212D01*
X52385Y-53277D01*
X52500Y-53300D01*
X58375Y-53300D01*
X58700Y-53624D01*
X58700Y-55307D01*
X58555Y-55452D01*
X58475Y-55645D01*
X58474Y-55853D01*
X58554Y-56047D01*
X58702Y-56194D01*
X58895Y-56274D01*
X59103Y-56275D01*
X59297Y-56195D01*
X59444Y-56047D01*
X59524Y-55854D01*
X59525Y-55646D01*
X59445Y-55453D01*
X59300Y-55307D01*
X59300Y-53500D01*
X59277Y-53385D01*
X59212Y-53287D01*
X59212Y-53287D01*
X58712Y-52787D01*
X58614Y-52722D01*
X58500Y-52700D01*
X57285Y-52700D01*
X57297Y-52695D01*
X57444Y-52547D01*
X57524Y-52354D01*
X57525Y-52146D01*
X57525Y-49646D01*
X57445Y-49453D01*
X57297Y-49305D01*
X57104Y-49225D01*
X56896Y-49224D01*
X56703Y-49304D01*
X56555Y-49452D01*
X56475Y-49645D01*
X56474Y-49853D01*
X56554Y-50047D01*
X56702Y-50194D01*
X56895Y-50274D01*
X57103Y-50275D01*
X57297Y-50195D01*
X57444Y-50047D01*
X57524Y-49854D01*
X57525Y-49646D01*
X57525Y-52146D01*
X57445Y-51953D01*
X57297Y-51805D01*
X57104Y-51725D01*
X56896Y-51724D01*
X56703Y-51804D01*
X56555Y-51952D01*
X56475Y-52145D01*
X56474Y-52353D01*
X56554Y-52547D01*
X56702Y-52694D01*
X56714Y-52700D01*
X55285Y-52700D01*
X55297Y-52695D01*
X55444Y-52547D01*
X55524Y-52354D01*
X55525Y-52146D01*
X55445Y-51953D01*
X55300Y-51807D01*
X55300Y-51624D01*
X56212Y-50712D01*
X56212Y-50712D01*
X56277Y-50614D01*
X56299Y-50500D01*
X56300Y-50500D01*
X56300Y-49124D01*
X57212Y-48212D01*
X57212Y-48212D01*
X57277Y-48114D01*
X57299Y-48000D01*
X57300Y-48000D01*
X57300Y-47000D01*
X57300Y-46692D01*
X57442Y-46550D01*
X57750Y-46550D01*
X57750Y-46549D01*
X57864Y-46527D01*
X57864Y-46527D01*
X57962Y-46462D01*
X59124Y-45300D01*
X62000Y-45300D01*
X62000Y-45299D01*
X62114Y-45277D01*
X62114Y-45277D01*
X62212Y-45212D01*
X63212Y-44212D01*
X63212Y-44212D01*
X63277Y-44114D01*
X63299Y-44000D01*
X63300Y-44000D01*
X63300Y-42301D01*
X63360Y-42241D01*
X63424Y-42084D01*
X63425Y-41915D01*
X63360Y-41759D01*
X63241Y-41639D01*
X63084Y-41575D01*
X62915Y-41574D01*
X62802Y-41621D01*
X64090Y-40333D01*
X64202Y-40444D01*
X64335Y-40500D01*
X64203Y-40554D01*
X64055Y-40702D01*
X63975Y-40895D01*
X63974Y-41103D01*
X64054Y-41297D01*
X64202Y-41444D01*
X64335Y-41500D01*
X64203Y-41554D01*
X64055Y-41702D01*
X63975Y-41895D01*
X63974Y-42103D01*
X64054Y-42297D01*
X64202Y-42444D01*
X64335Y-42500D01*
X64203Y-42554D01*
X64055Y-42702D01*
X63975Y-42895D01*
X63974Y-43103D01*
X64054Y-43297D01*
X64202Y-43444D01*
X64335Y-43500D01*
X64203Y-43554D01*
X64055Y-43702D01*
X63975Y-43895D01*
X63974Y-44103D01*
X64054Y-44297D01*
X64202Y-44444D01*
X64335Y-44500D01*
X64203Y-44554D01*
X64055Y-44702D01*
X63975Y-44895D01*
X63974Y-45103D01*
X64054Y-45297D01*
X64202Y-45444D01*
X64335Y-45500D01*
X64203Y-45554D01*
X64055Y-45702D01*
X63975Y-45895D01*
X63974Y-46103D01*
X64054Y-46297D01*
X64202Y-46444D01*
X64335Y-46500D01*
X64203Y-46554D01*
X64055Y-46702D01*
X63975Y-46895D01*
X63974Y-47103D01*
X64054Y-47297D01*
X64202Y-47444D01*
X64335Y-47500D01*
X64203Y-47554D01*
X64055Y-47702D01*
X63975Y-47895D01*
X63974Y-48103D01*
X64054Y-48297D01*
X64202Y-48444D01*
X64335Y-48500D01*
X64203Y-48554D01*
X64055Y-48702D01*
X63975Y-48895D01*
X63974Y-49103D01*
X64054Y-49297D01*
X64202Y-49444D01*
X64335Y-49500D01*
X64203Y-49554D01*
X64055Y-49702D01*
X63975Y-49895D01*
X63974Y-50103D01*
X64054Y-50297D01*
X64202Y-50444D01*
X64395Y-50524D01*
X64603Y-50525D01*
X64797Y-50445D01*
X64942Y-50300D01*
X67000Y-50300D01*
X67000Y-50299D01*
X67114Y-50277D01*
X67114Y-50277D01*
X67212Y-50212D01*
X69712Y-47712D01*
X69777Y-47614D01*
X69799Y-47500D01*
X69800Y-47500D01*
X69800Y-46214D01*
X69873Y-46393D01*
X70022Y-46406D01*
X70429Y-46000D01*
X70022Y-45593D01*
X69873Y-45606D01*
X69800Y-45800D01*
X69800Y-36124D01*
X70712Y-35212D01*
X70712Y-35212D01*
X70777Y-35114D01*
X70799Y-35000D01*
X70800Y-35000D01*
X70800Y-34377D01*
X70915Y-34424D01*
X71000Y-34425D01*
X72287Y-35712D01*
X72287Y-35712D01*
X72385Y-35777D01*
X72500Y-35800D01*
X76057Y-35800D01*
X76202Y-35944D01*
X76335Y-36000D01*
X76203Y-36054D01*
X76055Y-36202D01*
X75975Y-36395D01*
X75974Y-36603D01*
X76054Y-36797D01*
X76062Y-36805D01*
X75969Y-36843D01*
X75843Y-36970D01*
X75774Y-37135D01*
X75775Y-37337D01*
X75887Y-37450D01*
X76450Y-37450D01*
X76450Y-37442D01*
X76550Y-37442D01*
X76550Y-37450D01*
X76557Y-37450D01*
X76557Y-37550D01*
X76550Y-37550D01*
X76550Y-38112D01*
X76662Y-38225D01*
X76685Y-38225D01*
X76864Y-38224D01*
X77030Y-38156D01*
X77156Y-38029D01*
X77200Y-37924D01*
X77200Y-38700D01*
X76450Y-38700D01*
X76450Y-38112D01*
X76450Y-37550D01*
X75887Y-37550D01*
X75775Y-37662D01*
X75774Y-37864D01*
X75843Y-38029D01*
X75969Y-38156D01*
X76135Y-38224D01*
X76314Y-38225D01*
X76337Y-38225D01*
X76450Y-38112D01*
X76450Y-38700D01*
X70942Y-38700D01*
X70797Y-38555D01*
X70664Y-38499D01*
X70797Y-38445D01*
X70942Y-38300D01*
X74698Y-38300D01*
X74758Y-38360D01*
X74915Y-38424D01*
X75084Y-38425D01*
X75240Y-38360D01*
X75360Y-38241D01*
X75424Y-38084D01*
X75425Y-37915D01*
X75360Y-37759D01*
X75241Y-37639D01*
X75084Y-37575D01*
X74915Y-37574D01*
X74759Y-37639D01*
X74698Y-37700D01*
X70942Y-37700D01*
X70797Y-37555D01*
X70664Y-37499D01*
X70797Y-37445D01*
X70944Y-37297D01*
X71024Y-37104D01*
X71025Y-36896D01*
X70945Y-36703D01*
X70797Y-36555D01*
X70604Y-36475D01*
X70396Y-36474D01*
X70203Y-36554D01*
X70055Y-36702D01*
X69975Y-36895D01*
X69974Y-37103D01*
X70054Y-37297D01*
X70202Y-37444D01*
X70335Y-37500D01*
X70203Y-37554D01*
X70055Y-37702D01*
X69975Y-37895D01*
X69974Y-38103D01*
X70054Y-38297D01*
X70202Y-38444D01*
X70335Y-38500D01*
X70203Y-38554D01*
X70055Y-38702D01*
X69975Y-38895D01*
X69974Y-39103D01*
X70054Y-39297D01*
X70202Y-39444D01*
X70335Y-39500D01*
X70203Y-39554D01*
X70055Y-39702D01*
X69975Y-39895D01*
X69974Y-40103D01*
X70054Y-40297D01*
X70202Y-40444D01*
X70335Y-40500D01*
X70203Y-40554D01*
X70055Y-40702D01*
X69975Y-40895D01*
X69974Y-41103D01*
X70054Y-41297D01*
X70202Y-41444D01*
X70335Y-41500D01*
X70203Y-41554D01*
X70055Y-41702D01*
X69975Y-41895D01*
X69974Y-42103D01*
X70054Y-42297D01*
X70202Y-42444D01*
X70335Y-42500D01*
X70203Y-42554D01*
X70055Y-42702D01*
X69975Y-42895D01*
X69974Y-43103D01*
X70054Y-43297D01*
X70202Y-43444D01*
X70335Y-43500D01*
X70203Y-43554D01*
X70055Y-43702D01*
X69975Y-43895D01*
X69974Y-44103D01*
X70054Y-44297D01*
X70202Y-44444D01*
X70335Y-44500D01*
X70203Y-44554D01*
X70055Y-44702D01*
X69975Y-44895D01*
X69974Y-45103D01*
X70054Y-45297D01*
X70124Y-45366D01*
X70106Y-45373D01*
X70093Y-45522D01*
X70500Y-45929D01*
X70906Y-45522D01*
X70893Y-45373D01*
X70875Y-45367D01*
X70944Y-45297D01*
X71024Y-45104D01*
X71025Y-44896D01*
X70945Y-44703D01*
X70797Y-44555D01*
X70664Y-44499D01*
X70797Y-44445D01*
X70944Y-44297D01*
X71024Y-44104D01*
X71025Y-43896D01*
X70945Y-43703D01*
X70797Y-43555D01*
X70664Y-43499D01*
X70797Y-43445D01*
X70942Y-43300D01*
X71500Y-43300D01*
X74000Y-43300D01*
X74000Y-43299D01*
X74114Y-43277D01*
X74114Y-43277D01*
X74212Y-43212D01*
X75124Y-42300D01*
X75500Y-42300D01*
X75875Y-42300D01*
X76354Y-42778D01*
X76335Y-42779D01*
X76106Y-42873D01*
X76093Y-43022D01*
X76500Y-43429D01*
X76505Y-43423D01*
X76576Y-43494D01*
X76570Y-43500D01*
X76977Y-43906D01*
X77126Y-43893D01*
X77200Y-43699D01*
X77200Y-46285D01*
X77126Y-46106D01*
X76977Y-46093D01*
X76906Y-46164D01*
X76906Y-46022D01*
X76906Y-43977D01*
X76500Y-43570D01*
X76429Y-43641D01*
X76429Y-43500D01*
X76022Y-43093D01*
X75873Y-43106D01*
X75867Y-43124D01*
X75797Y-43055D01*
X75604Y-42975D01*
X75396Y-42974D01*
X75203Y-43054D01*
X75055Y-43202D01*
X74975Y-43395D01*
X74974Y-43603D01*
X75054Y-43797D01*
X75202Y-43944D01*
X75395Y-44024D01*
X75603Y-44025D01*
X75797Y-43945D01*
X75866Y-43875D01*
X75873Y-43893D01*
X76022Y-43906D01*
X76429Y-43500D01*
X76429Y-43641D01*
X76093Y-43977D01*
X76106Y-44126D01*
X76376Y-44228D01*
X76664Y-44220D01*
X76893Y-44126D01*
X76906Y-43977D01*
X76906Y-46022D01*
X76893Y-45873D01*
X76623Y-45771D01*
X76335Y-45779D01*
X76106Y-45873D01*
X76093Y-46022D01*
X76500Y-46429D01*
X76906Y-46022D01*
X76906Y-46164D01*
X76570Y-46500D01*
X76977Y-46906D01*
X77126Y-46893D01*
X77200Y-46699D01*
X77200Y-59875D01*
X76906Y-60169D01*
X76906Y-46977D01*
X76500Y-46570D01*
X76429Y-46641D01*
X76429Y-46500D01*
X76022Y-46093D01*
X75873Y-46106D01*
X75867Y-46124D01*
X75797Y-46055D01*
X75604Y-45975D01*
X75396Y-45974D01*
X75203Y-46054D01*
X75055Y-46202D01*
X74975Y-46395D01*
X74974Y-46603D01*
X75054Y-46797D01*
X75202Y-46944D01*
X75395Y-47024D01*
X75603Y-47025D01*
X75797Y-46945D01*
X75866Y-46875D01*
X75873Y-46893D01*
X76022Y-46906D01*
X76429Y-46500D01*
X76429Y-46641D01*
X76093Y-46977D01*
X76106Y-47126D01*
X76376Y-47228D01*
X76664Y-47220D01*
X76893Y-47126D01*
X76906Y-46977D01*
X76906Y-60169D01*
X76275Y-60800D01*
X76275Y-47896D01*
X76195Y-47703D01*
X76047Y-47555D01*
X75854Y-47475D01*
X75646Y-47474D01*
X75453Y-47554D01*
X75305Y-47702D01*
X75225Y-47895D01*
X75224Y-48103D01*
X75304Y-48297D01*
X75452Y-48444D01*
X75645Y-48524D01*
X75853Y-48525D01*
X76047Y-48445D01*
X76194Y-48297D01*
X76274Y-48104D01*
X76275Y-47896D01*
X76275Y-60800D01*
X76228Y-60846D01*
X76228Y-50123D01*
X76220Y-49835D01*
X76126Y-49606D01*
X75977Y-49593D01*
X75906Y-49664D01*
X75906Y-49522D01*
X75893Y-49373D01*
X75623Y-49271D01*
X75335Y-49279D01*
X75106Y-49373D01*
X75093Y-49522D01*
X75500Y-49929D01*
X75906Y-49522D01*
X75906Y-49664D01*
X75570Y-50000D01*
X75977Y-50406D01*
X76126Y-50393D01*
X76228Y-50123D01*
X76228Y-60846D01*
X75906Y-61169D01*
X75906Y-50477D01*
X75500Y-50070D01*
X75429Y-50141D01*
X75429Y-50000D01*
X75022Y-49593D01*
X74873Y-49606D01*
X74867Y-49624D01*
X74797Y-49555D01*
X74604Y-49475D01*
X74396Y-49474D01*
X74203Y-49554D01*
X74055Y-49702D01*
X74025Y-49774D01*
X74025Y-45146D01*
X73945Y-44953D01*
X73797Y-44805D01*
X73604Y-44725D01*
X73396Y-44724D01*
X73203Y-44804D01*
X73055Y-44952D01*
X72975Y-45145D01*
X72974Y-45353D01*
X73054Y-45547D01*
X73202Y-45694D01*
X73395Y-45774D01*
X73603Y-45775D01*
X73797Y-45695D01*
X73944Y-45547D01*
X74024Y-45354D01*
X74025Y-45146D01*
X74025Y-49774D01*
X73975Y-49895D01*
X73974Y-50103D01*
X74054Y-50297D01*
X74202Y-50444D01*
X74395Y-50524D01*
X74603Y-50525D01*
X74797Y-50445D01*
X74866Y-50375D01*
X74873Y-50393D01*
X75022Y-50406D01*
X75429Y-50000D01*
X75429Y-50141D01*
X75093Y-50477D01*
X75106Y-50626D01*
X75376Y-50728D01*
X75664Y-50720D01*
X75893Y-50626D01*
X75906Y-50477D01*
X75906Y-61169D01*
X75728Y-61346D01*
X75728Y-54623D01*
X75728Y-51623D01*
X75720Y-51335D01*
X75626Y-51106D01*
X75477Y-51093D01*
X75406Y-51164D01*
X75406Y-51022D01*
X75393Y-50873D01*
X75123Y-50771D01*
X74835Y-50779D01*
X74606Y-50873D01*
X74593Y-51022D01*
X75000Y-51429D01*
X75406Y-51022D01*
X75406Y-51164D01*
X75070Y-51500D01*
X75477Y-51906D01*
X75626Y-51893D01*
X75728Y-51623D01*
X75728Y-54623D01*
X75720Y-54335D01*
X75626Y-54106D01*
X75477Y-54093D01*
X75406Y-54164D01*
X75406Y-54022D01*
X75406Y-51977D01*
X75000Y-51570D01*
X74929Y-51641D01*
X74929Y-51500D01*
X74522Y-51093D01*
X74373Y-51106D01*
X74271Y-51376D01*
X74279Y-51664D01*
X74373Y-51893D01*
X74522Y-51906D01*
X74929Y-51500D01*
X74929Y-51641D01*
X74593Y-51977D01*
X74606Y-52126D01*
X74876Y-52228D01*
X75164Y-52220D01*
X75393Y-52126D01*
X75406Y-51977D01*
X75406Y-54022D01*
X75393Y-53873D01*
X75123Y-53771D01*
X74835Y-53779D01*
X74606Y-53873D01*
X74593Y-54022D01*
X75000Y-54429D01*
X75406Y-54022D01*
X75406Y-54164D01*
X75070Y-54500D01*
X75477Y-54906D01*
X75626Y-54893D01*
X75728Y-54623D01*
X75728Y-61346D01*
X75406Y-61669D01*
X75406Y-54977D01*
X75000Y-54570D01*
X74929Y-54641D01*
X74929Y-54500D01*
X74522Y-54093D01*
X74373Y-54106D01*
X74271Y-54376D01*
X74279Y-54664D01*
X74373Y-54893D01*
X74522Y-54906D01*
X74929Y-54500D01*
X74929Y-54641D01*
X74593Y-54977D01*
X74606Y-55126D01*
X74876Y-55228D01*
X75164Y-55220D01*
X75393Y-55126D01*
X75406Y-54977D01*
X75406Y-61669D01*
X75375Y-61700D01*
X75253Y-61700D01*
X75253Y-61129D01*
X75245Y-60831D01*
X75146Y-60591D01*
X74995Y-60575D01*
X74570Y-61000D01*
X74995Y-61424D01*
X75146Y-61408D01*
X75253Y-61129D01*
X75253Y-61700D01*
X74779Y-61700D01*
X74908Y-61646D01*
X74924Y-61495D01*
X74500Y-61070D01*
X74429Y-61141D01*
X74429Y-61000D01*
X74235Y-60806D01*
X74146Y-60591D01*
X74006Y-60576D01*
X74004Y-60575D01*
X73999Y-60576D01*
X73995Y-60575D01*
X73993Y-60576D01*
X73853Y-60591D01*
X73775Y-60795D01*
X73570Y-61000D01*
X73764Y-61193D01*
X73853Y-61408D01*
X73993Y-61423D01*
X73995Y-61424D01*
X74000Y-61423D01*
X74004Y-61424D01*
X74006Y-61423D01*
X74146Y-61408D01*
X74224Y-61204D01*
X74429Y-61000D01*
X74429Y-61141D01*
X74075Y-61495D01*
X74091Y-61646D01*
X74230Y-61700D01*
X73779Y-61700D01*
X73908Y-61646D01*
X73924Y-61495D01*
X73500Y-61070D01*
X73494Y-61076D01*
X73423Y-61005D01*
X73429Y-61000D01*
X73029Y-60599D01*
X73012Y-60558D01*
X72941Y-60488D01*
X72849Y-60450D01*
X72827Y-60450D01*
X72965Y-60311D01*
X72999Y-60230D01*
X73033Y-60311D01*
X73090Y-60368D01*
X73075Y-60504D01*
X73500Y-60929D01*
X73924Y-60504D01*
X73909Y-60368D01*
X73965Y-60311D01*
X73999Y-60230D01*
X74033Y-60311D01*
X74090Y-60368D01*
X74075Y-60504D01*
X74500Y-60929D01*
X74924Y-60504D01*
X74909Y-60368D01*
X74965Y-60311D01*
X75049Y-60109D01*
X75050Y-59891D01*
X74966Y-59688D01*
X74811Y-59534D01*
X74609Y-59450D01*
X74391Y-59449D01*
X74188Y-59533D01*
X74034Y-59688D01*
X74000Y-59769D01*
X73966Y-59688D01*
X73811Y-59534D01*
X73800Y-59529D01*
X73800Y-56000D01*
X73799Y-55999D01*
X73777Y-55885D01*
X73712Y-55787D01*
X73712Y-55787D01*
X72949Y-55024D01*
X73103Y-55025D01*
X73297Y-54945D01*
X73444Y-54797D01*
X73524Y-54604D01*
X73525Y-54396D01*
X73525Y-51396D01*
X73445Y-51203D01*
X73297Y-51055D01*
X73104Y-50975D01*
X72896Y-50974D01*
X72775Y-51024D01*
X72775Y-47896D01*
X72695Y-47703D01*
X72547Y-47555D01*
X72354Y-47475D01*
X72146Y-47474D01*
X71953Y-47554D01*
X71805Y-47702D01*
X71725Y-47895D01*
X71724Y-48103D01*
X71804Y-48297D01*
X71952Y-48444D01*
X72145Y-48524D01*
X72353Y-48525D01*
X72547Y-48445D01*
X72694Y-48297D01*
X72774Y-48104D01*
X72775Y-47896D01*
X72775Y-51024D01*
X72703Y-51054D01*
X72555Y-51202D01*
X72475Y-51395D01*
X72474Y-51603D01*
X72554Y-51797D01*
X72702Y-51944D01*
X72895Y-52024D01*
X73103Y-52025D01*
X73297Y-51945D01*
X73444Y-51797D01*
X73524Y-51604D01*
X73525Y-51396D01*
X73525Y-54396D01*
X73445Y-54203D01*
X73297Y-54055D01*
X73104Y-53975D01*
X72896Y-53974D01*
X72703Y-54054D01*
X72555Y-54202D01*
X72475Y-54395D01*
X72474Y-54550D01*
X71924Y-54000D01*
X71925Y-53915D01*
X71860Y-53759D01*
X71741Y-53639D01*
X71584Y-53575D01*
X71415Y-53574D01*
X71259Y-53639D01*
X71228Y-53670D01*
X71228Y-46123D01*
X71220Y-45835D01*
X71126Y-45606D01*
X70977Y-45593D01*
X70570Y-46000D01*
X70977Y-46406D01*
X71126Y-46393D01*
X71228Y-46123D01*
X71228Y-53670D01*
X71139Y-53758D01*
X71075Y-53915D01*
X71074Y-54084D01*
X71139Y-54240D01*
X71258Y-54360D01*
X71415Y-54424D01*
X71500Y-54425D01*
X73200Y-56124D01*
X73200Y-59528D01*
X73188Y-59533D01*
X73034Y-59688D01*
X73000Y-59769D01*
X72966Y-59688D01*
X72811Y-59534D01*
X72609Y-59450D01*
X72391Y-59449D01*
X72188Y-59533D01*
X72034Y-59688D01*
X71950Y-59890D01*
X71949Y-60108D01*
X72033Y-60311D01*
X72172Y-60449D01*
X72150Y-60449D01*
X72058Y-60487D01*
X71988Y-60558D01*
X71950Y-60650D01*
X71949Y-60749D01*
X71949Y-61125D01*
X70375Y-62700D01*
X69580Y-62700D01*
X70275Y-62412D01*
X70910Y-61779D01*
X71254Y-60950D01*
X71255Y-60053D01*
X70912Y-59224D01*
X70279Y-58589D01*
X69450Y-58245D01*
X68553Y-58244D01*
X67724Y-58587D01*
X67089Y-59220D01*
X67080Y-59243D01*
X67080Y-58385D01*
X66991Y-58171D01*
X66828Y-58008D01*
X66808Y-58000D01*
X66828Y-57991D01*
X66991Y-57828D01*
X67079Y-57615D01*
X67080Y-57385D01*
X67025Y-57252D01*
X67025Y-56146D01*
X66945Y-55953D01*
X66797Y-55805D01*
X66604Y-55725D01*
X66396Y-55724D01*
X66203Y-55804D01*
X66055Y-55952D01*
X65975Y-56145D01*
X65974Y-56353D01*
X66054Y-56547D01*
X66202Y-56694D01*
X66395Y-56774D01*
X66603Y-56775D01*
X66797Y-56695D01*
X66944Y-56547D01*
X67024Y-56354D01*
X67025Y-56146D01*
X67025Y-57252D01*
X66991Y-57171D01*
X66828Y-57008D01*
X66615Y-56920D01*
X66385Y-56919D01*
X66171Y-57008D01*
X66008Y-57171D01*
X65920Y-57384D01*
X65919Y-57614D01*
X66008Y-57828D01*
X66171Y-57991D01*
X66191Y-57999D01*
X66171Y-58008D01*
X66008Y-58171D01*
X65920Y-58384D01*
X65919Y-58614D01*
X66008Y-58828D01*
X66171Y-58991D01*
X66384Y-59079D01*
X66614Y-59080D01*
X66828Y-58991D01*
X66991Y-58828D01*
X67079Y-58615D01*
X67080Y-58385D01*
X67080Y-59243D01*
X66745Y-60049D01*
X66744Y-60946D01*
X67087Y-61775D01*
X67720Y-62410D01*
X68417Y-62700D01*
X64580Y-62700D01*
X64580Y-58385D01*
X64491Y-58171D01*
X64328Y-58008D01*
X64308Y-58000D01*
X64328Y-57991D01*
X64491Y-57828D01*
X64579Y-57615D01*
X64580Y-57385D01*
X64525Y-57252D01*
X64525Y-56146D01*
X64445Y-55953D01*
X64297Y-55805D01*
X64104Y-55725D01*
X63896Y-55724D01*
X63703Y-55804D01*
X63555Y-55952D01*
X63475Y-56145D01*
X63474Y-56353D01*
X63554Y-56547D01*
X63702Y-56694D01*
X63895Y-56774D01*
X64103Y-56775D01*
X64297Y-56695D01*
X64444Y-56547D01*
X64524Y-56354D01*
X64525Y-56146D01*
X64525Y-57252D01*
X64491Y-57171D01*
X64328Y-57008D01*
X64115Y-56920D01*
X63885Y-56919D01*
X63671Y-57008D01*
X63508Y-57171D01*
X63420Y-57384D01*
X63419Y-57614D01*
X63508Y-57828D01*
X63671Y-57991D01*
X63691Y-57999D01*
X63671Y-58008D01*
X63508Y-58171D01*
X63420Y-58384D01*
X63419Y-58614D01*
X63508Y-58828D01*
X63671Y-58991D01*
X63884Y-59079D01*
X64114Y-59080D01*
X64328Y-58991D01*
X64491Y-58828D01*
X64579Y-58615D01*
X64580Y-58385D01*
X64580Y-62700D01*
X62925Y-62700D01*
X62925Y-60415D01*
X62860Y-60259D01*
X62800Y-60198D01*
X62800Y-58301D01*
X62860Y-58241D01*
X62924Y-58084D01*
X62925Y-57915D01*
X62860Y-57759D01*
X62741Y-57639D01*
X62584Y-57575D01*
X62415Y-57574D01*
X62259Y-57639D01*
X62139Y-57758D01*
X62075Y-57915D01*
X62074Y-58084D01*
X62139Y-58240D01*
X62200Y-58301D01*
X62200Y-60198D01*
X62139Y-60258D01*
X62075Y-60415D01*
X62074Y-60584D01*
X62139Y-60740D01*
X62258Y-60860D01*
X62415Y-60924D01*
X62584Y-60925D01*
X62740Y-60860D01*
X62860Y-60741D01*
X62924Y-60584D01*
X62925Y-60415D01*
X62925Y-62700D01*
X61728Y-62700D01*
X61728Y-59623D01*
X61720Y-59335D01*
X61626Y-59106D01*
X61477Y-59093D01*
X61406Y-59164D01*
X61406Y-59022D01*
X61393Y-58873D01*
X61123Y-58771D01*
X60835Y-58779D01*
X60606Y-58873D01*
X60593Y-59022D01*
X61000Y-59429D01*
X61406Y-59022D01*
X61406Y-59164D01*
X61070Y-59500D01*
X61477Y-59906D01*
X61626Y-59893D01*
X61728Y-59623D01*
X61728Y-62700D01*
X61525Y-62700D01*
X61525Y-60396D01*
X61445Y-60203D01*
X61375Y-60133D01*
X61393Y-60126D01*
X61406Y-59977D01*
X61000Y-59570D01*
X60929Y-59641D01*
X60929Y-59500D01*
X60522Y-59093D01*
X60373Y-59106D01*
X60271Y-59376D01*
X60279Y-59664D01*
X60373Y-59893D01*
X60522Y-59906D01*
X60929Y-59500D01*
X60929Y-59641D01*
X60593Y-59977D01*
X60606Y-60126D01*
X60624Y-60132D01*
X60555Y-60202D01*
X60475Y-60395D01*
X60474Y-60603D01*
X60554Y-60797D01*
X60702Y-60944D01*
X60895Y-61024D01*
X61103Y-61025D01*
X61297Y-60945D01*
X61444Y-60797D01*
X61524Y-60604D01*
X61525Y-60396D01*
X61525Y-62700D01*
X59525Y-62700D01*
X59525Y-61146D01*
X59445Y-60953D01*
X59297Y-60805D01*
X59104Y-60725D01*
X58896Y-60724D01*
X58703Y-60804D01*
X58555Y-60952D01*
X58475Y-61145D01*
X58474Y-61353D01*
X58554Y-61547D01*
X58702Y-61694D01*
X58895Y-61774D01*
X59103Y-61775D01*
X59297Y-61695D01*
X59444Y-61547D01*
X59524Y-61354D01*
X59525Y-61146D01*
X59525Y-62700D01*
X57525Y-62700D01*
X57525Y-61146D01*
X57445Y-60953D01*
X57297Y-60805D01*
X57104Y-60725D01*
X56896Y-60724D01*
X56703Y-60804D01*
X56555Y-60952D01*
X56475Y-61145D01*
X56474Y-61353D01*
X56554Y-61547D01*
X56702Y-61694D01*
X56895Y-61774D01*
X57103Y-61775D01*
X57297Y-61695D01*
X57444Y-61547D01*
X57524Y-61354D01*
X57525Y-61146D01*
X57525Y-62700D01*
X55525Y-62700D01*
X55525Y-61146D01*
X55445Y-60953D01*
X55297Y-60805D01*
X55104Y-60725D01*
X54896Y-60724D01*
X54703Y-60804D01*
X54555Y-60952D01*
X54475Y-61145D01*
X54474Y-61353D01*
X54554Y-61547D01*
X54702Y-61694D01*
X54895Y-61774D01*
X55103Y-61775D01*
X55297Y-61695D01*
X55444Y-61547D01*
X55524Y-61354D01*
X55525Y-61146D01*
X55525Y-62700D01*
X53525Y-62700D01*
X53525Y-61146D01*
X53445Y-60953D01*
X53297Y-60805D01*
X53104Y-60725D01*
X52896Y-60724D01*
X52703Y-60804D01*
X52555Y-60952D01*
X52475Y-61145D01*
X52474Y-61353D01*
X52554Y-61547D01*
X52702Y-61694D01*
X52895Y-61774D01*
X53103Y-61775D01*
X53297Y-61695D01*
X53444Y-61547D01*
X53524Y-61354D01*
X53525Y-61146D01*
X53525Y-62700D01*
X44080Y-62700D01*
X44775Y-62412D01*
X45410Y-61779D01*
X45754Y-60950D01*
X45755Y-60053D01*
X45412Y-59224D01*
X44779Y-58589D01*
X44082Y-58300D01*
X51375Y-58300D01*
X52275Y-59200D01*
X50301Y-59200D01*
X50241Y-59139D01*
X50084Y-59075D01*
X49915Y-59074D01*
X49759Y-59139D01*
X49639Y-59258D01*
X49575Y-59415D01*
X49574Y-59584D01*
X49639Y-59740D01*
X49758Y-59860D01*
X49915Y-59924D01*
X50084Y-59925D01*
X50240Y-59860D01*
X50301Y-59800D01*
X59000Y-59800D01*
X59000Y-59799D01*
X59114Y-59777D01*
X59114Y-59777D01*
X59212Y-59712D01*
X60999Y-57924D01*
X61084Y-57925D01*
X61240Y-57860D01*
X61360Y-57741D01*
X61424Y-57584D01*
X61425Y-57415D01*
X61360Y-57259D01*
X61241Y-57139D01*
X61084Y-57075D01*
X60915Y-57074D01*
X60800Y-57122D01*
X60800Y-56124D01*
X61624Y-55300D01*
X67500Y-55300D01*
X67500Y-55299D01*
X67614Y-55277D01*
X67614Y-55277D01*
X67712Y-55212D01*
X70712Y-52212D01*
X70712Y-52212D01*
X70777Y-52114D01*
X70799Y-52000D01*
X70800Y-52000D01*
X70800Y-50525D01*
X70824Y-50525D01*
X70916Y-50487D01*
X70986Y-50416D01*
X71024Y-50324D01*
X71025Y-50225D01*
X71025Y-49675D01*
X70987Y-49583D01*
X70916Y-49513D01*
X70824Y-49475D01*
X70725Y-49474D01*
X70725Y-49474D01*
X70797Y-49445D01*
X70944Y-49297D01*
X71024Y-49104D01*
X71025Y-48896D01*
X70945Y-48703D01*
X70797Y-48555D01*
X70664Y-48499D01*
X70797Y-48445D01*
X70944Y-48297D01*
X71024Y-48104D01*
X71025Y-47896D01*
X70945Y-47703D01*
X70797Y-47555D01*
X70664Y-47499D01*
X70797Y-47445D01*
X70944Y-47297D01*
X71024Y-47104D01*
X71025Y-46896D01*
X70945Y-46703D01*
X70875Y-46633D01*
X70893Y-46626D01*
X70906Y-46477D01*
X70500Y-46070D01*
X70093Y-46477D01*
X70106Y-46626D01*
X70124Y-46632D01*
X70055Y-46702D01*
X69975Y-46895D01*
X69974Y-47103D01*
X70054Y-47297D01*
X70202Y-47444D01*
X70335Y-47500D01*
X70203Y-47554D01*
X70055Y-47702D01*
X69975Y-47895D01*
X69974Y-48103D01*
X70054Y-48297D01*
X70202Y-48444D01*
X70335Y-48500D01*
X70203Y-48554D01*
X70055Y-48702D01*
X69975Y-48895D01*
X69974Y-49103D01*
X70054Y-49297D01*
X70202Y-49444D01*
X70274Y-49474D01*
X70175Y-49474D01*
X70083Y-49512D01*
X70013Y-49583D01*
X69975Y-49675D01*
X69974Y-49774D01*
X69974Y-50324D01*
X70012Y-50416D01*
X70083Y-50486D01*
X70175Y-50524D01*
X70200Y-50524D01*
X70200Y-51875D01*
X67375Y-54700D01*
X67025Y-54700D01*
X67025Y-52646D01*
X66945Y-52453D01*
X66797Y-52305D01*
X66604Y-52225D01*
X66396Y-52224D01*
X66203Y-52304D01*
X66057Y-52450D01*
X64442Y-52450D01*
X64297Y-52305D01*
X64104Y-52225D01*
X63899Y-52224D01*
X61212Y-49537D01*
X61114Y-49472D01*
X61000Y-49450D01*
X59442Y-49450D01*
X59297Y-49305D01*
X59104Y-49225D01*
X58896Y-49224D01*
X58703Y-49304D01*
X58555Y-49452D01*
X58475Y-49645D01*
X58474Y-49853D01*
X58554Y-50047D01*
X58702Y-50194D01*
X58895Y-50274D01*
X59103Y-50275D01*
X59297Y-50195D01*
X59442Y-50050D01*
X60875Y-50050D01*
X63475Y-52649D01*
X63474Y-52853D01*
X63554Y-53047D01*
X63702Y-53194D01*
X63895Y-53274D01*
X64103Y-53275D01*
X64297Y-53195D01*
X64442Y-53050D01*
X66057Y-53050D01*
X66202Y-53194D01*
X66395Y-53274D01*
X66603Y-53275D01*
X66797Y-53195D01*
X66944Y-53047D01*
X67024Y-52854D01*
X67025Y-52646D01*
X67025Y-54700D01*
X62925Y-54700D01*
X62925Y-53915D01*
X62860Y-53759D01*
X62741Y-53639D01*
X62584Y-53575D01*
X62499Y-53574D01*
X60962Y-52037D01*
X60864Y-51972D01*
X60750Y-51950D01*
X59442Y-51950D01*
X59297Y-51805D01*
X59180Y-51756D01*
X58300Y-50875D01*
X58300Y-49624D01*
X59212Y-48712D01*
X59212Y-48712D01*
X59277Y-48614D01*
X59299Y-48500D01*
X59300Y-48500D01*
X59300Y-46692D01*
X59444Y-46547D01*
X59524Y-46354D01*
X59525Y-46146D01*
X59445Y-45953D01*
X59297Y-45805D01*
X59104Y-45725D01*
X58896Y-45724D01*
X58703Y-45804D01*
X58555Y-45952D01*
X58475Y-46145D01*
X58474Y-46353D01*
X58554Y-46547D01*
X58700Y-46692D01*
X58700Y-48375D01*
X57787Y-49287D01*
X57722Y-49385D01*
X57700Y-49500D01*
X57700Y-51000D01*
X57722Y-51114D01*
X57787Y-51212D01*
X58547Y-51971D01*
X58475Y-52145D01*
X58474Y-52353D01*
X58554Y-52547D01*
X58702Y-52694D01*
X58895Y-52774D01*
X59103Y-52775D01*
X59297Y-52695D01*
X59442Y-52550D01*
X60625Y-52550D01*
X62075Y-53999D01*
X62074Y-54084D01*
X62139Y-54240D01*
X62258Y-54360D01*
X62415Y-54424D01*
X62584Y-54425D01*
X62740Y-54360D01*
X62860Y-54241D01*
X62924Y-54084D01*
X62925Y-53915D01*
X62925Y-54700D01*
X61500Y-54700D01*
X61385Y-54722D01*
X61287Y-54787D01*
X60287Y-55787D01*
X60222Y-55885D01*
X60200Y-56000D01*
X60200Y-57375D01*
X59525Y-58050D01*
X59525Y-57646D01*
X59445Y-57453D01*
X59297Y-57305D01*
X59104Y-57225D01*
X58896Y-57224D01*
X58703Y-57304D01*
X58555Y-57452D01*
X58475Y-57645D01*
X58474Y-57853D01*
X58554Y-58047D01*
X58702Y-58194D01*
X58895Y-58274D01*
X59103Y-58275D01*
X59297Y-58195D01*
X59444Y-58047D01*
X59524Y-57854D01*
X59525Y-57646D01*
X59525Y-58050D01*
X58875Y-58700D01*
X57525Y-58700D01*
X57525Y-57646D01*
X57525Y-55646D01*
X57445Y-55453D01*
X57297Y-55305D01*
X57104Y-55225D01*
X56896Y-55224D01*
X56703Y-55304D01*
X56555Y-55452D01*
X56475Y-55645D01*
X56474Y-55853D01*
X56554Y-56047D01*
X56702Y-56194D01*
X56895Y-56274D01*
X57103Y-56275D01*
X57297Y-56195D01*
X57444Y-56047D01*
X57524Y-55854D01*
X57525Y-55646D01*
X57525Y-57646D01*
X57445Y-57453D01*
X57297Y-57305D01*
X57104Y-57225D01*
X56896Y-57224D01*
X56703Y-57304D01*
X56555Y-57452D01*
X56475Y-57645D01*
X56474Y-57853D01*
X56554Y-58047D01*
X56702Y-58194D01*
X56895Y-58274D01*
X57103Y-58275D01*
X57297Y-58195D01*
X57444Y-58047D01*
X57524Y-57854D01*
X57525Y-57646D01*
X57525Y-58700D01*
X55525Y-58700D01*
X55525Y-57646D01*
X55525Y-55646D01*
X55445Y-55453D01*
X55297Y-55305D01*
X55104Y-55225D01*
X54896Y-55224D01*
X54703Y-55304D01*
X54555Y-55452D01*
X54475Y-55645D01*
X54474Y-55853D01*
X54547Y-56028D01*
X54375Y-56200D01*
X53285Y-56200D01*
X53297Y-56195D01*
X53444Y-56047D01*
X53524Y-55854D01*
X53525Y-55646D01*
X53445Y-55453D01*
X53297Y-55305D01*
X53104Y-55225D01*
X52896Y-55224D01*
X52703Y-55304D01*
X52555Y-55452D01*
X52475Y-55645D01*
X52474Y-55853D01*
X52554Y-56047D01*
X52582Y-56075D01*
X52415Y-56074D01*
X52259Y-56139D01*
X52139Y-56258D01*
X52075Y-56415D01*
X52074Y-56584D01*
X52139Y-56740D01*
X52258Y-56860D01*
X52415Y-56924D01*
X52584Y-56925D01*
X52740Y-56860D01*
X52801Y-56800D01*
X54500Y-56800D01*
X54500Y-56799D01*
X54614Y-56777D01*
X54614Y-56777D01*
X54712Y-56712D01*
X55181Y-56243D01*
X55297Y-56195D01*
X55444Y-56047D01*
X55524Y-55854D01*
X55525Y-55646D01*
X55525Y-57646D01*
X55445Y-57453D01*
X55297Y-57305D01*
X55104Y-57225D01*
X54896Y-57224D01*
X54703Y-57304D01*
X54555Y-57452D01*
X54475Y-57645D01*
X54474Y-57853D01*
X54554Y-58047D01*
X54702Y-58194D01*
X54895Y-58274D01*
X55103Y-58275D01*
X55297Y-58195D01*
X55444Y-58047D01*
X55524Y-57854D01*
X55525Y-57646D01*
X55525Y-58700D01*
X53525Y-58700D01*
X53525Y-57646D01*
X53445Y-57453D01*
X53297Y-57305D01*
X53104Y-57225D01*
X52896Y-57224D01*
X52703Y-57304D01*
X52555Y-57452D01*
X52475Y-57645D01*
X52474Y-57853D01*
X52554Y-58047D01*
X52702Y-58194D01*
X52895Y-58274D01*
X53103Y-58275D01*
X53297Y-58195D01*
X53444Y-58047D01*
X53524Y-57854D01*
X53525Y-57646D01*
X53525Y-58700D01*
X52624Y-58700D01*
X51712Y-57787D01*
X51614Y-57722D01*
X51500Y-57700D01*
X48728Y-57700D01*
X48728Y-52873D01*
X48720Y-52585D01*
X48626Y-52356D01*
X48477Y-52343D01*
X48406Y-52414D01*
X48406Y-52272D01*
X48393Y-52123D01*
X48123Y-52021D01*
X47835Y-52029D01*
X47606Y-52123D01*
X47593Y-52272D01*
X48000Y-52679D01*
X48406Y-52272D01*
X48406Y-52414D01*
X48070Y-52750D01*
X48477Y-53156D01*
X48626Y-53143D01*
X48728Y-52873D01*
X48728Y-57700D01*
X48525Y-57700D01*
X48525Y-56146D01*
X48445Y-55953D01*
X48406Y-55913D01*
X48406Y-53227D01*
X48000Y-52820D01*
X47929Y-52891D01*
X47929Y-52750D01*
X47522Y-52343D01*
X47373Y-52356D01*
X47271Y-52626D01*
X47279Y-52914D01*
X47373Y-53143D01*
X47522Y-53156D01*
X47929Y-52750D01*
X47929Y-52891D01*
X47593Y-53227D01*
X47606Y-53376D01*
X47876Y-53478D01*
X48164Y-53470D01*
X48393Y-53376D01*
X48406Y-53227D01*
X48406Y-55913D01*
X48297Y-55805D01*
X48104Y-55725D01*
X47896Y-55724D01*
X47703Y-55804D01*
X47555Y-55952D01*
X47475Y-56145D01*
X47474Y-56353D01*
X47554Y-56547D01*
X47702Y-56694D01*
X47895Y-56774D01*
X48103Y-56775D01*
X48297Y-56695D01*
X48444Y-56547D01*
X48524Y-56354D01*
X48525Y-56146D01*
X48525Y-57700D01*
X45025Y-57700D01*
X45025Y-56146D01*
X44945Y-55953D01*
X44797Y-55805D01*
X44604Y-55725D01*
X44396Y-55724D01*
X44203Y-55804D01*
X44055Y-55952D01*
X43975Y-56145D01*
X43974Y-56353D01*
X44054Y-56547D01*
X44202Y-56694D01*
X44395Y-56774D01*
X44603Y-56775D01*
X44797Y-56695D01*
X44944Y-56547D01*
X45024Y-56354D01*
X45025Y-56146D01*
X45025Y-57700D01*
X43525Y-57700D01*
X43525Y-56146D01*
X43445Y-55953D01*
X43297Y-55805D01*
X43104Y-55725D01*
X42896Y-55724D01*
X42703Y-55804D01*
X42555Y-55952D01*
X42475Y-56145D01*
X42474Y-56353D01*
X42554Y-56547D01*
X42702Y-56694D01*
X42895Y-56774D01*
X43103Y-56775D01*
X43297Y-56695D01*
X43444Y-56547D01*
X43524Y-56354D01*
X43525Y-56146D01*
X43525Y-57700D01*
X42025Y-57700D01*
X42025Y-56146D01*
X41945Y-55953D01*
X41797Y-55805D01*
X41604Y-55725D01*
X41396Y-55724D01*
X41203Y-55804D01*
X41055Y-55952D01*
X40975Y-56145D01*
X40974Y-56353D01*
X41054Y-56547D01*
X41202Y-56694D01*
X41395Y-56774D01*
X41603Y-56775D01*
X41797Y-56695D01*
X41944Y-56547D01*
X42024Y-56354D01*
X42025Y-56146D01*
X42025Y-57700D01*
X40525Y-57700D01*
X40525Y-56146D01*
X40525Y-52646D01*
X40445Y-52453D01*
X40297Y-52305D01*
X40104Y-52225D01*
X39896Y-52224D01*
X39703Y-52304D01*
X39555Y-52452D01*
X39475Y-52645D01*
X39474Y-52853D01*
X39554Y-53047D01*
X39702Y-53194D01*
X39895Y-53274D01*
X40103Y-53275D01*
X40297Y-53195D01*
X40444Y-53047D01*
X40524Y-52854D01*
X40525Y-52646D01*
X40525Y-56146D01*
X40445Y-55953D01*
X40297Y-55805D01*
X40104Y-55725D01*
X39896Y-55724D01*
X39703Y-55804D01*
X39555Y-55952D01*
X39475Y-56145D01*
X39474Y-56353D01*
X39554Y-56547D01*
X39702Y-56694D01*
X39895Y-56774D01*
X40103Y-56775D01*
X40297Y-56695D01*
X40444Y-56547D01*
X40524Y-56354D01*
X40525Y-56146D01*
X40525Y-57700D01*
X39192Y-57700D01*
X39047Y-57555D01*
X39025Y-57545D01*
X39025Y-56146D01*
X39025Y-52646D01*
X38945Y-52453D01*
X38797Y-52305D01*
X38604Y-52225D01*
X38396Y-52224D01*
X38203Y-52304D01*
X38055Y-52452D01*
X37975Y-52645D01*
X37974Y-52853D01*
X38054Y-53047D01*
X38202Y-53194D01*
X38395Y-53274D01*
X38603Y-53275D01*
X38797Y-53195D01*
X38944Y-53047D01*
X39024Y-52854D01*
X39025Y-52646D01*
X39025Y-56146D01*
X38945Y-55953D01*
X38797Y-55805D01*
X38604Y-55725D01*
X38396Y-55724D01*
X38203Y-55804D01*
X38055Y-55952D01*
X37975Y-56145D01*
X37974Y-56353D01*
X38054Y-56547D01*
X38202Y-56694D01*
X38395Y-56774D01*
X38603Y-56775D01*
X38797Y-56695D01*
X38944Y-56547D01*
X39024Y-56354D01*
X39025Y-56146D01*
X39025Y-57545D01*
X38854Y-57475D01*
X38646Y-57474D01*
X38453Y-57554D01*
X38305Y-57702D01*
X38225Y-57895D01*
X38224Y-58103D01*
X38304Y-58297D01*
X38452Y-58444D01*
X38645Y-58524D01*
X38853Y-58525D01*
X39047Y-58445D01*
X39192Y-58300D01*
X42919Y-58300D01*
X42224Y-58587D01*
X41589Y-59220D01*
X41245Y-60049D01*
X41244Y-60946D01*
X41587Y-61775D01*
X42220Y-62410D01*
X42917Y-62700D01*
X41624Y-62700D01*
X40800Y-61875D01*
X40800Y-60000D01*
X40777Y-59885D01*
X40712Y-59787D01*
X40712Y-59787D01*
X39712Y-58787D01*
X39614Y-58722D01*
X39500Y-58700D01*
X37525Y-58700D01*
X37525Y-56146D01*
X37525Y-52646D01*
X37445Y-52453D01*
X37297Y-52305D01*
X37104Y-52225D01*
X36896Y-52224D01*
X36703Y-52304D01*
X36555Y-52452D01*
X36475Y-52645D01*
X36474Y-52853D01*
X36554Y-53047D01*
X36702Y-53194D01*
X36895Y-53274D01*
X37103Y-53275D01*
X37297Y-53195D01*
X37444Y-53047D01*
X37524Y-52854D01*
X37525Y-52646D01*
X37525Y-56146D01*
X37445Y-55953D01*
X37297Y-55805D01*
X37104Y-55725D01*
X36896Y-55724D01*
X36703Y-55804D01*
X36555Y-55952D01*
X36475Y-56145D01*
X36474Y-56353D01*
X36554Y-56547D01*
X36702Y-56694D01*
X36895Y-56774D01*
X37103Y-56775D01*
X37297Y-56695D01*
X37444Y-56547D01*
X37524Y-56354D01*
X37525Y-56146D01*
X37525Y-58700D01*
X36124Y-58700D01*
X36025Y-58600D01*
X36025Y-56146D01*
X35945Y-55953D01*
X35797Y-55805D01*
X35604Y-55725D01*
X35396Y-55724D01*
X35203Y-55804D01*
X35055Y-55952D01*
X34975Y-56145D01*
X34974Y-56353D01*
X35054Y-56547D01*
X35202Y-56694D01*
X35395Y-56774D01*
X35603Y-56775D01*
X35797Y-56695D01*
X35944Y-56547D01*
X36024Y-56354D01*
X36025Y-56146D01*
X36025Y-58600D01*
X35702Y-58278D01*
X35774Y-58104D01*
X35775Y-57896D01*
X35695Y-57703D01*
X35547Y-57555D01*
X35354Y-57475D01*
X35146Y-57474D01*
X34953Y-57554D01*
X34906Y-57601D01*
X34906Y-47477D01*
X34500Y-47070D01*
X34429Y-47141D01*
X34429Y-47000D01*
X34022Y-46593D01*
X33873Y-46606D01*
X33771Y-46876D01*
X33779Y-47164D01*
X33873Y-47393D01*
X34022Y-47406D01*
X34429Y-47000D01*
X34429Y-47141D01*
X34093Y-47477D01*
X34106Y-47626D01*
X34376Y-47728D01*
X34664Y-47720D01*
X34893Y-47626D01*
X34906Y-47477D01*
X34906Y-57601D01*
X34805Y-57702D01*
X34725Y-57895D01*
X34724Y-58103D01*
X34804Y-58297D01*
X34952Y-58444D01*
X35069Y-58493D01*
X35787Y-59212D01*
X35787Y-59212D01*
X35885Y-59277D01*
X35999Y-59299D01*
X36000Y-59300D01*
X39375Y-59300D01*
X40200Y-60124D01*
X40200Y-62000D01*
X40222Y-62114D01*
X40287Y-62212D01*
X41287Y-63212D01*
X41287Y-63212D01*
X41315Y-63230D01*
X39228Y-63230D01*
X39228Y-62123D01*
X39220Y-61835D01*
X39126Y-61606D01*
X39025Y-61597D01*
X39025Y-59896D01*
X38945Y-59703D01*
X38797Y-59555D01*
X38604Y-59475D01*
X38396Y-59474D01*
X38203Y-59554D01*
X38055Y-59702D01*
X37975Y-59895D01*
X37974Y-60103D01*
X38054Y-60297D01*
X38202Y-60444D01*
X38395Y-60524D01*
X38603Y-60525D01*
X38797Y-60445D01*
X38944Y-60297D01*
X39024Y-60104D01*
X39025Y-59896D01*
X39025Y-61597D01*
X38977Y-61593D01*
X38906Y-61664D01*
X38906Y-61522D01*
X38893Y-61373D01*
X38623Y-61271D01*
X38335Y-61279D01*
X38106Y-61373D01*
X38093Y-61522D01*
X38500Y-61929D01*
X38906Y-61522D01*
X38906Y-61664D01*
X38570Y-62000D01*
X38977Y-62406D01*
X39126Y-62393D01*
X39228Y-62123D01*
X39228Y-63230D01*
X38906Y-63230D01*
X38906Y-62477D01*
X38500Y-62070D01*
X38429Y-62141D01*
X38429Y-62000D01*
X38022Y-61593D01*
X37873Y-61606D01*
X37771Y-61876D01*
X37779Y-62164D01*
X37873Y-62393D01*
X38022Y-62406D01*
X38429Y-62000D01*
X38429Y-62141D01*
X38093Y-62477D01*
X38106Y-62626D01*
X38376Y-62728D01*
X38664Y-62720D01*
X38893Y-62626D01*
X38906Y-62477D01*
X38906Y-63230D01*
X36228Y-63230D01*
X36228Y-62123D01*
X36220Y-61835D01*
X36126Y-61606D01*
X36025Y-61597D01*
X36025Y-59896D01*
X35945Y-59703D01*
X35797Y-59555D01*
X35604Y-59475D01*
X35396Y-59474D01*
X35203Y-59554D01*
X35055Y-59702D01*
X34975Y-59895D01*
X34974Y-60103D01*
X35054Y-60297D01*
X35202Y-60444D01*
X35395Y-60524D01*
X35603Y-60525D01*
X35797Y-60445D01*
X35944Y-60297D01*
X36024Y-60104D01*
X36025Y-59896D01*
X36025Y-61597D01*
X35977Y-61593D01*
X35906Y-61664D01*
X35906Y-61522D01*
X35893Y-61373D01*
X35623Y-61271D01*
X35335Y-61279D01*
X35106Y-61373D01*
X35093Y-61522D01*
X35500Y-61929D01*
X35906Y-61522D01*
X35906Y-61664D01*
X35570Y-62000D01*
X35977Y-62406D01*
X36126Y-62393D01*
X36228Y-62123D01*
X36228Y-63230D01*
X35906Y-63230D01*
X35906Y-62477D01*
X35500Y-62070D01*
X35429Y-62141D01*
X35429Y-62000D01*
X35022Y-61593D01*
X34873Y-61606D01*
X34771Y-61876D01*
X34779Y-62164D01*
X34873Y-62393D01*
X35022Y-62406D01*
X35429Y-62000D01*
X35429Y-62141D01*
X35093Y-62477D01*
X35106Y-62626D01*
X35376Y-62728D01*
X35664Y-62720D01*
X35893Y-62626D01*
X35906Y-62477D01*
X35906Y-63230D01*
X33269Y-63230D01*
X33269Y-18769D01*
X77730Y-18769D01*
X77730Y-34315D01*
M02*
