G04 (created by PCBNEW (2013-jul-07)-stable) date Sun 06 Sep 2015 09:30:16 PM EDT*
%MOIN*%
G04 Gerber Fmt 3.4, Leading zero omitted, Abs format*
%FSLAX34Y34*%
G01*
G70*
G90*
G04 APERTURE LIST*
%ADD10C,0.00590551*%
%ADD11C,0.011811*%
G04 APERTURE END LIST*
G54D10*
G54D11*
X63403Y-29901D02*
X63460Y-29873D01*
X63488Y-29845D01*
X63516Y-29789D01*
X63516Y-29760D01*
X63488Y-29704D01*
X63460Y-29676D01*
X63403Y-29648D01*
X63291Y-29648D01*
X63235Y-29676D01*
X63206Y-29704D01*
X63178Y-29760D01*
X63178Y-29789D01*
X63206Y-29845D01*
X63235Y-29873D01*
X63291Y-29901D01*
X63403Y-29901D01*
X63460Y-29929D01*
X63488Y-29957D01*
X63516Y-30014D01*
X63516Y-30126D01*
X63488Y-30182D01*
X63460Y-30210D01*
X63403Y-30239D01*
X63291Y-30239D01*
X63235Y-30210D01*
X63206Y-30182D01*
X63178Y-30126D01*
X63178Y-30014D01*
X63206Y-29957D01*
X63235Y-29929D01*
X63291Y-29901D01*
X62982Y-30239D02*
X62672Y-29845D01*
X62982Y-29845D02*
X62672Y-30239D01*
X62363Y-29901D02*
X62419Y-29873D01*
X62447Y-29845D01*
X62475Y-29789D01*
X62475Y-29760D01*
X62447Y-29704D01*
X62419Y-29676D01*
X62363Y-29648D01*
X62250Y-29648D01*
X62194Y-29676D01*
X62166Y-29704D01*
X62138Y-29760D01*
X62138Y-29789D01*
X62166Y-29845D01*
X62194Y-29873D01*
X62250Y-29901D01*
X62363Y-29901D01*
X62419Y-29929D01*
X62447Y-29957D01*
X62475Y-30014D01*
X62475Y-30126D01*
X62447Y-30182D01*
X62419Y-30210D01*
X62363Y-30239D01*
X62250Y-30239D01*
X62194Y-30210D01*
X62166Y-30182D01*
X62138Y-30126D01*
X62138Y-30014D01*
X62166Y-29957D01*
X62194Y-29929D01*
X62250Y-29901D01*
X61463Y-30210D02*
X61379Y-30239D01*
X61238Y-30239D01*
X61182Y-30210D01*
X61154Y-30182D01*
X61125Y-30126D01*
X61125Y-30070D01*
X61154Y-30014D01*
X61182Y-29985D01*
X61238Y-29957D01*
X61350Y-29929D01*
X61407Y-29901D01*
X61435Y-29873D01*
X61463Y-29817D01*
X61463Y-29760D01*
X61435Y-29704D01*
X61407Y-29676D01*
X61350Y-29648D01*
X61210Y-29648D01*
X61125Y-29676D01*
X60929Y-29845D02*
X60816Y-30239D01*
X60704Y-29957D01*
X60591Y-30239D01*
X60479Y-29845D01*
X60254Y-30239D02*
X60254Y-29845D01*
X60254Y-29648D02*
X60282Y-29676D01*
X60254Y-29704D01*
X60226Y-29676D01*
X60254Y-29648D01*
X60254Y-29704D01*
X60057Y-29845D02*
X59832Y-29845D01*
X59973Y-29648D02*
X59973Y-30154D01*
X59944Y-30210D01*
X59888Y-30239D01*
X59832Y-30239D01*
X59382Y-30210D02*
X59438Y-30239D01*
X59551Y-30239D01*
X59607Y-30210D01*
X59635Y-30182D01*
X59663Y-30126D01*
X59663Y-29957D01*
X59635Y-29901D01*
X59607Y-29873D01*
X59551Y-29845D01*
X59438Y-29845D01*
X59382Y-29873D01*
X59129Y-30239D02*
X59129Y-29648D01*
X58876Y-30239D02*
X58876Y-29929D01*
X58904Y-29873D01*
X58960Y-29845D01*
X59044Y-29845D01*
X59101Y-29873D01*
X59129Y-29901D01*
X58145Y-30239D02*
X58145Y-29648D01*
X57948Y-30070D01*
X57751Y-29648D01*
X57751Y-30239D01*
X57217Y-30239D02*
X57217Y-29929D01*
X57245Y-29873D01*
X57301Y-29845D01*
X57413Y-29845D01*
X57470Y-29873D01*
X57217Y-30210D02*
X57273Y-30239D01*
X57413Y-30239D01*
X57470Y-30210D01*
X57498Y-30154D01*
X57498Y-30098D01*
X57470Y-30042D01*
X57413Y-30014D01*
X57273Y-30014D01*
X57217Y-29985D01*
X57020Y-29845D02*
X56795Y-29845D01*
X56935Y-29648D02*
X56935Y-30154D01*
X56907Y-30210D01*
X56851Y-30239D01*
X56795Y-30239D01*
X56598Y-30239D02*
X56598Y-29845D01*
X56598Y-29957D02*
X56570Y-29901D01*
X56542Y-29873D01*
X56485Y-29845D01*
X56429Y-29845D01*
X56232Y-30239D02*
X56232Y-29845D01*
X56232Y-29648D02*
X56260Y-29676D01*
X56232Y-29704D01*
X56204Y-29676D01*
X56232Y-29648D01*
X56232Y-29704D01*
X56007Y-30239D02*
X55698Y-29845D01*
X56007Y-29845D02*
X55698Y-30239D01*
X55051Y-30210D02*
X54967Y-30239D01*
X54826Y-30239D01*
X54770Y-30210D01*
X54742Y-30182D01*
X54714Y-30126D01*
X54714Y-30070D01*
X54742Y-30014D01*
X54770Y-29985D01*
X54826Y-29957D01*
X54939Y-29929D01*
X54995Y-29901D01*
X55023Y-29873D01*
X55051Y-29817D01*
X55051Y-29760D01*
X55023Y-29704D01*
X54995Y-29676D01*
X54939Y-29648D01*
X54798Y-29648D01*
X54714Y-29676D01*
X54461Y-30239D02*
X54461Y-29648D01*
X54236Y-29648D01*
X54179Y-29676D01*
X54151Y-29704D01*
X54123Y-29760D01*
X54123Y-29845D01*
X54151Y-29901D01*
X54179Y-29929D01*
X54236Y-29957D01*
X54461Y-29957D01*
X53870Y-30239D02*
X53870Y-29648D01*
X53139Y-30239D02*
X53139Y-29648D01*
X52858Y-29845D02*
X52858Y-30239D01*
X52858Y-29901D02*
X52830Y-29873D01*
X52773Y-29845D01*
X52689Y-29845D01*
X52633Y-29873D01*
X52605Y-29929D01*
X52605Y-30239D01*
X52408Y-29845D02*
X52183Y-29845D01*
X52323Y-29648D02*
X52323Y-30154D01*
X52295Y-30210D01*
X52239Y-30239D01*
X52183Y-30239D01*
X51761Y-30210D02*
X51817Y-30239D01*
X51930Y-30239D01*
X51986Y-30210D01*
X52014Y-30154D01*
X52014Y-29929D01*
X51986Y-29873D01*
X51930Y-29845D01*
X51817Y-29845D01*
X51761Y-29873D01*
X51733Y-29929D01*
X51733Y-29985D01*
X52014Y-30042D01*
X51480Y-30239D02*
X51480Y-29845D01*
X51480Y-29957D02*
X51452Y-29901D01*
X51424Y-29873D01*
X51367Y-29845D01*
X51311Y-29845D01*
X51199Y-29845D02*
X50974Y-29845D01*
X51114Y-30239D02*
X51114Y-29732D01*
X51086Y-29676D01*
X51030Y-29648D01*
X50974Y-29648D01*
X50524Y-30239D02*
X50524Y-29929D01*
X50552Y-29873D01*
X50608Y-29845D01*
X50721Y-29845D01*
X50777Y-29873D01*
X50524Y-30210D02*
X50580Y-30239D01*
X50721Y-30239D01*
X50777Y-30210D01*
X50805Y-30154D01*
X50805Y-30098D01*
X50777Y-30042D01*
X50721Y-30014D01*
X50580Y-30014D01*
X50524Y-29985D01*
X49989Y-30210D02*
X50046Y-30239D01*
X50158Y-30239D01*
X50214Y-30210D01*
X50242Y-30182D01*
X50271Y-30126D01*
X50271Y-29957D01*
X50242Y-29901D01*
X50214Y-29873D01*
X50158Y-29845D01*
X50046Y-29845D01*
X49989Y-29873D01*
X49511Y-30210D02*
X49568Y-30239D01*
X49680Y-30239D01*
X49736Y-30210D01*
X49764Y-30154D01*
X49764Y-29929D01*
X49736Y-29873D01*
X49680Y-29845D01*
X49568Y-29845D01*
X49511Y-29873D01*
X49483Y-29929D01*
X49483Y-29985D01*
X49764Y-30042D01*
X62250Y-31183D02*
X62250Y-30593D01*
X62110Y-30593D01*
X62025Y-30621D01*
X61969Y-30677D01*
X61941Y-30733D01*
X61913Y-30846D01*
X61913Y-30930D01*
X61941Y-31043D01*
X61969Y-31099D01*
X62025Y-31155D01*
X62110Y-31183D01*
X62250Y-31183D01*
X61435Y-31155D02*
X61491Y-31183D01*
X61604Y-31183D01*
X61660Y-31155D01*
X61688Y-31099D01*
X61688Y-30874D01*
X61660Y-30818D01*
X61604Y-30790D01*
X61491Y-30790D01*
X61435Y-30818D01*
X61407Y-30874D01*
X61407Y-30930D01*
X61688Y-30987D01*
X61182Y-31155D02*
X61125Y-31183D01*
X61013Y-31183D01*
X60957Y-31155D01*
X60929Y-31099D01*
X60929Y-31071D01*
X60957Y-31015D01*
X61013Y-30987D01*
X61097Y-30987D01*
X61154Y-30958D01*
X61182Y-30902D01*
X61182Y-30874D01*
X61154Y-30818D01*
X61097Y-30790D01*
X61013Y-30790D01*
X60957Y-30818D01*
X60676Y-31183D02*
X60676Y-30790D01*
X60676Y-30593D02*
X60704Y-30621D01*
X60676Y-30649D01*
X60647Y-30621D01*
X60676Y-30593D01*
X60676Y-30649D01*
X60141Y-30790D02*
X60141Y-31268D01*
X60169Y-31324D01*
X60197Y-31352D01*
X60254Y-31380D01*
X60338Y-31380D01*
X60394Y-31352D01*
X60141Y-31155D02*
X60197Y-31183D01*
X60310Y-31183D01*
X60366Y-31155D01*
X60394Y-31127D01*
X60422Y-31071D01*
X60422Y-30902D01*
X60394Y-30846D01*
X60366Y-30818D01*
X60310Y-30790D01*
X60197Y-30790D01*
X60141Y-30818D01*
X59860Y-30790D02*
X59860Y-31183D01*
X59860Y-30846D02*
X59832Y-30818D01*
X59776Y-30790D01*
X59691Y-30790D01*
X59635Y-30818D01*
X59607Y-30874D01*
X59607Y-31183D01*
X59101Y-31155D02*
X59157Y-31183D01*
X59269Y-31183D01*
X59326Y-31155D01*
X59354Y-31099D01*
X59354Y-30874D01*
X59326Y-30818D01*
X59269Y-30790D01*
X59157Y-30790D01*
X59101Y-30818D01*
X59073Y-30874D01*
X59073Y-30930D01*
X59354Y-30987D01*
X58566Y-31183D02*
X58566Y-30593D01*
X58566Y-31155D02*
X58623Y-31183D01*
X58735Y-31183D01*
X58791Y-31155D01*
X58820Y-31127D01*
X58848Y-31071D01*
X58848Y-30902D01*
X58820Y-30846D01*
X58791Y-30818D01*
X58735Y-30790D01*
X58623Y-30790D01*
X58566Y-30818D01*
X57835Y-31183D02*
X57835Y-30593D01*
X57835Y-30818D02*
X57779Y-30790D01*
X57667Y-30790D01*
X57610Y-30818D01*
X57582Y-30846D01*
X57554Y-30902D01*
X57554Y-31071D01*
X57582Y-31127D01*
X57610Y-31155D01*
X57667Y-31183D01*
X57779Y-31183D01*
X57835Y-31155D01*
X57357Y-30790D02*
X57217Y-31183D01*
X57076Y-30790D02*
X57217Y-31183D01*
X57273Y-31324D01*
X57301Y-31352D01*
X57357Y-31380D01*
X56232Y-30593D02*
X56232Y-31015D01*
X56260Y-31099D01*
X56317Y-31155D01*
X56401Y-31183D01*
X56457Y-31183D01*
X55726Y-31155D02*
X55782Y-31183D01*
X55895Y-31183D01*
X55951Y-31155D01*
X55979Y-31099D01*
X55979Y-30874D01*
X55951Y-30818D01*
X55895Y-30790D01*
X55782Y-30790D01*
X55726Y-30818D01*
X55698Y-30874D01*
X55698Y-30930D01*
X55979Y-30987D01*
X55445Y-31183D02*
X55445Y-30790D01*
X55445Y-30902D02*
X55417Y-30846D01*
X55389Y-30818D01*
X55332Y-30790D01*
X55276Y-30790D01*
X54854Y-31155D02*
X54911Y-31183D01*
X55023Y-31183D01*
X55079Y-31155D01*
X55107Y-31099D01*
X55107Y-30874D01*
X55079Y-30818D01*
X55023Y-30790D01*
X54911Y-30790D01*
X54854Y-30818D01*
X54826Y-30874D01*
X54826Y-30930D01*
X55107Y-30987D01*
X54573Y-31183D02*
X54573Y-30790D01*
X54573Y-30846D02*
X54545Y-30818D01*
X54489Y-30790D01*
X54404Y-30790D01*
X54348Y-30818D01*
X54320Y-30874D01*
X54320Y-31183D01*
X54320Y-30874D02*
X54292Y-30818D01*
X54236Y-30790D01*
X54151Y-30790D01*
X54095Y-30818D01*
X54067Y-30874D01*
X54067Y-31183D01*
X53842Y-30790D02*
X53701Y-31183D01*
X53561Y-30790D02*
X53701Y-31183D01*
X53758Y-31324D01*
X53786Y-31352D01*
X53842Y-31380D01*
X52689Y-30874D02*
X52886Y-30874D01*
X52886Y-31183D02*
X52886Y-30593D01*
X52605Y-30593D01*
X52295Y-31183D02*
X52352Y-31155D01*
X52380Y-31099D01*
X52380Y-30593D01*
X51845Y-31155D02*
X51902Y-31183D01*
X52014Y-31183D01*
X52070Y-31155D01*
X52098Y-31099D01*
X52098Y-30874D01*
X52070Y-30818D01*
X52014Y-30790D01*
X51902Y-30790D01*
X51845Y-30818D01*
X51817Y-30874D01*
X51817Y-30930D01*
X52098Y-30987D01*
X51564Y-31183D02*
X51564Y-30790D01*
X51564Y-30593D02*
X51592Y-30621D01*
X51564Y-30649D01*
X51536Y-30621D01*
X51564Y-30593D01*
X51564Y-30649D01*
X51367Y-30790D02*
X51142Y-30790D01*
X51283Y-30593D02*
X51283Y-31099D01*
X51255Y-31155D01*
X51199Y-31183D01*
X51142Y-31183D01*
X51002Y-30790D02*
X50692Y-30790D01*
X51002Y-31183D01*
X50692Y-31183D01*
X63080Y-32100D02*
X63136Y-32128D01*
X63249Y-32128D01*
X63305Y-32100D01*
X63333Y-32044D01*
X63333Y-31819D01*
X63305Y-31763D01*
X63249Y-31735D01*
X63136Y-31735D01*
X63080Y-31763D01*
X63052Y-31819D01*
X63052Y-31875D01*
X63333Y-31931D01*
X62799Y-32128D02*
X62799Y-31538D01*
X62574Y-31538D01*
X62517Y-31566D01*
X62489Y-31594D01*
X62461Y-31650D01*
X62461Y-31735D01*
X62489Y-31791D01*
X62517Y-31819D01*
X62574Y-31847D01*
X62799Y-31847D01*
X62208Y-32128D02*
X62208Y-31735D01*
X62208Y-31538D02*
X62236Y-31566D01*
X62208Y-31594D01*
X62180Y-31566D01*
X62208Y-31538D01*
X62208Y-31594D01*
X61927Y-31735D02*
X61927Y-32128D01*
X61927Y-31791D02*
X61899Y-31763D01*
X61843Y-31735D01*
X61758Y-31735D01*
X61702Y-31763D01*
X61674Y-31819D01*
X61674Y-32128D01*
X61393Y-32128D02*
X61393Y-31538D01*
X61393Y-31763D02*
X61336Y-31735D01*
X61224Y-31735D01*
X61168Y-31763D01*
X61140Y-31791D01*
X61111Y-31847D01*
X61111Y-32016D01*
X61140Y-32072D01*
X61168Y-32100D01*
X61224Y-32128D01*
X61336Y-32128D01*
X61393Y-32100D01*
X60605Y-32128D02*
X60605Y-31819D01*
X60633Y-31763D01*
X60690Y-31735D01*
X60802Y-31735D01*
X60858Y-31763D01*
X60605Y-32100D02*
X60661Y-32128D01*
X60802Y-32128D01*
X60858Y-32100D01*
X60886Y-32044D01*
X60886Y-31988D01*
X60858Y-31931D01*
X60802Y-31903D01*
X60661Y-31903D01*
X60605Y-31875D01*
X60240Y-32128D02*
X60296Y-32100D01*
X60324Y-32044D01*
X60324Y-31538D01*
X59930Y-32128D02*
X59987Y-32100D01*
X60015Y-32044D01*
X60015Y-31538D01*
X59705Y-32072D02*
X59677Y-32100D01*
X59705Y-32128D01*
X59733Y-32100D01*
X59705Y-32072D01*
X59705Y-32128D01*
X59171Y-32100D02*
X59227Y-32128D01*
X59340Y-32128D01*
X59396Y-32100D01*
X59424Y-32072D01*
X59452Y-32016D01*
X59452Y-31847D01*
X59424Y-31791D01*
X59396Y-31763D01*
X59340Y-31735D01*
X59227Y-31735D01*
X59171Y-31763D01*
X58834Y-32128D02*
X58890Y-32100D01*
X58918Y-32072D01*
X58946Y-32016D01*
X58946Y-31847D01*
X58918Y-31791D01*
X58890Y-31763D01*
X58834Y-31735D01*
X58749Y-31735D01*
X58693Y-31763D01*
X58665Y-31791D01*
X58637Y-31847D01*
X58637Y-32016D01*
X58665Y-32072D01*
X58693Y-32100D01*
X58749Y-32128D01*
X58834Y-32128D01*
X58384Y-32128D02*
X58384Y-31735D01*
X58384Y-31791D02*
X58356Y-31763D01*
X58299Y-31735D01*
X58215Y-31735D01*
X58159Y-31763D01*
X58131Y-31819D01*
X58131Y-32128D01*
X58131Y-31819D02*
X58102Y-31763D01*
X58046Y-31735D01*
X57962Y-31735D01*
X57906Y-31763D01*
X57877Y-31819D01*
X57877Y-32128D01*
X57146Y-31903D02*
X56696Y-31903D01*
X55993Y-31960D02*
X55712Y-31960D01*
X56050Y-32128D02*
X55853Y-31538D01*
X55656Y-32128D01*
X55459Y-32128D02*
X55459Y-31735D01*
X55459Y-31847D02*
X55431Y-31791D01*
X55403Y-31763D01*
X55347Y-31735D01*
X55290Y-31735D01*
X54840Y-32100D02*
X54897Y-32128D01*
X55009Y-32128D01*
X55065Y-32100D01*
X55093Y-32072D01*
X55122Y-32016D01*
X55122Y-31847D01*
X55093Y-31791D01*
X55065Y-31763D01*
X55009Y-31735D01*
X54897Y-31735D01*
X54840Y-31763D01*
X54334Y-32128D02*
X54334Y-31819D01*
X54362Y-31763D01*
X54419Y-31735D01*
X54531Y-31735D01*
X54587Y-31763D01*
X54334Y-32100D02*
X54390Y-32128D01*
X54531Y-32128D01*
X54587Y-32100D01*
X54615Y-32044D01*
X54615Y-31988D01*
X54587Y-31931D01*
X54531Y-31903D01*
X54390Y-31903D01*
X54334Y-31875D01*
X53800Y-32128D02*
X53800Y-31538D01*
X53800Y-32100D02*
X53856Y-32128D01*
X53969Y-32128D01*
X54025Y-32100D01*
X54053Y-32072D01*
X54081Y-32016D01*
X54081Y-31847D01*
X54053Y-31791D01*
X54025Y-31763D01*
X53969Y-31735D01*
X53856Y-31735D01*
X53800Y-31763D01*
X53294Y-32100D02*
X53350Y-32128D01*
X53462Y-32128D01*
X53519Y-32100D01*
X53547Y-32044D01*
X53547Y-31819D01*
X53519Y-31763D01*
X53462Y-31735D01*
X53350Y-31735D01*
X53294Y-31763D01*
X53266Y-31819D01*
X53266Y-31875D01*
X53547Y-31931D01*
X52225Y-32128D02*
X52422Y-31847D01*
X52562Y-32128D02*
X52562Y-31538D01*
X52338Y-31538D01*
X52281Y-31566D01*
X52253Y-31594D01*
X52225Y-31650D01*
X52225Y-31735D01*
X52253Y-31791D01*
X52281Y-31819D01*
X52338Y-31847D01*
X52562Y-31847D01*
X52028Y-31538D02*
X51634Y-32128D01*
X51634Y-31538D02*
X52028Y-32128D01*
X50678Y-32128D02*
X50960Y-32128D01*
X50960Y-31538D01*
X50200Y-32128D02*
X50482Y-32128D01*
X50482Y-31538D01*
X49666Y-32072D02*
X49694Y-32100D01*
X49778Y-32128D01*
X49835Y-32128D01*
X49919Y-32100D01*
X49975Y-32044D01*
X50003Y-31988D01*
X50032Y-31875D01*
X50032Y-31791D01*
X50003Y-31678D01*
X49975Y-31622D01*
X49919Y-31566D01*
X49835Y-31538D01*
X49778Y-31538D01*
X49694Y-31566D01*
X49666Y-31594D01*
M02*
