G04 (created by PCBNEW (2013-jul-07)-stable) date Sun 06 Sep 2015 09:30:16 PM EDT*
%MOIN*%
G04 Gerber Fmt 3.4, Leading zero omitted, Abs format*
%FSLAX34Y34*%
G01*
G70*
G90*
G04 APERTURE LIST*
%ADD10C,0.00590551*%
%ADD11C,0.011811*%
%ADD12C,0.0147638*%
%ADD13C,0.015*%
%ADD14C,0.005*%
%ADD15C,0.012*%
%ADD16C,0.008*%
%ADD17C,0.01*%
%ADD18C,0.006*%
%ADD19C,0.0107*%
%ADD20C,0.0035*%
%ADD21C,0.01125*%
G04 APERTURE END LIST*
G54D10*
G54D11*
X48280Y-62204D02*
X48308Y-62176D01*
X48365Y-62148D01*
X48505Y-62148D01*
X48561Y-62176D01*
X48589Y-62204D01*
X48618Y-62260D01*
X48618Y-62317D01*
X48589Y-62401D01*
X48252Y-62739D01*
X48618Y-62739D01*
X48983Y-62148D02*
X49039Y-62148D01*
X49096Y-62176D01*
X49124Y-62204D01*
X49152Y-62260D01*
X49180Y-62373D01*
X49180Y-62514D01*
X49152Y-62626D01*
X49124Y-62682D01*
X49096Y-62710D01*
X49039Y-62739D01*
X48983Y-62739D01*
X48927Y-62710D01*
X48899Y-62682D01*
X48871Y-62626D01*
X48843Y-62514D01*
X48843Y-62373D01*
X48871Y-62260D01*
X48899Y-62204D01*
X48927Y-62176D01*
X48983Y-62148D01*
X49742Y-62739D02*
X49405Y-62739D01*
X49574Y-62739D02*
X49574Y-62148D01*
X49517Y-62232D01*
X49461Y-62289D01*
X49405Y-62317D01*
X50277Y-62148D02*
X49996Y-62148D01*
X49967Y-62429D01*
X49996Y-62401D01*
X50052Y-62373D01*
X50192Y-62373D01*
X50249Y-62401D01*
X50277Y-62429D01*
X50305Y-62485D01*
X50305Y-62626D01*
X50277Y-62682D01*
X50249Y-62710D01*
X50192Y-62739D01*
X50052Y-62739D01*
X49996Y-62710D01*
X49967Y-62682D01*
X51008Y-62514D02*
X51458Y-62514D01*
X52161Y-62570D02*
X52442Y-62570D01*
X52105Y-62739D02*
X52302Y-62148D01*
X52498Y-62739D01*
X52695Y-62739D02*
X52695Y-62345D01*
X52695Y-62457D02*
X52723Y-62401D01*
X52751Y-62373D01*
X52808Y-62345D01*
X52864Y-62345D01*
X53314Y-62710D02*
X53258Y-62739D01*
X53145Y-62739D01*
X53089Y-62710D01*
X53061Y-62682D01*
X53033Y-62626D01*
X53033Y-62457D01*
X53061Y-62401D01*
X53089Y-62373D01*
X53145Y-62345D01*
X53258Y-62345D01*
X53314Y-62373D01*
X53820Y-62739D02*
X53820Y-62429D01*
X53792Y-62373D01*
X53736Y-62345D01*
X53623Y-62345D01*
X53567Y-62373D01*
X53820Y-62710D02*
X53764Y-62739D01*
X53623Y-62739D01*
X53567Y-62710D01*
X53539Y-62654D01*
X53539Y-62598D01*
X53567Y-62542D01*
X53623Y-62514D01*
X53764Y-62514D01*
X53820Y-62485D01*
X54354Y-62739D02*
X54354Y-62148D01*
X54354Y-62710D02*
X54298Y-62739D01*
X54186Y-62739D01*
X54129Y-62710D01*
X54101Y-62682D01*
X54073Y-62626D01*
X54073Y-62457D01*
X54101Y-62401D01*
X54129Y-62373D01*
X54186Y-62345D01*
X54298Y-62345D01*
X54354Y-62373D01*
X54861Y-62710D02*
X54804Y-62739D01*
X54692Y-62739D01*
X54636Y-62710D01*
X54607Y-62654D01*
X54607Y-62429D01*
X54636Y-62373D01*
X54692Y-62345D01*
X54804Y-62345D01*
X54861Y-62373D01*
X54889Y-62429D01*
X54889Y-62485D01*
X54607Y-62542D01*
X55929Y-62739D02*
X55732Y-62457D01*
X55592Y-62739D02*
X55592Y-62148D01*
X55817Y-62148D01*
X55873Y-62176D01*
X55901Y-62204D01*
X55929Y-62260D01*
X55929Y-62345D01*
X55901Y-62401D01*
X55873Y-62429D01*
X55817Y-62457D01*
X55592Y-62457D01*
X56126Y-62148D02*
X56520Y-62739D01*
X56520Y-62148D02*
X56126Y-62739D01*
X57616Y-62120D02*
X57110Y-62879D01*
X58488Y-62710D02*
X58432Y-62739D01*
X58320Y-62739D01*
X58263Y-62710D01*
X58235Y-62654D01*
X58235Y-62429D01*
X58263Y-62373D01*
X58320Y-62345D01*
X58432Y-62345D01*
X58488Y-62373D01*
X58516Y-62429D01*
X58516Y-62485D01*
X58235Y-62542D01*
X58769Y-62739D02*
X58769Y-62148D01*
X58994Y-62148D01*
X59051Y-62176D01*
X59079Y-62204D01*
X59107Y-62260D01*
X59107Y-62345D01*
X59079Y-62401D01*
X59051Y-62429D01*
X58994Y-62457D01*
X58769Y-62457D01*
X59360Y-62739D02*
X59360Y-62345D01*
X59360Y-62148D02*
X59332Y-62176D01*
X59360Y-62204D01*
X59388Y-62176D01*
X59360Y-62148D01*
X59360Y-62204D01*
X59641Y-62345D02*
X59641Y-62739D01*
X59641Y-62401D02*
X59669Y-62373D01*
X59726Y-62345D01*
X59810Y-62345D01*
X59866Y-62373D01*
X59894Y-62429D01*
X59894Y-62739D01*
X60176Y-62739D02*
X60176Y-62148D01*
X60176Y-62373D02*
X60232Y-62345D01*
X60344Y-62345D01*
X60401Y-62373D01*
X60429Y-62401D01*
X60457Y-62457D01*
X60457Y-62626D01*
X60429Y-62682D01*
X60401Y-62710D01*
X60344Y-62739D01*
X60232Y-62739D01*
X60176Y-62710D01*
X60963Y-62739D02*
X60963Y-62429D01*
X60935Y-62373D01*
X60879Y-62345D01*
X60766Y-62345D01*
X60710Y-62373D01*
X60963Y-62710D02*
X60907Y-62739D01*
X60766Y-62739D01*
X60710Y-62710D01*
X60682Y-62654D01*
X60682Y-62598D01*
X60710Y-62542D01*
X60766Y-62514D01*
X60907Y-62514D01*
X60963Y-62485D01*
X61329Y-62739D02*
X61272Y-62710D01*
X61244Y-62654D01*
X61244Y-62148D01*
X61638Y-62739D02*
X61582Y-62710D01*
X61553Y-62654D01*
X61553Y-62148D01*
X61863Y-62682D02*
X61891Y-62710D01*
X61863Y-62739D01*
X61835Y-62710D01*
X61863Y-62682D01*
X61863Y-62739D01*
X62397Y-62710D02*
X62341Y-62739D01*
X62228Y-62739D01*
X62172Y-62710D01*
X62144Y-62682D01*
X62116Y-62626D01*
X62116Y-62457D01*
X62144Y-62401D01*
X62172Y-62373D01*
X62228Y-62345D01*
X62341Y-62345D01*
X62397Y-62373D01*
X62735Y-62739D02*
X62678Y-62710D01*
X62650Y-62682D01*
X62622Y-62626D01*
X62622Y-62457D01*
X62650Y-62401D01*
X62678Y-62373D01*
X62735Y-62345D01*
X62819Y-62345D01*
X62875Y-62373D01*
X62903Y-62401D01*
X62931Y-62457D01*
X62931Y-62626D01*
X62903Y-62682D01*
X62875Y-62710D01*
X62819Y-62739D01*
X62735Y-62739D01*
X63185Y-62739D02*
X63185Y-62345D01*
X63185Y-62401D02*
X63213Y-62373D01*
X63269Y-62345D01*
X63353Y-62345D01*
X63410Y-62373D01*
X63438Y-62429D01*
X63438Y-62739D01*
X63438Y-62429D02*
X63466Y-62373D01*
X63522Y-62345D01*
X63606Y-62345D01*
X63663Y-62373D01*
X63691Y-62429D01*
X63691Y-62739D01*
G54D12*
X49038Y-30901D02*
X48982Y-30873D01*
X48953Y-30845D01*
X48925Y-30789D01*
X48925Y-30760D01*
X48953Y-30704D01*
X48982Y-30676D01*
X49038Y-30648D01*
X49150Y-30648D01*
X49206Y-30676D01*
X49235Y-30704D01*
X49263Y-30760D01*
X49263Y-30789D01*
X49235Y-30845D01*
X49206Y-30873D01*
X49150Y-30901D01*
X49038Y-30901D01*
X48982Y-30929D01*
X48953Y-30957D01*
X48925Y-31014D01*
X48925Y-31126D01*
X48953Y-31182D01*
X48982Y-31210D01*
X49038Y-31239D01*
X49150Y-31239D01*
X49206Y-31210D01*
X49235Y-31182D01*
X49263Y-31126D01*
X49263Y-31014D01*
X49235Y-30957D01*
X49206Y-30929D01*
X49150Y-30901D01*
X49460Y-31239D02*
X49769Y-30845D01*
X49460Y-30845D02*
X49769Y-31239D01*
X50078Y-30901D02*
X50022Y-30873D01*
X49994Y-30845D01*
X49966Y-30789D01*
X49966Y-30760D01*
X49994Y-30704D01*
X50022Y-30676D01*
X50078Y-30648D01*
X50191Y-30648D01*
X50247Y-30676D01*
X50275Y-30704D01*
X50303Y-30760D01*
X50303Y-30789D01*
X50275Y-30845D01*
X50247Y-30873D01*
X50191Y-30901D01*
X50078Y-30901D01*
X50022Y-30929D01*
X49994Y-30957D01*
X49966Y-31014D01*
X49966Y-31126D01*
X49994Y-31182D01*
X50022Y-31210D01*
X50078Y-31239D01*
X50191Y-31239D01*
X50247Y-31210D01*
X50275Y-31182D01*
X50303Y-31126D01*
X50303Y-31014D01*
X50275Y-30957D01*
X50247Y-30929D01*
X50191Y-30901D01*
X50978Y-31210D02*
X51062Y-31239D01*
X51203Y-31239D01*
X51259Y-31210D01*
X51287Y-31182D01*
X51316Y-31126D01*
X51316Y-31070D01*
X51287Y-31014D01*
X51259Y-30985D01*
X51203Y-30957D01*
X51091Y-30929D01*
X51034Y-30901D01*
X51006Y-30873D01*
X50978Y-30817D01*
X50978Y-30760D01*
X51006Y-30704D01*
X51034Y-30676D01*
X51091Y-30648D01*
X51231Y-30648D01*
X51316Y-30676D01*
X51512Y-30845D02*
X51625Y-31239D01*
X51737Y-30957D01*
X51850Y-31239D01*
X51962Y-30845D01*
X52187Y-31239D02*
X52187Y-30845D01*
X52187Y-30648D02*
X52159Y-30676D01*
X52187Y-30704D01*
X52215Y-30676D01*
X52187Y-30648D01*
X52187Y-30704D01*
X52384Y-30845D02*
X52609Y-30845D01*
X52469Y-30648D02*
X52469Y-31154D01*
X52497Y-31210D01*
X52553Y-31239D01*
X52609Y-31239D01*
X53059Y-31210D02*
X53003Y-31239D01*
X52890Y-31239D01*
X52834Y-31210D01*
X52806Y-31182D01*
X52778Y-31126D01*
X52778Y-30957D01*
X52806Y-30901D01*
X52834Y-30873D01*
X52890Y-30845D01*
X53003Y-30845D01*
X53059Y-30873D01*
X53312Y-31239D02*
X53312Y-30648D01*
X53565Y-31239D02*
X53565Y-30929D01*
X53537Y-30873D01*
X53481Y-30845D01*
X53397Y-30845D01*
X53340Y-30873D01*
X53312Y-30901D01*
X54296Y-31239D02*
X54296Y-30648D01*
X54493Y-31070D01*
X54690Y-30648D01*
X54690Y-31239D01*
X55224Y-31239D02*
X55224Y-30929D01*
X55196Y-30873D01*
X55140Y-30845D01*
X55028Y-30845D01*
X54971Y-30873D01*
X55224Y-31210D02*
X55168Y-31239D01*
X55028Y-31239D01*
X54971Y-31210D01*
X54943Y-31154D01*
X54943Y-31098D01*
X54971Y-31042D01*
X55028Y-31014D01*
X55168Y-31014D01*
X55224Y-30985D01*
X55421Y-30845D02*
X55646Y-30845D01*
X55506Y-30648D02*
X55506Y-31154D01*
X55534Y-31210D01*
X55590Y-31239D01*
X55646Y-31239D01*
X55843Y-31239D02*
X55843Y-30845D01*
X55843Y-30957D02*
X55871Y-30901D01*
X55899Y-30873D01*
X55956Y-30845D01*
X56012Y-30845D01*
X56209Y-31239D02*
X56209Y-30845D01*
X56209Y-30648D02*
X56181Y-30676D01*
X56209Y-30704D01*
X56237Y-30676D01*
X56209Y-30648D01*
X56209Y-30704D01*
X56434Y-31239D02*
X56743Y-30845D01*
X56434Y-30845D02*
X56743Y-31239D01*
X57418Y-31239D02*
X57418Y-30648D01*
X57699Y-30845D02*
X57699Y-31239D01*
X57699Y-30901D02*
X57727Y-30873D01*
X57784Y-30845D01*
X57868Y-30845D01*
X57924Y-30873D01*
X57952Y-30929D01*
X57952Y-31239D01*
X58149Y-30845D02*
X58374Y-30845D01*
X58233Y-30648D02*
X58233Y-31154D01*
X58262Y-31210D01*
X58318Y-31239D01*
X58374Y-31239D01*
X58796Y-31210D02*
X58740Y-31239D01*
X58627Y-31239D01*
X58571Y-31210D01*
X58543Y-31154D01*
X58543Y-30929D01*
X58571Y-30873D01*
X58627Y-30845D01*
X58740Y-30845D01*
X58796Y-30873D01*
X58824Y-30929D01*
X58824Y-30985D01*
X58543Y-31042D01*
X59077Y-31239D02*
X59077Y-30845D01*
X59077Y-30957D02*
X59105Y-30901D01*
X59133Y-30873D01*
X59190Y-30845D01*
X59246Y-30845D01*
X59358Y-30845D02*
X59583Y-30845D01*
X59443Y-31239D02*
X59443Y-30732D01*
X59471Y-30676D01*
X59527Y-30648D01*
X59583Y-30648D01*
X60033Y-31239D02*
X60033Y-30929D01*
X60005Y-30873D01*
X59949Y-30845D01*
X59836Y-30845D01*
X59780Y-30873D01*
X60033Y-31210D02*
X59977Y-31239D01*
X59836Y-31239D01*
X59780Y-31210D01*
X59752Y-31154D01*
X59752Y-31098D01*
X59780Y-31042D01*
X59836Y-31014D01*
X59977Y-31014D01*
X60033Y-30985D01*
X60568Y-31210D02*
X60511Y-31239D01*
X60399Y-31239D01*
X60343Y-31210D01*
X60314Y-31182D01*
X60286Y-31126D01*
X60286Y-30957D01*
X60314Y-30901D01*
X60343Y-30873D01*
X60399Y-30845D01*
X60511Y-30845D01*
X60568Y-30873D01*
X61046Y-31210D02*
X60989Y-31239D01*
X60877Y-31239D01*
X60821Y-31210D01*
X60793Y-31154D01*
X60793Y-30929D01*
X60821Y-30873D01*
X60877Y-30845D01*
X60989Y-30845D01*
X61046Y-30873D01*
X61074Y-30929D01*
X61074Y-30985D01*
X60793Y-31042D01*
G54D13*
X74750Y-28500D02*
X74500Y-28500D01*
X74500Y-28500D02*
X74500Y-24500D01*
X74500Y-24500D02*
X74750Y-24500D01*
X76250Y-28500D02*
X74750Y-28500D01*
X74750Y-28500D02*
X74750Y-24500D01*
X74750Y-24500D02*
X76250Y-24500D01*
X76250Y-24500D02*
X76250Y-28500D01*
G54D14*
X75000Y-53000D02*
G75*
G03X75000Y-53000I-1000J0D01*
G74*
G01*
X75500Y-51500D02*
X75500Y-54500D01*
X75500Y-54500D02*
X72500Y-54500D01*
X72500Y-54500D02*
X72500Y-51500D01*
X75500Y-51500D02*
X72500Y-51500D01*
X38000Y-61000D02*
G75*
G03X38000Y-61000I-1000J0D01*
G74*
G01*
X35500Y-59500D02*
X38500Y-59500D01*
X38500Y-59500D02*
X38500Y-62500D01*
X38500Y-62500D02*
X35500Y-62500D01*
X35500Y-59500D02*
X35500Y-62500D01*
G54D15*
X76000Y-38000D02*
X76000Y-38000D01*
X76000Y-38000D02*
X76000Y-31000D01*
X76000Y-31000D02*
X77000Y-31000D01*
X77000Y-31000D02*
X77000Y-38000D01*
X77000Y-38000D02*
X76000Y-38000D01*
X77000Y-37000D02*
X77000Y-37000D01*
X77000Y-37000D02*
X76000Y-37000D01*
X35000Y-33500D02*
X34000Y-33500D01*
X34000Y-33500D02*
X34000Y-23500D01*
X34000Y-23500D02*
X35000Y-23500D01*
X35000Y-23500D02*
X35000Y-33500D01*
X35000Y-32500D02*
X34000Y-32500D01*
X34000Y-37500D02*
X35000Y-37500D01*
X35000Y-37500D02*
X35000Y-47500D01*
X35000Y-47500D02*
X34000Y-47500D01*
X34000Y-47500D02*
X34000Y-37500D01*
X34000Y-38500D02*
X35000Y-38500D01*
G54D14*
X61750Y-20000D02*
X61000Y-20000D01*
X61000Y-20000D02*
X61000Y-23000D01*
X61000Y-23000D02*
X62000Y-23000D01*
X62000Y-23000D02*
X62000Y-20000D01*
X62000Y-20000D02*
X61750Y-20000D01*
X61500Y-19750D02*
X61500Y-20000D01*
X61500Y-23000D02*
X61500Y-23250D01*
X61750Y-20000D02*
X62000Y-20250D01*
X52750Y-49500D02*
X53500Y-49500D01*
X53500Y-49500D02*
X53500Y-46500D01*
X53500Y-46500D02*
X52500Y-46500D01*
X52500Y-46500D02*
X52500Y-49500D01*
X52500Y-49500D02*
X52750Y-49500D01*
X53000Y-49750D02*
X53000Y-49500D01*
X53000Y-46500D02*
X53000Y-46250D01*
X52750Y-49500D02*
X52500Y-49250D01*
X59750Y-20000D02*
X59000Y-20000D01*
X59000Y-20000D02*
X59000Y-23000D01*
X59000Y-23000D02*
X60000Y-23000D01*
X60000Y-23000D02*
X60000Y-20000D01*
X60000Y-20000D02*
X59750Y-20000D01*
X59500Y-19750D02*
X59500Y-20000D01*
X59500Y-23000D02*
X59500Y-23250D01*
X59750Y-20000D02*
X60000Y-20250D01*
X57750Y-20000D02*
X57000Y-20000D01*
X57000Y-20000D02*
X57000Y-23000D01*
X57000Y-23000D02*
X58000Y-23000D01*
X58000Y-23000D02*
X58000Y-20000D01*
X58000Y-20000D02*
X57750Y-20000D01*
X57500Y-19750D02*
X57500Y-20000D01*
X57500Y-23000D02*
X57500Y-23250D01*
X57750Y-20000D02*
X58000Y-20250D01*
X55750Y-20000D02*
X55000Y-20000D01*
X55000Y-20000D02*
X55000Y-23000D01*
X55000Y-23000D02*
X56000Y-23000D01*
X56000Y-23000D02*
X56000Y-20000D01*
X56000Y-20000D02*
X55750Y-20000D01*
X55500Y-19750D02*
X55500Y-20000D01*
X55500Y-23000D02*
X55500Y-23250D01*
X55750Y-20000D02*
X56000Y-20250D01*
X47750Y-56000D02*
X48500Y-56000D01*
X48500Y-56000D02*
X48500Y-53000D01*
X48500Y-53000D02*
X47500Y-53000D01*
X47500Y-53000D02*
X47500Y-56000D01*
X47500Y-56000D02*
X47750Y-56000D01*
X48000Y-56250D02*
X48000Y-56000D01*
X48000Y-53000D02*
X48000Y-52750D01*
X47750Y-56000D02*
X47500Y-55750D01*
X45750Y-56000D02*
X46500Y-56000D01*
X46500Y-56000D02*
X46500Y-53000D01*
X46500Y-53000D02*
X45500Y-53000D01*
X45500Y-53000D02*
X45500Y-56000D01*
X45500Y-56000D02*
X45750Y-56000D01*
X46000Y-56250D02*
X46000Y-56000D01*
X46000Y-53000D02*
X46000Y-52750D01*
X45750Y-56000D02*
X45500Y-55750D01*
X36750Y-56000D02*
X37500Y-56000D01*
X37500Y-56000D02*
X37500Y-53000D01*
X37500Y-53000D02*
X36500Y-53000D01*
X36500Y-53000D02*
X36500Y-56000D01*
X36500Y-56000D02*
X36750Y-56000D01*
X37000Y-56250D02*
X37000Y-56000D01*
X37000Y-53000D02*
X37000Y-52750D01*
X36750Y-56000D02*
X36500Y-55750D01*
X58750Y-49500D02*
X59500Y-49500D01*
X59500Y-49500D02*
X59500Y-46500D01*
X59500Y-46500D02*
X58500Y-46500D01*
X58500Y-46500D02*
X58500Y-49500D01*
X58500Y-49500D02*
X58750Y-49500D01*
X59000Y-49750D02*
X59000Y-49500D01*
X59000Y-46500D02*
X59000Y-46250D01*
X58750Y-49500D02*
X58500Y-49250D01*
X59250Y-52500D02*
X58500Y-52500D01*
X58500Y-52500D02*
X58500Y-55500D01*
X58500Y-55500D02*
X59500Y-55500D01*
X59500Y-55500D02*
X59500Y-52500D01*
X59500Y-52500D02*
X59250Y-52500D01*
X59000Y-52250D02*
X59000Y-52500D01*
X59000Y-55500D02*
X59000Y-55750D01*
X59250Y-52500D02*
X59500Y-52750D01*
X59250Y-58000D02*
X58500Y-58000D01*
X58500Y-58000D02*
X58500Y-61000D01*
X58500Y-61000D02*
X59500Y-61000D01*
X59500Y-61000D02*
X59500Y-58000D01*
X59500Y-58000D02*
X59250Y-58000D01*
X59000Y-57750D02*
X59000Y-58000D01*
X59000Y-61000D02*
X59000Y-61250D01*
X59250Y-58000D02*
X59500Y-58250D01*
X40000Y-46250D02*
X40000Y-45500D01*
X40000Y-45500D02*
X37000Y-45500D01*
X37000Y-45500D02*
X37000Y-46500D01*
X37000Y-46500D02*
X40000Y-46500D01*
X40000Y-46500D02*
X40000Y-46250D01*
X40250Y-46000D02*
X40000Y-46000D01*
X37000Y-46000D02*
X36750Y-46000D01*
X40000Y-46250D02*
X39750Y-46500D01*
X38250Y-56000D02*
X39000Y-56000D01*
X39000Y-56000D02*
X39000Y-53000D01*
X39000Y-53000D02*
X38000Y-53000D01*
X38000Y-53000D02*
X38000Y-56000D01*
X38000Y-56000D02*
X38250Y-56000D01*
X38500Y-56250D02*
X38500Y-56000D01*
X38500Y-53000D02*
X38500Y-52750D01*
X38250Y-56000D02*
X38000Y-55750D01*
X53750Y-20000D02*
X53000Y-20000D01*
X53000Y-20000D02*
X53000Y-23000D01*
X53000Y-23000D02*
X54000Y-23000D01*
X54000Y-23000D02*
X54000Y-20000D01*
X54000Y-20000D02*
X53750Y-20000D01*
X53500Y-19750D02*
X53500Y-20000D01*
X53500Y-23000D02*
X53500Y-23250D01*
X53750Y-20000D02*
X54000Y-20250D01*
X63750Y-20000D02*
X63000Y-20000D01*
X63000Y-20000D02*
X63000Y-23000D01*
X63000Y-23000D02*
X64000Y-23000D01*
X64000Y-23000D02*
X64000Y-20000D01*
X64000Y-20000D02*
X63750Y-20000D01*
X63500Y-19750D02*
X63500Y-20000D01*
X63500Y-23000D02*
X63500Y-23250D01*
X63750Y-20000D02*
X64000Y-20250D01*
X65750Y-20000D02*
X65000Y-20000D01*
X65000Y-20000D02*
X65000Y-23000D01*
X65000Y-23000D02*
X66000Y-23000D01*
X66000Y-23000D02*
X66000Y-20000D01*
X66000Y-20000D02*
X65750Y-20000D01*
X65500Y-19750D02*
X65500Y-20000D01*
X65500Y-23000D02*
X65500Y-23250D01*
X65750Y-20000D02*
X66000Y-20250D01*
X51750Y-20000D02*
X51000Y-20000D01*
X51000Y-20000D02*
X51000Y-23000D01*
X51000Y-23000D02*
X52000Y-23000D01*
X52000Y-23000D02*
X52000Y-20000D01*
X52000Y-20000D02*
X51750Y-20000D01*
X51500Y-19750D02*
X51500Y-20000D01*
X51500Y-23000D02*
X51500Y-23250D01*
X51750Y-20000D02*
X52000Y-20250D01*
X39000Y-23750D02*
X39000Y-24500D01*
X39000Y-24500D02*
X42000Y-24500D01*
X42000Y-24500D02*
X42000Y-23500D01*
X42000Y-23500D02*
X39000Y-23500D01*
X39000Y-23500D02*
X39000Y-23750D01*
X38750Y-24000D02*
X39000Y-24000D01*
X42000Y-24000D02*
X42250Y-24000D01*
X39000Y-23750D02*
X39250Y-23500D01*
X44000Y-24750D02*
X44000Y-25500D01*
X44000Y-25500D02*
X47000Y-25500D01*
X47000Y-25500D02*
X47000Y-24500D01*
X47000Y-24500D02*
X44000Y-24500D01*
X44000Y-24500D02*
X44000Y-24750D01*
X43750Y-25000D02*
X44000Y-25000D01*
X47000Y-25000D02*
X47250Y-25000D01*
X44000Y-24750D02*
X44250Y-24500D01*
X39000Y-25750D02*
X39000Y-26500D01*
X39000Y-26500D02*
X42000Y-26500D01*
X42000Y-26500D02*
X42000Y-25500D01*
X42000Y-25500D02*
X39000Y-25500D01*
X39000Y-25500D02*
X39000Y-25750D01*
X38750Y-26000D02*
X39000Y-26000D01*
X42000Y-26000D02*
X42250Y-26000D01*
X39000Y-25750D02*
X39250Y-25500D01*
X39000Y-27750D02*
X39000Y-28500D01*
X39000Y-28500D02*
X42000Y-28500D01*
X42000Y-28500D02*
X42000Y-27500D01*
X42000Y-27500D02*
X39000Y-27500D01*
X39000Y-27500D02*
X39000Y-27750D01*
X38750Y-28000D02*
X39000Y-28000D01*
X42000Y-28000D02*
X42250Y-28000D01*
X39000Y-27750D02*
X39250Y-27500D01*
X44000Y-28750D02*
X44000Y-29500D01*
X44000Y-29500D02*
X47000Y-29500D01*
X47000Y-29500D02*
X47000Y-28500D01*
X47000Y-28500D02*
X44000Y-28500D01*
X44000Y-28500D02*
X44000Y-28750D01*
X43750Y-29000D02*
X44000Y-29000D01*
X47000Y-29000D02*
X47250Y-29000D01*
X44000Y-28750D02*
X44250Y-28500D01*
X39000Y-29750D02*
X39000Y-30500D01*
X39000Y-30500D02*
X42000Y-30500D01*
X42000Y-30500D02*
X42000Y-29500D01*
X42000Y-29500D02*
X39000Y-29500D01*
X39000Y-29500D02*
X39000Y-29750D01*
X38750Y-30000D02*
X39000Y-30000D01*
X42000Y-30000D02*
X42250Y-30000D01*
X39000Y-29750D02*
X39250Y-29500D01*
X44000Y-30750D02*
X44000Y-31500D01*
X44000Y-31500D02*
X47000Y-31500D01*
X47000Y-31500D02*
X47000Y-30500D01*
X47000Y-30500D02*
X44000Y-30500D01*
X44000Y-30500D02*
X44000Y-30750D01*
X43750Y-31000D02*
X44000Y-31000D01*
X47000Y-31000D02*
X47250Y-31000D01*
X44000Y-30750D02*
X44250Y-30500D01*
X39000Y-31750D02*
X39000Y-32500D01*
X39000Y-32500D02*
X42000Y-32500D01*
X42000Y-32500D02*
X42000Y-31500D01*
X42000Y-31500D02*
X39000Y-31500D01*
X39000Y-31500D02*
X39000Y-31750D01*
X38750Y-32000D02*
X39000Y-32000D01*
X42000Y-32000D02*
X42250Y-32000D01*
X39000Y-31750D02*
X39250Y-31500D01*
X73750Y-42000D02*
X73000Y-42000D01*
X73000Y-42000D02*
X73000Y-45000D01*
X73000Y-45000D02*
X74000Y-45000D01*
X74000Y-45000D02*
X74000Y-42000D01*
X74000Y-42000D02*
X73750Y-42000D01*
X73500Y-41750D02*
X73500Y-42000D01*
X73500Y-45000D02*
X73500Y-45250D01*
X73750Y-42000D02*
X74000Y-42250D01*
X64250Y-53000D02*
X63500Y-53000D01*
X63500Y-53000D02*
X63500Y-56000D01*
X63500Y-56000D02*
X64500Y-56000D01*
X64500Y-56000D02*
X64500Y-53000D01*
X64500Y-53000D02*
X64250Y-53000D01*
X64000Y-52750D02*
X64000Y-53000D01*
X64000Y-56000D02*
X64000Y-56250D01*
X64250Y-53000D02*
X64500Y-53250D01*
X66250Y-56000D02*
X67000Y-56000D01*
X67000Y-56000D02*
X67000Y-53000D01*
X67000Y-53000D02*
X66000Y-53000D01*
X66000Y-53000D02*
X66000Y-56000D01*
X66000Y-56000D02*
X66250Y-56000D01*
X66500Y-56250D02*
X66500Y-56000D01*
X66500Y-53000D02*
X66500Y-52750D01*
X66250Y-56000D02*
X66000Y-55750D01*
X35500Y-57750D02*
X35500Y-58500D01*
X35500Y-58500D02*
X38500Y-58500D01*
X38500Y-58500D02*
X38500Y-57500D01*
X38500Y-57500D02*
X35500Y-57500D01*
X35500Y-57500D02*
X35500Y-57750D01*
X35250Y-58000D02*
X35500Y-58000D01*
X38500Y-58000D02*
X38750Y-58000D01*
X35500Y-57750D02*
X35750Y-57500D01*
X72500Y-47750D02*
X72500Y-48500D01*
X72500Y-48500D02*
X75500Y-48500D01*
X75500Y-48500D02*
X75500Y-47500D01*
X75500Y-47500D02*
X72500Y-47500D01*
X72500Y-47500D02*
X72500Y-47750D01*
X72250Y-48000D02*
X72500Y-48000D01*
X75500Y-48000D02*
X75750Y-48000D01*
X72500Y-47750D02*
X72750Y-47500D01*
X57250Y-34500D02*
X56500Y-34500D01*
X56500Y-34500D02*
X56500Y-37500D01*
X56500Y-37500D02*
X57500Y-37500D01*
X57500Y-37500D02*
X57500Y-34500D01*
X57500Y-34500D02*
X57250Y-34500D01*
X57000Y-34250D02*
X57000Y-34500D01*
X57000Y-37500D02*
X57000Y-37750D01*
X57250Y-34500D02*
X57500Y-34750D01*
X56750Y-44000D02*
X57500Y-44000D01*
X57500Y-44000D02*
X57500Y-41000D01*
X57500Y-41000D02*
X56500Y-41000D01*
X56500Y-41000D02*
X56500Y-44000D01*
X56500Y-44000D02*
X56750Y-44000D01*
X57000Y-44250D02*
X57000Y-44000D01*
X57000Y-41000D02*
X57000Y-40750D01*
X56750Y-44000D02*
X56500Y-43750D01*
X42250Y-37500D02*
X43000Y-37500D01*
X43000Y-37500D02*
X43000Y-34500D01*
X43000Y-34500D02*
X42000Y-34500D01*
X42000Y-34500D02*
X42000Y-37500D01*
X42000Y-37500D02*
X42250Y-37500D01*
X42500Y-37750D02*
X42500Y-37500D01*
X42500Y-34500D02*
X42500Y-34250D01*
X42250Y-37500D02*
X42000Y-37250D01*
X46750Y-37500D02*
X47500Y-37500D01*
X47500Y-37500D02*
X47500Y-34500D01*
X47500Y-34500D02*
X46500Y-34500D01*
X46500Y-34500D02*
X46500Y-37500D01*
X46500Y-37500D02*
X46750Y-37500D01*
X47000Y-37750D02*
X47000Y-37500D01*
X47000Y-34500D02*
X47000Y-34250D01*
X46750Y-37500D02*
X46500Y-37250D01*
X51250Y-34500D02*
X50500Y-34500D01*
X50500Y-34500D02*
X50500Y-37500D01*
X50500Y-37500D02*
X51500Y-37500D01*
X51500Y-37500D02*
X51500Y-34500D01*
X51500Y-34500D02*
X51250Y-34500D01*
X51000Y-34250D02*
X51000Y-34500D01*
X51000Y-37500D02*
X51000Y-37750D01*
X51250Y-34500D02*
X51500Y-34750D01*
X52750Y-37500D02*
X53500Y-37500D01*
X53500Y-37500D02*
X53500Y-34500D01*
X53500Y-34500D02*
X52500Y-34500D01*
X52500Y-34500D02*
X52500Y-37500D01*
X52500Y-37500D02*
X52750Y-37500D01*
X53000Y-37750D02*
X53000Y-37500D01*
X53000Y-34500D02*
X53000Y-34250D01*
X52750Y-37500D02*
X52500Y-37250D01*
X44250Y-56000D02*
X45000Y-56000D01*
X45000Y-56000D02*
X45000Y-53000D01*
X45000Y-53000D02*
X44000Y-53000D01*
X44000Y-53000D02*
X44000Y-56000D01*
X44000Y-56000D02*
X44250Y-56000D01*
X44500Y-56250D02*
X44500Y-56000D01*
X44500Y-53000D02*
X44500Y-52750D01*
X44250Y-56000D02*
X44000Y-55750D01*
X40000Y-39250D02*
X40000Y-38500D01*
X40000Y-38500D02*
X37000Y-38500D01*
X37000Y-38500D02*
X37000Y-39500D01*
X37000Y-39500D02*
X40000Y-39500D01*
X40000Y-39500D02*
X40000Y-39250D01*
X40250Y-39000D02*
X40000Y-39000D01*
X37000Y-39000D02*
X36750Y-39000D01*
X40000Y-39250D02*
X39750Y-39500D01*
X45250Y-37500D02*
X46000Y-37500D01*
X46000Y-37500D02*
X46000Y-34500D01*
X46000Y-34500D02*
X45000Y-34500D01*
X45000Y-34500D02*
X45000Y-37500D01*
X45000Y-37500D02*
X45250Y-37500D01*
X45500Y-37750D02*
X45500Y-37500D01*
X45500Y-34500D02*
X45500Y-34250D01*
X45250Y-37500D02*
X45000Y-37250D01*
X59250Y-41000D02*
X58500Y-41000D01*
X58500Y-41000D02*
X58500Y-44000D01*
X58500Y-44000D02*
X59500Y-44000D01*
X59500Y-44000D02*
X59500Y-41000D01*
X59500Y-41000D02*
X59250Y-41000D01*
X59000Y-40750D02*
X59000Y-41000D01*
X59000Y-44000D02*
X59000Y-44250D01*
X59250Y-41000D02*
X59500Y-41250D01*
X54750Y-37500D02*
X55500Y-37500D01*
X55500Y-37500D02*
X55500Y-34500D01*
X55500Y-34500D02*
X54500Y-34500D01*
X54500Y-34500D02*
X54500Y-37500D01*
X54500Y-37500D02*
X54750Y-37500D01*
X55000Y-37750D02*
X55000Y-37500D01*
X55000Y-34500D02*
X55000Y-34250D01*
X54750Y-37500D02*
X54500Y-37250D01*
X48250Y-37500D02*
X49000Y-37500D01*
X49000Y-37500D02*
X49000Y-34500D01*
X49000Y-34500D02*
X48000Y-34500D01*
X48000Y-34500D02*
X48000Y-37500D01*
X48000Y-37500D02*
X48250Y-37500D01*
X48500Y-37750D02*
X48500Y-37500D01*
X48500Y-34500D02*
X48500Y-34250D01*
X48250Y-37500D02*
X48000Y-37250D01*
X40000Y-40250D02*
X40000Y-39500D01*
X40000Y-39500D02*
X37000Y-39500D01*
X37000Y-39500D02*
X37000Y-40500D01*
X37000Y-40500D02*
X40000Y-40500D01*
X40000Y-40500D02*
X40000Y-40250D01*
X40250Y-40000D02*
X40000Y-40000D01*
X37000Y-40000D02*
X36750Y-40000D01*
X40000Y-40250D02*
X39750Y-40500D01*
X43750Y-37500D02*
X44500Y-37500D01*
X44500Y-37500D02*
X44500Y-34500D01*
X44500Y-34500D02*
X43500Y-34500D01*
X43500Y-34500D02*
X43500Y-37500D01*
X43500Y-37500D02*
X43750Y-37500D01*
X44000Y-37750D02*
X44000Y-37500D01*
X44000Y-34500D02*
X44000Y-34250D01*
X43750Y-37500D02*
X43500Y-37250D01*
X52750Y-44000D02*
X53500Y-44000D01*
X53500Y-44000D02*
X53500Y-41000D01*
X53500Y-41000D02*
X52500Y-41000D01*
X52500Y-41000D02*
X52500Y-44000D01*
X52500Y-44000D02*
X52750Y-44000D01*
X53000Y-44250D02*
X53000Y-44000D01*
X53000Y-41000D02*
X53000Y-40750D01*
X52750Y-44000D02*
X52500Y-43750D01*
X55250Y-41000D02*
X54500Y-41000D01*
X54500Y-41000D02*
X54500Y-44000D01*
X54500Y-44000D02*
X55500Y-44000D01*
X55500Y-44000D02*
X55500Y-41000D01*
X55500Y-41000D02*
X55250Y-41000D01*
X55000Y-40750D02*
X55000Y-41000D01*
X55000Y-44000D02*
X55000Y-44250D01*
X55250Y-41000D02*
X55500Y-41250D01*
X40000Y-41250D02*
X40000Y-40500D01*
X40000Y-40500D02*
X37000Y-40500D01*
X37000Y-40500D02*
X37000Y-41500D01*
X37000Y-41500D02*
X40000Y-41500D01*
X40000Y-41500D02*
X40000Y-41250D01*
X40250Y-41000D02*
X40000Y-41000D01*
X37000Y-41000D02*
X36750Y-41000D01*
X40000Y-41250D02*
X39750Y-41500D01*
X42750Y-56000D02*
X43500Y-56000D01*
X43500Y-56000D02*
X43500Y-53000D01*
X43500Y-53000D02*
X42500Y-53000D01*
X42500Y-53000D02*
X42500Y-56000D01*
X42500Y-56000D02*
X42750Y-56000D01*
X43000Y-56250D02*
X43000Y-56000D01*
X43000Y-53000D02*
X43000Y-52750D01*
X42750Y-56000D02*
X42500Y-55750D01*
X54750Y-49500D02*
X55500Y-49500D01*
X55500Y-49500D02*
X55500Y-46500D01*
X55500Y-46500D02*
X54500Y-46500D01*
X54500Y-46500D02*
X54500Y-49500D01*
X54500Y-49500D02*
X54750Y-49500D01*
X55000Y-49750D02*
X55000Y-49500D01*
X55000Y-46500D02*
X55000Y-46250D01*
X54750Y-49500D02*
X54500Y-49250D01*
X57250Y-58000D02*
X56500Y-58000D01*
X56500Y-58000D02*
X56500Y-61000D01*
X56500Y-61000D02*
X57500Y-61000D01*
X57500Y-61000D02*
X57500Y-58000D01*
X57500Y-58000D02*
X57250Y-58000D01*
X57000Y-57750D02*
X57000Y-58000D01*
X57000Y-61000D02*
X57000Y-61250D01*
X57250Y-58000D02*
X57500Y-58250D01*
X40000Y-45250D02*
X40000Y-44500D01*
X40000Y-44500D02*
X37000Y-44500D01*
X37000Y-44500D02*
X37000Y-45500D01*
X37000Y-45500D02*
X40000Y-45500D01*
X40000Y-45500D02*
X40000Y-45250D01*
X40250Y-45000D02*
X40000Y-45000D01*
X37000Y-45000D02*
X36750Y-45000D01*
X40000Y-45250D02*
X39750Y-45500D01*
X39750Y-56000D02*
X40500Y-56000D01*
X40500Y-56000D02*
X40500Y-53000D01*
X40500Y-53000D02*
X39500Y-53000D01*
X39500Y-53000D02*
X39500Y-56000D01*
X39500Y-56000D02*
X39750Y-56000D01*
X40000Y-56250D02*
X40000Y-56000D01*
X40000Y-53000D02*
X40000Y-52750D01*
X39750Y-56000D02*
X39500Y-55750D01*
X56750Y-49500D02*
X57500Y-49500D01*
X57500Y-49500D02*
X57500Y-46500D01*
X57500Y-46500D02*
X56500Y-46500D01*
X56500Y-46500D02*
X56500Y-49500D01*
X56500Y-49500D02*
X56750Y-49500D01*
X57000Y-49750D02*
X57000Y-49500D01*
X57000Y-46500D02*
X57000Y-46250D01*
X56750Y-49500D02*
X56500Y-49250D01*
X55250Y-52500D02*
X54500Y-52500D01*
X54500Y-52500D02*
X54500Y-55500D01*
X54500Y-55500D02*
X55500Y-55500D01*
X55500Y-55500D02*
X55500Y-52500D01*
X55500Y-52500D02*
X55250Y-52500D01*
X55000Y-52250D02*
X55000Y-52500D01*
X55000Y-55500D02*
X55000Y-55750D01*
X55250Y-52500D02*
X55500Y-52750D01*
X55250Y-58000D02*
X54500Y-58000D01*
X54500Y-58000D02*
X54500Y-61000D01*
X54500Y-61000D02*
X55500Y-61000D01*
X55500Y-61000D02*
X55500Y-58000D01*
X55500Y-58000D02*
X55250Y-58000D01*
X55000Y-57750D02*
X55000Y-58000D01*
X55000Y-61000D02*
X55000Y-61250D01*
X55250Y-58000D02*
X55500Y-58250D01*
X40000Y-44250D02*
X40000Y-43500D01*
X40000Y-43500D02*
X37000Y-43500D01*
X37000Y-43500D02*
X37000Y-44500D01*
X37000Y-44500D02*
X40000Y-44500D01*
X40000Y-44500D02*
X40000Y-44250D01*
X40250Y-44000D02*
X40000Y-44000D01*
X37000Y-44000D02*
X36750Y-44000D01*
X40000Y-44250D02*
X39750Y-44500D01*
X35250Y-56000D02*
X36000Y-56000D01*
X36000Y-56000D02*
X36000Y-53000D01*
X36000Y-53000D02*
X35000Y-53000D01*
X35000Y-53000D02*
X35000Y-56000D01*
X35000Y-56000D02*
X35250Y-56000D01*
X35500Y-56250D02*
X35500Y-56000D01*
X35500Y-53000D02*
X35500Y-52750D01*
X35250Y-56000D02*
X35000Y-55750D01*
X57250Y-52500D02*
X56500Y-52500D01*
X56500Y-52500D02*
X56500Y-55500D01*
X56500Y-55500D02*
X57500Y-55500D01*
X57500Y-55500D02*
X57500Y-52500D01*
X57500Y-52500D02*
X57250Y-52500D01*
X57000Y-52250D02*
X57000Y-52500D01*
X57000Y-55500D02*
X57000Y-55750D01*
X57250Y-52500D02*
X57500Y-52750D01*
X41250Y-56000D02*
X42000Y-56000D01*
X42000Y-56000D02*
X42000Y-53000D01*
X42000Y-53000D02*
X41000Y-53000D01*
X41000Y-53000D02*
X41000Y-56000D01*
X41000Y-56000D02*
X41250Y-56000D01*
X41500Y-56250D02*
X41500Y-56000D01*
X41500Y-53000D02*
X41500Y-52750D01*
X41250Y-56000D02*
X41000Y-55750D01*
X53250Y-52500D02*
X52500Y-52500D01*
X52500Y-52500D02*
X52500Y-55500D01*
X52500Y-55500D02*
X53500Y-55500D01*
X53500Y-55500D02*
X53500Y-52500D01*
X53500Y-52500D02*
X53250Y-52500D01*
X53000Y-52250D02*
X53000Y-52500D01*
X53000Y-55500D02*
X53000Y-55750D01*
X53250Y-52500D02*
X53500Y-52750D01*
X53250Y-58000D02*
X52500Y-58000D01*
X52500Y-58000D02*
X52500Y-61000D01*
X52500Y-61000D02*
X53500Y-61000D01*
X53500Y-61000D02*
X53500Y-58000D01*
X53500Y-58000D02*
X53250Y-58000D01*
X53000Y-57750D02*
X53000Y-58000D01*
X53000Y-61000D02*
X53000Y-61250D01*
X53250Y-58000D02*
X53500Y-58250D01*
X40000Y-43250D02*
X40000Y-42500D01*
X40000Y-42500D02*
X37000Y-42500D01*
X37000Y-42500D02*
X37000Y-43500D01*
X37000Y-43500D02*
X40000Y-43500D01*
X40000Y-43500D02*
X40000Y-43250D01*
X40250Y-43000D02*
X40000Y-43000D01*
X37000Y-43000D02*
X36750Y-43000D01*
X40000Y-43250D02*
X39750Y-43500D01*
X40000Y-38250D02*
X40000Y-37500D01*
X40000Y-37500D02*
X37000Y-37500D01*
X37000Y-37500D02*
X37000Y-38500D01*
X37000Y-38500D02*
X40000Y-38500D01*
X40000Y-38500D02*
X40000Y-38250D01*
X40250Y-38000D02*
X40000Y-38000D01*
X37000Y-38000D02*
X36750Y-38000D01*
X40000Y-38250D02*
X39750Y-38500D01*
G54D16*
X75000Y-61500D02*
X72000Y-61500D01*
X72000Y-59500D02*
X75000Y-59500D01*
X75000Y-59500D02*
X75000Y-61500D01*
X72000Y-61500D02*
X72000Y-59500D01*
G54D17*
X66000Y-58720D02*
X67000Y-58720D01*
G54D18*
X66884Y-57639D02*
G75*
G03X66500Y-57500I-384J-460D01*
G74*
G01*
X66500Y-57500D02*
G75*
G03X66102Y-57651I0J-599D01*
G74*
G01*
X66500Y-58699D02*
G75*
G03X66889Y-58555I0J599D01*
G74*
G01*
X66115Y-58560D02*
G75*
G03X66500Y-58700I384J460D01*
G74*
G01*
X66849Y-58587D02*
G75*
G03X67100Y-58100I-349J487D01*
G74*
G01*
X67100Y-58100D02*
G75*
G03X66860Y-57620I-600J0D01*
G74*
G01*
X65900Y-58100D02*
G75*
G03X66131Y-58572I599J0D01*
G74*
G01*
X66131Y-57626D02*
G75*
G03X65900Y-58100I368J-473D01*
G74*
G01*
X66750Y-58100D02*
G75*
G03X66500Y-57850I-250J0D01*
G74*
G01*
X66900Y-58100D02*
G75*
G03X66500Y-57700I-400J0D01*
G74*
G01*
X66250Y-58100D02*
G75*
G03X66500Y-58350I250J0D01*
G74*
G01*
X66100Y-58100D02*
G75*
G03X66500Y-58500I400J0D01*
G74*
G01*
G54D17*
X67013Y-58713D02*
G75*
G03X67300Y-58100I-513J613D01*
G74*
G01*
X67299Y-58100D02*
G75*
G03X66876Y-57395I-799J0D01*
G74*
G01*
X65701Y-58101D02*
G75*
G03X65984Y-58710I798J1D01*
G74*
G01*
X66102Y-57405D02*
G75*
G03X65700Y-58100I397J-694D01*
G74*
G01*
X66879Y-57395D02*
G75*
G03X66500Y-57300I-379J-704D01*
G74*
G01*
X66500Y-57300D02*
G75*
G03X66081Y-57418I0J-799D01*
G74*
G01*
X63500Y-58720D02*
X64500Y-58720D01*
G54D18*
X64384Y-57639D02*
G75*
G03X64000Y-57500I-384J-460D01*
G74*
G01*
X64000Y-57500D02*
G75*
G03X63602Y-57651I0J-599D01*
G74*
G01*
X64000Y-58699D02*
G75*
G03X64389Y-58555I0J599D01*
G74*
G01*
X63615Y-58560D02*
G75*
G03X64000Y-58700I384J460D01*
G74*
G01*
X64349Y-58587D02*
G75*
G03X64600Y-58100I-349J487D01*
G74*
G01*
X64600Y-58100D02*
G75*
G03X64360Y-57620I-600J0D01*
G74*
G01*
X63400Y-58100D02*
G75*
G03X63631Y-58572I599J0D01*
G74*
G01*
X63631Y-57626D02*
G75*
G03X63400Y-58100I368J-473D01*
G74*
G01*
X64250Y-58100D02*
G75*
G03X64000Y-57850I-250J0D01*
G74*
G01*
X64400Y-58100D02*
G75*
G03X64000Y-57700I-400J0D01*
G74*
G01*
X63750Y-58100D02*
G75*
G03X64000Y-58350I250J0D01*
G74*
G01*
X63600Y-58100D02*
G75*
G03X64000Y-58500I400J0D01*
G74*
G01*
G54D17*
X64513Y-58713D02*
G75*
G03X64800Y-58100I-513J613D01*
G74*
G01*
X64799Y-58100D02*
G75*
G03X64376Y-57395I-799J0D01*
G74*
G01*
X63201Y-58101D02*
G75*
G03X63484Y-58710I798J1D01*
G74*
G01*
X63602Y-57405D02*
G75*
G03X63200Y-58100I397J-694D01*
G74*
G01*
X64379Y-57395D02*
G75*
G03X64000Y-57300I-379J-704D01*
G74*
G01*
X64000Y-57300D02*
G75*
G03X63581Y-57418I0J-799D01*
G74*
G01*
G54D13*
X67000Y-51000D02*
X67000Y-51000D01*
X67000Y-51000D02*
X67000Y-50500D01*
X67000Y-50500D02*
X68000Y-50500D01*
X68000Y-50500D02*
X68000Y-51000D01*
X65000Y-51000D02*
X65000Y-36000D01*
X65000Y-36000D02*
X70000Y-36000D01*
X70000Y-36000D02*
X70000Y-51000D01*
X70000Y-51000D02*
X65000Y-51000D01*
X68500Y-33500D02*
X68500Y-33500D01*
X68500Y-33500D02*
X68500Y-33000D01*
X68500Y-33000D02*
X69500Y-33000D01*
X69500Y-33000D02*
X69500Y-33500D01*
X68000Y-33500D02*
X68000Y-24500D01*
X68000Y-24500D02*
X70000Y-24500D01*
X70000Y-24500D02*
X70000Y-33500D01*
X70000Y-33500D02*
X68000Y-33500D01*
X50000Y-43000D02*
X42000Y-43000D01*
X42000Y-41000D02*
X50000Y-41000D01*
X50000Y-41000D02*
X50000Y-43000D01*
X50000Y-42500D02*
X49500Y-42500D01*
X49500Y-42500D02*
X49500Y-41500D01*
X49500Y-41500D02*
X50000Y-41500D01*
X42000Y-43000D02*
X42000Y-41000D01*
X50000Y-49500D02*
X42000Y-49500D01*
X42000Y-47500D02*
X50000Y-47500D01*
X50000Y-47500D02*
X50000Y-49500D01*
X50000Y-49000D02*
X49500Y-49000D01*
X49500Y-49000D02*
X49500Y-48000D01*
X49500Y-48000D02*
X50000Y-48000D01*
X42000Y-49500D02*
X42000Y-47500D01*
G54D15*
X52500Y-20000D02*
X52500Y-20300D01*
X52500Y-20300D02*
X52100Y-20300D01*
X52100Y-20300D02*
X52100Y-22700D01*
X52100Y-22700D02*
X52500Y-22700D01*
X52500Y-22700D02*
X52500Y-23000D01*
X52500Y-22700D02*
X52900Y-22700D01*
X52900Y-22700D02*
X52900Y-20300D01*
X52900Y-20300D02*
X52500Y-20300D01*
X52100Y-20500D02*
X52900Y-20500D01*
X52900Y-20600D02*
X52100Y-20600D01*
X54500Y-20000D02*
X54500Y-20300D01*
X54500Y-20300D02*
X54100Y-20300D01*
X54100Y-20300D02*
X54100Y-22700D01*
X54100Y-22700D02*
X54500Y-22700D01*
X54500Y-22700D02*
X54500Y-23000D01*
X54500Y-22700D02*
X54900Y-22700D01*
X54900Y-22700D02*
X54900Y-20300D01*
X54900Y-20300D02*
X54500Y-20300D01*
X54100Y-20500D02*
X54900Y-20500D01*
X54900Y-20600D02*
X54100Y-20600D01*
X56500Y-20000D02*
X56500Y-20300D01*
X56500Y-20300D02*
X56100Y-20300D01*
X56100Y-20300D02*
X56100Y-22700D01*
X56100Y-22700D02*
X56500Y-22700D01*
X56500Y-22700D02*
X56500Y-23000D01*
X56500Y-22700D02*
X56900Y-22700D01*
X56900Y-22700D02*
X56900Y-20300D01*
X56900Y-20300D02*
X56500Y-20300D01*
X56100Y-20500D02*
X56900Y-20500D01*
X56900Y-20600D02*
X56100Y-20600D01*
X58500Y-20000D02*
X58500Y-20300D01*
X58500Y-20300D02*
X58100Y-20300D01*
X58100Y-20300D02*
X58100Y-22700D01*
X58100Y-22700D02*
X58500Y-22700D01*
X58500Y-22700D02*
X58500Y-23000D01*
X58500Y-22700D02*
X58900Y-22700D01*
X58900Y-22700D02*
X58900Y-20300D01*
X58900Y-20300D02*
X58500Y-20300D01*
X58100Y-20500D02*
X58900Y-20500D01*
X58900Y-20600D02*
X58100Y-20600D01*
X60500Y-20000D02*
X60500Y-20300D01*
X60500Y-20300D02*
X60100Y-20300D01*
X60100Y-20300D02*
X60100Y-22700D01*
X60100Y-22700D02*
X60500Y-22700D01*
X60500Y-22700D02*
X60500Y-23000D01*
X60500Y-22700D02*
X60900Y-22700D01*
X60900Y-22700D02*
X60900Y-20300D01*
X60900Y-20300D02*
X60500Y-20300D01*
X60100Y-20500D02*
X60900Y-20500D01*
X60900Y-20600D02*
X60100Y-20600D01*
X62500Y-20000D02*
X62500Y-20300D01*
X62500Y-20300D02*
X62100Y-20300D01*
X62100Y-20300D02*
X62100Y-22700D01*
X62100Y-22700D02*
X62500Y-22700D01*
X62500Y-22700D02*
X62500Y-23000D01*
X62500Y-22700D02*
X62900Y-22700D01*
X62900Y-22700D02*
X62900Y-20300D01*
X62900Y-20300D02*
X62500Y-20300D01*
X62100Y-20500D02*
X62900Y-20500D01*
X62900Y-20600D02*
X62100Y-20600D01*
X50500Y-20000D02*
X50500Y-20300D01*
X50500Y-20300D02*
X50100Y-20300D01*
X50100Y-20300D02*
X50100Y-22700D01*
X50100Y-22700D02*
X50500Y-22700D01*
X50500Y-22700D02*
X50500Y-23000D01*
X50500Y-22700D02*
X50900Y-22700D01*
X50900Y-22700D02*
X50900Y-20300D01*
X50900Y-20300D02*
X50500Y-20300D01*
X50100Y-20500D02*
X50900Y-20500D01*
X50900Y-20600D02*
X50100Y-20600D01*
X64500Y-20000D02*
X64500Y-20300D01*
X64500Y-20300D02*
X64100Y-20300D01*
X64100Y-20300D02*
X64100Y-22700D01*
X64100Y-22700D02*
X64500Y-22700D01*
X64500Y-22700D02*
X64500Y-23000D01*
X64500Y-22700D02*
X64900Y-22700D01*
X64900Y-22700D02*
X64900Y-20300D01*
X64900Y-20300D02*
X64500Y-20300D01*
X64100Y-20500D02*
X64900Y-20500D01*
X64900Y-20600D02*
X64100Y-20600D01*
X64500Y-25000D02*
X64500Y-25300D01*
X64500Y-25300D02*
X64100Y-25300D01*
X64100Y-25300D02*
X64100Y-27700D01*
X64100Y-27700D02*
X64500Y-27700D01*
X64500Y-27700D02*
X64500Y-28000D01*
X64500Y-27700D02*
X64900Y-27700D01*
X64900Y-27700D02*
X64900Y-25300D01*
X64900Y-25300D02*
X64500Y-25300D01*
X64100Y-25500D02*
X64900Y-25500D01*
X64900Y-25600D02*
X64100Y-25600D01*
X50500Y-25000D02*
X50500Y-25300D01*
X50500Y-25300D02*
X50100Y-25300D01*
X50100Y-25300D02*
X50100Y-27700D01*
X50100Y-27700D02*
X50500Y-27700D01*
X50500Y-27700D02*
X50500Y-28000D01*
X50500Y-27700D02*
X50900Y-27700D01*
X50900Y-27700D02*
X50900Y-25300D01*
X50900Y-25300D02*
X50500Y-25300D01*
X50100Y-25500D02*
X50900Y-25500D01*
X50900Y-25600D02*
X50100Y-25600D01*
X52500Y-25000D02*
X52500Y-25300D01*
X52500Y-25300D02*
X52100Y-25300D01*
X52100Y-25300D02*
X52100Y-27700D01*
X52100Y-27700D02*
X52500Y-27700D01*
X52500Y-27700D02*
X52500Y-28000D01*
X52500Y-27700D02*
X52900Y-27700D01*
X52900Y-27700D02*
X52900Y-25300D01*
X52900Y-25300D02*
X52500Y-25300D01*
X52100Y-25500D02*
X52900Y-25500D01*
X52900Y-25600D02*
X52100Y-25600D01*
X54500Y-25000D02*
X54500Y-25300D01*
X54500Y-25300D02*
X54100Y-25300D01*
X54100Y-25300D02*
X54100Y-27700D01*
X54100Y-27700D02*
X54500Y-27700D01*
X54500Y-27700D02*
X54500Y-28000D01*
X54500Y-27700D02*
X54900Y-27700D01*
X54900Y-27700D02*
X54900Y-25300D01*
X54900Y-25300D02*
X54500Y-25300D01*
X54100Y-25500D02*
X54900Y-25500D01*
X54900Y-25600D02*
X54100Y-25600D01*
X56500Y-25000D02*
X56500Y-25300D01*
X56500Y-25300D02*
X56100Y-25300D01*
X56100Y-25300D02*
X56100Y-27700D01*
X56100Y-27700D02*
X56500Y-27700D01*
X56500Y-27700D02*
X56500Y-28000D01*
X56500Y-27700D02*
X56900Y-27700D01*
X56900Y-27700D02*
X56900Y-25300D01*
X56900Y-25300D02*
X56500Y-25300D01*
X56100Y-25500D02*
X56900Y-25500D01*
X56900Y-25600D02*
X56100Y-25600D01*
X58500Y-25000D02*
X58500Y-25300D01*
X58500Y-25300D02*
X58100Y-25300D01*
X58100Y-25300D02*
X58100Y-27700D01*
X58100Y-27700D02*
X58500Y-27700D01*
X58500Y-27700D02*
X58500Y-28000D01*
X58500Y-27700D02*
X58900Y-27700D01*
X58900Y-27700D02*
X58900Y-25300D01*
X58900Y-25300D02*
X58500Y-25300D01*
X58100Y-25500D02*
X58900Y-25500D01*
X58900Y-25600D02*
X58100Y-25600D01*
X60500Y-25000D02*
X60500Y-25300D01*
X60500Y-25300D02*
X60100Y-25300D01*
X60100Y-25300D02*
X60100Y-27700D01*
X60100Y-27700D02*
X60500Y-27700D01*
X60500Y-27700D02*
X60500Y-28000D01*
X60500Y-27700D02*
X60900Y-27700D01*
X60900Y-27700D02*
X60900Y-25300D01*
X60900Y-25300D02*
X60500Y-25300D01*
X60100Y-25500D02*
X60900Y-25500D01*
X60900Y-25600D02*
X60100Y-25600D01*
X62500Y-25000D02*
X62500Y-25300D01*
X62500Y-25300D02*
X62100Y-25300D01*
X62100Y-25300D02*
X62100Y-27700D01*
X62100Y-27700D02*
X62500Y-27700D01*
X62500Y-27700D02*
X62500Y-28000D01*
X62500Y-27700D02*
X62900Y-27700D01*
X62900Y-27700D02*
X62900Y-25300D01*
X62900Y-25300D02*
X62500Y-25300D01*
X62100Y-25500D02*
X62900Y-25500D01*
X62900Y-25600D02*
X62100Y-25600D01*
X74020Y-49500D02*
X76000Y-49500D01*
X76000Y-49500D02*
X76000Y-50500D01*
X76000Y-50500D02*
X74000Y-50500D01*
X74000Y-50500D02*
X74000Y-49500D01*
X74000Y-49750D02*
X74250Y-49500D01*
X60500Y-60980D02*
X60500Y-59000D01*
X60500Y-59000D02*
X61500Y-59000D01*
X61500Y-59000D02*
X61500Y-61000D01*
X61500Y-61000D02*
X60500Y-61000D01*
X60750Y-61000D02*
X60500Y-60750D01*
X70020Y-22500D02*
X72000Y-22500D01*
X72000Y-22500D02*
X72000Y-23500D01*
X72000Y-23500D02*
X70000Y-23500D01*
X70000Y-23500D02*
X70000Y-22500D01*
X70000Y-22750D02*
X70250Y-22500D01*
X70020Y-20000D02*
X72000Y-20000D01*
X72000Y-20000D02*
X72000Y-21000D01*
X72000Y-21000D02*
X70000Y-21000D01*
X70000Y-21000D02*
X70000Y-20000D01*
X70000Y-20250D02*
X70250Y-20000D01*
X75020Y-46000D02*
X77000Y-46000D01*
X77000Y-46000D02*
X77000Y-47000D01*
X77000Y-47000D02*
X75000Y-47000D01*
X75000Y-47000D02*
X75000Y-46000D01*
X75000Y-46250D02*
X75250Y-46000D01*
X75020Y-43000D02*
X77000Y-43000D01*
X77000Y-43000D02*
X77000Y-44000D01*
X77000Y-44000D02*
X75000Y-44000D01*
X75000Y-44000D02*
X75000Y-43000D01*
X75000Y-43250D02*
X75250Y-43000D01*
X38000Y-20500D02*
X38000Y-19500D01*
X38000Y-19500D02*
X43000Y-19500D01*
X43000Y-19500D02*
X43000Y-20500D01*
X43000Y-20500D02*
X38000Y-20500D01*
X39000Y-20500D02*
X39000Y-19500D01*
G54D13*
X36900Y-21500D02*
G75*
G03X36900Y-21500I-900J0D01*
G74*
G01*
X75900Y-21500D02*
G75*
G03X75900Y-21500I-900J0D01*
G74*
G01*
X44400Y-60500D02*
G75*
G03X44400Y-60500I-900J0D01*
G74*
G01*
X69900Y-60500D02*
G75*
G03X69900Y-60500I-900J0D01*
G74*
G01*
G54D16*
X76392Y-26804D02*
X76878Y-26804D01*
X76935Y-26785D01*
X76964Y-26766D01*
X76992Y-26728D01*
X76992Y-26652D01*
X76964Y-26614D01*
X76935Y-26595D01*
X76878Y-26576D01*
X76392Y-26576D01*
X76992Y-26176D02*
X76992Y-26404D01*
X76992Y-26290D02*
X76392Y-26290D01*
X76478Y-26328D01*
X76535Y-26366D01*
X76564Y-26404D01*
X73973Y-28642D02*
X74221Y-28642D01*
X74088Y-28871D01*
X74145Y-28871D01*
X74183Y-28900D01*
X74202Y-28928D01*
X74221Y-28985D01*
X74221Y-29128D01*
X74202Y-29185D01*
X74183Y-29214D01*
X74145Y-29242D01*
X74030Y-29242D01*
X73992Y-29214D01*
X73973Y-29185D01*
X74392Y-29185D02*
X74411Y-29214D01*
X74392Y-29242D01*
X74373Y-29214D01*
X74392Y-29185D01*
X74392Y-29242D01*
X74545Y-28642D02*
X74792Y-28642D01*
X74659Y-28871D01*
X74716Y-28871D01*
X74754Y-28900D01*
X74773Y-28928D01*
X74792Y-28985D01*
X74792Y-29128D01*
X74773Y-29185D01*
X74754Y-29214D01*
X74716Y-29242D01*
X74602Y-29242D01*
X74564Y-29214D01*
X74545Y-29185D01*
X74926Y-28842D02*
X75021Y-29242D01*
X75116Y-28842D01*
X75802Y-29242D02*
X75669Y-28957D01*
X75573Y-29242D02*
X75573Y-28642D01*
X75726Y-28642D01*
X75764Y-28671D01*
X75783Y-28700D01*
X75802Y-28757D01*
X75802Y-28842D01*
X75783Y-28900D01*
X75764Y-28928D01*
X75726Y-28957D01*
X75573Y-28957D01*
X76126Y-29214D02*
X76088Y-29242D01*
X76011Y-29242D01*
X75973Y-29214D01*
X75954Y-29157D01*
X75954Y-28928D01*
X75973Y-28871D01*
X76011Y-28842D01*
X76088Y-28842D01*
X76126Y-28871D01*
X76145Y-28928D01*
X76145Y-28985D01*
X75954Y-29042D01*
X76488Y-28842D02*
X76488Y-29328D01*
X76469Y-29385D01*
X76450Y-29414D01*
X76411Y-29442D01*
X76354Y-29442D01*
X76316Y-29414D01*
X76488Y-29214D02*
X76450Y-29242D01*
X76373Y-29242D01*
X76335Y-29214D01*
X76316Y-29185D01*
X76297Y-29128D01*
X76297Y-28957D01*
X76316Y-28900D01*
X76335Y-28871D01*
X76373Y-28842D01*
X76450Y-28842D01*
X76488Y-28871D01*
X74642Y-53533D02*
X74661Y-53476D01*
X74661Y-53380D01*
X74642Y-53342D01*
X74623Y-53323D01*
X74585Y-53304D01*
X74547Y-53304D01*
X74509Y-53323D01*
X74490Y-53342D01*
X74471Y-53380D01*
X74452Y-53457D01*
X74433Y-53495D01*
X74414Y-53514D01*
X74376Y-53533D01*
X74338Y-53533D01*
X74300Y-53514D01*
X74280Y-53495D01*
X74261Y-53457D01*
X74261Y-53361D01*
X74280Y-53304D01*
X74261Y-53171D02*
X74661Y-53076D01*
X74376Y-53000D01*
X74661Y-52923D01*
X74261Y-52828D01*
X74661Y-52466D02*
X74661Y-52695D01*
X74661Y-52580D02*
X74261Y-52580D01*
X74319Y-52619D01*
X74357Y-52657D01*
X74376Y-52695D01*
X73742Y-54304D02*
X73761Y-54247D01*
X73761Y-54152D01*
X73742Y-54114D01*
X73723Y-54095D01*
X73685Y-54076D01*
X73647Y-54076D01*
X73609Y-54095D01*
X73590Y-54114D01*
X73571Y-54152D01*
X73552Y-54228D01*
X73533Y-54266D01*
X73514Y-54285D01*
X73476Y-54304D01*
X73438Y-54304D01*
X73400Y-54285D01*
X73380Y-54266D01*
X73361Y-54228D01*
X73361Y-54133D01*
X73380Y-54076D01*
X73361Y-53942D02*
X73761Y-53847D01*
X73476Y-53771D01*
X73761Y-53695D01*
X73361Y-53600D01*
X73800Y-53542D02*
X73800Y-53238D01*
X73761Y-53142D02*
X73361Y-53142D01*
X73361Y-52990D01*
X73380Y-52952D01*
X73400Y-52933D01*
X73438Y-52914D01*
X73495Y-52914D01*
X73533Y-52933D01*
X73552Y-52952D01*
X73571Y-52990D01*
X73571Y-53142D01*
X73361Y-52742D02*
X73685Y-52742D01*
X73723Y-52723D01*
X73742Y-52704D01*
X73761Y-52666D01*
X73761Y-52590D01*
X73742Y-52552D01*
X73723Y-52533D01*
X73685Y-52514D01*
X73361Y-52514D01*
X73742Y-52342D02*
X73761Y-52285D01*
X73761Y-52190D01*
X73742Y-52152D01*
X73723Y-52133D01*
X73685Y-52114D01*
X73647Y-52114D01*
X73609Y-52133D01*
X73590Y-52152D01*
X73571Y-52190D01*
X73552Y-52266D01*
X73533Y-52304D01*
X73514Y-52323D01*
X73476Y-52342D01*
X73438Y-52342D01*
X73400Y-52323D01*
X73380Y-52304D01*
X73361Y-52266D01*
X73361Y-52171D01*
X73380Y-52114D01*
X73761Y-51942D02*
X73361Y-51942D01*
X73552Y-51942D02*
X73552Y-51714D01*
X73761Y-51714D02*
X73361Y-51714D01*
X36466Y-60842D02*
X36523Y-60861D01*
X36619Y-60861D01*
X36657Y-60842D01*
X36676Y-60823D01*
X36695Y-60785D01*
X36695Y-60747D01*
X36676Y-60709D01*
X36657Y-60690D01*
X36619Y-60671D01*
X36542Y-60652D01*
X36504Y-60633D01*
X36485Y-60614D01*
X36466Y-60576D01*
X36466Y-60538D01*
X36485Y-60500D01*
X36504Y-60480D01*
X36542Y-60461D01*
X36638Y-60461D01*
X36695Y-60480D01*
X36828Y-60461D02*
X36923Y-60861D01*
X37000Y-60576D01*
X37076Y-60861D01*
X37171Y-60461D01*
X37304Y-60500D02*
X37323Y-60480D01*
X37361Y-60461D01*
X37457Y-60461D01*
X37495Y-60480D01*
X37514Y-60500D01*
X37533Y-60538D01*
X37533Y-60576D01*
X37514Y-60633D01*
X37285Y-60861D01*
X37533Y-60861D01*
X35695Y-61542D02*
X35752Y-61561D01*
X35847Y-61561D01*
X35885Y-61542D01*
X35904Y-61523D01*
X35923Y-61485D01*
X35923Y-61447D01*
X35904Y-61409D01*
X35885Y-61390D01*
X35847Y-61371D01*
X35771Y-61352D01*
X35733Y-61333D01*
X35714Y-61314D01*
X35695Y-61276D01*
X35695Y-61238D01*
X35714Y-61200D01*
X35733Y-61180D01*
X35771Y-61161D01*
X35866Y-61161D01*
X35923Y-61180D01*
X36057Y-61161D02*
X36152Y-61561D01*
X36228Y-61276D01*
X36304Y-61561D01*
X36400Y-61161D01*
X36457Y-61600D02*
X36761Y-61600D01*
X36857Y-61561D02*
X36857Y-61161D01*
X37009Y-61161D01*
X37047Y-61180D01*
X37066Y-61200D01*
X37085Y-61238D01*
X37085Y-61295D01*
X37066Y-61333D01*
X37047Y-61352D01*
X37009Y-61371D01*
X36857Y-61371D01*
X37257Y-61161D02*
X37257Y-61485D01*
X37276Y-61523D01*
X37295Y-61542D01*
X37333Y-61561D01*
X37409Y-61561D01*
X37447Y-61542D01*
X37466Y-61523D01*
X37485Y-61485D01*
X37485Y-61161D01*
X37657Y-61542D02*
X37714Y-61561D01*
X37809Y-61561D01*
X37847Y-61542D01*
X37866Y-61523D01*
X37885Y-61485D01*
X37885Y-61447D01*
X37866Y-61409D01*
X37847Y-61390D01*
X37809Y-61371D01*
X37733Y-61352D01*
X37695Y-61333D01*
X37676Y-61314D01*
X37657Y-61276D01*
X37657Y-61238D01*
X37676Y-61200D01*
X37695Y-61180D01*
X37733Y-61161D01*
X37828Y-61161D01*
X37885Y-61180D01*
X38057Y-61561D02*
X38057Y-61161D01*
X38057Y-61352D02*
X38285Y-61352D01*
X38285Y-61561D02*
X38285Y-61161D01*
G54D19*
X75775Y-34815D02*
X75094Y-34815D01*
X75094Y-34652D01*
X75127Y-34612D01*
X75159Y-34591D01*
X75224Y-34571D01*
X75321Y-34571D01*
X75386Y-34591D01*
X75418Y-34612D01*
X75451Y-34652D01*
X75451Y-34815D01*
X75159Y-34408D02*
X75127Y-34387D01*
X75094Y-34347D01*
X75094Y-34245D01*
X75127Y-34204D01*
X75159Y-34184D01*
X75224Y-34163D01*
X75289Y-34163D01*
X75386Y-34184D01*
X75775Y-34428D01*
X75775Y-34163D01*
G54D15*
G54D19*
X33775Y-31315D02*
X33094Y-31315D01*
X33094Y-31152D01*
X33127Y-31112D01*
X33159Y-31091D01*
X33224Y-31071D01*
X33321Y-31071D01*
X33386Y-31091D01*
X33418Y-31112D01*
X33451Y-31152D01*
X33451Y-31315D01*
X33775Y-30663D02*
X33775Y-30908D01*
X33775Y-30786D02*
X33094Y-30786D01*
X33191Y-30826D01*
X33256Y-30867D01*
X33289Y-30908D01*
G54D15*
G54D17*
X33685Y-27038D02*
X33714Y-27057D01*
X33742Y-27114D01*
X33742Y-27152D01*
X33714Y-27209D01*
X33657Y-27247D01*
X33600Y-27266D01*
X33485Y-27285D01*
X33400Y-27285D01*
X33285Y-27266D01*
X33228Y-27247D01*
X33171Y-27209D01*
X33142Y-27152D01*
X33142Y-27114D01*
X33171Y-27057D01*
X33200Y-27038D01*
X33142Y-26790D02*
X33142Y-26714D01*
X33171Y-26676D01*
X33228Y-26638D01*
X33342Y-26619D01*
X33542Y-26619D01*
X33657Y-26638D01*
X33714Y-26676D01*
X33742Y-26714D01*
X33742Y-26790D01*
X33714Y-26828D01*
X33657Y-26866D01*
X33542Y-26885D01*
X33342Y-26885D01*
X33228Y-26866D01*
X33171Y-26828D01*
X33142Y-26790D01*
X33742Y-26447D02*
X33142Y-26447D01*
X33742Y-26219D01*
X33142Y-26219D01*
X33742Y-26028D02*
X33142Y-26028D01*
X33742Y-25800D01*
X33142Y-25800D01*
X33800Y-25704D02*
X33800Y-25400D01*
X33742Y-25095D02*
X33742Y-25323D01*
X33742Y-25209D02*
X33142Y-25209D01*
X33228Y-25247D01*
X33285Y-25285D01*
X33314Y-25323D01*
X33142Y-24847D02*
X33142Y-24809D01*
X33171Y-24771D01*
X33200Y-24752D01*
X33257Y-24733D01*
X33371Y-24714D01*
X33514Y-24714D01*
X33628Y-24733D01*
X33685Y-24752D01*
X33714Y-24771D01*
X33742Y-24809D01*
X33742Y-24847D01*
X33714Y-24885D01*
X33685Y-24904D01*
X33628Y-24923D01*
X33514Y-24942D01*
X33371Y-24942D01*
X33257Y-24923D01*
X33200Y-24904D01*
X33171Y-24885D01*
X33142Y-24847D01*
G54D15*
G54D19*
X35775Y-40315D02*
X35094Y-40315D01*
X35094Y-40152D01*
X35127Y-40112D01*
X35159Y-40091D01*
X35224Y-40071D01*
X35321Y-40071D01*
X35386Y-40091D01*
X35418Y-40112D01*
X35451Y-40152D01*
X35451Y-40315D01*
X35321Y-39704D02*
X35775Y-39704D01*
X35062Y-39806D02*
X35548Y-39908D01*
X35548Y-39643D01*
G54D15*
G54D17*
X35685Y-46038D02*
X35714Y-46057D01*
X35742Y-46114D01*
X35742Y-46152D01*
X35714Y-46209D01*
X35657Y-46247D01*
X35600Y-46266D01*
X35485Y-46285D01*
X35400Y-46285D01*
X35285Y-46266D01*
X35228Y-46247D01*
X35171Y-46209D01*
X35142Y-46152D01*
X35142Y-46114D01*
X35171Y-46057D01*
X35200Y-46038D01*
X35142Y-45790D02*
X35142Y-45714D01*
X35171Y-45676D01*
X35228Y-45638D01*
X35342Y-45619D01*
X35542Y-45619D01*
X35657Y-45638D01*
X35714Y-45676D01*
X35742Y-45714D01*
X35742Y-45790D01*
X35714Y-45828D01*
X35657Y-45866D01*
X35542Y-45885D01*
X35342Y-45885D01*
X35228Y-45866D01*
X35171Y-45828D01*
X35142Y-45790D01*
X35742Y-45447D02*
X35142Y-45447D01*
X35742Y-45219D01*
X35142Y-45219D01*
X35742Y-45028D02*
X35142Y-45028D01*
X35742Y-44800D01*
X35142Y-44800D01*
X35800Y-44704D02*
X35800Y-44400D01*
X35742Y-44095D02*
X35742Y-44323D01*
X35742Y-44209D02*
X35142Y-44209D01*
X35228Y-44247D01*
X35285Y-44285D01*
X35314Y-44323D01*
X35142Y-43847D02*
X35142Y-43809D01*
X35171Y-43771D01*
X35200Y-43752D01*
X35257Y-43733D01*
X35371Y-43714D01*
X35514Y-43714D01*
X35628Y-43733D01*
X35685Y-43752D01*
X35714Y-43771D01*
X35742Y-43809D01*
X35742Y-43847D01*
X35714Y-43885D01*
X35685Y-43904D01*
X35628Y-43923D01*
X35514Y-43942D01*
X35371Y-43942D01*
X35257Y-43923D01*
X35200Y-43904D01*
X35171Y-43885D01*
X35142Y-43847D01*
G54D15*
G54D18*
X61702Y-21757D02*
X61464Y-21890D01*
X61702Y-21985D02*
X61202Y-21985D01*
X61202Y-21833D01*
X61226Y-21795D01*
X61250Y-21776D01*
X61297Y-21757D01*
X61369Y-21757D01*
X61416Y-21776D01*
X61440Y-21795D01*
X61464Y-21833D01*
X61464Y-21985D01*
X61702Y-21376D02*
X61702Y-21604D01*
X61702Y-21490D02*
X61202Y-21490D01*
X61273Y-21528D01*
X61321Y-21566D01*
X61345Y-21604D01*
X61202Y-21033D02*
X61202Y-21109D01*
X61226Y-21147D01*
X61250Y-21166D01*
X61321Y-21204D01*
X61416Y-21223D01*
X61607Y-21223D01*
X61654Y-21204D01*
X61678Y-21185D01*
X61702Y-21147D01*
X61702Y-21071D01*
X61678Y-21033D01*
X61654Y-21014D01*
X61607Y-20995D01*
X61488Y-20995D01*
X61440Y-21014D01*
X61416Y-21033D01*
X61392Y-21071D01*
X61392Y-21147D01*
X61416Y-21185D01*
X61440Y-21204D01*
X61488Y-21223D01*
X53202Y-48257D02*
X52964Y-48390D01*
X53202Y-48485D02*
X52702Y-48485D01*
X52702Y-48333D01*
X52726Y-48295D01*
X52750Y-48276D01*
X52797Y-48257D01*
X52869Y-48257D01*
X52916Y-48276D01*
X52940Y-48295D01*
X52964Y-48333D01*
X52964Y-48485D01*
X52750Y-48104D02*
X52726Y-48085D01*
X52702Y-48047D01*
X52702Y-47952D01*
X52726Y-47914D01*
X52750Y-47895D01*
X52797Y-47876D01*
X52845Y-47876D01*
X52916Y-47895D01*
X53202Y-48123D01*
X53202Y-47876D01*
X52702Y-47742D02*
X52702Y-47476D01*
X53202Y-47647D01*
X59702Y-21757D02*
X59464Y-21890D01*
X59702Y-21985D02*
X59202Y-21985D01*
X59202Y-21833D01*
X59226Y-21795D01*
X59250Y-21776D01*
X59297Y-21757D01*
X59369Y-21757D01*
X59416Y-21776D01*
X59440Y-21795D01*
X59464Y-21833D01*
X59464Y-21985D01*
X59702Y-21376D02*
X59702Y-21604D01*
X59702Y-21490D02*
X59202Y-21490D01*
X59273Y-21528D01*
X59321Y-21566D01*
X59345Y-21604D01*
X59202Y-21014D02*
X59202Y-21204D01*
X59440Y-21223D01*
X59416Y-21204D01*
X59392Y-21166D01*
X59392Y-21071D01*
X59416Y-21033D01*
X59440Y-21014D01*
X59488Y-20995D01*
X59607Y-20995D01*
X59654Y-21014D01*
X59678Y-21033D01*
X59702Y-21071D01*
X59702Y-21166D01*
X59678Y-21204D01*
X59654Y-21223D01*
X57702Y-21757D02*
X57464Y-21890D01*
X57702Y-21985D02*
X57202Y-21985D01*
X57202Y-21833D01*
X57226Y-21795D01*
X57250Y-21776D01*
X57297Y-21757D01*
X57369Y-21757D01*
X57416Y-21776D01*
X57440Y-21795D01*
X57464Y-21833D01*
X57464Y-21985D01*
X57702Y-21376D02*
X57702Y-21604D01*
X57702Y-21490D02*
X57202Y-21490D01*
X57273Y-21528D01*
X57321Y-21566D01*
X57345Y-21604D01*
X57369Y-21033D02*
X57702Y-21033D01*
X57178Y-21128D02*
X57535Y-21223D01*
X57535Y-20976D01*
X55702Y-21757D02*
X55464Y-21890D01*
X55702Y-21985D02*
X55202Y-21985D01*
X55202Y-21833D01*
X55226Y-21795D01*
X55250Y-21776D01*
X55297Y-21757D01*
X55369Y-21757D01*
X55416Y-21776D01*
X55440Y-21795D01*
X55464Y-21833D01*
X55464Y-21985D01*
X55702Y-21376D02*
X55702Y-21604D01*
X55702Y-21490D02*
X55202Y-21490D01*
X55273Y-21528D01*
X55321Y-21566D01*
X55345Y-21604D01*
X55202Y-21242D02*
X55202Y-20995D01*
X55392Y-21128D01*
X55392Y-21071D01*
X55416Y-21033D01*
X55440Y-21014D01*
X55488Y-20995D01*
X55607Y-20995D01*
X55654Y-21014D01*
X55678Y-21033D01*
X55702Y-21071D01*
X55702Y-21185D01*
X55678Y-21223D01*
X55654Y-21242D01*
X48202Y-54757D02*
X47964Y-54890D01*
X48202Y-54985D02*
X47702Y-54985D01*
X47702Y-54833D01*
X47726Y-54795D01*
X47750Y-54776D01*
X47797Y-54757D01*
X47869Y-54757D01*
X47916Y-54776D01*
X47940Y-54795D01*
X47964Y-54833D01*
X47964Y-54985D01*
X47702Y-54414D02*
X47702Y-54490D01*
X47726Y-54528D01*
X47750Y-54547D01*
X47821Y-54585D01*
X47916Y-54604D01*
X48107Y-54604D01*
X48154Y-54585D01*
X48178Y-54566D01*
X48202Y-54528D01*
X48202Y-54452D01*
X48178Y-54414D01*
X48154Y-54395D01*
X48107Y-54376D01*
X47988Y-54376D01*
X47940Y-54395D01*
X47916Y-54414D01*
X47892Y-54452D01*
X47892Y-54528D01*
X47916Y-54566D01*
X47940Y-54585D01*
X47988Y-54604D01*
X47750Y-54223D02*
X47726Y-54204D01*
X47702Y-54166D01*
X47702Y-54071D01*
X47726Y-54033D01*
X47750Y-54014D01*
X47797Y-53995D01*
X47845Y-53995D01*
X47916Y-54014D01*
X48202Y-54242D01*
X48202Y-53995D01*
X46202Y-54757D02*
X45964Y-54890D01*
X46202Y-54985D02*
X45702Y-54985D01*
X45702Y-54833D01*
X45726Y-54795D01*
X45750Y-54776D01*
X45797Y-54757D01*
X45869Y-54757D01*
X45916Y-54776D01*
X45940Y-54795D01*
X45964Y-54833D01*
X45964Y-54985D01*
X45702Y-54395D02*
X45702Y-54585D01*
X45940Y-54604D01*
X45916Y-54585D01*
X45892Y-54547D01*
X45892Y-54452D01*
X45916Y-54414D01*
X45940Y-54395D01*
X45988Y-54376D01*
X46107Y-54376D01*
X46154Y-54395D01*
X46178Y-54414D01*
X46202Y-54452D01*
X46202Y-54547D01*
X46178Y-54585D01*
X46154Y-54604D01*
X45702Y-54242D02*
X45702Y-53995D01*
X45892Y-54128D01*
X45892Y-54071D01*
X45916Y-54033D01*
X45940Y-54014D01*
X45988Y-53995D01*
X46107Y-53995D01*
X46154Y-54014D01*
X46178Y-54033D01*
X46202Y-54071D01*
X46202Y-54185D01*
X46178Y-54223D01*
X46154Y-54242D01*
X37202Y-54757D02*
X36964Y-54890D01*
X37202Y-54985D02*
X36702Y-54985D01*
X36702Y-54833D01*
X36726Y-54795D01*
X36750Y-54776D01*
X36797Y-54757D01*
X36869Y-54757D01*
X36916Y-54776D01*
X36940Y-54795D01*
X36964Y-54833D01*
X36964Y-54985D01*
X36702Y-54414D02*
X36702Y-54490D01*
X36726Y-54528D01*
X36750Y-54547D01*
X36821Y-54585D01*
X36916Y-54604D01*
X37107Y-54604D01*
X37154Y-54585D01*
X37178Y-54566D01*
X37202Y-54528D01*
X37202Y-54452D01*
X37178Y-54414D01*
X37154Y-54395D01*
X37107Y-54376D01*
X36988Y-54376D01*
X36940Y-54395D01*
X36916Y-54414D01*
X36892Y-54452D01*
X36892Y-54528D01*
X36916Y-54566D01*
X36940Y-54585D01*
X36988Y-54604D01*
X36702Y-54128D02*
X36702Y-54090D01*
X36726Y-54052D01*
X36750Y-54033D01*
X36797Y-54014D01*
X36892Y-53995D01*
X37011Y-53995D01*
X37107Y-54014D01*
X37154Y-54033D01*
X37178Y-54052D01*
X37202Y-54090D01*
X37202Y-54128D01*
X37178Y-54166D01*
X37154Y-54185D01*
X37107Y-54204D01*
X37011Y-54223D01*
X36892Y-54223D01*
X36797Y-54204D01*
X36750Y-54185D01*
X36726Y-54166D01*
X36702Y-54128D01*
X59202Y-48257D02*
X58964Y-48390D01*
X59202Y-48485D02*
X58702Y-48485D01*
X58702Y-48333D01*
X58726Y-48295D01*
X58750Y-48276D01*
X58797Y-48257D01*
X58869Y-48257D01*
X58916Y-48276D01*
X58940Y-48295D01*
X58964Y-48333D01*
X58964Y-48485D01*
X58750Y-48104D02*
X58726Y-48085D01*
X58702Y-48047D01*
X58702Y-47952D01*
X58726Y-47914D01*
X58750Y-47895D01*
X58797Y-47876D01*
X58845Y-47876D01*
X58916Y-47895D01*
X59202Y-48123D01*
X59202Y-47876D01*
X58916Y-47647D02*
X58892Y-47685D01*
X58869Y-47704D01*
X58821Y-47723D01*
X58797Y-47723D01*
X58750Y-47704D01*
X58726Y-47685D01*
X58702Y-47647D01*
X58702Y-47571D01*
X58726Y-47533D01*
X58750Y-47514D01*
X58797Y-47495D01*
X58821Y-47495D01*
X58869Y-47514D01*
X58892Y-47533D01*
X58916Y-47571D01*
X58916Y-47647D01*
X58940Y-47685D01*
X58964Y-47704D01*
X59011Y-47723D01*
X59107Y-47723D01*
X59154Y-47704D01*
X59178Y-47685D01*
X59202Y-47647D01*
X59202Y-47571D01*
X59178Y-47533D01*
X59154Y-47514D01*
X59107Y-47495D01*
X59011Y-47495D01*
X58964Y-47514D01*
X58940Y-47533D01*
X58916Y-47571D01*
X59202Y-54257D02*
X58964Y-54390D01*
X59202Y-54485D02*
X58702Y-54485D01*
X58702Y-54333D01*
X58726Y-54295D01*
X58750Y-54276D01*
X58797Y-54257D01*
X58869Y-54257D01*
X58916Y-54276D01*
X58940Y-54295D01*
X58964Y-54333D01*
X58964Y-54485D01*
X58702Y-54123D02*
X58702Y-53876D01*
X58892Y-54009D01*
X58892Y-53952D01*
X58916Y-53914D01*
X58940Y-53895D01*
X58988Y-53876D01*
X59107Y-53876D01*
X59154Y-53895D01*
X59178Y-53914D01*
X59202Y-53952D01*
X59202Y-54066D01*
X59178Y-54104D01*
X59154Y-54123D01*
X58702Y-53533D02*
X58702Y-53609D01*
X58726Y-53647D01*
X58750Y-53666D01*
X58821Y-53704D01*
X58916Y-53723D01*
X59107Y-53723D01*
X59154Y-53704D01*
X59178Y-53685D01*
X59202Y-53647D01*
X59202Y-53571D01*
X59178Y-53533D01*
X59154Y-53514D01*
X59107Y-53495D01*
X58988Y-53495D01*
X58940Y-53514D01*
X58916Y-53533D01*
X58892Y-53571D01*
X58892Y-53647D01*
X58916Y-53685D01*
X58940Y-53704D01*
X58988Y-53723D01*
X58742Y-59702D02*
X58609Y-59464D01*
X58514Y-59702D02*
X58514Y-59202D01*
X58666Y-59202D01*
X58704Y-59226D01*
X58723Y-59250D01*
X58742Y-59297D01*
X58742Y-59369D01*
X58723Y-59416D01*
X58704Y-59440D01*
X58666Y-59464D01*
X58514Y-59464D01*
X59104Y-59202D02*
X58914Y-59202D01*
X58895Y-59440D01*
X58914Y-59416D01*
X58952Y-59392D01*
X59047Y-59392D01*
X59085Y-59416D01*
X59104Y-59440D01*
X59123Y-59488D01*
X59123Y-59607D01*
X59104Y-59654D01*
X59085Y-59678D01*
X59047Y-59702D01*
X58952Y-59702D01*
X58914Y-59678D01*
X58895Y-59654D01*
X59276Y-59250D02*
X59295Y-59226D01*
X59333Y-59202D01*
X59428Y-59202D01*
X59466Y-59226D01*
X59485Y-59250D01*
X59504Y-59297D01*
X59504Y-59345D01*
X59485Y-59416D01*
X59257Y-59702D01*
X59504Y-59702D01*
X38242Y-46202D02*
X38109Y-45964D01*
X38014Y-46202D02*
X38014Y-45702D01*
X38166Y-45702D01*
X38204Y-45726D01*
X38223Y-45750D01*
X38242Y-45797D01*
X38242Y-45869D01*
X38223Y-45916D01*
X38204Y-45940D01*
X38166Y-45964D01*
X38014Y-45964D01*
X38585Y-45869D02*
X38585Y-46202D01*
X38490Y-45678D02*
X38395Y-46035D01*
X38642Y-46035D01*
X38966Y-45869D02*
X38966Y-46202D01*
X38871Y-45678D02*
X38776Y-46035D01*
X39023Y-46035D01*
X38702Y-54757D02*
X38464Y-54890D01*
X38702Y-54985D02*
X38202Y-54985D01*
X38202Y-54833D01*
X38226Y-54795D01*
X38250Y-54776D01*
X38297Y-54757D01*
X38369Y-54757D01*
X38416Y-54776D01*
X38440Y-54795D01*
X38464Y-54833D01*
X38464Y-54985D01*
X38202Y-54395D02*
X38202Y-54585D01*
X38440Y-54604D01*
X38416Y-54585D01*
X38392Y-54547D01*
X38392Y-54452D01*
X38416Y-54414D01*
X38440Y-54395D01*
X38488Y-54376D01*
X38607Y-54376D01*
X38654Y-54395D01*
X38678Y-54414D01*
X38702Y-54452D01*
X38702Y-54547D01*
X38678Y-54585D01*
X38654Y-54604D01*
X38702Y-54185D02*
X38702Y-54109D01*
X38678Y-54071D01*
X38654Y-54052D01*
X38583Y-54014D01*
X38488Y-53995D01*
X38297Y-53995D01*
X38250Y-54014D01*
X38226Y-54033D01*
X38202Y-54071D01*
X38202Y-54147D01*
X38226Y-54185D01*
X38250Y-54204D01*
X38297Y-54223D01*
X38416Y-54223D01*
X38464Y-54204D01*
X38488Y-54185D01*
X38511Y-54147D01*
X38511Y-54071D01*
X38488Y-54033D01*
X38464Y-54014D01*
X38416Y-53995D01*
X53702Y-21757D02*
X53464Y-21890D01*
X53702Y-21985D02*
X53202Y-21985D01*
X53202Y-21833D01*
X53226Y-21795D01*
X53250Y-21776D01*
X53297Y-21757D01*
X53369Y-21757D01*
X53416Y-21776D01*
X53440Y-21795D01*
X53464Y-21833D01*
X53464Y-21985D01*
X53702Y-21376D02*
X53702Y-21604D01*
X53702Y-21490D02*
X53202Y-21490D01*
X53273Y-21528D01*
X53321Y-21566D01*
X53345Y-21604D01*
X53250Y-21223D02*
X53226Y-21204D01*
X53202Y-21166D01*
X53202Y-21071D01*
X53226Y-21033D01*
X53250Y-21014D01*
X53297Y-20995D01*
X53345Y-20995D01*
X53416Y-21014D01*
X53702Y-21242D01*
X53702Y-20995D01*
X63702Y-21757D02*
X63464Y-21890D01*
X63702Y-21985D02*
X63202Y-21985D01*
X63202Y-21833D01*
X63226Y-21795D01*
X63250Y-21776D01*
X63297Y-21757D01*
X63369Y-21757D01*
X63416Y-21776D01*
X63440Y-21795D01*
X63464Y-21833D01*
X63464Y-21985D01*
X63702Y-21376D02*
X63702Y-21604D01*
X63702Y-21490D02*
X63202Y-21490D01*
X63273Y-21528D01*
X63321Y-21566D01*
X63345Y-21604D01*
X63202Y-21242D02*
X63202Y-20976D01*
X63702Y-21147D01*
X65702Y-21757D02*
X65464Y-21890D01*
X65702Y-21985D02*
X65202Y-21985D01*
X65202Y-21833D01*
X65226Y-21795D01*
X65250Y-21776D01*
X65297Y-21757D01*
X65369Y-21757D01*
X65416Y-21776D01*
X65440Y-21795D01*
X65464Y-21833D01*
X65464Y-21985D01*
X65702Y-21376D02*
X65702Y-21604D01*
X65702Y-21490D02*
X65202Y-21490D01*
X65273Y-21528D01*
X65321Y-21566D01*
X65345Y-21604D01*
X65702Y-21185D02*
X65702Y-21109D01*
X65678Y-21071D01*
X65654Y-21052D01*
X65583Y-21014D01*
X65488Y-20995D01*
X65297Y-20995D01*
X65250Y-21014D01*
X65226Y-21033D01*
X65202Y-21071D01*
X65202Y-21147D01*
X65226Y-21185D01*
X65250Y-21204D01*
X65297Y-21223D01*
X65416Y-21223D01*
X65464Y-21204D01*
X65488Y-21185D01*
X65511Y-21147D01*
X65511Y-21071D01*
X65488Y-21033D01*
X65464Y-21014D01*
X65416Y-20995D01*
X51702Y-21757D02*
X51464Y-21890D01*
X51702Y-21985D02*
X51202Y-21985D01*
X51202Y-21833D01*
X51226Y-21795D01*
X51250Y-21776D01*
X51297Y-21757D01*
X51369Y-21757D01*
X51416Y-21776D01*
X51440Y-21795D01*
X51464Y-21833D01*
X51464Y-21985D01*
X51702Y-21376D02*
X51702Y-21604D01*
X51702Y-21490D02*
X51202Y-21490D01*
X51273Y-21528D01*
X51321Y-21566D01*
X51345Y-21604D01*
X51702Y-20995D02*
X51702Y-21223D01*
X51702Y-21109D02*
X51202Y-21109D01*
X51273Y-21147D01*
X51321Y-21185D01*
X51345Y-21223D01*
X40433Y-24202D02*
X40300Y-23964D01*
X40204Y-24202D02*
X40204Y-23702D01*
X40357Y-23702D01*
X40395Y-23726D01*
X40414Y-23750D01*
X40433Y-23797D01*
X40433Y-23869D01*
X40414Y-23916D01*
X40395Y-23940D01*
X40357Y-23964D01*
X40204Y-23964D01*
X40814Y-24202D02*
X40585Y-24202D01*
X40700Y-24202D02*
X40700Y-23702D01*
X40661Y-23773D01*
X40623Y-23821D01*
X40585Y-23845D01*
X45433Y-25202D02*
X45300Y-24964D01*
X45204Y-25202D02*
X45204Y-24702D01*
X45357Y-24702D01*
X45395Y-24726D01*
X45414Y-24750D01*
X45433Y-24797D01*
X45433Y-24869D01*
X45414Y-24916D01*
X45395Y-24940D01*
X45357Y-24964D01*
X45204Y-24964D01*
X45776Y-24702D02*
X45700Y-24702D01*
X45661Y-24726D01*
X45642Y-24750D01*
X45604Y-24821D01*
X45585Y-24916D01*
X45585Y-25107D01*
X45604Y-25154D01*
X45623Y-25178D01*
X45661Y-25202D01*
X45738Y-25202D01*
X45776Y-25178D01*
X45795Y-25154D01*
X45814Y-25107D01*
X45814Y-24988D01*
X45795Y-24940D01*
X45776Y-24916D01*
X45738Y-24892D01*
X45661Y-24892D01*
X45623Y-24916D01*
X45604Y-24940D01*
X45585Y-24988D01*
X40433Y-26202D02*
X40300Y-25964D01*
X40204Y-26202D02*
X40204Y-25702D01*
X40357Y-25702D01*
X40395Y-25726D01*
X40414Y-25750D01*
X40433Y-25797D01*
X40433Y-25869D01*
X40414Y-25916D01*
X40395Y-25940D01*
X40357Y-25964D01*
X40204Y-25964D01*
X40585Y-25750D02*
X40604Y-25726D01*
X40642Y-25702D01*
X40738Y-25702D01*
X40776Y-25726D01*
X40795Y-25750D01*
X40814Y-25797D01*
X40814Y-25845D01*
X40795Y-25916D01*
X40566Y-26202D01*
X40814Y-26202D01*
X40433Y-28202D02*
X40300Y-27964D01*
X40204Y-28202D02*
X40204Y-27702D01*
X40357Y-27702D01*
X40395Y-27726D01*
X40414Y-27750D01*
X40433Y-27797D01*
X40433Y-27869D01*
X40414Y-27916D01*
X40395Y-27940D01*
X40357Y-27964D01*
X40204Y-27964D01*
X40566Y-27702D02*
X40814Y-27702D01*
X40680Y-27892D01*
X40738Y-27892D01*
X40776Y-27916D01*
X40795Y-27940D01*
X40814Y-27988D01*
X40814Y-28107D01*
X40795Y-28154D01*
X40776Y-28178D01*
X40738Y-28202D01*
X40623Y-28202D01*
X40585Y-28178D01*
X40566Y-28154D01*
X45433Y-29202D02*
X45300Y-28964D01*
X45204Y-29202D02*
X45204Y-28702D01*
X45357Y-28702D01*
X45395Y-28726D01*
X45414Y-28750D01*
X45433Y-28797D01*
X45433Y-28869D01*
X45414Y-28916D01*
X45395Y-28940D01*
X45357Y-28964D01*
X45204Y-28964D01*
X45566Y-28702D02*
X45833Y-28702D01*
X45661Y-29202D01*
X40433Y-30202D02*
X40300Y-29964D01*
X40204Y-30202D02*
X40204Y-29702D01*
X40357Y-29702D01*
X40395Y-29726D01*
X40414Y-29750D01*
X40433Y-29797D01*
X40433Y-29869D01*
X40414Y-29916D01*
X40395Y-29940D01*
X40357Y-29964D01*
X40204Y-29964D01*
X40776Y-29869D02*
X40776Y-30202D01*
X40680Y-29678D02*
X40585Y-30035D01*
X40833Y-30035D01*
X45433Y-31202D02*
X45300Y-30964D01*
X45204Y-31202D02*
X45204Y-30702D01*
X45357Y-30702D01*
X45395Y-30726D01*
X45414Y-30750D01*
X45433Y-30797D01*
X45433Y-30869D01*
X45414Y-30916D01*
X45395Y-30940D01*
X45357Y-30964D01*
X45204Y-30964D01*
X45661Y-30916D02*
X45623Y-30892D01*
X45604Y-30869D01*
X45585Y-30821D01*
X45585Y-30797D01*
X45604Y-30750D01*
X45623Y-30726D01*
X45661Y-30702D01*
X45738Y-30702D01*
X45776Y-30726D01*
X45795Y-30750D01*
X45814Y-30797D01*
X45814Y-30821D01*
X45795Y-30869D01*
X45776Y-30892D01*
X45738Y-30916D01*
X45661Y-30916D01*
X45623Y-30940D01*
X45604Y-30964D01*
X45585Y-31011D01*
X45585Y-31107D01*
X45604Y-31154D01*
X45623Y-31178D01*
X45661Y-31202D01*
X45738Y-31202D01*
X45776Y-31178D01*
X45795Y-31154D01*
X45814Y-31107D01*
X45814Y-31011D01*
X45795Y-30964D01*
X45776Y-30940D01*
X45738Y-30916D01*
X40433Y-32202D02*
X40300Y-31964D01*
X40204Y-32202D02*
X40204Y-31702D01*
X40357Y-31702D01*
X40395Y-31726D01*
X40414Y-31750D01*
X40433Y-31797D01*
X40433Y-31869D01*
X40414Y-31916D01*
X40395Y-31940D01*
X40357Y-31964D01*
X40204Y-31964D01*
X40795Y-31702D02*
X40604Y-31702D01*
X40585Y-31940D01*
X40604Y-31916D01*
X40642Y-31892D01*
X40738Y-31892D01*
X40776Y-31916D01*
X40795Y-31940D01*
X40814Y-31988D01*
X40814Y-32107D01*
X40795Y-32154D01*
X40776Y-32178D01*
X40738Y-32202D01*
X40642Y-32202D01*
X40604Y-32178D01*
X40585Y-32154D01*
X73202Y-43823D02*
X73702Y-43557D01*
X73202Y-43557D02*
X73702Y-43823D01*
X73702Y-43195D02*
X73702Y-43423D01*
X73702Y-43309D02*
X73202Y-43309D01*
X73273Y-43347D01*
X73321Y-43385D01*
X73345Y-43423D01*
X63742Y-54702D02*
X63609Y-54464D01*
X63514Y-54702D02*
X63514Y-54202D01*
X63666Y-54202D01*
X63704Y-54226D01*
X63723Y-54250D01*
X63742Y-54297D01*
X63742Y-54369D01*
X63723Y-54416D01*
X63704Y-54440D01*
X63666Y-54464D01*
X63514Y-54464D01*
X64123Y-54702D02*
X63895Y-54702D01*
X64009Y-54702D02*
X64009Y-54202D01*
X63971Y-54273D01*
X63933Y-54321D01*
X63895Y-54345D01*
X64352Y-54416D02*
X64314Y-54392D01*
X64295Y-54369D01*
X64276Y-54321D01*
X64276Y-54297D01*
X64295Y-54250D01*
X64314Y-54226D01*
X64352Y-54202D01*
X64428Y-54202D01*
X64466Y-54226D01*
X64485Y-54250D01*
X64504Y-54297D01*
X64504Y-54321D01*
X64485Y-54369D01*
X64466Y-54392D01*
X64428Y-54416D01*
X64352Y-54416D01*
X64314Y-54440D01*
X64295Y-54464D01*
X64276Y-54511D01*
X64276Y-54607D01*
X64295Y-54654D01*
X64314Y-54678D01*
X64352Y-54702D01*
X64428Y-54702D01*
X64466Y-54678D01*
X64485Y-54654D01*
X64504Y-54607D01*
X64504Y-54511D01*
X64485Y-54464D01*
X64466Y-54440D01*
X64428Y-54416D01*
X66702Y-54757D02*
X66464Y-54890D01*
X66702Y-54985D02*
X66202Y-54985D01*
X66202Y-54833D01*
X66226Y-54795D01*
X66250Y-54776D01*
X66297Y-54757D01*
X66369Y-54757D01*
X66416Y-54776D01*
X66440Y-54795D01*
X66464Y-54833D01*
X66464Y-54985D01*
X66250Y-54604D02*
X66226Y-54585D01*
X66202Y-54547D01*
X66202Y-54452D01*
X66226Y-54414D01*
X66250Y-54395D01*
X66297Y-54376D01*
X66345Y-54376D01*
X66416Y-54395D01*
X66702Y-54623D01*
X66702Y-54376D01*
X66202Y-54128D02*
X66202Y-54090D01*
X66226Y-54052D01*
X66250Y-54033D01*
X66297Y-54014D01*
X66392Y-53995D01*
X66511Y-53995D01*
X66607Y-54014D01*
X66654Y-54033D01*
X66678Y-54052D01*
X66702Y-54090D01*
X66702Y-54128D01*
X66678Y-54166D01*
X66654Y-54185D01*
X66607Y-54204D01*
X66511Y-54223D01*
X66392Y-54223D01*
X66297Y-54204D01*
X66250Y-54185D01*
X66226Y-54166D01*
X66202Y-54128D01*
X36742Y-58202D02*
X36609Y-57964D01*
X36514Y-58202D02*
X36514Y-57702D01*
X36666Y-57702D01*
X36704Y-57726D01*
X36723Y-57750D01*
X36742Y-57797D01*
X36742Y-57869D01*
X36723Y-57916D01*
X36704Y-57940D01*
X36666Y-57964D01*
X36514Y-57964D01*
X37123Y-58202D02*
X36895Y-58202D01*
X37009Y-58202D02*
X37009Y-57702D01*
X36971Y-57773D01*
X36933Y-57821D01*
X36895Y-57845D01*
X37371Y-57702D02*
X37409Y-57702D01*
X37447Y-57726D01*
X37466Y-57750D01*
X37485Y-57797D01*
X37504Y-57892D01*
X37504Y-58011D01*
X37485Y-58107D01*
X37466Y-58154D01*
X37447Y-58178D01*
X37409Y-58202D01*
X37371Y-58202D01*
X37333Y-58178D01*
X37314Y-58154D01*
X37295Y-58107D01*
X37276Y-58011D01*
X37276Y-57892D01*
X37295Y-57797D01*
X37314Y-57750D01*
X37333Y-57726D01*
X37371Y-57702D01*
X73933Y-48202D02*
X73800Y-47964D01*
X73704Y-48202D02*
X73704Y-47702D01*
X73857Y-47702D01*
X73895Y-47726D01*
X73914Y-47750D01*
X73933Y-47797D01*
X73933Y-47869D01*
X73914Y-47916D01*
X73895Y-47940D01*
X73857Y-47964D01*
X73704Y-47964D01*
X74123Y-48202D02*
X74200Y-48202D01*
X74238Y-48178D01*
X74257Y-48154D01*
X74295Y-48083D01*
X74314Y-47988D01*
X74314Y-47797D01*
X74295Y-47750D01*
X74276Y-47726D01*
X74238Y-47702D01*
X74161Y-47702D01*
X74123Y-47726D01*
X74104Y-47750D01*
X74085Y-47797D01*
X74085Y-47916D01*
X74104Y-47964D01*
X74123Y-47988D01*
X74161Y-48011D01*
X74238Y-48011D01*
X74276Y-47988D01*
X74295Y-47964D01*
X74314Y-47916D01*
X57202Y-36257D02*
X56964Y-36390D01*
X57202Y-36485D02*
X56702Y-36485D01*
X56702Y-36333D01*
X56726Y-36295D01*
X56750Y-36276D01*
X56797Y-36257D01*
X56869Y-36257D01*
X56916Y-36276D01*
X56940Y-36295D01*
X56964Y-36333D01*
X56964Y-36485D01*
X56702Y-36123D02*
X56702Y-35876D01*
X56892Y-36009D01*
X56892Y-35952D01*
X56916Y-35914D01*
X56940Y-35895D01*
X56988Y-35876D01*
X57107Y-35876D01*
X57154Y-35895D01*
X57178Y-35914D01*
X57202Y-35952D01*
X57202Y-36066D01*
X57178Y-36104D01*
X57154Y-36123D01*
X56702Y-35628D02*
X56702Y-35590D01*
X56726Y-35552D01*
X56750Y-35533D01*
X56797Y-35514D01*
X56892Y-35495D01*
X57011Y-35495D01*
X57107Y-35514D01*
X57154Y-35533D01*
X57178Y-35552D01*
X57202Y-35590D01*
X57202Y-35628D01*
X57178Y-35666D01*
X57154Y-35685D01*
X57107Y-35704D01*
X57011Y-35723D01*
X56892Y-35723D01*
X56797Y-35704D01*
X56750Y-35685D01*
X56726Y-35666D01*
X56702Y-35628D01*
X57202Y-42757D02*
X56964Y-42890D01*
X57202Y-42985D02*
X56702Y-42985D01*
X56702Y-42833D01*
X56726Y-42795D01*
X56750Y-42776D01*
X56797Y-42757D01*
X56869Y-42757D01*
X56916Y-42776D01*
X56940Y-42795D01*
X56964Y-42833D01*
X56964Y-42985D01*
X56750Y-42604D02*
X56726Y-42585D01*
X56702Y-42547D01*
X56702Y-42452D01*
X56726Y-42414D01*
X56750Y-42395D01*
X56797Y-42376D01*
X56845Y-42376D01*
X56916Y-42395D01*
X57202Y-42623D01*
X57202Y-42376D01*
X56869Y-42033D02*
X57202Y-42033D01*
X56678Y-42128D02*
X57035Y-42223D01*
X57035Y-41976D01*
X42702Y-36257D02*
X42464Y-36390D01*
X42702Y-36485D02*
X42202Y-36485D01*
X42202Y-36333D01*
X42226Y-36295D01*
X42250Y-36276D01*
X42297Y-36257D01*
X42369Y-36257D01*
X42416Y-36276D01*
X42440Y-36295D01*
X42464Y-36333D01*
X42464Y-36485D01*
X42369Y-35914D02*
X42702Y-35914D01*
X42178Y-36009D02*
X42535Y-36104D01*
X42535Y-35857D01*
X42416Y-35647D02*
X42392Y-35685D01*
X42369Y-35704D01*
X42321Y-35723D01*
X42297Y-35723D01*
X42250Y-35704D01*
X42226Y-35685D01*
X42202Y-35647D01*
X42202Y-35571D01*
X42226Y-35533D01*
X42250Y-35514D01*
X42297Y-35495D01*
X42321Y-35495D01*
X42369Y-35514D01*
X42392Y-35533D01*
X42416Y-35571D01*
X42416Y-35647D01*
X42440Y-35685D01*
X42464Y-35704D01*
X42511Y-35723D01*
X42607Y-35723D01*
X42654Y-35704D01*
X42678Y-35685D01*
X42702Y-35647D01*
X42702Y-35571D01*
X42678Y-35533D01*
X42654Y-35514D01*
X42607Y-35495D01*
X42511Y-35495D01*
X42464Y-35514D01*
X42440Y-35533D01*
X42416Y-35571D01*
X47202Y-36257D02*
X46964Y-36390D01*
X47202Y-36485D02*
X46702Y-36485D01*
X46702Y-36333D01*
X46726Y-36295D01*
X46750Y-36276D01*
X46797Y-36257D01*
X46869Y-36257D01*
X46916Y-36276D01*
X46940Y-36295D01*
X46964Y-36333D01*
X46964Y-36485D01*
X46869Y-35914D02*
X47202Y-35914D01*
X46678Y-36009D02*
X47035Y-36104D01*
X47035Y-35857D01*
X46702Y-35514D02*
X46702Y-35704D01*
X46940Y-35723D01*
X46916Y-35704D01*
X46892Y-35666D01*
X46892Y-35571D01*
X46916Y-35533D01*
X46940Y-35514D01*
X46988Y-35495D01*
X47107Y-35495D01*
X47154Y-35514D01*
X47178Y-35533D01*
X47202Y-35571D01*
X47202Y-35666D01*
X47178Y-35704D01*
X47154Y-35723D01*
X51202Y-36257D02*
X50964Y-36390D01*
X51202Y-36485D02*
X50702Y-36485D01*
X50702Y-36333D01*
X50726Y-36295D01*
X50750Y-36276D01*
X50797Y-36257D01*
X50869Y-36257D01*
X50916Y-36276D01*
X50940Y-36295D01*
X50964Y-36333D01*
X50964Y-36485D01*
X50750Y-36104D02*
X50726Y-36085D01*
X50702Y-36047D01*
X50702Y-35952D01*
X50726Y-35914D01*
X50750Y-35895D01*
X50797Y-35876D01*
X50845Y-35876D01*
X50916Y-35895D01*
X51202Y-36123D01*
X51202Y-35876D01*
X51202Y-35685D02*
X51202Y-35609D01*
X51178Y-35571D01*
X51154Y-35552D01*
X51083Y-35514D01*
X50988Y-35495D01*
X50797Y-35495D01*
X50750Y-35514D01*
X50726Y-35533D01*
X50702Y-35571D01*
X50702Y-35647D01*
X50726Y-35685D01*
X50750Y-35704D01*
X50797Y-35723D01*
X50916Y-35723D01*
X50964Y-35704D01*
X50988Y-35685D01*
X51011Y-35647D01*
X51011Y-35571D01*
X50988Y-35533D01*
X50964Y-35514D01*
X50916Y-35495D01*
X53202Y-36257D02*
X52964Y-36390D01*
X53202Y-36485D02*
X52702Y-36485D01*
X52702Y-36333D01*
X52726Y-36295D01*
X52750Y-36276D01*
X52797Y-36257D01*
X52869Y-36257D01*
X52916Y-36276D01*
X52940Y-36295D01*
X52964Y-36333D01*
X52964Y-36485D01*
X52750Y-36104D02*
X52726Y-36085D01*
X52702Y-36047D01*
X52702Y-35952D01*
X52726Y-35914D01*
X52750Y-35895D01*
X52797Y-35876D01*
X52845Y-35876D01*
X52916Y-35895D01*
X53202Y-36123D01*
X53202Y-35876D01*
X53202Y-35495D02*
X53202Y-35723D01*
X53202Y-35609D02*
X52702Y-35609D01*
X52773Y-35647D01*
X52821Y-35685D01*
X52845Y-35723D01*
X44702Y-54757D02*
X44464Y-54890D01*
X44702Y-54985D02*
X44202Y-54985D01*
X44202Y-54833D01*
X44226Y-54795D01*
X44250Y-54776D01*
X44297Y-54757D01*
X44369Y-54757D01*
X44416Y-54776D01*
X44440Y-54795D01*
X44464Y-54833D01*
X44464Y-54985D01*
X44202Y-54395D02*
X44202Y-54585D01*
X44440Y-54604D01*
X44416Y-54585D01*
X44392Y-54547D01*
X44392Y-54452D01*
X44416Y-54414D01*
X44440Y-54395D01*
X44488Y-54376D01*
X44607Y-54376D01*
X44654Y-54395D01*
X44678Y-54414D01*
X44702Y-54452D01*
X44702Y-54547D01*
X44678Y-54585D01*
X44654Y-54604D01*
X44369Y-54033D02*
X44702Y-54033D01*
X44178Y-54128D02*
X44535Y-54223D01*
X44535Y-53976D01*
X38242Y-39202D02*
X38109Y-38964D01*
X38014Y-39202D02*
X38014Y-38702D01*
X38166Y-38702D01*
X38204Y-38726D01*
X38223Y-38750D01*
X38242Y-38797D01*
X38242Y-38869D01*
X38223Y-38916D01*
X38204Y-38940D01*
X38166Y-38964D01*
X38014Y-38964D01*
X38376Y-38702D02*
X38623Y-38702D01*
X38490Y-38892D01*
X38547Y-38892D01*
X38585Y-38916D01*
X38604Y-38940D01*
X38623Y-38988D01*
X38623Y-39107D01*
X38604Y-39154D01*
X38585Y-39178D01*
X38547Y-39202D01*
X38433Y-39202D01*
X38395Y-39178D01*
X38376Y-39154D01*
X38852Y-38916D02*
X38814Y-38892D01*
X38795Y-38869D01*
X38776Y-38821D01*
X38776Y-38797D01*
X38795Y-38750D01*
X38814Y-38726D01*
X38852Y-38702D01*
X38928Y-38702D01*
X38966Y-38726D01*
X38985Y-38750D01*
X39004Y-38797D01*
X39004Y-38821D01*
X38985Y-38869D01*
X38966Y-38892D01*
X38928Y-38916D01*
X38852Y-38916D01*
X38814Y-38940D01*
X38795Y-38964D01*
X38776Y-39011D01*
X38776Y-39107D01*
X38795Y-39154D01*
X38814Y-39178D01*
X38852Y-39202D01*
X38928Y-39202D01*
X38966Y-39178D01*
X38985Y-39154D01*
X39004Y-39107D01*
X39004Y-39011D01*
X38985Y-38964D01*
X38966Y-38940D01*
X38928Y-38916D01*
X45702Y-36257D02*
X45464Y-36390D01*
X45702Y-36485D02*
X45202Y-36485D01*
X45202Y-36333D01*
X45226Y-36295D01*
X45250Y-36276D01*
X45297Y-36257D01*
X45369Y-36257D01*
X45416Y-36276D01*
X45440Y-36295D01*
X45464Y-36333D01*
X45464Y-36485D01*
X45369Y-35914D02*
X45702Y-35914D01*
X45178Y-36009D02*
X45535Y-36104D01*
X45535Y-35857D01*
X45202Y-35533D02*
X45202Y-35609D01*
X45226Y-35647D01*
X45250Y-35666D01*
X45321Y-35704D01*
X45416Y-35723D01*
X45607Y-35723D01*
X45654Y-35704D01*
X45678Y-35685D01*
X45702Y-35647D01*
X45702Y-35571D01*
X45678Y-35533D01*
X45654Y-35514D01*
X45607Y-35495D01*
X45488Y-35495D01*
X45440Y-35514D01*
X45416Y-35533D01*
X45392Y-35571D01*
X45392Y-35647D01*
X45416Y-35685D01*
X45440Y-35704D01*
X45488Y-35723D01*
X59202Y-42757D02*
X58964Y-42890D01*
X59202Y-42985D02*
X58702Y-42985D01*
X58702Y-42833D01*
X58726Y-42795D01*
X58750Y-42776D01*
X58797Y-42757D01*
X58869Y-42757D01*
X58916Y-42776D01*
X58940Y-42795D01*
X58964Y-42833D01*
X58964Y-42985D01*
X58702Y-42623D02*
X58702Y-42376D01*
X58892Y-42509D01*
X58892Y-42452D01*
X58916Y-42414D01*
X58940Y-42395D01*
X58988Y-42376D01*
X59107Y-42376D01*
X59154Y-42395D01*
X59178Y-42414D01*
X59202Y-42452D01*
X59202Y-42566D01*
X59178Y-42604D01*
X59154Y-42623D01*
X58750Y-42223D02*
X58726Y-42204D01*
X58702Y-42166D01*
X58702Y-42071D01*
X58726Y-42033D01*
X58750Y-42014D01*
X58797Y-41995D01*
X58845Y-41995D01*
X58916Y-42014D01*
X59202Y-42242D01*
X59202Y-41995D01*
X55202Y-36257D02*
X54964Y-36390D01*
X55202Y-36485D02*
X54702Y-36485D01*
X54702Y-36333D01*
X54726Y-36295D01*
X54750Y-36276D01*
X54797Y-36257D01*
X54869Y-36257D01*
X54916Y-36276D01*
X54940Y-36295D01*
X54964Y-36333D01*
X54964Y-36485D01*
X54750Y-36104D02*
X54726Y-36085D01*
X54702Y-36047D01*
X54702Y-35952D01*
X54726Y-35914D01*
X54750Y-35895D01*
X54797Y-35876D01*
X54845Y-35876D01*
X54916Y-35895D01*
X55202Y-36123D01*
X55202Y-35876D01*
X54750Y-35723D02*
X54726Y-35704D01*
X54702Y-35666D01*
X54702Y-35571D01*
X54726Y-35533D01*
X54750Y-35514D01*
X54797Y-35495D01*
X54845Y-35495D01*
X54916Y-35514D01*
X55202Y-35742D01*
X55202Y-35495D01*
X48702Y-36257D02*
X48464Y-36390D01*
X48702Y-36485D02*
X48202Y-36485D01*
X48202Y-36333D01*
X48226Y-36295D01*
X48250Y-36276D01*
X48297Y-36257D01*
X48369Y-36257D01*
X48416Y-36276D01*
X48440Y-36295D01*
X48464Y-36333D01*
X48464Y-36485D01*
X48202Y-35895D02*
X48202Y-36085D01*
X48440Y-36104D01*
X48416Y-36085D01*
X48392Y-36047D01*
X48392Y-35952D01*
X48416Y-35914D01*
X48440Y-35895D01*
X48488Y-35876D01*
X48607Y-35876D01*
X48654Y-35895D01*
X48678Y-35914D01*
X48702Y-35952D01*
X48702Y-36047D01*
X48678Y-36085D01*
X48654Y-36104D01*
X48202Y-35514D02*
X48202Y-35704D01*
X48440Y-35723D01*
X48416Y-35704D01*
X48392Y-35666D01*
X48392Y-35571D01*
X48416Y-35533D01*
X48440Y-35514D01*
X48488Y-35495D01*
X48607Y-35495D01*
X48654Y-35514D01*
X48678Y-35533D01*
X48702Y-35571D01*
X48702Y-35666D01*
X48678Y-35704D01*
X48654Y-35723D01*
X38242Y-40202D02*
X38109Y-39964D01*
X38014Y-40202D02*
X38014Y-39702D01*
X38166Y-39702D01*
X38204Y-39726D01*
X38223Y-39750D01*
X38242Y-39797D01*
X38242Y-39869D01*
X38223Y-39916D01*
X38204Y-39940D01*
X38166Y-39964D01*
X38014Y-39964D01*
X38376Y-39702D02*
X38623Y-39702D01*
X38490Y-39892D01*
X38547Y-39892D01*
X38585Y-39916D01*
X38604Y-39940D01*
X38623Y-39988D01*
X38623Y-40107D01*
X38604Y-40154D01*
X38585Y-40178D01*
X38547Y-40202D01*
X38433Y-40202D01*
X38395Y-40178D01*
X38376Y-40154D01*
X38814Y-40202D02*
X38890Y-40202D01*
X38928Y-40178D01*
X38947Y-40154D01*
X38985Y-40083D01*
X39004Y-39988D01*
X39004Y-39797D01*
X38985Y-39750D01*
X38966Y-39726D01*
X38928Y-39702D01*
X38852Y-39702D01*
X38814Y-39726D01*
X38795Y-39750D01*
X38776Y-39797D01*
X38776Y-39916D01*
X38795Y-39964D01*
X38814Y-39988D01*
X38852Y-40011D01*
X38928Y-40011D01*
X38966Y-39988D01*
X38985Y-39964D01*
X39004Y-39916D01*
X44202Y-36257D02*
X43964Y-36390D01*
X44202Y-36485D02*
X43702Y-36485D01*
X43702Y-36333D01*
X43726Y-36295D01*
X43750Y-36276D01*
X43797Y-36257D01*
X43869Y-36257D01*
X43916Y-36276D01*
X43940Y-36295D01*
X43964Y-36333D01*
X43964Y-36485D01*
X43869Y-35914D02*
X44202Y-35914D01*
X43678Y-36009D02*
X44035Y-36104D01*
X44035Y-35857D01*
X43702Y-35742D02*
X43702Y-35476D01*
X44202Y-35647D01*
X53202Y-42757D02*
X52964Y-42890D01*
X53202Y-42985D02*
X52702Y-42985D01*
X52702Y-42833D01*
X52726Y-42795D01*
X52750Y-42776D01*
X52797Y-42757D01*
X52869Y-42757D01*
X52916Y-42776D01*
X52940Y-42795D01*
X52964Y-42833D01*
X52964Y-42985D01*
X52702Y-42623D02*
X52702Y-42376D01*
X52892Y-42509D01*
X52892Y-42452D01*
X52916Y-42414D01*
X52940Y-42395D01*
X52988Y-42376D01*
X53107Y-42376D01*
X53154Y-42395D01*
X53178Y-42414D01*
X53202Y-42452D01*
X53202Y-42566D01*
X53178Y-42604D01*
X53154Y-42623D01*
X53202Y-41995D02*
X53202Y-42223D01*
X53202Y-42109D02*
X52702Y-42109D01*
X52773Y-42147D01*
X52821Y-42185D01*
X52845Y-42223D01*
X55202Y-42757D02*
X54964Y-42890D01*
X55202Y-42985D02*
X54702Y-42985D01*
X54702Y-42833D01*
X54726Y-42795D01*
X54750Y-42776D01*
X54797Y-42757D01*
X54869Y-42757D01*
X54916Y-42776D01*
X54940Y-42795D01*
X54964Y-42833D01*
X54964Y-42985D01*
X54750Y-42604D02*
X54726Y-42585D01*
X54702Y-42547D01*
X54702Y-42452D01*
X54726Y-42414D01*
X54750Y-42395D01*
X54797Y-42376D01*
X54845Y-42376D01*
X54916Y-42395D01*
X55202Y-42623D01*
X55202Y-42376D01*
X54702Y-42242D02*
X54702Y-41995D01*
X54892Y-42128D01*
X54892Y-42071D01*
X54916Y-42033D01*
X54940Y-42014D01*
X54988Y-41995D01*
X55107Y-41995D01*
X55154Y-42014D01*
X55178Y-42033D01*
X55202Y-42071D01*
X55202Y-42185D01*
X55178Y-42223D01*
X55154Y-42242D01*
X38242Y-41202D02*
X38109Y-40964D01*
X38014Y-41202D02*
X38014Y-40702D01*
X38166Y-40702D01*
X38204Y-40726D01*
X38223Y-40750D01*
X38242Y-40797D01*
X38242Y-40869D01*
X38223Y-40916D01*
X38204Y-40940D01*
X38166Y-40964D01*
X38014Y-40964D01*
X38585Y-40869D02*
X38585Y-41202D01*
X38490Y-40678D02*
X38395Y-41035D01*
X38642Y-41035D01*
X38871Y-40702D02*
X38909Y-40702D01*
X38947Y-40726D01*
X38966Y-40750D01*
X38985Y-40797D01*
X39004Y-40892D01*
X39004Y-41011D01*
X38985Y-41107D01*
X38966Y-41154D01*
X38947Y-41178D01*
X38909Y-41202D01*
X38871Y-41202D01*
X38833Y-41178D01*
X38814Y-41154D01*
X38795Y-41107D01*
X38776Y-41011D01*
X38776Y-40892D01*
X38795Y-40797D01*
X38814Y-40750D01*
X38833Y-40726D01*
X38871Y-40702D01*
X43202Y-54757D02*
X42964Y-54890D01*
X43202Y-54985D02*
X42702Y-54985D01*
X42702Y-54833D01*
X42726Y-54795D01*
X42750Y-54776D01*
X42797Y-54757D01*
X42869Y-54757D01*
X42916Y-54776D01*
X42940Y-54795D01*
X42964Y-54833D01*
X42964Y-54985D01*
X42702Y-54395D02*
X42702Y-54585D01*
X42940Y-54604D01*
X42916Y-54585D01*
X42892Y-54547D01*
X42892Y-54452D01*
X42916Y-54414D01*
X42940Y-54395D01*
X42988Y-54376D01*
X43107Y-54376D01*
X43154Y-54395D01*
X43178Y-54414D01*
X43202Y-54452D01*
X43202Y-54547D01*
X43178Y-54585D01*
X43154Y-54604D01*
X42702Y-54033D02*
X42702Y-54109D01*
X42726Y-54147D01*
X42750Y-54166D01*
X42821Y-54204D01*
X42916Y-54223D01*
X43107Y-54223D01*
X43154Y-54204D01*
X43178Y-54185D01*
X43202Y-54147D01*
X43202Y-54071D01*
X43178Y-54033D01*
X43154Y-54014D01*
X43107Y-53995D01*
X42988Y-53995D01*
X42940Y-54014D01*
X42916Y-54033D01*
X42892Y-54071D01*
X42892Y-54147D01*
X42916Y-54185D01*
X42940Y-54204D01*
X42988Y-54223D01*
X55202Y-48257D02*
X54964Y-48390D01*
X55202Y-48485D02*
X54702Y-48485D01*
X54702Y-48333D01*
X54726Y-48295D01*
X54750Y-48276D01*
X54797Y-48257D01*
X54869Y-48257D01*
X54916Y-48276D01*
X54940Y-48295D01*
X54964Y-48333D01*
X54964Y-48485D01*
X54750Y-48104D02*
X54726Y-48085D01*
X54702Y-48047D01*
X54702Y-47952D01*
X54726Y-47914D01*
X54750Y-47895D01*
X54797Y-47876D01*
X54845Y-47876D01*
X54916Y-47895D01*
X55202Y-48123D01*
X55202Y-47876D01*
X54702Y-47514D02*
X54702Y-47704D01*
X54940Y-47723D01*
X54916Y-47704D01*
X54892Y-47666D01*
X54892Y-47571D01*
X54916Y-47533D01*
X54940Y-47514D01*
X54988Y-47495D01*
X55107Y-47495D01*
X55154Y-47514D01*
X55178Y-47533D01*
X55202Y-47571D01*
X55202Y-47666D01*
X55178Y-47704D01*
X55154Y-47723D01*
X56742Y-59702D02*
X56609Y-59464D01*
X56514Y-59702D02*
X56514Y-59202D01*
X56666Y-59202D01*
X56704Y-59226D01*
X56723Y-59250D01*
X56742Y-59297D01*
X56742Y-59369D01*
X56723Y-59416D01*
X56704Y-59440D01*
X56666Y-59464D01*
X56514Y-59464D01*
X57104Y-59202D02*
X56914Y-59202D01*
X56895Y-59440D01*
X56914Y-59416D01*
X56952Y-59392D01*
X57047Y-59392D01*
X57085Y-59416D01*
X57104Y-59440D01*
X57123Y-59488D01*
X57123Y-59607D01*
X57104Y-59654D01*
X57085Y-59678D01*
X57047Y-59702D01*
X56952Y-59702D01*
X56914Y-59678D01*
X56895Y-59654D01*
X57504Y-59702D02*
X57276Y-59702D01*
X57390Y-59702D02*
X57390Y-59202D01*
X57352Y-59273D01*
X57314Y-59321D01*
X57276Y-59345D01*
X38242Y-45202D02*
X38109Y-44964D01*
X38014Y-45202D02*
X38014Y-44702D01*
X38166Y-44702D01*
X38204Y-44726D01*
X38223Y-44750D01*
X38242Y-44797D01*
X38242Y-44869D01*
X38223Y-44916D01*
X38204Y-44940D01*
X38166Y-44964D01*
X38014Y-44964D01*
X38585Y-44869D02*
X38585Y-45202D01*
X38490Y-44678D02*
X38395Y-45035D01*
X38642Y-45035D01*
X38757Y-44702D02*
X39004Y-44702D01*
X38871Y-44892D01*
X38928Y-44892D01*
X38966Y-44916D01*
X38985Y-44940D01*
X39004Y-44988D01*
X39004Y-45107D01*
X38985Y-45154D01*
X38966Y-45178D01*
X38928Y-45202D01*
X38814Y-45202D01*
X38776Y-45178D01*
X38757Y-45154D01*
X40202Y-54757D02*
X39964Y-54890D01*
X40202Y-54985D02*
X39702Y-54985D01*
X39702Y-54833D01*
X39726Y-54795D01*
X39750Y-54776D01*
X39797Y-54757D01*
X39869Y-54757D01*
X39916Y-54776D01*
X39940Y-54795D01*
X39964Y-54833D01*
X39964Y-54985D01*
X39702Y-54395D02*
X39702Y-54585D01*
X39940Y-54604D01*
X39916Y-54585D01*
X39892Y-54547D01*
X39892Y-54452D01*
X39916Y-54414D01*
X39940Y-54395D01*
X39988Y-54376D01*
X40107Y-54376D01*
X40154Y-54395D01*
X40178Y-54414D01*
X40202Y-54452D01*
X40202Y-54547D01*
X40178Y-54585D01*
X40154Y-54604D01*
X39916Y-54147D02*
X39892Y-54185D01*
X39869Y-54204D01*
X39821Y-54223D01*
X39797Y-54223D01*
X39750Y-54204D01*
X39726Y-54185D01*
X39702Y-54147D01*
X39702Y-54071D01*
X39726Y-54033D01*
X39750Y-54014D01*
X39797Y-53995D01*
X39821Y-53995D01*
X39869Y-54014D01*
X39892Y-54033D01*
X39916Y-54071D01*
X39916Y-54147D01*
X39940Y-54185D01*
X39964Y-54204D01*
X40011Y-54223D01*
X40107Y-54223D01*
X40154Y-54204D01*
X40178Y-54185D01*
X40202Y-54147D01*
X40202Y-54071D01*
X40178Y-54033D01*
X40154Y-54014D01*
X40107Y-53995D01*
X40011Y-53995D01*
X39964Y-54014D01*
X39940Y-54033D01*
X39916Y-54071D01*
X57202Y-48257D02*
X56964Y-48390D01*
X57202Y-48485D02*
X56702Y-48485D01*
X56702Y-48333D01*
X56726Y-48295D01*
X56750Y-48276D01*
X56797Y-48257D01*
X56869Y-48257D01*
X56916Y-48276D01*
X56940Y-48295D01*
X56964Y-48333D01*
X56964Y-48485D01*
X56750Y-48104D02*
X56726Y-48085D01*
X56702Y-48047D01*
X56702Y-47952D01*
X56726Y-47914D01*
X56750Y-47895D01*
X56797Y-47876D01*
X56845Y-47876D01*
X56916Y-47895D01*
X57202Y-48123D01*
X57202Y-47876D01*
X56702Y-47533D02*
X56702Y-47609D01*
X56726Y-47647D01*
X56750Y-47666D01*
X56821Y-47704D01*
X56916Y-47723D01*
X57107Y-47723D01*
X57154Y-47704D01*
X57178Y-47685D01*
X57202Y-47647D01*
X57202Y-47571D01*
X57178Y-47533D01*
X57154Y-47514D01*
X57107Y-47495D01*
X56988Y-47495D01*
X56940Y-47514D01*
X56916Y-47533D01*
X56892Y-47571D01*
X56892Y-47647D01*
X56916Y-47685D01*
X56940Y-47704D01*
X56988Y-47723D01*
X54742Y-54202D02*
X54609Y-53964D01*
X54514Y-54202D02*
X54514Y-53702D01*
X54666Y-53702D01*
X54704Y-53726D01*
X54723Y-53750D01*
X54742Y-53797D01*
X54742Y-53869D01*
X54723Y-53916D01*
X54704Y-53940D01*
X54666Y-53964D01*
X54514Y-53964D01*
X54876Y-53702D02*
X55123Y-53702D01*
X54990Y-53892D01*
X55047Y-53892D01*
X55085Y-53916D01*
X55104Y-53940D01*
X55123Y-53988D01*
X55123Y-54107D01*
X55104Y-54154D01*
X55085Y-54178D01*
X55047Y-54202D01*
X54933Y-54202D01*
X54895Y-54178D01*
X54876Y-54154D01*
X55466Y-53869D02*
X55466Y-54202D01*
X55371Y-53678D02*
X55276Y-54035D01*
X55523Y-54035D01*
X55202Y-59757D02*
X54964Y-59890D01*
X55202Y-59985D02*
X54702Y-59985D01*
X54702Y-59833D01*
X54726Y-59795D01*
X54750Y-59776D01*
X54797Y-59757D01*
X54869Y-59757D01*
X54916Y-59776D01*
X54940Y-59795D01*
X54964Y-59833D01*
X54964Y-59985D01*
X54702Y-59395D02*
X54702Y-59585D01*
X54940Y-59604D01*
X54916Y-59585D01*
X54892Y-59547D01*
X54892Y-59452D01*
X54916Y-59414D01*
X54940Y-59395D01*
X54988Y-59376D01*
X55107Y-59376D01*
X55154Y-59395D01*
X55178Y-59414D01*
X55202Y-59452D01*
X55202Y-59547D01*
X55178Y-59585D01*
X55154Y-59604D01*
X54702Y-59128D02*
X54702Y-59090D01*
X54726Y-59052D01*
X54750Y-59033D01*
X54797Y-59014D01*
X54892Y-58995D01*
X55011Y-58995D01*
X55107Y-59014D01*
X55154Y-59033D01*
X55178Y-59052D01*
X55202Y-59090D01*
X55202Y-59128D01*
X55178Y-59166D01*
X55154Y-59185D01*
X55107Y-59204D01*
X55011Y-59223D01*
X54892Y-59223D01*
X54797Y-59204D01*
X54750Y-59185D01*
X54726Y-59166D01*
X54702Y-59128D01*
X38242Y-44202D02*
X38109Y-43964D01*
X38014Y-44202D02*
X38014Y-43702D01*
X38166Y-43702D01*
X38204Y-43726D01*
X38223Y-43750D01*
X38242Y-43797D01*
X38242Y-43869D01*
X38223Y-43916D01*
X38204Y-43940D01*
X38166Y-43964D01*
X38014Y-43964D01*
X38585Y-43869D02*
X38585Y-44202D01*
X38490Y-43678D02*
X38395Y-44035D01*
X38642Y-44035D01*
X38776Y-43750D02*
X38795Y-43726D01*
X38833Y-43702D01*
X38928Y-43702D01*
X38966Y-43726D01*
X38985Y-43750D01*
X39004Y-43797D01*
X39004Y-43845D01*
X38985Y-43916D01*
X38757Y-44202D01*
X39004Y-44202D01*
X35702Y-54757D02*
X35464Y-54890D01*
X35702Y-54985D02*
X35202Y-54985D01*
X35202Y-54833D01*
X35226Y-54795D01*
X35250Y-54776D01*
X35297Y-54757D01*
X35369Y-54757D01*
X35416Y-54776D01*
X35440Y-54795D01*
X35464Y-54833D01*
X35464Y-54985D01*
X35202Y-54414D02*
X35202Y-54490D01*
X35226Y-54528D01*
X35250Y-54547D01*
X35321Y-54585D01*
X35416Y-54604D01*
X35607Y-54604D01*
X35654Y-54585D01*
X35678Y-54566D01*
X35702Y-54528D01*
X35702Y-54452D01*
X35678Y-54414D01*
X35654Y-54395D01*
X35607Y-54376D01*
X35488Y-54376D01*
X35440Y-54395D01*
X35416Y-54414D01*
X35392Y-54452D01*
X35392Y-54528D01*
X35416Y-54566D01*
X35440Y-54585D01*
X35488Y-54604D01*
X35702Y-53995D02*
X35702Y-54223D01*
X35702Y-54109D02*
X35202Y-54109D01*
X35273Y-54147D01*
X35321Y-54185D01*
X35345Y-54223D01*
X57202Y-54257D02*
X56964Y-54390D01*
X57202Y-54485D02*
X56702Y-54485D01*
X56702Y-54333D01*
X56726Y-54295D01*
X56750Y-54276D01*
X56797Y-54257D01*
X56869Y-54257D01*
X56916Y-54276D01*
X56940Y-54295D01*
X56964Y-54333D01*
X56964Y-54485D01*
X56702Y-54123D02*
X56702Y-53876D01*
X56892Y-54009D01*
X56892Y-53952D01*
X56916Y-53914D01*
X56940Y-53895D01*
X56988Y-53876D01*
X57107Y-53876D01*
X57154Y-53895D01*
X57178Y-53914D01*
X57202Y-53952D01*
X57202Y-54066D01*
X57178Y-54104D01*
X57154Y-54123D01*
X56702Y-53514D02*
X56702Y-53704D01*
X56940Y-53723D01*
X56916Y-53704D01*
X56892Y-53666D01*
X56892Y-53571D01*
X56916Y-53533D01*
X56940Y-53514D01*
X56988Y-53495D01*
X57107Y-53495D01*
X57154Y-53514D01*
X57178Y-53533D01*
X57202Y-53571D01*
X57202Y-53666D01*
X57178Y-53704D01*
X57154Y-53723D01*
X41702Y-54757D02*
X41464Y-54890D01*
X41702Y-54985D02*
X41202Y-54985D01*
X41202Y-54833D01*
X41226Y-54795D01*
X41250Y-54776D01*
X41297Y-54757D01*
X41369Y-54757D01*
X41416Y-54776D01*
X41440Y-54795D01*
X41464Y-54833D01*
X41464Y-54985D01*
X41202Y-54395D02*
X41202Y-54585D01*
X41440Y-54604D01*
X41416Y-54585D01*
X41392Y-54547D01*
X41392Y-54452D01*
X41416Y-54414D01*
X41440Y-54395D01*
X41488Y-54376D01*
X41607Y-54376D01*
X41654Y-54395D01*
X41678Y-54414D01*
X41702Y-54452D01*
X41702Y-54547D01*
X41678Y-54585D01*
X41654Y-54604D01*
X41202Y-54242D02*
X41202Y-53976D01*
X41702Y-54147D01*
X52742Y-54202D02*
X52609Y-53964D01*
X52514Y-54202D02*
X52514Y-53702D01*
X52666Y-53702D01*
X52704Y-53726D01*
X52723Y-53750D01*
X52742Y-53797D01*
X52742Y-53869D01*
X52723Y-53916D01*
X52704Y-53940D01*
X52666Y-53964D01*
X52514Y-53964D01*
X52876Y-53702D02*
X53123Y-53702D01*
X52990Y-53892D01*
X53047Y-53892D01*
X53085Y-53916D01*
X53104Y-53940D01*
X53123Y-53988D01*
X53123Y-54107D01*
X53104Y-54154D01*
X53085Y-54178D01*
X53047Y-54202D01*
X52933Y-54202D01*
X52895Y-54178D01*
X52876Y-54154D01*
X53257Y-53702D02*
X53504Y-53702D01*
X53371Y-53892D01*
X53428Y-53892D01*
X53466Y-53916D01*
X53485Y-53940D01*
X53504Y-53988D01*
X53504Y-54107D01*
X53485Y-54154D01*
X53466Y-54178D01*
X53428Y-54202D01*
X53314Y-54202D01*
X53276Y-54178D01*
X53257Y-54154D01*
X53202Y-59757D02*
X52964Y-59890D01*
X53202Y-59985D02*
X52702Y-59985D01*
X52702Y-59833D01*
X52726Y-59795D01*
X52750Y-59776D01*
X52797Y-59757D01*
X52869Y-59757D01*
X52916Y-59776D01*
X52940Y-59795D01*
X52964Y-59833D01*
X52964Y-59985D01*
X52869Y-59414D02*
X53202Y-59414D01*
X52678Y-59509D02*
X53035Y-59604D01*
X53035Y-59357D01*
X53202Y-59185D02*
X53202Y-59109D01*
X53178Y-59071D01*
X53154Y-59052D01*
X53083Y-59014D01*
X52988Y-58995D01*
X52797Y-58995D01*
X52750Y-59014D01*
X52726Y-59033D01*
X52702Y-59071D01*
X52702Y-59147D01*
X52726Y-59185D01*
X52750Y-59204D01*
X52797Y-59223D01*
X52916Y-59223D01*
X52964Y-59204D01*
X52988Y-59185D01*
X53011Y-59147D01*
X53011Y-59071D01*
X52988Y-59033D01*
X52964Y-59014D01*
X52916Y-58995D01*
X38242Y-43202D02*
X38109Y-42964D01*
X38014Y-43202D02*
X38014Y-42702D01*
X38166Y-42702D01*
X38204Y-42726D01*
X38223Y-42750D01*
X38242Y-42797D01*
X38242Y-42869D01*
X38223Y-42916D01*
X38204Y-42940D01*
X38166Y-42964D01*
X38014Y-42964D01*
X38585Y-42869D02*
X38585Y-43202D01*
X38490Y-42678D02*
X38395Y-43035D01*
X38642Y-43035D01*
X39004Y-43202D02*
X38776Y-43202D01*
X38890Y-43202D02*
X38890Y-42702D01*
X38852Y-42773D01*
X38814Y-42821D01*
X38776Y-42845D01*
X38242Y-38202D02*
X38109Y-37964D01*
X38014Y-38202D02*
X38014Y-37702D01*
X38166Y-37702D01*
X38204Y-37726D01*
X38223Y-37750D01*
X38242Y-37797D01*
X38242Y-37869D01*
X38223Y-37916D01*
X38204Y-37940D01*
X38166Y-37964D01*
X38014Y-37964D01*
X38376Y-37702D02*
X38623Y-37702D01*
X38490Y-37892D01*
X38547Y-37892D01*
X38585Y-37916D01*
X38604Y-37940D01*
X38623Y-37988D01*
X38623Y-38107D01*
X38604Y-38154D01*
X38585Y-38178D01*
X38547Y-38202D01*
X38433Y-38202D01*
X38395Y-38178D01*
X38376Y-38154D01*
X38757Y-37702D02*
X39023Y-37702D01*
X38852Y-38202D01*
G54D16*
X73204Y-59161D02*
X73204Y-58761D01*
X73357Y-58761D01*
X73395Y-58780D01*
X73414Y-58800D01*
X73433Y-58838D01*
X73433Y-58895D01*
X73414Y-58933D01*
X73395Y-58952D01*
X73357Y-58971D01*
X73204Y-58971D01*
X73566Y-58761D02*
X73814Y-58761D01*
X73680Y-58914D01*
X73738Y-58914D01*
X73776Y-58933D01*
X73795Y-58952D01*
X73814Y-58990D01*
X73814Y-59085D01*
X73795Y-59123D01*
X73776Y-59142D01*
X73738Y-59161D01*
X73623Y-59161D01*
X73585Y-59142D01*
X73566Y-59123D01*
G54D20*
X67721Y-59064D02*
X67421Y-59064D01*
X67421Y-58992D01*
X67435Y-58950D01*
X67464Y-58921D01*
X67492Y-58907D01*
X67550Y-58892D01*
X67592Y-58892D01*
X67650Y-58907D01*
X67678Y-58921D01*
X67707Y-58950D01*
X67721Y-58992D01*
X67721Y-59064D01*
X67721Y-58607D02*
X67721Y-58778D01*
X67721Y-58692D02*
X67421Y-58692D01*
X67464Y-58721D01*
X67492Y-58750D01*
X67507Y-58778D01*
X67421Y-58507D02*
X67421Y-58307D01*
X67721Y-58435D01*
X65621Y-58192D02*
X65621Y-58335D01*
X65321Y-58335D01*
X65464Y-58092D02*
X65464Y-57992D01*
X65621Y-57950D02*
X65621Y-58092D01*
X65321Y-58092D01*
X65321Y-57950D01*
X65621Y-57821D02*
X65321Y-57821D01*
X65321Y-57750D01*
X65335Y-57707D01*
X65364Y-57678D01*
X65392Y-57664D01*
X65450Y-57650D01*
X65492Y-57650D01*
X65550Y-57664D01*
X65578Y-57678D01*
X65607Y-57707D01*
X65621Y-57750D01*
X65621Y-57821D01*
X65221Y-59064D02*
X64921Y-59064D01*
X64921Y-58992D01*
X64935Y-58950D01*
X64964Y-58921D01*
X64992Y-58907D01*
X65050Y-58892D01*
X65092Y-58892D01*
X65150Y-58907D01*
X65178Y-58921D01*
X65207Y-58950D01*
X65221Y-58992D01*
X65221Y-59064D01*
X65221Y-58607D02*
X65221Y-58778D01*
X65221Y-58692D02*
X64921Y-58692D01*
X64964Y-58721D01*
X64992Y-58750D01*
X65007Y-58778D01*
X65050Y-58435D02*
X65035Y-58464D01*
X65021Y-58478D01*
X64992Y-58492D01*
X64978Y-58492D01*
X64950Y-58478D01*
X64935Y-58464D01*
X64921Y-58435D01*
X64921Y-58378D01*
X64935Y-58350D01*
X64950Y-58335D01*
X64978Y-58321D01*
X64992Y-58321D01*
X65021Y-58335D01*
X65035Y-58350D01*
X65050Y-58378D01*
X65050Y-58435D01*
X65064Y-58464D01*
X65078Y-58478D01*
X65107Y-58492D01*
X65164Y-58492D01*
X65192Y-58478D01*
X65207Y-58464D01*
X65221Y-58435D01*
X65221Y-58378D01*
X65207Y-58350D01*
X65192Y-58335D01*
X65164Y-58321D01*
X65107Y-58321D01*
X65078Y-58335D01*
X65064Y-58350D01*
X65050Y-58378D01*
X63121Y-58192D02*
X63121Y-58335D01*
X62821Y-58335D01*
X62964Y-58092D02*
X62964Y-57992D01*
X63121Y-57950D02*
X63121Y-58092D01*
X62821Y-58092D01*
X62821Y-57950D01*
X63121Y-57821D02*
X62821Y-57821D01*
X62821Y-57750D01*
X62835Y-57707D01*
X62864Y-57678D01*
X62892Y-57664D01*
X62950Y-57650D01*
X62992Y-57650D01*
X63050Y-57664D01*
X63078Y-57678D01*
X63107Y-57707D01*
X63121Y-57750D01*
X63121Y-57821D01*
G54D21*
X65583Y-48842D02*
X66150Y-48842D01*
X66216Y-48821D01*
X66250Y-48800D01*
X66283Y-48757D01*
X66283Y-48671D01*
X66250Y-48628D01*
X66216Y-48607D01*
X66150Y-48585D01*
X65583Y-48585D01*
X65650Y-48392D02*
X65616Y-48371D01*
X65583Y-48328D01*
X65583Y-48221D01*
X65616Y-48178D01*
X65650Y-48157D01*
X65716Y-48135D01*
X65783Y-48135D01*
X65883Y-48157D01*
X66283Y-48414D01*
X66283Y-48135D01*
G54D15*
X68583Y-43199D02*
X68583Y-42733D01*
X69283Y-43199D01*
X69283Y-42733D01*
X68883Y-42366D02*
X68850Y-42433D01*
X68816Y-42466D01*
X68750Y-42499D01*
X68716Y-42499D01*
X68650Y-42466D01*
X68616Y-42433D01*
X68583Y-42366D01*
X68583Y-42233D01*
X68616Y-42166D01*
X68650Y-42133D01*
X68716Y-42099D01*
X68750Y-42099D01*
X68816Y-42133D01*
X68850Y-42166D01*
X68883Y-42233D01*
X68883Y-42366D01*
X68916Y-42433D01*
X68950Y-42466D01*
X69016Y-42499D01*
X69150Y-42499D01*
X69216Y-42466D01*
X69250Y-42433D01*
X69283Y-42366D01*
X69283Y-42233D01*
X69250Y-42166D01*
X69216Y-42133D01*
X69150Y-42099D01*
X69016Y-42099D01*
X68950Y-42133D01*
X68916Y-42166D01*
X68883Y-42233D01*
X68916Y-41566D02*
X68916Y-41800D01*
X69283Y-41800D02*
X68583Y-41800D01*
X68583Y-41466D01*
X68583Y-41066D02*
X68583Y-41000D01*
X68616Y-40933D01*
X68650Y-40900D01*
X68716Y-40866D01*
X68850Y-40833D01*
X69016Y-40833D01*
X69150Y-40866D01*
X69216Y-40900D01*
X69250Y-40933D01*
X69283Y-41000D01*
X69283Y-41066D01*
X69250Y-41133D01*
X69216Y-41166D01*
X69150Y-41200D01*
X69016Y-41233D01*
X68850Y-41233D01*
X68716Y-41200D01*
X68650Y-41166D01*
X68616Y-41133D01*
X68583Y-41066D01*
X68883Y-40433D02*
X68850Y-40500D01*
X68816Y-40533D01*
X68750Y-40566D01*
X68716Y-40566D01*
X68650Y-40533D01*
X68616Y-40500D01*
X68583Y-40433D01*
X68583Y-40300D01*
X68616Y-40233D01*
X68650Y-40200D01*
X68716Y-40166D01*
X68750Y-40166D01*
X68816Y-40200D01*
X68850Y-40233D01*
X68883Y-40300D01*
X68883Y-40433D01*
X68916Y-40500D01*
X68950Y-40533D01*
X69016Y-40566D01*
X69150Y-40566D01*
X69216Y-40533D01*
X69250Y-40500D01*
X69283Y-40433D01*
X69283Y-40300D01*
X69250Y-40233D01*
X69216Y-40200D01*
X69150Y-40166D01*
X69016Y-40166D01*
X68950Y-40200D01*
X68916Y-40233D01*
X68883Y-40300D01*
X68650Y-39900D02*
X68616Y-39866D01*
X68583Y-39800D01*
X68583Y-39633D01*
X68616Y-39566D01*
X68650Y-39533D01*
X68716Y-39500D01*
X68783Y-39500D01*
X68883Y-39533D01*
X69283Y-39933D01*
X69283Y-39500D01*
X68650Y-39233D02*
X68616Y-39200D01*
X68583Y-39133D01*
X68583Y-38966D01*
X68616Y-38900D01*
X68650Y-38866D01*
X68716Y-38833D01*
X68783Y-38833D01*
X68883Y-38866D01*
X69283Y-39266D01*
X69283Y-38833D01*
G54D21*
X68142Y-31842D02*
X68628Y-31842D01*
X68685Y-31821D01*
X68714Y-31800D01*
X68742Y-31757D01*
X68742Y-31671D01*
X68714Y-31628D01*
X68685Y-31607D01*
X68628Y-31585D01*
X68142Y-31585D01*
X68142Y-31414D02*
X68142Y-31135D01*
X68371Y-31285D01*
X68371Y-31221D01*
X68400Y-31178D01*
X68428Y-31157D01*
X68485Y-31135D01*
X68628Y-31135D01*
X68685Y-31157D01*
X68714Y-31178D01*
X68742Y-31221D01*
X68742Y-31350D01*
X68714Y-31392D01*
X68685Y-31414D01*
G54D15*
G54D21*
X69142Y-29403D02*
X69142Y-29103D01*
X69742Y-29296D01*
X69342Y-28739D02*
X69742Y-28739D01*
X69114Y-28846D02*
X69542Y-28953D01*
X69542Y-28674D01*
X69742Y-28289D02*
X69742Y-28503D01*
X69142Y-28503D01*
X69714Y-28160D02*
X69742Y-28096D01*
X69742Y-27989D01*
X69714Y-27946D01*
X69685Y-27924D01*
X69628Y-27903D01*
X69571Y-27903D01*
X69514Y-27924D01*
X69485Y-27946D01*
X69457Y-27989D01*
X69428Y-28074D01*
X69400Y-28117D01*
X69371Y-28139D01*
X69314Y-28160D01*
X69257Y-28160D01*
X69200Y-28139D01*
X69171Y-28117D01*
X69142Y-28074D01*
X69142Y-27967D01*
X69171Y-27903D01*
X69742Y-27475D02*
X69742Y-27732D01*
X69742Y-27603D02*
X69142Y-27603D01*
X69228Y-27646D01*
X69285Y-27689D01*
X69314Y-27732D01*
X69142Y-27325D02*
X69142Y-27046D01*
X69371Y-27196D01*
X69371Y-27132D01*
X69400Y-27089D01*
X69428Y-27067D01*
X69485Y-27046D01*
X69628Y-27046D01*
X69685Y-27067D01*
X69714Y-27089D01*
X69742Y-27132D01*
X69742Y-27260D01*
X69714Y-27303D01*
X69685Y-27325D01*
X69400Y-26789D02*
X69371Y-26832D01*
X69342Y-26853D01*
X69285Y-26875D01*
X69257Y-26875D01*
X69200Y-26853D01*
X69171Y-26832D01*
X69142Y-26789D01*
X69142Y-26703D01*
X69171Y-26660D01*
X69200Y-26639D01*
X69257Y-26617D01*
X69285Y-26617D01*
X69342Y-26639D01*
X69371Y-26660D01*
X69400Y-26703D01*
X69400Y-26789D01*
X69428Y-26832D01*
X69457Y-26853D01*
X69514Y-26875D01*
X69628Y-26875D01*
X69685Y-26853D01*
X69714Y-26832D01*
X69742Y-26789D01*
X69742Y-26703D01*
X69714Y-26660D01*
X69685Y-26639D01*
X69628Y-26617D01*
X69514Y-26617D01*
X69457Y-26639D01*
X69428Y-26660D01*
X69400Y-26703D01*
G54D15*
G54D21*
X47657Y-42142D02*
X47657Y-42628D01*
X47678Y-42685D01*
X47700Y-42714D01*
X47742Y-42742D01*
X47828Y-42742D01*
X47871Y-42714D01*
X47892Y-42685D01*
X47914Y-42628D01*
X47914Y-42142D01*
X48321Y-42342D02*
X48321Y-42742D01*
X48214Y-42114D02*
X48107Y-42542D01*
X48385Y-42542D01*
G54D15*
G54D21*
X44739Y-41742D02*
X44525Y-41742D01*
X44525Y-41142D01*
X44889Y-41742D02*
X44889Y-41142D01*
X45039Y-41571D01*
X45189Y-41142D01*
X45189Y-41742D01*
X45360Y-41142D02*
X45639Y-41142D01*
X45489Y-41371D01*
X45553Y-41371D01*
X45596Y-41400D01*
X45617Y-41428D01*
X45639Y-41485D01*
X45639Y-41628D01*
X45617Y-41685D01*
X45596Y-41714D01*
X45553Y-41742D01*
X45425Y-41742D01*
X45382Y-41714D01*
X45360Y-41685D01*
X45789Y-41142D02*
X46067Y-41142D01*
X45917Y-41371D01*
X45982Y-41371D01*
X46025Y-41400D01*
X46046Y-41428D01*
X46067Y-41485D01*
X46067Y-41628D01*
X46046Y-41685D01*
X46025Y-41714D01*
X45982Y-41742D01*
X45853Y-41742D01*
X45810Y-41714D01*
X45789Y-41685D01*
X46282Y-41742D02*
X46367Y-41742D01*
X46410Y-41714D01*
X46432Y-41685D01*
X46475Y-41600D01*
X46496Y-41485D01*
X46496Y-41257D01*
X46475Y-41200D01*
X46453Y-41171D01*
X46410Y-41142D01*
X46325Y-41142D01*
X46282Y-41171D01*
X46260Y-41200D01*
X46239Y-41257D01*
X46239Y-41400D01*
X46260Y-41457D01*
X46282Y-41485D01*
X46325Y-41514D01*
X46410Y-41514D01*
X46453Y-41485D01*
X46475Y-41457D01*
X46496Y-41400D01*
G54D15*
G54D21*
X47657Y-48642D02*
X47657Y-49128D01*
X47678Y-49185D01*
X47700Y-49214D01*
X47742Y-49242D01*
X47828Y-49242D01*
X47871Y-49214D01*
X47892Y-49185D01*
X47914Y-49128D01*
X47914Y-48642D01*
X48342Y-48642D02*
X48128Y-48642D01*
X48107Y-48928D01*
X48128Y-48900D01*
X48171Y-48871D01*
X48278Y-48871D01*
X48321Y-48900D01*
X48342Y-48928D01*
X48364Y-48985D01*
X48364Y-49128D01*
X48342Y-49185D01*
X48321Y-49214D01*
X48278Y-49242D01*
X48171Y-49242D01*
X48128Y-49214D01*
X48107Y-49185D01*
G54D15*
G54D21*
X44739Y-48242D02*
X44525Y-48242D01*
X44525Y-47642D01*
X44889Y-48242D02*
X44889Y-47642D01*
X45039Y-48071D01*
X45189Y-47642D01*
X45189Y-48242D01*
X45360Y-47642D02*
X45639Y-47642D01*
X45489Y-47871D01*
X45553Y-47871D01*
X45596Y-47900D01*
X45617Y-47928D01*
X45639Y-47985D01*
X45639Y-48128D01*
X45617Y-48185D01*
X45596Y-48214D01*
X45553Y-48242D01*
X45425Y-48242D01*
X45382Y-48214D01*
X45360Y-48185D01*
X45789Y-47642D02*
X46067Y-47642D01*
X45917Y-47871D01*
X45982Y-47871D01*
X46025Y-47900D01*
X46046Y-47928D01*
X46067Y-47985D01*
X46067Y-48128D01*
X46046Y-48185D01*
X46025Y-48214D01*
X45982Y-48242D01*
X45853Y-48242D01*
X45810Y-48214D01*
X45789Y-48185D01*
X46282Y-48242D02*
X46367Y-48242D01*
X46410Y-48214D01*
X46432Y-48185D01*
X46475Y-48100D01*
X46496Y-47985D01*
X46496Y-47757D01*
X46475Y-47700D01*
X46453Y-47671D01*
X46410Y-47642D01*
X46325Y-47642D01*
X46282Y-47671D01*
X46260Y-47700D01*
X46239Y-47757D01*
X46239Y-47900D01*
X46260Y-47957D01*
X46282Y-47985D01*
X46325Y-48014D01*
X46410Y-48014D01*
X46453Y-47985D01*
X46475Y-47957D01*
X46496Y-47900D01*
G54D15*
G54D16*
X52661Y-21795D02*
X52261Y-21795D01*
X52261Y-21699D01*
X52280Y-21642D01*
X52319Y-21604D01*
X52357Y-21585D01*
X52433Y-21566D01*
X52490Y-21566D01*
X52566Y-21585D01*
X52604Y-21604D01*
X52642Y-21642D01*
X52661Y-21699D01*
X52661Y-21795D01*
X52261Y-21433D02*
X52261Y-21185D01*
X52414Y-21319D01*
X52414Y-21261D01*
X52433Y-21223D01*
X52452Y-21204D01*
X52490Y-21185D01*
X52585Y-21185D01*
X52623Y-21204D01*
X52642Y-21223D01*
X52661Y-21261D01*
X52661Y-21376D01*
X52642Y-21414D01*
X52623Y-21433D01*
X54661Y-21795D02*
X54261Y-21795D01*
X54261Y-21699D01*
X54280Y-21642D01*
X54319Y-21604D01*
X54357Y-21585D01*
X54433Y-21566D01*
X54490Y-21566D01*
X54566Y-21585D01*
X54604Y-21604D01*
X54642Y-21642D01*
X54661Y-21699D01*
X54661Y-21795D01*
X54261Y-21204D02*
X54261Y-21395D01*
X54452Y-21414D01*
X54433Y-21395D01*
X54414Y-21357D01*
X54414Y-21261D01*
X54433Y-21223D01*
X54452Y-21204D01*
X54490Y-21185D01*
X54585Y-21185D01*
X54623Y-21204D01*
X54642Y-21223D01*
X54661Y-21261D01*
X54661Y-21357D01*
X54642Y-21395D01*
X54623Y-21414D01*
X56661Y-21795D02*
X56261Y-21795D01*
X56261Y-21699D01*
X56280Y-21642D01*
X56319Y-21604D01*
X56357Y-21585D01*
X56433Y-21566D01*
X56490Y-21566D01*
X56566Y-21585D01*
X56604Y-21604D01*
X56642Y-21642D01*
X56661Y-21699D01*
X56661Y-21795D01*
X56261Y-21433D02*
X56261Y-21166D01*
X56661Y-21338D01*
X58661Y-21795D02*
X58261Y-21795D01*
X58261Y-21699D01*
X58280Y-21642D01*
X58319Y-21604D01*
X58357Y-21585D01*
X58433Y-21566D01*
X58490Y-21566D01*
X58566Y-21585D01*
X58604Y-21604D01*
X58642Y-21642D01*
X58661Y-21699D01*
X58661Y-21795D01*
X58661Y-21376D02*
X58661Y-21299D01*
X58642Y-21261D01*
X58623Y-21242D01*
X58566Y-21204D01*
X58490Y-21185D01*
X58338Y-21185D01*
X58300Y-21204D01*
X58280Y-21223D01*
X58261Y-21261D01*
X58261Y-21338D01*
X58280Y-21376D01*
X58300Y-21395D01*
X58338Y-21414D01*
X58433Y-21414D01*
X58471Y-21395D01*
X58490Y-21376D01*
X58509Y-21338D01*
X58509Y-21261D01*
X58490Y-21223D01*
X58471Y-21204D01*
X58433Y-21185D01*
X60661Y-21985D02*
X60261Y-21985D01*
X60261Y-21890D01*
X60280Y-21833D01*
X60319Y-21795D01*
X60357Y-21776D01*
X60433Y-21757D01*
X60490Y-21757D01*
X60566Y-21776D01*
X60604Y-21795D01*
X60642Y-21833D01*
X60661Y-21890D01*
X60661Y-21985D01*
X60661Y-21376D02*
X60661Y-21604D01*
X60661Y-21490D02*
X60261Y-21490D01*
X60319Y-21528D01*
X60357Y-21566D01*
X60376Y-21604D01*
X60661Y-20995D02*
X60661Y-21223D01*
X60661Y-21109D02*
X60261Y-21109D01*
X60319Y-21147D01*
X60357Y-21185D01*
X60376Y-21223D01*
X62661Y-21985D02*
X62261Y-21985D01*
X62261Y-21890D01*
X62280Y-21833D01*
X62319Y-21795D01*
X62357Y-21776D01*
X62433Y-21757D01*
X62490Y-21757D01*
X62566Y-21776D01*
X62604Y-21795D01*
X62642Y-21833D01*
X62661Y-21890D01*
X62661Y-21985D01*
X62661Y-21376D02*
X62661Y-21604D01*
X62661Y-21490D02*
X62261Y-21490D01*
X62319Y-21528D01*
X62357Y-21566D01*
X62376Y-21604D01*
X62261Y-21242D02*
X62261Y-20995D01*
X62414Y-21128D01*
X62414Y-21071D01*
X62433Y-21033D01*
X62452Y-21014D01*
X62490Y-20995D01*
X62585Y-20995D01*
X62623Y-21014D01*
X62642Y-21033D01*
X62661Y-21071D01*
X62661Y-21185D01*
X62642Y-21223D01*
X62623Y-21242D01*
X50661Y-21795D02*
X50261Y-21795D01*
X50261Y-21699D01*
X50280Y-21642D01*
X50319Y-21604D01*
X50357Y-21585D01*
X50433Y-21566D01*
X50490Y-21566D01*
X50566Y-21585D01*
X50604Y-21604D01*
X50642Y-21642D01*
X50661Y-21699D01*
X50661Y-21795D01*
X50661Y-21185D02*
X50661Y-21414D01*
X50661Y-21299D02*
X50261Y-21299D01*
X50319Y-21338D01*
X50357Y-21376D01*
X50376Y-21414D01*
X64661Y-21985D02*
X64261Y-21985D01*
X64261Y-21890D01*
X64280Y-21833D01*
X64319Y-21795D01*
X64357Y-21776D01*
X64433Y-21757D01*
X64490Y-21757D01*
X64566Y-21776D01*
X64604Y-21795D01*
X64642Y-21833D01*
X64661Y-21890D01*
X64661Y-21985D01*
X64661Y-21376D02*
X64661Y-21604D01*
X64661Y-21490D02*
X64261Y-21490D01*
X64319Y-21528D01*
X64357Y-21566D01*
X64376Y-21604D01*
X64261Y-21014D02*
X64261Y-21204D01*
X64452Y-21223D01*
X64433Y-21204D01*
X64414Y-21166D01*
X64414Y-21071D01*
X64433Y-21033D01*
X64452Y-21014D01*
X64490Y-20995D01*
X64585Y-20995D01*
X64623Y-21014D01*
X64642Y-21033D01*
X64661Y-21071D01*
X64661Y-21166D01*
X64642Y-21204D01*
X64623Y-21223D01*
X64661Y-26985D02*
X64261Y-26985D01*
X64261Y-26890D01*
X64280Y-26833D01*
X64319Y-26795D01*
X64357Y-26776D01*
X64433Y-26757D01*
X64490Y-26757D01*
X64566Y-26776D01*
X64604Y-26795D01*
X64642Y-26833D01*
X64661Y-26890D01*
X64661Y-26985D01*
X64661Y-26376D02*
X64661Y-26604D01*
X64661Y-26490D02*
X64261Y-26490D01*
X64319Y-26528D01*
X64357Y-26566D01*
X64376Y-26604D01*
X64261Y-26033D02*
X64261Y-26109D01*
X64280Y-26147D01*
X64300Y-26166D01*
X64357Y-26204D01*
X64433Y-26223D01*
X64585Y-26223D01*
X64623Y-26204D01*
X64642Y-26185D01*
X64661Y-26147D01*
X64661Y-26071D01*
X64642Y-26033D01*
X64623Y-26014D01*
X64585Y-25995D01*
X64490Y-25995D01*
X64452Y-26014D01*
X64433Y-26033D01*
X64414Y-26071D01*
X64414Y-26147D01*
X64433Y-26185D01*
X64452Y-26204D01*
X64490Y-26223D01*
X50661Y-26795D02*
X50261Y-26795D01*
X50261Y-26699D01*
X50280Y-26642D01*
X50319Y-26604D01*
X50357Y-26585D01*
X50433Y-26566D01*
X50490Y-26566D01*
X50566Y-26585D01*
X50604Y-26604D01*
X50642Y-26642D01*
X50661Y-26699D01*
X50661Y-26795D01*
X50300Y-26414D02*
X50280Y-26395D01*
X50261Y-26357D01*
X50261Y-26261D01*
X50280Y-26223D01*
X50300Y-26204D01*
X50338Y-26185D01*
X50376Y-26185D01*
X50433Y-26204D01*
X50661Y-26433D01*
X50661Y-26185D01*
X52661Y-26795D02*
X52261Y-26795D01*
X52261Y-26699D01*
X52280Y-26642D01*
X52319Y-26604D01*
X52357Y-26585D01*
X52433Y-26566D01*
X52490Y-26566D01*
X52566Y-26585D01*
X52604Y-26604D01*
X52642Y-26642D01*
X52661Y-26699D01*
X52661Y-26795D01*
X52395Y-26223D02*
X52661Y-26223D01*
X52242Y-26319D02*
X52528Y-26414D01*
X52528Y-26166D01*
X54661Y-26795D02*
X54261Y-26795D01*
X54261Y-26699D01*
X54280Y-26642D01*
X54319Y-26604D01*
X54357Y-26585D01*
X54433Y-26566D01*
X54490Y-26566D01*
X54566Y-26585D01*
X54604Y-26604D01*
X54642Y-26642D01*
X54661Y-26699D01*
X54661Y-26795D01*
X54261Y-26223D02*
X54261Y-26299D01*
X54280Y-26338D01*
X54300Y-26357D01*
X54357Y-26395D01*
X54433Y-26414D01*
X54585Y-26414D01*
X54623Y-26395D01*
X54642Y-26376D01*
X54661Y-26338D01*
X54661Y-26261D01*
X54642Y-26223D01*
X54623Y-26204D01*
X54585Y-26185D01*
X54490Y-26185D01*
X54452Y-26204D01*
X54433Y-26223D01*
X54414Y-26261D01*
X54414Y-26338D01*
X54433Y-26376D01*
X54452Y-26395D01*
X54490Y-26414D01*
X56661Y-26795D02*
X56261Y-26795D01*
X56261Y-26699D01*
X56280Y-26642D01*
X56319Y-26604D01*
X56357Y-26585D01*
X56433Y-26566D01*
X56490Y-26566D01*
X56566Y-26585D01*
X56604Y-26604D01*
X56642Y-26642D01*
X56661Y-26699D01*
X56661Y-26795D01*
X56433Y-26338D02*
X56414Y-26376D01*
X56395Y-26395D01*
X56357Y-26414D01*
X56338Y-26414D01*
X56300Y-26395D01*
X56280Y-26376D01*
X56261Y-26338D01*
X56261Y-26261D01*
X56280Y-26223D01*
X56300Y-26204D01*
X56338Y-26185D01*
X56357Y-26185D01*
X56395Y-26204D01*
X56414Y-26223D01*
X56433Y-26261D01*
X56433Y-26338D01*
X56452Y-26376D01*
X56471Y-26395D01*
X56509Y-26414D01*
X56585Y-26414D01*
X56623Y-26395D01*
X56642Y-26376D01*
X56661Y-26338D01*
X56661Y-26261D01*
X56642Y-26223D01*
X56623Y-26204D01*
X56585Y-26185D01*
X56509Y-26185D01*
X56471Y-26204D01*
X56452Y-26223D01*
X56433Y-26261D01*
X58661Y-26985D02*
X58261Y-26985D01*
X58261Y-26890D01*
X58280Y-26833D01*
X58319Y-26795D01*
X58357Y-26776D01*
X58433Y-26757D01*
X58490Y-26757D01*
X58566Y-26776D01*
X58604Y-26795D01*
X58642Y-26833D01*
X58661Y-26890D01*
X58661Y-26985D01*
X58661Y-26376D02*
X58661Y-26604D01*
X58661Y-26490D02*
X58261Y-26490D01*
X58319Y-26528D01*
X58357Y-26566D01*
X58376Y-26604D01*
X58261Y-26128D02*
X58261Y-26090D01*
X58280Y-26052D01*
X58300Y-26033D01*
X58338Y-26014D01*
X58414Y-25995D01*
X58509Y-25995D01*
X58585Y-26014D01*
X58623Y-26033D01*
X58642Y-26052D01*
X58661Y-26090D01*
X58661Y-26128D01*
X58642Y-26166D01*
X58623Y-26185D01*
X58585Y-26204D01*
X58509Y-26223D01*
X58414Y-26223D01*
X58338Y-26204D01*
X58300Y-26185D01*
X58280Y-26166D01*
X58261Y-26128D01*
X60661Y-26985D02*
X60261Y-26985D01*
X60261Y-26890D01*
X60280Y-26833D01*
X60319Y-26795D01*
X60357Y-26776D01*
X60433Y-26757D01*
X60490Y-26757D01*
X60566Y-26776D01*
X60604Y-26795D01*
X60642Y-26833D01*
X60661Y-26890D01*
X60661Y-26985D01*
X60661Y-26376D02*
X60661Y-26604D01*
X60661Y-26490D02*
X60261Y-26490D01*
X60319Y-26528D01*
X60357Y-26566D01*
X60376Y-26604D01*
X60300Y-26223D02*
X60280Y-26204D01*
X60261Y-26166D01*
X60261Y-26071D01*
X60280Y-26033D01*
X60300Y-26014D01*
X60338Y-25995D01*
X60376Y-25995D01*
X60433Y-26014D01*
X60661Y-26242D01*
X60661Y-25995D01*
X62661Y-26985D02*
X62261Y-26985D01*
X62261Y-26890D01*
X62280Y-26833D01*
X62319Y-26795D01*
X62357Y-26776D01*
X62433Y-26757D01*
X62490Y-26757D01*
X62566Y-26776D01*
X62604Y-26795D01*
X62642Y-26833D01*
X62661Y-26890D01*
X62661Y-26985D01*
X62661Y-26376D02*
X62661Y-26604D01*
X62661Y-26490D02*
X62261Y-26490D01*
X62319Y-26528D01*
X62357Y-26566D01*
X62376Y-26604D01*
X62395Y-26033D02*
X62661Y-26033D01*
X62242Y-26128D02*
X62528Y-26223D01*
X62528Y-25976D01*
X75033Y-49223D02*
X75014Y-49242D01*
X74957Y-49261D01*
X74919Y-49261D01*
X74861Y-49242D01*
X74823Y-49204D01*
X74804Y-49166D01*
X74785Y-49090D01*
X74785Y-49033D01*
X74804Y-48957D01*
X74823Y-48919D01*
X74861Y-48880D01*
X74919Y-48861D01*
X74957Y-48861D01*
X75014Y-48880D01*
X75033Y-48900D01*
X75395Y-48861D02*
X75204Y-48861D01*
X75185Y-49052D01*
X75204Y-49033D01*
X75242Y-49014D01*
X75338Y-49014D01*
X75376Y-49033D01*
X75395Y-49052D01*
X75414Y-49090D01*
X75414Y-49185D01*
X75395Y-49223D01*
X75376Y-49242D01*
X75338Y-49261D01*
X75242Y-49261D01*
X75204Y-49242D01*
X75185Y-49223D01*
X60223Y-59966D02*
X60242Y-59985D01*
X60261Y-60042D01*
X60261Y-60080D01*
X60242Y-60138D01*
X60204Y-60176D01*
X60166Y-60195D01*
X60090Y-60214D01*
X60033Y-60214D01*
X59957Y-60195D01*
X59919Y-60176D01*
X59880Y-60138D01*
X59861Y-60080D01*
X59861Y-60042D01*
X59880Y-59985D01*
X59900Y-59966D01*
X59861Y-59623D02*
X59861Y-59699D01*
X59880Y-59738D01*
X59900Y-59757D01*
X59957Y-59795D01*
X60033Y-59814D01*
X60185Y-59814D01*
X60223Y-59795D01*
X60242Y-59776D01*
X60261Y-59738D01*
X60261Y-59661D01*
X60242Y-59623D01*
X60223Y-59604D01*
X60185Y-59585D01*
X60090Y-59585D01*
X60052Y-59604D01*
X60033Y-59623D01*
X60014Y-59661D01*
X60014Y-59738D01*
X60033Y-59776D01*
X60052Y-59795D01*
X60090Y-59814D01*
X71033Y-22223D02*
X71014Y-22242D01*
X70957Y-22261D01*
X70919Y-22261D01*
X70861Y-22242D01*
X70823Y-22204D01*
X70804Y-22166D01*
X70785Y-22090D01*
X70785Y-22033D01*
X70804Y-21957D01*
X70823Y-21919D01*
X70861Y-21880D01*
X70919Y-21861D01*
X70957Y-21861D01*
X71014Y-21880D01*
X71033Y-21900D01*
X71376Y-21995D02*
X71376Y-22261D01*
X71280Y-21842D02*
X71185Y-22128D01*
X71433Y-22128D01*
X71033Y-19723D02*
X71014Y-19742D01*
X70957Y-19761D01*
X70919Y-19761D01*
X70861Y-19742D01*
X70823Y-19704D01*
X70804Y-19666D01*
X70785Y-19590D01*
X70785Y-19533D01*
X70804Y-19457D01*
X70823Y-19419D01*
X70861Y-19380D01*
X70919Y-19361D01*
X70957Y-19361D01*
X71014Y-19380D01*
X71033Y-19400D01*
X71185Y-19400D02*
X71204Y-19380D01*
X71242Y-19361D01*
X71338Y-19361D01*
X71376Y-19380D01*
X71395Y-19400D01*
X71414Y-19438D01*
X71414Y-19476D01*
X71395Y-19533D01*
X71166Y-19761D01*
X71414Y-19761D01*
X76033Y-45723D02*
X76014Y-45742D01*
X75957Y-45761D01*
X75919Y-45761D01*
X75861Y-45742D01*
X75823Y-45704D01*
X75804Y-45666D01*
X75785Y-45590D01*
X75785Y-45533D01*
X75804Y-45457D01*
X75823Y-45419D01*
X75861Y-45380D01*
X75919Y-45361D01*
X75957Y-45361D01*
X76014Y-45380D01*
X76033Y-45400D01*
X76166Y-45361D02*
X76414Y-45361D01*
X76280Y-45514D01*
X76338Y-45514D01*
X76376Y-45533D01*
X76395Y-45552D01*
X76414Y-45590D01*
X76414Y-45685D01*
X76395Y-45723D01*
X76376Y-45742D01*
X76338Y-45761D01*
X76223Y-45761D01*
X76185Y-45742D01*
X76166Y-45723D01*
X76033Y-42723D02*
X76014Y-42742D01*
X75957Y-42761D01*
X75919Y-42761D01*
X75861Y-42742D01*
X75823Y-42704D01*
X75804Y-42666D01*
X75785Y-42590D01*
X75785Y-42533D01*
X75804Y-42457D01*
X75823Y-42419D01*
X75861Y-42380D01*
X75919Y-42361D01*
X75957Y-42361D01*
X76014Y-42380D01*
X76033Y-42400D01*
X76414Y-42761D02*
X76185Y-42761D01*
X76300Y-42761D02*
X76300Y-42361D01*
X76261Y-42419D01*
X76223Y-42457D01*
X76185Y-42476D01*
G54D19*
X40434Y-19275D02*
X40434Y-18594D01*
X40597Y-18594D01*
X40637Y-18627D01*
X40658Y-18659D01*
X40678Y-18724D01*
X40678Y-18821D01*
X40658Y-18886D01*
X40637Y-18918D01*
X40597Y-18951D01*
X40434Y-18951D01*
X41065Y-18594D02*
X40862Y-18594D01*
X40841Y-18918D01*
X40862Y-18886D01*
X40902Y-18854D01*
X41004Y-18854D01*
X41045Y-18886D01*
X41065Y-18918D01*
X41086Y-18983D01*
X41086Y-19145D01*
X41065Y-19210D01*
X41045Y-19243D01*
X41004Y-19275D01*
X40902Y-19275D01*
X40862Y-19243D01*
X40841Y-19210D01*
G54D15*
G54D17*
X35209Y-20442D02*
X35266Y-20461D01*
X35361Y-20461D01*
X35400Y-20442D01*
X35419Y-20423D01*
X35438Y-20385D01*
X35438Y-20347D01*
X35419Y-20309D01*
X35400Y-20290D01*
X35361Y-20271D01*
X35285Y-20252D01*
X35247Y-20233D01*
X35228Y-20214D01*
X35209Y-20176D01*
X35209Y-20138D01*
X35228Y-20100D01*
X35247Y-20080D01*
X35285Y-20061D01*
X35380Y-20061D01*
X35438Y-20080D01*
X35780Y-20442D02*
X35742Y-20461D01*
X35666Y-20461D01*
X35628Y-20442D01*
X35609Y-20423D01*
X35590Y-20385D01*
X35590Y-20271D01*
X35609Y-20233D01*
X35628Y-20214D01*
X35666Y-20195D01*
X35742Y-20195D01*
X35780Y-20214D01*
X35952Y-20461D02*
X35952Y-20195D01*
X35952Y-20271D02*
X35971Y-20233D01*
X35990Y-20214D01*
X36028Y-20195D01*
X36066Y-20195D01*
X36352Y-20442D02*
X36314Y-20461D01*
X36238Y-20461D01*
X36200Y-20442D01*
X36180Y-20404D01*
X36180Y-20252D01*
X36200Y-20214D01*
X36238Y-20195D01*
X36314Y-20195D01*
X36352Y-20214D01*
X36371Y-20252D01*
X36371Y-20290D01*
X36180Y-20328D01*
X36504Y-20195D02*
X36580Y-20461D01*
X36657Y-20271D01*
X36733Y-20461D01*
X36809Y-20195D01*
X74209Y-20442D02*
X74266Y-20461D01*
X74361Y-20461D01*
X74400Y-20442D01*
X74419Y-20423D01*
X74438Y-20385D01*
X74438Y-20347D01*
X74419Y-20309D01*
X74400Y-20290D01*
X74361Y-20271D01*
X74285Y-20252D01*
X74247Y-20233D01*
X74228Y-20214D01*
X74209Y-20176D01*
X74209Y-20138D01*
X74228Y-20100D01*
X74247Y-20080D01*
X74285Y-20061D01*
X74380Y-20061D01*
X74438Y-20080D01*
X74780Y-20442D02*
X74742Y-20461D01*
X74666Y-20461D01*
X74628Y-20442D01*
X74609Y-20423D01*
X74590Y-20385D01*
X74590Y-20271D01*
X74609Y-20233D01*
X74628Y-20214D01*
X74666Y-20195D01*
X74742Y-20195D01*
X74780Y-20214D01*
X74952Y-20461D02*
X74952Y-20195D01*
X74952Y-20271D02*
X74971Y-20233D01*
X74990Y-20214D01*
X75028Y-20195D01*
X75066Y-20195D01*
X75352Y-20442D02*
X75314Y-20461D01*
X75238Y-20461D01*
X75200Y-20442D01*
X75180Y-20404D01*
X75180Y-20252D01*
X75200Y-20214D01*
X75238Y-20195D01*
X75314Y-20195D01*
X75352Y-20214D01*
X75371Y-20252D01*
X75371Y-20290D01*
X75180Y-20328D01*
X75504Y-20195D02*
X75580Y-20461D01*
X75657Y-20271D01*
X75733Y-20461D01*
X75809Y-20195D01*
X42709Y-59442D02*
X42766Y-59461D01*
X42861Y-59461D01*
X42900Y-59442D01*
X42919Y-59423D01*
X42938Y-59385D01*
X42938Y-59347D01*
X42919Y-59309D01*
X42900Y-59290D01*
X42861Y-59271D01*
X42785Y-59252D01*
X42747Y-59233D01*
X42728Y-59214D01*
X42709Y-59176D01*
X42709Y-59138D01*
X42728Y-59100D01*
X42747Y-59080D01*
X42785Y-59061D01*
X42880Y-59061D01*
X42938Y-59080D01*
X43280Y-59442D02*
X43242Y-59461D01*
X43166Y-59461D01*
X43128Y-59442D01*
X43109Y-59423D01*
X43090Y-59385D01*
X43090Y-59271D01*
X43109Y-59233D01*
X43128Y-59214D01*
X43166Y-59195D01*
X43242Y-59195D01*
X43280Y-59214D01*
X43452Y-59461D02*
X43452Y-59195D01*
X43452Y-59271D02*
X43471Y-59233D01*
X43490Y-59214D01*
X43528Y-59195D01*
X43566Y-59195D01*
X43852Y-59442D02*
X43814Y-59461D01*
X43738Y-59461D01*
X43700Y-59442D01*
X43680Y-59404D01*
X43680Y-59252D01*
X43700Y-59214D01*
X43738Y-59195D01*
X43814Y-59195D01*
X43852Y-59214D01*
X43871Y-59252D01*
X43871Y-59290D01*
X43680Y-59328D01*
X44004Y-59195D02*
X44080Y-59461D01*
X44157Y-59271D01*
X44233Y-59461D01*
X44309Y-59195D01*
X68209Y-59442D02*
X68266Y-59461D01*
X68361Y-59461D01*
X68400Y-59442D01*
X68419Y-59423D01*
X68438Y-59385D01*
X68438Y-59347D01*
X68419Y-59309D01*
X68400Y-59290D01*
X68361Y-59271D01*
X68285Y-59252D01*
X68247Y-59233D01*
X68228Y-59214D01*
X68209Y-59176D01*
X68209Y-59138D01*
X68228Y-59100D01*
X68247Y-59080D01*
X68285Y-59061D01*
X68380Y-59061D01*
X68438Y-59080D01*
X68780Y-59442D02*
X68742Y-59461D01*
X68666Y-59461D01*
X68628Y-59442D01*
X68609Y-59423D01*
X68590Y-59385D01*
X68590Y-59271D01*
X68609Y-59233D01*
X68628Y-59214D01*
X68666Y-59195D01*
X68742Y-59195D01*
X68780Y-59214D01*
X68952Y-59461D02*
X68952Y-59195D01*
X68952Y-59271D02*
X68971Y-59233D01*
X68990Y-59214D01*
X69028Y-59195D01*
X69066Y-59195D01*
X69352Y-59442D02*
X69314Y-59461D01*
X69238Y-59461D01*
X69200Y-59442D01*
X69180Y-59404D01*
X69180Y-59252D01*
X69200Y-59214D01*
X69238Y-59195D01*
X69314Y-59195D01*
X69352Y-59214D01*
X69371Y-59252D01*
X69371Y-59290D01*
X69180Y-59328D01*
X69504Y-59195D02*
X69580Y-59461D01*
X69657Y-59271D01*
X69733Y-59461D01*
X69809Y-59195D01*
M02*
