G04 #@! TF.FileFunction,Soldermask,Top*
%FSLAX46Y46*%
G04 Gerber Fmt 4.6, Leading zero omitted, Abs format (unit mm)*
G04 Created by KiCad (PCBNEW 4.0.2-4+6225~38~ubuntu15.10.1-stable) date Wed 08 Jun 2016 11:21:06 PM EDT*
%MOMM*%
G01*
G04 APERTURE LIST*
%ADD10C,0.100000*%
%ADD11R,3.000000X2.400000*%
%ADD12O,3.000000X2.400000*%
%ADD13R,2.127200X2.127200*%
%ADD14O,2.127200X2.127200*%
%ADD15R,2.400000X3.000000*%
%ADD16O,2.400000X3.000000*%
%ADD17R,2.200860X1.200100*%
%ADD18C,2.398980*%
%ADD19C,1.400760*%
%ADD20R,1.700000X1.700000*%
%ADD21C,1.700000*%
%ADD22C,4.464000*%
G04 APERTURE END LIST*
D10*
D11*
X163068000Y-95504000D03*
D12*
X163068000Y-92964000D03*
X163068000Y-90424000D03*
X163068000Y-87884000D03*
X163068000Y-85344000D03*
X163068000Y-82804000D03*
D11*
X150876000Y-95504000D03*
D12*
X150876000Y-92964000D03*
X150876000Y-90424000D03*
X150876000Y-87884000D03*
X150876000Y-85344000D03*
X150876000Y-82804000D03*
D11*
X163068000Y-138176000D03*
D12*
X163068000Y-135636000D03*
X163068000Y-133096000D03*
X163068000Y-130556000D03*
X163068000Y-128016000D03*
D11*
X150876000Y-138176000D03*
D12*
X150876000Y-135636000D03*
X150876000Y-133096000D03*
X150876000Y-130556000D03*
X150876000Y-128016000D03*
D11*
X174752000Y-138176000D03*
D12*
X174752000Y-135636000D03*
X174752000Y-133096000D03*
X174752000Y-130556000D03*
X174752000Y-128016000D03*
D11*
X138684000Y-138176000D03*
D12*
X138684000Y-135636000D03*
X138684000Y-133096000D03*
X138684000Y-130556000D03*
X138684000Y-128016000D03*
D11*
X125984000Y-138176000D03*
D12*
X125984000Y-135636000D03*
X125984000Y-133096000D03*
X125984000Y-130556000D03*
X125984000Y-128016000D03*
D13*
X115824000Y-134620000D03*
D14*
X113284000Y-134620000D03*
X115824000Y-132080000D03*
X113284000Y-132080000D03*
X115824000Y-129540000D03*
X113284000Y-129540000D03*
X115824000Y-127000000D03*
X113284000Y-127000000D03*
X115824000Y-124460000D03*
X113284000Y-124460000D03*
X115824000Y-121920000D03*
X113284000Y-121920000D03*
X115824000Y-119380000D03*
X113284000Y-119380000D03*
X115824000Y-116840000D03*
X113284000Y-116840000D03*
X115824000Y-114300000D03*
X113284000Y-114300000D03*
X115824000Y-111760000D03*
X113284000Y-111760000D03*
X115824000Y-109220000D03*
X113284000Y-109220000D03*
X115824000Y-106680000D03*
X113284000Y-106680000D03*
X115824000Y-104140000D03*
X113284000Y-104140000D03*
X115824000Y-101600000D03*
X113284000Y-101600000D03*
X115824000Y-99060000D03*
X113284000Y-99060000D03*
X115824000Y-96520000D03*
X113284000Y-96520000D03*
X115824000Y-93980000D03*
X113284000Y-93980000D03*
X115824000Y-91440000D03*
X113284000Y-91440000D03*
X115824000Y-88900000D03*
X113284000Y-88900000D03*
X115824000Y-86360000D03*
X113284000Y-86360000D03*
D11*
X182372000Y-120396000D03*
D12*
X182372000Y-117856000D03*
X182372000Y-115316000D03*
X182372000Y-112776000D03*
X182372000Y-110236000D03*
X182372000Y-107696000D03*
X182372000Y-105156000D03*
X182372000Y-102616000D03*
X182372000Y-100076000D03*
D15*
X180340000Y-84328000D03*
D16*
X177800000Y-84328000D03*
X175260000Y-84328000D03*
X172720000Y-84328000D03*
D11*
X125984000Y-98044000D03*
D12*
X125984000Y-95504000D03*
X125984000Y-92964000D03*
X125984000Y-90424000D03*
X125984000Y-87884000D03*
X125984000Y-85344000D03*
X125984000Y-82804000D03*
D11*
X138684000Y-98044000D03*
D12*
X138684000Y-95504000D03*
X138684000Y-92964000D03*
X138684000Y-90424000D03*
X138684000Y-87884000D03*
X138684000Y-85344000D03*
X138684000Y-82804000D03*
D17*
X148821140Y-110170000D03*
X148821140Y-108270000D03*
X145818860Y-109220000D03*
X149329140Y-117790000D03*
X149329140Y-115890000D03*
X146326860Y-116840000D03*
D18*
X170688000Y-114300000D03*
X155688000Y-114300000D03*
X170688000Y-118364000D03*
X155688000Y-118364000D03*
X139573000Y-114681000D03*
X124573000Y-114681000D03*
X139700000Y-118364000D03*
X124700000Y-118364000D03*
D19*
X181102000Y-94234000D03*
X179832000Y-92964000D03*
X182372000Y-92964000D03*
D20*
X139700000Y-106172000D03*
D21*
X137700000Y-106172000D03*
D20*
X170688000Y-106172000D03*
D21*
X168688000Y-106172000D03*
D22*
X189865000Y-139192000D03*
X103124000Y-139319000D03*
X189865000Y-82296000D03*
X102997000Y-82169000D03*
M02*
