G04 #@! TF.FileFunction,Copper,L1,Top,Signal*
%FSLAX46Y46*%
G04 Gerber Fmt 4.6, Leading zero omitted, Abs format (unit mm)*
G04 Created by KiCad (PCBNEW 4.0.2-4+6225~38~ubuntu15.10.1-stable) date Wed 08 Jun 2016 11:21:06 PM EDT*
%MOMM*%
G01*
G04 APERTURE LIST*
%ADD10C,0.100000*%
%ADD11R,2.600000X2.000000*%
%ADD12O,2.600000X2.000000*%
%ADD13R,1.727200X1.727200*%
%ADD14O,1.727200X1.727200*%
%ADD15R,2.000000X2.600000*%
%ADD16O,2.000000X2.600000*%
%ADD17R,1.800860X0.800100*%
%ADD18C,1.998980*%
%ADD19C,1.000760*%
%ADD20R,1.300000X1.300000*%
%ADD21C,1.300000*%
%ADD22C,4.064000*%
%ADD23C,0.685800*%
%ADD24C,0.406400*%
%ADD25C,0.508000*%
%ADD26C,0.254000*%
%ADD27C,0.152400*%
G04 APERTURE END LIST*
D10*
D11*
X163068000Y-95504000D03*
D12*
X163068000Y-92964000D03*
X163068000Y-90424000D03*
X163068000Y-87884000D03*
X163068000Y-85344000D03*
X163068000Y-82804000D03*
D11*
X150876000Y-95504000D03*
D12*
X150876000Y-92964000D03*
X150876000Y-90424000D03*
X150876000Y-87884000D03*
X150876000Y-85344000D03*
X150876000Y-82804000D03*
D11*
X163068000Y-138176000D03*
D12*
X163068000Y-135636000D03*
X163068000Y-133096000D03*
X163068000Y-130556000D03*
X163068000Y-128016000D03*
D11*
X150876000Y-138176000D03*
D12*
X150876000Y-135636000D03*
X150876000Y-133096000D03*
X150876000Y-130556000D03*
X150876000Y-128016000D03*
D11*
X174752000Y-138176000D03*
D12*
X174752000Y-135636000D03*
X174752000Y-133096000D03*
X174752000Y-130556000D03*
X174752000Y-128016000D03*
D11*
X138684000Y-138176000D03*
D12*
X138684000Y-135636000D03*
X138684000Y-133096000D03*
X138684000Y-130556000D03*
X138684000Y-128016000D03*
D11*
X125984000Y-138176000D03*
D12*
X125984000Y-135636000D03*
X125984000Y-133096000D03*
X125984000Y-130556000D03*
X125984000Y-128016000D03*
D13*
X115824000Y-134620000D03*
D14*
X113284000Y-134620000D03*
X115824000Y-132080000D03*
X113284000Y-132080000D03*
X115824000Y-129540000D03*
X113284000Y-129540000D03*
X115824000Y-127000000D03*
X113284000Y-127000000D03*
X115824000Y-124460000D03*
X113284000Y-124460000D03*
X115824000Y-121920000D03*
X113284000Y-121920000D03*
X115824000Y-119380000D03*
X113284000Y-119380000D03*
X115824000Y-116840000D03*
X113284000Y-116840000D03*
X115824000Y-114300000D03*
X113284000Y-114300000D03*
X115824000Y-111760000D03*
X113284000Y-111760000D03*
X115824000Y-109220000D03*
X113284000Y-109220000D03*
X115824000Y-106680000D03*
X113284000Y-106680000D03*
X115824000Y-104140000D03*
X113284000Y-104140000D03*
X115824000Y-101600000D03*
X113284000Y-101600000D03*
X115824000Y-99060000D03*
X113284000Y-99060000D03*
X115824000Y-96520000D03*
X113284000Y-96520000D03*
X115824000Y-93980000D03*
X113284000Y-93980000D03*
X115824000Y-91440000D03*
X113284000Y-91440000D03*
X115824000Y-88900000D03*
X113284000Y-88900000D03*
X115824000Y-86360000D03*
X113284000Y-86360000D03*
D11*
X182372000Y-120396000D03*
D12*
X182372000Y-117856000D03*
X182372000Y-115316000D03*
X182372000Y-112776000D03*
X182372000Y-110236000D03*
X182372000Y-107696000D03*
X182372000Y-105156000D03*
X182372000Y-102616000D03*
X182372000Y-100076000D03*
D15*
X180340000Y-84328000D03*
D16*
X177800000Y-84328000D03*
X175260000Y-84328000D03*
X172720000Y-84328000D03*
D11*
X125984000Y-98044000D03*
D12*
X125984000Y-95504000D03*
X125984000Y-92964000D03*
X125984000Y-90424000D03*
X125984000Y-87884000D03*
X125984000Y-85344000D03*
X125984000Y-82804000D03*
D11*
X138684000Y-98044000D03*
D12*
X138684000Y-95504000D03*
X138684000Y-92964000D03*
X138684000Y-90424000D03*
X138684000Y-87884000D03*
X138684000Y-85344000D03*
X138684000Y-82804000D03*
D17*
X148821140Y-110170000D03*
X148821140Y-108270000D03*
X145818860Y-109220000D03*
X149329140Y-117790000D03*
X149329140Y-115890000D03*
X146326860Y-116840000D03*
D18*
X170688000Y-114300000D03*
X155688000Y-114300000D03*
X170688000Y-118364000D03*
X155688000Y-118364000D03*
X139573000Y-114681000D03*
X124573000Y-114681000D03*
X139700000Y-118364000D03*
X124700000Y-118364000D03*
D19*
X181102000Y-94234000D03*
X179832000Y-92964000D03*
X182372000Y-92964000D03*
D20*
X139700000Y-106172000D03*
D21*
X137700000Y-106172000D03*
D20*
X170688000Y-106172000D03*
D21*
X168688000Y-106172000D03*
D22*
X189865000Y-139192000D03*
X103124000Y-139319000D03*
X189865000Y-82296000D03*
X102997000Y-82169000D03*
D23*
X178308000Y-96901000D03*
X158623000Y-114554000D03*
X146177000Y-126111000D03*
X120650000Y-84455000D03*
X170815000Y-102743000D03*
X122936000Y-103505000D03*
X169926000Y-103632000D03*
X163068000Y-102108000D03*
X160782000Y-101473000D03*
X111506000Y-102870000D03*
X111506000Y-109347000D03*
X141859000Y-123190000D03*
X124841000Y-104648000D03*
X162306000Y-104775000D03*
X172085000Y-100584000D03*
X177038000Y-100584000D03*
X142113000Y-120650000D03*
X176784000Y-116078000D03*
D24*
X138684000Y-92964000D02*
X139573000Y-92964000D01*
X139573000Y-92964000D02*
X141605000Y-94996000D01*
X141605000Y-104267000D02*
X139700000Y-106172000D01*
X141605000Y-94996000D02*
X141605000Y-104267000D01*
D25*
X125984000Y-133096000D02*
X138684000Y-133096000D01*
X138684000Y-133096000D02*
X150876000Y-133096000D01*
X150876000Y-133096000D02*
X163068000Y-133096000D01*
X163068000Y-133096000D02*
X174752000Y-133096000D01*
D24*
X137700000Y-106172000D02*
X137700000Y-99028000D01*
X137700000Y-99028000D02*
X138684000Y-98044000D01*
X168688000Y-106172000D02*
X168688000Y-98203000D01*
X165989000Y-95504000D02*
X163068000Y-95504000D01*
X168688000Y-98203000D02*
X165989000Y-95504000D01*
D25*
X125984000Y-138176000D02*
X138684000Y-138176000D01*
X138684000Y-138176000D02*
X150876000Y-138176000D01*
X150876000Y-138176000D02*
X163068000Y-138176000D01*
X163068000Y-138176000D02*
X174752000Y-138176000D01*
X125984000Y-135636000D02*
X138684000Y-135636000D01*
X138684000Y-135636000D02*
X150876000Y-135636000D01*
X150876000Y-135636000D02*
X163068000Y-135636000D01*
X163068000Y-135636000D02*
X174752000Y-135636000D01*
D24*
X163068000Y-87884000D02*
X171069000Y-87884000D01*
X179324000Y-96139000D02*
X179324000Y-96012000D01*
X171069000Y-87884000D02*
X179324000Y-96139000D01*
D26*
X148821140Y-110170000D02*
X148821140Y-111102140D01*
X161671000Y-118237000D02*
X161671000Y-120904000D01*
X159893000Y-116459000D02*
X161671000Y-118237000D01*
X154178000Y-116459000D02*
X159893000Y-116459000D01*
X148821140Y-111102140D02*
X154178000Y-116459000D01*
X149329140Y-117790000D02*
X149413000Y-117790000D01*
X149413000Y-117790000D02*
X152527000Y-120904000D01*
X152527000Y-120904000D02*
X161671000Y-120904000D01*
X161671000Y-120904000D02*
X168148000Y-120904000D01*
X168148000Y-120904000D02*
X170688000Y-118364000D01*
D25*
X178308000Y-96901000D02*
X179197000Y-96012000D01*
X179197000Y-96012000D02*
X179324000Y-96012000D01*
X183896000Y-93091000D02*
X182499000Y-93091000D01*
X179324000Y-96012000D02*
X183642000Y-96012000D01*
X183642000Y-96012000D02*
X184277000Y-95377000D01*
X184277000Y-95377000D02*
X184277000Y-93472000D01*
X184277000Y-93472000D02*
X183896000Y-93091000D01*
X182499000Y-93091000D02*
X182372000Y-92964000D01*
D24*
X163068000Y-85344000D02*
X161417000Y-85344000D01*
X158623000Y-88138000D02*
X158623000Y-114554000D01*
X161417000Y-85344000D02*
X158623000Y-88138000D01*
D26*
X149329140Y-115890000D02*
X151069000Y-115890000D01*
X151069000Y-115890000D02*
X153543000Y-118364000D01*
X153543000Y-118364000D02*
X155688000Y-118364000D01*
D24*
X163068000Y-82804000D02*
X161163000Y-82804000D01*
X155688000Y-88279000D02*
X155688000Y-114300000D01*
X161163000Y-82804000D02*
X155688000Y-88279000D01*
D26*
X148821140Y-108270000D02*
X149672000Y-108270000D01*
X149672000Y-108270000D02*
X155688000Y-114286000D01*
X155688000Y-114286000D02*
X155688000Y-114300000D01*
D24*
X146326860Y-116840000D02*
X146326860Y-125961140D01*
X146326860Y-125961140D02*
X146177000Y-126111000D01*
D25*
X125984000Y-130556000D02*
X138684000Y-130556000D01*
X138684000Y-130556000D02*
X150876000Y-130556000D01*
X150876000Y-130556000D02*
X163068000Y-130556000D01*
X163068000Y-130556000D02*
X174752000Y-130556000D01*
D24*
X145818860Y-109220000D02*
X145818860Y-112372140D01*
X143510000Y-123190000D02*
X138684000Y-128016000D01*
X143510000Y-114681000D02*
X143510000Y-123190000D01*
X145818860Y-112372140D02*
X143510000Y-114681000D01*
D25*
X115824000Y-132080000D02*
X119888000Y-132080000D01*
X122936000Y-128016000D02*
X125984000Y-128016000D01*
X122428000Y-128524000D02*
X122936000Y-128016000D01*
X122428000Y-129540000D02*
X122428000Y-128524000D01*
X119888000Y-132080000D02*
X122428000Y-129540000D01*
X125984000Y-128016000D02*
X138684000Y-128016000D01*
X138684000Y-128016000D02*
X150876000Y-128016000D01*
X150876000Y-128016000D02*
X163068000Y-128016000D01*
X163068000Y-128016000D02*
X174752000Y-128016000D01*
D24*
X115824000Y-111760000D02*
X128270000Y-111760000D01*
X135001000Y-94107000D02*
X138684000Y-90424000D01*
X135001000Y-105029000D02*
X135001000Y-94107000D01*
X128270000Y-111760000D02*
X135001000Y-105029000D01*
X115824000Y-109220000D02*
X128397000Y-109220000D01*
X136779000Y-87884000D02*
X138684000Y-87884000D01*
X133350000Y-91313000D02*
X136779000Y-87884000D01*
X133350000Y-104267000D02*
X133350000Y-91313000D01*
X128397000Y-109220000D02*
X133350000Y-104267000D01*
X115824000Y-106680000D02*
X128016000Y-106680000D01*
X136652000Y-85344000D02*
X138684000Y-85344000D01*
X132334000Y-89662000D02*
X136652000Y-85344000D01*
X132334000Y-102362000D02*
X132334000Y-89662000D01*
X128016000Y-106680000D02*
X132334000Y-102362000D01*
X113284000Y-106680000D02*
X109855000Y-106680000D01*
X111760000Y-82804000D02*
X125984000Y-82804000D01*
X109728000Y-84836000D02*
X111760000Y-82804000D01*
X109728000Y-106553000D02*
X109728000Y-84836000D01*
X109855000Y-106680000D02*
X109728000Y-106553000D01*
X113284000Y-104140000D02*
X111633000Y-104140000D01*
X112014000Y-84455000D02*
X120650000Y-84455000D01*
X110744000Y-85725000D02*
X112014000Y-84455000D01*
X110744000Y-103251000D02*
X110744000Y-85725000D01*
X111633000Y-104140000D02*
X110744000Y-103251000D01*
D27*
X170815000Y-102743000D02*
X170942000Y-102616000D01*
X170942000Y-102616000D02*
X182372000Y-102616000D01*
X115824000Y-96520000D02*
X115951000Y-96520000D01*
X115951000Y-96520000D02*
X122936000Y-103505000D01*
X169926000Y-103632000D02*
X180086000Y-103632000D01*
X180086000Y-103632000D02*
X181610000Y-105156000D01*
X181610000Y-105156000D02*
X182372000Y-105156000D01*
X163068000Y-102108000D02*
X165862000Y-104902000D01*
X165862000Y-104902000D02*
X165862000Y-107823000D01*
X165862000Y-107823000D02*
X167386000Y-109347000D01*
X167386000Y-109347000D02*
X173863000Y-109347000D01*
X173863000Y-109347000D02*
X175514000Y-107696000D01*
X175514000Y-107696000D02*
X182372000Y-107696000D01*
X165481000Y-110236000D02*
X182372000Y-110236000D01*
X164592000Y-109347000D02*
X165481000Y-110236000D01*
X164592000Y-105283000D02*
X164592000Y-109347000D01*
X160782000Y-101473000D02*
X164592000Y-105283000D01*
X113284000Y-91440000D02*
X112903000Y-91440000D01*
X112903000Y-91440000D02*
X111506000Y-92837000D01*
X111506000Y-92837000D02*
X111506000Y-102870000D01*
X111506000Y-109347000D02*
X111379000Y-109474000D01*
X111379000Y-109474000D02*
X111379000Y-122301000D01*
X111379000Y-122301000D02*
X112268000Y-123190000D01*
X112268000Y-123190000D02*
X141859000Y-123190000D01*
X182372000Y-112776000D02*
X180467000Y-112776000D01*
X117221000Y-88900000D02*
X115824000Y-88900000D01*
X117983000Y-89662000D02*
X117221000Y-88900000D01*
X117983000Y-96139000D02*
X117983000Y-89662000D01*
X124841000Y-102997000D02*
X117983000Y-96139000D01*
X124841000Y-104648000D02*
X124841000Y-102997000D01*
X163449000Y-105918000D02*
X162306000Y-104775000D01*
X163449000Y-109474000D02*
X163449000Y-105918000D01*
X164973000Y-110998000D02*
X163449000Y-109474000D01*
X178689000Y-110998000D02*
X164973000Y-110998000D01*
X180467000Y-112776000D02*
X178689000Y-110998000D01*
X172085000Y-100584000D02*
X177038000Y-100584000D01*
X113284000Y-86360000D02*
X113665000Y-86360000D01*
X113665000Y-86360000D02*
X114554000Y-87249000D01*
X114554000Y-87249000D02*
X114554000Y-120396000D01*
X114554000Y-120396000D02*
X114808000Y-120650000D01*
X114808000Y-120650000D02*
X142113000Y-120650000D01*
X176784000Y-116078000D02*
X177546000Y-115316000D01*
X177546000Y-115316000D02*
X182372000Y-115316000D01*
D26*
G36*
X101503154Y-79896832D02*
X101278484Y-80270879D01*
X102997000Y-81989395D01*
X104715516Y-80270879D01*
X104490846Y-79896832D01*
X103830365Y-79629000D01*
X189854858Y-79629000D01*
X189314643Y-79633025D01*
X188371154Y-80023832D01*
X188146484Y-80397879D01*
X189865000Y-82116395D01*
X191583516Y-80397879D01*
X191358846Y-80023832D01*
X190385180Y-79629000D01*
X192659000Y-79629000D01*
X192659000Y-141859000D01*
X189875142Y-141859000D01*
X190415357Y-141854975D01*
X191358846Y-141464168D01*
X191583516Y-141090121D01*
X189865000Y-139371605D01*
X188146484Y-141090121D01*
X188371154Y-141464168D01*
X189344820Y-141859000D01*
X103971244Y-141859000D01*
X104617846Y-141591168D01*
X104842516Y-141217121D01*
X103124000Y-139498605D01*
X101405484Y-141217121D01*
X101630154Y-141591168D01*
X102290635Y-141859000D01*
X100456742Y-141859000D01*
X100450529Y-138808388D01*
X100453120Y-138808388D01*
X100461025Y-139869357D01*
X100851832Y-140812846D01*
X101225879Y-141037516D01*
X102944395Y-139319000D01*
X103303605Y-139319000D01*
X105022121Y-141037516D01*
X105396168Y-140812846D01*
X105794880Y-139829612D01*
X105786975Y-138768643D01*
X105659856Y-138461750D01*
X124049000Y-138461750D01*
X124049000Y-139302309D01*
X124145673Y-139535698D01*
X124324301Y-139714327D01*
X124557690Y-139811000D01*
X125698250Y-139811000D01*
X125857000Y-139652250D01*
X125857000Y-138303000D01*
X126111000Y-138303000D01*
X126111000Y-139652250D01*
X126269750Y-139811000D01*
X127410310Y-139811000D01*
X127643699Y-139714327D01*
X127822327Y-139535698D01*
X127919000Y-139302309D01*
X127919000Y-138461750D01*
X136749000Y-138461750D01*
X136749000Y-139302309D01*
X136845673Y-139535698D01*
X137024301Y-139714327D01*
X137257690Y-139811000D01*
X138398250Y-139811000D01*
X138557000Y-139652250D01*
X138557000Y-138303000D01*
X138811000Y-138303000D01*
X138811000Y-139652250D01*
X138969750Y-139811000D01*
X140110310Y-139811000D01*
X140343699Y-139714327D01*
X140522327Y-139535698D01*
X140619000Y-139302309D01*
X140619000Y-138461750D01*
X148941000Y-138461750D01*
X148941000Y-139302309D01*
X149037673Y-139535698D01*
X149216301Y-139714327D01*
X149449690Y-139811000D01*
X150590250Y-139811000D01*
X150749000Y-139652250D01*
X150749000Y-138303000D01*
X151003000Y-138303000D01*
X151003000Y-139652250D01*
X151161750Y-139811000D01*
X152302310Y-139811000D01*
X152535699Y-139714327D01*
X152714327Y-139535698D01*
X152811000Y-139302309D01*
X152811000Y-138461750D01*
X161133000Y-138461750D01*
X161133000Y-139302309D01*
X161229673Y-139535698D01*
X161408301Y-139714327D01*
X161641690Y-139811000D01*
X162782250Y-139811000D01*
X162941000Y-139652250D01*
X162941000Y-138303000D01*
X163195000Y-138303000D01*
X163195000Y-139652250D01*
X163353750Y-139811000D01*
X164494310Y-139811000D01*
X164727699Y-139714327D01*
X164906327Y-139535698D01*
X165003000Y-139302309D01*
X165003000Y-138461750D01*
X172817000Y-138461750D01*
X172817000Y-139302309D01*
X172913673Y-139535698D01*
X173092301Y-139714327D01*
X173325690Y-139811000D01*
X174466250Y-139811000D01*
X174625000Y-139652250D01*
X174625000Y-138303000D01*
X174879000Y-138303000D01*
X174879000Y-139652250D01*
X175037750Y-139811000D01*
X176178310Y-139811000D01*
X176411699Y-139714327D01*
X176590327Y-139535698D01*
X176687000Y-139302309D01*
X176687000Y-138681388D01*
X187194120Y-138681388D01*
X187202025Y-139742357D01*
X187592832Y-140685846D01*
X187966879Y-140910516D01*
X189685395Y-139192000D01*
X190044605Y-139192000D01*
X191763121Y-140910516D01*
X192137168Y-140685846D01*
X192535880Y-139702612D01*
X192527975Y-138641643D01*
X192137168Y-137698154D01*
X191763121Y-137473484D01*
X190044605Y-139192000D01*
X189685395Y-139192000D01*
X187966879Y-137473484D01*
X187592832Y-137698154D01*
X187194120Y-138681388D01*
X176687000Y-138681388D01*
X176687000Y-138461750D01*
X176528250Y-138303000D01*
X174879000Y-138303000D01*
X174625000Y-138303000D01*
X172975750Y-138303000D01*
X172817000Y-138461750D01*
X165003000Y-138461750D01*
X164844250Y-138303000D01*
X163195000Y-138303000D01*
X162941000Y-138303000D01*
X161291750Y-138303000D01*
X161133000Y-138461750D01*
X152811000Y-138461750D01*
X152652250Y-138303000D01*
X151003000Y-138303000D01*
X150749000Y-138303000D01*
X149099750Y-138303000D01*
X148941000Y-138461750D01*
X140619000Y-138461750D01*
X140460250Y-138303000D01*
X138811000Y-138303000D01*
X138557000Y-138303000D01*
X136907750Y-138303000D01*
X136749000Y-138461750D01*
X127919000Y-138461750D01*
X127760250Y-138303000D01*
X126111000Y-138303000D01*
X125857000Y-138303000D01*
X124207750Y-138303000D01*
X124049000Y-138461750D01*
X105659856Y-138461750D01*
X105396168Y-137825154D01*
X105022121Y-137600484D01*
X103303605Y-139319000D01*
X102944395Y-139319000D01*
X101225879Y-137600484D01*
X100851832Y-137825154D01*
X100453120Y-138808388D01*
X100450529Y-138808388D01*
X100447704Y-137420879D01*
X101405484Y-137420879D01*
X103124000Y-139139395D01*
X104842516Y-137420879D01*
X104619564Y-137049691D01*
X124049000Y-137049691D01*
X124049000Y-137890250D01*
X124207750Y-138049000D01*
X125857000Y-138049000D01*
X125857000Y-135763000D01*
X126111000Y-135763000D01*
X126111000Y-138049000D01*
X127760250Y-138049000D01*
X127919000Y-137890250D01*
X127919000Y-137049691D01*
X136749000Y-137049691D01*
X136749000Y-137890250D01*
X136907750Y-138049000D01*
X138557000Y-138049000D01*
X138557000Y-135763000D01*
X138811000Y-135763000D01*
X138811000Y-138049000D01*
X140460250Y-138049000D01*
X140619000Y-137890250D01*
X140619000Y-137049691D01*
X148941000Y-137049691D01*
X148941000Y-137890250D01*
X149099750Y-138049000D01*
X150749000Y-138049000D01*
X150749000Y-135763000D01*
X151003000Y-135763000D01*
X151003000Y-138049000D01*
X152652250Y-138049000D01*
X152811000Y-137890250D01*
X152811000Y-137049691D01*
X161133000Y-137049691D01*
X161133000Y-137890250D01*
X161291750Y-138049000D01*
X162941000Y-138049000D01*
X162941000Y-135763000D01*
X163195000Y-135763000D01*
X163195000Y-138049000D01*
X164844250Y-138049000D01*
X165003000Y-137890250D01*
X165003000Y-137049691D01*
X172817000Y-137049691D01*
X172817000Y-137890250D01*
X172975750Y-138049000D01*
X174625000Y-138049000D01*
X174625000Y-135763000D01*
X174879000Y-135763000D01*
X174879000Y-138049000D01*
X176528250Y-138049000D01*
X176687000Y-137890250D01*
X176687000Y-137293879D01*
X188146484Y-137293879D01*
X189865000Y-139012395D01*
X191583516Y-137293879D01*
X191358846Y-136919832D01*
X190375612Y-136521120D01*
X189314643Y-136529025D01*
X188371154Y-136919832D01*
X188146484Y-137293879D01*
X176687000Y-137293879D01*
X176687000Y-137049691D01*
X176590327Y-136816302D01*
X176411699Y-136637673D01*
X176348830Y-136611632D01*
X176611144Y-136144355D01*
X176642124Y-136016434D01*
X176522777Y-135763000D01*
X174879000Y-135763000D01*
X174625000Y-135763000D01*
X172981223Y-135763000D01*
X172861876Y-136016434D01*
X172892856Y-136144355D01*
X173155170Y-136611632D01*
X173092301Y-136637673D01*
X172913673Y-136816302D01*
X172817000Y-137049691D01*
X165003000Y-137049691D01*
X164906327Y-136816302D01*
X164727699Y-136637673D01*
X164664830Y-136611632D01*
X164927144Y-136144355D01*
X164958124Y-136016434D01*
X164838777Y-135763000D01*
X163195000Y-135763000D01*
X162941000Y-135763000D01*
X161297223Y-135763000D01*
X161177876Y-136016434D01*
X161208856Y-136144355D01*
X161471170Y-136611632D01*
X161408301Y-136637673D01*
X161229673Y-136816302D01*
X161133000Y-137049691D01*
X152811000Y-137049691D01*
X152714327Y-136816302D01*
X152535699Y-136637673D01*
X152472830Y-136611632D01*
X152735144Y-136144355D01*
X152766124Y-136016434D01*
X152646777Y-135763000D01*
X151003000Y-135763000D01*
X150749000Y-135763000D01*
X149105223Y-135763000D01*
X148985876Y-136016434D01*
X149016856Y-136144355D01*
X149279170Y-136611632D01*
X149216301Y-136637673D01*
X149037673Y-136816302D01*
X148941000Y-137049691D01*
X140619000Y-137049691D01*
X140522327Y-136816302D01*
X140343699Y-136637673D01*
X140280830Y-136611632D01*
X140543144Y-136144355D01*
X140574124Y-136016434D01*
X140454777Y-135763000D01*
X138811000Y-135763000D01*
X138557000Y-135763000D01*
X136913223Y-135763000D01*
X136793876Y-136016434D01*
X136824856Y-136144355D01*
X137087170Y-136611632D01*
X137024301Y-136637673D01*
X136845673Y-136816302D01*
X136749000Y-137049691D01*
X127919000Y-137049691D01*
X127822327Y-136816302D01*
X127643699Y-136637673D01*
X127580830Y-136611632D01*
X127843144Y-136144355D01*
X127874124Y-136016434D01*
X127754777Y-135763000D01*
X126111000Y-135763000D01*
X125857000Y-135763000D01*
X124213223Y-135763000D01*
X124093876Y-136016434D01*
X124124856Y-136144355D01*
X124387170Y-136611632D01*
X124324301Y-136637673D01*
X124145673Y-136816302D01*
X124049000Y-137049691D01*
X104619564Y-137049691D01*
X104617846Y-137046832D01*
X103634612Y-136648120D01*
X102573643Y-136656025D01*
X101630154Y-137046832D01*
X101405484Y-137420879D01*
X100447704Y-137420879D01*
X100339039Y-84067121D01*
X101278484Y-84067121D01*
X101503154Y-84441168D01*
X102486388Y-84839880D01*
X103007141Y-84836000D01*
X108889800Y-84836000D01*
X108889800Y-106553000D01*
X108953604Y-106873766D01*
X109135303Y-107145697D01*
X109262303Y-107272697D01*
X109534234Y-107454396D01*
X109855000Y-107518200D01*
X112056731Y-107518200D01*
X112224330Y-107769029D01*
X112495172Y-107950000D01*
X112224330Y-108130971D01*
X111986104Y-108487502D01*
X111701370Y-108369270D01*
X111312337Y-108368931D01*
X110952788Y-108517493D01*
X110677460Y-108792341D01*
X110528270Y-109151630D01*
X110527931Y-109540663D01*
X110667800Y-109879173D01*
X110667800Y-122301000D01*
X110721937Y-122573165D01*
X110876106Y-122803894D01*
X111765106Y-123692894D01*
X111933877Y-123805664D01*
X111899474Y-123857152D01*
X111785400Y-124430641D01*
X111785400Y-124489359D01*
X111899474Y-125062848D01*
X112224330Y-125549029D01*
X112495172Y-125730000D01*
X112224330Y-125910971D01*
X111899474Y-126397152D01*
X111785400Y-126970641D01*
X111785400Y-127029359D01*
X111899474Y-127602848D01*
X112224330Y-128089029D01*
X112495161Y-128269992D01*
X112077179Y-128651510D01*
X111829032Y-129180973D01*
X111949531Y-129413000D01*
X113157000Y-129413000D01*
X113157000Y-129393000D01*
X113411000Y-129393000D01*
X113411000Y-129413000D01*
X113431000Y-129413000D01*
X113431000Y-129667000D01*
X113411000Y-129667000D01*
X113411000Y-129687000D01*
X113157000Y-129687000D01*
X113157000Y-129667000D01*
X111949531Y-129667000D01*
X111829032Y-129899027D01*
X112077179Y-130428490D01*
X112495161Y-130810008D01*
X112224330Y-130990971D01*
X111899474Y-131477152D01*
X111785400Y-132050641D01*
X111785400Y-132109359D01*
X111899474Y-132682848D01*
X112224330Y-133169029D01*
X112495172Y-133350000D01*
X112224330Y-133530971D01*
X111899474Y-134017152D01*
X111785400Y-134590641D01*
X111785400Y-134649359D01*
X111899474Y-135222848D01*
X112224330Y-135709029D01*
X112710511Y-136033885D01*
X113284000Y-136147959D01*
X113857489Y-136033885D01*
X114343670Y-135709029D01*
X114352805Y-135695358D01*
X114357238Y-135718917D01*
X114496310Y-135935041D01*
X114708510Y-136080031D01*
X114960400Y-136131040D01*
X116687600Y-136131040D01*
X116922917Y-136086762D01*
X117139041Y-135947690D01*
X117284031Y-135735490D01*
X117335040Y-135483600D01*
X117335040Y-133756400D01*
X117290762Y-133521083D01*
X117151690Y-133304959D01*
X116939490Y-133159969D01*
X116895655Y-133151092D01*
X117017325Y-132969000D01*
X119888000Y-132969000D01*
X120228206Y-132901329D01*
X120516618Y-132708618D01*
X123056618Y-130168618D01*
X123249329Y-129880206D01*
X123317000Y-129540000D01*
X123317000Y-128905000D01*
X124311488Y-128905000D01*
X124489971Y-129172120D01*
X124660405Y-129286000D01*
X124489971Y-129399880D01*
X124135548Y-129930313D01*
X124011091Y-130556000D01*
X124135548Y-131181687D01*
X124489971Y-131712120D01*
X124660405Y-131826000D01*
X124489971Y-131939880D01*
X124135548Y-132470313D01*
X124011091Y-133096000D01*
X124135548Y-133721687D01*
X124489971Y-134252120D01*
X124680188Y-134379219D01*
X124438078Y-134569683D01*
X124124856Y-135127645D01*
X124093876Y-135255566D01*
X124213223Y-135509000D01*
X125857000Y-135509000D01*
X125857000Y-135489000D01*
X126111000Y-135489000D01*
X126111000Y-135509000D01*
X127754777Y-135509000D01*
X127874124Y-135255566D01*
X127843144Y-135127645D01*
X127529922Y-134569683D01*
X127287812Y-134379219D01*
X127478029Y-134252120D01*
X127656512Y-133985000D01*
X137011488Y-133985000D01*
X137189971Y-134252120D01*
X137380188Y-134379219D01*
X137138078Y-134569683D01*
X136824856Y-135127645D01*
X136793876Y-135255566D01*
X136913223Y-135509000D01*
X138557000Y-135509000D01*
X138557000Y-135489000D01*
X138811000Y-135489000D01*
X138811000Y-135509000D01*
X140454777Y-135509000D01*
X140574124Y-135255566D01*
X140543144Y-135127645D01*
X140229922Y-134569683D01*
X139987812Y-134379219D01*
X140178029Y-134252120D01*
X140356512Y-133985000D01*
X149203488Y-133985000D01*
X149381971Y-134252120D01*
X149572188Y-134379219D01*
X149330078Y-134569683D01*
X149016856Y-135127645D01*
X148985876Y-135255566D01*
X149105223Y-135509000D01*
X150749000Y-135509000D01*
X150749000Y-135489000D01*
X151003000Y-135489000D01*
X151003000Y-135509000D01*
X152646777Y-135509000D01*
X152766124Y-135255566D01*
X152735144Y-135127645D01*
X152421922Y-134569683D01*
X152179812Y-134379219D01*
X152370029Y-134252120D01*
X152548512Y-133985000D01*
X161395488Y-133985000D01*
X161573971Y-134252120D01*
X161764188Y-134379219D01*
X161522078Y-134569683D01*
X161208856Y-135127645D01*
X161177876Y-135255566D01*
X161297223Y-135509000D01*
X162941000Y-135509000D01*
X162941000Y-135489000D01*
X163195000Y-135489000D01*
X163195000Y-135509000D01*
X164838777Y-135509000D01*
X164958124Y-135255566D01*
X164927144Y-135127645D01*
X164613922Y-134569683D01*
X164371812Y-134379219D01*
X164562029Y-134252120D01*
X164740512Y-133985000D01*
X173079488Y-133985000D01*
X173257971Y-134252120D01*
X173448188Y-134379219D01*
X173206078Y-134569683D01*
X172892856Y-135127645D01*
X172861876Y-135255566D01*
X172981223Y-135509000D01*
X174625000Y-135509000D01*
X174625000Y-135489000D01*
X174879000Y-135489000D01*
X174879000Y-135509000D01*
X176522777Y-135509000D01*
X176642124Y-135255566D01*
X176611144Y-135127645D01*
X176297922Y-134569683D01*
X176055812Y-134379219D01*
X176246029Y-134252120D01*
X176600452Y-133721687D01*
X176724909Y-133096000D01*
X176600452Y-132470313D01*
X176246029Y-131939880D01*
X176075595Y-131826000D01*
X176246029Y-131712120D01*
X176600452Y-131181687D01*
X176724909Y-130556000D01*
X176600452Y-129930313D01*
X176246029Y-129399880D01*
X176075595Y-129286000D01*
X176246029Y-129172120D01*
X176600452Y-128641687D01*
X176724909Y-128016000D01*
X176600452Y-127390313D01*
X176246029Y-126859880D01*
X175715596Y-126505457D01*
X175089909Y-126381000D01*
X174414091Y-126381000D01*
X173788404Y-126505457D01*
X173257971Y-126859880D01*
X173079488Y-127127000D01*
X164740512Y-127127000D01*
X164562029Y-126859880D01*
X164031596Y-126505457D01*
X163405909Y-126381000D01*
X162730091Y-126381000D01*
X162104404Y-126505457D01*
X161573971Y-126859880D01*
X161395488Y-127127000D01*
X152548512Y-127127000D01*
X152370029Y-126859880D01*
X151839596Y-126505457D01*
X151213909Y-126381000D01*
X150538091Y-126381000D01*
X149912404Y-126505457D01*
X149381971Y-126859880D01*
X149203488Y-127127000D01*
X140758394Y-127127000D01*
X144102697Y-123782697D01*
X144284396Y-123510765D01*
X144348200Y-123190000D01*
X144348200Y-115028194D01*
X146411557Y-112964837D01*
X146593256Y-112692906D01*
X146657060Y-112372140D01*
X146657060Y-110267490D01*
X146719290Y-110267490D01*
X146954607Y-110223212D01*
X147170731Y-110084140D01*
X147273270Y-109934069D01*
X147273270Y-110570050D01*
X147317548Y-110805367D01*
X147456620Y-111021491D01*
X147668820Y-111166481D01*
X147920710Y-111217490D01*
X148082085Y-111217490D01*
X148117144Y-111393745D01*
X148121974Y-111400973D01*
X148282325Y-111640955D01*
X153639185Y-116997815D01*
X153886395Y-117162996D01*
X154178000Y-117221000D01*
X154519458Y-117221000D01*
X154303154Y-117436927D01*
X154234610Y-117602000D01*
X153858631Y-117602000D01*
X151607815Y-115351185D01*
X151455573Y-115249460D01*
X151360605Y-115186004D01*
X151069000Y-115128000D01*
X150751246Y-115128000D01*
X150693660Y-115038509D01*
X150481460Y-114893519D01*
X150229570Y-114842510D01*
X148428710Y-114842510D01*
X148193393Y-114886788D01*
X147977269Y-115025860D01*
X147832279Y-115238060D01*
X147781270Y-115489950D01*
X147781270Y-116128202D01*
X147691380Y-115988509D01*
X147479180Y-115843519D01*
X147227290Y-115792510D01*
X145426430Y-115792510D01*
X145191113Y-115836788D01*
X144974989Y-115975860D01*
X144829999Y-116188060D01*
X144778990Y-116439950D01*
X144778990Y-117240050D01*
X144823268Y-117475367D01*
X144962340Y-117691491D01*
X145174540Y-117836481D01*
X145426430Y-117887490D01*
X145488660Y-117887490D01*
X145488660Y-125416385D01*
X145348460Y-125556341D01*
X145199270Y-125915630D01*
X145198931Y-126304663D01*
X145347493Y-126664212D01*
X145622341Y-126939540D01*
X145981630Y-127088730D01*
X146370663Y-127089069D01*
X146730212Y-126940507D01*
X147005540Y-126665659D01*
X147154730Y-126306370D01*
X147154987Y-126011782D01*
X147165060Y-125961140D01*
X147165060Y-117887490D01*
X147227290Y-117887490D01*
X147462607Y-117843212D01*
X147678731Y-117704140D01*
X147781270Y-117554069D01*
X147781270Y-118190050D01*
X147825548Y-118425367D01*
X147964620Y-118641491D01*
X148176820Y-118786481D01*
X148428710Y-118837490D01*
X149382860Y-118837490D01*
X151988185Y-121442815D01*
X152235395Y-121607996D01*
X152527000Y-121666000D01*
X168148000Y-121666000D01*
X168439605Y-121607996D01*
X168686815Y-121442815D01*
X170198916Y-119930715D01*
X170361453Y-119998206D01*
X171011694Y-119998774D01*
X171612655Y-119750462D01*
X172072846Y-119291073D01*
X172322206Y-118690547D01*
X172322774Y-118040306D01*
X172074462Y-117439345D01*
X171615073Y-116979154D01*
X171014547Y-116729794D01*
X170364306Y-116729226D01*
X169763345Y-116977538D01*
X169303154Y-117436927D01*
X169053794Y-118037453D01*
X169053226Y-118687694D01*
X169121482Y-118852887D01*
X167832370Y-120142000D01*
X162433000Y-120142000D01*
X162433000Y-118237000D01*
X162374996Y-117945395D01*
X162271164Y-117790000D01*
X162209816Y-117698185D01*
X160431815Y-115920185D01*
X160375610Y-115882630D01*
X160184605Y-115755004D01*
X159893000Y-115697000D01*
X156587151Y-115697000D01*
X156612655Y-115686462D01*
X157072846Y-115227073D01*
X157322206Y-114626547D01*
X157322774Y-113976306D01*
X157074462Y-113375345D01*
X156615073Y-112915154D01*
X156526200Y-112878251D01*
X156526200Y-88626194D01*
X161421085Y-83731309D01*
X161573971Y-83960120D01*
X161744405Y-84074000D01*
X161573971Y-84187880D01*
X161353044Y-84518522D01*
X161096235Y-84569604D01*
X160824303Y-84751303D01*
X158030303Y-87545303D01*
X157848604Y-87817234D01*
X157784800Y-88138000D01*
X157784800Y-114022605D01*
X157645270Y-114358630D01*
X157644931Y-114747663D01*
X157793493Y-115107212D01*
X158068341Y-115382540D01*
X158427630Y-115531730D01*
X158816663Y-115532069D01*
X159176212Y-115383507D01*
X159451540Y-115108659D01*
X159600730Y-114749370D01*
X159600839Y-114623694D01*
X169053226Y-114623694D01*
X169301538Y-115224655D01*
X169760927Y-115684846D01*
X170361453Y-115934206D01*
X171011694Y-115934774D01*
X171612655Y-115686462D01*
X172072846Y-115227073D01*
X172322206Y-114626547D01*
X172322774Y-113976306D01*
X172074462Y-113375345D01*
X171615073Y-112915154D01*
X171014547Y-112665794D01*
X170364306Y-112665226D01*
X169763345Y-112913538D01*
X169303154Y-113372927D01*
X169053794Y-113973453D01*
X169053226Y-114623694D01*
X159600839Y-114623694D01*
X159601069Y-114360337D01*
X159461200Y-114021827D01*
X159461200Y-101666663D01*
X159803931Y-101666663D01*
X159952493Y-102026212D01*
X160227341Y-102301540D01*
X160586630Y-102450730D01*
X160754088Y-102450876D01*
X162103708Y-103800496D01*
X161752788Y-103945493D01*
X161477460Y-104220341D01*
X161328270Y-104579630D01*
X161327931Y-104968663D01*
X161476493Y-105328212D01*
X161751341Y-105603540D01*
X162110630Y-105752730D01*
X162278088Y-105752876D01*
X162737800Y-106212588D01*
X162737800Y-109474000D01*
X162791937Y-109746165D01*
X162946106Y-109976894D01*
X164470105Y-111500894D01*
X164615052Y-111597744D01*
X164700836Y-111655063D01*
X164973000Y-111709200D01*
X178394412Y-111709200D01*
X179964106Y-113278895D01*
X180194836Y-113433063D01*
X180467000Y-113487200D01*
X180580686Y-113487200D01*
X180877971Y-113932120D01*
X181048405Y-114046000D01*
X180877971Y-114159880D01*
X180580686Y-114604800D01*
X177546000Y-114604800D01*
X177273835Y-114658937D01*
X177043106Y-114813105D01*
X176756136Y-115100075D01*
X176590337Y-115099931D01*
X176230788Y-115248493D01*
X175955460Y-115523341D01*
X175806270Y-115882630D01*
X175805931Y-116271663D01*
X175954493Y-116631212D01*
X176229341Y-116906540D01*
X176588630Y-117055730D01*
X176977663Y-117056069D01*
X177337212Y-116907507D01*
X177612540Y-116632659D01*
X177761730Y-116273370D01*
X177761876Y-116105913D01*
X177840589Y-116027200D01*
X180580686Y-116027200D01*
X180877971Y-116472120D01*
X181048405Y-116586000D01*
X180877971Y-116699880D01*
X180523548Y-117230313D01*
X180399091Y-117856000D01*
X180523548Y-118481687D01*
X180763093Y-118840192D01*
X180620559Y-118931910D01*
X180475569Y-119144110D01*
X180424560Y-119396000D01*
X180424560Y-121396000D01*
X180468838Y-121631317D01*
X180607910Y-121847441D01*
X180820110Y-121992431D01*
X181072000Y-122043440D01*
X183672000Y-122043440D01*
X183907317Y-121999162D01*
X184123441Y-121860090D01*
X184268431Y-121647890D01*
X184319440Y-121396000D01*
X184319440Y-119396000D01*
X184275162Y-119160683D01*
X184136090Y-118944559D01*
X183981671Y-118839049D01*
X184220452Y-118481687D01*
X184344909Y-117856000D01*
X184220452Y-117230313D01*
X183866029Y-116699880D01*
X183695595Y-116586000D01*
X183866029Y-116472120D01*
X184220452Y-115941687D01*
X184344909Y-115316000D01*
X184220452Y-114690313D01*
X183866029Y-114159880D01*
X183695595Y-114046000D01*
X183866029Y-113932120D01*
X184220452Y-113401687D01*
X184344909Y-112776000D01*
X184220452Y-112150313D01*
X183866029Y-111619880D01*
X183695595Y-111506000D01*
X183866029Y-111392120D01*
X184220452Y-110861687D01*
X184344909Y-110236000D01*
X184220452Y-109610313D01*
X183866029Y-109079880D01*
X183695595Y-108966000D01*
X183866029Y-108852120D01*
X184220452Y-108321687D01*
X184344909Y-107696000D01*
X184220452Y-107070313D01*
X183866029Y-106539880D01*
X183695595Y-106426000D01*
X183866029Y-106312120D01*
X184220452Y-105781687D01*
X184344909Y-105156000D01*
X184220452Y-104530313D01*
X183866029Y-103999880D01*
X183695595Y-103886000D01*
X183866029Y-103772120D01*
X184220452Y-103241687D01*
X184344909Y-102616000D01*
X184220452Y-101990313D01*
X183866029Y-101459880D01*
X183675812Y-101332781D01*
X183917922Y-101142317D01*
X184231144Y-100584355D01*
X184262124Y-100456434D01*
X184142777Y-100203000D01*
X182499000Y-100203000D01*
X182499000Y-100223000D01*
X182245000Y-100223000D01*
X182245000Y-100203000D01*
X180601223Y-100203000D01*
X180481876Y-100456434D01*
X180512856Y-100584355D01*
X180826078Y-101142317D01*
X181068188Y-101332781D01*
X180877971Y-101459880D01*
X180580686Y-101904800D01*
X171346395Y-101904800D01*
X171010370Y-101765270D01*
X170621337Y-101764931D01*
X170261788Y-101913493D01*
X169986460Y-102188341D01*
X169837270Y-102547630D01*
X169837177Y-102654022D01*
X169732337Y-102653931D01*
X169372788Y-102802493D01*
X169097460Y-103077341D01*
X168948270Y-103436630D01*
X168947931Y-103825663D01*
X169096493Y-104185212D01*
X169371341Y-104460540D01*
X169730630Y-104609730D01*
X170119663Y-104610069D01*
X170479212Y-104461507D01*
X170597726Y-104343200D01*
X179791412Y-104343200D01*
X180433123Y-104984911D01*
X180399091Y-105156000D01*
X180523548Y-105781687D01*
X180877971Y-106312120D01*
X181048405Y-106426000D01*
X180877971Y-106539880D01*
X180580686Y-106984800D01*
X175514000Y-106984800D01*
X175241836Y-107038937D01*
X175011106Y-107193105D01*
X173568412Y-108635800D01*
X167680589Y-108635800D01*
X166573200Y-107528412D01*
X166573200Y-105991078D01*
X167390378Y-105991078D01*
X167419917Y-106501428D01*
X167558389Y-106835729D01*
X167788984Y-106891410D01*
X168508395Y-106172000D01*
X167788984Y-105452590D01*
X167558389Y-105508271D01*
X167390378Y-105991078D01*
X166573200Y-105991078D01*
X166573200Y-105272984D01*
X167968590Y-105272984D01*
X168688000Y-105992395D01*
X168702142Y-105978252D01*
X168881748Y-106157858D01*
X168867605Y-106172000D01*
X168881748Y-106186142D01*
X168702142Y-106365748D01*
X168688000Y-106351605D01*
X167968590Y-107071016D01*
X168024271Y-107301611D01*
X168507078Y-107469622D01*
X169017428Y-107440083D01*
X169351729Y-107301611D01*
X169407410Y-107071018D01*
X169509072Y-107172680D01*
X169573910Y-107273441D01*
X169786110Y-107418431D01*
X170038000Y-107469440D01*
X171338000Y-107469440D01*
X171573317Y-107425162D01*
X171789441Y-107286090D01*
X171934431Y-107073890D01*
X171985440Y-106822000D01*
X171985440Y-105522000D01*
X171941162Y-105286683D01*
X171802090Y-105070559D01*
X171589890Y-104925569D01*
X171338000Y-104874560D01*
X170038000Y-104874560D01*
X169802683Y-104918838D01*
X169586559Y-105057910D01*
X169509063Y-105171329D01*
X169407410Y-105272982D01*
X169351729Y-105042389D01*
X168868922Y-104874378D01*
X168358572Y-104903917D01*
X168024271Y-105042389D01*
X167968590Y-105272984D01*
X166573200Y-105272984D01*
X166573200Y-104902000D01*
X166519063Y-104629836D01*
X166486657Y-104581337D01*
X166364895Y-104399106D01*
X164045925Y-102080136D01*
X164046069Y-101914337D01*
X163897507Y-101554788D01*
X163622659Y-101279460D01*
X163263370Y-101130270D01*
X162874337Y-101129931D01*
X162514788Y-101278493D01*
X162239460Y-101553341D01*
X162130510Y-101815722D01*
X161759925Y-101445136D01*
X161760069Y-101279337D01*
X161611507Y-100919788D01*
X161469630Y-100777663D01*
X171106931Y-100777663D01*
X171255493Y-101137212D01*
X171530341Y-101412540D01*
X171889630Y-101561730D01*
X172278663Y-101562069D01*
X172638212Y-101413507D01*
X172756726Y-101295200D01*
X176366206Y-101295200D01*
X176483341Y-101412540D01*
X176842630Y-101561730D01*
X177231663Y-101562069D01*
X177591212Y-101413507D01*
X177866540Y-101138659D01*
X178015730Y-100779370D01*
X178016069Y-100390337D01*
X177867507Y-100030788D01*
X177592659Y-99755460D01*
X177448419Y-99695566D01*
X180481876Y-99695566D01*
X180601223Y-99949000D01*
X182245000Y-99949000D01*
X182245000Y-98441000D01*
X182499000Y-98441000D01*
X182499000Y-99949000D01*
X184142777Y-99949000D01*
X184262124Y-99695566D01*
X184231144Y-99567645D01*
X183917922Y-99009683D01*
X183415020Y-98614058D01*
X182799000Y-98441000D01*
X182499000Y-98441000D01*
X182245000Y-98441000D01*
X181945000Y-98441000D01*
X181328980Y-98614058D01*
X180826078Y-99009683D01*
X180512856Y-99567645D01*
X180481876Y-99695566D01*
X177448419Y-99695566D01*
X177233370Y-99606270D01*
X176844337Y-99605931D01*
X176484788Y-99754493D01*
X176366274Y-99872800D01*
X172756794Y-99872800D01*
X172639659Y-99755460D01*
X172280370Y-99606270D01*
X171891337Y-99605931D01*
X171531788Y-99754493D01*
X171256460Y-100029341D01*
X171107270Y-100388630D01*
X171106931Y-100777663D01*
X161469630Y-100777663D01*
X161336659Y-100644460D01*
X160977370Y-100495270D01*
X160588337Y-100494931D01*
X160228788Y-100643493D01*
X159953460Y-100918341D01*
X159804270Y-101277630D01*
X159803931Y-101666663D01*
X159461200Y-101666663D01*
X159461200Y-95789750D01*
X161133000Y-95789750D01*
X161133000Y-96630309D01*
X161229673Y-96863698D01*
X161408301Y-97042327D01*
X161641690Y-97139000D01*
X162782250Y-97139000D01*
X162941000Y-96980250D01*
X162941000Y-95631000D01*
X163195000Y-95631000D01*
X163195000Y-96980250D01*
X163353750Y-97139000D01*
X164494310Y-97139000D01*
X164727699Y-97042327D01*
X164906327Y-96863698D01*
X165003000Y-96630309D01*
X165003000Y-95789750D01*
X164844250Y-95631000D01*
X163195000Y-95631000D01*
X162941000Y-95631000D01*
X161291750Y-95631000D01*
X161133000Y-95789750D01*
X159461200Y-95789750D01*
X159461200Y-94377691D01*
X161133000Y-94377691D01*
X161133000Y-95218250D01*
X161291750Y-95377000D01*
X162941000Y-95377000D01*
X162941000Y-93091000D01*
X163195000Y-93091000D01*
X163195000Y-95377000D01*
X164844250Y-95377000D01*
X165003000Y-95218250D01*
X165003000Y-94377691D01*
X164906327Y-94144302D01*
X164727699Y-93965673D01*
X164664830Y-93939632D01*
X164927144Y-93472355D01*
X164958124Y-93344434D01*
X164838777Y-93091000D01*
X163195000Y-93091000D01*
X162941000Y-93091000D01*
X161297223Y-93091000D01*
X161177876Y-93344434D01*
X161208856Y-93472355D01*
X161471170Y-93939632D01*
X161408301Y-93965673D01*
X161229673Y-94144302D01*
X161133000Y-94377691D01*
X159461200Y-94377691D01*
X159461200Y-88485194D01*
X161522823Y-86423571D01*
X161573971Y-86500120D01*
X161744405Y-86614000D01*
X161573971Y-86727880D01*
X161219548Y-87258313D01*
X161095091Y-87884000D01*
X161219548Y-88509687D01*
X161573971Y-89040120D01*
X161744405Y-89154000D01*
X161573971Y-89267880D01*
X161219548Y-89798313D01*
X161095091Y-90424000D01*
X161219548Y-91049687D01*
X161573971Y-91580120D01*
X161764188Y-91707219D01*
X161522078Y-91897683D01*
X161208856Y-92455645D01*
X161177876Y-92583566D01*
X161297223Y-92837000D01*
X162941000Y-92837000D01*
X162941000Y-92817000D01*
X163195000Y-92817000D01*
X163195000Y-92837000D01*
X164838777Y-92837000D01*
X164958124Y-92583566D01*
X164927144Y-92455645D01*
X164613922Y-91897683D01*
X164371812Y-91707219D01*
X164562029Y-91580120D01*
X164916452Y-91049687D01*
X165040909Y-90424000D01*
X164916452Y-89798313D01*
X164562029Y-89267880D01*
X164391595Y-89154000D01*
X164562029Y-89040120D01*
X164774456Y-88722200D01*
X170721806Y-88722200D01*
X177975685Y-95976079D01*
X177968627Y-95983137D01*
X177754788Y-96071493D01*
X177479460Y-96346341D01*
X177330270Y-96705630D01*
X177329931Y-97094663D01*
X177478493Y-97454212D01*
X177753341Y-97729540D01*
X178112630Y-97878730D01*
X178501663Y-97879069D01*
X178861212Y-97730507D01*
X179136540Y-97455659D01*
X179225986Y-97240250D01*
X179530015Y-96936221D01*
X179644766Y-96913396D01*
X179663318Y-96901000D01*
X183642000Y-96901000D01*
X183982206Y-96833329D01*
X184270618Y-96640618D01*
X184905618Y-96005618D01*
X185098330Y-95717205D01*
X185166000Y-95377000D01*
X185166000Y-93472000D01*
X185098329Y-93131794D01*
X184905618Y-92843382D01*
X184524618Y-92462382D01*
X184509142Y-92452041D01*
X184236206Y-92269671D01*
X183896000Y-92202000D01*
X183215599Y-92202000D01*
X183015981Y-92002033D01*
X182598832Y-91828818D01*
X182147150Y-91828424D01*
X181729699Y-92000911D01*
X181410033Y-92320019D01*
X181236818Y-92737168D01*
X181236513Y-93086260D01*
X180967257Y-93105317D01*
X180967576Y-92739150D01*
X180795089Y-92321699D01*
X180475981Y-92002033D01*
X180058832Y-91828818D01*
X179607150Y-91828424D01*
X179189699Y-92000911D01*
X178870033Y-92320019D01*
X178696818Y-92737168D01*
X178696424Y-93188850D01*
X178868911Y-93606301D01*
X179188019Y-93925967D01*
X179605168Y-94099182D01*
X179954260Y-94099487D01*
X179985398Y-94539435D01*
X180096468Y-94807582D01*
X180311619Y-94844776D01*
X180922395Y-94234000D01*
X180908253Y-94219858D01*
X181087858Y-94040253D01*
X181102000Y-94054395D01*
X181116143Y-94040253D01*
X181295748Y-94219858D01*
X181281605Y-94234000D01*
X181892381Y-94844776D01*
X182107532Y-94807582D01*
X182250491Y-94379120D01*
X182230683Y-94099257D01*
X182596850Y-94099576D01*
X182886246Y-93980000D01*
X183388000Y-93980000D01*
X183388000Y-95008764D01*
X183273764Y-95123000D01*
X181695727Y-95123000D01*
X181712776Y-95024381D01*
X181102000Y-94413605D01*
X180491224Y-95024381D01*
X180508273Y-95123000D01*
X179493394Y-95123000D01*
X171661697Y-87291303D01*
X171389766Y-87109604D01*
X171069000Y-87045800D01*
X164774456Y-87045800D01*
X164562029Y-86727880D01*
X164391595Y-86614000D01*
X164562029Y-86500120D01*
X164916452Y-85969687D01*
X165040909Y-85344000D01*
X164916452Y-84718313D01*
X164562029Y-84187880D01*
X164391595Y-84074000D01*
X164517174Y-83990091D01*
X171085000Y-83990091D01*
X171085000Y-84665909D01*
X171209457Y-85291596D01*
X171563880Y-85822029D01*
X172094313Y-86176452D01*
X172720000Y-86300909D01*
X173345687Y-86176452D01*
X173876120Y-85822029D01*
X173990000Y-85651595D01*
X174103880Y-85822029D01*
X174634313Y-86176452D01*
X175260000Y-86300909D01*
X175885687Y-86176452D01*
X176416120Y-85822029D01*
X176543219Y-85631812D01*
X176733683Y-85873922D01*
X177291645Y-86187144D01*
X177419566Y-86218124D01*
X177673000Y-86098777D01*
X177673000Y-84455000D01*
X177927000Y-84455000D01*
X177927000Y-86098777D01*
X178180434Y-86218124D01*
X178308355Y-86187144D01*
X178775632Y-85924830D01*
X178801673Y-85987699D01*
X178980302Y-86166327D01*
X179213691Y-86263000D01*
X180054250Y-86263000D01*
X180213000Y-86104250D01*
X180213000Y-84455000D01*
X180467000Y-84455000D01*
X180467000Y-86104250D01*
X180625750Y-86263000D01*
X181466309Y-86263000D01*
X181699698Y-86166327D01*
X181878327Y-85987699D01*
X181975000Y-85754310D01*
X181975000Y-84613750D01*
X181816250Y-84455000D01*
X180467000Y-84455000D01*
X180213000Y-84455000D01*
X177927000Y-84455000D01*
X177673000Y-84455000D01*
X177653000Y-84455000D01*
X177653000Y-84201000D01*
X177673000Y-84201000D01*
X177673000Y-82557223D01*
X177927000Y-82557223D01*
X177927000Y-84201000D01*
X180213000Y-84201000D01*
X180213000Y-82551750D01*
X180467000Y-82551750D01*
X180467000Y-84201000D01*
X181816250Y-84201000D01*
X181823129Y-84194121D01*
X188146484Y-84194121D01*
X188371154Y-84568168D01*
X189354388Y-84966880D01*
X190415357Y-84958975D01*
X191358846Y-84568168D01*
X191583516Y-84194121D01*
X189865000Y-82475605D01*
X188146484Y-84194121D01*
X181823129Y-84194121D01*
X181975000Y-84042250D01*
X181975000Y-82901690D01*
X181878327Y-82668301D01*
X181699698Y-82489673D01*
X181466309Y-82393000D01*
X180625750Y-82393000D01*
X180467000Y-82551750D01*
X180213000Y-82551750D01*
X180054250Y-82393000D01*
X179213691Y-82393000D01*
X178980302Y-82489673D01*
X178801673Y-82668301D01*
X178775632Y-82731170D01*
X178308355Y-82468856D01*
X178180434Y-82437876D01*
X177927000Y-82557223D01*
X177673000Y-82557223D01*
X177419566Y-82437876D01*
X177291645Y-82468856D01*
X176733683Y-82782078D01*
X176543219Y-83024188D01*
X176416120Y-82833971D01*
X175885687Y-82479548D01*
X175260000Y-82355091D01*
X174634313Y-82479548D01*
X174103880Y-82833971D01*
X173990000Y-83004405D01*
X173876120Y-82833971D01*
X173345687Y-82479548D01*
X172720000Y-82355091D01*
X172094313Y-82479548D01*
X171563880Y-82833971D01*
X171209457Y-83364404D01*
X171085000Y-83990091D01*
X164517174Y-83990091D01*
X164562029Y-83960120D01*
X164916452Y-83429687D01*
X165040909Y-82804000D01*
X164916452Y-82178313D01*
X164653909Y-81785388D01*
X187194120Y-81785388D01*
X187202025Y-82846357D01*
X187592832Y-83789846D01*
X187966879Y-84014516D01*
X189685395Y-82296000D01*
X190044605Y-82296000D01*
X191763121Y-84014516D01*
X192137168Y-83789846D01*
X192535880Y-82806612D01*
X192527975Y-81745643D01*
X192137168Y-80802154D01*
X191763121Y-80577484D01*
X190044605Y-82296000D01*
X189685395Y-82296000D01*
X187966879Y-80577484D01*
X187592832Y-80802154D01*
X187194120Y-81785388D01*
X164653909Y-81785388D01*
X164562029Y-81647880D01*
X164031596Y-81293457D01*
X163405909Y-81169000D01*
X162730091Y-81169000D01*
X162104404Y-81293457D01*
X161573971Y-81647880D01*
X161361544Y-81965800D01*
X161163000Y-81965800D01*
X160842234Y-82029604D01*
X160570303Y-82211303D01*
X155095303Y-87686303D01*
X154913604Y-87958234D01*
X154913604Y-87958235D01*
X154849800Y-88279000D01*
X154849800Y-112370169D01*
X150369010Y-107889380D01*
X150369010Y-107869950D01*
X150324732Y-107634633D01*
X150185660Y-107418509D01*
X149973460Y-107273519D01*
X149721570Y-107222510D01*
X147920710Y-107222510D01*
X147685393Y-107266788D01*
X147469269Y-107405860D01*
X147324279Y-107618060D01*
X147273270Y-107869950D01*
X147273270Y-108508202D01*
X147183380Y-108368509D01*
X146971180Y-108223519D01*
X146719290Y-108172510D01*
X144918430Y-108172510D01*
X144683113Y-108216788D01*
X144466989Y-108355860D01*
X144321999Y-108568060D01*
X144270990Y-108819950D01*
X144270990Y-109620050D01*
X144315268Y-109855367D01*
X144454340Y-110071491D01*
X144666540Y-110216481D01*
X144918430Y-110267490D01*
X144980660Y-110267490D01*
X144980660Y-112024946D01*
X142917303Y-114088303D01*
X142735604Y-114360234D01*
X142689582Y-114591605D01*
X142671800Y-114681000D01*
X142671800Y-119825608D01*
X142667659Y-119821460D01*
X142308370Y-119672270D01*
X141919337Y-119671931D01*
X141559788Y-119820493D01*
X141441274Y-119938800D01*
X140168842Y-119938800D01*
X140624655Y-119750462D01*
X141084846Y-119291073D01*
X141334206Y-118690547D01*
X141334774Y-118040306D01*
X141086462Y-117439345D01*
X140627073Y-116979154D01*
X140026547Y-116729794D01*
X139376306Y-116729226D01*
X138775345Y-116977538D01*
X138315154Y-117436927D01*
X138065794Y-118037453D01*
X138065226Y-118687694D01*
X138313538Y-119288655D01*
X138772927Y-119748846D01*
X139230387Y-119938800D01*
X125168842Y-119938800D01*
X125624655Y-119750462D01*
X126084846Y-119291073D01*
X126334206Y-118690547D01*
X126334774Y-118040306D01*
X126086462Y-117439345D01*
X125627073Y-116979154D01*
X125026547Y-116729794D01*
X124376306Y-116729226D01*
X123775345Y-116977538D01*
X123315154Y-117436927D01*
X123065794Y-118037453D01*
X123065226Y-118687694D01*
X123313538Y-119288655D01*
X123772927Y-119748846D01*
X124230387Y-119938800D01*
X117217288Y-119938800D01*
X117322600Y-119409359D01*
X117322600Y-119350641D01*
X117208526Y-118777152D01*
X116883670Y-118290971D01*
X116612828Y-118110000D01*
X116883670Y-117929029D01*
X117208526Y-117442848D01*
X117322600Y-116869359D01*
X117322600Y-116810641D01*
X117208526Y-116237152D01*
X116883670Y-115750971D01*
X116612828Y-115570000D01*
X116883670Y-115389029D01*
X117140474Y-115004694D01*
X122938226Y-115004694D01*
X123186538Y-115605655D01*
X123645927Y-116065846D01*
X124246453Y-116315206D01*
X124896694Y-116315774D01*
X125497655Y-116067462D01*
X125957846Y-115608073D01*
X126207206Y-115007547D01*
X126207208Y-115004694D01*
X137938226Y-115004694D01*
X138186538Y-115605655D01*
X138645927Y-116065846D01*
X139246453Y-116315206D01*
X139896694Y-116315774D01*
X140497655Y-116067462D01*
X140957846Y-115608073D01*
X141207206Y-115007547D01*
X141207774Y-114357306D01*
X140959462Y-113756345D01*
X140500073Y-113296154D01*
X139899547Y-113046794D01*
X139249306Y-113046226D01*
X138648345Y-113294538D01*
X138188154Y-113753927D01*
X137938794Y-114354453D01*
X137938226Y-115004694D01*
X126207208Y-115004694D01*
X126207774Y-114357306D01*
X125959462Y-113756345D01*
X125500073Y-113296154D01*
X124899547Y-113046794D01*
X124249306Y-113046226D01*
X123648345Y-113294538D01*
X123188154Y-113753927D01*
X122938794Y-114354453D01*
X122938226Y-115004694D01*
X117140474Y-115004694D01*
X117208526Y-114902848D01*
X117322600Y-114329359D01*
X117322600Y-114270641D01*
X117208526Y-113697152D01*
X116883670Y-113210971D01*
X116612828Y-113030000D01*
X116883670Y-112849029D01*
X117051269Y-112598200D01*
X128270000Y-112598200D01*
X128590766Y-112534396D01*
X128862697Y-112352697D01*
X135224316Y-105991078D01*
X136402378Y-105991078D01*
X136431917Y-106501428D01*
X136570389Y-106835729D01*
X136800984Y-106891410D01*
X137520395Y-106172000D01*
X136800984Y-105452590D01*
X136570389Y-105508271D01*
X136402378Y-105991078D01*
X135224316Y-105991078D01*
X135593697Y-105621697D01*
X135775396Y-105349765D01*
X135839200Y-105029000D01*
X135839200Y-98329750D01*
X136749000Y-98329750D01*
X136749000Y-99170309D01*
X136845673Y-99403698D01*
X137024301Y-99582327D01*
X137257690Y-99679000D01*
X138398250Y-99679000D01*
X138557000Y-99520250D01*
X138557000Y-98171000D01*
X138811000Y-98171000D01*
X138811000Y-99520250D01*
X138969750Y-99679000D01*
X140110310Y-99679000D01*
X140343699Y-99582327D01*
X140522327Y-99403698D01*
X140619000Y-99170309D01*
X140619000Y-98329750D01*
X140460250Y-98171000D01*
X138811000Y-98171000D01*
X138557000Y-98171000D01*
X136907750Y-98171000D01*
X136749000Y-98329750D01*
X135839200Y-98329750D01*
X135839200Y-96917691D01*
X136749000Y-96917691D01*
X136749000Y-97758250D01*
X136907750Y-97917000D01*
X138557000Y-97917000D01*
X138557000Y-95631000D01*
X138811000Y-95631000D01*
X138811000Y-97917000D01*
X140460250Y-97917000D01*
X140619000Y-97758250D01*
X140619000Y-96917691D01*
X140522327Y-96684302D01*
X140343699Y-96505673D01*
X140280830Y-96479632D01*
X140543144Y-96012355D01*
X140574124Y-95884434D01*
X140454777Y-95631000D01*
X138811000Y-95631000D01*
X138557000Y-95631000D01*
X136913223Y-95631000D01*
X136793876Y-95884434D01*
X136824856Y-96012355D01*
X137087170Y-96479632D01*
X137024301Y-96505673D01*
X136845673Y-96684302D01*
X136749000Y-96917691D01*
X135839200Y-96917691D01*
X135839200Y-94454194D01*
X136813674Y-93479720D01*
X136835548Y-93589687D01*
X137189971Y-94120120D01*
X137380188Y-94247219D01*
X137138078Y-94437683D01*
X136824856Y-94995645D01*
X136793876Y-95123566D01*
X136913223Y-95377000D01*
X138557000Y-95377000D01*
X138557000Y-95357000D01*
X138811000Y-95357000D01*
X138811000Y-95377000D01*
X140454777Y-95377000D01*
X140565495Y-95141889D01*
X140766800Y-95343194D01*
X140766800Y-103919806D01*
X139812046Y-104874560D01*
X139050000Y-104874560D01*
X138814683Y-104918838D01*
X138598559Y-105057910D01*
X138521063Y-105171329D01*
X138419410Y-105272982D01*
X138363729Y-105042389D01*
X137880922Y-104874378D01*
X137370572Y-104903917D01*
X137036271Y-105042389D01*
X136980590Y-105272984D01*
X137700000Y-105992395D01*
X137714142Y-105978252D01*
X137893748Y-106157858D01*
X137879605Y-106172000D01*
X137893748Y-106186142D01*
X137714142Y-106365748D01*
X137700000Y-106351605D01*
X136980590Y-107071016D01*
X137036271Y-107301611D01*
X137519078Y-107469622D01*
X138029428Y-107440083D01*
X138363729Y-107301611D01*
X138419410Y-107071018D01*
X138521072Y-107172680D01*
X138585910Y-107273441D01*
X138798110Y-107418431D01*
X139050000Y-107469440D01*
X140350000Y-107469440D01*
X140585317Y-107425162D01*
X140801441Y-107286090D01*
X140946431Y-107073890D01*
X140997440Y-106822000D01*
X140997440Y-106059954D01*
X142197697Y-104859697D01*
X142379396Y-104587765D01*
X142443200Y-104267000D01*
X142443200Y-95789750D01*
X148941000Y-95789750D01*
X148941000Y-96630309D01*
X149037673Y-96863698D01*
X149216301Y-97042327D01*
X149449690Y-97139000D01*
X150590250Y-97139000D01*
X150749000Y-96980250D01*
X150749000Y-95631000D01*
X151003000Y-95631000D01*
X151003000Y-96980250D01*
X151161750Y-97139000D01*
X152302310Y-97139000D01*
X152535699Y-97042327D01*
X152714327Y-96863698D01*
X152811000Y-96630309D01*
X152811000Y-95789750D01*
X152652250Y-95631000D01*
X151003000Y-95631000D01*
X150749000Y-95631000D01*
X149099750Y-95631000D01*
X148941000Y-95789750D01*
X142443200Y-95789750D01*
X142443200Y-94996000D01*
X142413120Y-94844776D01*
X142379396Y-94675234D01*
X142197697Y-94403303D01*
X142172085Y-94377691D01*
X148941000Y-94377691D01*
X148941000Y-95218250D01*
X149099750Y-95377000D01*
X150749000Y-95377000D01*
X150749000Y-93091000D01*
X151003000Y-93091000D01*
X151003000Y-95377000D01*
X152652250Y-95377000D01*
X152811000Y-95218250D01*
X152811000Y-94377691D01*
X152714327Y-94144302D01*
X152535699Y-93965673D01*
X152472830Y-93939632D01*
X152735144Y-93472355D01*
X152766124Y-93344434D01*
X152646777Y-93091000D01*
X151003000Y-93091000D01*
X150749000Y-93091000D01*
X149105223Y-93091000D01*
X148985876Y-93344434D01*
X149016856Y-93472355D01*
X149279170Y-93939632D01*
X149216301Y-93965673D01*
X149037673Y-94144302D01*
X148941000Y-94377691D01*
X142172085Y-94377691D01*
X140631710Y-92837316D01*
X140532452Y-92338313D01*
X140178029Y-91807880D01*
X140007595Y-91694000D01*
X140178029Y-91580120D01*
X140532452Y-91049687D01*
X140656909Y-90424000D01*
X140532452Y-89798313D01*
X140178029Y-89267880D01*
X140007595Y-89154000D01*
X140178029Y-89040120D01*
X140532452Y-88509687D01*
X140656909Y-87884000D01*
X140532452Y-87258313D01*
X140178029Y-86727880D01*
X140007595Y-86614000D01*
X140178029Y-86500120D01*
X140532452Y-85969687D01*
X140656909Y-85344000D01*
X140532452Y-84718313D01*
X140178029Y-84187880D01*
X140007595Y-84074000D01*
X140178029Y-83960120D01*
X140532452Y-83429687D01*
X140656909Y-82804000D01*
X148903091Y-82804000D01*
X149027548Y-83429687D01*
X149381971Y-83960120D01*
X149552405Y-84074000D01*
X149381971Y-84187880D01*
X149027548Y-84718313D01*
X148903091Y-85344000D01*
X149027548Y-85969687D01*
X149381971Y-86500120D01*
X149552405Y-86614000D01*
X149381971Y-86727880D01*
X149027548Y-87258313D01*
X148903091Y-87884000D01*
X149027548Y-88509687D01*
X149381971Y-89040120D01*
X149552405Y-89154000D01*
X149381971Y-89267880D01*
X149027548Y-89798313D01*
X148903091Y-90424000D01*
X149027548Y-91049687D01*
X149381971Y-91580120D01*
X149572188Y-91707219D01*
X149330078Y-91897683D01*
X149016856Y-92455645D01*
X148985876Y-92583566D01*
X149105223Y-92837000D01*
X150749000Y-92837000D01*
X150749000Y-92817000D01*
X151003000Y-92817000D01*
X151003000Y-92837000D01*
X152646777Y-92837000D01*
X152766124Y-92583566D01*
X152735144Y-92455645D01*
X152421922Y-91897683D01*
X152179812Y-91707219D01*
X152370029Y-91580120D01*
X152724452Y-91049687D01*
X152848909Y-90424000D01*
X152724452Y-89798313D01*
X152370029Y-89267880D01*
X152199595Y-89154000D01*
X152370029Y-89040120D01*
X152724452Y-88509687D01*
X152848909Y-87884000D01*
X152724452Y-87258313D01*
X152370029Y-86727880D01*
X152199595Y-86614000D01*
X152370029Y-86500120D01*
X152724452Y-85969687D01*
X152848909Y-85344000D01*
X152724452Y-84718313D01*
X152370029Y-84187880D01*
X152199595Y-84074000D01*
X152370029Y-83960120D01*
X152724452Y-83429687D01*
X152848909Y-82804000D01*
X152724452Y-82178313D01*
X152370029Y-81647880D01*
X151839596Y-81293457D01*
X151213909Y-81169000D01*
X150538091Y-81169000D01*
X149912404Y-81293457D01*
X149381971Y-81647880D01*
X149027548Y-82178313D01*
X148903091Y-82804000D01*
X140656909Y-82804000D01*
X140532452Y-82178313D01*
X140178029Y-81647880D01*
X139647596Y-81293457D01*
X139021909Y-81169000D01*
X138346091Y-81169000D01*
X137720404Y-81293457D01*
X137189971Y-81647880D01*
X136835548Y-82178313D01*
X136711091Y-82804000D01*
X136835548Y-83429687D01*
X137189971Y-83960120D01*
X137360405Y-84074000D01*
X137189971Y-84187880D01*
X136977544Y-84505800D01*
X136652000Y-84505800D01*
X136331234Y-84569604D01*
X136059303Y-84751303D01*
X131741303Y-89069303D01*
X131559604Y-89341234D01*
X131559604Y-89341235D01*
X131495800Y-89662000D01*
X131495800Y-102014806D01*
X127668806Y-105841800D01*
X117051269Y-105841800D01*
X116883670Y-105590971D01*
X116612839Y-105410008D01*
X117030821Y-105028490D01*
X117278968Y-104499027D01*
X117158469Y-104267000D01*
X115951000Y-104267000D01*
X115951000Y-104287000D01*
X115697000Y-104287000D01*
X115697000Y-104267000D01*
X115677000Y-104267000D01*
X115677000Y-104013000D01*
X115697000Y-104013000D01*
X115697000Y-103993000D01*
X115951000Y-103993000D01*
X115951000Y-104013000D01*
X117158469Y-104013000D01*
X117278968Y-103780973D01*
X117030821Y-103251510D01*
X116612839Y-102869992D01*
X116883670Y-102689029D01*
X117208526Y-102202848D01*
X117322600Y-101629359D01*
X117322600Y-101570641D01*
X117208526Y-100997152D01*
X116883670Y-100510971D01*
X116612828Y-100330000D01*
X116883670Y-100149029D01*
X117208526Y-99662848D01*
X117322600Y-99089359D01*
X117322600Y-99030641D01*
X117289513Y-98864301D01*
X121958075Y-103532864D01*
X121957931Y-103698663D01*
X122106493Y-104058212D01*
X122381341Y-104333540D01*
X122740630Y-104482730D01*
X123129663Y-104483069D01*
X123489212Y-104334507D01*
X123764540Y-104059659D01*
X123913730Y-103700370D01*
X123914069Y-103311337D01*
X123765507Y-102951788D01*
X123490659Y-102676460D01*
X123131370Y-102527270D01*
X122963913Y-102527124D01*
X117266779Y-96829991D01*
X117322600Y-96549359D01*
X117322600Y-96490641D01*
X117208526Y-95917152D01*
X116883670Y-95430971D01*
X116612828Y-95250000D01*
X116883670Y-95069029D01*
X117208526Y-94582848D01*
X117271800Y-94264748D01*
X117271800Y-96139000D01*
X117325937Y-96411165D01*
X117480106Y-96641894D01*
X124129800Y-103291589D01*
X124129800Y-103976206D01*
X124012460Y-104093341D01*
X123863270Y-104452630D01*
X123862931Y-104841663D01*
X124011493Y-105201212D01*
X124286341Y-105476540D01*
X124645630Y-105625730D01*
X125034663Y-105626069D01*
X125394212Y-105477507D01*
X125669540Y-105202659D01*
X125818730Y-104843370D01*
X125819069Y-104454337D01*
X125670507Y-104094788D01*
X125552200Y-103976274D01*
X125552200Y-102997000D01*
X125498063Y-102724836D01*
X125474138Y-102689029D01*
X125343895Y-102494106D01*
X121179539Y-98329750D01*
X124049000Y-98329750D01*
X124049000Y-99170309D01*
X124145673Y-99403698D01*
X124324301Y-99582327D01*
X124557690Y-99679000D01*
X125698250Y-99679000D01*
X125857000Y-99520250D01*
X125857000Y-98171000D01*
X126111000Y-98171000D01*
X126111000Y-99520250D01*
X126269750Y-99679000D01*
X127410310Y-99679000D01*
X127643699Y-99582327D01*
X127822327Y-99403698D01*
X127919000Y-99170309D01*
X127919000Y-98329750D01*
X127760250Y-98171000D01*
X126111000Y-98171000D01*
X125857000Y-98171000D01*
X124207750Y-98171000D01*
X124049000Y-98329750D01*
X121179539Y-98329750D01*
X119767480Y-96917691D01*
X124049000Y-96917691D01*
X124049000Y-97758250D01*
X124207750Y-97917000D01*
X125857000Y-97917000D01*
X125857000Y-95631000D01*
X126111000Y-95631000D01*
X126111000Y-97917000D01*
X127760250Y-97917000D01*
X127919000Y-97758250D01*
X127919000Y-96917691D01*
X127822327Y-96684302D01*
X127643699Y-96505673D01*
X127580830Y-96479632D01*
X127843144Y-96012355D01*
X127874124Y-95884434D01*
X127754777Y-95631000D01*
X126111000Y-95631000D01*
X125857000Y-95631000D01*
X124213223Y-95631000D01*
X124093876Y-95884434D01*
X124124856Y-96012355D01*
X124387170Y-96479632D01*
X124324301Y-96505673D01*
X124145673Y-96684302D01*
X124049000Y-96917691D01*
X119767480Y-96917691D01*
X118694200Y-95844412D01*
X118694200Y-89662000D01*
X118673327Y-89557063D01*
X118640063Y-89389835D01*
X118485895Y-89159106D01*
X117723894Y-88397106D01*
X117493165Y-88242937D01*
X117221000Y-88188800D01*
X117136127Y-88188800D01*
X116883670Y-87810971D01*
X116612839Y-87630008D01*
X117030821Y-87248490D01*
X117278968Y-86719027D01*
X117158469Y-86487000D01*
X115951000Y-86487000D01*
X115951000Y-86507000D01*
X115697000Y-86507000D01*
X115697000Y-86487000D01*
X115677000Y-86487000D01*
X115677000Y-86233000D01*
X115697000Y-86233000D01*
X115697000Y-86213000D01*
X115951000Y-86213000D01*
X115951000Y-86233000D01*
X117158469Y-86233000D01*
X117278968Y-86000973D01*
X117030821Y-85471510D01*
X116835469Y-85293200D01*
X120118605Y-85293200D01*
X120454630Y-85432730D01*
X120843663Y-85433069D01*
X121203212Y-85284507D01*
X121478540Y-85009659D01*
X121627730Y-84650370D01*
X121628069Y-84261337D01*
X121479507Y-83901788D01*
X121220372Y-83642200D01*
X124277544Y-83642200D01*
X124489971Y-83960120D01*
X124660405Y-84074000D01*
X124489971Y-84187880D01*
X124135548Y-84718313D01*
X124011091Y-85344000D01*
X124135548Y-85969687D01*
X124489971Y-86500120D01*
X124660405Y-86614000D01*
X124489971Y-86727880D01*
X124135548Y-87258313D01*
X124011091Y-87884000D01*
X124135548Y-88509687D01*
X124489971Y-89040120D01*
X124660405Y-89154000D01*
X124489971Y-89267880D01*
X124135548Y-89798313D01*
X124011091Y-90424000D01*
X124135548Y-91049687D01*
X124489971Y-91580120D01*
X124660405Y-91694000D01*
X124489971Y-91807880D01*
X124135548Y-92338313D01*
X124011091Y-92964000D01*
X124135548Y-93589687D01*
X124489971Y-94120120D01*
X124680188Y-94247219D01*
X124438078Y-94437683D01*
X124124856Y-94995645D01*
X124093876Y-95123566D01*
X124213223Y-95377000D01*
X125857000Y-95377000D01*
X125857000Y-95357000D01*
X126111000Y-95357000D01*
X126111000Y-95377000D01*
X127754777Y-95377000D01*
X127874124Y-95123566D01*
X127843144Y-94995645D01*
X127529922Y-94437683D01*
X127287812Y-94247219D01*
X127478029Y-94120120D01*
X127832452Y-93589687D01*
X127956909Y-92964000D01*
X127832452Y-92338313D01*
X127478029Y-91807880D01*
X127307595Y-91694000D01*
X127478029Y-91580120D01*
X127832452Y-91049687D01*
X127956909Y-90424000D01*
X127832452Y-89798313D01*
X127478029Y-89267880D01*
X127307595Y-89154000D01*
X127478029Y-89040120D01*
X127832452Y-88509687D01*
X127956909Y-87884000D01*
X127832452Y-87258313D01*
X127478029Y-86727880D01*
X127307595Y-86614000D01*
X127478029Y-86500120D01*
X127832452Y-85969687D01*
X127956909Y-85344000D01*
X127832452Y-84718313D01*
X127478029Y-84187880D01*
X127307595Y-84074000D01*
X127478029Y-83960120D01*
X127832452Y-83429687D01*
X127956909Y-82804000D01*
X127832452Y-82178313D01*
X127478029Y-81647880D01*
X126947596Y-81293457D01*
X126321909Y-81169000D01*
X125646091Y-81169000D01*
X125020404Y-81293457D01*
X124489971Y-81647880D01*
X124277544Y-81965800D01*
X111760000Y-81965800D01*
X111439234Y-82029604D01*
X111167303Y-82211303D01*
X109135303Y-84243303D01*
X108953604Y-84515234D01*
X108926724Y-84650370D01*
X108889800Y-84836000D01*
X103007141Y-84836000D01*
X103547357Y-84831975D01*
X104490846Y-84441168D01*
X104715516Y-84067121D01*
X102997000Y-82348605D01*
X101278484Y-84067121D01*
X100339039Y-84067121D01*
X100336305Y-82724862D01*
X100724832Y-83662846D01*
X101098879Y-83887516D01*
X102817395Y-82169000D01*
X103176605Y-82169000D01*
X104895121Y-83887516D01*
X105269168Y-83662846D01*
X105667880Y-82679612D01*
X105659975Y-81618643D01*
X105269168Y-80675154D01*
X104895121Y-80450484D01*
X103176605Y-82169000D01*
X102817395Y-82169000D01*
X101098879Y-80450484D01*
X100724832Y-80675154D01*
X100334093Y-81638726D01*
X100330107Y-79681499D01*
X100382606Y-79629000D01*
X102149756Y-79629000D01*
X101503154Y-79896832D01*
X101503154Y-79896832D01*
G37*
X101503154Y-79896832D02*
X101278484Y-80270879D01*
X102997000Y-81989395D01*
X104715516Y-80270879D01*
X104490846Y-79896832D01*
X103830365Y-79629000D01*
X189854858Y-79629000D01*
X189314643Y-79633025D01*
X188371154Y-80023832D01*
X188146484Y-80397879D01*
X189865000Y-82116395D01*
X191583516Y-80397879D01*
X191358846Y-80023832D01*
X190385180Y-79629000D01*
X192659000Y-79629000D01*
X192659000Y-141859000D01*
X189875142Y-141859000D01*
X190415357Y-141854975D01*
X191358846Y-141464168D01*
X191583516Y-141090121D01*
X189865000Y-139371605D01*
X188146484Y-141090121D01*
X188371154Y-141464168D01*
X189344820Y-141859000D01*
X103971244Y-141859000D01*
X104617846Y-141591168D01*
X104842516Y-141217121D01*
X103124000Y-139498605D01*
X101405484Y-141217121D01*
X101630154Y-141591168D01*
X102290635Y-141859000D01*
X100456742Y-141859000D01*
X100450529Y-138808388D01*
X100453120Y-138808388D01*
X100461025Y-139869357D01*
X100851832Y-140812846D01*
X101225879Y-141037516D01*
X102944395Y-139319000D01*
X103303605Y-139319000D01*
X105022121Y-141037516D01*
X105396168Y-140812846D01*
X105794880Y-139829612D01*
X105786975Y-138768643D01*
X105659856Y-138461750D01*
X124049000Y-138461750D01*
X124049000Y-139302309D01*
X124145673Y-139535698D01*
X124324301Y-139714327D01*
X124557690Y-139811000D01*
X125698250Y-139811000D01*
X125857000Y-139652250D01*
X125857000Y-138303000D01*
X126111000Y-138303000D01*
X126111000Y-139652250D01*
X126269750Y-139811000D01*
X127410310Y-139811000D01*
X127643699Y-139714327D01*
X127822327Y-139535698D01*
X127919000Y-139302309D01*
X127919000Y-138461750D01*
X136749000Y-138461750D01*
X136749000Y-139302309D01*
X136845673Y-139535698D01*
X137024301Y-139714327D01*
X137257690Y-139811000D01*
X138398250Y-139811000D01*
X138557000Y-139652250D01*
X138557000Y-138303000D01*
X138811000Y-138303000D01*
X138811000Y-139652250D01*
X138969750Y-139811000D01*
X140110310Y-139811000D01*
X140343699Y-139714327D01*
X140522327Y-139535698D01*
X140619000Y-139302309D01*
X140619000Y-138461750D01*
X148941000Y-138461750D01*
X148941000Y-139302309D01*
X149037673Y-139535698D01*
X149216301Y-139714327D01*
X149449690Y-139811000D01*
X150590250Y-139811000D01*
X150749000Y-139652250D01*
X150749000Y-138303000D01*
X151003000Y-138303000D01*
X151003000Y-139652250D01*
X151161750Y-139811000D01*
X152302310Y-139811000D01*
X152535699Y-139714327D01*
X152714327Y-139535698D01*
X152811000Y-139302309D01*
X152811000Y-138461750D01*
X161133000Y-138461750D01*
X161133000Y-139302309D01*
X161229673Y-139535698D01*
X161408301Y-139714327D01*
X161641690Y-139811000D01*
X162782250Y-139811000D01*
X162941000Y-139652250D01*
X162941000Y-138303000D01*
X163195000Y-138303000D01*
X163195000Y-139652250D01*
X163353750Y-139811000D01*
X164494310Y-139811000D01*
X164727699Y-139714327D01*
X164906327Y-139535698D01*
X165003000Y-139302309D01*
X165003000Y-138461750D01*
X172817000Y-138461750D01*
X172817000Y-139302309D01*
X172913673Y-139535698D01*
X173092301Y-139714327D01*
X173325690Y-139811000D01*
X174466250Y-139811000D01*
X174625000Y-139652250D01*
X174625000Y-138303000D01*
X174879000Y-138303000D01*
X174879000Y-139652250D01*
X175037750Y-139811000D01*
X176178310Y-139811000D01*
X176411699Y-139714327D01*
X176590327Y-139535698D01*
X176687000Y-139302309D01*
X176687000Y-138681388D01*
X187194120Y-138681388D01*
X187202025Y-139742357D01*
X187592832Y-140685846D01*
X187966879Y-140910516D01*
X189685395Y-139192000D01*
X190044605Y-139192000D01*
X191763121Y-140910516D01*
X192137168Y-140685846D01*
X192535880Y-139702612D01*
X192527975Y-138641643D01*
X192137168Y-137698154D01*
X191763121Y-137473484D01*
X190044605Y-139192000D01*
X189685395Y-139192000D01*
X187966879Y-137473484D01*
X187592832Y-137698154D01*
X187194120Y-138681388D01*
X176687000Y-138681388D01*
X176687000Y-138461750D01*
X176528250Y-138303000D01*
X174879000Y-138303000D01*
X174625000Y-138303000D01*
X172975750Y-138303000D01*
X172817000Y-138461750D01*
X165003000Y-138461750D01*
X164844250Y-138303000D01*
X163195000Y-138303000D01*
X162941000Y-138303000D01*
X161291750Y-138303000D01*
X161133000Y-138461750D01*
X152811000Y-138461750D01*
X152652250Y-138303000D01*
X151003000Y-138303000D01*
X150749000Y-138303000D01*
X149099750Y-138303000D01*
X148941000Y-138461750D01*
X140619000Y-138461750D01*
X140460250Y-138303000D01*
X138811000Y-138303000D01*
X138557000Y-138303000D01*
X136907750Y-138303000D01*
X136749000Y-138461750D01*
X127919000Y-138461750D01*
X127760250Y-138303000D01*
X126111000Y-138303000D01*
X125857000Y-138303000D01*
X124207750Y-138303000D01*
X124049000Y-138461750D01*
X105659856Y-138461750D01*
X105396168Y-137825154D01*
X105022121Y-137600484D01*
X103303605Y-139319000D01*
X102944395Y-139319000D01*
X101225879Y-137600484D01*
X100851832Y-137825154D01*
X100453120Y-138808388D01*
X100450529Y-138808388D01*
X100447704Y-137420879D01*
X101405484Y-137420879D01*
X103124000Y-139139395D01*
X104842516Y-137420879D01*
X104619564Y-137049691D01*
X124049000Y-137049691D01*
X124049000Y-137890250D01*
X124207750Y-138049000D01*
X125857000Y-138049000D01*
X125857000Y-135763000D01*
X126111000Y-135763000D01*
X126111000Y-138049000D01*
X127760250Y-138049000D01*
X127919000Y-137890250D01*
X127919000Y-137049691D01*
X136749000Y-137049691D01*
X136749000Y-137890250D01*
X136907750Y-138049000D01*
X138557000Y-138049000D01*
X138557000Y-135763000D01*
X138811000Y-135763000D01*
X138811000Y-138049000D01*
X140460250Y-138049000D01*
X140619000Y-137890250D01*
X140619000Y-137049691D01*
X148941000Y-137049691D01*
X148941000Y-137890250D01*
X149099750Y-138049000D01*
X150749000Y-138049000D01*
X150749000Y-135763000D01*
X151003000Y-135763000D01*
X151003000Y-138049000D01*
X152652250Y-138049000D01*
X152811000Y-137890250D01*
X152811000Y-137049691D01*
X161133000Y-137049691D01*
X161133000Y-137890250D01*
X161291750Y-138049000D01*
X162941000Y-138049000D01*
X162941000Y-135763000D01*
X163195000Y-135763000D01*
X163195000Y-138049000D01*
X164844250Y-138049000D01*
X165003000Y-137890250D01*
X165003000Y-137049691D01*
X172817000Y-137049691D01*
X172817000Y-137890250D01*
X172975750Y-138049000D01*
X174625000Y-138049000D01*
X174625000Y-135763000D01*
X174879000Y-135763000D01*
X174879000Y-138049000D01*
X176528250Y-138049000D01*
X176687000Y-137890250D01*
X176687000Y-137293879D01*
X188146484Y-137293879D01*
X189865000Y-139012395D01*
X191583516Y-137293879D01*
X191358846Y-136919832D01*
X190375612Y-136521120D01*
X189314643Y-136529025D01*
X188371154Y-136919832D01*
X188146484Y-137293879D01*
X176687000Y-137293879D01*
X176687000Y-137049691D01*
X176590327Y-136816302D01*
X176411699Y-136637673D01*
X176348830Y-136611632D01*
X176611144Y-136144355D01*
X176642124Y-136016434D01*
X176522777Y-135763000D01*
X174879000Y-135763000D01*
X174625000Y-135763000D01*
X172981223Y-135763000D01*
X172861876Y-136016434D01*
X172892856Y-136144355D01*
X173155170Y-136611632D01*
X173092301Y-136637673D01*
X172913673Y-136816302D01*
X172817000Y-137049691D01*
X165003000Y-137049691D01*
X164906327Y-136816302D01*
X164727699Y-136637673D01*
X164664830Y-136611632D01*
X164927144Y-136144355D01*
X164958124Y-136016434D01*
X164838777Y-135763000D01*
X163195000Y-135763000D01*
X162941000Y-135763000D01*
X161297223Y-135763000D01*
X161177876Y-136016434D01*
X161208856Y-136144355D01*
X161471170Y-136611632D01*
X161408301Y-136637673D01*
X161229673Y-136816302D01*
X161133000Y-137049691D01*
X152811000Y-137049691D01*
X152714327Y-136816302D01*
X152535699Y-136637673D01*
X152472830Y-136611632D01*
X152735144Y-136144355D01*
X152766124Y-136016434D01*
X152646777Y-135763000D01*
X151003000Y-135763000D01*
X150749000Y-135763000D01*
X149105223Y-135763000D01*
X148985876Y-136016434D01*
X149016856Y-136144355D01*
X149279170Y-136611632D01*
X149216301Y-136637673D01*
X149037673Y-136816302D01*
X148941000Y-137049691D01*
X140619000Y-137049691D01*
X140522327Y-136816302D01*
X140343699Y-136637673D01*
X140280830Y-136611632D01*
X140543144Y-136144355D01*
X140574124Y-136016434D01*
X140454777Y-135763000D01*
X138811000Y-135763000D01*
X138557000Y-135763000D01*
X136913223Y-135763000D01*
X136793876Y-136016434D01*
X136824856Y-136144355D01*
X137087170Y-136611632D01*
X137024301Y-136637673D01*
X136845673Y-136816302D01*
X136749000Y-137049691D01*
X127919000Y-137049691D01*
X127822327Y-136816302D01*
X127643699Y-136637673D01*
X127580830Y-136611632D01*
X127843144Y-136144355D01*
X127874124Y-136016434D01*
X127754777Y-135763000D01*
X126111000Y-135763000D01*
X125857000Y-135763000D01*
X124213223Y-135763000D01*
X124093876Y-136016434D01*
X124124856Y-136144355D01*
X124387170Y-136611632D01*
X124324301Y-136637673D01*
X124145673Y-136816302D01*
X124049000Y-137049691D01*
X104619564Y-137049691D01*
X104617846Y-137046832D01*
X103634612Y-136648120D01*
X102573643Y-136656025D01*
X101630154Y-137046832D01*
X101405484Y-137420879D01*
X100447704Y-137420879D01*
X100339039Y-84067121D01*
X101278484Y-84067121D01*
X101503154Y-84441168D01*
X102486388Y-84839880D01*
X103007141Y-84836000D01*
X108889800Y-84836000D01*
X108889800Y-106553000D01*
X108953604Y-106873766D01*
X109135303Y-107145697D01*
X109262303Y-107272697D01*
X109534234Y-107454396D01*
X109855000Y-107518200D01*
X112056731Y-107518200D01*
X112224330Y-107769029D01*
X112495172Y-107950000D01*
X112224330Y-108130971D01*
X111986104Y-108487502D01*
X111701370Y-108369270D01*
X111312337Y-108368931D01*
X110952788Y-108517493D01*
X110677460Y-108792341D01*
X110528270Y-109151630D01*
X110527931Y-109540663D01*
X110667800Y-109879173D01*
X110667800Y-122301000D01*
X110721937Y-122573165D01*
X110876106Y-122803894D01*
X111765106Y-123692894D01*
X111933877Y-123805664D01*
X111899474Y-123857152D01*
X111785400Y-124430641D01*
X111785400Y-124489359D01*
X111899474Y-125062848D01*
X112224330Y-125549029D01*
X112495172Y-125730000D01*
X112224330Y-125910971D01*
X111899474Y-126397152D01*
X111785400Y-126970641D01*
X111785400Y-127029359D01*
X111899474Y-127602848D01*
X112224330Y-128089029D01*
X112495161Y-128269992D01*
X112077179Y-128651510D01*
X111829032Y-129180973D01*
X111949531Y-129413000D01*
X113157000Y-129413000D01*
X113157000Y-129393000D01*
X113411000Y-129393000D01*
X113411000Y-129413000D01*
X113431000Y-129413000D01*
X113431000Y-129667000D01*
X113411000Y-129667000D01*
X113411000Y-129687000D01*
X113157000Y-129687000D01*
X113157000Y-129667000D01*
X111949531Y-129667000D01*
X111829032Y-129899027D01*
X112077179Y-130428490D01*
X112495161Y-130810008D01*
X112224330Y-130990971D01*
X111899474Y-131477152D01*
X111785400Y-132050641D01*
X111785400Y-132109359D01*
X111899474Y-132682848D01*
X112224330Y-133169029D01*
X112495172Y-133350000D01*
X112224330Y-133530971D01*
X111899474Y-134017152D01*
X111785400Y-134590641D01*
X111785400Y-134649359D01*
X111899474Y-135222848D01*
X112224330Y-135709029D01*
X112710511Y-136033885D01*
X113284000Y-136147959D01*
X113857489Y-136033885D01*
X114343670Y-135709029D01*
X114352805Y-135695358D01*
X114357238Y-135718917D01*
X114496310Y-135935041D01*
X114708510Y-136080031D01*
X114960400Y-136131040D01*
X116687600Y-136131040D01*
X116922917Y-136086762D01*
X117139041Y-135947690D01*
X117284031Y-135735490D01*
X117335040Y-135483600D01*
X117335040Y-133756400D01*
X117290762Y-133521083D01*
X117151690Y-133304959D01*
X116939490Y-133159969D01*
X116895655Y-133151092D01*
X117017325Y-132969000D01*
X119888000Y-132969000D01*
X120228206Y-132901329D01*
X120516618Y-132708618D01*
X123056618Y-130168618D01*
X123249329Y-129880206D01*
X123317000Y-129540000D01*
X123317000Y-128905000D01*
X124311488Y-128905000D01*
X124489971Y-129172120D01*
X124660405Y-129286000D01*
X124489971Y-129399880D01*
X124135548Y-129930313D01*
X124011091Y-130556000D01*
X124135548Y-131181687D01*
X124489971Y-131712120D01*
X124660405Y-131826000D01*
X124489971Y-131939880D01*
X124135548Y-132470313D01*
X124011091Y-133096000D01*
X124135548Y-133721687D01*
X124489971Y-134252120D01*
X124680188Y-134379219D01*
X124438078Y-134569683D01*
X124124856Y-135127645D01*
X124093876Y-135255566D01*
X124213223Y-135509000D01*
X125857000Y-135509000D01*
X125857000Y-135489000D01*
X126111000Y-135489000D01*
X126111000Y-135509000D01*
X127754777Y-135509000D01*
X127874124Y-135255566D01*
X127843144Y-135127645D01*
X127529922Y-134569683D01*
X127287812Y-134379219D01*
X127478029Y-134252120D01*
X127656512Y-133985000D01*
X137011488Y-133985000D01*
X137189971Y-134252120D01*
X137380188Y-134379219D01*
X137138078Y-134569683D01*
X136824856Y-135127645D01*
X136793876Y-135255566D01*
X136913223Y-135509000D01*
X138557000Y-135509000D01*
X138557000Y-135489000D01*
X138811000Y-135489000D01*
X138811000Y-135509000D01*
X140454777Y-135509000D01*
X140574124Y-135255566D01*
X140543144Y-135127645D01*
X140229922Y-134569683D01*
X139987812Y-134379219D01*
X140178029Y-134252120D01*
X140356512Y-133985000D01*
X149203488Y-133985000D01*
X149381971Y-134252120D01*
X149572188Y-134379219D01*
X149330078Y-134569683D01*
X149016856Y-135127645D01*
X148985876Y-135255566D01*
X149105223Y-135509000D01*
X150749000Y-135509000D01*
X150749000Y-135489000D01*
X151003000Y-135489000D01*
X151003000Y-135509000D01*
X152646777Y-135509000D01*
X152766124Y-135255566D01*
X152735144Y-135127645D01*
X152421922Y-134569683D01*
X152179812Y-134379219D01*
X152370029Y-134252120D01*
X152548512Y-133985000D01*
X161395488Y-133985000D01*
X161573971Y-134252120D01*
X161764188Y-134379219D01*
X161522078Y-134569683D01*
X161208856Y-135127645D01*
X161177876Y-135255566D01*
X161297223Y-135509000D01*
X162941000Y-135509000D01*
X162941000Y-135489000D01*
X163195000Y-135489000D01*
X163195000Y-135509000D01*
X164838777Y-135509000D01*
X164958124Y-135255566D01*
X164927144Y-135127645D01*
X164613922Y-134569683D01*
X164371812Y-134379219D01*
X164562029Y-134252120D01*
X164740512Y-133985000D01*
X173079488Y-133985000D01*
X173257971Y-134252120D01*
X173448188Y-134379219D01*
X173206078Y-134569683D01*
X172892856Y-135127645D01*
X172861876Y-135255566D01*
X172981223Y-135509000D01*
X174625000Y-135509000D01*
X174625000Y-135489000D01*
X174879000Y-135489000D01*
X174879000Y-135509000D01*
X176522777Y-135509000D01*
X176642124Y-135255566D01*
X176611144Y-135127645D01*
X176297922Y-134569683D01*
X176055812Y-134379219D01*
X176246029Y-134252120D01*
X176600452Y-133721687D01*
X176724909Y-133096000D01*
X176600452Y-132470313D01*
X176246029Y-131939880D01*
X176075595Y-131826000D01*
X176246029Y-131712120D01*
X176600452Y-131181687D01*
X176724909Y-130556000D01*
X176600452Y-129930313D01*
X176246029Y-129399880D01*
X176075595Y-129286000D01*
X176246029Y-129172120D01*
X176600452Y-128641687D01*
X176724909Y-128016000D01*
X176600452Y-127390313D01*
X176246029Y-126859880D01*
X175715596Y-126505457D01*
X175089909Y-126381000D01*
X174414091Y-126381000D01*
X173788404Y-126505457D01*
X173257971Y-126859880D01*
X173079488Y-127127000D01*
X164740512Y-127127000D01*
X164562029Y-126859880D01*
X164031596Y-126505457D01*
X163405909Y-126381000D01*
X162730091Y-126381000D01*
X162104404Y-126505457D01*
X161573971Y-126859880D01*
X161395488Y-127127000D01*
X152548512Y-127127000D01*
X152370029Y-126859880D01*
X151839596Y-126505457D01*
X151213909Y-126381000D01*
X150538091Y-126381000D01*
X149912404Y-126505457D01*
X149381971Y-126859880D01*
X149203488Y-127127000D01*
X140758394Y-127127000D01*
X144102697Y-123782697D01*
X144284396Y-123510765D01*
X144348200Y-123190000D01*
X144348200Y-115028194D01*
X146411557Y-112964837D01*
X146593256Y-112692906D01*
X146657060Y-112372140D01*
X146657060Y-110267490D01*
X146719290Y-110267490D01*
X146954607Y-110223212D01*
X147170731Y-110084140D01*
X147273270Y-109934069D01*
X147273270Y-110570050D01*
X147317548Y-110805367D01*
X147456620Y-111021491D01*
X147668820Y-111166481D01*
X147920710Y-111217490D01*
X148082085Y-111217490D01*
X148117144Y-111393745D01*
X148121974Y-111400973D01*
X148282325Y-111640955D01*
X153639185Y-116997815D01*
X153886395Y-117162996D01*
X154178000Y-117221000D01*
X154519458Y-117221000D01*
X154303154Y-117436927D01*
X154234610Y-117602000D01*
X153858631Y-117602000D01*
X151607815Y-115351185D01*
X151455573Y-115249460D01*
X151360605Y-115186004D01*
X151069000Y-115128000D01*
X150751246Y-115128000D01*
X150693660Y-115038509D01*
X150481460Y-114893519D01*
X150229570Y-114842510D01*
X148428710Y-114842510D01*
X148193393Y-114886788D01*
X147977269Y-115025860D01*
X147832279Y-115238060D01*
X147781270Y-115489950D01*
X147781270Y-116128202D01*
X147691380Y-115988509D01*
X147479180Y-115843519D01*
X147227290Y-115792510D01*
X145426430Y-115792510D01*
X145191113Y-115836788D01*
X144974989Y-115975860D01*
X144829999Y-116188060D01*
X144778990Y-116439950D01*
X144778990Y-117240050D01*
X144823268Y-117475367D01*
X144962340Y-117691491D01*
X145174540Y-117836481D01*
X145426430Y-117887490D01*
X145488660Y-117887490D01*
X145488660Y-125416385D01*
X145348460Y-125556341D01*
X145199270Y-125915630D01*
X145198931Y-126304663D01*
X145347493Y-126664212D01*
X145622341Y-126939540D01*
X145981630Y-127088730D01*
X146370663Y-127089069D01*
X146730212Y-126940507D01*
X147005540Y-126665659D01*
X147154730Y-126306370D01*
X147154987Y-126011782D01*
X147165060Y-125961140D01*
X147165060Y-117887490D01*
X147227290Y-117887490D01*
X147462607Y-117843212D01*
X147678731Y-117704140D01*
X147781270Y-117554069D01*
X147781270Y-118190050D01*
X147825548Y-118425367D01*
X147964620Y-118641491D01*
X148176820Y-118786481D01*
X148428710Y-118837490D01*
X149382860Y-118837490D01*
X151988185Y-121442815D01*
X152235395Y-121607996D01*
X152527000Y-121666000D01*
X168148000Y-121666000D01*
X168439605Y-121607996D01*
X168686815Y-121442815D01*
X170198916Y-119930715D01*
X170361453Y-119998206D01*
X171011694Y-119998774D01*
X171612655Y-119750462D01*
X172072846Y-119291073D01*
X172322206Y-118690547D01*
X172322774Y-118040306D01*
X172074462Y-117439345D01*
X171615073Y-116979154D01*
X171014547Y-116729794D01*
X170364306Y-116729226D01*
X169763345Y-116977538D01*
X169303154Y-117436927D01*
X169053794Y-118037453D01*
X169053226Y-118687694D01*
X169121482Y-118852887D01*
X167832370Y-120142000D01*
X162433000Y-120142000D01*
X162433000Y-118237000D01*
X162374996Y-117945395D01*
X162271164Y-117790000D01*
X162209816Y-117698185D01*
X160431815Y-115920185D01*
X160375610Y-115882630D01*
X160184605Y-115755004D01*
X159893000Y-115697000D01*
X156587151Y-115697000D01*
X156612655Y-115686462D01*
X157072846Y-115227073D01*
X157322206Y-114626547D01*
X157322774Y-113976306D01*
X157074462Y-113375345D01*
X156615073Y-112915154D01*
X156526200Y-112878251D01*
X156526200Y-88626194D01*
X161421085Y-83731309D01*
X161573971Y-83960120D01*
X161744405Y-84074000D01*
X161573971Y-84187880D01*
X161353044Y-84518522D01*
X161096235Y-84569604D01*
X160824303Y-84751303D01*
X158030303Y-87545303D01*
X157848604Y-87817234D01*
X157784800Y-88138000D01*
X157784800Y-114022605D01*
X157645270Y-114358630D01*
X157644931Y-114747663D01*
X157793493Y-115107212D01*
X158068341Y-115382540D01*
X158427630Y-115531730D01*
X158816663Y-115532069D01*
X159176212Y-115383507D01*
X159451540Y-115108659D01*
X159600730Y-114749370D01*
X159600839Y-114623694D01*
X169053226Y-114623694D01*
X169301538Y-115224655D01*
X169760927Y-115684846D01*
X170361453Y-115934206D01*
X171011694Y-115934774D01*
X171612655Y-115686462D01*
X172072846Y-115227073D01*
X172322206Y-114626547D01*
X172322774Y-113976306D01*
X172074462Y-113375345D01*
X171615073Y-112915154D01*
X171014547Y-112665794D01*
X170364306Y-112665226D01*
X169763345Y-112913538D01*
X169303154Y-113372927D01*
X169053794Y-113973453D01*
X169053226Y-114623694D01*
X159600839Y-114623694D01*
X159601069Y-114360337D01*
X159461200Y-114021827D01*
X159461200Y-101666663D01*
X159803931Y-101666663D01*
X159952493Y-102026212D01*
X160227341Y-102301540D01*
X160586630Y-102450730D01*
X160754088Y-102450876D01*
X162103708Y-103800496D01*
X161752788Y-103945493D01*
X161477460Y-104220341D01*
X161328270Y-104579630D01*
X161327931Y-104968663D01*
X161476493Y-105328212D01*
X161751341Y-105603540D01*
X162110630Y-105752730D01*
X162278088Y-105752876D01*
X162737800Y-106212588D01*
X162737800Y-109474000D01*
X162791937Y-109746165D01*
X162946106Y-109976894D01*
X164470105Y-111500894D01*
X164615052Y-111597744D01*
X164700836Y-111655063D01*
X164973000Y-111709200D01*
X178394412Y-111709200D01*
X179964106Y-113278895D01*
X180194836Y-113433063D01*
X180467000Y-113487200D01*
X180580686Y-113487200D01*
X180877971Y-113932120D01*
X181048405Y-114046000D01*
X180877971Y-114159880D01*
X180580686Y-114604800D01*
X177546000Y-114604800D01*
X177273835Y-114658937D01*
X177043106Y-114813105D01*
X176756136Y-115100075D01*
X176590337Y-115099931D01*
X176230788Y-115248493D01*
X175955460Y-115523341D01*
X175806270Y-115882630D01*
X175805931Y-116271663D01*
X175954493Y-116631212D01*
X176229341Y-116906540D01*
X176588630Y-117055730D01*
X176977663Y-117056069D01*
X177337212Y-116907507D01*
X177612540Y-116632659D01*
X177761730Y-116273370D01*
X177761876Y-116105913D01*
X177840589Y-116027200D01*
X180580686Y-116027200D01*
X180877971Y-116472120D01*
X181048405Y-116586000D01*
X180877971Y-116699880D01*
X180523548Y-117230313D01*
X180399091Y-117856000D01*
X180523548Y-118481687D01*
X180763093Y-118840192D01*
X180620559Y-118931910D01*
X180475569Y-119144110D01*
X180424560Y-119396000D01*
X180424560Y-121396000D01*
X180468838Y-121631317D01*
X180607910Y-121847441D01*
X180820110Y-121992431D01*
X181072000Y-122043440D01*
X183672000Y-122043440D01*
X183907317Y-121999162D01*
X184123441Y-121860090D01*
X184268431Y-121647890D01*
X184319440Y-121396000D01*
X184319440Y-119396000D01*
X184275162Y-119160683D01*
X184136090Y-118944559D01*
X183981671Y-118839049D01*
X184220452Y-118481687D01*
X184344909Y-117856000D01*
X184220452Y-117230313D01*
X183866029Y-116699880D01*
X183695595Y-116586000D01*
X183866029Y-116472120D01*
X184220452Y-115941687D01*
X184344909Y-115316000D01*
X184220452Y-114690313D01*
X183866029Y-114159880D01*
X183695595Y-114046000D01*
X183866029Y-113932120D01*
X184220452Y-113401687D01*
X184344909Y-112776000D01*
X184220452Y-112150313D01*
X183866029Y-111619880D01*
X183695595Y-111506000D01*
X183866029Y-111392120D01*
X184220452Y-110861687D01*
X184344909Y-110236000D01*
X184220452Y-109610313D01*
X183866029Y-109079880D01*
X183695595Y-108966000D01*
X183866029Y-108852120D01*
X184220452Y-108321687D01*
X184344909Y-107696000D01*
X184220452Y-107070313D01*
X183866029Y-106539880D01*
X183695595Y-106426000D01*
X183866029Y-106312120D01*
X184220452Y-105781687D01*
X184344909Y-105156000D01*
X184220452Y-104530313D01*
X183866029Y-103999880D01*
X183695595Y-103886000D01*
X183866029Y-103772120D01*
X184220452Y-103241687D01*
X184344909Y-102616000D01*
X184220452Y-101990313D01*
X183866029Y-101459880D01*
X183675812Y-101332781D01*
X183917922Y-101142317D01*
X184231144Y-100584355D01*
X184262124Y-100456434D01*
X184142777Y-100203000D01*
X182499000Y-100203000D01*
X182499000Y-100223000D01*
X182245000Y-100223000D01*
X182245000Y-100203000D01*
X180601223Y-100203000D01*
X180481876Y-100456434D01*
X180512856Y-100584355D01*
X180826078Y-101142317D01*
X181068188Y-101332781D01*
X180877971Y-101459880D01*
X180580686Y-101904800D01*
X171346395Y-101904800D01*
X171010370Y-101765270D01*
X170621337Y-101764931D01*
X170261788Y-101913493D01*
X169986460Y-102188341D01*
X169837270Y-102547630D01*
X169837177Y-102654022D01*
X169732337Y-102653931D01*
X169372788Y-102802493D01*
X169097460Y-103077341D01*
X168948270Y-103436630D01*
X168947931Y-103825663D01*
X169096493Y-104185212D01*
X169371341Y-104460540D01*
X169730630Y-104609730D01*
X170119663Y-104610069D01*
X170479212Y-104461507D01*
X170597726Y-104343200D01*
X179791412Y-104343200D01*
X180433123Y-104984911D01*
X180399091Y-105156000D01*
X180523548Y-105781687D01*
X180877971Y-106312120D01*
X181048405Y-106426000D01*
X180877971Y-106539880D01*
X180580686Y-106984800D01*
X175514000Y-106984800D01*
X175241836Y-107038937D01*
X175011106Y-107193105D01*
X173568412Y-108635800D01*
X167680589Y-108635800D01*
X166573200Y-107528412D01*
X166573200Y-105991078D01*
X167390378Y-105991078D01*
X167419917Y-106501428D01*
X167558389Y-106835729D01*
X167788984Y-106891410D01*
X168508395Y-106172000D01*
X167788984Y-105452590D01*
X167558389Y-105508271D01*
X167390378Y-105991078D01*
X166573200Y-105991078D01*
X166573200Y-105272984D01*
X167968590Y-105272984D01*
X168688000Y-105992395D01*
X168702142Y-105978252D01*
X168881748Y-106157858D01*
X168867605Y-106172000D01*
X168881748Y-106186142D01*
X168702142Y-106365748D01*
X168688000Y-106351605D01*
X167968590Y-107071016D01*
X168024271Y-107301611D01*
X168507078Y-107469622D01*
X169017428Y-107440083D01*
X169351729Y-107301611D01*
X169407410Y-107071018D01*
X169509072Y-107172680D01*
X169573910Y-107273441D01*
X169786110Y-107418431D01*
X170038000Y-107469440D01*
X171338000Y-107469440D01*
X171573317Y-107425162D01*
X171789441Y-107286090D01*
X171934431Y-107073890D01*
X171985440Y-106822000D01*
X171985440Y-105522000D01*
X171941162Y-105286683D01*
X171802090Y-105070559D01*
X171589890Y-104925569D01*
X171338000Y-104874560D01*
X170038000Y-104874560D01*
X169802683Y-104918838D01*
X169586559Y-105057910D01*
X169509063Y-105171329D01*
X169407410Y-105272982D01*
X169351729Y-105042389D01*
X168868922Y-104874378D01*
X168358572Y-104903917D01*
X168024271Y-105042389D01*
X167968590Y-105272984D01*
X166573200Y-105272984D01*
X166573200Y-104902000D01*
X166519063Y-104629836D01*
X166486657Y-104581337D01*
X166364895Y-104399106D01*
X164045925Y-102080136D01*
X164046069Y-101914337D01*
X163897507Y-101554788D01*
X163622659Y-101279460D01*
X163263370Y-101130270D01*
X162874337Y-101129931D01*
X162514788Y-101278493D01*
X162239460Y-101553341D01*
X162130510Y-101815722D01*
X161759925Y-101445136D01*
X161760069Y-101279337D01*
X161611507Y-100919788D01*
X161469630Y-100777663D01*
X171106931Y-100777663D01*
X171255493Y-101137212D01*
X171530341Y-101412540D01*
X171889630Y-101561730D01*
X172278663Y-101562069D01*
X172638212Y-101413507D01*
X172756726Y-101295200D01*
X176366206Y-101295200D01*
X176483341Y-101412540D01*
X176842630Y-101561730D01*
X177231663Y-101562069D01*
X177591212Y-101413507D01*
X177866540Y-101138659D01*
X178015730Y-100779370D01*
X178016069Y-100390337D01*
X177867507Y-100030788D01*
X177592659Y-99755460D01*
X177448419Y-99695566D01*
X180481876Y-99695566D01*
X180601223Y-99949000D01*
X182245000Y-99949000D01*
X182245000Y-98441000D01*
X182499000Y-98441000D01*
X182499000Y-99949000D01*
X184142777Y-99949000D01*
X184262124Y-99695566D01*
X184231144Y-99567645D01*
X183917922Y-99009683D01*
X183415020Y-98614058D01*
X182799000Y-98441000D01*
X182499000Y-98441000D01*
X182245000Y-98441000D01*
X181945000Y-98441000D01*
X181328980Y-98614058D01*
X180826078Y-99009683D01*
X180512856Y-99567645D01*
X180481876Y-99695566D01*
X177448419Y-99695566D01*
X177233370Y-99606270D01*
X176844337Y-99605931D01*
X176484788Y-99754493D01*
X176366274Y-99872800D01*
X172756794Y-99872800D01*
X172639659Y-99755460D01*
X172280370Y-99606270D01*
X171891337Y-99605931D01*
X171531788Y-99754493D01*
X171256460Y-100029341D01*
X171107270Y-100388630D01*
X171106931Y-100777663D01*
X161469630Y-100777663D01*
X161336659Y-100644460D01*
X160977370Y-100495270D01*
X160588337Y-100494931D01*
X160228788Y-100643493D01*
X159953460Y-100918341D01*
X159804270Y-101277630D01*
X159803931Y-101666663D01*
X159461200Y-101666663D01*
X159461200Y-95789750D01*
X161133000Y-95789750D01*
X161133000Y-96630309D01*
X161229673Y-96863698D01*
X161408301Y-97042327D01*
X161641690Y-97139000D01*
X162782250Y-97139000D01*
X162941000Y-96980250D01*
X162941000Y-95631000D01*
X163195000Y-95631000D01*
X163195000Y-96980250D01*
X163353750Y-97139000D01*
X164494310Y-97139000D01*
X164727699Y-97042327D01*
X164906327Y-96863698D01*
X165003000Y-96630309D01*
X165003000Y-95789750D01*
X164844250Y-95631000D01*
X163195000Y-95631000D01*
X162941000Y-95631000D01*
X161291750Y-95631000D01*
X161133000Y-95789750D01*
X159461200Y-95789750D01*
X159461200Y-94377691D01*
X161133000Y-94377691D01*
X161133000Y-95218250D01*
X161291750Y-95377000D01*
X162941000Y-95377000D01*
X162941000Y-93091000D01*
X163195000Y-93091000D01*
X163195000Y-95377000D01*
X164844250Y-95377000D01*
X165003000Y-95218250D01*
X165003000Y-94377691D01*
X164906327Y-94144302D01*
X164727699Y-93965673D01*
X164664830Y-93939632D01*
X164927144Y-93472355D01*
X164958124Y-93344434D01*
X164838777Y-93091000D01*
X163195000Y-93091000D01*
X162941000Y-93091000D01*
X161297223Y-93091000D01*
X161177876Y-93344434D01*
X161208856Y-93472355D01*
X161471170Y-93939632D01*
X161408301Y-93965673D01*
X161229673Y-94144302D01*
X161133000Y-94377691D01*
X159461200Y-94377691D01*
X159461200Y-88485194D01*
X161522823Y-86423571D01*
X161573971Y-86500120D01*
X161744405Y-86614000D01*
X161573971Y-86727880D01*
X161219548Y-87258313D01*
X161095091Y-87884000D01*
X161219548Y-88509687D01*
X161573971Y-89040120D01*
X161744405Y-89154000D01*
X161573971Y-89267880D01*
X161219548Y-89798313D01*
X161095091Y-90424000D01*
X161219548Y-91049687D01*
X161573971Y-91580120D01*
X161764188Y-91707219D01*
X161522078Y-91897683D01*
X161208856Y-92455645D01*
X161177876Y-92583566D01*
X161297223Y-92837000D01*
X162941000Y-92837000D01*
X162941000Y-92817000D01*
X163195000Y-92817000D01*
X163195000Y-92837000D01*
X164838777Y-92837000D01*
X164958124Y-92583566D01*
X164927144Y-92455645D01*
X164613922Y-91897683D01*
X164371812Y-91707219D01*
X164562029Y-91580120D01*
X164916452Y-91049687D01*
X165040909Y-90424000D01*
X164916452Y-89798313D01*
X164562029Y-89267880D01*
X164391595Y-89154000D01*
X164562029Y-89040120D01*
X164774456Y-88722200D01*
X170721806Y-88722200D01*
X177975685Y-95976079D01*
X177968627Y-95983137D01*
X177754788Y-96071493D01*
X177479460Y-96346341D01*
X177330270Y-96705630D01*
X177329931Y-97094663D01*
X177478493Y-97454212D01*
X177753341Y-97729540D01*
X178112630Y-97878730D01*
X178501663Y-97879069D01*
X178861212Y-97730507D01*
X179136540Y-97455659D01*
X179225986Y-97240250D01*
X179530015Y-96936221D01*
X179644766Y-96913396D01*
X179663318Y-96901000D01*
X183642000Y-96901000D01*
X183982206Y-96833329D01*
X184270618Y-96640618D01*
X184905618Y-96005618D01*
X185098330Y-95717205D01*
X185166000Y-95377000D01*
X185166000Y-93472000D01*
X185098329Y-93131794D01*
X184905618Y-92843382D01*
X184524618Y-92462382D01*
X184509142Y-92452041D01*
X184236206Y-92269671D01*
X183896000Y-92202000D01*
X183215599Y-92202000D01*
X183015981Y-92002033D01*
X182598832Y-91828818D01*
X182147150Y-91828424D01*
X181729699Y-92000911D01*
X181410033Y-92320019D01*
X181236818Y-92737168D01*
X181236513Y-93086260D01*
X180967257Y-93105317D01*
X180967576Y-92739150D01*
X180795089Y-92321699D01*
X180475981Y-92002033D01*
X180058832Y-91828818D01*
X179607150Y-91828424D01*
X179189699Y-92000911D01*
X178870033Y-92320019D01*
X178696818Y-92737168D01*
X178696424Y-93188850D01*
X178868911Y-93606301D01*
X179188019Y-93925967D01*
X179605168Y-94099182D01*
X179954260Y-94099487D01*
X179985398Y-94539435D01*
X180096468Y-94807582D01*
X180311619Y-94844776D01*
X180922395Y-94234000D01*
X180908253Y-94219858D01*
X181087858Y-94040253D01*
X181102000Y-94054395D01*
X181116143Y-94040253D01*
X181295748Y-94219858D01*
X181281605Y-94234000D01*
X181892381Y-94844776D01*
X182107532Y-94807582D01*
X182250491Y-94379120D01*
X182230683Y-94099257D01*
X182596850Y-94099576D01*
X182886246Y-93980000D01*
X183388000Y-93980000D01*
X183388000Y-95008764D01*
X183273764Y-95123000D01*
X181695727Y-95123000D01*
X181712776Y-95024381D01*
X181102000Y-94413605D01*
X180491224Y-95024381D01*
X180508273Y-95123000D01*
X179493394Y-95123000D01*
X171661697Y-87291303D01*
X171389766Y-87109604D01*
X171069000Y-87045800D01*
X164774456Y-87045800D01*
X164562029Y-86727880D01*
X164391595Y-86614000D01*
X164562029Y-86500120D01*
X164916452Y-85969687D01*
X165040909Y-85344000D01*
X164916452Y-84718313D01*
X164562029Y-84187880D01*
X164391595Y-84074000D01*
X164517174Y-83990091D01*
X171085000Y-83990091D01*
X171085000Y-84665909D01*
X171209457Y-85291596D01*
X171563880Y-85822029D01*
X172094313Y-86176452D01*
X172720000Y-86300909D01*
X173345687Y-86176452D01*
X173876120Y-85822029D01*
X173990000Y-85651595D01*
X174103880Y-85822029D01*
X174634313Y-86176452D01*
X175260000Y-86300909D01*
X175885687Y-86176452D01*
X176416120Y-85822029D01*
X176543219Y-85631812D01*
X176733683Y-85873922D01*
X177291645Y-86187144D01*
X177419566Y-86218124D01*
X177673000Y-86098777D01*
X177673000Y-84455000D01*
X177927000Y-84455000D01*
X177927000Y-86098777D01*
X178180434Y-86218124D01*
X178308355Y-86187144D01*
X178775632Y-85924830D01*
X178801673Y-85987699D01*
X178980302Y-86166327D01*
X179213691Y-86263000D01*
X180054250Y-86263000D01*
X180213000Y-86104250D01*
X180213000Y-84455000D01*
X180467000Y-84455000D01*
X180467000Y-86104250D01*
X180625750Y-86263000D01*
X181466309Y-86263000D01*
X181699698Y-86166327D01*
X181878327Y-85987699D01*
X181975000Y-85754310D01*
X181975000Y-84613750D01*
X181816250Y-84455000D01*
X180467000Y-84455000D01*
X180213000Y-84455000D01*
X177927000Y-84455000D01*
X177673000Y-84455000D01*
X177653000Y-84455000D01*
X177653000Y-84201000D01*
X177673000Y-84201000D01*
X177673000Y-82557223D01*
X177927000Y-82557223D01*
X177927000Y-84201000D01*
X180213000Y-84201000D01*
X180213000Y-82551750D01*
X180467000Y-82551750D01*
X180467000Y-84201000D01*
X181816250Y-84201000D01*
X181823129Y-84194121D01*
X188146484Y-84194121D01*
X188371154Y-84568168D01*
X189354388Y-84966880D01*
X190415357Y-84958975D01*
X191358846Y-84568168D01*
X191583516Y-84194121D01*
X189865000Y-82475605D01*
X188146484Y-84194121D01*
X181823129Y-84194121D01*
X181975000Y-84042250D01*
X181975000Y-82901690D01*
X181878327Y-82668301D01*
X181699698Y-82489673D01*
X181466309Y-82393000D01*
X180625750Y-82393000D01*
X180467000Y-82551750D01*
X180213000Y-82551750D01*
X180054250Y-82393000D01*
X179213691Y-82393000D01*
X178980302Y-82489673D01*
X178801673Y-82668301D01*
X178775632Y-82731170D01*
X178308355Y-82468856D01*
X178180434Y-82437876D01*
X177927000Y-82557223D01*
X177673000Y-82557223D01*
X177419566Y-82437876D01*
X177291645Y-82468856D01*
X176733683Y-82782078D01*
X176543219Y-83024188D01*
X176416120Y-82833971D01*
X175885687Y-82479548D01*
X175260000Y-82355091D01*
X174634313Y-82479548D01*
X174103880Y-82833971D01*
X173990000Y-83004405D01*
X173876120Y-82833971D01*
X173345687Y-82479548D01*
X172720000Y-82355091D01*
X172094313Y-82479548D01*
X171563880Y-82833971D01*
X171209457Y-83364404D01*
X171085000Y-83990091D01*
X164517174Y-83990091D01*
X164562029Y-83960120D01*
X164916452Y-83429687D01*
X165040909Y-82804000D01*
X164916452Y-82178313D01*
X164653909Y-81785388D01*
X187194120Y-81785388D01*
X187202025Y-82846357D01*
X187592832Y-83789846D01*
X187966879Y-84014516D01*
X189685395Y-82296000D01*
X190044605Y-82296000D01*
X191763121Y-84014516D01*
X192137168Y-83789846D01*
X192535880Y-82806612D01*
X192527975Y-81745643D01*
X192137168Y-80802154D01*
X191763121Y-80577484D01*
X190044605Y-82296000D01*
X189685395Y-82296000D01*
X187966879Y-80577484D01*
X187592832Y-80802154D01*
X187194120Y-81785388D01*
X164653909Y-81785388D01*
X164562029Y-81647880D01*
X164031596Y-81293457D01*
X163405909Y-81169000D01*
X162730091Y-81169000D01*
X162104404Y-81293457D01*
X161573971Y-81647880D01*
X161361544Y-81965800D01*
X161163000Y-81965800D01*
X160842234Y-82029604D01*
X160570303Y-82211303D01*
X155095303Y-87686303D01*
X154913604Y-87958234D01*
X154913604Y-87958235D01*
X154849800Y-88279000D01*
X154849800Y-112370169D01*
X150369010Y-107889380D01*
X150369010Y-107869950D01*
X150324732Y-107634633D01*
X150185660Y-107418509D01*
X149973460Y-107273519D01*
X149721570Y-107222510D01*
X147920710Y-107222510D01*
X147685393Y-107266788D01*
X147469269Y-107405860D01*
X147324279Y-107618060D01*
X147273270Y-107869950D01*
X147273270Y-108508202D01*
X147183380Y-108368509D01*
X146971180Y-108223519D01*
X146719290Y-108172510D01*
X144918430Y-108172510D01*
X144683113Y-108216788D01*
X144466989Y-108355860D01*
X144321999Y-108568060D01*
X144270990Y-108819950D01*
X144270990Y-109620050D01*
X144315268Y-109855367D01*
X144454340Y-110071491D01*
X144666540Y-110216481D01*
X144918430Y-110267490D01*
X144980660Y-110267490D01*
X144980660Y-112024946D01*
X142917303Y-114088303D01*
X142735604Y-114360234D01*
X142689582Y-114591605D01*
X142671800Y-114681000D01*
X142671800Y-119825608D01*
X142667659Y-119821460D01*
X142308370Y-119672270D01*
X141919337Y-119671931D01*
X141559788Y-119820493D01*
X141441274Y-119938800D01*
X140168842Y-119938800D01*
X140624655Y-119750462D01*
X141084846Y-119291073D01*
X141334206Y-118690547D01*
X141334774Y-118040306D01*
X141086462Y-117439345D01*
X140627073Y-116979154D01*
X140026547Y-116729794D01*
X139376306Y-116729226D01*
X138775345Y-116977538D01*
X138315154Y-117436927D01*
X138065794Y-118037453D01*
X138065226Y-118687694D01*
X138313538Y-119288655D01*
X138772927Y-119748846D01*
X139230387Y-119938800D01*
X125168842Y-119938800D01*
X125624655Y-119750462D01*
X126084846Y-119291073D01*
X126334206Y-118690547D01*
X126334774Y-118040306D01*
X126086462Y-117439345D01*
X125627073Y-116979154D01*
X125026547Y-116729794D01*
X124376306Y-116729226D01*
X123775345Y-116977538D01*
X123315154Y-117436927D01*
X123065794Y-118037453D01*
X123065226Y-118687694D01*
X123313538Y-119288655D01*
X123772927Y-119748846D01*
X124230387Y-119938800D01*
X117217288Y-119938800D01*
X117322600Y-119409359D01*
X117322600Y-119350641D01*
X117208526Y-118777152D01*
X116883670Y-118290971D01*
X116612828Y-118110000D01*
X116883670Y-117929029D01*
X117208526Y-117442848D01*
X117322600Y-116869359D01*
X117322600Y-116810641D01*
X117208526Y-116237152D01*
X116883670Y-115750971D01*
X116612828Y-115570000D01*
X116883670Y-115389029D01*
X117140474Y-115004694D01*
X122938226Y-115004694D01*
X123186538Y-115605655D01*
X123645927Y-116065846D01*
X124246453Y-116315206D01*
X124896694Y-116315774D01*
X125497655Y-116067462D01*
X125957846Y-115608073D01*
X126207206Y-115007547D01*
X126207208Y-115004694D01*
X137938226Y-115004694D01*
X138186538Y-115605655D01*
X138645927Y-116065846D01*
X139246453Y-116315206D01*
X139896694Y-116315774D01*
X140497655Y-116067462D01*
X140957846Y-115608073D01*
X141207206Y-115007547D01*
X141207774Y-114357306D01*
X140959462Y-113756345D01*
X140500073Y-113296154D01*
X139899547Y-113046794D01*
X139249306Y-113046226D01*
X138648345Y-113294538D01*
X138188154Y-113753927D01*
X137938794Y-114354453D01*
X137938226Y-115004694D01*
X126207208Y-115004694D01*
X126207774Y-114357306D01*
X125959462Y-113756345D01*
X125500073Y-113296154D01*
X124899547Y-113046794D01*
X124249306Y-113046226D01*
X123648345Y-113294538D01*
X123188154Y-113753927D01*
X122938794Y-114354453D01*
X122938226Y-115004694D01*
X117140474Y-115004694D01*
X117208526Y-114902848D01*
X117322600Y-114329359D01*
X117322600Y-114270641D01*
X117208526Y-113697152D01*
X116883670Y-113210971D01*
X116612828Y-113030000D01*
X116883670Y-112849029D01*
X117051269Y-112598200D01*
X128270000Y-112598200D01*
X128590766Y-112534396D01*
X128862697Y-112352697D01*
X135224316Y-105991078D01*
X136402378Y-105991078D01*
X136431917Y-106501428D01*
X136570389Y-106835729D01*
X136800984Y-106891410D01*
X137520395Y-106172000D01*
X136800984Y-105452590D01*
X136570389Y-105508271D01*
X136402378Y-105991078D01*
X135224316Y-105991078D01*
X135593697Y-105621697D01*
X135775396Y-105349765D01*
X135839200Y-105029000D01*
X135839200Y-98329750D01*
X136749000Y-98329750D01*
X136749000Y-99170309D01*
X136845673Y-99403698D01*
X137024301Y-99582327D01*
X137257690Y-99679000D01*
X138398250Y-99679000D01*
X138557000Y-99520250D01*
X138557000Y-98171000D01*
X138811000Y-98171000D01*
X138811000Y-99520250D01*
X138969750Y-99679000D01*
X140110310Y-99679000D01*
X140343699Y-99582327D01*
X140522327Y-99403698D01*
X140619000Y-99170309D01*
X140619000Y-98329750D01*
X140460250Y-98171000D01*
X138811000Y-98171000D01*
X138557000Y-98171000D01*
X136907750Y-98171000D01*
X136749000Y-98329750D01*
X135839200Y-98329750D01*
X135839200Y-96917691D01*
X136749000Y-96917691D01*
X136749000Y-97758250D01*
X136907750Y-97917000D01*
X138557000Y-97917000D01*
X138557000Y-95631000D01*
X138811000Y-95631000D01*
X138811000Y-97917000D01*
X140460250Y-97917000D01*
X140619000Y-97758250D01*
X140619000Y-96917691D01*
X140522327Y-96684302D01*
X140343699Y-96505673D01*
X140280830Y-96479632D01*
X140543144Y-96012355D01*
X140574124Y-95884434D01*
X140454777Y-95631000D01*
X138811000Y-95631000D01*
X138557000Y-95631000D01*
X136913223Y-95631000D01*
X136793876Y-95884434D01*
X136824856Y-96012355D01*
X137087170Y-96479632D01*
X137024301Y-96505673D01*
X136845673Y-96684302D01*
X136749000Y-96917691D01*
X135839200Y-96917691D01*
X135839200Y-94454194D01*
X136813674Y-93479720D01*
X136835548Y-93589687D01*
X137189971Y-94120120D01*
X137380188Y-94247219D01*
X137138078Y-94437683D01*
X136824856Y-94995645D01*
X136793876Y-95123566D01*
X136913223Y-95377000D01*
X138557000Y-95377000D01*
X138557000Y-95357000D01*
X138811000Y-95357000D01*
X138811000Y-95377000D01*
X140454777Y-95377000D01*
X140565495Y-95141889D01*
X140766800Y-95343194D01*
X140766800Y-103919806D01*
X139812046Y-104874560D01*
X139050000Y-104874560D01*
X138814683Y-104918838D01*
X138598559Y-105057910D01*
X138521063Y-105171329D01*
X138419410Y-105272982D01*
X138363729Y-105042389D01*
X137880922Y-104874378D01*
X137370572Y-104903917D01*
X137036271Y-105042389D01*
X136980590Y-105272984D01*
X137700000Y-105992395D01*
X137714142Y-105978252D01*
X137893748Y-106157858D01*
X137879605Y-106172000D01*
X137893748Y-106186142D01*
X137714142Y-106365748D01*
X137700000Y-106351605D01*
X136980590Y-107071016D01*
X137036271Y-107301611D01*
X137519078Y-107469622D01*
X138029428Y-107440083D01*
X138363729Y-107301611D01*
X138419410Y-107071018D01*
X138521072Y-107172680D01*
X138585910Y-107273441D01*
X138798110Y-107418431D01*
X139050000Y-107469440D01*
X140350000Y-107469440D01*
X140585317Y-107425162D01*
X140801441Y-107286090D01*
X140946431Y-107073890D01*
X140997440Y-106822000D01*
X140997440Y-106059954D01*
X142197697Y-104859697D01*
X142379396Y-104587765D01*
X142443200Y-104267000D01*
X142443200Y-95789750D01*
X148941000Y-95789750D01*
X148941000Y-96630309D01*
X149037673Y-96863698D01*
X149216301Y-97042327D01*
X149449690Y-97139000D01*
X150590250Y-97139000D01*
X150749000Y-96980250D01*
X150749000Y-95631000D01*
X151003000Y-95631000D01*
X151003000Y-96980250D01*
X151161750Y-97139000D01*
X152302310Y-97139000D01*
X152535699Y-97042327D01*
X152714327Y-96863698D01*
X152811000Y-96630309D01*
X152811000Y-95789750D01*
X152652250Y-95631000D01*
X151003000Y-95631000D01*
X150749000Y-95631000D01*
X149099750Y-95631000D01*
X148941000Y-95789750D01*
X142443200Y-95789750D01*
X142443200Y-94996000D01*
X142413120Y-94844776D01*
X142379396Y-94675234D01*
X142197697Y-94403303D01*
X142172085Y-94377691D01*
X148941000Y-94377691D01*
X148941000Y-95218250D01*
X149099750Y-95377000D01*
X150749000Y-95377000D01*
X150749000Y-93091000D01*
X151003000Y-93091000D01*
X151003000Y-95377000D01*
X152652250Y-95377000D01*
X152811000Y-95218250D01*
X152811000Y-94377691D01*
X152714327Y-94144302D01*
X152535699Y-93965673D01*
X152472830Y-93939632D01*
X152735144Y-93472355D01*
X152766124Y-93344434D01*
X152646777Y-93091000D01*
X151003000Y-93091000D01*
X150749000Y-93091000D01*
X149105223Y-93091000D01*
X148985876Y-93344434D01*
X149016856Y-93472355D01*
X149279170Y-93939632D01*
X149216301Y-93965673D01*
X149037673Y-94144302D01*
X148941000Y-94377691D01*
X142172085Y-94377691D01*
X140631710Y-92837316D01*
X140532452Y-92338313D01*
X140178029Y-91807880D01*
X140007595Y-91694000D01*
X140178029Y-91580120D01*
X140532452Y-91049687D01*
X140656909Y-90424000D01*
X140532452Y-89798313D01*
X140178029Y-89267880D01*
X140007595Y-89154000D01*
X140178029Y-89040120D01*
X140532452Y-88509687D01*
X140656909Y-87884000D01*
X140532452Y-87258313D01*
X140178029Y-86727880D01*
X140007595Y-86614000D01*
X140178029Y-86500120D01*
X140532452Y-85969687D01*
X140656909Y-85344000D01*
X140532452Y-84718313D01*
X140178029Y-84187880D01*
X140007595Y-84074000D01*
X140178029Y-83960120D01*
X140532452Y-83429687D01*
X140656909Y-82804000D01*
X148903091Y-82804000D01*
X149027548Y-83429687D01*
X149381971Y-83960120D01*
X149552405Y-84074000D01*
X149381971Y-84187880D01*
X149027548Y-84718313D01*
X148903091Y-85344000D01*
X149027548Y-85969687D01*
X149381971Y-86500120D01*
X149552405Y-86614000D01*
X149381971Y-86727880D01*
X149027548Y-87258313D01*
X148903091Y-87884000D01*
X149027548Y-88509687D01*
X149381971Y-89040120D01*
X149552405Y-89154000D01*
X149381971Y-89267880D01*
X149027548Y-89798313D01*
X148903091Y-90424000D01*
X149027548Y-91049687D01*
X149381971Y-91580120D01*
X149572188Y-91707219D01*
X149330078Y-91897683D01*
X149016856Y-92455645D01*
X148985876Y-92583566D01*
X149105223Y-92837000D01*
X150749000Y-92837000D01*
X150749000Y-92817000D01*
X151003000Y-92817000D01*
X151003000Y-92837000D01*
X152646777Y-92837000D01*
X152766124Y-92583566D01*
X152735144Y-92455645D01*
X152421922Y-91897683D01*
X152179812Y-91707219D01*
X152370029Y-91580120D01*
X152724452Y-91049687D01*
X152848909Y-90424000D01*
X152724452Y-89798313D01*
X152370029Y-89267880D01*
X152199595Y-89154000D01*
X152370029Y-89040120D01*
X152724452Y-88509687D01*
X152848909Y-87884000D01*
X152724452Y-87258313D01*
X152370029Y-86727880D01*
X152199595Y-86614000D01*
X152370029Y-86500120D01*
X152724452Y-85969687D01*
X152848909Y-85344000D01*
X152724452Y-84718313D01*
X152370029Y-84187880D01*
X152199595Y-84074000D01*
X152370029Y-83960120D01*
X152724452Y-83429687D01*
X152848909Y-82804000D01*
X152724452Y-82178313D01*
X152370029Y-81647880D01*
X151839596Y-81293457D01*
X151213909Y-81169000D01*
X150538091Y-81169000D01*
X149912404Y-81293457D01*
X149381971Y-81647880D01*
X149027548Y-82178313D01*
X148903091Y-82804000D01*
X140656909Y-82804000D01*
X140532452Y-82178313D01*
X140178029Y-81647880D01*
X139647596Y-81293457D01*
X139021909Y-81169000D01*
X138346091Y-81169000D01*
X137720404Y-81293457D01*
X137189971Y-81647880D01*
X136835548Y-82178313D01*
X136711091Y-82804000D01*
X136835548Y-83429687D01*
X137189971Y-83960120D01*
X137360405Y-84074000D01*
X137189971Y-84187880D01*
X136977544Y-84505800D01*
X136652000Y-84505800D01*
X136331234Y-84569604D01*
X136059303Y-84751303D01*
X131741303Y-89069303D01*
X131559604Y-89341234D01*
X131559604Y-89341235D01*
X131495800Y-89662000D01*
X131495800Y-102014806D01*
X127668806Y-105841800D01*
X117051269Y-105841800D01*
X116883670Y-105590971D01*
X116612839Y-105410008D01*
X117030821Y-105028490D01*
X117278968Y-104499027D01*
X117158469Y-104267000D01*
X115951000Y-104267000D01*
X115951000Y-104287000D01*
X115697000Y-104287000D01*
X115697000Y-104267000D01*
X115677000Y-104267000D01*
X115677000Y-104013000D01*
X115697000Y-104013000D01*
X115697000Y-103993000D01*
X115951000Y-103993000D01*
X115951000Y-104013000D01*
X117158469Y-104013000D01*
X117278968Y-103780973D01*
X117030821Y-103251510D01*
X116612839Y-102869992D01*
X116883670Y-102689029D01*
X117208526Y-102202848D01*
X117322600Y-101629359D01*
X117322600Y-101570641D01*
X117208526Y-100997152D01*
X116883670Y-100510971D01*
X116612828Y-100330000D01*
X116883670Y-100149029D01*
X117208526Y-99662848D01*
X117322600Y-99089359D01*
X117322600Y-99030641D01*
X117289513Y-98864301D01*
X121958075Y-103532864D01*
X121957931Y-103698663D01*
X122106493Y-104058212D01*
X122381341Y-104333540D01*
X122740630Y-104482730D01*
X123129663Y-104483069D01*
X123489212Y-104334507D01*
X123764540Y-104059659D01*
X123913730Y-103700370D01*
X123914069Y-103311337D01*
X123765507Y-102951788D01*
X123490659Y-102676460D01*
X123131370Y-102527270D01*
X122963913Y-102527124D01*
X117266779Y-96829991D01*
X117322600Y-96549359D01*
X117322600Y-96490641D01*
X117208526Y-95917152D01*
X116883670Y-95430971D01*
X116612828Y-95250000D01*
X116883670Y-95069029D01*
X117208526Y-94582848D01*
X117271800Y-94264748D01*
X117271800Y-96139000D01*
X117325937Y-96411165D01*
X117480106Y-96641894D01*
X124129800Y-103291589D01*
X124129800Y-103976206D01*
X124012460Y-104093341D01*
X123863270Y-104452630D01*
X123862931Y-104841663D01*
X124011493Y-105201212D01*
X124286341Y-105476540D01*
X124645630Y-105625730D01*
X125034663Y-105626069D01*
X125394212Y-105477507D01*
X125669540Y-105202659D01*
X125818730Y-104843370D01*
X125819069Y-104454337D01*
X125670507Y-104094788D01*
X125552200Y-103976274D01*
X125552200Y-102997000D01*
X125498063Y-102724836D01*
X125474138Y-102689029D01*
X125343895Y-102494106D01*
X121179539Y-98329750D01*
X124049000Y-98329750D01*
X124049000Y-99170309D01*
X124145673Y-99403698D01*
X124324301Y-99582327D01*
X124557690Y-99679000D01*
X125698250Y-99679000D01*
X125857000Y-99520250D01*
X125857000Y-98171000D01*
X126111000Y-98171000D01*
X126111000Y-99520250D01*
X126269750Y-99679000D01*
X127410310Y-99679000D01*
X127643699Y-99582327D01*
X127822327Y-99403698D01*
X127919000Y-99170309D01*
X127919000Y-98329750D01*
X127760250Y-98171000D01*
X126111000Y-98171000D01*
X125857000Y-98171000D01*
X124207750Y-98171000D01*
X124049000Y-98329750D01*
X121179539Y-98329750D01*
X119767480Y-96917691D01*
X124049000Y-96917691D01*
X124049000Y-97758250D01*
X124207750Y-97917000D01*
X125857000Y-97917000D01*
X125857000Y-95631000D01*
X126111000Y-95631000D01*
X126111000Y-97917000D01*
X127760250Y-97917000D01*
X127919000Y-97758250D01*
X127919000Y-96917691D01*
X127822327Y-96684302D01*
X127643699Y-96505673D01*
X127580830Y-96479632D01*
X127843144Y-96012355D01*
X127874124Y-95884434D01*
X127754777Y-95631000D01*
X126111000Y-95631000D01*
X125857000Y-95631000D01*
X124213223Y-95631000D01*
X124093876Y-95884434D01*
X124124856Y-96012355D01*
X124387170Y-96479632D01*
X124324301Y-96505673D01*
X124145673Y-96684302D01*
X124049000Y-96917691D01*
X119767480Y-96917691D01*
X118694200Y-95844412D01*
X118694200Y-89662000D01*
X118673327Y-89557063D01*
X118640063Y-89389835D01*
X118485895Y-89159106D01*
X117723894Y-88397106D01*
X117493165Y-88242937D01*
X117221000Y-88188800D01*
X117136127Y-88188800D01*
X116883670Y-87810971D01*
X116612839Y-87630008D01*
X117030821Y-87248490D01*
X117278968Y-86719027D01*
X117158469Y-86487000D01*
X115951000Y-86487000D01*
X115951000Y-86507000D01*
X115697000Y-86507000D01*
X115697000Y-86487000D01*
X115677000Y-86487000D01*
X115677000Y-86233000D01*
X115697000Y-86233000D01*
X115697000Y-86213000D01*
X115951000Y-86213000D01*
X115951000Y-86233000D01*
X117158469Y-86233000D01*
X117278968Y-86000973D01*
X117030821Y-85471510D01*
X116835469Y-85293200D01*
X120118605Y-85293200D01*
X120454630Y-85432730D01*
X120843663Y-85433069D01*
X121203212Y-85284507D01*
X121478540Y-85009659D01*
X121627730Y-84650370D01*
X121628069Y-84261337D01*
X121479507Y-83901788D01*
X121220372Y-83642200D01*
X124277544Y-83642200D01*
X124489971Y-83960120D01*
X124660405Y-84074000D01*
X124489971Y-84187880D01*
X124135548Y-84718313D01*
X124011091Y-85344000D01*
X124135548Y-85969687D01*
X124489971Y-86500120D01*
X124660405Y-86614000D01*
X124489971Y-86727880D01*
X124135548Y-87258313D01*
X124011091Y-87884000D01*
X124135548Y-88509687D01*
X124489971Y-89040120D01*
X124660405Y-89154000D01*
X124489971Y-89267880D01*
X124135548Y-89798313D01*
X124011091Y-90424000D01*
X124135548Y-91049687D01*
X124489971Y-91580120D01*
X124660405Y-91694000D01*
X124489971Y-91807880D01*
X124135548Y-92338313D01*
X124011091Y-92964000D01*
X124135548Y-93589687D01*
X124489971Y-94120120D01*
X124680188Y-94247219D01*
X124438078Y-94437683D01*
X124124856Y-94995645D01*
X124093876Y-95123566D01*
X124213223Y-95377000D01*
X125857000Y-95377000D01*
X125857000Y-95357000D01*
X126111000Y-95357000D01*
X126111000Y-95377000D01*
X127754777Y-95377000D01*
X127874124Y-95123566D01*
X127843144Y-94995645D01*
X127529922Y-94437683D01*
X127287812Y-94247219D01*
X127478029Y-94120120D01*
X127832452Y-93589687D01*
X127956909Y-92964000D01*
X127832452Y-92338313D01*
X127478029Y-91807880D01*
X127307595Y-91694000D01*
X127478029Y-91580120D01*
X127832452Y-91049687D01*
X127956909Y-90424000D01*
X127832452Y-89798313D01*
X127478029Y-89267880D01*
X127307595Y-89154000D01*
X127478029Y-89040120D01*
X127832452Y-88509687D01*
X127956909Y-87884000D01*
X127832452Y-87258313D01*
X127478029Y-86727880D01*
X127307595Y-86614000D01*
X127478029Y-86500120D01*
X127832452Y-85969687D01*
X127956909Y-85344000D01*
X127832452Y-84718313D01*
X127478029Y-84187880D01*
X127307595Y-84074000D01*
X127478029Y-83960120D01*
X127832452Y-83429687D01*
X127956909Y-82804000D01*
X127832452Y-82178313D01*
X127478029Y-81647880D01*
X126947596Y-81293457D01*
X126321909Y-81169000D01*
X125646091Y-81169000D01*
X125020404Y-81293457D01*
X124489971Y-81647880D01*
X124277544Y-81965800D01*
X111760000Y-81965800D01*
X111439234Y-82029604D01*
X111167303Y-82211303D01*
X109135303Y-84243303D01*
X108953604Y-84515234D01*
X108926724Y-84650370D01*
X108889800Y-84836000D01*
X103007141Y-84836000D01*
X103547357Y-84831975D01*
X104490846Y-84441168D01*
X104715516Y-84067121D01*
X102997000Y-82348605D01*
X101278484Y-84067121D01*
X100339039Y-84067121D01*
X100336305Y-82724862D01*
X100724832Y-83662846D01*
X101098879Y-83887516D01*
X102817395Y-82169000D01*
X103176605Y-82169000D01*
X104895121Y-83887516D01*
X105269168Y-83662846D01*
X105667880Y-82679612D01*
X105659975Y-81618643D01*
X105269168Y-80675154D01*
X104895121Y-80450484D01*
X103176605Y-82169000D01*
X102817395Y-82169000D01*
X101098879Y-80450484D01*
X100724832Y-80675154D01*
X100334093Y-81638726D01*
X100330107Y-79681499D01*
X100382606Y-79629000D01*
X102149756Y-79629000D01*
X101503154Y-79896832D01*
G36*
X141304341Y-124018540D02*
X141439813Y-124074793D01*
X139115074Y-126399532D01*
X139021909Y-126381000D01*
X138346091Y-126381000D01*
X137720404Y-126505457D01*
X137189971Y-126859880D01*
X137011488Y-127127000D01*
X127656512Y-127127000D01*
X127478029Y-126859880D01*
X126947596Y-126505457D01*
X126321909Y-126381000D01*
X125646091Y-126381000D01*
X125020404Y-126505457D01*
X124489971Y-126859880D01*
X124311488Y-127127000D01*
X122936000Y-127127000D01*
X122595794Y-127194671D01*
X122307382Y-127387382D01*
X121799382Y-127895382D01*
X121606671Y-128183794D01*
X121539000Y-128524000D01*
X121539000Y-129171764D01*
X119519764Y-131191000D01*
X117017325Y-131191000D01*
X116883670Y-130990971D01*
X116612828Y-130810000D01*
X116883670Y-130629029D01*
X117208526Y-130142848D01*
X117322600Y-129569359D01*
X117322600Y-129510641D01*
X117208526Y-128937152D01*
X116883670Y-128450971D01*
X116612828Y-128270000D01*
X116883670Y-128089029D01*
X117208526Y-127602848D01*
X117322600Y-127029359D01*
X117322600Y-126970641D01*
X117208526Y-126397152D01*
X116883670Y-125910971D01*
X116612839Y-125730008D01*
X117030821Y-125348490D01*
X117278968Y-124819027D01*
X117158469Y-124587000D01*
X115951000Y-124587000D01*
X115951000Y-124607000D01*
X115697000Y-124607000D01*
X115697000Y-124587000D01*
X115677000Y-124587000D01*
X115677000Y-124333000D01*
X115697000Y-124333000D01*
X115697000Y-124313000D01*
X115951000Y-124313000D01*
X115951000Y-124333000D01*
X117158469Y-124333000D01*
X117278968Y-124100973D01*
X117185339Y-123901200D01*
X141187206Y-123901200D01*
X141304341Y-124018540D01*
X141304341Y-124018540D01*
G37*
X141304341Y-124018540D02*
X141439813Y-124074793D01*
X139115074Y-126399532D01*
X139021909Y-126381000D01*
X138346091Y-126381000D01*
X137720404Y-126505457D01*
X137189971Y-126859880D01*
X137011488Y-127127000D01*
X127656512Y-127127000D01*
X127478029Y-126859880D01*
X126947596Y-126505457D01*
X126321909Y-126381000D01*
X125646091Y-126381000D01*
X125020404Y-126505457D01*
X124489971Y-126859880D01*
X124311488Y-127127000D01*
X122936000Y-127127000D01*
X122595794Y-127194671D01*
X122307382Y-127387382D01*
X121799382Y-127895382D01*
X121606671Y-128183794D01*
X121539000Y-128524000D01*
X121539000Y-129171764D01*
X119519764Y-131191000D01*
X117017325Y-131191000D01*
X116883670Y-130990971D01*
X116612828Y-130810000D01*
X116883670Y-130629029D01*
X117208526Y-130142848D01*
X117322600Y-129569359D01*
X117322600Y-129510641D01*
X117208526Y-128937152D01*
X116883670Y-128450971D01*
X116612828Y-128270000D01*
X116883670Y-128089029D01*
X117208526Y-127602848D01*
X117322600Y-127029359D01*
X117322600Y-126970641D01*
X117208526Y-126397152D01*
X116883670Y-125910971D01*
X116612839Y-125730008D01*
X117030821Y-125348490D01*
X117278968Y-124819027D01*
X117158469Y-124587000D01*
X115951000Y-124587000D01*
X115951000Y-124607000D01*
X115697000Y-124607000D01*
X115697000Y-124587000D01*
X115677000Y-124587000D01*
X115677000Y-124333000D01*
X115697000Y-124333000D01*
X115697000Y-124313000D01*
X115951000Y-124313000D01*
X115951000Y-124333000D01*
X117158469Y-124333000D01*
X117278968Y-124100973D01*
X117185339Y-123901200D01*
X141187206Y-123901200D01*
X141304341Y-124018540D01*
G36*
X113411000Y-119253000D02*
X113431000Y-119253000D01*
X113431000Y-119507000D01*
X113411000Y-119507000D01*
X113411000Y-119527000D01*
X113157000Y-119527000D01*
X113157000Y-119507000D01*
X113137000Y-119507000D01*
X113137000Y-119253000D01*
X113157000Y-119253000D01*
X113157000Y-119233000D01*
X113411000Y-119233000D01*
X113411000Y-119253000D01*
X113411000Y-119253000D01*
G37*
X113411000Y-119253000D02*
X113431000Y-119253000D01*
X113431000Y-119507000D01*
X113411000Y-119507000D01*
X113411000Y-119527000D01*
X113157000Y-119527000D01*
X113157000Y-119507000D01*
X113137000Y-119507000D01*
X113137000Y-119253000D01*
X113157000Y-119253000D01*
X113157000Y-119233000D01*
X113411000Y-119233000D01*
X113411000Y-119253000D01*
G36*
X113411000Y-111633000D02*
X113431000Y-111633000D01*
X113431000Y-111887000D01*
X113411000Y-111887000D01*
X113411000Y-111907000D01*
X113157000Y-111907000D01*
X113157000Y-111887000D01*
X113137000Y-111887000D01*
X113137000Y-111633000D01*
X113157000Y-111633000D01*
X113157000Y-111613000D01*
X113411000Y-111613000D01*
X113411000Y-111633000D01*
X113411000Y-111633000D01*
G37*
X113411000Y-111633000D02*
X113431000Y-111633000D01*
X113431000Y-111887000D01*
X113411000Y-111887000D01*
X113411000Y-111907000D01*
X113157000Y-111907000D01*
X113157000Y-111887000D01*
X113137000Y-111887000D01*
X113137000Y-111633000D01*
X113157000Y-111633000D01*
X113157000Y-111613000D01*
X113411000Y-111613000D01*
X113411000Y-111633000D01*
G36*
X113411000Y-98933000D02*
X113431000Y-98933000D01*
X113431000Y-99187000D01*
X113411000Y-99187000D01*
X113411000Y-99207000D01*
X113157000Y-99207000D01*
X113157000Y-99187000D01*
X113137000Y-99187000D01*
X113137000Y-98933000D01*
X113157000Y-98933000D01*
X113157000Y-98913000D01*
X113411000Y-98913000D01*
X113411000Y-98933000D01*
X113411000Y-98933000D01*
G37*
X113411000Y-98933000D02*
X113431000Y-98933000D01*
X113431000Y-99187000D01*
X113411000Y-99187000D01*
X113411000Y-99207000D01*
X113157000Y-99207000D01*
X113157000Y-99187000D01*
X113137000Y-99187000D01*
X113137000Y-98933000D01*
X113157000Y-98933000D01*
X113157000Y-98913000D01*
X113411000Y-98913000D01*
X113411000Y-98933000D01*
G36*
X113411000Y-93853000D02*
X113431000Y-93853000D01*
X113431000Y-94107000D01*
X113411000Y-94107000D01*
X113411000Y-94127000D01*
X113157000Y-94127000D01*
X113157000Y-94107000D01*
X113137000Y-94107000D01*
X113137000Y-93853000D01*
X113157000Y-93853000D01*
X113157000Y-93833000D01*
X113411000Y-93833000D01*
X113411000Y-93853000D01*
X113411000Y-93853000D01*
G37*
X113411000Y-93853000D02*
X113431000Y-93853000D01*
X113431000Y-94107000D01*
X113411000Y-94107000D01*
X113411000Y-94127000D01*
X113157000Y-94127000D01*
X113157000Y-94107000D01*
X113137000Y-94107000D01*
X113137000Y-93853000D01*
X113157000Y-93853000D01*
X113157000Y-93833000D01*
X113411000Y-93833000D01*
X113411000Y-93853000D01*
M02*
