M48
;DRILL file {KiCad 4.0.2-4+6225~38~ubuntu15.10.1-stable} date Wed 08 Jun 2016 11:21:11 PM EDT
;FORMAT={-:-/ absolute / inch / decimal}
FMAT,2
INCH,TZ
T1C0.013
T2C0.024
T3C0.031
T4C0.039
T5C0.040
T6C0.047
T7C0.120
%
G90
G05
M72
T1
X4.39Y-4.05
X4.39Y-4.305
X4.75Y-3.325
X4.84Y-4.075
X4.915Y-4.12
X5.585Y-4.85
X5.595Y-4.75
X5.755Y-4.965
X6.245Y-4.51
X6.33Y-3.995
X6.39Y-4.125
X6.42Y-4.02
X6.69Y-4.08
X6.725Y-4.045
X6.775Y-3.96
X6.96Y-4.57
X6.97Y-3.96
X7.02Y-3.815
T2
X7.08Y-3.66
X7.13Y-3.71
X7.18Y-3.66
T3
X5.4213Y-4.18
X5.5Y-4.18
X6.6413Y-4.18
X6.72Y-4.18
T4
X4.9044Y-4.515
X4.9094Y-4.66
X5.495Y-4.515
X5.5Y-4.66
X6.1294Y-4.5
X6.1294Y-4.66
X6.72Y-4.5
X6.72Y-4.66
T5
X4.46Y-3.4
X4.46Y-3.5
X4.46Y-3.6
X4.46Y-3.7
X4.46Y-3.8
X4.46Y-3.9
X4.46Y-4.
X4.46Y-4.1
X4.46Y-4.2
X4.46Y-4.3
X4.46Y-4.4
X4.46Y-4.5
X4.46Y-4.6
X4.46Y-4.7
X4.46Y-4.8
X4.46Y-4.9
X4.46Y-5.
X4.46Y-5.1
X4.46Y-5.2
X4.46Y-5.3
X4.56Y-3.4
X4.56Y-3.5
X4.56Y-3.6
X4.56Y-3.7
X4.56Y-3.8
X4.56Y-3.9
X4.56Y-4.
X4.56Y-4.1
X4.56Y-4.2
X4.56Y-4.3
X4.56Y-4.4
X4.56Y-4.5
X4.56Y-4.6
X4.56Y-4.7
X4.56Y-4.8
X4.56Y-4.9
X4.56Y-5.
X4.56Y-5.1
X4.56Y-5.2
X4.56Y-5.3
T6
X4.96Y-3.26
X4.96Y-3.36
X4.96Y-3.46
X4.96Y-3.56
X4.96Y-3.66
X4.96Y-3.76
X4.96Y-3.86
X4.96Y-5.04
X4.96Y-5.14
X4.96Y-5.24
X4.96Y-5.34
X4.96Y-5.44
X5.46Y-3.26
X5.46Y-3.36
X5.46Y-3.46
X5.46Y-3.56
X5.46Y-3.66
X5.46Y-3.76
X5.46Y-3.86
X5.46Y-5.04
X5.46Y-5.14
X5.46Y-5.24
X5.46Y-5.34
X5.46Y-5.44
X5.94Y-3.26
X5.94Y-3.36
X5.94Y-3.46
X5.94Y-3.56
X5.94Y-3.66
X5.94Y-3.76
X5.94Y-5.04
X5.94Y-5.14
X5.94Y-5.24
X5.94Y-5.34
X5.94Y-5.44
X6.42Y-3.26
X6.42Y-3.36
X6.42Y-3.46
X6.42Y-3.56
X6.42Y-3.66
X6.42Y-3.76
X6.42Y-5.04
X6.42Y-5.14
X6.42Y-5.24
X6.42Y-5.34
X6.42Y-5.44
X6.8Y-3.32
X6.88Y-5.04
X6.88Y-5.14
X6.88Y-5.24
X6.88Y-5.34
X6.88Y-5.44
X6.9Y-3.32
X7.Y-3.32
X7.1Y-3.32
X7.18Y-3.94
X7.18Y-4.04
X7.18Y-4.14
X7.18Y-4.24
X7.18Y-4.34
X7.18Y-4.44
X7.18Y-4.54
X7.18Y-4.64
X7.18Y-4.74
T7
X4.055Y-3.235
X4.06Y-5.485
X7.475Y-3.24
X7.475Y-5.48
T0
M30
