G04 #@! TF.FileFunction,Copper,L2,Bot,Signal*
%FSLAX46Y46*%
G04 Gerber Fmt 4.6, Leading zero omitted, Abs format (unit mm)*
G04 Created by KiCad (PCBNEW 4.0.2-4+6225~38~ubuntu15.10.1-stable) date Wed 08 Jun 2016 11:21:06 PM EDT*
%MOMM*%
G01*
G04 APERTURE LIST*
%ADD10C,0.100000*%
%ADD11R,2.600000X2.000000*%
%ADD12O,2.600000X2.000000*%
%ADD13R,1.727200X1.727200*%
%ADD14O,1.727200X1.727200*%
%ADD15R,2.000000X2.600000*%
%ADD16O,2.000000X2.600000*%
%ADD17C,1.998980*%
%ADD18C,1.000760*%
%ADD19R,1.300000X1.300000*%
%ADD20C,1.300000*%
%ADD21C,4.064000*%
%ADD22C,0.685800*%
%ADD23C,0.508000*%
%ADD24C,0.406400*%
%ADD25C,0.254000*%
%ADD26C,0.152400*%
G04 APERTURE END LIST*
D10*
D11*
X163068000Y-95504000D03*
D12*
X163068000Y-92964000D03*
X163068000Y-90424000D03*
X163068000Y-87884000D03*
X163068000Y-85344000D03*
X163068000Y-82804000D03*
D11*
X150876000Y-95504000D03*
D12*
X150876000Y-92964000D03*
X150876000Y-90424000D03*
X150876000Y-87884000D03*
X150876000Y-85344000D03*
X150876000Y-82804000D03*
D11*
X163068000Y-138176000D03*
D12*
X163068000Y-135636000D03*
X163068000Y-133096000D03*
X163068000Y-130556000D03*
X163068000Y-128016000D03*
D11*
X150876000Y-138176000D03*
D12*
X150876000Y-135636000D03*
X150876000Y-133096000D03*
X150876000Y-130556000D03*
X150876000Y-128016000D03*
D11*
X174752000Y-138176000D03*
D12*
X174752000Y-135636000D03*
X174752000Y-133096000D03*
X174752000Y-130556000D03*
X174752000Y-128016000D03*
D11*
X138684000Y-138176000D03*
D12*
X138684000Y-135636000D03*
X138684000Y-133096000D03*
X138684000Y-130556000D03*
X138684000Y-128016000D03*
D11*
X125984000Y-138176000D03*
D12*
X125984000Y-135636000D03*
X125984000Y-133096000D03*
X125984000Y-130556000D03*
X125984000Y-128016000D03*
D13*
X115824000Y-134620000D03*
D14*
X113284000Y-134620000D03*
X115824000Y-132080000D03*
X113284000Y-132080000D03*
X115824000Y-129540000D03*
X113284000Y-129540000D03*
X115824000Y-127000000D03*
X113284000Y-127000000D03*
X115824000Y-124460000D03*
X113284000Y-124460000D03*
X115824000Y-121920000D03*
X113284000Y-121920000D03*
X115824000Y-119380000D03*
X113284000Y-119380000D03*
X115824000Y-116840000D03*
X113284000Y-116840000D03*
X115824000Y-114300000D03*
X113284000Y-114300000D03*
X115824000Y-111760000D03*
X113284000Y-111760000D03*
X115824000Y-109220000D03*
X113284000Y-109220000D03*
X115824000Y-106680000D03*
X113284000Y-106680000D03*
X115824000Y-104140000D03*
X113284000Y-104140000D03*
X115824000Y-101600000D03*
X113284000Y-101600000D03*
X115824000Y-99060000D03*
X113284000Y-99060000D03*
X115824000Y-96520000D03*
X113284000Y-96520000D03*
X115824000Y-93980000D03*
X113284000Y-93980000D03*
X115824000Y-91440000D03*
X113284000Y-91440000D03*
X115824000Y-88900000D03*
X113284000Y-88900000D03*
X115824000Y-86360000D03*
X113284000Y-86360000D03*
D11*
X182372000Y-120396000D03*
D12*
X182372000Y-117856000D03*
X182372000Y-115316000D03*
X182372000Y-112776000D03*
X182372000Y-110236000D03*
X182372000Y-107696000D03*
X182372000Y-105156000D03*
X182372000Y-102616000D03*
X182372000Y-100076000D03*
D15*
X180340000Y-84328000D03*
D16*
X177800000Y-84328000D03*
X175260000Y-84328000D03*
X172720000Y-84328000D03*
D11*
X125984000Y-98044000D03*
D12*
X125984000Y-95504000D03*
X125984000Y-92964000D03*
X125984000Y-90424000D03*
X125984000Y-87884000D03*
X125984000Y-85344000D03*
X125984000Y-82804000D03*
D11*
X138684000Y-98044000D03*
D12*
X138684000Y-95504000D03*
X138684000Y-92964000D03*
X138684000Y-90424000D03*
X138684000Y-87884000D03*
X138684000Y-85344000D03*
X138684000Y-82804000D03*
D17*
X170688000Y-114300000D03*
X155688000Y-114300000D03*
X170688000Y-118364000D03*
X155688000Y-118364000D03*
X139573000Y-114681000D03*
X124573000Y-114681000D03*
X139700000Y-118364000D03*
X124700000Y-118364000D03*
D18*
X181102000Y-94234000D03*
X179832000Y-92964000D03*
X182372000Y-92964000D03*
D19*
X139700000Y-106172000D03*
D20*
X137700000Y-106172000D03*
D19*
X170688000Y-106172000D03*
D20*
X168688000Y-106172000D03*
D21*
X189865000Y-139192000D03*
X103124000Y-139319000D03*
X189865000Y-82296000D03*
X102997000Y-82169000D03*
D22*
X178308000Y-96901000D03*
X158623000Y-114554000D03*
X146177000Y-126111000D03*
X120650000Y-84455000D03*
X170815000Y-102743000D03*
X122936000Y-103505000D03*
X169926000Y-103632000D03*
X163068000Y-102108000D03*
X160782000Y-101473000D03*
X111506000Y-102870000D03*
X111506000Y-109347000D03*
X141859000Y-123190000D03*
X124841000Y-104648000D03*
X162306000Y-104775000D03*
X172085000Y-100584000D03*
X177038000Y-100584000D03*
X142113000Y-120650000D03*
X176784000Y-116078000D03*
D23*
X175260000Y-84328000D02*
X175260000Y-88392000D01*
X175260000Y-88392000D02*
X179832000Y-92964000D01*
X163068000Y-90424000D02*
X166624000Y-90424000D01*
X166624000Y-90424000D02*
X172720000Y-84328000D01*
X172720000Y-84328000D02*
X175260000Y-84328000D01*
X150876000Y-90424000D02*
X163068000Y-90424000D01*
X138684000Y-92964000D02*
X146558000Y-92964000D01*
X149098000Y-90424000D02*
X150876000Y-90424000D01*
X146558000Y-92964000D02*
X149098000Y-90424000D01*
X125984000Y-92964000D02*
X138684000Y-92964000D01*
X139573000Y-114681000D02*
X139573000Y-106299000D01*
X139573000Y-106299000D02*
X139700000Y-106172000D01*
X139573000Y-114681000D02*
X139573000Y-118237000D01*
X139573000Y-118237000D02*
X139700000Y-118364000D01*
X139700000Y-118364000D02*
X139700000Y-122428000D01*
X141224000Y-133096000D02*
X138684000Y-133096000D01*
X143256000Y-131064000D02*
X141224000Y-133096000D01*
X143256000Y-125984000D02*
X143256000Y-131064000D01*
X139700000Y-122428000D02*
X143256000Y-125984000D01*
D24*
X189865000Y-82296000D02*
X182372000Y-82296000D01*
X182372000Y-82296000D02*
X180340000Y-84328000D01*
X189865000Y-139192000D02*
X185039000Y-139192000D01*
X185039000Y-139192000D02*
X181292500Y-135445500D01*
X103124000Y-139319000D02*
X103124000Y-137160000D01*
X103124000Y-137160000D02*
X109728000Y-130556000D01*
X102997000Y-82169000D02*
X102997000Y-88011000D01*
X110363000Y-95377000D02*
X110236000Y-95377000D01*
X102997000Y-88011000D02*
X110363000Y-95377000D01*
X174752000Y-138176000D02*
X178562000Y-138176000D01*
X187960000Y-100076000D02*
X182372000Y-100076000D01*
X189103000Y-101219000D02*
X187960000Y-100076000D01*
X189103000Y-127635000D02*
X189103000Y-101219000D01*
X178562000Y-138176000D02*
X181292500Y-135445500D01*
X181292500Y-135445500D02*
X189103000Y-127635000D01*
X163068000Y-138176000D02*
X163068000Y-135636000D01*
X150876000Y-138176000D02*
X150876000Y-135636000D01*
X138684000Y-138176000D02*
X138684000Y-135636000D01*
X125984000Y-138176000D02*
X125984000Y-135636000D01*
X174752000Y-138176000D02*
X174752000Y-135636000D01*
D23*
X181102000Y-94234000D02*
X164338000Y-94234000D01*
X164338000Y-94234000D02*
X163068000Y-92964000D01*
X182372000Y-100076000D02*
X182372000Y-95504000D01*
X182372000Y-95504000D02*
X181102000Y-94234000D01*
X177800000Y-84328000D02*
X180340000Y-84328000D01*
X180340000Y-84328000D02*
X187198000Y-91186000D01*
X187198000Y-95250000D02*
X182372000Y-100076000D01*
X187198000Y-91186000D02*
X187198000Y-95250000D01*
X163068000Y-95504000D02*
X163068000Y-92964000D01*
X150876000Y-95504000D02*
X163068000Y-95504000D01*
X150876000Y-95504000D02*
X150876000Y-92964000D01*
X138684000Y-98044000D02*
X138684000Y-95504000D01*
X138684000Y-95504000D02*
X150876000Y-95504000D01*
X125984000Y-98044000D02*
X138684000Y-98044000D01*
X125984000Y-95504000D02*
X138684000Y-95504000D01*
D25*
X113284000Y-93980000D02*
X111506000Y-93980000D01*
X113411000Y-83947000D02*
X115824000Y-86360000D01*
X112395000Y-83947000D02*
X113411000Y-83947000D01*
X110617000Y-85725000D02*
X112395000Y-83947000D01*
X110617000Y-93091000D02*
X110617000Y-85725000D01*
X111506000Y-93980000D02*
X110617000Y-93091000D01*
D26*
X113284000Y-111760000D02*
X113284000Y-111506000D01*
X113284000Y-111506000D02*
X114554000Y-110236000D01*
X114554000Y-105283000D02*
X115697000Y-104140000D01*
X114554000Y-110236000D02*
X114554000Y-105283000D01*
X115697000Y-104140000D02*
X115824000Y-104140000D01*
X115824000Y-124460000D02*
X114554000Y-123190000D01*
X114554000Y-120650000D02*
X113284000Y-119380000D01*
X114554000Y-123190000D02*
X114554000Y-120650000D01*
D23*
X113284000Y-99060000D02*
X111252000Y-99060000D01*
X111252000Y-93980000D02*
X113284000Y-93980000D01*
X110236000Y-94996000D02*
X111252000Y-93980000D01*
X110236000Y-98044000D02*
X110236000Y-95377000D01*
X110236000Y-95377000D02*
X110236000Y-94996000D01*
X111252000Y-99060000D02*
X110236000Y-98044000D01*
X113284000Y-111760000D02*
X111760000Y-111760000D01*
X111760000Y-99060000D02*
X113284000Y-99060000D01*
X110236000Y-100584000D02*
X111760000Y-99060000D01*
X110236000Y-110236000D02*
X110236000Y-100584000D01*
X111760000Y-111760000D02*
X110236000Y-110236000D01*
X113284000Y-111760000D02*
X110744000Y-111760000D01*
X109728000Y-112776000D02*
X109728000Y-121412000D01*
X110744000Y-111760000D02*
X109728000Y-112776000D01*
X113284000Y-119380000D02*
X111252000Y-119380000D01*
X109728000Y-120904000D02*
X109728000Y-121412000D01*
X109728000Y-121412000D02*
X109728000Y-130556000D01*
X109728000Y-130556000D02*
X109728000Y-131572000D01*
X111252000Y-119380000D02*
X109728000Y-120904000D01*
X113284000Y-129540000D02*
X111252000Y-129540000D01*
X111252000Y-138176000D02*
X125984000Y-138176000D01*
X109728000Y-136652000D02*
X111252000Y-138176000D01*
X109728000Y-131064000D02*
X109728000Y-131572000D01*
X109728000Y-131572000D02*
X109728000Y-136652000D01*
X111252000Y-129540000D02*
X109728000Y-131064000D01*
X170688000Y-106172000D02*
X170688000Y-104521000D01*
X170688000Y-104521000D02*
X178308000Y-96901000D01*
X170688000Y-106172000D02*
X170688000Y-114300000D01*
X170688000Y-114300000D02*
X170688000Y-118364000D01*
X150876000Y-87884000D02*
X163068000Y-87884000D01*
D24*
X157226000Y-118364000D02*
X155688000Y-118364000D01*
X158623000Y-116967000D02*
X157226000Y-118364000D01*
X158623000Y-114554000D02*
X158623000Y-116967000D01*
D23*
X150876000Y-85344000D02*
X163068000Y-85344000D01*
X150876000Y-82804000D02*
X163068000Y-82804000D01*
D24*
X146685000Y-130556000D02*
X150876000Y-130556000D01*
X146177000Y-130048000D02*
X146685000Y-130556000D01*
X146177000Y-126111000D02*
X146177000Y-130048000D01*
D23*
X115824000Y-129540000D02*
X121920000Y-129540000D01*
X122936000Y-130556000D02*
X125984000Y-130556000D01*
X121920000Y-129540000D02*
X122936000Y-130556000D01*
X124700000Y-118364000D02*
X124700000Y-124192000D01*
X128524000Y-130556000D02*
X125984000Y-130556000D01*
X130048000Y-129032000D02*
X128524000Y-130556000D01*
X130048000Y-126492000D02*
X130048000Y-129032000D01*
X129032000Y-125476000D02*
X130048000Y-126492000D01*
X125984000Y-125476000D02*
X129032000Y-125476000D01*
X124700000Y-124192000D02*
X125984000Y-125476000D01*
X124573000Y-114681000D02*
X124079000Y-114681000D01*
X124079000Y-114681000D02*
X122428000Y-116332000D01*
X122428000Y-116332000D02*
X122428000Y-125476000D01*
X122428000Y-125476000D02*
X124968000Y-128016000D01*
X124968000Y-128016000D02*
X125984000Y-128016000D01*
X125984000Y-90424000D02*
X138684000Y-90424000D01*
X125984000Y-87884000D02*
X138684000Y-87884000D01*
X125984000Y-85344000D02*
X138684000Y-85344000D01*
D24*
X138557000Y-81661000D02*
X138557000Y-82677000D01*
X137160000Y-80264000D02*
X138557000Y-81661000D01*
X122555000Y-80264000D02*
X137160000Y-80264000D01*
X120904000Y-81915000D02*
X122555000Y-80264000D01*
X120904000Y-84201000D02*
X120904000Y-81915000D01*
X120650000Y-84455000D02*
X120904000Y-84201000D01*
X138557000Y-82677000D02*
X138684000Y-82804000D01*
D26*
X115824000Y-99060000D02*
X115824000Y-99695000D01*
X115824000Y-99695000D02*
X118872000Y-102743000D01*
X118872000Y-102743000D02*
X170815000Y-102743000D01*
X122936000Y-103505000D02*
X123063000Y-103632000D01*
X123063000Y-103632000D02*
X169926000Y-103632000D01*
X115824000Y-93980000D02*
X115824000Y-94107000D01*
X115824000Y-94107000D02*
X123952000Y-102235000D01*
X123952000Y-102235000D02*
X162941000Y-102235000D01*
X162941000Y-102235000D02*
X163068000Y-102108000D01*
X115824000Y-91440000D02*
X117221000Y-91440000D01*
X123952000Y-101473000D02*
X160782000Y-101473000D01*
X119380000Y-96901000D02*
X123952000Y-101473000D01*
X119380000Y-93599000D02*
X119380000Y-96901000D01*
X117221000Y-91440000D02*
X119380000Y-93599000D01*
X111506000Y-102870000D02*
X111506000Y-109347000D01*
X141859000Y-123190000D02*
X181229000Y-123190000D01*
X181229000Y-123190000D02*
X182245000Y-122174000D01*
X182245000Y-122174000D02*
X182245000Y-120523000D01*
X182245000Y-120523000D02*
X182372000Y-120396000D01*
X162179000Y-104648000D02*
X124841000Y-104648000D01*
X162306000Y-104775000D02*
X162179000Y-104648000D01*
X113284000Y-88900000D02*
X113284000Y-89281000D01*
X113284000Y-89281000D02*
X114173000Y-90170000D01*
X114173000Y-90170000D02*
X120015000Y-90170000D01*
X120015000Y-90170000D02*
X122682000Y-92837000D01*
X122682000Y-92837000D02*
X122682000Y-98679000D01*
X122682000Y-98679000D02*
X124587000Y-100584000D01*
X124587000Y-100584000D02*
X172085000Y-100584000D01*
X177038000Y-100584000D02*
X179578000Y-103124000D01*
X179578000Y-103124000D02*
X179578000Y-116967000D01*
X179578000Y-116967000D02*
X180467000Y-117856000D01*
X180467000Y-117856000D02*
X182372000Y-117856000D01*
X142113000Y-120650000D02*
X143764000Y-122301000D01*
X143764000Y-122301000D02*
X170561000Y-122301000D01*
X170561000Y-122301000D02*
X176784000Y-116078000D01*
D25*
G36*
X101503154Y-79896832D02*
X101278484Y-80270879D01*
X102997000Y-81989395D01*
X104715516Y-80270879D01*
X104490846Y-79896832D01*
X103830365Y-79629000D01*
X122025614Y-79629000D01*
X121962303Y-79671303D01*
X120311303Y-81322303D01*
X120129604Y-81594234D01*
X120099487Y-81745643D01*
X120065800Y-81915000D01*
X120065800Y-83656427D01*
X119821460Y-83900341D01*
X119672270Y-84259630D01*
X119671931Y-84648663D01*
X119820493Y-85008212D01*
X120095341Y-85283540D01*
X120454630Y-85432730D01*
X120843663Y-85433069D01*
X121203212Y-85284507D01*
X121478540Y-85009659D01*
X121627730Y-84650370D01*
X121627776Y-84597524D01*
X121678396Y-84521766D01*
X121742200Y-84201000D01*
X121742200Y-82262194D01*
X122902194Y-81102200D01*
X136812806Y-81102200D01*
X137290988Y-81580382D01*
X137189971Y-81647880D01*
X136835548Y-82178313D01*
X136711091Y-82804000D01*
X136835548Y-83429687D01*
X137189971Y-83960120D01*
X137360405Y-84074000D01*
X137189971Y-84187880D01*
X137011488Y-84455000D01*
X127656512Y-84455000D01*
X127478029Y-84187880D01*
X127307595Y-84074000D01*
X127478029Y-83960120D01*
X127832452Y-83429687D01*
X127956909Y-82804000D01*
X127832452Y-82178313D01*
X127478029Y-81647880D01*
X126947596Y-81293457D01*
X126321909Y-81169000D01*
X125646091Y-81169000D01*
X125020404Y-81293457D01*
X124489971Y-81647880D01*
X124135548Y-82178313D01*
X124011091Y-82804000D01*
X124135548Y-83429687D01*
X124489971Y-83960120D01*
X124660405Y-84074000D01*
X124489971Y-84187880D01*
X124135548Y-84718313D01*
X124011091Y-85344000D01*
X124135548Y-85969687D01*
X124489971Y-86500120D01*
X124660405Y-86614000D01*
X124489971Y-86727880D01*
X124135548Y-87258313D01*
X124011091Y-87884000D01*
X124135548Y-88509687D01*
X124489971Y-89040120D01*
X124660405Y-89154000D01*
X124489971Y-89267880D01*
X124135548Y-89798313D01*
X124011091Y-90424000D01*
X124135548Y-91049687D01*
X124489971Y-91580120D01*
X124660405Y-91694000D01*
X124489971Y-91807880D01*
X124135548Y-92338313D01*
X124011091Y-92964000D01*
X124135548Y-93589687D01*
X124489971Y-94120120D01*
X124680188Y-94247219D01*
X124438078Y-94437683D01*
X124124856Y-94995645D01*
X124093876Y-95123566D01*
X124213223Y-95377000D01*
X125857000Y-95377000D01*
X125857000Y-95357000D01*
X126111000Y-95357000D01*
X126111000Y-95377000D01*
X127754777Y-95377000D01*
X127874124Y-95123566D01*
X127843144Y-94995645D01*
X127529922Y-94437683D01*
X127287812Y-94247219D01*
X127478029Y-94120120D01*
X127656512Y-93853000D01*
X137011488Y-93853000D01*
X137189971Y-94120120D01*
X137380188Y-94247219D01*
X137138078Y-94437683D01*
X136824856Y-94995645D01*
X136793876Y-95123566D01*
X136913223Y-95377000D01*
X138557000Y-95377000D01*
X138557000Y-95357000D01*
X138811000Y-95357000D01*
X138811000Y-95377000D01*
X140454777Y-95377000D01*
X140574124Y-95123566D01*
X140543144Y-94995645D01*
X140229922Y-94437683D01*
X140153663Y-94377691D01*
X148941000Y-94377691D01*
X148941000Y-95218250D01*
X149099750Y-95377000D01*
X150749000Y-95377000D01*
X150749000Y-93091000D01*
X151003000Y-93091000D01*
X151003000Y-95377000D01*
X152652250Y-95377000D01*
X152811000Y-95218250D01*
X152811000Y-94377691D01*
X161133000Y-94377691D01*
X161133000Y-95218250D01*
X161291750Y-95377000D01*
X162941000Y-95377000D01*
X162941000Y-93091000D01*
X163195000Y-93091000D01*
X163195000Y-95377000D01*
X164844250Y-95377000D01*
X165003000Y-95218250D01*
X165003000Y-95024381D01*
X180491224Y-95024381D01*
X180528418Y-95239532D01*
X180956880Y-95382491D01*
X181407435Y-95350602D01*
X181675582Y-95239532D01*
X181712776Y-95024381D01*
X181102000Y-94413605D01*
X180491224Y-95024381D01*
X165003000Y-95024381D01*
X165003000Y-94377691D01*
X164906327Y-94144302D01*
X164727699Y-93965673D01*
X164664830Y-93939632D01*
X164927144Y-93472355D01*
X164958124Y-93344434D01*
X164838777Y-93091000D01*
X163195000Y-93091000D01*
X162941000Y-93091000D01*
X161297223Y-93091000D01*
X161177876Y-93344434D01*
X161208856Y-93472355D01*
X161471170Y-93939632D01*
X161408301Y-93965673D01*
X161229673Y-94144302D01*
X161133000Y-94377691D01*
X152811000Y-94377691D01*
X152714327Y-94144302D01*
X152535699Y-93965673D01*
X152472830Y-93939632D01*
X152735144Y-93472355D01*
X152766124Y-93344434D01*
X152646777Y-93091000D01*
X151003000Y-93091000D01*
X150749000Y-93091000D01*
X149105223Y-93091000D01*
X148985876Y-93344434D01*
X149016856Y-93472355D01*
X149279170Y-93939632D01*
X149216301Y-93965673D01*
X149037673Y-94144302D01*
X148941000Y-94377691D01*
X140153663Y-94377691D01*
X139987812Y-94247219D01*
X140178029Y-94120120D01*
X140356512Y-93853000D01*
X146558000Y-93853000D01*
X146898206Y-93785329D01*
X147186618Y-93592618D01*
X149308730Y-91470506D01*
X149381971Y-91580120D01*
X149572188Y-91707219D01*
X149330078Y-91897683D01*
X149016856Y-92455645D01*
X148985876Y-92583566D01*
X149105223Y-92837000D01*
X150749000Y-92837000D01*
X150749000Y-92817000D01*
X151003000Y-92817000D01*
X151003000Y-92837000D01*
X152646777Y-92837000D01*
X152766124Y-92583566D01*
X152735144Y-92455645D01*
X152421922Y-91897683D01*
X152179812Y-91707219D01*
X152370029Y-91580120D01*
X152548512Y-91313000D01*
X161395488Y-91313000D01*
X161573971Y-91580120D01*
X161764188Y-91707219D01*
X161522078Y-91897683D01*
X161208856Y-92455645D01*
X161177876Y-92583566D01*
X161297223Y-92837000D01*
X162941000Y-92837000D01*
X162941000Y-92817000D01*
X163195000Y-92817000D01*
X163195000Y-92837000D01*
X164838777Y-92837000D01*
X164958124Y-92583566D01*
X164927144Y-92455645D01*
X164613922Y-91897683D01*
X164371812Y-91707219D01*
X164562029Y-91580120D01*
X164740512Y-91313000D01*
X166624000Y-91313000D01*
X166964206Y-91245329D01*
X167252618Y-91052618D01*
X172123065Y-86182171D01*
X172720000Y-86300909D01*
X173345687Y-86176452D01*
X173876120Y-85822029D01*
X173990000Y-85651595D01*
X174103880Y-85822029D01*
X174371000Y-86000512D01*
X174371000Y-88392000D01*
X174438671Y-88732206D01*
X174550788Y-88900000D01*
X174631382Y-89020618D01*
X178696514Y-93085750D01*
X178696424Y-93188850D01*
X178868911Y-93606301D01*
X179188019Y-93925967D01*
X179605168Y-94099182D01*
X179954260Y-94099487D01*
X179985398Y-94539435D01*
X180096468Y-94807582D01*
X180311619Y-94844776D01*
X180922395Y-94234000D01*
X180908253Y-94219858D01*
X181087858Y-94040253D01*
X181102000Y-94054395D01*
X181116143Y-94040253D01*
X181295748Y-94219858D01*
X181281605Y-94234000D01*
X181892381Y-94844776D01*
X182107532Y-94807582D01*
X182250491Y-94379120D01*
X182230683Y-94099257D01*
X182596850Y-94099576D01*
X183014301Y-93927089D01*
X183333967Y-93607981D01*
X183507182Y-93190832D01*
X183507576Y-92739150D01*
X183335089Y-92321699D01*
X183015981Y-92002033D01*
X182598832Y-91828818D01*
X182147150Y-91828424D01*
X181729699Y-92000911D01*
X181410033Y-92320019D01*
X181236818Y-92737168D01*
X181236513Y-93086260D01*
X180967257Y-93105317D01*
X180967576Y-92739150D01*
X180795089Y-92321699D01*
X180475981Y-92002033D01*
X180058832Y-91828818D01*
X179953963Y-91828727D01*
X176149000Y-88023764D01*
X176149000Y-86000512D01*
X176416120Y-85822029D01*
X176543219Y-85631812D01*
X176733683Y-85873922D01*
X177291645Y-86187144D01*
X177419566Y-86218124D01*
X177673000Y-86098777D01*
X177673000Y-84455000D01*
X177927000Y-84455000D01*
X177927000Y-86098777D01*
X178180434Y-86218124D01*
X178308355Y-86187144D01*
X178775632Y-85924830D01*
X178801673Y-85987699D01*
X178980302Y-86166327D01*
X179213691Y-86263000D01*
X180054250Y-86263000D01*
X180213000Y-86104250D01*
X180213000Y-84455000D01*
X180467000Y-84455000D01*
X180467000Y-86104250D01*
X180625750Y-86263000D01*
X181466309Y-86263000D01*
X181699698Y-86166327D01*
X181878327Y-85987699D01*
X181975000Y-85754310D01*
X181975000Y-84613750D01*
X181816250Y-84455000D01*
X180467000Y-84455000D01*
X180213000Y-84455000D01*
X177927000Y-84455000D01*
X177673000Y-84455000D01*
X177653000Y-84455000D01*
X177653000Y-84201000D01*
X177673000Y-84201000D01*
X177673000Y-82557223D01*
X177927000Y-82557223D01*
X177927000Y-84201000D01*
X180213000Y-84201000D01*
X180213000Y-82551750D01*
X180467000Y-82551750D01*
X180467000Y-84201000D01*
X181816250Y-84201000D01*
X181823129Y-84194121D01*
X188146484Y-84194121D01*
X188371154Y-84568168D01*
X189354388Y-84966880D01*
X190415357Y-84958975D01*
X191358846Y-84568168D01*
X191583516Y-84194121D01*
X189865000Y-82475605D01*
X188146484Y-84194121D01*
X181823129Y-84194121D01*
X181975000Y-84042250D01*
X181975000Y-82901690D01*
X181878327Y-82668301D01*
X181699698Y-82489673D01*
X181466309Y-82393000D01*
X180625750Y-82393000D01*
X180467000Y-82551750D01*
X180213000Y-82551750D01*
X180054250Y-82393000D01*
X179213691Y-82393000D01*
X178980302Y-82489673D01*
X178801673Y-82668301D01*
X178775632Y-82731170D01*
X178308355Y-82468856D01*
X178180434Y-82437876D01*
X177927000Y-82557223D01*
X177673000Y-82557223D01*
X177419566Y-82437876D01*
X177291645Y-82468856D01*
X176733683Y-82782078D01*
X176543219Y-83024188D01*
X176416120Y-82833971D01*
X175885687Y-82479548D01*
X175260000Y-82355091D01*
X174634313Y-82479548D01*
X174103880Y-82833971D01*
X173990000Y-83004405D01*
X173876120Y-82833971D01*
X173345687Y-82479548D01*
X172720000Y-82355091D01*
X172094313Y-82479548D01*
X171563880Y-82833971D01*
X171209457Y-83364404D01*
X171085000Y-83990091D01*
X171085000Y-84665909D01*
X171091612Y-84699152D01*
X166255764Y-89535000D01*
X164740512Y-89535000D01*
X164562029Y-89267880D01*
X164391595Y-89154000D01*
X164562029Y-89040120D01*
X164916452Y-88509687D01*
X165040909Y-87884000D01*
X164916452Y-87258313D01*
X164562029Y-86727880D01*
X164391595Y-86614000D01*
X164562029Y-86500120D01*
X164916452Y-85969687D01*
X165040909Y-85344000D01*
X164916452Y-84718313D01*
X164562029Y-84187880D01*
X164391595Y-84074000D01*
X164562029Y-83960120D01*
X164916452Y-83429687D01*
X165040909Y-82804000D01*
X164916452Y-82178313D01*
X164653909Y-81785388D01*
X187194120Y-81785388D01*
X187202025Y-82846357D01*
X187592832Y-83789846D01*
X187966879Y-84014516D01*
X189685395Y-82296000D01*
X190044605Y-82296000D01*
X191763121Y-84014516D01*
X192137168Y-83789846D01*
X192535880Y-82806612D01*
X192527975Y-81745643D01*
X192137168Y-80802154D01*
X191763121Y-80577484D01*
X190044605Y-82296000D01*
X189685395Y-82296000D01*
X187966879Y-80577484D01*
X187592832Y-80802154D01*
X187194120Y-81785388D01*
X164653909Y-81785388D01*
X164562029Y-81647880D01*
X164031596Y-81293457D01*
X163405909Y-81169000D01*
X162730091Y-81169000D01*
X162104404Y-81293457D01*
X161573971Y-81647880D01*
X161395488Y-81915000D01*
X152548512Y-81915000D01*
X152370029Y-81647880D01*
X151839596Y-81293457D01*
X151213909Y-81169000D01*
X150538091Y-81169000D01*
X149912404Y-81293457D01*
X149381971Y-81647880D01*
X149027548Y-82178313D01*
X148903091Y-82804000D01*
X149027548Y-83429687D01*
X149381971Y-83960120D01*
X149552405Y-84074000D01*
X149381971Y-84187880D01*
X149027548Y-84718313D01*
X148903091Y-85344000D01*
X149027548Y-85969687D01*
X149381971Y-86500120D01*
X149552405Y-86614000D01*
X149381971Y-86727880D01*
X149027548Y-87258313D01*
X148903091Y-87884000D01*
X149027548Y-88509687D01*
X149381971Y-89040120D01*
X149552405Y-89154000D01*
X149381971Y-89267880D01*
X149203488Y-89535000D01*
X149098000Y-89535000D01*
X148757794Y-89602671D01*
X148469382Y-89795382D01*
X146189764Y-92075000D01*
X140356512Y-92075000D01*
X140178029Y-91807880D01*
X140007595Y-91694000D01*
X140178029Y-91580120D01*
X140532452Y-91049687D01*
X140656909Y-90424000D01*
X140532452Y-89798313D01*
X140178029Y-89267880D01*
X140007595Y-89154000D01*
X140178029Y-89040120D01*
X140532452Y-88509687D01*
X140656909Y-87884000D01*
X140532452Y-87258313D01*
X140178029Y-86727880D01*
X140007595Y-86614000D01*
X140178029Y-86500120D01*
X140532452Y-85969687D01*
X140656909Y-85344000D01*
X140532452Y-84718313D01*
X140178029Y-84187880D01*
X140007595Y-84074000D01*
X140178029Y-83960120D01*
X140532452Y-83429687D01*
X140656909Y-82804000D01*
X140532452Y-82178313D01*
X140178029Y-81647880D01*
X139647596Y-81293457D01*
X139246882Y-81213750D01*
X139149697Y-81068303D01*
X137752697Y-79671303D01*
X137689386Y-79629000D01*
X189854858Y-79629000D01*
X189314643Y-79633025D01*
X188371154Y-80023832D01*
X188146484Y-80397879D01*
X189865000Y-82116395D01*
X191583516Y-80397879D01*
X191358846Y-80023832D01*
X190385180Y-79629000D01*
X192659000Y-79629000D01*
X192659000Y-141859000D01*
X189875142Y-141859000D01*
X190415357Y-141854975D01*
X191358846Y-141464168D01*
X191583516Y-141090121D01*
X189865000Y-139371605D01*
X188146484Y-141090121D01*
X188371154Y-141464168D01*
X189344820Y-141859000D01*
X103971244Y-141859000D01*
X104617846Y-141591168D01*
X104842516Y-141217121D01*
X103124000Y-139498605D01*
X101405484Y-141217121D01*
X101630154Y-141591168D01*
X102290635Y-141859000D01*
X100330000Y-141859000D01*
X100330000Y-138808388D01*
X100453120Y-138808388D01*
X100461025Y-139869357D01*
X100851832Y-140812846D01*
X101225879Y-141037516D01*
X102944395Y-139319000D01*
X103303605Y-139319000D01*
X105022121Y-141037516D01*
X105396168Y-140812846D01*
X105794880Y-139829612D01*
X105786975Y-138768643D01*
X105659856Y-138461750D01*
X124049000Y-138461750D01*
X124049000Y-139302309D01*
X124145673Y-139535698D01*
X124324301Y-139714327D01*
X124557690Y-139811000D01*
X125698250Y-139811000D01*
X125857000Y-139652250D01*
X125857000Y-138303000D01*
X126111000Y-138303000D01*
X126111000Y-139652250D01*
X126269750Y-139811000D01*
X127410310Y-139811000D01*
X127643699Y-139714327D01*
X127822327Y-139535698D01*
X127919000Y-139302309D01*
X127919000Y-138461750D01*
X136749000Y-138461750D01*
X136749000Y-139302309D01*
X136845673Y-139535698D01*
X137024301Y-139714327D01*
X137257690Y-139811000D01*
X138398250Y-139811000D01*
X138557000Y-139652250D01*
X138557000Y-138303000D01*
X138811000Y-138303000D01*
X138811000Y-139652250D01*
X138969750Y-139811000D01*
X140110310Y-139811000D01*
X140343699Y-139714327D01*
X140522327Y-139535698D01*
X140619000Y-139302309D01*
X140619000Y-138461750D01*
X148941000Y-138461750D01*
X148941000Y-139302309D01*
X149037673Y-139535698D01*
X149216301Y-139714327D01*
X149449690Y-139811000D01*
X150590250Y-139811000D01*
X150749000Y-139652250D01*
X150749000Y-138303000D01*
X151003000Y-138303000D01*
X151003000Y-139652250D01*
X151161750Y-139811000D01*
X152302310Y-139811000D01*
X152535699Y-139714327D01*
X152714327Y-139535698D01*
X152811000Y-139302309D01*
X152811000Y-138461750D01*
X161133000Y-138461750D01*
X161133000Y-139302309D01*
X161229673Y-139535698D01*
X161408301Y-139714327D01*
X161641690Y-139811000D01*
X162782250Y-139811000D01*
X162941000Y-139652250D01*
X162941000Y-138303000D01*
X163195000Y-138303000D01*
X163195000Y-139652250D01*
X163353750Y-139811000D01*
X164494310Y-139811000D01*
X164727699Y-139714327D01*
X164906327Y-139535698D01*
X165003000Y-139302309D01*
X165003000Y-138461750D01*
X172817000Y-138461750D01*
X172817000Y-139302309D01*
X172913673Y-139535698D01*
X173092301Y-139714327D01*
X173325690Y-139811000D01*
X174466250Y-139811000D01*
X174625000Y-139652250D01*
X174625000Y-138303000D01*
X174879000Y-138303000D01*
X174879000Y-139652250D01*
X175037750Y-139811000D01*
X176178310Y-139811000D01*
X176411699Y-139714327D01*
X176590327Y-139535698D01*
X176687000Y-139302309D01*
X176687000Y-138681388D01*
X187194120Y-138681388D01*
X187202025Y-139742357D01*
X187592832Y-140685846D01*
X187966879Y-140910516D01*
X189685395Y-139192000D01*
X190044605Y-139192000D01*
X191763121Y-140910516D01*
X192137168Y-140685846D01*
X192535880Y-139702612D01*
X192527975Y-138641643D01*
X192137168Y-137698154D01*
X191763121Y-137473484D01*
X190044605Y-139192000D01*
X189685395Y-139192000D01*
X187966879Y-137473484D01*
X187592832Y-137698154D01*
X187194120Y-138681388D01*
X176687000Y-138681388D01*
X176687000Y-138461750D01*
X176528250Y-138303000D01*
X174879000Y-138303000D01*
X174625000Y-138303000D01*
X172975750Y-138303000D01*
X172817000Y-138461750D01*
X165003000Y-138461750D01*
X164844250Y-138303000D01*
X163195000Y-138303000D01*
X162941000Y-138303000D01*
X161291750Y-138303000D01*
X161133000Y-138461750D01*
X152811000Y-138461750D01*
X152652250Y-138303000D01*
X151003000Y-138303000D01*
X150749000Y-138303000D01*
X149099750Y-138303000D01*
X148941000Y-138461750D01*
X140619000Y-138461750D01*
X140460250Y-138303000D01*
X138811000Y-138303000D01*
X138557000Y-138303000D01*
X136907750Y-138303000D01*
X136749000Y-138461750D01*
X127919000Y-138461750D01*
X127760250Y-138303000D01*
X126111000Y-138303000D01*
X125857000Y-138303000D01*
X124207750Y-138303000D01*
X124049000Y-138461750D01*
X105659856Y-138461750D01*
X105396168Y-137825154D01*
X105022121Y-137600484D01*
X103303605Y-139319000D01*
X102944395Y-139319000D01*
X101225879Y-137600484D01*
X100851832Y-137825154D01*
X100453120Y-138808388D01*
X100330000Y-138808388D01*
X100330000Y-137420879D01*
X101405484Y-137420879D01*
X103124000Y-139139395D01*
X104842516Y-137420879D01*
X104619564Y-137049691D01*
X124049000Y-137049691D01*
X124049000Y-137890250D01*
X124207750Y-138049000D01*
X125857000Y-138049000D01*
X125857000Y-135763000D01*
X126111000Y-135763000D01*
X126111000Y-138049000D01*
X127760250Y-138049000D01*
X127919000Y-137890250D01*
X127919000Y-137049691D01*
X136749000Y-137049691D01*
X136749000Y-137890250D01*
X136907750Y-138049000D01*
X138557000Y-138049000D01*
X138557000Y-135763000D01*
X138811000Y-135763000D01*
X138811000Y-138049000D01*
X140460250Y-138049000D01*
X140619000Y-137890250D01*
X140619000Y-137049691D01*
X148941000Y-137049691D01*
X148941000Y-137890250D01*
X149099750Y-138049000D01*
X150749000Y-138049000D01*
X150749000Y-135763000D01*
X151003000Y-135763000D01*
X151003000Y-138049000D01*
X152652250Y-138049000D01*
X152811000Y-137890250D01*
X152811000Y-137049691D01*
X161133000Y-137049691D01*
X161133000Y-137890250D01*
X161291750Y-138049000D01*
X162941000Y-138049000D01*
X162941000Y-135763000D01*
X163195000Y-135763000D01*
X163195000Y-138049000D01*
X164844250Y-138049000D01*
X165003000Y-137890250D01*
X165003000Y-137049691D01*
X172817000Y-137049691D01*
X172817000Y-137890250D01*
X172975750Y-138049000D01*
X174625000Y-138049000D01*
X174625000Y-135763000D01*
X174879000Y-135763000D01*
X174879000Y-138049000D01*
X176528250Y-138049000D01*
X176687000Y-137890250D01*
X176687000Y-137293879D01*
X188146484Y-137293879D01*
X189865000Y-139012395D01*
X191583516Y-137293879D01*
X191358846Y-136919832D01*
X190375612Y-136521120D01*
X189314643Y-136529025D01*
X188371154Y-136919832D01*
X188146484Y-137293879D01*
X176687000Y-137293879D01*
X176687000Y-137049691D01*
X176590327Y-136816302D01*
X176411699Y-136637673D01*
X176348830Y-136611632D01*
X176611144Y-136144355D01*
X176642124Y-136016434D01*
X176522777Y-135763000D01*
X174879000Y-135763000D01*
X174625000Y-135763000D01*
X172981223Y-135763000D01*
X172861876Y-136016434D01*
X172892856Y-136144355D01*
X173155170Y-136611632D01*
X173092301Y-136637673D01*
X172913673Y-136816302D01*
X172817000Y-137049691D01*
X165003000Y-137049691D01*
X164906327Y-136816302D01*
X164727699Y-136637673D01*
X164664830Y-136611632D01*
X164927144Y-136144355D01*
X164958124Y-136016434D01*
X164838777Y-135763000D01*
X163195000Y-135763000D01*
X162941000Y-135763000D01*
X161297223Y-135763000D01*
X161177876Y-136016434D01*
X161208856Y-136144355D01*
X161471170Y-136611632D01*
X161408301Y-136637673D01*
X161229673Y-136816302D01*
X161133000Y-137049691D01*
X152811000Y-137049691D01*
X152714327Y-136816302D01*
X152535699Y-136637673D01*
X152472830Y-136611632D01*
X152735144Y-136144355D01*
X152766124Y-136016434D01*
X152646777Y-135763000D01*
X151003000Y-135763000D01*
X150749000Y-135763000D01*
X149105223Y-135763000D01*
X148985876Y-136016434D01*
X149016856Y-136144355D01*
X149279170Y-136611632D01*
X149216301Y-136637673D01*
X149037673Y-136816302D01*
X148941000Y-137049691D01*
X140619000Y-137049691D01*
X140522327Y-136816302D01*
X140343699Y-136637673D01*
X140280830Y-136611632D01*
X140543144Y-136144355D01*
X140574124Y-136016434D01*
X140454777Y-135763000D01*
X138811000Y-135763000D01*
X138557000Y-135763000D01*
X136913223Y-135763000D01*
X136793876Y-136016434D01*
X136824856Y-136144355D01*
X137087170Y-136611632D01*
X137024301Y-136637673D01*
X136845673Y-136816302D01*
X136749000Y-137049691D01*
X127919000Y-137049691D01*
X127822327Y-136816302D01*
X127643699Y-136637673D01*
X127580830Y-136611632D01*
X127843144Y-136144355D01*
X127874124Y-136016434D01*
X127754777Y-135763000D01*
X126111000Y-135763000D01*
X125857000Y-135763000D01*
X124213223Y-135763000D01*
X124093876Y-136016434D01*
X124124856Y-136144355D01*
X124387170Y-136611632D01*
X124324301Y-136637673D01*
X124145673Y-136816302D01*
X124049000Y-137049691D01*
X104619564Y-137049691D01*
X104617846Y-137046832D01*
X103634612Y-136648120D01*
X102573643Y-136656025D01*
X101630154Y-137046832D01*
X101405484Y-137420879D01*
X100330000Y-137420879D01*
X100330000Y-103063663D01*
X110527931Y-103063663D01*
X110676493Y-103423212D01*
X110794800Y-103541726D01*
X110794800Y-108675206D01*
X110677460Y-108792341D01*
X110528270Y-109151630D01*
X110527931Y-109540663D01*
X110676493Y-109900212D01*
X110951341Y-110175540D01*
X111310630Y-110324730D01*
X111699663Y-110325069D01*
X112059212Y-110176507D01*
X112105144Y-110130655D01*
X112224330Y-110309029D01*
X112495161Y-110489992D01*
X112077179Y-110871510D01*
X111829032Y-111400973D01*
X111949531Y-111633000D01*
X113157000Y-111633000D01*
X113157000Y-111613000D01*
X113411000Y-111613000D01*
X113411000Y-111633000D01*
X113431000Y-111633000D01*
X113431000Y-111887000D01*
X113411000Y-111887000D01*
X113411000Y-111907000D01*
X113157000Y-111907000D01*
X113157000Y-111887000D01*
X111949531Y-111887000D01*
X111829032Y-112119027D01*
X112077179Y-112648490D01*
X112495161Y-113030008D01*
X112224330Y-113210971D01*
X111899474Y-113697152D01*
X111785400Y-114270641D01*
X111785400Y-114329359D01*
X111899474Y-114902848D01*
X112224330Y-115389029D01*
X112495172Y-115570000D01*
X112224330Y-115750971D01*
X111899474Y-116237152D01*
X111785400Y-116810641D01*
X111785400Y-116869359D01*
X111899474Y-117442848D01*
X112224330Y-117929029D01*
X112495161Y-118109992D01*
X112077179Y-118491510D01*
X111829032Y-119020973D01*
X111949531Y-119253000D01*
X113157000Y-119253000D01*
X113157000Y-119233000D01*
X113411000Y-119233000D01*
X113411000Y-119253000D01*
X113431000Y-119253000D01*
X113431000Y-119507000D01*
X113411000Y-119507000D01*
X113411000Y-119527000D01*
X113157000Y-119527000D01*
X113157000Y-119507000D01*
X111949531Y-119507000D01*
X111829032Y-119739027D01*
X112077179Y-120268490D01*
X112495161Y-120650008D01*
X112224330Y-120830971D01*
X111899474Y-121317152D01*
X111785400Y-121890641D01*
X111785400Y-121949359D01*
X111899474Y-122522848D01*
X112224330Y-123009029D01*
X112495172Y-123190000D01*
X112224330Y-123370971D01*
X111899474Y-123857152D01*
X111785400Y-124430641D01*
X111785400Y-124489359D01*
X111899474Y-125062848D01*
X112224330Y-125549029D01*
X112495172Y-125730000D01*
X112224330Y-125910971D01*
X111899474Y-126397152D01*
X111785400Y-126970641D01*
X111785400Y-127029359D01*
X111899474Y-127602848D01*
X112224330Y-128089029D01*
X112495161Y-128269992D01*
X112077179Y-128651510D01*
X111829032Y-129180973D01*
X111949531Y-129413000D01*
X113157000Y-129413000D01*
X113157000Y-129393000D01*
X113411000Y-129393000D01*
X113411000Y-129413000D01*
X113431000Y-129413000D01*
X113431000Y-129667000D01*
X113411000Y-129667000D01*
X113411000Y-129687000D01*
X113157000Y-129687000D01*
X113157000Y-129667000D01*
X111949531Y-129667000D01*
X111829032Y-129899027D01*
X112077179Y-130428490D01*
X112495161Y-130810008D01*
X112224330Y-130990971D01*
X111899474Y-131477152D01*
X111785400Y-132050641D01*
X111785400Y-132109359D01*
X111899474Y-132682848D01*
X112224330Y-133169029D01*
X112495172Y-133350000D01*
X112224330Y-133530971D01*
X111899474Y-134017152D01*
X111785400Y-134590641D01*
X111785400Y-134649359D01*
X111899474Y-135222848D01*
X112224330Y-135709029D01*
X112710511Y-136033885D01*
X113284000Y-136147959D01*
X113857489Y-136033885D01*
X114343670Y-135709029D01*
X114352805Y-135695358D01*
X114357238Y-135718917D01*
X114496310Y-135935041D01*
X114708510Y-136080031D01*
X114960400Y-136131040D01*
X116687600Y-136131040D01*
X116922917Y-136086762D01*
X117139041Y-135947690D01*
X117284031Y-135735490D01*
X117335040Y-135483600D01*
X117335040Y-133756400D01*
X117290762Y-133521083D01*
X117151690Y-133304959D01*
X116939490Y-133159969D01*
X116895655Y-133151092D01*
X117208526Y-132682848D01*
X117322600Y-132109359D01*
X117322600Y-132050641D01*
X117208526Y-131477152D01*
X116883670Y-130990971D01*
X116612828Y-130810000D01*
X116883670Y-130629029D01*
X117017325Y-130429000D01*
X121551764Y-130429000D01*
X122307382Y-131184618D01*
X122595794Y-131377329D01*
X122936000Y-131445000D01*
X124311488Y-131445000D01*
X124489971Y-131712120D01*
X124660405Y-131826000D01*
X124489971Y-131939880D01*
X124135548Y-132470313D01*
X124011091Y-133096000D01*
X124135548Y-133721687D01*
X124489971Y-134252120D01*
X124680188Y-134379219D01*
X124438078Y-134569683D01*
X124124856Y-135127645D01*
X124093876Y-135255566D01*
X124213223Y-135509000D01*
X125857000Y-135509000D01*
X125857000Y-135489000D01*
X126111000Y-135489000D01*
X126111000Y-135509000D01*
X127754777Y-135509000D01*
X127874124Y-135255566D01*
X127843144Y-135127645D01*
X127529922Y-134569683D01*
X127287812Y-134379219D01*
X127478029Y-134252120D01*
X127832452Y-133721687D01*
X127956909Y-133096000D01*
X127832452Y-132470313D01*
X127478029Y-131939880D01*
X127307595Y-131826000D01*
X127478029Y-131712120D01*
X127656512Y-131445000D01*
X128524000Y-131445000D01*
X128864206Y-131377329D01*
X129152618Y-131184618D01*
X130676618Y-129660618D01*
X130869329Y-129372206D01*
X130937000Y-129032000D01*
X130937000Y-126492000D01*
X130869329Y-126151794D01*
X130676618Y-125863382D01*
X129660618Y-124847382D01*
X129618182Y-124819027D01*
X129372206Y-124654671D01*
X129032000Y-124587000D01*
X126352236Y-124587000D01*
X125589000Y-123823764D01*
X125589000Y-119765194D01*
X125624655Y-119750462D01*
X126084846Y-119291073D01*
X126334206Y-118690547D01*
X126334774Y-118040306D01*
X126086462Y-117439345D01*
X125627073Y-116979154D01*
X125026547Y-116729794D01*
X124376306Y-116729226D01*
X123775345Y-116977538D01*
X123317000Y-117435084D01*
X123317000Y-116700236D01*
X123861766Y-116155470D01*
X124246453Y-116315206D01*
X124896694Y-116315774D01*
X125497655Y-116067462D01*
X125957846Y-115608073D01*
X126207206Y-115007547D01*
X126207774Y-114357306D01*
X125959462Y-113756345D01*
X125500073Y-113296154D01*
X124899547Y-113046794D01*
X124249306Y-113046226D01*
X123648345Y-113294538D01*
X123188154Y-113753927D01*
X122938794Y-114354453D01*
X122938611Y-114564153D01*
X121799382Y-115703382D01*
X121606671Y-115991794D01*
X121539000Y-116332000D01*
X121539000Y-125476000D01*
X121606671Y-125816206D01*
X121674245Y-125917337D01*
X121799382Y-126104618D01*
X124085663Y-128390899D01*
X124135548Y-128641687D01*
X124489971Y-129172120D01*
X124660405Y-129286000D01*
X124489971Y-129399880D01*
X124311488Y-129667000D01*
X123304236Y-129667000D01*
X122548618Y-128911382D01*
X122437790Y-128837329D01*
X122260206Y-128718671D01*
X121920000Y-128651000D01*
X117017325Y-128651000D01*
X116883670Y-128450971D01*
X116612828Y-128270000D01*
X116883670Y-128089029D01*
X117208526Y-127602848D01*
X117322600Y-127029359D01*
X117322600Y-126970641D01*
X117208526Y-126397152D01*
X116883670Y-125910971D01*
X116612839Y-125730008D01*
X117030821Y-125348490D01*
X117278968Y-124819027D01*
X117158469Y-124587000D01*
X115951000Y-124587000D01*
X115951000Y-124607000D01*
X115697000Y-124607000D01*
X115697000Y-124587000D01*
X115677000Y-124587000D01*
X115677000Y-124333000D01*
X115697000Y-124333000D01*
X115697000Y-124313000D01*
X115951000Y-124313000D01*
X115951000Y-124333000D01*
X117158469Y-124333000D01*
X117278968Y-124100973D01*
X117030821Y-123571510D01*
X116612839Y-123189992D01*
X116883670Y-123009029D01*
X117208526Y-122522848D01*
X117322600Y-121949359D01*
X117322600Y-121890641D01*
X117208526Y-121317152D01*
X116883670Y-120830971D01*
X116612828Y-120650000D01*
X116883670Y-120469029D01*
X117208526Y-119982848D01*
X117322600Y-119409359D01*
X117322600Y-119350641D01*
X117208526Y-118777152D01*
X116883670Y-118290971D01*
X116612828Y-118110000D01*
X116883670Y-117929029D01*
X117208526Y-117442848D01*
X117322600Y-116869359D01*
X117322600Y-116810641D01*
X117208526Y-116237152D01*
X116883670Y-115750971D01*
X116612828Y-115570000D01*
X116883670Y-115389029D01*
X117208526Y-114902848D01*
X117322600Y-114329359D01*
X117322600Y-114270641D01*
X117208526Y-113697152D01*
X116883670Y-113210971D01*
X116612828Y-113030000D01*
X116883670Y-112849029D01*
X117208526Y-112362848D01*
X117322600Y-111789359D01*
X117322600Y-111730641D01*
X117208526Y-111157152D01*
X116883670Y-110670971D01*
X116612828Y-110490000D01*
X116883670Y-110309029D01*
X117208526Y-109822848D01*
X117322600Y-109249359D01*
X117322600Y-109190641D01*
X117208526Y-108617152D01*
X116883670Y-108130971D01*
X116612828Y-107950000D01*
X116883670Y-107769029D01*
X117208526Y-107282848D01*
X117322600Y-106709359D01*
X117322600Y-106650641D01*
X117208526Y-106077152D01*
X116883670Y-105590971D01*
X116612839Y-105410008D01*
X117030821Y-105028490D01*
X117278968Y-104499027D01*
X117158469Y-104267000D01*
X115951000Y-104267000D01*
X115951000Y-104287000D01*
X115697000Y-104287000D01*
X115697000Y-104267000D01*
X115677000Y-104267000D01*
X115677000Y-104013000D01*
X115697000Y-104013000D01*
X115697000Y-103993000D01*
X115951000Y-103993000D01*
X115951000Y-104013000D01*
X117158469Y-104013000D01*
X117278968Y-103780973D01*
X117030821Y-103251510D01*
X116612839Y-102869992D01*
X116883670Y-102689029D01*
X117208526Y-102202848D01*
X117228026Y-102104814D01*
X118369106Y-103245894D01*
X118599835Y-103400063D01*
X118872000Y-103454200D01*
X121958144Y-103454200D01*
X121957931Y-103698663D01*
X122106493Y-104058212D01*
X122381341Y-104333540D01*
X122740630Y-104482730D01*
X123129663Y-104483069D01*
X123468173Y-104343200D01*
X123908709Y-104343200D01*
X123863270Y-104452630D01*
X123862931Y-104841663D01*
X124011493Y-105201212D01*
X124286341Y-105476540D01*
X124645630Y-105625730D01*
X125034663Y-105626069D01*
X125394212Y-105477507D01*
X125512726Y-105359200D01*
X136707592Y-105359200D01*
X136800982Y-105452590D01*
X136570389Y-105508271D01*
X136402378Y-105991078D01*
X136431917Y-106501428D01*
X136570389Y-106835729D01*
X136800984Y-106891410D01*
X137520395Y-106172000D01*
X137506252Y-106157858D01*
X137685858Y-105978252D01*
X137700000Y-105992395D01*
X137714142Y-105978252D01*
X137893748Y-106157858D01*
X137879605Y-106172000D01*
X137893748Y-106186142D01*
X137714142Y-106365748D01*
X137700000Y-106351605D01*
X136980590Y-107071016D01*
X137036271Y-107301611D01*
X137519078Y-107469622D01*
X138029428Y-107440083D01*
X138363729Y-107301611D01*
X138419410Y-107071018D01*
X138521072Y-107172680D01*
X138585910Y-107273441D01*
X138684000Y-107340463D01*
X138684000Y-113279806D01*
X138648345Y-113294538D01*
X138188154Y-113753927D01*
X137938794Y-114354453D01*
X137938226Y-115004694D01*
X138186538Y-115605655D01*
X138645927Y-116065846D01*
X138684000Y-116081655D01*
X138684000Y-117068724D01*
X138315154Y-117436927D01*
X138065794Y-118037453D01*
X138065226Y-118687694D01*
X138313538Y-119288655D01*
X138772927Y-119748846D01*
X138811000Y-119764655D01*
X138811000Y-122428000D01*
X138878671Y-122768206D01*
X139036920Y-123005042D01*
X139071382Y-123056618D01*
X142367000Y-126352236D01*
X142367000Y-130695764D01*
X140855764Y-132207000D01*
X140356512Y-132207000D01*
X140178029Y-131939880D01*
X140007595Y-131826000D01*
X140178029Y-131712120D01*
X140532452Y-131181687D01*
X140656909Y-130556000D01*
X140532452Y-129930313D01*
X140178029Y-129399880D01*
X140007595Y-129286000D01*
X140178029Y-129172120D01*
X140532452Y-128641687D01*
X140656909Y-128016000D01*
X140532452Y-127390313D01*
X140178029Y-126859880D01*
X139647596Y-126505457D01*
X139021909Y-126381000D01*
X138346091Y-126381000D01*
X137720404Y-126505457D01*
X137189971Y-126859880D01*
X136835548Y-127390313D01*
X136711091Y-128016000D01*
X136835548Y-128641687D01*
X137189971Y-129172120D01*
X137360405Y-129286000D01*
X137189971Y-129399880D01*
X136835548Y-129930313D01*
X136711091Y-130556000D01*
X136835548Y-131181687D01*
X137189971Y-131712120D01*
X137360405Y-131826000D01*
X137189971Y-131939880D01*
X136835548Y-132470313D01*
X136711091Y-133096000D01*
X136835548Y-133721687D01*
X137189971Y-134252120D01*
X137380188Y-134379219D01*
X137138078Y-134569683D01*
X136824856Y-135127645D01*
X136793876Y-135255566D01*
X136913223Y-135509000D01*
X138557000Y-135509000D01*
X138557000Y-135489000D01*
X138811000Y-135489000D01*
X138811000Y-135509000D01*
X140454777Y-135509000D01*
X140574124Y-135255566D01*
X140543144Y-135127645D01*
X140229922Y-134569683D01*
X139987812Y-134379219D01*
X140178029Y-134252120D01*
X140356512Y-133985000D01*
X141224000Y-133985000D01*
X141564206Y-133917329D01*
X141852618Y-133724618D01*
X143884618Y-131692618D01*
X143956221Y-131585457D01*
X144077329Y-131404206D01*
X144145000Y-131064000D01*
X144145000Y-126304663D01*
X145198931Y-126304663D01*
X145338800Y-126643173D01*
X145338800Y-130048000D01*
X145402604Y-130368766D01*
X145584303Y-130640697D01*
X146092303Y-131148697D01*
X146364235Y-131330396D01*
X146685000Y-131394200D01*
X149169544Y-131394200D01*
X149381971Y-131712120D01*
X149552405Y-131826000D01*
X149381971Y-131939880D01*
X149027548Y-132470313D01*
X148903091Y-133096000D01*
X149027548Y-133721687D01*
X149381971Y-134252120D01*
X149572188Y-134379219D01*
X149330078Y-134569683D01*
X149016856Y-135127645D01*
X148985876Y-135255566D01*
X149105223Y-135509000D01*
X150749000Y-135509000D01*
X150749000Y-135489000D01*
X151003000Y-135489000D01*
X151003000Y-135509000D01*
X152646777Y-135509000D01*
X152766124Y-135255566D01*
X152735144Y-135127645D01*
X152421922Y-134569683D01*
X152179812Y-134379219D01*
X152370029Y-134252120D01*
X152724452Y-133721687D01*
X152848909Y-133096000D01*
X152724452Y-132470313D01*
X152370029Y-131939880D01*
X152199595Y-131826000D01*
X152370029Y-131712120D01*
X152724452Y-131181687D01*
X152848909Y-130556000D01*
X152724452Y-129930313D01*
X152370029Y-129399880D01*
X152199595Y-129286000D01*
X152370029Y-129172120D01*
X152724452Y-128641687D01*
X152848909Y-128016000D01*
X161095091Y-128016000D01*
X161219548Y-128641687D01*
X161573971Y-129172120D01*
X161744405Y-129286000D01*
X161573971Y-129399880D01*
X161219548Y-129930313D01*
X161095091Y-130556000D01*
X161219548Y-131181687D01*
X161573971Y-131712120D01*
X161744405Y-131826000D01*
X161573971Y-131939880D01*
X161219548Y-132470313D01*
X161095091Y-133096000D01*
X161219548Y-133721687D01*
X161573971Y-134252120D01*
X161764188Y-134379219D01*
X161522078Y-134569683D01*
X161208856Y-135127645D01*
X161177876Y-135255566D01*
X161297223Y-135509000D01*
X162941000Y-135509000D01*
X162941000Y-135489000D01*
X163195000Y-135489000D01*
X163195000Y-135509000D01*
X164838777Y-135509000D01*
X164958124Y-135255566D01*
X164927144Y-135127645D01*
X164613922Y-134569683D01*
X164371812Y-134379219D01*
X164562029Y-134252120D01*
X164916452Y-133721687D01*
X165040909Y-133096000D01*
X164916452Y-132470313D01*
X164562029Y-131939880D01*
X164391595Y-131826000D01*
X164562029Y-131712120D01*
X164916452Y-131181687D01*
X165040909Y-130556000D01*
X164916452Y-129930313D01*
X164562029Y-129399880D01*
X164391595Y-129286000D01*
X164562029Y-129172120D01*
X164916452Y-128641687D01*
X165040909Y-128016000D01*
X172779091Y-128016000D01*
X172903548Y-128641687D01*
X173257971Y-129172120D01*
X173428405Y-129286000D01*
X173257971Y-129399880D01*
X172903548Y-129930313D01*
X172779091Y-130556000D01*
X172903548Y-131181687D01*
X173257971Y-131712120D01*
X173428405Y-131826000D01*
X173257971Y-131939880D01*
X172903548Y-132470313D01*
X172779091Y-133096000D01*
X172903548Y-133721687D01*
X173257971Y-134252120D01*
X173448188Y-134379219D01*
X173206078Y-134569683D01*
X172892856Y-135127645D01*
X172861876Y-135255566D01*
X172981223Y-135509000D01*
X174625000Y-135509000D01*
X174625000Y-135489000D01*
X174879000Y-135489000D01*
X174879000Y-135509000D01*
X176522777Y-135509000D01*
X176642124Y-135255566D01*
X176611144Y-135127645D01*
X176297922Y-134569683D01*
X176055812Y-134379219D01*
X176246029Y-134252120D01*
X176600452Y-133721687D01*
X176724909Y-133096000D01*
X176600452Y-132470313D01*
X176246029Y-131939880D01*
X176075595Y-131826000D01*
X176246029Y-131712120D01*
X176600452Y-131181687D01*
X176724909Y-130556000D01*
X176600452Y-129930313D01*
X176246029Y-129399880D01*
X176075595Y-129286000D01*
X176246029Y-129172120D01*
X176600452Y-128641687D01*
X176724909Y-128016000D01*
X176600452Y-127390313D01*
X176246029Y-126859880D01*
X175715596Y-126505457D01*
X175089909Y-126381000D01*
X174414091Y-126381000D01*
X173788404Y-126505457D01*
X173257971Y-126859880D01*
X172903548Y-127390313D01*
X172779091Y-128016000D01*
X165040909Y-128016000D01*
X164916452Y-127390313D01*
X164562029Y-126859880D01*
X164031596Y-126505457D01*
X163405909Y-126381000D01*
X162730091Y-126381000D01*
X162104404Y-126505457D01*
X161573971Y-126859880D01*
X161219548Y-127390313D01*
X161095091Y-128016000D01*
X152848909Y-128016000D01*
X152724452Y-127390313D01*
X152370029Y-126859880D01*
X151839596Y-126505457D01*
X151213909Y-126381000D01*
X150538091Y-126381000D01*
X149912404Y-126505457D01*
X149381971Y-126859880D01*
X149027548Y-127390313D01*
X148903091Y-128016000D01*
X149027548Y-128641687D01*
X149381971Y-129172120D01*
X149552405Y-129286000D01*
X149381971Y-129399880D01*
X149169544Y-129717800D01*
X147032194Y-129717800D01*
X147015200Y-129700806D01*
X147015200Y-126642395D01*
X147154730Y-126306370D01*
X147155069Y-125917337D01*
X147006507Y-125557788D01*
X146731659Y-125282460D01*
X146372370Y-125133270D01*
X145983337Y-125132931D01*
X145623788Y-125281493D01*
X145348460Y-125556341D01*
X145199270Y-125915630D01*
X145198931Y-126304663D01*
X144145000Y-126304663D01*
X144145000Y-125984000D01*
X144077329Y-125643794D01*
X143884618Y-125355382D01*
X142480537Y-123951301D01*
X142530726Y-123901200D01*
X181229000Y-123901200D01*
X181501165Y-123847063D01*
X181731894Y-123692894D01*
X182747894Y-122676894D01*
X182902063Y-122446165D01*
X182956200Y-122174000D01*
X182956200Y-122043440D01*
X183672000Y-122043440D01*
X183907317Y-121999162D01*
X184123441Y-121860090D01*
X184268431Y-121647890D01*
X184319440Y-121396000D01*
X184319440Y-119396000D01*
X184275162Y-119160683D01*
X184136090Y-118944559D01*
X183981671Y-118839049D01*
X184220452Y-118481687D01*
X184344909Y-117856000D01*
X184220452Y-117230313D01*
X183866029Y-116699880D01*
X183695595Y-116586000D01*
X183866029Y-116472120D01*
X184220452Y-115941687D01*
X184344909Y-115316000D01*
X184220452Y-114690313D01*
X183866029Y-114159880D01*
X183695595Y-114046000D01*
X183866029Y-113932120D01*
X184220452Y-113401687D01*
X184344909Y-112776000D01*
X184220452Y-112150313D01*
X183866029Y-111619880D01*
X183695595Y-111506000D01*
X183866029Y-111392120D01*
X184220452Y-110861687D01*
X184344909Y-110236000D01*
X184220452Y-109610313D01*
X183866029Y-109079880D01*
X183695595Y-108966000D01*
X183866029Y-108852120D01*
X184220452Y-108321687D01*
X184344909Y-107696000D01*
X184220452Y-107070313D01*
X183866029Y-106539880D01*
X183695595Y-106426000D01*
X183866029Y-106312120D01*
X184220452Y-105781687D01*
X184344909Y-105156000D01*
X184220452Y-104530313D01*
X183866029Y-103999880D01*
X183695595Y-103886000D01*
X183866029Y-103772120D01*
X184220452Y-103241687D01*
X184344909Y-102616000D01*
X184220452Y-101990313D01*
X183866029Y-101459880D01*
X183675812Y-101332781D01*
X183917922Y-101142317D01*
X184231144Y-100584355D01*
X184262124Y-100456434D01*
X184142777Y-100203000D01*
X182499000Y-100203000D01*
X182499000Y-100223000D01*
X182245000Y-100223000D01*
X182245000Y-100203000D01*
X180601223Y-100203000D01*
X180481876Y-100456434D01*
X180512856Y-100584355D01*
X180826078Y-101142317D01*
X181068188Y-101332781D01*
X180877971Y-101459880D01*
X180523548Y-101990313D01*
X180399091Y-102616000D01*
X180523548Y-103241687D01*
X180877971Y-103772120D01*
X181048405Y-103886000D01*
X180877971Y-103999880D01*
X180523548Y-104530313D01*
X180399091Y-105156000D01*
X180523548Y-105781687D01*
X180877971Y-106312120D01*
X181048405Y-106426000D01*
X180877971Y-106539880D01*
X180523548Y-107070313D01*
X180399091Y-107696000D01*
X180523548Y-108321687D01*
X180877971Y-108852120D01*
X181048405Y-108966000D01*
X180877971Y-109079880D01*
X180523548Y-109610313D01*
X180399091Y-110236000D01*
X180523548Y-110861687D01*
X180877971Y-111392120D01*
X181048405Y-111506000D01*
X180877971Y-111619880D01*
X180523548Y-112150313D01*
X180399091Y-112776000D01*
X180523548Y-113401687D01*
X180877971Y-113932120D01*
X181048405Y-114046000D01*
X180877971Y-114159880D01*
X180523548Y-114690313D01*
X180399091Y-115316000D01*
X180523548Y-115941687D01*
X180877971Y-116472120D01*
X181048405Y-116586000D01*
X180877971Y-116699880D01*
X180653145Y-117036357D01*
X180289200Y-116672412D01*
X180289200Y-103124000D01*
X180235063Y-102851836D01*
X180123615Y-102685042D01*
X180080894Y-102621105D01*
X178015925Y-100556136D01*
X178016069Y-100390337D01*
X177867507Y-100030788D01*
X177592659Y-99755460D01*
X177448419Y-99695566D01*
X180481876Y-99695566D01*
X180601223Y-99949000D01*
X182245000Y-99949000D01*
X182245000Y-98441000D01*
X182499000Y-98441000D01*
X182499000Y-99949000D01*
X184142777Y-99949000D01*
X184262124Y-99695566D01*
X184231144Y-99567645D01*
X183917922Y-99009683D01*
X183415020Y-98614058D01*
X182799000Y-98441000D01*
X182499000Y-98441000D01*
X182245000Y-98441000D01*
X181945000Y-98441000D01*
X181328980Y-98614058D01*
X180826078Y-99009683D01*
X180512856Y-99567645D01*
X180481876Y-99695566D01*
X177448419Y-99695566D01*
X177233370Y-99606270D01*
X176860291Y-99605945D01*
X178647373Y-97818863D01*
X178861212Y-97730507D01*
X179136540Y-97455659D01*
X179285730Y-97096370D01*
X179286069Y-96707337D01*
X179137507Y-96347788D01*
X178862659Y-96072460D01*
X178503370Y-95923270D01*
X178114337Y-95922931D01*
X177754788Y-96071493D01*
X177479460Y-96346341D01*
X177390014Y-96561750D01*
X172984858Y-100966906D01*
X173062730Y-100779370D01*
X173063069Y-100390337D01*
X172914507Y-100030788D01*
X172639659Y-99755460D01*
X172280370Y-99606270D01*
X171891337Y-99605931D01*
X171531788Y-99754493D01*
X171413274Y-99872800D01*
X124881588Y-99872800D01*
X124687788Y-99679000D01*
X125698250Y-99679000D01*
X125857000Y-99520250D01*
X125857000Y-98171000D01*
X126111000Y-98171000D01*
X126111000Y-99520250D01*
X126269750Y-99679000D01*
X127410310Y-99679000D01*
X127643699Y-99582327D01*
X127822327Y-99403698D01*
X127919000Y-99170309D01*
X127919000Y-98329750D01*
X136749000Y-98329750D01*
X136749000Y-99170309D01*
X136845673Y-99403698D01*
X137024301Y-99582327D01*
X137257690Y-99679000D01*
X138398250Y-99679000D01*
X138557000Y-99520250D01*
X138557000Y-98171000D01*
X138811000Y-98171000D01*
X138811000Y-99520250D01*
X138969750Y-99679000D01*
X140110310Y-99679000D01*
X140343699Y-99582327D01*
X140522327Y-99403698D01*
X140619000Y-99170309D01*
X140619000Y-98329750D01*
X140460250Y-98171000D01*
X138811000Y-98171000D01*
X138557000Y-98171000D01*
X136907750Y-98171000D01*
X136749000Y-98329750D01*
X127919000Y-98329750D01*
X127760250Y-98171000D01*
X126111000Y-98171000D01*
X125857000Y-98171000D01*
X124207750Y-98171000D01*
X124049000Y-98329750D01*
X124049000Y-99040212D01*
X123393200Y-98384412D01*
X123393200Y-96917691D01*
X124049000Y-96917691D01*
X124049000Y-97758250D01*
X124207750Y-97917000D01*
X125857000Y-97917000D01*
X125857000Y-95631000D01*
X126111000Y-95631000D01*
X126111000Y-97917000D01*
X127760250Y-97917000D01*
X127919000Y-97758250D01*
X127919000Y-96917691D01*
X136749000Y-96917691D01*
X136749000Y-97758250D01*
X136907750Y-97917000D01*
X138557000Y-97917000D01*
X138557000Y-95631000D01*
X138811000Y-95631000D01*
X138811000Y-97917000D01*
X140460250Y-97917000D01*
X140619000Y-97758250D01*
X140619000Y-96917691D01*
X140522327Y-96684302D01*
X140343699Y-96505673D01*
X140280830Y-96479632D01*
X140543144Y-96012355D01*
X140574124Y-95884434D01*
X140529536Y-95789750D01*
X148941000Y-95789750D01*
X148941000Y-96630309D01*
X149037673Y-96863698D01*
X149216301Y-97042327D01*
X149449690Y-97139000D01*
X150590250Y-97139000D01*
X150749000Y-96980250D01*
X150749000Y-95631000D01*
X151003000Y-95631000D01*
X151003000Y-96980250D01*
X151161750Y-97139000D01*
X152302310Y-97139000D01*
X152535699Y-97042327D01*
X152714327Y-96863698D01*
X152811000Y-96630309D01*
X152811000Y-95789750D01*
X161133000Y-95789750D01*
X161133000Y-96630309D01*
X161229673Y-96863698D01*
X161408301Y-97042327D01*
X161641690Y-97139000D01*
X162782250Y-97139000D01*
X162941000Y-96980250D01*
X162941000Y-95631000D01*
X163195000Y-95631000D01*
X163195000Y-96980250D01*
X163353750Y-97139000D01*
X164494310Y-97139000D01*
X164727699Y-97042327D01*
X164906327Y-96863698D01*
X165003000Y-96630309D01*
X165003000Y-95789750D01*
X164844250Y-95631000D01*
X163195000Y-95631000D01*
X162941000Y-95631000D01*
X161291750Y-95631000D01*
X161133000Y-95789750D01*
X152811000Y-95789750D01*
X152652250Y-95631000D01*
X151003000Y-95631000D01*
X150749000Y-95631000D01*
X149099750Y-95631000D01*
X148941000Y-95789750D01*
X140529536Y-95789750D01*
X140454777Y-95631000D01*
X138811000Y-95631000D01*
X138557000Y-95631000D01*
X136913223Y-95631000D01*
X136793876Y-95884434D01*
X136824856Y-96012355D01*
X137087170Y-96479632D01*
X137024301Y-96505673D01*
X136845673Y-96684302D01*
X136749000Y-96917691D01*
X127919000Y-96917691D01*
X127822327Y-96684302D01*
X127643699Y-96505673D01*
X127580830Y-96479632D01*
X127843144Y-96012355D01*
X127874124Y-95884434D01*
X127754777Y-95631000D01*
X126111000Y-95631000D01*
X125857000Y-95631000D01*
X124213223Y-95631000D01*
X124093876Y-95884434D01*
X124124856Y-96012355D01*
X124387170Y-96479632D01*
X124324301Y-96505673D01*
X124145673Y-96684302D01*
X124049000Y-96917691D01*
X123393200Y-96917691D01*
X123393200Y-92837000D01*
X123339063Y-92564836D01*
X123315138Y-92529029D01*
X123184895Y-92334106D01*
X120517894Y-89667106D01*
X120287165Y-89512937D01*
X120015000Y-89458800D01*
X117217288Y-89458800D01*
X117322600Y-88929359D01*
X117322600Y-88870641D01*
X117208526Y-88297152D01*
X116883670Y-87810971D01*
X116612839Y-87630008D01*
X117030821Y-87248490D01*
X117278968Y-86719027D01*
X117158469Y-86487000D01*
X115951000Y-86487000D01*
X115951000Y-86507000D01*
X115697000Y-86507000D01*
X115697000Y-86487000D01*
X115677000Y-86487000D01*
X115677000Y-86233000D01*
X115697000Y-86233000D01*
X115697000Y-85026183D01*
X115951000Y-85026183D01*
X115951000Y-86233000D01*
X117158469Y-86233000D01*
X117278968Y-86000973D01*
X117030821Y-85471510D01*
X116598947Y-85077312D01*
X116183026Y-84905042D01*
X115951000Y-85026183D01*
X115697000Y-85026183D01*
X115464974Y-84905042D01*
X115049053Y-85077312D01*
X114617179Y-85471510D01*
X114559664Y-85594228D01*
X114343670Y-85270971D01*
X113857489Y-84946115D01*
X113284000Y-84832041D01*
X112710511Y-84946115D01*
X112224330Y-85270971D01*
X111899474Y-85757152D01*
X111785400Y-86330641D01*
X111785400Y-86389359D01*
X111899474Y-86962848D01*
X112224330Y-87449029D01*
X112495172Y-87630000D01*
X112224330Y-87810971D01*
X111899474Y-88297152D01*
X111785400Y-88870641D01*
X111785400Y-88929359D01*
X111899474Y-89502848D01*
X112224330Y-89989029D01*
X112495172Y-90170000D01*
X112224330Y-90350971D01*
X111899474Y-90837152D01*
X111785400Y-91410641D01*
X111785400Y-91469359D01*
X111899474Y-92042848D01*
X112224330Y-92529029D01*
X112495161Y-92709992D01*
X112077179Y-93091510D01*
X111829032Y-93620973D01*
X111949531Y-93853000D01*
X113157000Y-93853000D01*
X113157000Y-93833000D01*
X113411000Y-93833000D01*
X113411000Y-93853000D01*
X113431000Y-93853000D01*
X113431000Y-94107000D01*
X113411000Y-94107000D01*
X113411000Y-94127000D01*
X113157000Y-94127000D01*
X113157000Y-94107000D01*
X111949531Y-94107000D01*
X111829032Y-94339027D01*
X112077179Y-94868490D01*
X112495161Y-95250008D01*
X112224330Y-95430971D01*
X111899474Y-95917152D01*
X111785400Y-96490641D01*
X111785400Y-96549359D01*
X111899474Y-97122848D01*
X112224330Y-97609029D01*
X112495161Y-97789992D01*
X112077179Y-98171510D01*
X111829032Y-98700973D01*
X111949531Y-98933000D01*
X113157000Y-98933000D01*
X113157000Y-98913000D01*
X113411000Y-98913000D01*
X113411000Y-98933000D01*
X113431000Y-98933000D01*
X113431000Y-99187000D01*
X113411000Y-99187000D01*
X113411000Y-99207000D01*
X113157000Y-99207000D01*
X113157000Y-99187000D01*
X111949531Y-99187000D01*
X111829032Y-99419027D01*
X112077179Y-99948490D01*
X112495161Y-100330008D01*
X112224330Y-100510971D01*
X111899474Y-100997152D01*
X111785400Y-101570641D01*
X111785400Y-101629359D01*
X111849970Y-101953974D01*
X111701370Y-101892270D01*
X111312337Y-101891931D01*
X110952788Y-102040493D01*
X110677460Y-102315341D01*
X110528270Y-102674630D01*
X110527931Y-103063663D01*
X100330000Y-103063663D01*
X100330000Y-84067121D01*
X101278484Y-84067121D01*
X101503154Y-84441168D01*
X102486388Y-84839880D01*
X103547357Y-84831975D01*
X104490846Y-84441168D01*
X104715516Y-84067121D01*
X102997000Y-82348605D01*
X101278484Y-84067121D01*
X100330000Y-84067121D01*
X100330000Y-82179142D01*
X100334025Y-82719357D01*
X100724832Y-83662846D01*
X101098879Y-83887516D01*
X102817395Y-82169000D01*
X103176605Y-82169000D01*
X104895121Y-83887516D01*
X105269168Y-83662846D01*
X105667880Y-82679612D01*
X105659975Y-81618643D01*
X105269168Y-80675154D01*
X104895121Y-80450484D01*
X103176605Y-82169000D01*
X102817395Y-82169000D01*
X101098879Y-80450484D01*
X100724832Y-80675154D01*
X100330000Y-81648820D01*
X100330000Y-79629000D01*
X102149756Y-79629000D01*
X101503154Y-79896832D01*
X101503154Y-79896832D01*
G37*
X101503154Y-79896832D02*
X101278484Y-80270879D01*
X102997000Y-81989395D01*
X104715516Y-80270879D01*
X104490846Y-79896832D01*
X103830365Y-79629000D01*
X122025614Y-79629000D01*
X121962303Y-79671303D01*
X120311303Y-81322303D01*
X120129604Y-81594234D01*
X120099487Y-81745643D01*
X120065800Y-81915000D01*
X120065800Y-83656427D01*
X119821460Y-83900341D01*
X119672270Y-84259630D01*
X119671931Y-84648663D01*
X119820493Y-85008212D01*
X120095341Y-85283540D01*
X120454630Y-85432730D01*
X120843663Y-85433069D01*
X121203212Y-85284507D01*
X121478540Y-85009659D01*
X121627730Y-84650370D01*
X121627776Y-84597524D01*
X121678396Y-84521766D01*
X121742200Y-84201000D01*
X121742200Y-82262194D01*
X122902194Y-81102200D01*
X136812806Y-81102200D01*
X137290988Y-81580382D01*
X137189971Y-81647880D01*
X136835548Y-82178313D01*
X136711091Y-82804000D01*
X136835548Y-83429687D01*
X137189971Y-83960120D01*
X137360405Y-84074000D01*
X137189971Y-84187880D01*
X137011488Y-84455000D01*
X127656512Y-84455000D01*
X127478029Y-84187880D01*
X127307595Y-84074000D01*
X127478029Y-83960120D01*
X127832452Y-83429687D01*
X127956909Y-82804000D01*
X127832452Y-82178313D01*
X127478029Y-81647880D01*
X126947596Y-81293457D01*
X126321909Y-81169000D01*
X125646091Y-81169000D01*
X125020404Y-81293457D01*
X124489971Y-81647880D01*
X124135548Y-82178313D01*
X124011091Y-82804000D01*
X124135548Y-83429687D01*
X124489971Y-83960120D01*
X124660405Y-84074000D01*
X124489971Y-84187880D01*
X124135548Y-84718313D01*
X124011091Y-85344000D01*
X124135548Y-85969687D01*
X124489971Y-86500120D01*
X124660405Y-86614000D01*
X124489971Y-86727880D01*
X124135548Y-87258313D01*
X124011091Y-87884000D01*
X124135548Y-88509687D01*
X124489971Y-89040120D01*
X124660405Y-89154000D01*
X124489971Y-89267880D01*
X124135548Y-89798313D01*
X124011091Y-90424000D01*
X124135548Y-91049687D01*
X124489971Y-91580120D01*
X124660405Y-91694000D01*
X124489971Y-91807880D01*
X124135548Y-92338313D01*
X124011091Y-92964000D01*
X124135548Y-93589687D01*
X124489971Y-94120120D01*
X124680188Y-94247219D01*
X124438078Y-94437683D01*
X124124856Y-94995645D01*
X124093876Y-95123566D01*
X124213223Y-95377000D01*
X125857000Y-95377000D01*
X125857000Y-95357000D01*
X126111000Y-95357000D01*
X126111000Y-95377000D01*
X127754777Y-95377000D01*
X127874124Y-95123566D01*
X127843144Y-94995645D01*
X127529922Y-94437683D01*
X127287812Y-94247219D01*
X127478029Y-94120120D01*
X127656512Y-93853000D01*
X137011488Y-93853000D01*
X137189971Y-94120120D01*
X137380188Y-94247219D01*
X137138078Y-94437683D01*
X136824856Y-94995645D01*
X136793876Y-95123566D01*
X136913223Y-95377000D01*
X138557000Y-95377000D01*
X138557000Y-95357000D01*
X138811000Y-95357000D01*
X138811000Y-95377000D01*
X140454777Y-95377000D01*
X140574124Y-95123566D01*
X140543144Y-94995645D01*
X140229922Y-94437683D01*
X140153663Y-94377691D01*
X148941000Y-94377691D01*
X148941000Y-95218250D01*
X149099750Y-95377000D01*
X150749000Y-95377000D01*
X150749000Y-93091000D01*
X151003000Y-93091000D01*
X151003000Y-95377000D01*
X152652250Y-95377000D01*
X152811000Y-95218250D01*
X152811000Y-94377691D01*
X161133000Y-94377691D01*
X161133000Y-95218250D01*
X161291750Y-95377000D01*
X162941000Y-95377000D01*
X162941000Y-93091000D01*
X163195000Y-93091000D01*
X163195000Y-95377000D01*
X164844250Y-95377000D01*
X165003000Y-95218250D01*
X165003000Y-95024381D01*
X180491224Y-95024381D01*
X180528418Y-95239532D01*
X180956880Y-95382491D01*
X181407435Y-95350602D01*
X181675582Y-95239532D01*
X181712776Y-95024381D01*
X181102000Y-94413605D01*
X180491224Y-95024381D01*
X165003000Y-95024381D01*
X165003000Y-94377691D01*
X164906327Y-94144302D01*
X164727699Y-93965673D01*
X164664830Y-93939632D01*
X164927144Y-93472355D01*
X164958124Y-93344434D01*
X164838777Y-93091000D01*
X163195000Y-93091000D01*
X162941000Y-93091000D01*
X161297223Y-93091000D01*
X161177876Y-93344434D01*
X161208856Y-93472355D01*
X161471170Y-93939632D01*
X161408301Y-93965673D01*
X161229673Y-94144302D01*
X161133000Y-94377691D01*
X152811000Y-94377691D01*
X152714327Y-94144302D01*
X152535699Y-93965673D01*
X152472830Y-93939632D01*
X152735144Y-93472355D01*
X152766124Y-93344434D01*
X152646777Y-93091000D01*
X151003000Y-93091000D01*
X150749000Y-93091000D01*
X149105223Y-93091000D01*
X148985876Y-93344434D01*
X149016856Y-93472355D01*
X149279170Y-93939632D01*
X149216301Y-93965673D01*
X149037673Y-94144302D01*
X148941000Y-94377691D01*
X140153663Y-94377691D01*
X139987812Y-94247219D01*
X140178029Y-94120120D01*
X140356512Y-93853000D01*
X146558000Y-93853000D01*
X146898206Y-93785329D01*
X147186618Y-93592618D01*
X149308730Y-91470506D01*
X149381971Y-91580120D01*
X149572188Y-91707219D01*
X149330078Y-91897683D01*
X149016856Y-92455645D01*
X148985876Y-92583566D01*
X149105223Y-92837000D01*
X150749000Y-92837000D01*
X150749000Y-92817000D01*
X151003000Y-92817000D01*
X151003000Y-92837000D01*
X152646777Y-92837000D01*
X152766124Y-92583566D01*
X152735144Y-92455645D01*
X152421922Y-91897683D01*
X152179812Y-91707219D01*
X152370029Y-91580120D01*
X152548512Y-91313000D01*
X161395488Y-91313000D01*
X161573971Y-91580120D01*
X161764188Y-91707219D01*
X161522078Y-91897683D01*
X161208856Y-92455645D01*
X161177876Y-92583566D01*
X161297223Y-92837000D01*
X162941000Y-92837000D01*
X162941000Y-92817000D01*
X163195000Y-92817000D01*
X163195000Y-92837000D01*
X164838777Y-92837000D01*
X164958124Y-92583566D01*
X164927144Y-92455645D01*
X164613922Y-91897683D01*
X164371812Y-91707219D01*
X164562029Y-91580120D01*
X164740512Y-91313000D01*
X166624000Y-91313000D01*
X166964206Y-91245329D01*
X167252618Y-91052618D01*
X172123065Y-86182171D01*
X172720000Y-86300909D01*
X173345687Y-86176452D01*
X173876120Y-85822029D01*
X173990000Y-85651595D01*
X174103880Y-85822029D01*
X174371000Y-86000512D01*
X174371000Y-88392000D01*
X174438671Y-88732206D01*
X174550788Y-88900000D01*
X174631382Y-89020618D01*
X178696514Y-93085750D01*
X178696424Y-93188850D01*
X178868911Y-93606301D01*
X179188019Y-93925967D01*
X179605168Y-94099182D01*
X179954260Y-94099487D01*
X179985398Y-94539435D01*
X180096468Y-94807582D01*
X180311619Y-94844776D01*
X180922395Y-94234000D01*
X180908253Y-94219858D01*
X181087858Y-94040253D01*
X181102000Y-94054395D01*
X181116143Y-94040253D01*
X181295748Y-94219858D01*
X181281605Y-94234000D01*
X181892381Y-94844776D01*
X182107532Y-94807582D01*
X182250491Y-94379120D01*
X182230683Y-94099257D01*
X182596850Y-94099576D01*
X183014301Y-93927089D01*
X183333967Y-93607981D01*
X183507182Y-93190832D01*
X183507576Y-92739150D01*
X183335089Y-92321699D01*
X183015981Y-92002033D01*
X182598832Y-91828818D01*
X182147150Y-91828424D01*
X181729699Y-92000911D01*
X181410033Y-92320019D01*
X181236818Y-92737168D01*
X181236513Y-93086260D01*
X180967257Y-93105317D01*
X180967576Y-92739150D01*
X180795089Y-92321699D01*
X180475981Y-92002033D01*
X180058832Y-91828818D01*
X179953963Y-91828727D01*
X176149000Y-88023764D01*
X176149000Y-86000512D01*
X176416120Y-85822029D01*
X176543219Y-85631812D01*
X176733683Y-85873922D01*
X177291645Y-86187144D01*
X177419566Y-86218124D01*
X177673000Y-86098777D01*
X177673000Y-84455000D01*
X177927000Y-84455000D01*
X177927000Y-86098777D01*
X178180434Y-86218124D01*
X178308355Y-86187144D01*
X178775632Y-85924830D01*
X178801673Y-85987699D01*
X178980302Y-86166327D01*
X179213691Y-86263000D01*
X180054250Y-86263000D01*
X180213000Y-86104250D01*
X180213000Y-84455000D01*
X180467000Y-84455000D01*
X180467000Y-86104250D01*
X180625750Y-86263000D01*
X181466309Y-86263000D01*
X181699698Y-86166327D01*
X181878327Y-85987699D01*
X181975000Y-85754310D01*
X181975000Y-84613750D01*
X181816250Y-84455000D01*
X180467000Y-84455000D01*
X180213000Y-84455000D01*
X177927000Y-84455000D01*
X177673000Y-84455000D01*
X177653000Y-84455000D01*
X177653000Y-84201000D01*
X177673000Y-84201000D01*
X177673000Y-82557223D01*
X177927000Y-82557223D01*
X177927000Y-84201000D01*
X180213000Y-84201000D01*
X180213000Y-82551750D01*
X180467000Y-82551750D01*
X180467000Y-84201000D01*
X181816250Y-84201000D01*
X181823129Y-84194121D01*
X188146484Y-84194121D01*
X188371154Y-84568168D01*
X189354388Y-84966880D01*
X190415357Y-84958975D01*
X191358846Y-84568168D01*
X191583516Y-84194121D01*
X189865000Y-82475605D01*
X188146484Y-84194121D01*
X181823129Y-84194121D01*
X181975000Y-84042250D01*
X181975000Y-82901690D01*
X181878327Y-82668301D01*
X181699698Y-82489673D01*
X181466309Y-82393000D01*
X180625750Y-82393000D01*
X180467000Y-82551750D01*
X180213000Y-82551750D01*
X180054250Y-82393000D01*
X179213691Y-82393000D01*
X178980302Y-82489673D01*
X178801673Y-82668301D01*
X178775632Y-82731170D01*
X178308355Y-82468856D01*
X178180434Y-82437876D01*
X177927000Y-82557223D01*
X177673000Y-82557223D01*
X177419566Y-82437876D01*
X177291645Y-82468856D01*
X176733683Y-82782078D01*
X176543219Y-83024188D01*
X176416120Y-82833971D01*
X175885687Y-82479548D01*
X175260000Y-82355091D01*
X174634313Y-82479548D01*
X174103880Y-82833971D01*
X173990000Y-83004405D01*
X173876120Y-82833971D01*
X173345687Y-82479548D01*
X172720000Y-82355091D01*
X172094313Y-82479548D01*
X171563880Y-82833971D01*
X171209457Y-83364404D01*
X171085000Y-83990091D01*
X171085000Y-84665909D01*
X171091612Y-84699152D01*
X166255764Y-89535000D01*
X164740512Y-89535000D01*
X164562029Y-89267880D01*
X164391595Y-89154000D01*
X164562029Y-89040120D01*
X164916452Y-88509687D01*
X165040909Y-87884000D01*
X164916452Y-87258313D01*
X164562029Y-86727880D01*
X164391595Y-86614000D01*
X164562029Y-86500120D01*
X164916452Y-85969687D01*
X165040909Y-85344000D01*
X164916452Y-84718313D01*
X164562029Y-84187880D01*
X164391595Y-84074000D01*
X164562029Y-83960120D01*
X164916452Y-83429687D01*
X165040909Y-82804000D01*
X164916452Y-82178313D01*
X164653909Y-81785388D01*
X187194120Y-81785388D01*
X187202025Y-82846357D01*
X187592832Y-83789846D01*
X187966879Y-84014516D01*
X189685395Y-82296000D01*
X190044605Y-82296000D01*
X191763121Y-84014516D01*
X192137168Y-83789846D01*
X192535880Y-82806612D01*
X192527975Y-81745643D01*
X192137168Y-80802154D01*
X191763121Y-80577484D01*
X190044605Y-82296000D01*
X189685395Y-82296000D01*
X187966879Y-80577484D01*
X187592832Y-80802154D01*
X187194120Y-81785388D01*
X164653909Y-81785388D01*
X164562029Y-81647880D01*
X164031596Y-81293457D01*
X163405909Y-81169000D01*
X162730091Y-81169000D01*
X162104404Y-81293457D01*
X161573971Y-81647880D01*
X161395488Y-81915000D01*
X152548512Y-81915000D01*
X152370029Y-81647880D01*
X151839596Y-81293457D01*
X151213909Y-81169000D01*
X150538091Y-81169000D01*
X149912404Y-81293457D01*
X149381971Y-81647880D01*
X149027548Y-82178313D01*
X148903091Y-82804000D01*
X149027548Y-83429687D01*
X149381971Y-83960120D01*
X149552405Y-84074000D01*
X149381971Y-84187880D01*
X149027548Y-84718313D01*
X148903091Y-85344000D01*
X149027548Y-85969687D01*
X149381971Y-86500120D01*
X149552405Y-86614000D01*
X149381971Y-86727880D01*
X149027548Y-87258313D01*
X148903091Y-87884000D01*
X149027548Y-88509687D01*
X149381971Y-89040120D01*
X149552405Y-89154000D01*
X149381971Y-89267880D01*
X149203488Y-89535000D01*
X149098000Y-89535000D01*
X148757794Y-89602671D01*
X148469382Y-89795382D01*
X146189764Y-92075000D01*
X140356512Y-92075000D01*
X140178029Y-91807880D01*
X140007595Y-91694000D01*
X140178029Y-91580120D01*
X140532452Y-91049687D01*
X140656909Y-90424000D01*
X140532452Y-89798313D01*
X140178029Y-89267880D01*
X140007595Y-89154000D01*
X140178029Y-89040120D01*
X140532452Y-88509687D01*
X140656909Y-87884000D01*
X140532452Y-87258313D01*
X140178029Y-86727880D01*
X140007595Y-86614000D01*
X140178029Y-86500120D01*
X140532452Y-85969687D01*
X140656909Y-85344000D01*
X140532452Y-84718313D01*
X140178029Y-84187880D01*
X140007595Y-84074000D01*
X140178029Y-83960120D01*
X140532452Y-83429687D01*
X140656909Y-82804000D01*
X140532452Y-82178313D01*
X140178029Y-81647880D01*
X139647596Y-81293457D01*
X139246882Y-81213750D01*
X139149697Y-81068303D01*
X137752697Y-79671303D01*
X137689386Y-79629000D01*
X189854858Y-79629000D01*
X189314643Y-79633025D01*
X188371154Y-80023832D01*
X188146484Y-80397879D01*
X189865000Y-82116395D01*
X191583516Y-80397879D01*
X191358846Y-80023832D01*
X190385180Y-79629000D01*
X192659000Y-79629000D01*
X192659000Y-141859000D01*
X189875142Y-141859000D01*
X190415357Y-141854975D01*
X191358846Y-141464168D01*
X191583516Y-141090121D01*
X189865000Y-139371605D01*
X188146484Y-141090121D01*
X188371154Y-141464168D01*
X189344820Y-141859000D01*
X103971244Y-141859000D01*
X104617846Y-141591168D01*
X104842516Y-141217121D01*
X103124000Y-139498605D01*
X101405484Y-141217121D01*
X101630154Y-141591168D01*
X102290635Y-141859000D01*
X100330000Y-141859000D01*
X100330000Y-138808388D01*
X100453120Y-138808388D01*
X100461025Y-139869357D01*
X100851832Y-140812846D01*
X101225879Y-141037516D01*
X102944395Y-139319000D01*
X103303605Y-139319000D01*
X105022121Y-141037516D01*
X105396168Y-140812846D01*
X105794880Y-139829612D01*
X105786975Y-138768643D01*
X105659856Y-138461750D01*
X124049000Y-138461750D01*
X124049000Y-139302309D01*
X124145673Y-139535698D01*
X124324301Y-139714327D01*
X124557690Y-139811000D01*
X125698250Y-139811000D01*
X125857000Y-139652250D01*
X125857000Y-138303000D01*
X126111000Y-138303000D01*
X126111000Y-139652250D01*
X126269750Y-139811000D01*
X127410310Y-139811000D01*
X127643699Y-139714327D01*
X127822327Y-139535698D01*
X127919000Y-139302309D01*
X127919000Y-138461750D01*
X136749000Y-138461750D01*
X136749000Y-139302309D01*
X136845673Y-139535698D01*
X137024301Y-139714327D01*
X137257690Y-139811000D01*
X138398250Y-139811000D01*
X138557000Y-139652250D01*
X138557000Y-138303000D01*
X138811000Y-138303000D01*
X138811000Y-139652250D01*
X138969750Y-139811000D01*
X140110310Y-139811000D01*
X140343699Y-139714327D01*
X140522327Y-139535698D01*
X140619000Y-139302309D01*
X140619000Y-138461750D01*
X148941000Y-138461750D01*
X148941000Y-139302309D01*
X149037673Y-139535698D01*
X149216301Y-139714327D01*
X149449690Y-139811000D01*
X150590250Y-139811000D01*
X150749000Y-139652250D01*
X150749000Y-138303000D01*
X151003000Y-138303000D01*
X151003000Y-139652250D01*
X151161750Y-139811000D01*
X152302310Y-139811000D01*
X152535699Y-139714327D01*
X152714327Y-139535698D01*
X152811000Y-139302309D01*
X152811000Y-138461750D01*
X161133000Y-138461750D01*
X161133000Y-139302309D01*
X161229673Y-139535698D01*
X161408301Y-139714327D01*
X161641690Y-139811000D01*
X162782250Y-139811000D01*
X162941000Y-139652250D01*
X162941000Y-138303000D01*
X163195000Y-138303000D01*
X163195000Y-139652250D01*
X163353750Y-139811000D01*
X164494310Y-139811000D01*
X164727699Y-139714327D01*
X164906327Y-139535698D01*
X165003000Y-139302309D01*
X165003000Y-138461750D01*
X172817000Y-138461750D01*
X172817000Y-139302309D01*
X172913673Y-139535698D01*
X173092301Y-139714327D01*
X173325690Y-139811000D01*
X174466250Y-139811000D01*
X174625000Y-139652250D01*
X174625000Y-138303000D01*
X174879000Y-138303000D01*
X174879000Y-139652250D01*
X175037750Y-139811000D01*
X176178310Y-139811000D01*
X176411699Y-139714327D01*
X176590327Y-139535698D01*
X176687000Y-139302309D01*
X176687000Y-138681388D01*
X187194120Y-138681388D01*
X187202025Y-139742357D01*
X187592832Y-140685846D01*
X187966879Y-140910516D01*
X189685395Y-139192000D01*
X190044605Y-139192000D01*
X191763121Y-140910516D01*
X192137168Y-140685846D01*
X192535880Y-139702612D01*
X192527975Y-138641643D01*
X192137168Y-137698154D01*
X191763121Y-137473484D01*
X190044605Y-139192000D01*
X189685395Y-139192000D01*
X187966879Y-137473484D01*
X187592832Y-137698154D01*
X187194120Y-138681388D01*
X176687000Y-138681388D01*
X176687000Y-138461750D01*
X176528250Y-138303000D01*
X174879000Y-138303000D01*
X174625000Y-138303000D01*
X172975750Y-138303000D01*
X172817000Y-138461750D01*
X165003000Y-138461750D01*
X164844250Y-138303000D01*
X163195000Y-138303000D01*
X162941000Y-138303000D01*
X161291750Y-138303000D01*
X161133000Y-138461750D01*
X152811000Y-138461750D01*
X152652250Y-138303000D01*
X151003000Y-138303000D01*
X150749000Y-138303000D01*
X149099750Y-138303000D01*
X148941000Y-138461750D01*
X140619000Y-138461750D01*
X140460250Y-138303000D01*
X138811000Y-138303000D01*
X138557000Y-138303000D01*
X136907750Y-138303000D01*
X136749000Y-138461750D01*
X127919000Y-138461750D01*
X127760250Y-138303000D01*
X126111000Y-138303000D01*
X125857000Y-138303000D01*
X124207750Y-138303000D01*
X124049000Y-138461750D01*
X105659856Y-138461750D01*
X105396168Y-137825154D01*
X105022121Y-137600484D01*
X103303605Y-139319000D01*
X102944395Y-139319000D01*
X101225879Y-137600484D01*
X100851832Y-137825154D01*
X100453120Y-138808388D01*
X100330000Y-138808388D01*
X100330000Y-137420879D01*
X101405484Y-137420879D01*
X103124000Y-139139395D01*
X104842516Y-137420879D01*
X104619564Y-137049691D01*
X124049000Y-137049691D01*
X124049000Y-137890250D01*
X124207750Y-138049000D01*
X125857000Y-138049000D01*
X125857000Y-135763000D01*
X126111000Y-135763000D01*
X126111000Y-138049000D01*
X127760250Y-138049000D01*
X127919000Y-137890250D01*
X127919000Y-137049691D01*
X136749000Y-137049691D01*
X136749000Y-137890250D01*
X136907750Y-138049000D01*
X138557000Y-138049000D01*
X138557000Y-135763000D01*
X138811000Y-135763000D01*
X138811000Y-138049000D01*
X140460250Y-138049000D01*
X140619000Y-137890250D01*
X140619000Y-137049691D01*
X148941000Y-137049691D01*
X148941000Y-137890250D01*
X149099750Y-138049000D01*
X150749000Y-138049000D01*
X150749000Y-135763000D01*
X151003000Y-135763000D01*
X151003000Y-138049000D01*
X152652250Y-138049000D01*
X152811000Y-137890250D01*
X152811000Y-137049691D01*
X161133000Y-137049691D01*
X161133000Y-137890250D01*
X161291750Y-138049000D01*
X162941000Y-138049000D01*
X162941000Y-135763000D01*
X163195000Y-135763000D01*
X163195000Y-138049000D01*
X164844250Y-138049000D01*
X165003000Y-137890250D01*
X165003000Y-137049691D01*
X172817000Y-137049691D01*
X172817000Y-137890250D01*
X172975750Y-138049000D01*
X174625000Y-138049000D01*
X174625000Y-135763000D01*
X174879000Y-135763000D01*
X174879000Y-138049000D01*
X176528250Y-138049000D01*
X176687000Y-137890250D01*
X176687000Y-137293879D01*
X188146484Y-137293879D01*
X189865000Y-139012395D01*
X191583516Y-137293879D01*
X191358846Y-136919832D01*
X190375612Y-136521120D01*
X189314643Y-136529025D01*
X188371154Y-136919832D01*
X188146484Y-137293879D01*
X176687000Y-137293879D01*
X176687000Y-137049691D01*
X176590327Y-136816302D01*
X176411699Y-136637673D01*
X176348830Y-136611632D01*
X176611144Y-136144355D01*
X176642124Y-136016434D01*
X176522777Y-135763000D01*
X174879000Y-135763000D01*
X174625000Y-135763000D01*
X172981223Y-135763000D01*
X172861876Y-136016434D01*
X172892856Y-136144355D01*
X173155170Y-136611632D01*
X173092301Y-136637673D01*
X172913673Y-136816302D01*
X172817000Y-137049691D01*
X165003000Y-137049691D01*
X164906327Y-136816302D01*
X164727699Y-136637673D01*
X164664830Y-136611632D01*
X164927144Y-136144355D01*
X164958124Y-136016434D01*
X164838777Y-135763000D01*
X163195000Y-135763000D01*
X162941000Y-135763000D01*
X161297223Y-135763000D01*
X161177876Y-136016434D01*
X161208856Y-136144355D01*
X161471170Y-136611632D01*
X161408301Y-136637673D01*
X161229673Y-136816302D01*
X161133000Y-137049691D01*
X152811000Y-137049691D01*
X152714327Y-136816302D01*
X152535699Y-136637673D01*
X152472830Y-136611632D01*
X152735144Y-136144355D01*
X152766124Y-136016434D01*
X152646777Y-135763000D01*
X151003000Y-135763000D01*
X150749000Y-135763000D01*
X149105223Y-135763000D01*
X148985876Y-136016434D01*
X149016856Y-136144355D01*
X149279170Y-136611632D01*
X149216301Y-136637673D01*
X149037673Y-136816302D01*
X148941000Y-137049691D01*
X140619000Y-137049691D01*
X140522327Y-136816302D01*
X140343699Y-136637673D01*
X140280830Y-136611632D01*
X140543144Y-136144355D01*
X140574124Y-136016434D01*
X140454777Y-135763000D01*
X138811000Y-135763000D01*
X138557000Y-135763000D01*
X136913223Y-135763000D01*
X136793876Y-136016434D01*
X136824856Y-136144355D01*
X137087170Y-136611632D01*
X137024301Y-136637673D01*
X136845673Y-136816302D01*
X136749000Y-137049691D01*
X127919000Y-137049691D01*
X127822327Y-136816302D01*
X127643699Y-136637673D01*
X127580830Y-136611632D01*
X127843144Y-136144355D01*
X127874124Y-136016434D01*
X127754777Y-135763000D01*
X126111000Y-135763000D01*
X125857000Y-135763000D01*
X124213223Y-135763000D01*
X124093876Y-136016434D01*
X124124856Y-136144355D01*
X124387170Y-136611632D01*
X124324301Y-136637673D01*
X124145673Y-136816302D01*
X124049000Y-137049691D01*
X104619564Y-137049691D01*
X104617846Y-137046832D01*
X103634612Y-136648120D01*
X102573643Y-136656025D01*
X101630154Y-137046832D01*
X101405484Y-137420879D01*
X100330000Y-137420879D01*
X100330000Y-103063663D01*
X110527931Y-103063663D01*
X110676493Y-103423212D01*
X110794800Y-103541726D01*
X110794800Y-108675206D01*
X110677460Y-108792341D01*
X110528270Y-109151630D01*
X110527931Y-109540663D01*
X110676493Y-109900212D01*
X110951341Y-110175540D01*
X111310630Y-110324730D01*
X111699663Y-110325069D01*
X112059212Y-110176507D01*
X112105144Y-110130655D01*
X112224330Y-110309029D01*
X112495161Y-110489992D01*
X112077179Y-110871510D01*
X111829032Y-111400973D01*
X111949531Y-111633000D01*
X113157000Y-111633000D01*
X113157000Y-111613000D01*
X113411000Y-111613000D01*
X113411000Y-111633000D01*
X113431000Y-111633000D01*
X113431000Y-111887000D01*
X113411000Y-111887000D01*
X113411000Y-111907000D01*
X113157000Y-111907000D01*
X113157000Y-111887000D01*
X111949531Y-111887000D01*
X111829032Y-112119027D01*
X112077179Y-112648490D01*
X112495161Y-113030008D01*
X112224330Y-113210971D01*
X111899474Y-113697152D01*
X111785400Y-114270641D01*
X111785400Y-114329359D01*
X111899474Y-114902848D01*
X112224330Y-115389029D01*
X112495172Y-115570000D01*
X112224330Y-115750971D01*
X111899474Y-116237152D01*
X111785400Y-116810641D01*
X111785400Y-116869359D01*
X111899474Y-117442848D01*
X112224330Y-117929029D01*
X112495161Y-118109992D01*
X112077179Y-118491510D01*
X111829032Y-119020973D01*
X111949531Y-119253000D01*
X113157000Y-119253000D01*
X113157000Y-119233000D01*
X113411000Y-119233000D01*
X113411000Y-119253000D01*
X113431000Y-119253000D01*
X113431000Y-119507000D01*
X113411000Y-119507000D01*
X113411000Y-119527000D01*
X113157000Y-119527000D01*
X113157000Y-119507000D01*
X111949531Y-119507000D01*
X111829032Y-119739027D01*
X112077179Y-120268490D01*
X112495161Y-120650008D01*
X112224330Y-120830971D01*
X111899474Y-121317152D01*
X111785400Y-121890641D01*
X111785400Y-121949359D01*
X111899474Y-122522848D01*
X112224330Y-123009029D01*
X112495172Y-123190000D01*
X112224330Y-123370971D01*
X111899474Y-123857152D01*
X111785400Y-124430641D01*
X111785400Y-124489359D01*
X111899474Y-125062848D01*
X112224330Y-125549029D01*
X112495172Y-125730000D01*
X112224330Y-125910971D01*
X111899474Y-126397152D01*
X111785400Y-126970641D01*
X111785400Y-127029359D01*
X111899474Y-127602848D01*
X112224330Y-128089029D01*
X112495161Y-128269992D01*
X112077179Y-128651510D01*
X111829032Y-129180973D01*
X111949531Y-129413000D01*
X113157000Y-129413000D01*
X113157000Y-129393000D01*
X113411000Y-129393000D01*
X113411000Y-129413000D01*
X113431000Y-129413000D01*
X113431000Y-129667000D01*
X113411000Y-129667000D01*
X113411000Y-129687000D01*
X113157000Y-129687000D01*
X113157000Y-129667000D01*
X111949531Y-129667000D01*
X111829032Y-129899027D01*
X112077179Y-130428490D01*
X112495161Y-130810008D01*
X112224330Y-130990971D01*
X111899474Y-131477152D01*
X111785400Y-132050641D01*
X111785400Y-132109359D01*
X111899474Y-132682848D01*
X112224330Y-133169029D01*
X112495172Y-133350000D01*
X112224330Y-133530971D01*
X111899474Y-134017152D01*
X111785400Y-134590641D01*
X111785400Y-134649359D01*
X111899474Y-135222848D01*
X112224330Y-135709029D01*
X112710511Y-136033885D01*
X113284000Y-136147959D01*
X113857489Y-136033885D01*
X114343670Y-135709029D01*
X114352805Y-135695358D01*
X114357238Y-135718917D01*
X114496310Y-135935041D01*
X114708510Y-136080031D01*
X114960400Y-136131040D01*
X116687600Y-136131040D01*
X116922917Y-136086762D01*
X117139041Y-135947690D01*
X117284031Y-135735490D01*
X117335040Y-135483600D01*
X117335040Y-133756400D01*
X117290762Y-133521083D01*
X117151690Y-133304959D01*
X116939490Y-133159969D01*
X116895655Y-133151092D01*
X117208526Y-132682848D01*
X117322600Y-132109359D01*
X117322600Y-132050641D01*
X117208526Y-131477152D01*
X116883670Y-130990971D01*
X116612828Y-130810000D01*
X116883670Y-130629029D01*
X117017325Y-130429000D01*
X121551764Y-130429000D01*
X122307382Y-131184618D01*
X122595794Y-131377329D01*
X122936000Y-131445000D01*
X124311488Y-131445000D01*
X124489971Y-131712120D01*
X124660405Y-131826000D01*
X124489971Y-131939880D01*
X124135548Y-132470313D01*
X124011091Y-133096000D01*
X124135548Y-133721687D01*
X124489971Y-134252120D01*
X124680188Y-134379219D01*
X124438078Y-134569683D01*
X124124856Y-135127645D01*
X124093876Y-135255566D01*
X124213223Y-135509000D01*
X125857000Y-135509000D01*
X125857000Y-135489000D01*
X126111000Y-135489000D01*
X126111000Y-135509000D01*
X127754777Y-135509000D01*
X127874124Y-135255566D01*
X127843144Y-135127645D01*
X127529922Y-134569683D01*
X127287812Y-134379219D01*
X127478029Y-134252120D01*
X127832452Y-133721687D01*
X127956909Y-133096000D01*
X127832452Y-132470313D01*
X127478029Y-131939880D01*
X127307595Y-131826000D01*
X127478029Y-131712120D01*
X127656512Y-131445000D01*
X128524000Y-131445000D01*
X128864206Y-131377329D01*
X129152618Y-131184618D01*
X130676618Y-129660618D01*
X130869329Y-129372206D01*
X130937000Y-129032000D01*
X130937000Y-126492000D01*
X130869329Y-126151794D01*
X130676618Y-125863382D01*
X129660618Y-124847382D01*
X129618182Y-124819027D01*
X129372206Y-124654671D01*
X129032000Y-124587000D01*
X126352236Y-124587000D01*
X125589000Y-123823764D01*
X125589000Y-119765194D01*
X125624655Y-119750462D01*
X126084846Y-119291073D01*
X126334206Y-118690547D01*
X126334774Y-118040306D01*
X126086462Y-117439345D01*
X125627073Y-116979154D01*
X125026547Y-116729794D01*
X124376306Y-116729226D01*
X123775345Y-116977538D01*
X123317000Y-117435084D01*
X123317000Y-116700236D01*
X123861766Y-116155470D01*
X124246453Y-116315206D01*
X124896694Y-116315774D01*
X125497655Y-116067462D01*
X125957846Y-115608073D01*
X126207206Y-115007547D01*
X126207774Y-114357306D01*
X125959462Y-113756345D01*
X125500073Y-113296154D01*
X124899547Y-113046794D01*
X124249306Y-113046226D01*
X123648345Y-113294538D01*
X123188154Y-113753927D01*
X122938794Y-114354453D01*
X122938611Y-114564153D01*
X121799382Y-115703382D01*
X121606671Y-115991794D01*
X121539000Y-116332000D01*
X121539000Y-125476000D01*
X121606671Y-125816206D01*
X121674245Y-125917337D01*
X121799382Y-126104618D01*
X124085663Y-128390899D01*
X124135548Y-128641687D01*
X124489971Y-129172120D01*
X124660405Y-129286000D01*
X124489971Y-129399880D01*
X124311488Y-129667000D01*
X123304236Y-129667000D01*
X122548618Y-128911382D01*
X122437790Y-128837329D01*
X122260206Y-128718671D01*
X121920000Y-128651000D01*
X117017325Y-128651000D01*
X116883670Y-128450971D01*
X116612828Y-128270000D01*
X116883670Y-128089029D01*
X117208526Y-127602848D01*
X117322600Y-127029359D01*
X117322600Y-126970641D01*
X117208526Y-126397152D01*
X116883670Y-125910971D01*
X116612839Y-125730008D01*
X117030821Y-125348490D01*
X117278968Y-124819027D01*
X117158469Y-124587000D01*
X115951000Y-124587000D01*
X115951000Y-124607000D01*
X115697000Y-124607000D01*
X115697000Y-124587000D01*
X115677000Y-124587000D01*
X115677000Y-124333000D01*
X115697000Y-124333000D01*
X115697000Y-124313000D01*
X115951000Y-124313000D01*
X115951000Y-124333000D01*
X117158469Y-124333000D01*
X117278968Y-124100973D01*
X117030821Y-123571510D01*
X116612839Y-123189992D01*
X116883670Y-123009029D01*
X117208526Y-122522848D01*
X117322600Y-121949359D01*
X117322600Y-121890641D01*
X117208526Y-121317152D01*
X116883670Y-120830971D01*
X116612828Y-120650000D01*
X116883670Y-120469029D01*
X117208526Y-119982848D01*
X117322600Y-119409359D01*
X117322600Y-119350641D01*
X117208526Y-118777152D01*
X116883670Y-118290971D01*
X116612828Y-118110000D01*
X116883670Y-117929029D01*
X117208526Y-117442848D01*
X117322600Y-116869359D01*
X117322600Y-116810641D01*
X117208526Y-116237152D01*
X116883670Y-115750971D01*
X116612828Y-115570000D01*
X116883670Y-115389029D01*
X117208526Y-114902848D01*
X117322600Y-114329359D01*
X117322600Y-114270641D01*
X117208526Y-113697152D01*
X116883670Y-113210971D01*
X116612828Y-113030000D01*
X116883670Y-112849029D01*
X117208526Y-112362848D01*
X117322600Y-111789359D01*
X117322600Y-111730641D01*
X117208526Y-111157152D01*
X116883670Y-110670971D01*
X116612828Y-110490000D01*
X116883670Y-110309029D01*
X117208526Y-109822848D01*
X117322600Y-109249359D01*
X117322600Y-109190641D01*
X117208526Y-108617152D01*
X116883670Y-108130971D01*
X116612828Y-107950000D01*
X116883670Y-107769029D01*
X117208526Y-107282848D01*
X117322600Y-106709359D01*
X117322600Y-106650641D01*
X117208526Y-106077152D01*
X116883670Y-105590971D01*
X116612839Y-105410008D01*
X117030821Y-105028490D01*
X117278968Y-104499027D01*
X117158469Y-104267000D01*
X115951000Y-104267000D01*
X115951000Y-104287000D01*
X115697000Y-104287000D01*
X115697000Y-104267000D01*
X115677000Y-104267000D01*
X115677000Y-104013000D01*
X115697000Y-104013000D01*
X115697000Y-103993000D01*
X115951000Y-103993000D01*
X115951000Y-104013000D01*
X117158469Y-104013000D01*
X117278968Y-103780973D01*
X117030821Y-103251510D01*
X116612839Y-102869992D01*
X116883670Y-102689029D01*
X117208526Y-102202848D01*
X117228026Y-102104814D01*
X118369106Y-103245894D01*
X118599835Y-103400063D01*
X118872000Y-103454200D01*
X121958144Y-103454200D01*
X121957931Y-103698663D01*
X122106493Y-104058212D01*
X122381341Y-104333540D01*
X122740630Y-104482730D01*
X123129663Y-104483069D01*
X123468173Y-104343200D01*
X123908709Y-104343200D01*
X123863270Y-104452630D01*
X123862931Y-104841663D01*
X124011493Y-105201212D01*
X124286341Y-105476540D01*
X124645630Y-105625730D01*
X125034663Y-105626069D01*
X125394212Y-105477507D01*
X125512726Y-105359200D01*
X136707592Y-105359200D01*
X136800982Y-105452590D01*
X136570389Y-105508271D01*
X136402378Y-105991078D01*
X136431917Y-106501428D01*
X136570389Y-106835729D01*
X136800984Y-106891410D01*
X137520395Y-106172000D01*
X137506252Y-106157858D01*
X137685858Y-105978252D01*
X137700000Y-105992395D01*
X137714142Y-105978252D01*
X137893748Y-106157858D01*
X137879605Y-106172000D01*
X137893748Y-106186142D01*
X137714142Y-106365748D01*
X137700000Y-106351605D01*
X136980590Y-107071016D01*
X137036271Y-107301611D01*
X137519078Y-107469622D01*
X138029428Y-107440083D01*
X138363729Y-107301611D01*
X138419410Y-107071018D01*
X138521072Y-107172680D01*
X138585910Y-107273441D01*
X138684000Y-107340463D01*
X138684000Y-113279806D01*
X138648345Y-113294538D01*
X138188154Y-113753927D01*
X137938794Y-114354453D01*
X137938226Y-115004694D01*
X138186538Y-115605655D01*
X138645927Y-116065846D01*
X138684000Y-116081655D01*
X138684000Y-117068724D01*
X138315154Y-117436927D01*
X138065794Y-118037453D01*
X138065226Y-118687694D01*
X138313538Y-119288655D01*
X138772927Y-119748846D01*
X138811000Y-119764655D01*
X138811000Y-122428000D01*
X138878671Y-122768206D01*
X139036920Y-123005042D01*
X139071382Y-123056618D01*
X142367000Y-126352236D01*
X142367000Y-130695764D01*
X140855764Y-132207000D01*
X140356512Y-132207000D01*
X140178029Y-131939880D01*
X140007595Y-131826000D01*
X140178029Y-131712120D01*
X140532452Y-131181687D01*
X140656909Y-130556000D01*
X140532452Y-129930313D01*
X140178029Y-129399880D01*
X140007595Y-129286000D01*
X140178029Y-129172120D01*
X140532452Y-128641687D01*
X140656909Y-128016000D01*
X140532452Y-127390313D01*
X140178029Y-126859880D01*
X139647596Y-126505457D01*
X139021909Y-126381000D01*
X138346091Y-126381000D01*
X137720404Y-126505457D01*
X137189971Y-126859880D01*
X136835548Y-127390313D01*
X136711091Y-128016000D01*
X136835548Y-128641687D01*
X137189971Y-129172120D01*
X137360405Y-129286000D01*
X137189971Y-129399880D01*
X136835548Y-129930313D01*
X136711091Y-130556000D01*
X136835548Y-131181687D01*
X137189971Y-131712120D01*
X137360405Y-131826000D01*
X137189971Y-131939880D01*
X136835548Y-132470313D01*
X136711091Y-133096000D01*
X136835548Y-133721687D01*
X137189971Y-134252120D01*
X137380188Y-134379219D01*
X137138078Y-134569683D01*
X136824856Y-135127645D01*
X136793876Y-135255566D01*
X136913223Y-135509000D01*
X138557000Y-135509000D01*
X138557000Y-135489000D01*
X138811000Y-135489000D01*
X138811000Y-135509000D01*
X140454777Y-135509000D01*
X140574124Y-135255566D01*
X140543144Y-135127645D01*
X140229922Y-134569683D01*
X139987812Y-134379219D01*
X140178029Y-134252120D01*
X140356512Y-133985000D01*
X141224000Y-133985000D01*
X141564206Y-133917329D01*
X141852618Y-133724618D01*
X143884618Y-131692618D01*
X143956221Y-131585457D01*
X144077329Y-131404206D01*
X144145000Y-131064000D01*
X144145000Y-126304663D01*
X145198931Y-126304663D01*
X145338800Y-126643173D01*
X145338800Y-130048000D01*
X145402604Y-130368766D01*
X145584303Y-130640697D01*
X146092303Y-131148697D01*
X146364235Y-131330396D01*
X146685000Y-131394200D01*
X149169544Y-131394200D01*
X149381971Y-131712120D01*
X149552405Y-131826000D01*
X149381971Y-131939880D01*
X149027548Y-132470313D01*
X148903091Y-133096000D01*
X149027548Y-133721687D01*
X149381971Y-134252120D01*
X149572188Y-134379219D01*
X149330078Y-134569683D01*
X149016856Y-135127645D01*
X148985876Y-135255566D01*
X149105223Y-135509000D01*
X150749000Y-135509000D01*
X150749000Y-135489000D01*
X151003000Y-135489000D01*
X151003000Y-135509000D01*
X152646777Y-135509000D01*
X152766124Y-135255566D01*
X152735144Y-135127645D01*
X152421922Y-134569683D01*
X152179812Y-134379219D01*
X152370029Y-134252120D01*
X152724452Y-133721687D01*
X152848909Y-133096000D01*
X152724452Y-132470313D01*
X152370029Y-131939880D01*
X152199595Y-131826000D01*
X152370029Y-131712120D01*
X152724452Y-131181687D01*
X152848909Y-130556000D01*
X152724452Y-129930313D01*
X152370029Y-129399880D01*
X152199595Y-129286000D01*
X152370029Y-129172120D01*
X152724452Y-128641687D01*
X152848909Y-128016000D01*
X161095091Y-128016000D01*
X161219548Y-128641687D01*
X161573971Y-129172120D01*
X161744405Y-129286000D01*
X161573971Y-129399880D01*
X161219548Y-129930313D01*
X161095091Y-130556000D01*
X161219548Y-131181687D01*
X161573971Y-131712120D01*
X161744405Y-131826000D01*
X161573971Y-131939880D01*
X161219548Y-132470313D01*
X161095091Y-133096000D01*
X161219548Y-133721687D01*
X161573971Y-134252120D01*
X161764188Y-134379219D01*
X161522078Y-134569683D01*
X161208856Y-135127645D01*
X161177876Y-135255566D01*
X161297223Y-135509000D01*
X162941000Y-135509000D01*
X162941000Y-135489000D01*
X163195000Y-135489000D01*
X163195000Y-135509000D01*
X164838777Y-135509000D01*
X164958124Y-135255566D01*
X164927144Y-135127645D01*
X164613922Y-134569683D01*
X164371812Y-134379219D01*
X164562029Y-134252120D01*
X164916452Y-133721687D01*
X165040909Y-133096000D01*
X164916452Y-132470313D01*
X164562029Y-131939880D01*
X164391595Y-131826000D01*
X164562029Y-131712120D01*
X164916452Y-131181687D01*
X165040909Y-130556000D01*
X164916452Y-129930313D01*
X164562029Y-129399880D01*
X164391595Y-129286000D01*
X164562029Y-129172120D01*
X164916452Y-128641687D01*
X165040909Y-128016000D01*
X172779091Y-128016000D01*
X172903548Y-128641687D01*
X173257971Y-129172120D01*
X173428405Y-129286000D01*
X173257971Y-129399880D01*
X172903548Y-129930313D01*
X172779091Y-130556000D01*
X172903548Y-131181687D01*
X173257971Y-131712120D01*
X173428405Y-131826000D01*
X173257971Y-131939880D01*
X172903548Y-132470313D01*
X172779091Y-133096000D01*
X172903548Y-133721687D01*
X173257971Y-134252120D01*
X173448188Y-134379219D01*
X173206078Y-134569683D01*
X172892856Y-135127645D01*
X172861876Y-135255566D01*
X172981223Y-135509000D01*
X174625000Y-135509000D01*
X174625000Y-135489000D01*
X174879000Y-135489000D01*
X174879000Y-135509000D01*
X176522777Y-135509000D01*
X176642124Y-135255566D01*
X176611144Y-135127645D01*
X176297922Y-134569683D01*
X176055812Y-134379219D01*
X176246029Y-134252120D01*
X176600452Y-133721687D01*
X176724909Y-133096000D01*
X176600452Y-132470313D01*
X176246029Y-131939880D01*
X176075595Y-131826000D01*
X176246029Y-131712120D01*
X176600452Y-131181687D01*
X176724909Y-130556000D01*
X176600452Y-129930313D01*
X176246029Y-129399880D01*
X176075595Y-129286000D01*
X176246029Y-129172120D01*
X176600452Y-128641687D01*
X176724909Y-128016000D01*
X176600452Y-127390313D01*
X176246029Y-126859880D01*
X175715596Y-126505457D01*
X175089909Y-126381000D01*
X174414091Y-126381000D01*
X173788404Y-126505457D01*
X173257971Y-126859880D01*
X172903548Y-127390313D01*
X172779091Y-128016000D01*
X165040909Y-128016000D01*
X164916452Y-127390313D01*
X164562029Y-126859880D01*
X164031596Y-126505457D01*
X163405909Y-126381000D01*
X162730091Y-126381000D01*
X162104404Y-126505457D01*
X161573971Y-126859880D01*
X161219548Y-127390313D01*
X161095091Y-128016000D01*
X152848909Y-128016000D01*
X152724452Y-127390313D01*
X152370029Y-126859880D01*
X151839596Y-126505457D01*
X151213909Y-126381000D01*
X150538091Y-126381000D01*
X149912404Y-126505457D01*
X149381971Y-126859880D01*
X149027548Y-127390313D01*
X148903091Y-128016000D01*
X149027548Y-128641687D01*
X149381971Y-129172120D01*
X149552405Y-129286000D01*
X149381971Y-129399880D01*
X149169544Y-129717800D01*
X147032194Y-129717800D01*
X147015200Y-129700806D01*
X147015200Y-126642395D01*
X147154730Y-126306370D01*
X147155069Y-125917337D01*
X147006507Y-125557788D01*
X146731659Y-125282460D01*
X146372370Y-125133270D01*
X145983337Y-125132931D01*
X145623788Y-125281493D01*
X145348460Y-125556341D01*
X145199270Y-125915630D01*
X145198931Y-126304663D01*
X144145000Y-126304663D01*
X144145000Y-125984000D01*
X144077329Y-125643794D01*
X143884618Y-125355382D01*
X142480537Y-123951301D01*
X142530726Y-123901200D01*
X181229000Y-123901200D01*
X181501165Y-123847063D01*
X181731894Y-123692894D01*
X182747894Y-122676894D01*
X182902063Y-122446165D01*
X182956200Y-122174000D01*
X182956200Y-122043440D01*
X183672000Y-122043440D01*
X183907317Y-121999162D01*
X184123441Y-121860090D01*
X184268431Y-121647890D01*
X184319440Y-121396000D01*
X184319440Y-119396000D01*
X184275162Y-119160683D01*
X184136090Y-118944559D01*
X183981671Y-118839049D01*
X184220452Y-118481687D01*
X184344909Y-117856000D01*
X184220452Y-117230313D01*
X183866029Y-116699880D01*
X183695595Y-116586000D01*
X183866029Y-116472120D01*
X184220452Y-115941687D01*
X184344909Y-115316000D01*
X184220452Y-114690313D01*
X183866029Y-114159880D01*
X183695595Y-114046000D01*
X183866029Y-113932120D01*
X184220452Y-113401687D01*
X184344909Y-112776000D01*
X184220452Y-112150313D01*
X183866029Y-111619880D01*
X183695595Y-111506000D01*
X183866029Y-111392120D01*
X184220452Y-110861687D01*
X184344909Y-110236000D01*
X184220452Y-109610313D01*
X183866029Y-109079880D01*
X183695595Y-108966000D01*
X183866029Y-108852120D01*
X184220452Y-108321687D01*
X184344909Y-107696000D01*
X184220452Y-107070313D01*
X183866029Y-106539880D01*
X183695595Y-106426000D01*
X183866029Y-106312120D01*
X184220452Y-105781687D01*
X184344909Y-105156000D01*
X184220452Y-104530313D01*
X183866029Y-103999880D01*
X183695595Y-103886000D01*
X183866029Y-103772120D01*
X184220452Y-103241687D01*
X184344909Y-102616000D01*
X184220452Y-101990313D01*
X183866029Y-101459880D01*
X183675812Y-101332781D01*
X183917922Y-101142317D01*
X184231144Y-100584355D01*
X184262124Y-100456434D01*
X184142777Y-100203000D01*
X182499000Y-100203000D01*
X182499000Y-100223000D01*
X182245000Y-100223000D01*
X182245000Y-100203000D01*
X180601223Y-100203000D01*
X180481876Y-100456434D01*
X180512856Y-100584355D01*
X180826078Y-101142317D01*
X181068188Y-101332781D01*
X180877971Y-101459880D01*
X180523548Y-101990313D01*
X180399091Y-102616000D01*
X180523548Y-103241687D01*
X180877971Y-103772120D01*
X181048405Y-103886000D01*
X180877971Y-103999880D01*
X180523548Y-104530313D01*
X180399091Y-105156000D01*
X180523548Y-105781687D01*
X180877971Y-106312120D01*
X181048405Y-106426000D01*
X180877971Y-106539880D01*
X180523548Y-107070313D01*
X180399091Y-107696000D01*
X180523548Y-108321687D01*
X180877971Y-108852120D01*
X181048405Y-108966000D01*
X180877971Y-109079880D01*
X180523548Y-109610313D01*
X180399091Y-110236000D01*
X180523548Y-110861687D01*
X180877971Y-111392120D01*
X181048405Y-111506000D01*
X180877971Y-111619880D01*
X180523548Y-112150313D01*
X180399091Y-112776000D01*
X180523548Y-113401687D01*
X180877971Y-113932120D01*
X181048405Y-114046000D01*
X180877971Y-114159880D01*
X180523548Y-114690313D01*
X180399091Y-115316000D01*
X180523548Y-115941687D01*
X180877971Y-116472120D01*
X181048405Y-116586000D01*
X180877971Y-116699880D01*
X180653145Y-117036357D01*
X180289200Y-116672412D01*
X180289200Y-103124000D01*
X180235063Y-102851836D01*
X180123615Y-102685042D01*
X180080894Y-102621105D01*
X178015925Y-100556136D01*
X178016069Y-100390337D01*
X177867507Y-100030788D01*
X177592659Y-99755460D01*
X177448419Y-99695566D01*
X180481876Y-99695566D01*
X180601223Y-99949000D01*
X182245000Y-99949000D01*
X182245000Y-98441000D01*
X182499000Y-98441000D01*
X182499000Y-99949000D01*
X184142777Y-99949000D01*
X184262124Y-99695566D01*
X184231144Y-99567645D01*
X183917922Y-99009683D01*
X183415020Y-98614058D01*
X182799000Y-98441000D01*
X182499000Y-98441000D01*
X182245000Y-98441000D01*
X181945000Y-98441000D01*
X181328980Y-98614058D01*
X180826078Y-99009683D01*
X180512856Y-99567645D01*
X180481876Y-99695566D01*
X177448419Y-99695566D01*
X177233370Y-99606270D01*
X176860291Y-99605945D01*
X178647373Y-97818863D01*
X178861212Y-97730507D01*
X179136540Y-97455659D01*
X179285730Y-97096370D01*
X179286069Y-96707337D01*
X179137507Y-96347788D01*
X178862659Y-96072460D01*
X178503370Y-95923270D01*
X178114337Y-95922931D01*
X177754788Y-96071493D01*
X177479460Y-96346341D01*
X177390014Y-96561750D01*
X172984858Y-100966906D01*
X173062730Y-100779370D01*
X173063069Y-100390337D01*
X172914507Y-100030788D01*
X172639659Y-99755460D01*
X172280370Y-99606270D01*
X171891337Y-99605931D01*
X171531788Y-99754493D01*
X171413274Y-99872800D01*
X124881588Y-99872800D01*
X124687788Y-99679000D01*
X125698250Y-99679000D01*
X125857000Y-99520250D01*
X125857000Y-98171000D01*
X126111000Y-98171000D01*
X126111000Y-99520250D01*
X126269750Y-99679000D01*
X127410310Y-99679000D01*
X127643699Y-99582327D01*
X127822327Y-99403698D01*
X127919000Y-99170309D01*
X127919000Y-98329750D01*
X136749000Y-98329750D01*
X136749000Y-99170309D01*
X136845673Y-99403698D01*
X137024301Y-99582327D01*
X137257690Y-99679000D01*
X138398250Y-99679000D01*
X138557000Y-99520250D01*
X138557000Y-98171000D01*
X138811000Y-98171000D01*
X138811000Y-99520250D01*
X138969750Y-99679000D01*
X140110310Y-99679000D01*
X140343699Y-99582327D01*
X140522327Y-99403698D01*
X140619000Y-99170309D01*
X140619000Y-98329750D01*
X140460250Y-98171000D01*
X138811000Y-98171000D01*
X138557000Y-98171000D01*
X136907750Y-98171000D01*
X136749000Y-98329750D01*
X127919000Y-98329750D01*
X127760250Y-98171000D01*
X126111000Y-98171000D01*
X125857000Y-98171000D01*
X124207750Y-98171000D01*
X124049000Y-98329750D01*
X124049000Y-99040212D01*
X123393200Y-98384412D01*
X123393200Y-96917691D01*
X124049000Y-96917691D01*
X124049000Y-97758250D01*
X124207750Y-97917000D01*
X125857000Y-97917000D01*
X125857000Y-95631000D01*
X126111000Y-95631000D01*
X126111000Y-97917000D01*
X127760250Y-97917000D01*
X127919000Y-97758250D01*
X127919000Y-96917691D01*
X136749000Y-96917691D01*
X136749000Y-97758250D01*
X136907750Y-97917000D01*
X138557000Y-97917000D01*
X138557000Y-95631000D01*
X138811000Y-95631000D01*
X138811000Y-97917000D01*
X140460250Y-97917000D01*
X140619000Y-97758250D01*
X140619000Y-96917691D01*
X140522327Y-96684302D01*
X140343699Y-96505673D01*
X140280830Y-96479632D01*
X140543144Y-96012355D01*
X140574124Y-95884434D01*
X140529536Y-95789750D01*
X148941000Y-95789750D01*
X148941000Y-96630309D01*
X149037673Y-96863698D01*
X149216301Y-97042327D01*
X149449690Y-97139000D01*
X150590250Y-97139000D01*
X150749000Y-96980250D01*
X150749000Y-95631000D01*
X151003000Y-95631000D01*
X151003000Y-96980250D01*
X151161750Y-97139000D01*
X152302310Y-97139000D01*
X152535699Y-97042327D01*
X152714327Y-96863698D01*
X152811000Y-96630309D01*
X152811000Y-95789750D01*
X161133000Y-95789750D01*
X161133000Y-96630309D01*
X161229673Y-96863698D01*
X161408301Y-97042327D01*
X161641690Y-97139000D01*
X162782250Y-97139000D01*
X162941000Y-96980250D01*
X162941000Y-95631000D01*
X163195000Y-95631000D01*
X163195000Y-96980250D01*
X163353750Y-97139000D01*
X164494310Y-97139000D01*
X164727699Y-97042327D01*
X164906327Y-96863698D01*
X165003000Y-96630309D01*
X165003000Y-95789750D01*
X164844250Y-95631000D01*
X163195000Y-95631000D01*
X162941000Y-95631000D01*
X161291750Y-95631000D01*
X161133000Y-95789750D01*
X152811000Y-95789750D01*
X152652250Y-95631000D01*
X151003000Y-95631000D01*
X150749000Y-95631000D01*
X149099750Y-95631000D01*
X148941000Y-95789750D01*
X140529536Y-95789750D01*
X140454777Y-95631000D01*
X138811000Y-95631000D01*
X138557000Y-95631000D01*
X136913223Y-95631000D01*
X136793876Y-95884434D01*
X136824856Y-96012355D01*
X137087170Y-96479632D01*
X137024301Y-96505673D01*
X136845673Y-96684302D01*
X136749000Y-96917691D01*
X127919000Y-96917691D01*
X127822327Y-96684302D01*
X127643699Y-96505673D01*
X127580830Y-96479632D01*
X127843144Y-96012355D01*
X127874124Y-95884434D01*
X127754777Y-95631000D01*
X126111000Y-95631000D01*
X125857000Y-95631000D01*
X124213223Y-95631000D01*
X124093876Y-95884434D01*
X124124856Y-96012355D01*
X124387170Y-96479632D01*
X124324301Y-96505673D01*
X124145673Y-96684302D01*
X124049000Y-96917691D01*
X123393200Y-96917691D01*
X123393200Y-92837000D01*
X123339063Y-92564836D01*
X123315138Y-92529029D01*
X123184895Y-92334106D01*
X120517894Y-89667106D01*
X120287165Y-89512937D01*
X120015000Y-89458800D01*
X117217288Y-89458800D01*
X117322600Y-88929359D01*
X117322600Y-88870641D01*
X117208526Y-88297152D01*
X116883670Y-87810971D01*
X116612839Y-87630008D01*
X117030821Y-87248490D01*
X117278968Y-86719027D01*
X117158469Y-86487000D01*
X115951000Y-86487000D01*
X115951000Y-86507000D01*
X115697000Y-86507000D01*
X115697000Y-86487000D01*
X115677000Y-86487000D01*
X115677000Y-86233000D01*
X115697000Y-86233000D01*
X115697000Y-85026183D01*
X115951000Y-85026183D01*
X115951000Y-86233000D01*
X117158469Y-86233000D01*
X117278968Y-86000973D01*
X117030821Y-85471510D01*
X116598947Y-85077312D01*
X116183026Y-84905042D01*
X115951000Y-85026183D01*
X115697000Y-85026183D01*
X115464974Y-84905042D01*
X115049053Y-85077312D01*
X114617179Y-85471510D01*
X114559664Y-85594228D01*
X114343670Y-85270971D01*
X113857489Y-84946115D01*
X113284000Y-84832041D01*
X112710511Y-84946115D01*
X112224330Y-85270971D01*
X111899474Y-85757152D01*
X111785400Y-86330641D01*
X111785400Y-86389359D01*
X111899474Y-86962848D01*
X112224330Y-87449029D01*
X112495172Y-87630000D01*
X112224330Y-87810971D01*
X111899474Y-88297152D01*
X111785400Y-88870641D01*
X111785400Y-88929359D01*
X111899474Y-89502848D01*
X112224330Y-89989029D01*
X112495172Y-90170000D01*
X112224330Y-90350971D01*
X111899474Y-90837152D01*
X111785400Y-91410641D01*
X111785400Y-91469359D01*
X111899474Y-92042848D01*
X112224330Y-92529029D01*
X112495161Y-92709992D01*
X112077179Y-93091510D01*
X111829032Y-93620973D01*
X111949531Y-93853000D01*
X113157000Y-93853000D01*
X113157000Y-93833000D01*
X113411000Y-93833000D01*
X113411000Y-93853000D01*
X113431000Y-93853000D01*
X113431000Y-94107000D01*
X113411000Y-94107000D01*
X113411000Y-94127000D01*
X113157000Y-94127000D01*
X113157000Y-94107000D01*
X111949531Y-94107000D01*
X111829032Y-94339027D01*
X112077179Y-94868490D01*
X112495161Y-95250008D01*
X112224330Y-95430971D01*
X111899474Y-95917152D01*
X111785400Y-96490641D01*
X111785400Y-96549359D01*
X111899474Y-97122848D01*
X112224330Y-97609029D01*
X112495161Y-97789992D01*
X112077179Y-98171510D01*
X111829032Y-98700973D01*
X111949531Y-98933000D01*
X113157000Y-98933000D01*
X113157000Y-98913000D01*
X113411000Y-98913000D01*
X113411000Y-98933000D01*
X113431000Y-98933000D01*
X113431000Y-99187000D01*
X113411000Y-99187000D01*
X113411000Y-99207000D01*
X113157000Y-99207000D01*
X113157000Y-99187000D01*
X111949531Y-99187000D01*
X111829032Y-99419027D01*
X112077179Y-99948490D01*
X112495161Y-100330008D01*
X112224330Y-100510971D01*
X111899474Y-100997152D01*
X111785400Y-101570641D01*
X111785400Y-101629359D01*
X111849970Y-101953974D01*
X111701370Y-101892270D01*
X111312337Y-101891931D01*
X110952788Y-102040493D01*
X110677460Y-102315341D01*
X110528270Y-102674630D01*
X110527931Y-103063663D01*
X100330000Y-103063663D01*
X100330000Y-84067121D01*
X101278484Y-84067121D01*
X101503154Y-84441168D01*
X102486388Y-84839880D01*
X103547357Y-84831975D01*
X104490846Y-84441168D01*
X104715516Y-84067121D01*
X102997000Y-82348605D01*
X101278484Y-84067121D01*
X100330000Y-84067121D01*
X100330000Y-82179142D01*
X100334025Y-82719357D01*
X100724832Y-83662846D01*
X101098879Y-83887516D01*
X102817395Y-82169000D01*
X103176605Y-82169000D01*
X104895121Y-83887516D01*
X105269168Y-83662846D01*
X105667880Y-82679612D01*
X105659975Y-81618643D01*
X105269168Y-80675154D01*
X104895121Y-80450484D01*
X103176605Y-82169000D01*
X102817395Y-82169000D01*
X101098879Y-80450484D01*
X100724832Y-80675154D01*
X100330000Y-81648820D01*
X100330000Y-79629000D01*
X102149756Y-79629000D01*
X101503154Y-79896832D01*
G36*
X114764330Y-123009029D02*
X115035161Y-123189992D01*
X114617179Y-123571510D01*
X114559664Y-123694228D01*
X114343670Y-123370971D01*
X114072828Y-123190000D01*
X114343670Y-123009029D01*
X114554000Y-122694248D01*
X114764330Y-123009029D01*
X114764330Y-123009029D01*
G37*
X114764330Y-123009029D02*
X115035161Y-123189992D01*
X114617179Y-123571510D01*
X114559664Y-123694228D01*
X114343670Y-123370971D01*
X114072828Y-123190000D01*
X114343670Y-123009029D01*
X114554000Y-122694248D01*
X114764330Y-123009029D01*
G36*
X176059931Y-100777663D02*
X176208493Y-101137212D01*
X176483341Y-101412540D01*
X176842630Y-101561730D01*
X177010088Y-101561876D01*
X178866800Y-103418589D01*
X178866800Y-116967000D01*
X178920937Y-117239165D01*
X179075106Y-117469894D01*
X179964106Y-118358894D01*
X180194835Y-118513063D01*
X180467000Y-118567200D01*
X180580686Y-118567200D01*
X180763093Y-118840192D01*
X180620559Y-118931910D01*
X180475569Y-119144110D01*
X180424560Y-119396000D01*
X180424560Y-121396000D01*
X180468838Y-121631317D01*
X180607910Y-121847441D01*
X180820110Y-121992431D01*
X181072000Y-122043440D01*
X181369772Y-122043440D01*
X180934412Y-122478800D01*
X171388988Y-122478800D01*
X176811863Y-117055925D01*
X176977663Y-117056069D01*
X177337212Y-116907507D01*
X177612540Y-116632659D01*
X177761730Y-116273370D01*
X177762069Y-115884337D01*
X177613507Y-115524788D01*
X177338659Y-115249460D01*
X176979370Y-115100270D01*
X176590337Y-115099931D01*
X176230788Y-115248493D01*
X175955460Y-115523341D01*
X175806270Y-115882630D01*
X175806124Y-116050088D01*
X170266412Y-121589800D01*
X144058589Y-121589800D01*
X143090925Y-120622136D01*
X143091069Y-120456337D01*
X142942507Y-120096788D01*
X142667659Y-119821460D01*
X142308370Y-119672270D01*
X141919337Y-119671931D01*
X141559788Y-119820493D01*
X141284460Y-120095341D01*
X141135270Y-120454630D01*
X141134931Y-120843663D01*
X141283493Y-121203212D01*
X141558341Y-121478540D01*
X141917630Y-121627730D01*
X142085088Y-121627876D01*
X142936011Y-122478800D01*
X142530794Y-122478800D01*
X142413659Y-122361460D01*
X142054370Y-122212270D01*
X141665337Y-122211931D01*
X141305788Y-122360493D01*
X141097577Y-122568341D01*
X140589000Y-122059764D01*
X140589000Y-119765194D01*
X140624655Y-119750462D01*
X141084846Y-119291073D01*
X141334206Y-118690547D01*
X141334208Y-118687694D01*
X154053226Y-118687694D01*
X154301538Y-119288655D01*
X154760927Y-119748846D01*
X155361453Y-119998206D01*
X156011694Y-119998774D01*
X156612655Y-119750462D01*
X157072846Y-119291073D01*
X157109749Y-119202200D01*
X157226000Y-119202200D01*
X157546766Y-119138396D01*
X157818697Y-118956697D01*
X159215697Y-117559697D01*
X159397396Y-117287766D01*
X159461200Y-116967000D01*
X159461200Y-115085395D01*
X159600730Y-114749370D01*
X159601069Y-114360337D01*
X159452507Y-114000788D01*
X159177659Y-113725460D01*
X158818370Y-113576270D01*
X158429337Y-113575931D01*
X158069788Y-113724493D01*
X157794460Y-113999341D01*
X157645270Y-114358630D01*
X157644931Y-114747663D01*
X157784800Y-115086173D01*
X157784800Y-116619806D01*
X157019909Y-117384697D01*
X156615073Y-116979154D01*
X156014547Y-116729794D01*
X155364306Y-116729226D01*
X154763345Y-116977538D01*
X154303154Y-117436927D01*
X154053794Y-118037453D01*
X154053226Y-118687694D01*
X141334208Y-118687694D01*
X141334774Y-118040306D01*
X141086462Y-117439345D01*
X140627073Y-116979154D01*
X140462000Y-116910610D01*
X140462000Y-116082194D01*
X140497655Y-116067462D01*
X140957846Y-115608073D01*
X141207206Y-115007547D01*
X141207541Y-114623694D01*
X154053226Y-114623694D01*
X154301538Y-115224655D01*
X154760927Y-115684846D01*
X155361453Y-115934206D01*
X156011694Y-115934774D01*
X156612655Y-115686462D01*
X157072846Y-115227073D01*
X157322206Y-114626547D01*
X157322774Y-113976306D01*
X157074462Y-113375345D01*
X156615073Y-112915154D01*
X156014547Y-112665794D01*
X155364306Y-112665226D01*
X154763345Y-112913538D01*
X154303154Y-113372927D01*
X154053794Y-113973453D01*
X154053226Y-114623694D01*
X141207541Y-114623694D01*
X141207774Y-114357306D01*
X140959462Y-113756345D01*
X140500073Y-113296154D01*
X140462000Y-113280345D01*
X140462000Y-107448366D01*
X140585317Y-107425162D01*
X140801441Y-107286090D01*
X140946431Y-107073890D01*
X140997440Y-106822000D01*
X140997440Y-105991078D01*
X167390378Y-105991078D01*
X167419917Y-106501428D01*
X167558389Y-106835729D01*
X167788984Y-106891410D01*
X168508395Y-106172000D01*
X167788984Y-105452590D01*
X167558389Y-105508271D01*
X167390378Y-105991078D01*
X140997440Y-105991078D01*
X140997440Y-105522000D01*
X140966807Y-105359200D01*
X161507427Y-105359200D01*
X161751341Y-105603540D01*
X162110630Y-105752730D01*
X162499663Y-105753069D01*
X162859212Y-105604507D01*
X163134540Y-105329659D01*
X163283730Y-104970370D01*
X163284069Y-104581337D01*
X163185673Y-104343200D01*
X169254206Y-104343200D01*
X169371341Y-104460540D01*
X169730630Y-104609730D01*
X169799000Y-104609790D01*
X169799000Y-104921208D01*
X169586559Y-105057910D01*
X169509063Y-105171329D01*
X169407410Y-105272982D01*
X169351729Y-105042389D01*
X168868922Y-104874378D01*
X168358572Y-104903917D01*
X168024271Y-105042389D01*
X167968590Y-105272984D01*
X168688000Y-105992395D01*
X168702142Y-105978252D01*
X168881748Y-106157858D01*
X168867605Y-106172000D01*
X168881748Y-106186142D01*
X168702142Y-106365748D01*
X168688000Y-106351605D01*
X167968590Y-107071016D01*
X168024271Y-107301611D01*
X168507078Y-107469622D01*
X169017428Y-107440083D01*
X169351729Y-107301611D01*
X169407410Y-107071018D01*
X169509072Y-107172680D01*
X169573910Y-107273441D01*
X169786110Y-107418431D01*
X169799000Y-107421041D01*
X169799000Y-112898806D01*
X169763345Y-112913538D01*
X169303154Y-113372927D01*
X169053794Y-113973453D01*
X169053226Y-114623694D01*
X169301538Y-115224655D01*
X169760927Y-115684846D01*
X169799000Y-115700655D01*
X169799000Y-116962806D01*
X169763345Y-116977538D01*
X169303154Y-117436927D01*
X169053794Y-118037453D01*
X169053226Y-118687694D01*
X169301538Y-119288655D01*
X169760927Y-119748846D01*
X170361453Y-119998206D01*
X171011694Y-119998774D01*
X171612655Y-119750462D01*
X172072846Y-119291073D01*
X172322206Y-118690547D01*
X172322774Y-118040306D01*
X172074462Y-117439345D01*
X171615073Y-116979154D01*
X171577000Y-116963345D01*
X171577000Y-115701194D01*
X171612655Y-115686462D01*
X172072846Y-115227073D01*
X172322206Y-114626547D01*
X172322774Y-113976306D01*
X172074462Y-113375345D01*
X171615073Y-112915154D01*
X171577000Y-112899345D01*
X171577000Y-107422792D01*
X171789441Y-107286090D01*
X171934431Y-107073890D01*
X171985440Y-106822000D01*
X171985440Y-105522000D01*
X171941162Y-105286683D01*
X171802090Y-105070559D01*
X171589890Y-104925569D01*
X171577000Y-104922959D01*
X171577000Y-104889236D01*
X176060255Y-100405981D01*
X176059931Y-100777663D01*
X176059931Y-100777663D01*
G37*
X176059931Y-100777663D02*
X176208493Y-101137212D01*
X176483341Y-101412540D01*
X176842630Y-101561730D01*
X177010088Y-101561876D01*
X178866800Y-103418589D01*
X178866800Y-116967000D01*
X178920937Y-117239165D01*
X179075106Y-117469894D01*
X179964106Y-118358894D01*
X180194835Y-118513063D01*
X180467000Y-118567200D01*
X180580686Y-118567200D01*
X180763093Y-118840192D01*
X180620559Y-118931910D01*
X180475569Y-119144110D01*
X180424560Y-119396000D01*
X180424560Y-121396000D01*
X180468838Y-121631317D01*
X180607910Y-121847441D01*
X180820110Y-121992431D01*
X181072000Y-122043440D01*
X181369772Y-122043440D01*
X180934412Y-122478800D01*
X171388988Y-122478800D01*
X176811863Y-117055925D01*
X176977663Y-117056069D01*
X177337212Y-116907507D01*
X177612540Y-116632659D01*
X177761730Y-116273370D01*
X177762069Y-115884337D01*
X177613507Y-115524788D01*
X177338659Y-115249460D01*
X176979370Y-115100270D01*
X176590337Y-115099931D01*
X176230788Y-115248493D01*
X175955460Y-115523341D01*
X175806270Y-115882630D01*
X175806124Y-116050088D01*
X170266412Y-121589800D01*
X144058589Y-121589800D01*
X143090925Y-120622136D01*
X143091069Y-120456337D01*
X142942507Y-120096788D01*
X142667659Y-119821460D01*
X142308370Y-119672270D01*
X141919337Y-119671931D01*
X141559788Y-119820493D01*
X141284460Y-120095341D01*
X141135270Y-120454630D01*
X141134931Y-120843663D01*
X141283493Y-121203212D01*
X141558341Y-121478540D01*
X141917630Y-121627730D01*
X142085088Y-121627876D01*
X142936011Y-122478800D01*
X142530794Y-122478800D01*
X142413659Y-122361460D01*
X142054370Y-122212270D01*
X141665337Y-122211931D01*
X141305788Y-122360493D01*
X141097577Y-122568341D01*
X140589000Y-122059764D01*
X140589000Y-119765194D01*
X140624655Y-119750462D01*
X141084846Y-119291073D01*
X141334206Y-118690547D01*
X141334208Y-118687694D01*
X154053226Y-118687694D01*
X154301538Y-119288655D01*
X154760927Y-119748846D01*
X155361453Y-119998206D01*
X156011694Y-119998774D01*
X156612655Y-119750462D01*
X157072846Y-119291073D01*
X157109749Y-119202200D01*
X157226000Y-119202200D01*
X157546766Y-119138396D01*
X157818697Y-118956697D01*
X159215697Y-117559697D01*
X159397396Y-117287766D01*
X159461200Y-116967000D01*
X159461200Y-115085395D01*
X159600730Y-114749370D01*
X159601069Y-114360337D01*
X159452507Y-114000788D01*
X159177659Y-113725460D01*
X158818370Y-113576270D01*
X158429337Y-113575931D01*
X158069788Y-113724493D01*
X157794460Y-113999341D01*
X157645270Y-114358630D01*
X157644931Y-114747663D01*
X157784800Y-115086173D01*
X157784800Y-116619806D01*
X157019909Y-117384697D01*
X156615073Y-116979154D01*
X156014547Y-116729794D01*
X155364306Y-116729226D01*
X154763345Y-116977538D01*
X154303154Y-117436927D01*
X154053794Y-118037453D01*
X154053226Y-118687694D01*
X141334208Y-118687694D01*
X141334774Y-118040306D01*
X141086462Y-117439345D01*
X140627073Y-116979154D01*
X140462000Y-116910610D01*
X140462000Y-116082194D01*
X140497655Y-116067462D01*
X140957846Y-115608073D01*
X141207206Y-115007547D01*
X141207541Y-114623694D01*
X154053226Y-114623694D01*
X154301538Y-115224655D01*
X154760927Y-115684846D01*
X155361453Y-115934206D01*
X156011694Y-115934774D01*
X156612655Y-115686462D01*
X157072846Y-115227073D01*
X157322206Y-114626547D01*
X157322774Y-113976306D01*
X157074462Y-113375345D01*
X156615073Y-112915154D01*
X156014547Y-112665794D01*
X155364306Y-112665226D01*
X154763345Y-112913538D01*
X154303154Y-113372927D01*
X154053794Y-113973453D01*
X154053226Y-114623694D01*
X141207541Y-114623694D01*
X141207774Y-114357306D01*
X140959462Y-113756345D01*
X140500073Y-113296154D01*
X140462000Y-113280345D01*
X140462000Y-107448366D01*
X140585317Y-107425162D01*
X140801441Y-107286090D01*
X140946431Y-107073890D01*
X140997440Y-106822000D01*
X140997440Y-105991078D01*
X167390378Y-105991078D01*
X167419917Y-106501428D01*
X167558389Y-106835729D01*
X167788984Y-106891410D01*
X168508395Y-106172000D01*
X167788984Y-105452590D01*
X167558389Y-105508271D01*
X167390378Y-105991078D01*
X140997440Y-105991078D01*
X140997440Y-105522000D01*
X140966807Y-105359200D01*
X161507427Y-105359200D01*
X161751341Y-105603540D01*
X162110630Y-105752730D01*
X162499663Y-105753069D01*
X162859212Y-105604507D01*
X163134540Y-105329659D01*
X163283730Y-104970370D01*
X163284069Y-104581337D01*
X163185673Y-104343200D01*
X169254206Y-104343200D01*
X169371341Y-104460540D01*
X169730630Y-104609730D01*
X169799000Y-104609790D01*
X169799000Y-104921208D01*
X169586559Y-105057910D01*
X169509063Y-105171329D01*
X169407410Y-105272982D01*
X169351729Y-105042389D01*
X168868922Y-104874378D01*
X168358572Y-104903917D01*
X168024271Y-105042389D01*
X167968590Y-105272984D01*
X168688000Y-105992395D01*
X168702142Y-105978252D01*
X168881748Y-106157858D01*
X168867605Y-106172000D01*
X168881748Y-106186142D01*
X168702142Y-106365748D01*
X168688000Y-106351605D01*
X167968590Y-107071016D01*
X168024271Y-107301611D01*
X168507078Y-107469622D01*
X169017428Y-107440083D01*
X169351729Y-107301611D01*
X169407410Y-107071018D01*
X169509072Y-107172680D01*
X169573910Y-107273441D01*
X169786110Y-107418431D01*
X169799000Y-107421041D01*
X169799000Y-112898806D01*
X169763345Y-112913538D01*
X169303154Y-113372927D01*
X169053794Y-113973453D01*
X169053226Y-114623694D01*
X169301538Y-115224655D01*
X169760927Y-115684846D01*
X169799000Y-115700655D01*
X169799000Y-116962806D01*
X169763345Y-116977538D01*
X169303154Y-117436927D01*
X169053794Y-118037453D01*
X169053226Y-118687694D01*
X169301538Y-119288655D01*
X169760927Y-119748846D01*
X170361453Y-119998206D01*
X171011694Y-119998774D01*
X171612655Y-119750462D01*
X172072846Y-119291073D01*
X172322206Y-118690547D01*
X172322774Y-118040306D01*
X172074462Y-117439345D01*
X171615073Y-116979154D01*
X171577000Y-116963345D01*
X171577000Y-115701194D01*
X171612655Y-115686462D01*
X172072846Y-115227073D01*
X172322206Y-114626547D01*
X172322774Y-113976306D01*
X172074462Y-113375345D01*
X171615073Y-112915154D01*
X171577000Y-112899345D01*
X171577000Y-107422792D01*
X171789441Y-107286090D01*
X171934431Y-107073890D01*
X171985440Y-106822000D01*
X171985440Y-105522000D01*
X171941162Y-105286683D01*
X171802090Y-105070559D01*
X171589890Y-104925569D01*
X171577000Y-104922959D01*
X171577000Y-104889236D01*
X176060255Y-100405981D01*
X176059931Y-100777663D01*
G36*
X114764330Y-120469029D02*
X115035172Y-120650000D01*
X114764330Y-120830971D01*
X114554000Y-121145752D01*
X114343670Y-120830971D01*
X114072839Y-120650008D01*
X114490821Y-120268490D01*
X114548336Y-120145772D01*
X114764330Y-120469029D01*
X114764330Y-120469029D01*
G37*
X114764330Y-120469029D02*
X115035172Y-120650000D01*
X114764330Y-120830971D01*
X114554000Y-121145752D01*
X114343670Y-120830971D01*
X114072839Y-120650008D01*
X114490821Y-120268490D01*
X114548336Y-120145772D01*
X114764330Y-120469029D01*
G36*
X114764330Y-110309029D02*
X115035172Y-110490000D01*
X114764330Y-110670971D01*
X114548336Y-110994228D01*
X114490821Y-110871510D01*
X114072839Y-110489992D01*
X114343670Y-110309029D01*
X114554000Y-109994248D01*
X114764330Y-110309029D01*
X114764330Y-110309029D01*
G37*
X114764330Y-110309029D02*
X115035172Y-110490000D01*
X114764330Y-110670971D01*
X114548336Y-110994228D01*
X114490821Y-110871510D01*
X114072839Y-110489992D01*
X114343670Y-110309029D01*
X114554000Y-109994248D01*
X114764330Y-110309029D01*
G36*
X114617179Y-105028490D02*
X115035161Y-105410008D01*
X114764330Y-105590971D01*
X114554000Y-105905752D01*
X114343670Y-105590971D01*
X114072828Y-105410000D01*
X114343670Y-105229029D01*
X114559664Y-104905772D01*
X114617179Y-105028490D01*
X114617179Y-105028490D01*
G37*
X114617179Y-105028490D02*
X115035161Y-105410008D01*
X114764330Y-105590971D01*
X114554000Y-105905752D01*
X114343670Y-105590971D01*
X114072828Y-105410000D01*
X114343670Y-105229029D01*
X114559664Y-104905772D01*
X114617179Y-105028490D01*
M02*
